<?xml version="1.0" encoding="UTF-8" standalone="no"?><!DOCTYPE svg PUBLIC "-//W3C//DTD SVG 1.1//EN" "http://www.w3.org/Graphics/SVG/1.1/DTD/svg11.dtd"><svg width="100%" height="100%" viewBox="0 0 885 165" version="1.1" xmlns="http://www.w3.org/2000/svg" xmlns:xlink="http://www.w3.org/1999/xlink" xml:space="preserve" xmlns:serif="http://www.serif.com/" style="fill-rule:evenodd;clip-rule:evenodd;stroke-linejoin:round;stroke-miterlimit:2;"><g transform="matrix(0.75,0,0,0.75,0,0)"><g transform="matrix(0.008296,0,0,0.008296,589.5,109.718901)"><g transform="matrix(1,0,0,1,-71055.555556,-13225)"><clipPath id="_clip1"><rect x="0" y="0" width="142111.111" height="26450"/></clipPath><g clip-path="url(#_clip1)"><g transform="matrix(5.555556,0,0,5.555556,0,0)"><rect x="7598.1" y="1931.71" width="544.66" height="2149.99"/></g><g transform="matrix(5.555556,0,0,5.555556,0,0)"><g><path d="M971.74,4046.59l0,-582.11l882.55,0c122.05,0 215.94,-28.17 281.66,-89.19c65.72,-61.03 98.58,-140.83 98.58,-248.8l0,-150.22c0,-107.97 -32.86,-197.17 -98.58,-258.19c-70.42,-61.03 -164.3,-93.89 -281.66,-93.89l-882.55,0l0,-582.11l877.86,0c107.97,0 192.47,-28.17 253.5,-84.5c61.03,-61.03 89.19,-140.83 89.19,-248.8l0,-112.67c0,-98.58 -28.17,-169 -89.19,-220.64c-61.03,-56.33 -145.53,-79.81 -253.5,-79.81l-877.86,0l0,-582.11l910.72,0c291.05,0 516.39,75.11 680.69,220.64c159.61,140.83 239.42,347.39 239.42,614.97l0,112.67c0,183.08 -51.64,328.61 -154.92,445.97c-107.97,117.36 -253.5,192.47 -445.97,225.33c206.55,28.17 366.16,103.28 474.14,230.03c112.67,126.75 169,291.05 169,492.91l0,150.22c0,267.58 -79.81,474.14 -239.42,619.66c-159.61,145.53 -389.64,220.64 -680.69,220.64l-952.97,0Zm-291.05,0l0,-3333.04l610.27,0l0,3333.04l-610.27,0Z" style="fill-rule:nonzero;stroke:#000;stroke-width:1361.38px;"/></g><g><path d="M3035.38,4046.59l1117.27,-3333.04l399.03,0l1121.97,3333.04l-638.44,0l-680.69,-2248.63l-680.69,2248.63l-638.45,0Zm586.8,-530.47l0,-582.11l1483.44,0l0,582.11l-1483.44,0Z" style="fill-rule:nonzero;stroke:#000;stroke-width:1361.38px;"/></g><g><path d="M6351.99,4046.59l0,-3056.07l610.27,0l0,3056.07l-610.27,0Zm-793.36,-2746.23l0,-586.8l2196.99,0l0,586.8l-2196.99,0Z" style="fill-rule:nonzero;stroke:#000;stroke-width:1361.38px;"/></g><g><path d="M8749.62,4046.59l0,-3056.07l610.27,0l0,3056.07l-610.27,0Zm-793.36,-2746.23l0,-586.8l2196.99,0l0,586.8l-2196.99,0Z" style="fill-rule:nonzero;stroke:#000;stroke-width:1361.38px;"/></g><g><path d="M10486.7,4046.59l0,-3333.04l610.27,0l0,3333.04l-610.27,0Zm262.89,0l0,-586.8l1713.46,0l0,586.8l-1713.46,0Z" style="fill-rule:nonzero;stroke:#000;stroke-width:1361.38px;"/></g><g><path d="M12870.59,4046.59l0,-3333.04l610.27,0l0,3333.04l-610.27,0Zm234.72,0l0,-586.8l1755.71,0l0,586.8l-1755.71,0Zm0,-1361.38l0,-586.8l1549.16,0l0,586.8l-1549.16,0Zm0,-1380.16l0,-591.5l1755.71,0l0,591.5l-1755.71,0Z" style="fill-rule:nonzero;stroke:#000;stroke-width:1361.38px;"/></g><g><path d="M15890.71,4079.45c-183.08,0 -347.39,-32.86 -497.61,-107.97c-145.53,-75.11 -262.89,-178.39 -347.39,-309.83l469.44,-380.25c51.64,65.72 107.97,112.67 178.39,150.22c65.72,32.86 136.14,51.64 211.25,51.64c107.97,0 187.78,-37.56 244.11,-107.97c61.03,-70.42 89.19,-169 89.19,-300.44l0,-2361.29l624.36,0l0,2384.76c0,309.83 -84.5,553.94 -253.5,722.94c-169,173.69 -408.41,258.19 -718.25,258.19l0.01,-0Z" style="fill-rule:nonzero;stroke:#000;stroke-width:1361.38px;"/></g><g><path d="M18547.9,4079.45c-225.33,0 -417.8,-42.25 -586.8,-131.44c-164.3,-89.19 -291.05,-215.94 -380.25,-380.25c-89.19,-159.61 -136.14,-352.08 -136.14,-572.72l0,-1229.94c0,-220.64 46.94,-413.11 136.14,-577.41c89.19,-159.61 215.94,-286.36 380.25,-375.55c169,-89.19 361.47,-131.44 586.8,-131.44c220.64,0 413.11,42.25 582.11,131.44c164.3,89.19 291.05,215.94 380.25,375.55c89.19,164.3 136.14,356.78 136.14,577.41l0,1229.94c0,220.64 -46.94,413.11 -136.14,572.72c-89.19,164.3 -215.94,291.05 -380.25,380.25c-169,89.19 -361.47,131.44 -582.11,131.44Zm-4.69,-605.58c145.53,0 262.89,-46.94 347.39,-136.14c84.5,-89.19 126.75,-206.55 126.75,-356.78l0,-1206.47c0,-145.53 -42.25,-267.58 -126.75,-352.08c-84.5,-89.19 -201.86,-136.14 -342.69,-136.14c-145.53,0 -262.89,46.94 -347.39,136.14c-84.5,84.5 -126.75,206.55 -126.75,352.08l0,1206.47c0,150.22 42.25,267.58 126.75,356.78c84.5,89.19 201.86,136.14 342.69,136.14Z" style="fill-rule:nonzero;stroke:#000;stroke-width:1361.38px;"/></g><g><path d="M20473.74,4046.59l0,-582.11l882.55,0c122.05,0 215.94,-28.17 281.66,-89.19c65.72,-61.03 98.58,-140.83 98.58,-248.8l0,-150.22c0,-107.97 -32.86,-197.17 -98.58,-258.19c-70.42,-61.03 -164.3,-93.89 -281.66,-93.89l-882.55,0l0,-582.11l877.86,0c107.97,0 192.47,-28.17 253.5,-84.5c61.03,-61.03 89.19,-140.83 89.19,-248.8l0,-112.67c0,-98.58 -28.17,-169 -89.19,-220.64c-61.03,-56.33 -145.53,-79.81 -253.5,-79.81l-877.86,0l0,-582.11l910.72,0c291.05,0 516.39,75.11 680.69,220.64c159.61,140.83 239.42,347.39 239.42,614.97l0,112.67c0,183.08 -51.64,328.61 -154.92,445.97c-107.97,117.36 -253.5,192.47 -445.97,225.33c206.55,28.17 366.16,103.28 474.14,230.03c112.67,126.75 169,291.05 169,492.91l0,150.22c0,267.58 -79.81,474.14 -239.42,619.66c-159.61,145.53 -389.64,220.64 -680.69,220.64l-952.97,0Zm-291.05,0l0,-3333.04l610.27,0l0,3333.04l-610.27,0Z" style="fill-rule:nonzero;stroke:#000;stroke-width:1361.38px;"/></g><g><path d="M23772.01,4079.45c-178.39,0 -338,-23.47 -488.22,-70.42c-145.53,-46.94 -272.28,-117.36 -375.55,-206.55c-107.97,-93.89 -192.47,-211.25 -258.19,-342.69l497.61,-366.16c75.11,131.44 164.3,230.03 281.66,295.75c112.67,70.42 239.42,103.28 380.25,103.28c150.22,0 272.28,-28.17 356.78,-93.89c84.5,-61.03 126.75,-150.22 126.75,-258.19l0,-98.58c0,-89.19 -28.17,-154.92 -75.11,-206.55c-51.64,-46.94 -122.05,-84.5 -206.55,-117.36c-84.5,-28.17 -173.69,-51.64 -272.28,-79.81c-112.67,-23.47 -225.33,-56.33 -342.69,-93.89c-112.67,-32.86 -220.64,-84.5 -314.53,-150.22c-98.58,-61.03 -173.69,-150.22 -234.72,-262.89c-56.33,-112.67 -89.19,-258.19 -89.19,-441.28l0,-56.33c0,-305.14 98.58,-539.86 286.36,-704.16c192.47,-169 464.75,-248.8 816.83,-248.8c220.64,0 417.8,46.94 586.8,145.53c169,98.58 305.14,244.11 399.03,436.58l-464.75,370.86c-70.42,-122.05 -154.92,-211.25 -253.5,-276.97c-93.89,-61.03 -197.17,-93.89 -305.14,-93.89c-145.53,0 -258.19,28.17 -338,84.5c-79.81,61.03 -122.05,140.83 -122.05,239.42l0,75.11c0,98.58 28.17,173.69 84.5,225.33c61.03,56.33 136.14,98.58 225.33,126.75c93.89,28.17 192.47,61.03 300.44,89.19c107.97,28.17 220.64,61.03 328.61,98.58c107.97,37.56 206.55,89.19 295.75,154.92c93.89,65.72 164.3,154.92 220.64,262.89c51.64,107.97 79.81,248.8 79.81,417.8l0,93.89c0,300.44 -98.58,535.16 -295.75,699.47c-197.17,169 -474.14,248.8 -830.91,248.8l-0.02,-0.02Z" style="fill-rule:nonzero;stroke:#000;stroke-width:1361.38px;"/></g></g><g transform="matrix(5.555556,0,0,5.555556,0,0)"><g><path d="M971.74,4046.59l0,-582.11l882.55,0c122.05,0 215.94,-28.17 281.66,-89.19c65.72,-61.03 98.58,-140.83 98.58,-248.8l0,-150.22c0,-107.97 -32.86,-197.17 -98.58,-258.19c-70.42,-61.03 -164.3,-93.89 -281.66,-93.89l-882.55,0l0,-582.11l877.86,0c107.97,0 192.47,-28.17 253.5,-84.5c61.03,-61.03 89.19,-140.83 89.19,-248.8l0,-112.67c0,-98.58 -28.17,-169 -89.19,-220.64c-61.03,-56.33 -145.53,-79.81 -253.5,-79.81l-877.86,0l0,-582.11l910.72,0c291.05,0 516.39,75.11 680.69,220.64c159.61,140.83 239.42,347.39 239.42,614.97l0,112.67c0,183.08 -51.64,328.61 -154.92,445.97c-107.97,117.36 -253.5,192.47 -445.97,225.33c206.55,28.17 366.16,103.28 474.14,230.03c112.67,126.75 169,291.05 169,492.91l0,150.22c0,267.58 -79.81,474.14 -239.42,619.66c-159.61,145.53 -389.64,220.64 -680.69,220.64l-952.97,0Zm-291.05,0l0,-3333.04l610.27,0l0,3333.04l-610.27,0Z" style="fill:#fff;fill-rule:nonzero;"/></g><g><path d="M3035.38,4046.59l1117.27,-3333.04l399.03,0l1121.97,3333.04l-638.44,0l-680.69,-2248.63l-680.69,2248.63l-638.45,0Zm586.8,-530.47l0,-582.11l1483.44,0l0,582.11l-1483.44,0Z" style="fill:#fff;fill-rule:nonzero;"/></g><g><path d="M6351.99,4046.59l0,-3056.07l610.27,0l0,3056.07l-610.27,0Zm-793.36,-2746.23l0,-586.8l2196.99,0l0,586.8l-2196.99,0Z" style="fill:#fff;fill-rule:nonzero;"/></g><g><path d="M8749.62,4046.59l0,-3056.07l610.27,0l0,3056.07l-610.27,0Zm-793.36,-2746.23l0,-586.8l2196.99,0l0,586.8l-2196.99,0Z" style="fill:#fff;fill-rule:nonzero;"/></g><g><path d="M10486.7,4046.59l0,-3333.04l610.27,0l0,3333.04l-610.27,0Zm262.89,0l0,-586.8l1713.46,0l0,586.8l-1713.46,0Z" style="fill:#fff;fill-rule:nonzero;"/></g><g><path d="M12870.59,4046.59l0,-3333.04l610.27,0l0,3333.04l-610.27,0Zm234.72,0l0,-586.8l1755.71,0l0,586.8l-1755.71,0Zm0,-1361.38l0,-586.8l1549.16,0l0,586.8l-1549.16,0Zm0,-1380.16l0,-591.5l1755.71,0l0,591.5l-1755.71,0Z" style="fill:#fff;fill-rule:nonzero;"/></g><g><path d="M15890.71,4079.45c-183.08,0 -347.39,-32.86 -497.61,-107.97c-145.53,-75.11 -262.89,-178.39 -347.39,-309.83l469.44,-380.25c51.64,65.72 107.97,112.67 178.39,150.22c65.72,32.86 136.14,51.64 211.25,51.64c107.97,0 187.78,-37.56 244.11,-107.97c61.03,-70.42 89.19,-169 89.19,-300.44l0,-2361.29l624.36,0l0,2384.76c0,309.83 -84.5,553.94 -253.5,722.94c-169,173.69 -408.41,258.19 -718.25,258.19l0.01,-0Z" style="fill:#fff;fill-rule:nonzero;"/></g><g><path d="M18547.9,4079.45c-225.33,0 -417.8,-42.25 -586.8,-131.44c-164.3,-89.19 -291.05,-215.94 -380.25,-380.25c-89.19,-159.61 -136.14,-352.08 -136.14,-572.72l0,-1229.94c0,-220.64 46.94,-413.11 136.14,-577.41c89.19,-159.61 215.94,-286.36 380.25,-375.55c169,-89.19 361.47,-131.44 586.8,-131.44c220.64,0 413.11,42.25 582.11,131.44c164.3,89.19 291.05,215.94 380.25,375.55c89.19,164.3 136.14,356.78 136.14,577.41l0,1229.94c0,220.64 -46.94,413.11 -136.14,572.72c-89.19,164.3 -215.94,291.05 -380.25,380.25c-169,89.19 -361.47,131.44 -582.11,131.44Zm-4.69,-605.58c145.53,0 262.89,-46.94 347.39,-136.14c84.5,-89.19 126.75,-206.55 126.75,-356.78l0,-1206.47c0,-145.53 -42.25,-267.58 -126.75,-352.08c-84.5,-89.19 -201.86,-136.14 -342.69,-136.14c-145.53,0 -262.89,46.94 -347.39,136.14c-84.5,84.5 -126.75,206.55 -126.75,352.08l0,1206.47c0,150.22 42.25,267.58 126.75,356.78c84.5,89.19 201.86,136.14 342.69,136.14Z" style="fill:#fff;fill-rule:nonzero;"/></g><g><path d="M20473.74,4046.59l0,-582.11l882.55,0c122.05,0 215.94,-28.17 281.66,-89.19c65.72,-61.03 98.58,-140.83 98.58,-248.8l0,-150.22c0,-107.97 -32.86,-197.17 -98.58,-258.19c-70.42,-61.03 -164.3,-93.89 -281.66,-93.89l-882.55,0l0,-582.11l877.86,0c107.97,0 192.47,-28.17 253.5,-84.5c61.03,-61.03 89.19,-140.83 89.19,-248.8l0,-112.67c0,-98.58 -28.17,-169 -89.19,-220.64c-61.03,-56.33 -145.53,-79.81 -253.5,-79.81l-877.86,0l0,-582.11l910.72,0c291.05,0 516.39,75.11 680.69,220.64c159.61,140.83 239.42,347.39 239.42,614.97l0,112.67c0,183.08 -51.64,328.61 -154.92,445.97c-107.97,117.36 -253.5,192.47 -445.97,225.33c206.55,28.17 366.16,103.28 474.14,230.03c112.67,126.75 169,291.05 169,492.91l0,150.22c0,267.58 -79.81,474.14 -239.42,619.66c-159.61,145.53 -389.64,220.64 -680.69,220.64l-952.97,0Zm-291.05,0l0,-3333.04l610.27,0l0,3333.04l-610.27,0Z" style="fill:#fff;fill-rule:nonzero;"/></g><g><path d="M23772.01,4079.45c-178.39,0 -338,-23.47 -488.22,-70.42c-145.53,-46.94 -272.28,-117.36 -375.55,-206.55c-107.97,-93.89 -192.47,-211.25 -258.19,-342.69l497.61,-366.16c75.11,131.44 164.3,230.03 281.66,295.75c112.67,70.42 239.42,103.28 380.25,103.28c150.22,0 272.28,-28.17 356.78,-93.89c84.5,-61.03 126.75,-150.22 126.75,-258.19l0,-98.58c0,-89.19 -28.17,-154.92 -75.11,-206.55c-51.64,-46.94 -122.05,-84.5 -206.55,-117.36c-84.5,-28.17 -173.69,-51.64 -272.28,-79.81c-112.67,-23.47 -225.33,-56.33 -342.69,-93.89c-112.67,-32.86 -220.64,-84.5 -314.53,-150.22c-98.58,-61.03 -173.69,-150.22 -234.72,-262.89c-56.33,-112.67 -89.19,-258.19 -89.19,-441.28l0,-56.33c0,-305.14 98.58,-539.86 286.36,-704.16c192.47,-169 464.75,-248.8 816.83,-248.8c220.64,0 417.8,46.94 586.8,145.53c169,98.58 305.14,244.11 399.03,436.58l-464.75,370.86c-70.42,-122.05 -154.92,-211.25 -253.5,-276.97c-93.89,-61.03 -197.17,-93.89 -305.14,-93.89c-145.53,0 -258.19,28.17 -338,84.5c-79.81,61.03 -122.05,140.83 -122.05,239.42l0,75.11c0,98.58 28.17,173.69 84.5,225.33c61.03,56.33 136.14,98.58 225.33,126.75c93.89,28.17 192.47,61.03 300.44,89.19c107.97,28.17 220.64,61.03 328.61,98.58c107.97,37.56 206.55,89.19 295.75,154.92c93.89,65.72 164.3,154.92 220.64,262.89c51.64,107.97 79.81,248.8 79.81,417.8l0,93.89c0,300.44 -98.58,535.16 -295.75,699.47c-197.17,169 -474.14,248.8 -830.91,248.8l-0.02,-0.02Z" style="fill:#fff;fill-rule:nonzero;"/></g></g></g></g></g></g></svg>