<?xml version="1.0" encoding="UTF-8" standalone="no"?><!DOCTYPE svg PUBLIC "-//W3C//DTD SVG 1.1//EN" "http://www.w3.org/Graphics/SVG/1.1/DTD/svg11.dtd"><svg width="100%" height="100%" viewBox="0 0 5650 1052" version="1.1" xmlns="http://www.w3.org/2000/svg" xmlns:xlink="http://www.w3.org/1999/xlink" xml:space="preserve" xmlns:serif="http://www.serif.com/" style="fill-rule:evenodd;clip-rule:evenodd;stroke-linejoin:round;stroke-miterlimit:2;"><clipPath id="_clip1"><rect x="0" y="0" width="5649.375" height="1051.473"/></clipPath><g clip-path="url(#_clip1)"><g><rect x="1678.05" y="426.621" width="120.289" height="474.828"/></g><g><g><path d="M214.61,893.694l0,-128.56l194.912,0c26.955,0 47.691,-6.221 62.205,-19.698c14.514,-13.479 21.772,-31.102 21.772,-54.948l0,-33.176c0,-23.845 -7.257,-43.545 -21.772,-57.022c-15.552,-13.479 -36.286,-20.736 -62.205,-20.736l-194.912,0l0,-128.56l193.876,0c23.845,0 42.507,-6.221 55.986,-18.662c13.479,-13.479 19.698,-31.102 19.698,-54.948l0,-24.883c0,-21.772 -6.221,-37.324 -19.698,-48.729c-13.479,-12.441 -32.14,-17.626 -55.986,-17.626l-193.876,0l0,-128.56l201.134,0c64.279,0 114.045,16.588 150.331,48.729c35.25,31.102 52.876,76.722 52.876,135.817l0,24.883c0,40.433 -11.405,72.574 -34.214,98.493c-23.845,25.919 -55.986,42.507 -98.493,49.764c45.617,6.221 80.867,22.81 104.714,50.802c24.883,27.993 37.324,64.279 37.324,108.86l0,33.176c0,59.095 -17.626,104.714 -52.876,136.853c-35.25,32.14 -86.052,48.729 -150.331,48.729l-210.465,0Zm-64.279,0l0,-736.106l134.779,0l0,736.106l-134.779,0Z" style="fill-rule:nonzero;stroke:#000;stroke-width:300.66px;"/></g><g><path d="M670.367,893.694l246.75,-736.106l88.126,0l247.788,736.106l-141,0l-150.331,-496.613l-150.331,496.613l-141.002,0Zm129.596,-117.155l0,-128.56l327.62,0l0,128.56l-327.62,0Z" style="fill-rule:nonzero;stroke:#000;stroke-width:300.66px;"/></g><g><path d="M1402.845,893.694l0,-674.937l134.779,-0l0,674.937l-134.779,0Zm-175.215,-606.508l0,-129.596l485.208,0l0,129.596l-485.208,0Z" style="fill-rule:nonzero;stroke:#000;stroke-width:300.66px;"/></g><g><path d="M1932.365,893.694l0,-674.937l134.779,-0l0,674.937l-134.779,0Zm-175.215,-606.508l0,-129.596l485.208,0l0,129.596l-485.208,0Z" style="fill-rule:nonzero;stroke:#000;stroke-width:300.66px;"/></g><g><path d="M2316.001,893.694l0,-736.106l134.779,0l0,736.106l-134.779,0Zm58.06,0l0,-129.596l378.42,0l0,129.596l-378.42,0Z" style="fill-rule:nonzero;stroke:#000;stroke-width:300.66px;"/></g><g><path d="M2842.486,893.694l0,-736.106l134.779,0l0,736.106l-134.779,0Zm51.838,0l0,-129.596l387.751,0l0,129.596l-387.751,0Zm0,-300.662l0,-129.596l342.134,0l0,129.596l-342.134,0Zm0,-304.81l0,-130.634l387.751,0l0,130.634l-387.751,0Z" style="fill-rule:nonzero;stroke:#000;stroke-width:300.66px;"/></g><g><path d="M3509.483,900.952c-40.433,0 -76.722,-7.257 -109.898,-23.845c-32.14,-16.588 -58.06,-39.398 -76.722,-68.426l103.676,-83.979c11.405,14.514 23.845,24.883 39.398,33.176c14.514,7.257 30.067,11.405 46.655,11.405c23.845,0 41.471,-8.295 53.912,-23.845c13.479,-15.552 19.698,-37.324 19.698,-66.353l0,-521.494l137.891,-0l0,526.677c0,68.426 -18.662,122.338 -55.986,159.662c-37.324,38.36 -90.198,57.022 -158.626,57.022l0.002,-0Z" style="fill-rule:nonzero;stroke:#000;stroke-width:300.66px;"/></g><g><path d="M4096.327,900.952c-49.764,0 -92.272,-9.331 -129.596,-29.029c-36.286,-19.698 -64.279,-47.691 -83.979,-83.979c-19.698,-35.25 -30.067,-77.757 -30.067,-126.486l0,-271.634c0,-48.729 10.367,-91.236 30.067,-127.522c19.698,-35.25 47.691,-63.243 83.979,-82.941c37.324,-19.698 79.831,-29.029 129.596,-29.029c48.729,0 91.236,9.331 128.56,29.029c36.286,19.698 64.279,47.691 83.979,82.941c19.698,36.286 30.067,78.795 30.067,127.522l0,271.634c0,48.729 -10.367,91.236 -30.067,126.486c-19.698,36.286 -47.691,64.279 -83.979,83.979c-37.324,19.698 -79.831,29.029 -128.56,29.029Zm-1.036,-133.743c32.14,0 58.06,-10.367 76.722,-30.067c18.662,-19.698 27.993,-45.617 27.993,-78.795l0,-266.45c0,-32.14 -9.331,-59.095 -27.993,-77.757c-18.662,-19.698 -44.581,-30.067 -75.684,-30.067c-32.14,0 -58.06,10.367 -76.722,30.067c-18.662,18.662 -27.993,45.617 -27.993,77.757l0,266.45c0,33.176 9.331,59.095 27.993,78.795c18.662,19.698 44.581,30.067 75.684,30.067Z" style="fill-rule:nonzero;stroke:#000;stroke-width:300.66px;"/></g><g><path d="M4521.651,893.694l0,-128.56l194.912,0c26.955,0 47.691,-6.221 62.205,-19.698c14.514,-13.479 21.772,-31.102 21.772,-54.948l0,-33.176c0,-23.845 -7.257,-43.545 -21.772,-57.022c-15.552,-13.479 -36.286,-20.736 -62.205,-20.736l-194.912,0l0,-128.56l193.876,0c23.845,0 42.507,-6.221 55.986,-18.662c13.479,-13.479 19.698,-31.102 19.698,-54.948l0,-24.883c0,-21.772 -6.221,-37.324 -19.698,-48.729c-13.479,-12.441 -32.14,-17.626 -55.986,-17.626l-193.876,0l0,-128.56l201.134,0c64.279,0 114.045,16.588 150.331,48.729c35.25,31.102 52.876,76.722 52.876,135.817l0,24.883c0,40.433 -11.405,72.574 -34.214,98.493c-23.845,25.919 -55.986,42.507 -98.493,49.764c45.617,6.221 80.867,22.81 104.714,50.802c24.883,27.993 37.324,64.279 37.324,108.86l0,33.176c0,59.095 -17.626,104.714 -52.876,136.853c-35.25,32.14 -86.052,48.729 -150.331,48.729l-210.465,0Zm-64.279,0l0,-736.106l134.779,0l0,736.106l-134.779,0Z" style="fill-rule:nonzero;stroke:#000;stroke-width:300.66px;"/></g><g><path d="M5250.078,900.952c-39.398,0 -74.648,-5.183 -107.824,-15.552c-32.14,-10.367 -60.133,-25.919 -82.941,-45.617c-23.845,-20.736 -42.507,-46.655 -57.022,-75.684l109.898,-80.867c16.588,29.029 36.286,50.802 62.205,65.317c24.883,15.552 52.876,22.81 83.979,22.81c33.176,0 60.133,-6.221 78.795,-20.736c18.662,-13.479 27.993,-33.176 27.993,-57.022l0,-21.772c0,-19.698 -6.221,-34.214 -16.588,-45.617c-11.405,-10.367 -26.955,-18.662 -45.617,-25.919c-18.662,-6.221 -38.36,-11.405 -60.133,-17.626c-24.883,-5.183 -49.764,-12.441 -75.684,-20.736c-24.883,-7.257 -48.729,-18.662 -69.464,-33.176c-21.772,-13.479 -38.36,-33.176 -51.838,-58.06c-12.441,-24.883 -19.698,-57.022 -19.698,-97.457l0,-12.441c0,-67.391 21.772,-119.229 63.243,-155.515c42.507,-37.324 102.641,-54.948 180.398,-54.948c48.729,0 92.272,10.367 129.596,32.14c37.324,21.772 67.391,53.912 88.126,96.419l-102.641,81.905c-15.552,-26.955 -34.214,-46.655 -55.986,-61.169c-20.736,-13.479 -43.545,-20.736 -67.391,-20.736c-32.14,0 -57.022,6.221 -74.648,18.662c-17.626,13.479 -26.955,31.102 -26.955,52.876l0,16.588c0,21.772 6.221,38.36 18.662,49.764c13.479,12.441 30.067,21.772 49.764,27.993c20.736,6.221 42.507,13.479 66.353,19.698c23.845,6.221 48.729,13.479 72.574,21.772c23.845,8.295 45.617,19.698 65.317,34.214c20.736,14.514 36.286,34.214 48.729,58.06c11.405,23.845 17.626,54.948 17.626,92.272l0,20.736c0,66.353 -21.772,118.191 -65.317,154.479c-43.545,37.324 -104.714,54.948 -183.508,54.948l-0.004,-0.004Z" style="fill-rule:nonzero;stroke:#000;stroke-width:300.66px;"/></g></g><g><g><path d="M214.61,893.694l0,-128.56l194.912,0c26.955,0 47.691,-6.221 62.205,-19.698c14.514,-13.479 21.772,-31.102 21.772,-54.948l0,-33.176c0,-23.845 -7.257,-43.545 -21.772,-57.022c-15.552,-13.479 -36.286,-20.736 -62.205,-20.736l-194.912,0l0,-128.56l193.876,0c23.845,0 42.507,-6.221 55.986,-18.662c13.479,-13.479 19.698,-31.102 19.698,-54.948l0,-24.883c0,-21.772 -6.221,-37.324 -19.698,-48.729c-13.479,-12.441 -32.14,-17.626 -55.986,-17.626l-193.876,0l0,-128.56l201.134,0c64.279,0 114.045,16.588 150.331,48.729c35.25,31.102 52.876,76.722 52.876,135.817l0,24.883c0,40.433 -11.405,72.574 -34.214,98.493c-23.845,25.919 -55.986,42.507 -98.493,49.764c45.617,6.221 80.867,22.81 104.714,50.802c24.883,27.993 37.324,64.279 37.324,108.86l0,33.176c0,59.095 -17.626,104.714 -52.876,136.853c-35.25,32.14 -86.052,48.729 -150.331,48.729l-210.465,0Zm-64.279,0l0,-736.106l134.779,0l0,736.106l-134.779,0Z" style="fill:#fff;fill-rule:nonzero;"/></g><g><path d="M670.367,893.694l246.75,-736.106l88.126,0l247.788,736.106l-141,0l-150.331,-496.613l-150.331,496.613l-141.002,0Zm129.596,-117.155l0,-128.56l327.62,0l0,128.56l-327.62,0Z" style="fill:#fff;fill-rule:nonzero;"/></g><g><path d="M1402.845,893.694l0,-674.937l134.779,-0l0,674.937l-134.779,0Zm-175.215,-606.508l0,-129.596l485.208,0l0,129.596l-485.208,0Z" style="fill:#fff;fill-rule:nonzero;"/></g><g><path d="M1932.365,893.694l0,-674.937l134.779,-0l0,674.937l-134.779,0Zm-175.215,-606.508l0,-129.596l485.208,0l0,129.596l-485.208,0Z" style="fill:#fff;fill-rule:nonzero;"/></g><g><path d="M2316.001,893.694l0,-736.106l134.779,0l0,736.106l-134.779,0Zm58.06,0l0,-129.596l378.42,0l0,129.596l-378.42,0Z" style="fill:#fff;fill-rule:nonzero;"/></g><g><path d="M2842.486,893.694l0,-736.106l134.779,0l0,736.106l-134.779,0Zm51.838,0l0,-129.596l387.751,0l0,129.596l-387.751,0Zm0,-300.662l0,-129.596l342.134,0l0,129.596l-342.134,0Zm0,-304.81l0,-130.634l387.751,0l0,130.634l-387.751,0Z" style="fill:#fff;fill-rule:nonzero;"/></g><g><path d="M3509.483,900.952c-40.433,0 -76.722,-7.257 -109.898,-23.845c-32.14,-16.588 -58.06,-39.398 -76.722,-68.426l103.676,-83.979c11.405,14.514 23.845,24.883 39.398,33.176c14.514,7.257 30.067,11.405 46.655,11.405c23.845,0 41.471,-8.295 53.912,-23.845c13.479,-15.552 19.698,-37.324 19.698,-66.353l0,-521.494l137.891,-0l0,526.677c0,68.426 -18.662,122.338 -55.986,159.662c-37.324,38.36 -90.198,57.022 -158.626,57.022l0.002,-0Z" style="fill:#fff;fill-rule:nonzero;"/></g><g><path d="M4096.327,900.952c-49.764,0 -92.272,-9.331 -129.596,-29.029c-36.286,-19.698 -64.279,-47.691 -83.979,-83.979c-19.698,-35.25 -30.067,-77.757 -30.067,-126.486l0,-271.634c0,-48.729 10.367,-91.236 30.067,-127.522c19.698,-35.25 47.691,-63.243 83.979,-82.941c37.324,-19.698 79.831,-29.029 129.596,-29.029c48.729,0 91.236,9.331 128.56,29.029c36.286,19.698 64.279,47.691 83.979,82.941c19.698,36.286 30.067,78.795 30.067,127.522l0,271.634c0,48.729 -10.367,91.236 -30.067,126.486c-19.698,36.286 -47.691,64.279 -83.979,83.979c-37.324,19.698 -79.831,29.029 -128.56,29.029Zm-1.036,-133.743c32.14,0 58.06,-10.367 76.722,-30.067c18.662,-19.698 27.993,-45.617 27.993,-78.795l0,-266.45c0,-32.14 -9.331,-59.095 -27.993,-77.757c-18.662,-19.698 -44.581,-30.067 -75.684,-30.067c-32.14,0 -58.06,10.367 -76.722,30.067c-18.662,18.662 -27.993,45.617 -27.993,77.757l0,266.45c0,33.176 9.331,59.095 27.993,78.795c18.662,19.698 44.581,30.067 75.684,30.067Z" style="fill:#fff;fill-rule:nonzero;"/></g><g><path d="M4521.651,893.694l0,-128.56l194.912,0c26.955,0 47.691,-6.221 62.205,-19.698c14.514,-13.479 21.772,-31.102 21.772,-54.948l0,-33.176c0,-23.845 -7.257,-43.545 -21.772,-57.022c-15.552,-13.479 -36.286,-20.736 -62.205,-20.736l-194.912,0l0,-128.56l193.876,0c23.845,0 42.507,-6.221 55.986,-18.662c13.479,-13.479 19.698,-31.102 19.698,-54.948l0,-24.883c0,-21.772 -6.221,-37.324 -19.698,-48.729c-13.479,-12.441 -32.14,-17.626 -55.986,-17.626l-193.876,0l0,-128.56l201.134,0c64.279,0 114.045,16.588 150.331,48.729c35.25,31.102 52.876,76.722 52.876,135.817l0,24.883c0,40.433 -11.405,72.574 -34.214,98.493c-23.845,25.919 -55.986,42.507 -98.493,49.764c45.617,6.221 80.867,22.81 104.714,50.802c24.883,27.993 37.324,64.279 37.324,108.86l0,33.176c0,59.095 -17.626,104.714 -52.876,136.853c-35.25,32.14 -86.052,48.729 -150.331,48.729l-210.465,0Zm-64.279,0l0,-736.106l134.779,0l0,736.106l-134.779,0Z" style="fill:#fff;fill-rule:nonzero;"/></g><g><path d="M5250.078,900.952c-39.398,0 -74.648,-5.183 -107.824,-15.552c-32.14,-10.367 -60.133,-25.919 -82.941,-45.617c-23.845,-20.736 -42.507,-46.655 -57.022,-75.684l109.898,-80.867c16.588,29.029 36.286,50.802 62.205,65.317c24.883,15.552 52.876,22.81 83.979,22.81c33.176,0 60.133,-6.221 78.795,-20.736c18.662,-13.479 27.993,-33.176 27.993,-57.022l0,-21.772c0,-19.698 -6.221,-34.214 -16.588,-45.617c-11.405,-10.367 -26.955,-18.662 -45.617,-25.919c-18.662,-6.221 -38.36,-11.405 -60.133,-17.626c-24.883,-5.183 -49.764,-12.441 -75.684,-20.736c-24.883,-7.257 -48.729,-18.662 -69.464,-33.176c-21.772,-13.479 -38.36,-33.176 -51.838,-58.06c-12.441,-24.883 -19.698,-57.022 -19.698,-97.457l0,-12.441c0,-67.391 21.772,-119.229 63.243,-155.515c42.507,-37.324 102.641,-54.948 180.398,-54.948c48.729,0 92.272,10.367 129.596,32.14c37.324,21.772 67.391,53.912 88.126,96.419l-102.641,81.905c-15.552,-26.955 -34.214,-46.655 -55.986,-61.169c-20.736,-13.479 -43.545,-20.736 -67.391,-20.736c-32.14,0 -57.022,6.221 -74.648,18.662c-17.626,13.479 -26.955,31.102 -26.955,52.876l0,16.588c0,21.772 6.221,38.36 18.662,49.764c13.479,12.441 30.067,21.772 49.764,27.993c20.736,6.221 42.507,13.479 66.353,19.698c23.845,6.221 48.729,13.479 72.574,21.772c23.845,8.295 45.617,19.698 65.317,34.214c20.736,14.514 36.286,34.214 48.729,58.06c11.405,23.845 17.626,54.948 17.626,92.272l0,20.736c0,66.353 -21.772,118.191 -65.317,154.479c-43.545,37.324 -104.714,54.948 -183.508,54.948l-0.004,-0.004Z" style="fill:#fff;fill-rule:nonzero;"/></g></g></g></svg>