<?xml version="1.0" encoding="UTF-8" standalone="no"?>
<!DOCTYPE svg PUBLIC "-//W3C//DTD SVG 1.1//EN" "http://www.w3.org/Graphics/SVG/1.1/DTD/svg11.dtd">
<svg width="100%" height="100%" viewBox="0 0 884 166" version="1.1" xmlns="http://www.w3.org/2000/svg" xmlns:xlink="http://www.w3.org/1999/xlink" xml:space="preserve" xmlns:serif="http://www.serif.com/" style="fill-rule:evenodd;clip-rule:evenodd;stroke-linejoin:round;stroke-miterlimit:2;">
    <g transform="matrix(1,0,0,1,-0.000863525,0.000863525)">
        <g transform="matrix(0.863525,0,0,0.863525,0,0)">
            <g>
                <path d="M730.5,0L753.5,0C755.031,0.68 754.792,1.021 756.528,1.345C758.684,1.747 771.287,4.1 782.196,10.981C787.141,14.1 787.826,7.337 795.702,3.937C803.254,0.676 810.982,1.406 813.494,1.327C884.78,-0.912 887.801,7.807 900.743,17.154C904.474,19.849 908.603,6.46 938.464,1.33C940.186,1.034 939.948,0.68 941.499,0.001L965.499,0.001C965.976,0.153 966.101,0.894 966.578,1.046C968.141,1.545 969.818,1.565 971.425,1.892C974.523,2.522 992.933,6.264 1006.04,20.95C1038.76,57.628 1008.3,72.039 1006,75.796C1005.06,77.317 1006.17,77.263 1010,81.897C1029.57,105.539 1028.51,153.237 1000.21,175.137C979.36,191.275 961.837,190.965 961.086,191.077C960.586,191.152 33.361,191.109 31.663,191.077C29.152,191.03 15.224,190.835 5.677,178.372C5.244,177.807 3.082,174.985 1.571,170.478C1.013,168.815 0.792,169 0.001,167.501L0.001,23.501C8.754,4.616 10.813,1.039 43.501,1.006C83.213,0.967 115.884,-0.421 133.121,33.777C139.394,46.222 131.08,2.454 167.5,1.359C193.769,0.569 195.28,4.539 200.885,9.04C204.121,11.639 206.075,1.356 224.501,1.36C405.208,1.402 405.209,1.313 407.501,1.499C433.166,3.586 457.167,-6.969 469.157,18.651C473.307,27.518 470.108,102.284 471.176,109.576C471.343,110.714 471.638,111.714 485.474,111.088C488.048,110.971 487.498,109.539 487.498,84.501C487.498,20.544 485.696,16.786 498.668,6.721C501.276,4.698 507.97,-0.496 539.529,1.033C584.987,3.236 604.876,-4.778 617.163,13.726C619.064,16.589 622.816,22.239 620.667,56.535C619.933,68.261 610.927,71.371 611.884,75.406C614.981,88.469 612.381,100.003 613.315,103.56C613.834,105.535 621.419,103.73 621.606,103.633C622.756,103.034 622.556,23.875 623.85,19.613C630.572,-2.531 659.644,1.36 666.503,1.357C688.633,1.345 688.038,4.741 696.474,12.533C698.734,14.62 706.778,4.543 727.461,1.274C729.167,1.004 728.939,0.655 730.503,-0.001L730.5,0Z"/>
                <path d="M89.673,92.703C89.68,94.786 90.512,94.231 92.503,94.488C117.475,97.708 117.733,135.107 108.235,148.314C97.63,163.062 77.966,161.824 72.499,161.833C53.069,161.862 30.356,162.299 28.432,161.659C27.114,161.22 27.249,160.58 27.251,37.5C27.251,31.377 25.425,28.643 31.498,28.628C84.229,28.501 93.404,26.611 106.299,41.66C108.441,44.159 126.253,84.097 89.671,92.704L89.673,92.703Z" style="fill:rgb(254,254,254);"/>
                <path d="M869.67,92.701C869.677,94.735 870.476,94.23 872.503,94.491C892.236,97.036 893.584,117.802 893.758,120.483C896.465,162.166 865.329,161.815 852.5,161.833C810.116,161.893 807.494,163.047 807.275,159.516C807.273,159.476 807.245,30.8 807.29,30.472C807.497,28.99 807.992,28.502 823.5,28.496C867.818,28.479 874.789,28.193 886.301,41.657C888.523,44.256 906.211,84.118 869.67,92.7L869.67,92.701Z" style="fill:rgb(254,254,254);"/>
                <path d="M699.867,55.616C701.191,52.052 701.032,52.074 702.712,48.6C717.777,17.449 785.762,15.404 785.813,72.499C785.865,130.16 786.733,132.733 778.091,146.24C762.598,170.454 698.871,175.292 697.693,118.498C696.645,67.955 698.595,60.486 699.866,55.615L699.867,55.616Z" style="fill:rgb(254,254,254);"/>
                <path d="M151.864,145.615C147.326,160.675 147.503,161.796 144.511,161.827C124.013,162.038 123.809,162.678 122.503,161.497C121.017,160.153 132.675,129.335 142.614,98.538C144.413,92.964 164.424,30.96 166.267,29.25C166.869,28.692 181.477,27.176 182.646,30.439C184.013,34.256 226.447,160.264 226.434,160.497C226.337,162.21 223.164,161.867 206.5,161.833C200.165,161.82 200.957,159.743 199.011,153.649C195.967,144.119 196.177,140.762 191.499,140.73C188.545,140.709 156.036,140.482 154.576,140.833C152.881,141.241 152.104,144.92 151.863,145.615L151.864,145.615Z" style="fill:rgb(254,254,254);"/>
                <path d="M569.5,52.121C540.858,52.121 539.235,51.568 539.189,54.481C538.739,82.614 539.109,83.824 541.467,83.878C552.417,84.126 584.307,83.289 585.546,84.455C585.94,84.826 587.582,106.86 584.486,107.421C581.138,108.028 540.31,106.308 539.423,108.461C538.66,110.313 539.104,110.321 539.182,133.5C539.193,136.819 538.204,138.256 541.511,138.298C569.081,138.649 593.577,137.187 594.227,139.582C594.43,140.33 594.364,160.047 594.255,160.439C593.764,162.202 592.891,161.805 544.5,161.833C516.758,161.849 515.844,162.903 515.037,160.735C514.575,159.494 514.761,29.994 514.938,29.659C515.672,28.274 516.22,28.626 590.5,28.628C596.525,28.628 594.341,31.512 594.341,37.5C594.341,44.213 594.651,51.214 593.668,51.718C592.657,52.236 591.632,52.121 569.5,52.121Z" style="fill:rgb(254,254,254);"/>
                <path d="M959.403,139.022C960.547,138.627 969.384,135.573 971.057,129.372C977.94,103.849 945.003,109.211 923.75,96.087C903.474,83.566 903.898,38.78 935.579,29.763C974.334,18.733 996.533,47.038 992.481,51.482C992.08,51.921 977.247,63.82 976.397,64.286C973.607,65.815 969.195,52.354 955.474,50.698C932.78,47.958 931.707,68.099 936.801,74.264C951.113,91.586 1001.46,75.343 995.186,132.469C992.004,161.428 952.718,170.716 923.7,157.06C915.437,153.171 903.707,140.034 907.823,136.91C909.146,135.906 922.444,125.81 924.574,124.651C929.627,121.9 929.116,142.969 959.403,139.023L959.403,139.022Z" style="fill:rgb(254,254,254);"/>
                <path d="M296.5,51.944C281.474,51.944 278.58,50.715 278.55,55.5C278.36,86.539 279.045,160.031 278.095,161.194C277.49,161.934 255.021,162.866 254.258,160.597C253.56,158.523 254.917,53.916 253.522,52.476C251.886,50.786 223.119,53.867 222.336,50.539C222.317,50.46 222.026,30.205 222.535,29.518C223.275,28.519 223.602,28.625 302.501,28.628C303.108,28.628 309.484,28.628 310.011,29.663C310.24,30.112 310.121,50.385 310.104,50.441C309.476,52.607 303.685,51.944 296.5,51.945L296.5,51.944Z" style="fill:rgb(254,254,254);"/>
                <path d="M349.938,153.5C349.938,53.151 349.997,53.003 349.492,52.507C348.218,51.256 321.063,52.372 319.371,51.797C317.695,51.227 317.327,29.738 319.57,28.739C320.992,28.105 395.865,28.586 402.499,28.629C407.305,28.66 406.127,30.698 406.133,35.501C406.148,46.965 406.161,50.044 405.969,50.666C404.993,53.836 376.267,50.627 374.696,52.652C373.827,53.772 374.489,139.267 374.293,158.499C374.261,161.643 373.593,161.821 370.499,161.833C350.775,161.911 350.753,161.568 350.583,161.409C349.146,160.062 349.978,159.787 349.937,153.5L349.938,153.5Z" style="fill:rgb(254,254,254);"/>
                <path d="M443.908,120.5C443.908,134.337 442.99,138.284 446.504,138.303C495.717,138.562 498.308,136.331 498.513,140.499C498.594,142.152 499.448,159.477 498.075,161.184C497.382,162.046 421.094,162.655 419.908,161.185C419.024,160.09 419.43,30.129 419.693,29.592C420.491,27.965 443.069,28.22 443.632,29.421C443.945,30.089 443.908,30.135 443.908,120.5Z" style="fill:rgb(254,254,254);"/>
                <path d="M673.958,130.534C668.46,176.122 611.687,166.045 602.651,147.441C601.508,145.087 620.087,131.815 620.481,131.895C621.236,132.049 630.545,141.956 640.532,138.591C651.005,135.063 649.556,131.338 649.556,61.5C649.556,30.146 649.111,28.868 651.513,28.643C651.79,28.617 672.16,28.623 672.486,28.642C674.844,28.782 674.479,30.099 674.479,73.5C674.479,120.547 674.538,120.479 673.958,130.534Z" style="fill:rgb(254,254,254);"/>
                <path d="M741.494,138.906C739.773,138.772 727.122,137.785 723.918,126.378C722.752,122.228 722.602,121.691 722.892,72.503C723.04,47.475 745.539,51.295 748.488,52.533C759.8,57.279 760.724,65.019 760.729,75.501C760.752,126.287 763.558,137.068 741.494,138.907L741.494,138.906Z"/>
                <path d="M75.53,105.039C76.17,105.16 92.67,104.142 89.032,128.402C87.544,138.324 74.986,138.536 73.501,138.561C52.94,138.908 52.372,139.018 51.804,137.375C51.563,136.677 51.381,106.664 51.894,105.745C52.816,104.093 53.29,104.111 75.53,105.04L75.53,105.039Z"/>
                <path d="M855.529,105.039C856.226,105.171 872.582,104.091 869.014,128.401C867.558,138.321 854.984,138.535 853.501,138.56C832.939,138.909 832.359,139.021 831.815,137.37C831.587,136.68 831.41,106.649 831.901,105.743C832.803,104.081 833.287,104.113 855.529,105.039Z"/>
                <path d="M77.566,52.105C93.438,55.833 88.983,76.247 81.324,80.156C77.913,81.897 74.448,81.803 54.495,81.732C54.165,81.731 51.666,82.018 51.623,79.492C51.172,53.063 51.318,51.88 53.536,51.827C68.584,51.468 75.648,51.97 77.565,52.106L77.566,52.105Z"/>
                <path d="M857.567,52.106C873.904,55.972 867.673,75.777 863.138,79.032C858.805,82.142 855.092,81.798 834.498,81.733C834.069,81.732 831.685,82.002 831.644,79.492C831.22,53.07 831.317,51.876 833.535,51.824C848.624,51.473 855.65,51.971 857.568,52.107L857.567,52.106Z"/>
                <path d="M171.858,79.614C173.349,73.977 173.167,73.871 173.582,73.588C175.316,72.405 174.798,74.131 176.423,79.523C186.421,112.704 187.157,112.511 187.414,115.51C187.585,117.498 186.395,117.732 162.531,117.262C159.429,117.201 161.09,115.094 171.858,79.614Z" style="fill:rgb(1,1,1);"/>
                <path d="M520.5,189.999L497.5,189.999C497.962,189.877 498.062,189.118 498.523,188.995C501.796,188.127 505.846,188.051 506.488,188.039C507.985,188.011 509.045,188.633 514.479,188.834C516.136,188.895 517.824,188.649 519.452,188.964C519.934,189.057 520.017,189.906 520.499,189.999L520.5,189.999Z" style="fill-opacity:0.26;"/>
                <path d="M541.5,189.999L521.5,189.999C521.967,189.93 522.03,189.063 522.497,188.995C522.711,188.963 540.315,188.962 540.501,188.989C540.969,189.058 541.031,189.93 541.499,189.999L541.5,189.999Z" style="fill-opacity:0.48;"/>
                <path d="M834.5,189.999L816.5,189.999C816.968,189.93 817.03,189.059 817.498,188.99C817.663,188.966 833.304,188.956 833.503,188.997C833.964,189.092 834.038,189.904 834.499,189.999L834.5,189.999Z" style="fill-opacity:0.47;"/>
                <path d="M54.5,189.999L36.5,189.999C36.968,189.93 37.03,189.059 37.498,188.99C37.664,188.966 53.304,188.956 53.503,188.997C53.964,189.092 54.038,189.904 54.499,189.999L54.5,189.999Z" style="fill-opacity:0.47;"/>
            </g>
        </g>
    </g>
</svg>
