<?xml version="1.0" encoding="UTF-8" standalone="no"?><!DOCTYPE svg PUBLIC "-//W3C//DTD SVG 1.1//EN" "http://www.w3.org/Graphics/SVG/1.1/DTD/svg11.dtd"><svg width="100%" height="100%" viewBox="0 0 885 165" version="1.1" xmlns="http://www.w3.org/2000/svg" xmlns:xlink="http://www.w3.org/1999/xlink" xml:space="preserve" xmlns:serif="http://www.serif.com/" style="fill-rule:evenodd;clip-rule:evenodd;stroke-linejoin:round;stroke-miterlimit:2;"><g transform="matrix(0.75,0,0,0.75,0,0)"><g transform="matrix(1.151367,0,0,1.151367,0,0)"><path d="M730.5,0l23,0c1.531,0.68 1.292,1.021 3.028,1.345c2.156,0.402 14.759,2.755 25.668,9.636c4.945,3.119 5.63,-3.644 13.506,-7.044c7.552,-3.261 15.28,-2.531 17.792,-2.61c71.286,-2.239 74.307,6.48 87.249,15.827c3.731,2.695 7.86,-10.694 37.721,-15.824c1.722,-0.296 1.484,-0.65 3.035,-1.329l24,0c0.477,0.152 0.602,0.893 1.079,1.045c1.563,0.499 3.24,0.519 4.847,0.846c3.098,0.63 21.508,4.372 34.612,19.058c32.726,36.678 2.261,51.089 -0.041,54.846c-0.932,1.521 0.173,1.467 4.007,6.101c19.562,23.642 18.509,71.34 -9.79,93.24c-20.853,16.138 -40.861,13.71 -41.612,13.822c-0.5,0.075 -0.604,0.966 -1.104,1.04l-21,0c-1.568,-0.666 -1.347,-0.988 -3.043,-1.294c-25.964,-4.673 -30.199,-15.903 -34.628,-12.721c-28.196,20.254 -51.427,10.323 -63.291,13.013c-0.469,0.106 -0.569,0.896 -1.038,1.002c-0.461,-0.095 -0.535,-0.907 -0.996,-1.002c-0.199,-0.041 -15.841,-0.031 -16.005,-0.007c-0.468,0.069 -0.53,0.94 -0.998,1.009l-1,0c-0.458,-0.17 -0.591,-0.852 -1.048,-1.022c-5.285,-1.958 -14.024,5.034 -28.345,-10.094c-1.777,-1.877 -3.884,0.91 -8.775,3.289c-15.376,7.475 -19.976,6.191 -21.75,6.786c-0.474,0.159 -0.606,0.883 -1.081,1.042l-25,0c-0.47,-0.15 -0.614,-0.857 -1.083,-1.007c-0.991,-0.317 -2.201,0.33 -9.821,-1.817c-21.043,-5.929 -30.02,-20.457 -32.025,-18.583c-11.425,10.681 -10.476,12.334 -25.184,17.606c-5.721,2.051 -6.026,0.7 -11.809,2.73c-0.478,0.168 -0.6,0.904 -1.078,1.072l-27,-0c-0.475,-0.208 -0.599,-0.918 -1.075,-1.127c-0.895,-0.393 -1.917,-0.384 -2.869,-0.603c-5.634,-1.297 -8.142,-3.241 -11.165,-2.023c-11.294,4.55 -22.53,2.064 -60.871,2.641c-1.655,0.025 -1.45,0.534 -3.02,1.112l-1,0c-0.468,-0.069 -0.53,-0.941 -0.998,-1.01c-0.186,-0.028 -17.791,-0.026 -18.004,0.006c-0.467,0.069 -0.53,0.936 -0.997,1.004l-1,0c-0.482,-0.093 -0.565,-0.942 -1.047,-1.035c-1.628,-0.315 -3.316,-0.069 -4.973,-0.13c-5.434,-0.201 -6.495,-0.823 -7.991,-0.795c-0.642,0.012 -4.692,0.089 -7.965,0.956c-0.462,0.122 -0.562,0.881 -1.023,1.004l-71,0c-1.545,-0.573 -1.291,-1.073 -3.015,-1.117c-12.214,-0.312 -16.086,-0.301 -25.239,-10.16c-4.089,-4.404 -2.69,10.034 -25.744,10.141c-18.726,0.087 -43.037,3.756 -49.116,-21.332c-0.718,-2.964 0.204,-4.261 -2.871,-4.338c-14.248,-0.355 -14.6,0.192 -14.875,1.355c-0.132,0.556 -1.527,16.799 -18.145,22.935c-5.089,1.879 -35.472,2.375 -42.929,-0.159c-1.007,-0.342 -1.955,-0.844 -2.961,-1.19c-2.381,-0.817 -5.115,2.384 -14.085,2.673c-2.006,0.065 -4.014,0.044 -6.021,0.075c-4.622,0.073 -4.607,0.025 -5,0.098c-0.796,0.148 -0.215,0.871 -0.999,1.017l-14,-0c-0.771,-0.304 -0.306,-0.757 -1.03,-1.043c-0.149,-0.059 -0.14,0.044 -1.999,-0.151c-13.307,-1.393 -20.403,-11.475 -22.548,-17.478c-2.216,-6.206 -3.051,0.393 -5.918,4.88c-8.537,13.359 -22.094,12.624 -22.478,12.771c-0.451,0.173 -0.577,0.849 -1.028,1.022l-28,0c-0.474,-0.201 -0.613,-0.896 -1.087,-1.097c-0.711,-0.302 -4.752,-0.29 -10.614,-3.89c-3.371,-2.071 -8.025,2.654 -21.299,3.493c-12.086,0.763 -28.276,0.11 -29.963,0.492c-0.469,0.106 -0.569,0.896 -1.037,1.002c-0.461,-0.095 -0.535,-0.907 -0.996,-1.002c-0.2,-0.041 -15.84,-0.031 -16.005,-0.007c-0.468,0.069 -0.53,0.94 -0.998,1.009l-1,0c-1.532,-0.568 -1.318,-1.086 -3.016,-1.118c-2.511,-0.047 -17.261,1.953 -26.808,-10.51c-0.433,-0.565 -2.595,-3.387 -4.106,-7.894c-0.558,-1.663 -0.779,-1.478 -1.57,-2.977l0,-144c8.753,-18.885 10.812,-22.462 43.5,-22.495c39.712,-0.039 72.383,-1.427 89.62,32.771c6.273,12.445 -2.041,-31.323 34.379,-32.418c26.269,-0.79 27.78,3.18 33.385,7.681c3.236,2.599 5.19,-7.684 23.616,-7.68c180.707,0.042 180.708,-0.047 183,0.139c25.665,2.087 49.666,-8.468 61.656,17.152c4.15,8.867 0.951,83.633 2.019,90.925c0.167,1.138 0.462,2.138 14.298,1.512c2.574,-0.117 2.024,-1.549 2.024,-26.587c-0,-63.957 -1.802,-67.715 11.17,-77.78c2.608,-2.023 9.302,-7.217 40.861,-5.688c45.458,2.203 65.347,-5.811 77.634,12.693c1.901,2.863 5.653,8.513 3.504,42.809c-0.734,11.726 -9.74,14.836 -8.783,18.871c3.097,13.063 0.497,24.597 1.431,28.154c0.519,1.975 8.104,0.17 8.291,0.073c1.15,-0.599 0.95,-79.758 2.244,-84.02c6.722,-22.144 35.794,-18.253 42.653,-18.256c22.13,-0.012 21.535,3.384 29.971,11.176c2.26,2.087 10.304,-7.99 30.987,-11.259c1.706,-0.27 1.478,-0.619 3.042,-1.275Z" style="fill-opacity:1;"/><path d="M89.673,92.703c0.007,2.083 0.839,1.528 2.83,1.785c24.972,3.22 25.23,40.619 15.732,53.826c-10.605,14.748 -30.269,13.51 -35.736,13.519c-19.43,0.029 -42.143,0.466 -44.067,-0.174c-1.318,-0.439 -1.183,-1.079 -1.181,-124.159c0,-6.123 -1.826,-8.857 4.247,-8.872c52.731,-0.127 61.906,-2.017 74.801,13.032c2.142,2.499 19.954,42.437 -16.628,51.044Z" style="fill:#fefefe;"/><path d="M869.67,92.701c0.007,2.034 0.806,1.529 2.833,1.79c19.733,2.545 21.081,23.311 21.255,25.992c2.707,41.683 -28.429,41.332 -41.258,41.35c-42.384,0.06 -45.006,1.214 -45.225,-2.317c-0.002,-0.04 -0.03,-128.716 0.015,-129.044c0.207,-1.482 0.702,-1.97 16.21,-1.976c44.318,-0.017 51.289,-0.303 62.801,13.161c2.222,2.599 19.91,42.461 -16.631,51.043Z" style="fill:#fefefe;"/><path d="M699.867,55.616c1.324,-3.564 1.165,-3.542 2.845,-7.016c15.065,-31.151 83.05,-33.196 83.101,23.899c0.052,57.661 0.92,60.234 -7.722,73.741c-15.493,24.214 -79.22,29.052 -80.398,-27.742c-1.048,-50.543 0.902,-58.012 2.173,-62.883Z" style="fill:#fefefe;"/><path d="M151.864,145.615c-4.538,15.06 -4.361,16.181 -7.353,16.212c-20.498,0.211 -20.702,0.851 -22.008,-0.33c-1.486,-1.344 10.172,-32.162 20.111,-62.959c1.799,-5.574 21.81,-67.578 23.653,-69.288c0.602,-0.558 15.21,-2.074 16.379,1.189c1.367,3.817 43.801,129.825 43.788,130.058c-0.097,1.713 -3.27,1.37 -19.934,1.336c-6.335,-0.013 -5.543,-2.09 -7.489,-8.184c-3.044,-9.53 -2.834,-12.887 -7.512,-12.919c-2.954,-0.021 -35.463,-0.248 -36.923,0.103c-1.695,0.408 -2.472,4.087 -2.713,4.782Z" style="fill:#fefefe;"/><path d="M569.5,52.121c-28.642,-0 -30.265,-0.553 -30.311,2.36c-0.45,28.133 -0.08,29.343 2.278,29.397c10.95,0.248 42.84,-0.589 44.079,0.577c0.394,0.371 2.036,22.405 -1.06,22.966c-3.348,0.607 -44.176,-1.113 -45.063,1.04c-0.763,1.852 -0.319,1.86 -0.241,25.039c0.011,3.319 -0.978,4.756 2.329,4.798c27.57,0.351 52.066,-1.111 52.716,1.284c0.203,0.748 0.137,20.465 0.028,20.857c-0.491,1.763 -1.364,1.366 -49.755,1.394c-27.742,0.016 -28.656,1.07 -29.463,-1.098c-0.462,-1.241 -0.276,-130.741 -0.099,-131.076c0.734,-1.385 1.282,-1.033 75.562,-1.031c6.025,0 3.841,2.884 3.841,8.872c0,6.713 0.31,13.714 -0.673,14.218c-1.011,0.518 -2.036,0.403 -24.168,0.403Z" style="fill:#fefefe;"/><path d="M959.403,139.022c1.144,-0.395 9.981,-3.449 11.654,-9.65c6.883,-25.523 -26.054,-20.161 -47.307,-33.285c-20.276,-12.521 -19.852,-57.307 11.829,-66.324c38.755,-11.03 60.954,17.275 56.902,21.719c-0.401,0.439 -15.234,12.338 -16.084,12.804c-2.79,1.529 -7.202,-11.932 -20.923,-13.588c-22.694,-2.74 -23.767,17.401 -18.673,23.566c14.312,17.322 64.663,1.079 58.385,58.205c-3.182,28.959 -42.468,38.247 -71.486,24.591c-8.263,-3.889 -19.993,-17.026 -15.877,-20.15c1.323,-1.004 14.621,-11.1 16.751,-12.259c5.053,-2.751 4.542,18.318 34.829,14.372Z" style="fill:#fefefe;"/><path d="M296.5,51.944c-15.026,0 -17.92,-1.229 -17.95,3.556c-0.19,31.039 0.495,104.531 -0.455,105.694c-0.605,0.74 -23.074,1.672 -23.837,-0.597c-0.698,-2.074 0.659,-106.681 -0.736,-108.121c-1.636,-1.69 -30.403,1.391 -31.186,-1.937c-0.019,-0.079 -0.31,-20.334 0.199,-21.021c0.74,-0.999 1.067,-0.893 79.966,-0.89c0.607,0 6.983,0 7.51,1.035c0.229,0.449 0.11,20.722 0.093,20.778c-0.628,2.166 -6.419,1.503 -13.604,1.504Z" style="fill:#fefefe;"/><path d="M349.938,153.5c-0,-100.349 0.059,-100.497 -0.446,-100.993c-1.274,-1.251 -28.429,-0.135 -30.121,-0.71c-1.676,-0.57 -2.044,-22.059 0.199,-23.058c1.422,-0.634 76.295,-0.153 82.929,-0.11c4.806,0.031 3.628,2.069 3.634,6.872c0.015,11.464 0.028,14.543 -0.164,15.165c-0.976,3.17 -29.702,-0.039 -31.273,1.986c-0.869,1.12 -0.207,86.615 -0.403,105.847c-0.032,3.144 -0.7,3.322 -3.794,3.334c-19.724,0.078 -19.746,-0.265 -19.916,-0.424c-1.437,-1.347 -0.605,-1.622 -0.646,-7.909Z" style="fill:#fefefe;"/><path d="M443.908,120.5c-0,13.837 -0.918,17.784 2.596,17.803c49.213,0.259 51.804,-1.972 52.009,2.196c0.081,1.653 0.935,18.978 -0.438,20.685c-0.693,0.862 -76.981,1.471 -78.167,0.001c-0.884,-1.095 -0.478,-131.056 -0.215,-131.593c0.798,-1.627 23.376,-1.372 23.939,-0.171c0.313,0.668 0.276,0.714 0.276,91.079Z" style="fill:#fefefe;"/><path d="M673.958,130.534c-5.498,45.588 -62.271,35.511 -71.307,16.907c-1.143,-2.354 17.436,-15.626 17.83,-15.546c0.755,0.154 10.064,10.061 20.051,6.696c10.473,-3.528 9.024,-7.253 9.024,-77.091c0,-31.354 -0.445,-32.632 1.957,-32.857c0.277,-0.026 20.647,-0.02 20.973,-0.001c2.358,0.14 1.993,1.457 1.993,44.858c-0,47.047 0.059,46.979 -0.521,57.034Z" style="fill:#fefefe;"/><path d="M741.494,138.906c-1.721,-0.134 -14.372,-1.121 -17.576,-12.528c-1.166,-4.15 -1.316,-4.687 -1.026,-53.875c0.148,-25.028 22.647,-21.208 25.596,-19.97c11.312,4.746 12.236,12.486 12.241,22.968c0.023,50.786 2.829,61.567 -19.235,63.406Z"/><path d="M75.53,105.039c0.64,0.121 17.14,-0.897 13.502,23.363c-1.488,9.922 -14.046,10.134 -15.531,10.159c-20.561,0.347 -21.129,0.457 -21.697,-1.186c-0.241,-0.698 -0.423,-30.711 0.09,-31.63c0.922,-1.652 1.396,-1.634 23.636,-0.705Z"/><path d="M855.529,105.039c0.697,0.132 17.053,-0.948 13.485,23.362c-1.456,9.92 -14.03,10.134 -15.513,10.159c-20.562,0.349 -21.142,0.461 -21.686,-1.19c-0.228,-0.69 -0.405,-30.721 0.086,-31.627c0.902,-1.662 1.386,-1.63 23.628,-0.704Z"/><path d="M77.566,52.105c15.872,3.728 11.417,24.142 3.758,28.051c-3.411,1.741 -6.876,1.647 -26.829,1.576c-0.33,-0.001 -2.829,0.286 -2.872,-2.24c-0.451,-26.429 -0.305,-27.612 1.913,-27.665c15.048,-0.359 22.112,0.143 24.029,0.279Z"/><path d="M857.567,52.106c16.337,3.866 10.106,23.671 5.571,26.926c-4.333,3.11 -8.046,2.766 -28.64,2.701c-0.429,-0.001 -2.813,0.269 -2.854,-2.241c-0.424,-26.422 -0.327,-27.616 1.891,-27.668c15.089,-0.351 22.115,0.147 24.033,0.283Z"/><path d="M171.858,79.614c1.491,-5.637 1.309,-5.743 1.724,-6.026c1.734,-1.183 1.216,0.543 2.841,5.935c9.998,33.181 10.734,32.988 10.991,35.987c0.171,1.988 -1.019,2.222 -24.883,1.752c-3.102,-0.061 -1.441,-2.168 9.327,-37.648Z" style="fill:#010101;"/><path d="M520.5,189.999l-23,0c0.462,-0.122 0.562,-0.881 1.023,-1.004c3.273,-0.868 7.323,-0.944 7.965,-0.956c1.497,-0.028 2.557,0.594 7.991,0.795c1.657,0.061 3.345,-0.185 4.973,0.13c0.482,0.093 0.565,0.942 1.047,1.035Z" style="fill-opacity:0.26;"/><path d="M541.5,189.999l-20,0c0.467,-0.069 0.53,-0.936 0.997,-1.004c0.214,-0.032 17.818,-0.033 18.004,-0.006c0.468,0.069 0.53,0.941 0.998,1.01Z" style="fill-opacity:0.48;"/><path d="M834.5,189.999l-18,0c0.468,-0.069 0.53,-0.94 0.998,-1.009c0.165,-0.024 15.806,-0.034 16.005,0.007c0.461,0.095 0.535,0.907 0.996,1.002Z" style="fill-opacity:0.47;"/><path d="M54.5,189.999l-18,0c0.468,-0.069 0.53,-0.94 0.998,-1.009c0.166,-0.024 15.806,-0.034 16.005,0.007c0.461,0.095 0.535,0.907 0.996,1.002Z" style="fill-opacity:0.47;"/></g></g></svg>