<?xml version="1.0" encoding="UTF-8" standalone="no"?><!DOCTYPE svg PUBLIC "-//W3C//DTD SVG 1.1//EN" "http://www.w3.org/Graphics/SVG/1.1/DTD/svg11.dtd"><svg width="100%" height="100%" viewBox="0 0 1244 671" version="1.1" xmlns="http://www.w3.org/2000/svg" xmlns:xlink="http://www.w3.org/1999/xlink" xml:space="preserve" xmlns:serif="http://www.serif.com/" style="fill-rule:evenodd;clip-rule:evenodd;stroke-linecap:round;stroke-linejoin:round;stroke-miterlimit:1.5;"><clipPath id="_clip1"><rect x="-0" y="0" width="1243.953" height="670.89"/></clipPath><g clip-path="url(#_clip1)"><path id="U1-muscle" d="M1129.924,23.603c49.881,0 90.317,39.88 90.317,89.076l0,445.372c0,49.196 -40.436,89.076 -90.317,89.076l-1016.051,0c-49.881,0 -90.317,-39.88 -90.317,-89.076l0,-445.372c0,-49.196 40.436,-89.076 90.317,-89.076l1016.051,0Z" style="fill:#fff;stroke:#000;stroke-width:47.27px;"/><g><g><path d="M211.206,563.42c-18.116,0 -33.212,-4.41 -46.296,-13.23c-12.58,-8.82 -22.645,-22.051 -29.187,-39.061c-7.045,-17.011 -10.064,-37.801 -10.064,-61.742l0,-228.698c0,-23.941 3.523,-44.732 10.064,-61.742c7.045,-17.011 16.606,-29.611 29.187,-39.061c12.58,-8.82 28.18,-13.23 46.296,-13.23c18.116,0 33.716,4.41 46.296,13.23c12.58,8.82 22.645,22.051 29.187,39.061c6.542,17.011 10.064,37.801 10.064,61.742l0,35.911l-61.896,0l0,-35.911c0,-7.56 -1.006,-13.86 -2.516,-19.531c-2.013,-5.67 -4.529,-9.45 -8.051,-12.6c-3.523,-3.15 -8.051,-4.41 -13.084,-4.41c-7.548,0 -13.084,3.15 -17.613,9.45c-4.026,6.3 -6.542,15.121 -6.542,27.091l0,228.698c0,11.34 2.013,20.161 6.542,26.461c4.026,6.3 10.064,9.45 17.613,9.45c8.051,0 14.09,-3.15 18.116,-9.45c4.026,-6.3 6.039,-15.121 6.039,-27.091l0,-35.911l61.896,0l0,35.911c0,23.941 -3.523,44.732 -10.064,61.742c-6.542,17.011 -16.606,30.241 -29.187,39.061c-12.58,8.82 -28.18,13.23 -46.296,13.23l-0.503,0.63Z" style="fill:#1d1d1b;fill-rule:nonzero;stroke:#000;stroke-width:62.72px;stroke-linecap:butt;stroke-miterlimit:2;"/></g><g><path d="M330.571,559.01l0,-447.316l60.889,0l0,447.316l-60.889,0Zm25.161,0l0,-73.083l128.824,0l0,73.083l-128.824,0Z" style="fill:#1d1d1b;fill-rule:nonzero;stroke:#000;stroke-width:62.72px;stroke-linecap:butt;stroke-miterlimit:2;"/></g><g><path d="M515.838,559.01l0,-447.316l60.889,0l0,447.316l-60.889,0Zm27.174,0l0,-74.343l131.843,0l0,74.343l-131.843,0Zm0,-185.227l0,-74.343l119.263,0l0,74.343l-119.263,0Zm0,-187.747l0,-74.343l131.843,0l0,74.343l-131.843,0Z" style="fill:#1d1d1b;fill-rule:nonzero;stroke:#000;stroke-width:62.72px;stroke-linecap:butt;stroke-miterlimit:2;"/></g><g><path d="M688.91,559.01l85.044,-447.316l42.774,0l85.044,447.316l-60.386,0l-46.296,-292.96l-46.296,292.96l-60.386,0l0.503,0Zm57.87,-69.302l0,-71.193l97.121,0l0,71.193l-97.121,0Z" style="fill:#1d1d1b;fill-rule:nonzero;stroke:#000;stroke-width:62.72px;stroke-linecap:butt;stroke-miterlimit:2;"/></g><g><path d="M956.312,371.263l0,-74.343l64.412,0c8.051,0 14.09,-2.52 18.619,-7.56c4.529,-5.04 6.542,-12.6 6.542,-21.421l0,-49.772c0,-10.08 -2.013,-18.271 -6.542,-23.941c-4.529,-5.67 -10.568,-8.82 -18.619,-8.82l-64.412,0l0,-73.083l60.889,0c19.122,0 35.729,3.78 49.315,11.97c13.587,8.19 24.154,19.531 31.2,34.651c7.045,15.121 10.568,33.391 10.568,54.812l0,52.292c0,22.051 -3.523,40.951 -10.568,56.702c-7.045,15.751 -17.613,27.721 -31.2,35.911c-13.587,8.19 -30.193,12.6 -49.315,12.6l-60.889,0Zm-27.174,187.747l0,-447.316l59.883,0l0,447.316l-59.883,0Zm124.295,0l-47.303,-202.867l55.857,-13.86l56.864,217.358l-65.418,0l0,-0.63Z" style="fill:#1d1d1b;fill-rule:nonzero;stroke:#000;stroke-width:62.72px;stroke-linecap:butt;stroke-miterlimit:2;"/></g></g><g><g><path d="M211.206,563.42c-18.116,0 -33.212,-4.41 -46.296,-13.23c-12.58,-8.82 -22.645,-22.051 -29.187,-39.061c-7.045,-17.011 -10.064,-37.801 -10.064,-61.742l0,-228.698c0,-23.941 3.523,-44.732 10.064,-61.742c7.045,-17.011 16.606,-29.611 29.187,-39.061c12.58,-8.82 28.18,-13.23 46.296,-13.23c18.116,0 33.716,4.41 46.296,13.23c12.58,8.82 22.645,22.051 29.187,39.061c6.542,17.011 10.064,37.801 10.064,61.742l0,35.911l-61.896,0l0,-35.911c0,-7.56 -1.006,-13.86 -2.516,-19.531c-2.013,-5.67 -4.529,-9.45 -8.051,-12.6c-3.523,-3.15 -8.051,-4.41 -13.084,-4.41c-7.548,0 -13.084,3.15 -17.613,9.45c-4.026,6.3 -6.542,15.121 -6.542,27.091l0,228.698c0,11.34 2.013,20.161 6.542,26.461c4.026,6.3 10.064,9.45 17.613,9.45c8.051,0 14.09,-3.15 18.116,-9.45c4.026,-6.3 6.039,-15.121 6.039,-27.091l0,-35.911l61.896,0l0,35.911c0,23.941 -3.523,44.732 -10.064,61.742c-6.542,17.011 -16.606,30.241 -29.187,39.061c-12.58,8.82 -28.18,13.23 -46.296,13.23l-0.503,0.63Z" style="fill:#b3b3b3;fill-rule:nonzero;"/></g><g><path d="M330.571,559.01l0,-447.316l60.889,0l0,447.316l-60.889,0Zm25.161,0l0,-73.083l128.824,0l0,73.083l-128.824,0Z" style="fill:#b3b3b3;fill-rule:nonzero;"/></g><g><path d="M515.838,559.01l0,-447.316l60.889,0l0,447.316l-60.889,0Zm27.174,0l0,-74.343l131.843,0l0,74.343l-131.843,0Zm0,-185.227l0,-74.343l119.263,0l0,74.343l-119.263,0Zm0,-187.747l0,-74.343l131.843,0l0,74.343l-131.843,0Z" style="fill:#b3b3b3;fill-rule:nonzero;"/></g><g><path d="M688.91,559.01l85.044,-447.316l42.774,0l85.044,447.316l-60.386,0l-46.296,-292.96l-46.296,292.96l-60.386,0l0.503,0Zm57.87,-69.302l0,-71.193l97.121,0l0,71.193l-97.121,0Z" style="fill:#b3b3b3;fill-rule:nonzero;"/></g><g><path d="M956.312,371.263l0,-74.343l64.412,0c8.051,0 14.09,-2.52 18.619,-7.56c4.529,-5.04 6.542,-12.6 6.542,-21.421l0,-49.772c0,-10.08 -2.013,-18.271 -6.542,-23.941c-4.529,-5.67 -10.568,-8.82 -18.619,-8.82l-64.412,0l0,-73.083l60.889,0c19.122,0 35.729,3.78 49.315,11.97c13.587,8.19 24.154,19.531 31.2,34.651c7.045,15.121 10.568,33.391 10.568,54.812l0,52.292c0,22.051 -3.523,40.951 -10.568,56.702c-7.045,15.751 -17.613,27.721 -31.2,35.911c-13.587,8.19 -30.193,12.6 -49.315,12.6l-60.889,0Zm-27.174,187.747l0,-447.316l59.883,0l0,447.316l-59.883,0Zm124.295,0l-47.303,-202.867l55.857,-13.86l56.864,217.358l-65.418,0l0,-0.63Z" style="fill:#b3b3b3;fill-rule:nonzero;"/></g></g></g></svg>