<?xml version="1.0" encoding="UTF-8" standalone="no"?><!DOCTYPE svg PUBLIC "-//W3C//DTD SVG 1.1//EN" "http://www.w3.org/Graphics/SVG/1.1/DTD/svg11.dtd"><svg width="100%" height="100%" viewBox="0 0 33392 18009" version="1.1" xmlns="http://www.w3.org/2000/svg" xmlns:xlink="http://www.w3.org/1999/xlink" xml:space="preserve" xmlns:serif="http://www.serif.com/" style="fill-rule:evenodd;clip-rule:evenodd;stroke-linecap:round;stroke-linejoin:round;stroke-miterlimit:1.5;"><path id="U1-muscle" d="M30331.068,633.573c1338.981,0 2424.42,1070.52 2424.42,2391.099l0,11955.331c0,1320.578 -1085.439,2391.099 -2424.42,2391.099l-27274.316,0c-1338.981,0 -2424.42,-1070.52 -2424.42,-2391.099l0,-11955.331c0,-1320.578 1085.439,-2391.099 2424.42,-2391.099l27274.316,0Z" style="fill:#fff;stroke:#000;stroke-width:1268.79px;"/><g transform="matrix(0.798731,0,0,1,-50260.608526,0)"><g transform="matrix(16911.986679,0,0,16911.986679,66404.562292,15005.76244)"><path d="M0.214,0.007c-0.036,0 -0.066,-0.007 -0.092,-0.021c-0.025,-0.014 -0.045,-0.035 -0.058,-0.062c-0.014,-0.027 -0.02,-0.06 -0.02,-0.098l0,-0.363c0,-0.038 0.007,-0.071 0.02,-0.098c0.014,-0.027 0.033,-0.047 0.058,-0.062c0.025,-0.014 0.056,-0.021 0.092,-0.021c0.036,0 0.067,0.007 0.092,0.021c0.025,0.014 0.045,0.035 0.058,0.062c0.013,0.027 0.02,0.06 0.02,0.098l0,0.057l-0.123,0l0,-0.057c0,-0.012 -0.002,-0.022 -0.005,-0.031c-0.004,-0.009 -0.009,-0.015 -0.016,-0.02c-0.007,-0.005 -0.016,-0.007 -0.026,-0.007c-0.015,0 -0.026,0.005 -0.035,0.015c-0.008,0.01 -0.013,0.024 -0.013,0.043l0,0.363c0,0.018 0.004,0.032 0.013,0.042c0.008,0.01 0.02,0.015 0.035,0.015c0.016,0 0.028,-0.005 0.036,-0.015c0.008,-0.01 0.012,-0.024 0.012,-0.043l0,-0.057l0.123,0l0,0.057c0,0.038 -0.007,0.071 -0.02,0.098c-0.013,0.027 -0.033,0.048 -0.058,0.062c-0.025,0.014 -0.056,0.021 -0.092,0.021Z" style="fill:#1d1d1b;fill-rule:nonzero;stroke:#000;stroke-width:0.11px;stroke-linecap:butt;stroke-miterlimit:2;"/></g><g transform="matrix(16911.986679,0,0,16911.986679,73308.088105,15005.76244)"><path d="M0.043,-0l0,-0.71l0.121,0l0,0.71l-0.121,-0Zm0.05,-0l0,-0.116l0.256,0l0,0.116l-0.256,-0Z" style="fill:#1d1d1b;fill-rule:nonzero;stroke:#000;stroke-width:0.11px;stroke-linecap:butt;stroke-miterlimit:2;"/></g><g transform="matrix(16911.986679,0,0,16911.986679,79534.473825,15005.76244)"><path d="M0.043,-0l0,-0.71l0.121,0l0,0.71l-0.121,-0Zm0.054,-0l0,-0.118l0.262,0l0,0.118l-0.262,-0Zm0,-0.294l0,-0.118l0.237,0l0,0.118l-0.237,0Zm0,-0.298l0,-0.118l0.262,0l0,0.118l-0.262,0Z" style="fill:#1d1d1b;fill-rule:nonzero;stroke:#000;stroke-width:0.11px;stroke-linecap:butt;stroke-miterlimit:2;"/></g><g transform="matrix(16911.986679,0,0,16911.986679,85926.015666,15005.76244)"><path d="M0.009,-0l0.169,-0.71l0.085,0l0.169,0.71l-0.12,-0l-0.092,-0.465l-0.092,0.465l-0.12,-0Zm0.115,-0.11l0,-0.113l0.193,0l0,0.113l-0.193,0Z" style="fill:#1d1d1b;fill-rule:nonzero;stroke:#000;stroke-width:0.11px;stroke-linecap:butt;stroke-miterlimit:2;"/></g><g transform="matrix(16911.986679,0,0,16911.986679,93407.587898,15005.76244)"><path d="M0.098,-0.3l0,-0.116l0.128,0c0.016,0 0.028,-0.004 0.037,-0.012c0.009,-0.008 0.013,-0.02 0.013,-0.034l0,-0.079c0,-0.016 -0.004,-0.029 -0.013,-0.038c-0.009,-0.009 -0.021,-0.014 -0.037,-0.014l-0.128,0l0,-0.116l0.121,0c0.038,0 0.071,0.006 0.098,0.019c0.027,0.013 0.048,0.031 0.062,0.055c0.014,0.024 0.021,0.053 0.021,0.087l0,0.083c0,0.035 -0.007,0.065 -0.021,0.09c-0.014,0.025 -0.035,0.044 -0.062,0.057c-0.027,0.013 -0.06,0.02 -0.098,0.02l-0.121,0Zm-0.054,0.3l0,-0.71l0.119,0l0,0.71l-0.119,-0Zm0.247,-0l-0.094,-0.322l0.111,-0.022l0.113,0.345l-0.13,-0Z" style="fill:#1d1d1b;fill-rule:nonzero;stroke:#000;stroke-width:0.11px;stroke-linecap:butt;stroke-miterlimit:2;"/></g><g transform="matrix(16911.986679,0,0,16911.986679,101046.058443,15005.76244)"></g></g><g transform="matrix(0.798731,0,0,1,-50260.608526,0)"><g transform="matrix(16911.986679,0,0,16911.986679,66404.562292,15005.76244)"><path d="M0.214,0.007c-0.036,0 -0.066,-0.007 -0.092,-0.021c-0.025,-0.014 -0.045,-0.035 -0.058,-0.062c-0.014,-0.027 -0.02,-0.06 -0.02,-0.098l0,-0.363c0,-0.038 0.007,-0.071 0.02,-0.098c0.014,-0.027 0.033,-0.047 0.058,-0.062c0.025,-0.014 0.056,-0.021 0.092,-0.021c0.036,0 0.067,0.007 0.092,0.021c0.025,0.014 0.045,0.035 0.058,0.062c0.013,0.027 0.02,0.06 0.02,0.098l0,0.057l-0.123,0l0,-0.057c0,-0.012 -0.002,-0.022 -0.005,-0.031c-0.004,-0.009 -0.009,-0.015 -0.016,-0.02c-0.007,-0.005 -0.016,-0.007 -0.026,-0.007c-0.015,0 -0.026,0.005 -0.035,0.015c-0.008,0.01 -0.013,0.024 -0.013,0.043l0,0.363c0,0.018 0.004,0.032 0.013,0.042c0.008,0.01 0.02,0.015 0.035,0.015c0.016,0 0.028,-0.005 0.036,-0.015c0.008,-0.01 0.012,-0.024 0.012,-0.043l0,-0.057l0.123,0l0,0.057c0,0.038 -0.007,0.071 -0.02,0.098c-0.013,0.027 -0.033,0.048 -0.058,0.062c-0.025,0.014 -0.056,0.021 -0.092,0.021Z" style="fill:#b3b3b3;fill-rule:nonzero;"/></g><g transform="matrix(16911.986679,0,0,16911.986679,73308.088105,15005.76244)"><path d="M0.043,-0l0,-0.71l0.121,0l0,0.71l-0.121,-0Zm0.05,-0l0,-0.116l0.256,0l0,0.116l-0.256,-0Z" style="fill:#b3b3b3;fill-rule:nonzero;"/></g><g transform="matrix(16911.986679,0,0,16911.986679,79534.473825,15005.76244)"><path d="M0.043,-0l0,-0.71l0.121,0l0,0.71l-0.121,-0Zm0.054,-0l0,-0.118l0.262,0l0,0.118l-0.262,-0Zm0,-0.294l0,-0.118l0.237,0l0,0.118l-0.237,0Zm0,-0.298l0,-0.118l0.262,0l0,0.118l-0.262,0Z" style="fill:#b3b3b3;fill-rule:nonzero;"/></g><g transform="matrix(16911.986679,0,0,16911.986679,85926.015666,15005.76244)"><path d="M0.009,-0l0.169,-0.71l0.085,0l0.169,0.71l-0.12,-0l-0.092,-0.465l-0.092,0.465l-0.12,-0Zm0.115,-0.11l0,-0.113l0.193,0l0,0.113l-0.193,0Z" style="fill:#b3b3b3;fill-rule:nonzero;"/></g><g transform="matrix(16911.986679,0,0,16911.986679,93407.587898,15005.76244)"><path d="M0.098,-0.3l0,-0.116l0.128,0c0.016,0 0.028,-0.004 0.037,-0.012c0.009,-0.008 0.013,-0.02 0.013,-0.034l0,-0.079c0,-0.016 -0.004,-0.029 -0.013,-0.038c-0.009,-0.009 -0.021,-0.014 -0.037,-0.014l-0.128,0l0,-0.116l0.121,0c0.038,0 0.071,0.006 0.098,0.019c0.027,0.013 0.048,0.031 0.062,0.055c0.014,0.024 0.021,0.053 0.021,0.087l0,0.083c0,0.035 -0.007,0.065 -0.021,0.09c-0.014,0.025 -0.035,0.044 -0.062,0.057c-0.027,0.013 -0.06,0.02 -0.098,0.02l-0.121,0Zm-0.054,0.3l0,-0.71l0.119,0l0,0.71l-0.119,-0Zm0.247,-0l-0.094,-0.322l0.111,-0.022l0.113,0.345l-0.13,-0Z" style="fill:#b3b3b3;fill-rule:nonzero;"/></g><g transform="matrix(16911.986679,0,0,16911.986679,101046.058443,15005.76244)"></g></g></svg>