<?xml version="1.0" encoding="UTF-8" standalone="no"?><!DOCTYPE svg PUBLIC "-//W3C//DTD SVG 1.1//EN" "http://www.w3.org/Graphics/SVG/1.1/DTD/svg11.dtd"><svg width="100%" height="100%" viewBox="0 0 1244 671" version="1.1" xmlns="http://www.w3.org/2000/svg" xmlns:xlink="http://www.w3.org/1999/xlink" xml:space="preserve" xmlns:serif="http://www.serif.com/" style="fill-rule:evenodd;clip-rule:evenodd;stroke-linecap:round;stroke-linejoin:round;stroke-miterlimit:1.5;"><clipPath id="_clip1"><rect x="0" y="-0" width="1243.85" height="670.833"/></clipPath><g clip-path="url(#_clip1)"><path id="U1-muscle" d="M1129.829,23.601c49.877,-0 90.309,39.877 90.309,89.068l0,445.335c0,49.191 -40.432,89.068 -90.309,89.068l-1015.965,0c-49.877,0 -90.309,-39.877 -90.309,-89.068l0,-445.335c0,-49.191 40.432,-89.068 90.309,-89.068l1015.965,-0Z" style="fill:url(#_Linear2);stroke:#000;stroke-width:47.26px;"/><g id="g21"><path id="path51" d="M921.696,493.284c-5.47,2.34 -13.37,4.848 -18.267,8.72c-8.793,6.952 -20.142,12.84 -19.319,23.529c0.273,3.545 5.4,9.167 8.043,11.351c4.418,3.649 8.296,6.113 22.401,16.162c0.379,0.27 7.58,-4.008 10.524,-5.863c16.473,-10.383 25.361,-22.046 22.176,-31.272c-2.12,-6.141 -5.089,-9.456 -13.08,-14.734c-2.847,-1.881 -8.797,-5.004 -12.479,-7.893l0,-0Zm-3.458,-76.225c-5.26,2.069 -11.606,4.66 -16.538,7.743c-6.557,4.098 -19.278,9.627 -11.201,19.319c3.044,3.652 11.875,6.675 16.613,8.57c2.75,1.1 6.788,3.598 9.622,4.586c2.077,0.724 5.002,3.475 6.014,3.007c16.807,-10.17 41.49,-19.663 12.554,-34.504c-4.971,-2.549 -11.398,-5.532 -17.064,-8.72l0,0l0,-0Zm36.609,-355.781c-1.574,-0.009 -3.154,0.062 -4.745,0.226c-3.792,0.39 -7.468,1.164 -10.815,3.148c-1.733,1.028 -3.57,1.897 -5.384,2.781c-5.213,2.543 -9.656,6.014 -13.136,10.684c-1.409,1.89 -2.136,1.846 -3.561,0c-1.699,-2.202 -3.656,-4.159 -5.901,-5.826c-4.245,-3.153 -8.886,-5.582 -13.813,-7.442c-4.554,-1.719 -9.276,-2.93 -14.161,-3.026c-4.887,-0.096 -9.781,-0.228 -14.668,0.272c-5.299,0.542 -10.462,1.719 -15.495,3.42c-3.752,1.268 -7.233,3.101 -10.43,5.441c-1.462,1.069 -3.087,1.642 -4.83,2.058c-2.647,0.631 -5.281,1.338 -7.874,2.161c-3.618,1.148 -7.055,2.762 -10.327,4.67c-2.917,1.701 -5.776,3.531 -8.541,5.469c-1.934,1.356 -3.768,2.888 -5.469,4.529c-2.828,2.729 -5.614,5.522 -8.213,8.466c-1.203,1.362 -2.463,2.252 -4.2,2.716c-2.09,0.558 -4.157,1.242 -6.164,2.048c-4.118,1.655 -7.844,3.953 -10.853,7.273c-2.809,3.101 -5.629,6.202 -8.354,9.378c-3.306,3.852 -6.019,8.114 -7.996,12.789c-1.591,3.761 -3.001,7.605 -4.369,11.454c-0.792,2.228 -1.756,4.264 -3.58,5.854c-1.254,1.092 -2.483,2.243 -3.561,3.505c-1.668,1.952 -3.369,3.906 -4.745,6.061c-2.67,4.181 -4.695,8.711 -6.267,13.418c-1.915,5.731 -2.543,11.62 -1.898,17.628c0.158,1.472 -0.037,2.761 -0.902,4.012c-3.377,4.887 -5.908,10.208 -8.025,15.871c-0.501,1.553 -1.019,2.975 -1.409,4.435c-1.412,5.275 -2.32,10.628 -2.697,16.096c-0.307,4.464 -0.056,8.872 0.395,13.287c0.4,3.914 1.029,7.782 2.34,11.539c0.767,2.2 1.59,4.353 2.65,6.418c1.902,3.708 4.384,7.03 7.198,10.073c1.202,1.3 1.72,2.722 2.095,4.398c0.649,2.895 1.464,5.767 2.415,8.579c0.905,2.678 2.2,5.206 3.759,7.583c1.826,2.784 3.662,5.563 6.267,7.705c1.832,1.506 3.666,3.016 5.591,4.398c2.152,1.544 3.08,3.382 2.481,6.098c-0.352,1.595 -0.252,3.323 -0.188,4.98c0.112,2.884 1.41,5.348 3.091,7.602c0.844,1.132 1.371,2.302 1.494,3.721c0.13,1.504 0.337,3.02 0.705,4.482c1.233,4.905 2.88,9.652 5.178,14.189c2.104,4.157 4.709,7.86 8.288,10.853c2.022,1.691 4.183,3.142 6.634,4.172c4.689,1.972 9.556,2.426 14.555,1.823c1.295,-0.158 2.29,0.225 3.27,1.137c2.335,2.174 4.952,3.98 7.884,5.281c4.217,1.872 8.63,3.146 13.118,4.144c4.424,0.982 8.881,1.187 13.381,0.395c4.563,-0.803 8.928,-2.248 13.052,-4.294c1.383,-0.244 4.328,-2.032 7.79,-5.281c0.835,2.951 1.977,5.928 3.486,8.945c4.247,8.494 9.89,15.271 17.431,20.926c0.563,0.422 9.353,5.098 9.49,5.948l0,0.019c0,0.184 -6.143,3.741 -6.587,4.022c-26.409,16.739 -27.344,46.776 -6.878,63.643c6.526,5.379 16.096,8.578 16.096,9.481c0,0.093 -13.294,8.013 -18.549,13.963c-13.935,15.78 -16.734,25.152 -13.484,41.401c2.55,12.752 7.507,17.336 15.777,25.606c4.571,4.571 18.282,12.472 18.492,13.522l0,0.009c0.119,1.142 -24.575,25.975 -15.485,30.52c7.007,3.504 12.649,-15.873 17.891,-13.155c7.458,3.866 1.787,8.102 3.608,9.923c1.237,1.237 3.839,2.854 4.736,2.406c1.997,-0.998 6.221,-6.221 7.592,-7.592c2.292,-2.292 6.935,-6.055 9.772,-8.419c19.935,-16.612 41.259,-20.807 53.673,-45.78c9.641,-19.394 2.816,-36.162 -5.863,-47.734c-3.09,-4.12 -7.779,-8.183 -11.802,-11.201c-1.357,-1.018 -4.249,-2.564 -4.445,-2.997l-0.009,-0.009l0,-0.056l0.019,-0.019c1.557,-1.244 9.656,-6.998 14.057,-10.299c11.565,-8.674 15.177,-22.89 12.479,-36.383c-1.909,-9.546 -13.04,-21.13 -21.048,-25.934c-1.919,-1.152 -3.074,-2.107 -5.469,-3.608c-0.715,-0.448 -3.756,-1.903 -3.975,-2.189l0,-0.009l-0.009,-0.009l0,-0.009c-0.024,-0.16 5.092,-3.692 5.826,-4.304c4.089,-3.407 8.438,-6.298 11.736,-10.421c3.966,-4.957 6.715,-10.334 8.541,-15.974c3.222,4.664 7.317,8.216 8.955,9.688c5.222,3.28 10.947,5.419 16.829,7.104c4.373,1.251 8.781,1.231 13.089,-0.432c1.457,-0.562 2.885,-1.208 4.322,-1.823c1.955,-0.835 3.933,-1.558 6.08,-1.738c1.156,-0.098 2.311,-0.217 3.458,-0.395c4.217,-0.651 8.29,-1.717 11.99,-3.965c3.421,-2.08 6.194,-4.852 8.588,-8.006c0.987,-1.3 2.149,-2.046 3.768,-2.218c1.1,-0.115 2.196,-0.337 3.27,-0.611c3.259,-0.835 6.103,-2.472 8.354,-4.952c3.108,-3.425 5.461,-7.371 7.395,-11.558c0.91,-1.969 1.714,-3.99 2.518,-6.004c0.48,-1.201 1.268,-2.02 2.481,-2.49c5.163,-2.001 9.358,-5.306 12.789,-9.622c2.696,-3.395 4.756,-7.121 6.004,-11.285c0.859,-2.868 1.28,-5.805 1.419,-8.795c0.285,-6.152 0.643,-12.304 -0.338,-18.427c-0.262,-1.635 0.109,-3.075 0.911,-4.492c1.88,-3.322 3.212,-6.862 3.806,-10.637c0.247,-1.577 0.892,-2.876 1.964,-3.994c3.605,-3.755 6.368,-8.071 8.541,-12.779c2.143,-4.645 2.832,-9.539 2.575,-14.621c-0.176,-3.472 -0.33,-6.963 -0.169,-10.43c0.136,-2.981 0.158,-5.927 -0.028,-8.908c-0.383,-6.158 -2.624,-11.658 -6.145,-16.529c-2.755,-3.811 -5.24,-7.786 -7.865,-11.671c-0.806,-1.194 -1.179,-2.519 -0.987,-4.022c0.132,-1.038 0.013,-2.111 -0.028,-3.167c-0.03,-0.806 -0.145,-1.611 -0.169,-2.415c-0.112,-3.943 -0.482,-7.858 -1.269,-11.727c-1.053,-5.188 -3,-9.937 -6.709,-13.841c-0.925,-0.975 -1.418,-2.196 -1.72,-3.496c-0.307,-1.327 -0.564,-2.67 -0.949,-3.975c-0.816,-2.775 -2.115,-5.328 -3.599,-7.809c-1.798,-3.005 -3.831,-5.805 -6.361,-8.231c-2.629,-2.52 -5.226,-5.054 -6.869,-8.391c-0.51,-1.035 -1.176,-2.009 -1.851,-2.951c-3.326,-4.634 -6.715,-9.192 -10.881,-13.155c-3.302,-3.142 -6.842,-5.965 -10.477,-8.682c-3.6,-2.693 -7.226,-5.341 -10.252,-8.711c-1.415,-1.576 -2.878,-3.11 -4.379,-4.604c-4.404,-4.383 -9.632,-7.474 -15.439,-9.594c-2.51,-0.917 -5.065,-1.712 -7.611,-2.528c-1.131,-0.362 -2.057,-0.973 -2.96,-1.748c-1.681,-1.442 -3.343,-2.994 -5.253,-4.069c-3.553,-1.999 -7.271,-3.702 -10.938,-5.497c-1.266,-0.62 -2.543,-1.263 -3.881,-1.691c-5.381,-1.724 -10.773,-3.419 -16.19,-5.027c-4.575,-1.358 -9.222,-2.134 -13.944,-2.161l0,-0l0,0l0,0Zm-41.063,225.959c6.388,5.239 -0.617,8.009 10.083,18.079c0.738,0.695 8.976,7.884 14.922,9.641c1.072,0.317 2.194,0.712 3.336,1.184c1.013,4.331 2.854,9.35 3.026,11.764c2.38,33.446 3.256,36.644 -27.814,56.079c-0.422,0.264 -20.05,-11.26 -26.31,-16.162c-10.59,-8.292 -8,-22.235 -1.654,-47.359c0.216,-0.792 0.927,-3.121 1.757,-6.108c5.138,-3.698 11.349,-7.937 12.883,-8.992c5.106,-3.516 5.414,-13.69 9.772,-18.126l0,0l0,0Z"/><path id="path31" d="M906.62,79.745c-2.35,-2.027 -5.128,-4.575 -7.946,-6.141c-1.852,-1.029 -6.938,-2.553 -9.07,-2.979c-13.397,-2.679 -15.284,-1.673 -28.794,-0.29c-3.075,0.315 -13.012,5.083 -15.62,7.006c-3.909,2.882 -11.383,8.601 -6.763,10.969c7.897,4.047 9.237,7.186 -0.769,7.117c-2.873,-0.02 -6.152,0.423 -12.525,3.982c-6.976,3.896 6.014,-14.572 -10.072,-2.244c-8.478,6.497 -8.038,21.713 -14.6,22.342c-3.795,0.364 8.725,-20.547 -3.825,-7.718c-1.27,1.298 -7.945,2.223 -10.246,3.204c-1.379,0.588 -4.41,2.195 -5.528,3.189c-5.588,4.968 -10.534,11.541 -13.182,18.604c-2.022,5.393 -1.593,11.797 -4.146,16.903c-2.406,4.811 -9.73,5.499 -12.863,9.887c-4.888,6.843 -6.149,10.237 -6.804,25.302c-0.364,8.372 10.124,17.374 6.485,26.471c-0.669,1.673 -5.529,-3.136 -6.697,-4.571c-4.584,-5.63 -6.357,-3.651 -8.398,0.85c-5.771,12.729 -5.575,32.78 -0.85,39.866c2.51,3.764 5.625,-2.222 8.292,4.89c3.403,9.074 2.518,19.822 11.056,25.514c1.419,0.946 2.469,1.914 4.252,1.914c1.55,0 2.339,-4.213 2.339,-5.315c0,-1.127 -0.792,-2.647 -1.276,-3.615c-2.215,-4.431 -5.224,-9.035 -6.591,-13.82c-1.209,-4.232 -0.748,-8.725 -2.764,-12.757c-1.452,-2.905 -5.287,-4.47 -7.442,-6.804c-0.767,-0.831 -1.33,-2.217 -1.914,-3.189c-2.158,-3.597 -4.426,-7.21 -1.701,-10.844c0.964,-1.285 1.925,-2.426 3.615,-2.764c4.38,-0.876 9.282,13.33 11.907,8.08c2.52,-5.04 -1.356,-11.584 0,-17.01c0.958,-3.832 1.559,-8.387 4.04,-11.694c2.955,-3.94 6.917,-7.027 9.568,-11.269c2.413,-3.861 3.275,-11.316 3.615,-15.734c0.34,-4.415 -1.534,-13.933 5.103,-14.671c10.744,-1.194 9.584,18.27 11.694,25.302c1.405,4.684 4.223,8.4 6.591,12.545c1.053,1.843 2.555,3.407 3.827,5.103c1.725,2.3 -0.049,8.01 -2.126,9.568c-8.554,6.415 -17.505,-16.658 -27.003,-7.761c-13.499,12.646 -8.599,30.109 -9.993,39.866c-1.566,10.961 1.907,20.134 7.654,30.192c1.083,1.895 2.383,4.976 4.678,5.741c4.729,1.576 10.601,4.066 11.481,-2.977c0.361,-2.885 0.054,-5.421 -1.276,-8.08c-1.888,-3.775 -6.329,-4.959 -8.93,-8.08c-2.579,-3.095 -2.182,-9.425 -1.914,-13.182c0.069,-0.969 -0.357,-3.376 0.638,-4.04c1.026,-0.684 3.553,-1.903 4.678,-0.638c1.452,1.634 2.339,3.545 3.189,5.528c0.509,1.189 1.109,2.591 1.914,3.615c2.238,2.849 18.15,20.111 21.687,11.269c2.238,-5.596 -3.635,-12.938 -5.528,-17.86c-1.848,-4.804 -2.551,-9.33 -2.551,-14.458c0,-2.115 2.842,-9.442 5.741,-8.717c3.388,0.847 10.726,16.907 13.182,20.837c5.306,8.49 21.147,3.139 25.514,10.418c5.098,8.497 -7.581,16.663 -6.804,19.774c0.787,3.147 2.389,5.542 4.04,8.292c2.534,4.223 5.828,7.854 9.993,10.631c8.717,5.811 27.167,5.198 37.208,3.189c6.899,-1.38 16.214,-9.502 12.119,-17.01c-3.069,-5.626 -12.067,-11.529 -10.631,-18.711c0.54,-2.701 7.238,-3.854 8.292,-7.016c1.843,-5.528 -8.913,-5.665 -3.402,-15.309c2.516,-4.404 8.837,-4.307 10.206,-9.78c1.912,-7.647 -13.755,-8.735 -10.844,-18.923c0.95,-3.325 6.293,-3.965 9.143,-4.678c1.564,-0.391 3.009,-1.769 4.252,-2.764c4.466,-3.573 5.599,-6.025 4.465,-11.694c-2.723,-13.615 -21.889,-6.961 -23.601,-15.521c-1.165,-5.827 6.342,-5.28 9.568,-5.741c1.973,-0.282 4.043,-1.526 5.528,-2.764c0.623,-0.519 1.525,-0.915 1.276,-1.914c-1.59,-6.359 -13.253,-0.284 -15.946,-7.016c-0.634,-1.585 -0.509,-2.937 0,-4.465c2.39,-7.169 16.999,-1.383 17.86,-9.993c0.915,-9.148 -16.498,-2.534 -17.435,-11.907c-0.119,-1.185 -0.073,-2.945 0.425,-4.04c2.738,-6.024 17.974,-1.144 22.538,-7.229c0.601,-0.801 0.638,-1.823 0.638,-2.764c0,-6.785 -7.248,-5.856 -8.08,-10.844c-0.761,-4.565 2.83,-7.45 4.89,-11.056c4.357,-7.624 3.985,-13.199 1.269,-17.6l-0,-0l-0,-0Z" style="fill:#cda18d;"/><path id="path32" d="M984.87,76.296c-9.96,-7.27 -33.435,-11.337 -48.477,-4.89c-2.555,1.095 -5.632,4.78 -7.229,7.016c-8.188,11.463 7.068,7.977 3.615,14.883c-1.578,3.156 -4.819,5.35 -6.166,8.717c-1.407,3.518 -1.152,7.573 -1.488,11.269c-0.18,1.976 -0.722,4.509 0.213,6.379c2.974,5.948 10.721,-3.805 14.883,-2.764c1.515,0.379 2.602,1.207 3.827,2.126c1.544,1.158 2.126,2.513 2.126,4.465c0,3.982 -3.936,9.729 -7.442,11.481c-2.78,1.39 -9.873,3.267 -13.395,5.634c-0.97,0.652 -1.07,5.195 -0.638,6.166c1.988,4.473 13.368,-1.013 17.222,-0.532c3.406,0.426 7.094,3.692 9.355,5.953c1.484,1.484 3.305,4.757 1.276,5.847c-7.973,4.285 -21.275,-8.866 -28.278,2.339c-1.321,2.113 -3.212,12.361 -3.615,14.777c-0.752,4.514 2.897,13.209 8.08,14.246c3.583,0.717 16.302,-3.112 17.435,2.551c1.636,8.178 -13.621,11.453 -18.923,15.309c-3.23,2.349 -5.3,6.239 -6.166,9.993c-0.432,1.871 -0.851,4.249 -0.213,6.166c1.122,3.366 3.739,9.773 7.229,11.269c4.544,1.948 10.221,0.669 12.757,5.741c5.592,11.184 -13.768,8.005 -19.561,16.372c-2.056,2.969 -2.963,6.84 -2.764,10.418c0.417,7.498 7.643,24.871 14.883,28.491c2.576,1.288 5.567,1.734 8.292,2.551c11.224,3.367 12.865,2.535 22.75,-1.701c4.354,-1.866 8.079,-4.847 10.631,-8.93c3.412,-5.459 0.369,-14.279 6.379,-18.285c9.97,-6.647 19.678,9.911 25.302,8.505c1.557,-0.389 3.777,-7.94 4.678,-9.355c1.691,-2.657 3.913,-5.061 5.953,-7.442c5.496,-6.412 24.077,-13.668 32.106,-15.521c5.384,-1.242 13.806,-1.494 12.119,6.379c-0.505,2.357 -8.184,5.291 -14.139,7.442c-7.132,2.575 -11.287,5.243 -16.265,10.844c-6.455,7.262 10.727,15.811 18.073,17.647c6.099,1.525 12.739,-0.947 18.073,-3.615c16.994,-8.497 28.603,-16.723 32.318,-36.783c1.455,-7.857 -0.2,-19.072 -6.591,-24.664c-1.941,-1.698 -4.198,-2.073 -6.591,-1.276c-12.232,4.077 -7.415,27.973 -17.01,23.176c-3.65,-1.825 -3.184,-12.73 -3.827,-16.372c-3.162,-17.917 -10.655,-20.394 -27.215,-21.9c-6.658,-0.605 -15.783,4.396 -10.418,11.907c4.131,5.783 7.832,8.856 10.206,17.116c0.38,1.323 0.502,6.7 -0.425,7.442c-5.066,4.053 -5.257,-9.499 -17.754,-3.615c-7.014,3.303 -1.852,-8.001 -3.615,-13.289c-1.057,-3.17 0.106,-6.166 -0.744,-9.355c-0.959,-3.597 -3.956,-7.385 -10.525,-13.608c-8.048,-7.624 -21.997,-20.228 -18.179,-31.68c1.132,-3.395 5.753,-4.828 8.505,-2.764c9.055,6.791 12.428,25.724 23.601,28.916c10.002,2.858 21.317,-5.429 25.94,-13.608c2.465,-4.36 5.218,-11.432 9.993,-13.82c1.461,-0.73 3.579,-0.248 4.678,0.85c1.914,1.914 1.713,6.641 2.339,9.143c1.316,5.263 2.991,9.577 7.442,12.545c1.191,0.794 2.975,1.171 4.252,0.213c4.932,-3.699 5.594,-18.32 2.126,-23.176c-3.951,-5.531 -6.194,-4.858 -4.571,-12.97c1.368,-6.842 -11.032,-21.802 -16.265,-25.727c-2.955,-2.216 -7.277,-1.536 -9.993,-4.252c-1.425,-1.425 -2.345,-3.516 -3.615,-5.103c-3.539,-4.424 -7.489,-8.682 -12.757,-11.056c-18.327,-8.26 -10.37,3.346 -19.136,-1.914c-1.683,-1.01 -8.137,-9.749 -8.505,-11.588c-0.998,-4.989 17.374,4.963 20.624,5.103c8.714,0.374 -6.366,-8.177 -7.016,-8.611c-2.653,-1.769 -5.122,-4.474 -8.08,-5.953c-7.045,-3.522 -16.434,-5.14 -21.687,-11.269l0,0l0,-0Z" style="fill:#cda18d;"/><path id="path33" d="M836.462,119.032c-0.142,0.284 -0.709,0.709 -0.425,0.85c0.284,0.142 0.212,-0.616 0.425,-0.85c0.16,-0.176 1.713,-1.113 1.914,-1.914c0.813,-3.254 2.305,-11.871 7.442,-10.844c0.725,0.145 1.723,0.33 2.339,0.638c0.73,0.365 1.24,2.694 1.063,3.402c-0.993,3.972 -3.6,7.545 -2.977,11.907c0.492,3.443 1.637,6.783 2.126,10.206c0.161,1.123 -0.213,2.126 -0.213,3.189c0,2.591 -3.72,8.336 -6.591,4.89c-0.249,-0.299 -0.725,-1.631 -0.85,-1.914c-1.359,-3.058 -2.967,-6.305 -6.379,-7.442c-3.571,-1.19 -8.165,0.357 -11.694,1.063c-1.58,0.316 -2.622,1.205 -4.04,1.914c-1.842,0.921 -3.59,1.532 -5.315,2.764c-3.37,2.407 -6.742,6.207 -9.143,9.568c-2.331,3.263 -4.477,7.51 -8.08,9.568c-1.876,1.072 -5.403,2.364 -7.016,0.213c-1.194,-1.592 0.553,-7.671 -1.914,-10.631c-1.937,-2.324 -9.568,-5.937 -9.568,-9.143c0,-0.632 0.89,-1.316 1.276,-1.701c1.255,-1.255 2.608,-1.928 4.252,-2.339c1.391,-0.348 9.806,2.079 11.694,2.551c1.939,0.485 4.859,0.354 6.804,0c8.969,-1.631 16.37,-7.526 24.026,-12.119c2.359,-1.415 5.125,-2.346 7.654,-3.189c1.269,-0.423 4.153,-0.638 3.189,-0.638c-1.065,0 -2.124,0.213 -3.189,0.213"/><path id="path34" d="M892.381,87.565c-3.256,-2.811 -9.022,-0.398 -11.907,2.126c-2.983,2.61 -3.894,6.119 -3.189,9.993c0.403,2.215 3.394,5.693 1.063,7.442c-0.67,0.503 -1.772,0.628 -2.551,0.85c-7.714,2.204 -13.132,-3.456 -19.986,-5.741c-0.866,-0.289 -5.039,-0.996 -4.89,-2.339c0.199,-1.793 1.811,-3.783 2.764,-5.103c1.395,-1.932 3.385,-4.763 5.528,-5.953c3.888,-2.16 8.717,-2.813 12.757,-4.678c6.438,-2.971 12.633,-8.18 20.199,-7.016c9,1.385 6.121,10.418 0.213,10.418l-0,0l0,-0Z"/><path id="path35" d="M880.899,133.49c-2.272,0.658 -4.128,1.947 -6.591,1.701c-3.667,-0.367 -7.225,-2.339 -10.844,-2.339c-2.219,0 -4.685,3.483 -4.04,5.741c1.562,5.469 5.553,4.392 8.93,6.804c1.992,1.423 5.877,5.341 8.505,4.465c4.567,-1.522 10.296,-14.584 4.04,-16.372l0,-0Z"/><path id="path36" d="M817.964,179.204c1.071,-2.782 2.914,-4.101 5.103,-5.953c3.98,-3.368 3.544,-4.162 8.717,-5.103c2.329,-0.423 4.461,-0.215 6.591,1.063c2.29,1.374 1.854,3.734 0.85,5.741c-3.121,6.242 -9.27,9.929 -10.844,17.01c-1.039,4.677 2.23,9.156 1.488,13.608c-0.577,3.463 -1.174,7.821 3.615,8.505c1.532,0.219 2.365,-1.107 3.402,-1.914c2.599,-2.022 4.084,-2.819 4.678,-6.379c1.134,-6.806 -0.838,-11.62 1.914,-18.498c1.367,-3.418 4.95,-11.754 7.442,-14.246c1.485,-1.485 3.105,-3.191 4.465,-4.89c2.21,-2.762 7.674,-6.552 5.528,-10.844c-2.308,-4.617 -12.075,-11.567 -17.435,-9.78c-1.989,0.663 -2.241,3.386 -4.04,4.465c-4.988,2.993 -10.733,4.839 -16.372,6.166c-4.796,1.128 -23.517,2.98 -25.302,7.442c-4.457,11.142 14.502,26.901 20.199,13.608l0,-0l0,0Z"/><path id="path37" d="M868.355,180.586c1.934,0.704 4.005,0.151 5.953,0.638c2.502,0.626 6.309,1.071 6.804,4.04c0.087,0.525 0.694,1.377 0.425,1.914c-0.908,1.816 -8.863,4.106 -11.056,5.103c-4.381,1.991 -9.332,4.949 -12.119,8.93c-0.615,0.878 -3.187,5.671 -4.89,5.103c-0.416,-0.139 -0.981,-0.981 -1.276,-1.276c-0.766,-0.766 -1.644,-1.687 -1.914,-2.764c-1.124,-4.497 5.135,-12.994 8.505,-15.521c2.194,-1.645 4.288,-3.083 6.591,-4.465c0.98,-0.588 3.488,-2.723 2.977,-1.701c-0.825,1.651 -1.763,1.488 -2.977,1.488"/><path id="path38" d="M835.341,222.683c1.019,0.26 2.06,1.565 4.04,3.827c2.478,2.832 6.027,6.041 6.591,9.993c0.746,5.225 -4.42,13.574 -3.827,15.946c0.319,1.277 1.327,2.615 2.126,3.615c0.926,1.157 1.498,1.827 3.189,1.488c3.404,-0.681 5.913,-4.717 7.867,-7.229c2.89,-3.716 7.495,-7.911 12.332,-8.717c1.365,-0.227 2.892,-0.34 4.252,0c2.315,0.579 11.981,5.804 13.608,2.551c1.209,-2.418 0.516,-5.772 -0.638,-8.08c-3.954,-7.909 -8.81,-8.543 -17.01,-9.568c-3.026,-0.378 -7.66,0.97 -10.418,-0.213c-4.503,-1.93 -6.24,-7.053 -10.418,-9.143c-3.018,-1.509 -7.139,-2.384 -10.206,-0.85c-1.163,0.581 -1.488,3.291 -1.488,4.465c0,0.638 -0.237,2.506 0,1.914c0.32,-0.801 0.283,-1.701 0.425,-2.551"/><path id="path39" d="M941.921,100.534c-0.284,0.071 -0.921,-0.071 -0.85,0.213c0.071,0.283 0.559,-0.237 0.85,-0.213c0.582,0.049 1.124,0.329 1.701,0.425c1.924,0.321 3.824,0.467 5.741,0.85c2.867,0.573 7.209,4.151 10.206,3.402c3.301,-0.825 4.676,-4.039 7.229,-5.953c4.785,-3.589 12.079,-5.49 18.073,-4.89c1.818,0.182 11.253,0.441 12.332,-0.638c0.13,-0.13 0.017,-1.551 0,-1.701c-0.202,-1.816 -1.127,-2.828 -2.339,-4.04c-6.346,-6.346 -21.501,-0.861 -28.916,0.85c-2.688,0.62 -5.547,1.047 -8.292,1.276c-5.168,0.431 -12.755,-3.403 -17.435,-1.063c-6.154,3.077 -3.987,9.585 1.701,11.481l0,-0Z"/><path id="path40" d="M998.903,113.079c-0.193,-0.538 -5.282,-6.173 -9.568,-5.315c-1.794,0.359 -3.439,0.638 -5.315,0.638c-1.378,0 -2.815,-0.116 -4.04,-0.85c-3.073,-1.844 -4.814,-5.904 -8.717,-2.977c-5.176,3.882 2.668,9.727 -0.425,14.883c-0.381,0.635 -0.624,1.329 -1.063,1.914c-2.275,3.034 -13.516,10.004 -8.505,14.458c0.624,0.555 1.605,1.566 2.551,1.701c9.428,1.347 12.26,-6.094 17.86,-11.694c2.384,-2.384 8.483,-3.121 11.694,-2.764c5.762,0.64 11.367,5.496 15.946,8.93c1.617,1.213 2.63,3.268 4.04,4.678c1.533,1.533 3.366,2.737 5.103,4.04c2.085,1.564 4.288,-0.818 4.678,-2.764c0.842,-4.211 -5.533,-12.976 -8.08,-15.946c-2.212,-2.58 -5.215,-4.66 -8.08,-6.379c-0.614,-0.368 -1.46,-0.371 -2.126,-0.638c-0.895,-0.358 -3.032,-2.126 -4.04,-2.126c-0.642,0 -1.44,0.646 -1.914,0.213c-0.646,-0.592 -0.425,-1.701 -0.638,-2.551"/><path id="path41" d="M974.452,145.61c-1.5,0.961 -2.208,2.503 -2.977,4.04c-0.752,1.504 -1.791,2.104 -2.764,3.402c-2.087,2.782 -3.93,5.711 -6.804,7.867c-1.947,1.46 -4.737,3.067 -7.016,3.827c-3.293,1.098 -8.991,1.123 -8.08,6.591c0.936,5.617 7.899,3.776 9.143,9.993c0.216,1.08 0.652,2.478 0.425,3.615c-0.233,1.167 -0.234,2.536 -0.85,3.615c-1.35,2.362 -3.731,3.306 -5.528,5.103c-2.983,2.983 1.575,7.029 4.465,7.442c0.872,0.125 2.836,0.254 3.615,-0.213c3.011,-1.807 4.395,-4.751 5.528,-7.867c0.571,-1.57 1.589,-3.067 2.126,-4.678c0.996,-2.989 1.63,-6.193 2.764,-9.143c0.72,-1.872 1.636,-3.779 2.126,-5.741c0.61,-2.442 -0.245,-0.557 0.638,-2.764c1.798,-4.496 7.925,-19.116 6.804,-23.601c-1.282,-5.126 -5.315,1.288 -5.315,-2.977"/><path id="path42" d="M949.576,213.648c5.195,0.725 9.63,2.795 14.246,5.103c2.359,1.18 5.076,2.817 6.804,4.89c1.514,1.816 2.66,3.592 3.615,5.741c1.262,2.838 3.365,7.977 2.339,11.056c-1.666,4.999 -13.649,8.002 -18.285,7.229c-3.109,-0.518 -12.599,-1.049 -14.458,1.276c-1.68,2.099 0.296,4.336 1.914,5.953c0.862,0.862 1.702,1.808 2.764,2.339c1.414,0.707 3.7,1.085 4.678,2.551c3.329,4.994 2.142,20.111 11.269,18.285c4.945,-0.989 4.17,-5.937 3.402,-9.781c-0.57,-2.849 0.5,-6.954 1.701,-9.355c1.333,-2.667 6.053,-4.887 8.717,-5.953c1.547,-0.619 3.13,-1.398 4.678,-1.914c3.13,-1.043 7.058,-1.318 9.568,-3.827c3.874,-3.874 3.298,-13.433 2.551,-18.285c-0.521,-3.387 -1.755,-7.116 -3.827,-9.781c-2.688,-3.455 -4.275,-6.314 -7.654,-9.355c-4.094,-3.684 -12.642,-7.643 -18.285,-7.016c-2.008,0.223 -3.935,1.074 -5.953,1.276c-2.295,0.23 -4.888,0.69 -7.016,1.488c-1.482,0.556 -3.735,0.759 -4.89,1.914c-1.761,1.761 0.932,5.142 2.126,6.166l-0,0Z"/><path id="path43" d="M1040.364,142.633c-0.122,2.047 0.768,4.108 0.425,6.166c-0.31,1.861 -1.315,3.267 -2.126,4.89c-3.462,6.924 -8.192,9.143 -15.734,9.143c-2.272,0 -5.095,-0.047 -7.016,-1.488c-1.366,-1.024 -3.369,-2.929 -2.977,-4.89c0.418,-2.088 5.162,-5.622 4.04,-7.867c-0.158,-0.316 -0.527,-0.731 -0.638,-1.063c-0.343,-1.03 -1.244,-1.688 -2.339,-2.126c-1.308,-0.523 -2.26,-0.406 -3.615,-0.213c-1.137,0.162 -2.056,0.101 -3.189,0.425c-1.502,0.429 -2.812,1.337 -4.252,1.914c-3.293,1.317 -7.335,2.445 -11.056,1.914c-4.659,-0.666 -10.667,-3.619 -9.355,4.252c0.575,3.452 4.233,4.435 5.953,7.016c0.532,0.798 0.496,1.877 0.85,2.764c0.896,2.24 5.467,0.195 7.472,1.531c6.596,4.397 12.291,7.873 19.531,10.588c4.674,1.753 10.813,4.898 15.946,3.615c6.279,-1.57 8.968,-11.385 14.458,-12.757c6.217,-1.554 3.305,2.248 7.787,2.248c5.416,0 5.586,-3.845 5.202,-7.435c-0.703,-6.556 1.167,-7.042 -4.059,-11.397c-1.694,-1.412 -3.653,-2.3 -5.103,-4.04c-2.619,-3.143 -3.223,-8.244 -6.804,-10.631c-0.714,-0.476 -1.617,-0.181 -2.339,0c-3.541,0.885 -2.096,5.031 -1.063,7.442l0,-0l0,-0Z"/><path id="path45" d="M891.026,375.715c-2.564,-1.886 -1.976,-1.608 -5.713,-4.886c-1.779,-1.561 -3.289,-4.43 -4.21,-6.766c-3.162,-8.026 -3.055,-12.391 -2.03,-20.597c0.478,-3.827 4.423,-16.089 3.759,-22.326c-0.044,-0.417 -7.605,8.726 -9.622,10.975c-2.072,2.311 -2.921,2.447 -4.736,5.187c-1.381,2.085 -3.618,8.257 -4.435,10.299c-3.847,9.618 -3.795,15.619 2.18,24.581c1.724,2.586 3.53,7.253 6.164,9.472c1.891,1.593 6.769,-4.358 9.021,-3.232c1.846,0.923 14.809,6.573 14.809,1.879" style="fill:#2e8061;"/><path id="path46" d="M951.172,320.77c2.186,1.37 2.969,1.997 5.674,3.35c10.408,5.204 14.538,11.952 14.538,23.931c0,2.227 -0.29,8.689 -0.977,10.75c-0.903,2.71 -1.338,6.178 -3.007,9.848c-3.606,7.929 -7.722,15.034 -18.417,22.928c-4.602,3.396 -11.232,8.115 -14.057,9.998c-15.236,10.157 -28.239,12.974 -44.201,22.552c-6.238,3.743 -9.817,12.649 -6.615,18.417c6.571,11.838 18.695,10.887 16.989,15.034c-3.251,7.906 -16.714,-6.013 -18.868,-5.412c-3.232,0.901 -8.315,4.111 -10.223,3.157c-3.876,-1.938 -5.843,-8.151 -6.615,-11.952c-0.651,-3.208 -1.082,-9.504 -0.451,-12.028c0.734,-2.936 1.479,-6.046 4.285,-9.622c8.856,-11.286 22.855,-17.908 35.258,-24.11c9.877,-4.938 14.256,-6.873 23.305,-13.188c4.578,-3.195 8.198,-5.551 9.543,-6.603c3.322,-2.598 4.89,-4.243 6.936,-7.107c2.478,-3.469 3.911,-7.729 5.18,-11.941c1.578,-5.235 1.907,-9.881 1.809,-15.208c-0.04,-2.166 -1.034,-8.403 -1.312,-10.448c-0.755,-5.56 -0.882,-7.513 -2.591,-14.535" style="fill:#2e8061;"/><path id="path47" d="M882.719,513.957c-2.33,3.006 -2.9,7.493 -2.819,9.397c0.15,3.533 3.714,8.254 3.232,9.697c-1.96,5.881 -3.923,7.653 -0.226,11.351c2.144,2.144 11.005,6.255 8.946,10.374c-2.609,5.218 -8.597,4.588 -12.854,1.579c-3.418,-2.417 -6.619,-6.335 -9.021,-9.697c-1.63,-2.283 -4.28,-7.358 -5.563,-9.923c-3.382,-6.763 -3.003,-18.253 -0.376,-25.258c1.617,-4.313 7.302,-12.339 10.449,-15.486c9.419,-9.419 24.383,-17.255 36.083,-23.754c5.366,-2.981 11.461,-4.528 16.839,-7.217c6.723,-3.362 13.173,-8.677 19.244,-13.23c1.376,-1.032 2.077,-2.815 3.007,-4.21c2.001,-3.001 4.962,-7.741 3.759,-11.351c-0.688,-2.065 -4.053,-4.311 -3.458,-6.69c0.928,-3.713 2.781,-3.836 1.804,-8.72c-0.316,-1.582 -3.483,-10.324 -2.857,-11.577c1.635,-3.27 9.113,4.11 10.75,5.337c2.805,2.104 7.049,6.435 8.795,9.321c6.362,10.516 4.028,20.313 0.902,29.468c-1.196,3.503 -5.379,7.415 -8.419,9.848c-1.713,1.37 -6.762,4.621 -8.419,5.863c-12.872,9.654 -16.702,10.732 -32.174,18.117c-5.367,2.561 -17.65,8.022 -23.303,11.877c-1.822,1.242 -6.636,5.734 -10.223,8.494" style="fill:#2e8061;"/><path id="path48" d="M1017.616,505.913c2.005,-0.802 2.005,-0.802 0,0Z" style="fill:#3ca880;"/><path id="path49" d="M892.78,578.016c2.285,-3.355 10.106,-8.746 17.189,-13.468c3.69,-2.46 7.959,-5.622 11.709,-8.122c11.211,-7.474 16.705,-8.64 26.014,-19.418c2.054,-2.378 3.518,-6.758 4.358,-9.226c0.768,-2.257 1.847,-6.027 1.745,-9.24c-0.042,-1.326 -0.74,-4.327 -1.395,-5.418c-1.534,-2.557 -0.926,-1.966 -3.491,-5.783c-0.654,-0.973 -1.365,-2.28 -1.804,-3.157c-0.552,-1.105 -0.131,-3.6 0.526,-4.886c1.726,-3.38 1.768,-3.936 2.857,-5.713c1.594,-2.601 1.321,-4.103 2.857,-5.638c1.143,-1.143 8.377,6.216 8.945,7.068c4.571,6.857 7.864,11.757 9.075,20.237c2.032,14.222 -3.047,24.621 -10.606,35.156c-1.689,2.355 -7.144,7.882 -9.75,9.185c-1.278,0.639 -6.344,4.026 -7.524,4.869c-5.283,2.422 -8.451,4.537 -14.901,8.82c-2.693,1.788 -5.428,3.354 -8.828,6.316c-4.358,3.797 -9.032,-6.306 -14.318,-2.154c0,0 -5.142,7.385 -9.428,5.322c-1.593,-0.767 -4.482,-2.518 -3.232,-4.751l0,0Z" style="fill:#2e8061;"/><path id="path52" d="M977.718,311.331c1.697,1.642 8.108,0.461 12.862,-0.218c6.488,-0.927 19.992,-10.535 24.635,-9.374c14.219,3.555 23.868,13.158 40.113,8.284c4.309,-1.293 8.318,-3.438 11.99,-5.886c0.388,-0.258 4.091,-3.539 4.578,-3.052c1.787,1.787 -3.439,9.233 -4.142,10.464c-6.562,11.484 -19.178,17.578 -32.483,15.914c-4.974,-0.622 -9.238,-4.741 -12.862,-7.848c-1.606,-1.376 -3.153,-4.119 -5.45,-4.578c-4.94,-0.988 -10.617,2.482 -15.042,4.142c-4.798,1.8 -10.993,3.259 -16.132,2.616c-3.667,-0.458 -12.967,-6.339 -11.772,-11.118c0.728,-2.914 3.149,-1.295 3.706,0.654l0,-0l0,0l-0,0Z" style="fill:#cda18d;"/><path id="path53" d="M771.703,303.701c7.893,3.063 22.003,0.357 29.213,-3.488c3.579,-1.909 9.264,-6.595 13.734,-4.36c2.934,1.467 4.237,4.158 6.322,6.54c4.161,4.755 8.903,10.883 14.606,13.734c8.267,4.134 19.399,4.167 28.341,2.18c0.736,-0.164 10.959,-4.319 10.028,-1.526c-0.641,1.924 -3.013,4.128 -4.36,5.668c-7.706,8.807 -26.68,22.839 -38.805,15.26c-6.286,-3.929 -15.299,-25.026 -20.71,-26.379c-3.218,-0.804 -7.65,2.064 -10.464,3.27c-7.086,3.037 -24.973,7.866 -30.085,-0.654c-2.34,-3.9 -4.677,-12.205 2.18,-10.246l0,0Z" style="fill:#cda18d;"/></g></g><defs><linearGradient id="_Linear2" x1="0" y1="0" x2="1" y2="0" gradientUnits="userSpaceOnUse" gradientTransform="matrix(0,-617.481907,617.481907,0,621.924223,642.380721)"><stop offset="0" style="stop-color:#b0c37b;stop-opacity:1"/><stop offset="0.57" style="stop-color:#e7edd7;stop-opacity:1"/><stop offset="1" style="stop-color:#fff;stop-opacity:1"/></linearGradient></defs></svg>