<?xml version="1.0" encoding="UTF-8" standalone="no"?><!DOCTYPE svg PUBLIC "-//W3C//DTD SVG 1.1//EN" "http://www.w3.org/Graphics/SVG/1.1/DTD/svg11.dtd"><svg width="100%" height="100%" viewBox="0 0 278267 150075" version="1.1" xmlns="http://www.w3.org/2000/svg" xmlns:xlink="http://www.w3.org/1999/xlink" xml:space="preserve" xmlns:serif="http://www.serif.com/" style="fill-rule:evenodd;clip-rule:evenodd;stroke-linecap:round;stroke-linejoin:round;stroke-miterlimit:1.5;"><path id="U1-muscle" d="M252758.9,5279.775c11158.175,0 20203.5,8921 20203.5,19925.825l0,99627.758c0,11004.817 -9045.325,19925.825 -20203.5,19925.825l-227285.967,0c-11158.175,0 -20203.5,-8921 -20203.5,-19925.825l0,-99627.758c0,-11004.817 9045.325,-19925.825 20203.5,-19925.825l227285.967,0Z" style="fill:url(#_Linear1);stroke:#000;stroke-width:10573.25px;"/><g id="g89"><path id="path78" d="M208824.117,104009.017c748.633,1858.825 1401.733,3696.817 1856.383,5597.3c186.025,774.275 330.392,1560.75 453.933,2347.233c113.483,721.842 198.233,1449.425 248.517,2177.725c57.458,828.858 45.25,1659.15 -45.25,2489.45c-94.092,861.9 -251.383,1709.433 -503.492,2538.283c-56.742,188.183 -132.158,370.617 -198.233,555.208c-22.267,-2.875 -45.25,-6.467 -67.517,-9.333c0,-145.808 -7.183,-292.325 1.433,-437.417c33.042,-574.6 81.883,-1148.475 101.275,-1723.075c8.617,-275.092 -40.942,-551.617 -58.9,-828.142c-178.125,-2781.058 -859.742,-5439.292 -1928.208,-8008.458c-709.05,-1702.967 -1550.192,-3336.258 -2550.925,-4884.083c-534.733,-826.7 -1096.55,-1638.325 -1674.742,-2435.575c-1145.967,-1580.142 -2430.05,-3048.958 -3715.35,-4514.908c-766.517,-874.108 -1549.4,-1733.85 -2331.075,-2595.025c-1757.333,-1936.392 -3477.9,-3903.675 -5037.717,-6005.983c-1064.583,-1435.775 -2013.467,-2944.1 -2830.683,-4535.017c-578.192,-1124.775 -1091.375,-2278.283 -1506.308,-3473.442c-144.867,-417.3 -239.467,-852.558 -350.792,-1281.35c-23.558,-91.217 -19.108,-189.617 32.75,-315.025c80.583,97.825 170.367,189.333 239.825,294.192c718.25,1083.117 1519.45,2104.467 2400.525,3054.708c1016.317,1096.767 2052.175,2179.883 3139.533,3204.1c1111.275,1047.925 2305.575,2006.783 3444.425,3025.975c816.358,730.458 1629.2,1470.25 2394.133,2253.858c1216.208,1244.725 2328.7,2577.792 3342.225,3999.2c1557.017,2182.758 2874.208,4497.667 3993.458,6929.65c393.458,855.433 767.733,1720.2 1150.775,2579.942l0,0.008Z" style="fill:#d2b195;"/><path id="path79" d="M177756.458,73491.25c301.95,-327.592 573.308,-618.917 837.833,-916.983c141.642,-159.592 256.2,-339.158 249.375,-563.825c-5.958,-197.875 101.342,-300.875 266.542,-377.083c341.6,-157.583 684.775,-313.225 1017.975,-488.408c253.758,-133.667 492,-297.642 739.367,-444.883c104.15,-62.275 208.725,-128.492 321.992,-169.575c184.017,-67.083 292.9,-12.425 367.525,171.158c33.542,81.808 52.65,169.575 67.875,256.558c179.133,1025.083 350.717,2051.817 534.233,3075.683c367.525,2048.225 674.367,4109.6 1273.742,6108.483c209.442,698.858 456.083,1389.808 734.983,2064.242c519.15,1258.367 1075,2500.942 1614.475,3751.408c38.283,89.067 64.642,183.875 55.092,311c-50.708,-40.942 -114.917,-73.258 -149.683,-125.692c-541.058,-809.467 -1083.767,-1619.65 -1614.05,-2436.3c-464.058,-714.658 -904.992,-1445.117 -1372.642,-2157.617c-375.858,-573.158 -854.717,-1041.458 -1475.208,-1356.767c-134.883,-68.95 -254.975,-175.25 -365.875,-280.833c-189.975,-181 -272.142,-414.425 -202.333,-667.25c88.2,-318.9 197.517,-632.633 318.833,-940.692c101.342,-256.917 247.008,-496.742 346.767,-754.158c78.575,-204.267 147.6,-421.325 166.35,-637.233c25.142,-286.075 -203.908,-450.125 -456.45,-315.242c-290.1,154.858 -549.892,367.1 -819.233,559.875c-161.608,115.708 -307.625,254.55 -474.833,360.275c-283.275,179.2 -439.708,140.058 -590.542,-156c-191.558,-374.708 -358.333,-761.7 -541.483,-1140.433c-120.525,-248.942 -238.242,-500.758 -379.45,-737.783c-209.517,-351.508 -501.408,-560.233 -939.325,-450.917c-10.7,2.8 -21.617,3.233 -32.967,4.025c-153.917,8.767 -322.567,43.45 -424.625,-111.758c-100.408,-152.408 -26.217,-305.258 56.525,-435.692c106.083,-167.642 224.808,-329.242 356.175,-477.275c161.25,-181.933 341.167,-347.558 513.042,-520.3l0,-0.008Z" style="fill:#d2b195;"/><path id="path80" d="M205645.508,67738.875c-75.417,35.908 -105.367,51.5 -136.467,62.275c-676.733,238.958 -938.533,132.017 -1327.533,-473.25c-905.425,-1408.983 -1721.067,-2868.25 -2471.992,-4363.358c-427.792,-850.767 -823.183,-1717.833 -1235.817,-2576.142c-269.7,-561.817 -274.517,-1070.192 464.492,-1648.808c189.542,-148.033 408.967,-261.733 626.1,-367.883c221.867,-108.525 436.117,-57.025 611.658,113.767c94.592,91.717 187.967,191.125 256.633,302.45c373.85,601.675 739.367,1208.592 1108.042,1813.933c351.15,577.042 697.925,1156.808 1054.242,1730.183c421.4,677.525 861.542,1342.767 1272.875,2025.892c233.433,387.85 440.575,793.233 634.5,1202.633c359.483,759.758 98.542,1727.025 -740.583,2114.017c-39.933,18.383 -77.425,42.308 -116.142,64.283l-0.008,0.008Z" style="fill:#d2b195;"/><path id="path81" d="M186712.075,65197.858c-106.083,-236.592 -185.958,-431.742 -276.092,-621.283c-170.367,-357.9 -345.55,-391.017 -633.275,-124.117c-348.708,323.642 -680.325,667.608 -1047.85,968.05c-809.608,662.367 -1734.925,912.608 -2787.158,816c-1727.383,-159.592 -3408.875,-536.675 -5085.767,-952.033c-471.817,-117.358 -729.525,-430.95 -858.233,-877.483c-95.458,-330.392 -60.192,-662.8 13.292,-987.158c130.075,-575.025 305.258,-1131.675 729.6,-1576.983c241.042,-252.967 537.325,-386.633 864.192,-464.058c236.875,-56.242 477.492,-106.517 719.325,-129.283c1460.05,-135.675 2917.667,-168.425 4363.358,146.017c935.3,203.117 1829.158,529.492 2695.8,929.775c562.675,260.15 1132.458,511.533 1668.775,819.592c389,224.233 754.158,507.158 1084.55,813.2c584.15,542.275 1138.425,1117.308 1694.633,1688.317c215.908,221.433 414.217,462.05 600.167,709.05c141.208,187.892 260.942,408.967 124.117,645.633c-140.058,241.4 -393.458,287.658 -642.042,251.383c-282.917,-40.725 -571.8,-94.158 -836.758,-197.95c-747.408,-293.692 -1446.117,-677.167 -1982.792,-1295.65c-150.833,-173.958 -272.5,-373.058 -407.825,-561.025l-0.017,0.008Z" style="fill:#d2b195;"/><path id="path82" d="M194740.5,65553.392c-1004.758,-1765.667 -2032.208,-3463.175 -2881.392,-5258.367c-142.425,-300.083 -280.475,-602.542 -415.367,-906.217c-129.642,-290.892 -160.025,-588.533 -105.367,-908.583c45.9,-270.133 37.567,-550.608 45.108,-826.775c2.008,-75.775 -14.367,-156.433 -42.308,-226.608c-88.992,-225.458 -301.233,-290.892 -477.2,-126.483c-117.292,109.675 -211.525,257.35 -278.533,404.95c-146.808,322.058 -262.517,658.417 -405.808,982.417c-89.35,201.9 -195.508,397.833 -312.8,584.583c-144.867,232.642 -368.75,310.425 -633.275,254.192c-129.283,-27.508 -262.95,-57.458 -380.675,-114.133c-583.358,-281.342 -1207.083,-434.108 -1826.717,-606.125c-1120.108,-311.217 -2232.6,-652.025 -3356.658,-949.233c-898.167,-237.45 -1807.542,-434.967 -2714.542,-637.3c-431.742,-96.533 -871.525,-156.792 -1305.2,-245.783c-161.25,-33.108 -323.642,-84.608 -470.883,-156.792c-379.45,-187.175 -495.158,-547.883 -297.283,-918.567c93.8,-175.183 204.7,-343.542 324.433,-501.983c487.975,-646.425 1011.15,-1260.092 1637.967,-1780.825c399.417,-331.617 859.958,-511.967 1365.1,-550.683c383.833,-29.158 776.5,-22.342 1159.183,21.55c943.708,108.958 1829.517,437.342 2705.35,785.692c1317.192,523.892 2636.833,1045.408 3938.8,1606.433c1120.467,482.875 2008.292,1241.417 2553.367,2363.033c421.825,866.708 873.1,1719.05 1284.875,2589.717c578.192,1221.45 1152.783,2445.2 1689.1,3685.042c373.492,863.05 682.333,1754.892 1014.742,2635.108c42.308,112.55 71.033,235.875 74.625,355.175c7.975,278.892 -154.067,388.642 -409.4,277.317c-268.192,-117.292 -497.242,-292.467 -658.417,-541.85c-276.167,-428.217 -547.45,-859.167 -820.817,-1288.892l-0.008,-0.008Z" style="fill:#d2b195;"/><path id="path83" d="M185696.183,48513.4c334.775,-372.7 606.917,-747.767 954.05,-1031.117c1184.75,-966.4 2507.117,-1129.225 3930.392,-591.767c971.283,366.733 1865.508,873.458 2703.05,1477.575c969.633,699.933 1934.1,1406.975 2877.733,2140.808c821.242,638.45 1626.475,1298.45 2356.717,2043.842c665.958,679.892 1234.167,1424.5 1544.592,2334.308c142.425,418.167 243.842,850.692 349.575,1280.417c30.742,126.125 16.375,264.175 15.942,396.692c-0.792,178.7 -72.617,327.158 -227.042,418.95c-322.85,192.708 -642.475,393.025 -977.608,560.592c-278.967,139.7 -475.625,71.825 -662.8,-183.942c-146.45,-200.317 -252.967,-421.758 -247.008,-675.15c7.183,-275.733 19.175,-553.05 55.883,-825.983c55.883,-417.733 -62.275,-534.308 -478.067,-424.558c-386.2,101.775 -771.325,192.35 -1177.492,158.017c-475.267,-40.292 -908.583,-207.067 -1312.817,-440.5c-1331.917,-770.533 -2657.083,-1552.992 -3983.9,-2332.725c-1278.842,-752.15 -2556.1,-1507.892 -3912.442,-2116.458c-413.783,-185.525 -833.958,-358.258 -1250.108,-539.833c-192.775,-83.817 -389.508,-162.392 -572.225,-264.6c-344.325,-193.067 -456.875,-514.7 -297.642,-877.05c79.008,-179.925 205.85,-339.158 311.217,-507.517Z" style="fill:#d2b195;"/><path id="path84" d="M228239.5,41241.5c537.967,-447.325 1028.533,-879.85 1545.667,-1278.842c933.725,-721.483 1947.892,-1312.025 3051.833,-1732.625c797.258,-304.392 1613.183,-572.158 2488.725,-476.417c236.3,25.925 481.942,86.617 693.825,191.558c473.325,234.583 627.033,639.6 459.675,1142.375c-152.267,458.533 -411.558,853.133 -755.6,1196.317c-599.733,596.933 -1269.858,1104.883 -1965.842,1579.717c-1264.833,863.55 -2446.35,1821.975 -3540.958,2897.767c-1468.817,1443.25 -2724.317,3054.133 -3918.758,4721.692c-405.808,565.408 -842.508,1113.642 -1311.517,1627.625c-442.442,485.608 -993.333,814.425 -1690.033,797.258c-489.842,-11.992 -747.692,-194.358 -849.683,-674c-50.992,-241.4 -48.842,-507.517 -8.617,-752.508c143.65,-869.867 463.267,-1683.142 847.533,-2473.217c759.192,-1558.167 1636.883,-3040.558 2735.083,-4388.492c685.925,-842.292 1426.442,-1634.017 2218.667,-2378.192l0,-0.017Z" style="fill:#d2b195;"/><path id="path85" d="M211344.875,91053.983c-575.317,259.283 -1127.65,433.825 -1699.517,507.083c-546.3,70.392 -1096.55,113.483 -1653.192,82.6c-622.508,-35.192 -1233.017,-112.767 -1838.717,-258.567c-964.033,-233.433 -1837.492,-660.067 -2614.783,-1262.683c-697.133,-539.4 -1251.4,-1218.867 -1708.283,-1975.9c-734.983,-1217.433 -1140.433,-2539.725 -1274.458,-3950.358c-201.9,-2120.267 228.617,-4097.6 1332.708,-5923.392c615.75,-1018.692 1443.317,-1823.558 2487.942,-2389.75c1642.417,-889.475 3187.008,-1922.1 4624.725,-3112.458c707.4,-586.158 1401.233,-1191.067 2074.942,-1815.517c771.4,-715.083 1540.642,-1436.492 2262.483,-2200.642c1011.292,-1070.975 1961.533,-2196.692 2814.092,-3402.917c674.433,-952.9 1290.692,-1940.058 1724.517,-3023.825c399.342,-997.142 750.567,-2013.467 1100.358,-3028.633c346.917,-1006.7 695.983,-2011.45 1218.867,-2943.592c135.75,-240.617 297.358,-467.292 458.958,-691.1c149.392,-205.492 356.25,-331.183 610.508,-368.317c163.758,-23.558 328.958,-54.658 494.158,-55.092c1103.95,-5.175 2190.658,-131.658 3241.45,-474.4c482.658,-157.225 946.65,-373.133 1417.817,-563.825c97.683,-39.142 191.775,-85.833 304.533,-136.467c57.458,183.15 -44.533,269.342 -112.05,360.275c-462.55,622.508 -944.492,1231.433 -1391.242,1864.283c-1327.325,1879.442 -2518.892,3836.667 -3280.233,6022.508c-236.3,677.95 -433.1,1375.442 -576.75,2078.108c-100.558,492.792 -141.492,1003.967 -72.542,1519.883c79.725,590.617 118.508,1187.117 154.425,1782.908c18.675,326.017 -71.108,641.183 -236.3,922.517c-247.075,421.4 -646.425,623.292 -1110.408,714.658c-466.858,91.792 -935.875,171.158 -1401.3,270.925c-644.983,137.692 -1242.567,400.283 -1812.858,727.875c-118.508,68.233 -267.908,120.092 -278.683,303.6c123.542,128.492 268.625,81.017 405.808,57.892c393.6,-65.075 785.767,-137.692 1179.367,-201.9c420.892,-69.458 838.917,-52.65 1253.342,49.85c655.758,162.033 983.283,584.583 1011.292,1261.742c20.108,485.25 -59.617,954.842 -214.042,1404.967c-273.65,795.242 -566.7,1585.317 -880.575,2365.833c-247.792,616.117 -537.967,1215.058 -810.9,1821.192c-36.633,80.95 -76.85,160.383 -119.95,237.383c-196.083,344.758 -336.858,383.042 -665.817,174.75c-196.083,-124.475 -387.133,-257.708 -581.058,-386.2c-74.7,-48.342 -147.242,-100.983 -226.967,-138.908c-216.908,-104.15 -325.367,-33.108 -297.358,200.75c13.65,119.658 58.175,235.442 89.067,353.092c107.733,417.017 226.25,832.017 321.058,1251.617c120.667,530.783 32.325,1064.442 -58.9,1584.458c-292.325,1662.025 -757.75,3281.675 -1303.617,4875.467c-261.442,763.5 -547.308,1525.558 -904.275,2248.117c-639.242,1294.283 -1628.983,2280.433 -2884.483,2995.092c-182.433,104.15 -381.392,177.408 -573.158,265.033l0,-0.017Z" style="fill:#d2b195;"/><path id="path86" d="M196910.317,120013.75c-209.892,-1127.65 -394.633,-2230.95 -630.058,-3323.483c-226.65,-1049.833 -479.625,-2095.683 -766.925,-3130.758c-429.75,-1550.217 -940.5,-3074.492 -1718.608,-4492.633c-389.85,-711.467 -859.9,-1373.45 -1435.692,-1944.85c-786.483,-779.3 -1604.883,-1526.675 -2404.925,-2292.4c-231.833,-221.858 -446.908,-461.275 -671.958,-691.117c-789.675,-808.025 -1552.608,-1639.6 -2290.808,-2496.708c-926.542,-1076.175 -1807.583,-2186.258 -2642.35,-3332.667c-704.683,-966.842 -1404.175,-1940.858 -2043.008,-2951.592c-798.85,-1263.717 -1543.433,-2562.142 -2291.608,-3856.983c-914.967,-1583.733 -1835.517,-3163.075 -2909.058,-4646.258c-694.942,-960.058 -1412.867,-1903.75 -2116.475,-2857.425c-789.75,-1070.183 -1579.5,-2140.375 -2244.2,-3294.758c-595.225,-1033.475 -919.075,-2154.342 -1051.117,-3336.65c-66.158,-593.75 -155.942,-1185.108 -228.083,-1777.658c-52.233,-428.95 -70.825,-861.892 -144.325,-1286.858c-115.4,-664.375 -259.725,-1324.767 -399.708,-1985.15c-190.533,-899.408 -431.55,-1790.825 -567.533,-2697.417c-84.35,-562.625 -63.525,-1153.183 -3.75,-1722.992c144.925,-1378.233 725.35,-2590.875 1536.292,-3701.367c425.283,-581.783 863.533,-1153.983 1392.6,-1646.783c223.092,-207.492 318.542,-448.108 283.95,-742.583c-86.108,-735.008 0.358,-1459.233 135.667,-2178.283c206.858,-1099.317 563.983,-2146.358 1195.758,-3076.492c379.075,-558.233 766.45,-1120.867 1224.333,-1611.667c634.808,-681.933 1381.308,-1244.558 2195.8,-1707.833c782.892,-445.317 1598.5,-817.6 2468.775,-1058.217c249.392,-69.433 356.333,-225.85 401.817,-468.058c89.783,-478.433 188.742,-955.267 300.067,-1428.908c200.308,-851.125 649.617,-1579.742 1193.083,-2242.125c1053.025,-1281.075 2425.275,-2048.4 4043.325,-2377.592c334.383,-68.233 677.942,-101.35 1018.717,-125.692c404.217,-28.733 496.392,-120.908 422.967,-515.142c-129.683,-696.7 -258.567,-1394.2 -404.217,-2087.3c-261.358,-1246.958 -521.125,-2494.708 -807.625,-3736.075c-229.442,-993.175 -484.017,-1980.767 -750.167,-2964.758c-393.042,-1454.45 -774.908,-2913.683 -1219.025,-4352.975c-728.225,-2361.033 -1511.508,-4704.917 -2254.5,-7061.158c-377.083,-1193.883 -729.017,-2395.35 -1068.592,-3600.408c-208.292,-739.792 -284.508,-1502.733 -240.217,-2272.05c52.275,-916.167 332.792,-1753.717 1019.508,-2385.775c820.4,-754.558 1773.667,-934.517 2839.867,-555.842c695.1,246.6 1282.067,646.025 1821.95,1131.633c822.792,740.192 1471.208,1616.45 2057.775,2550.975c856.708,1365.467 1573.758,2801.158 2210.6,4277.558c683.933,1586.925 1368.258,3174.65 2009.092,4779.533c501.175,1254.933 941.7,2534.217 1398.183,3806.708c377.475,1053.425 744.583,2110.85 1106.9,3169.458c272.533,796.858 533.5,1597.7 795.258,2398.142c310.442,947.683 628.467,1893.375 921.35,2846.25c543.475,1768.883 1083.358,3538.958 1599.692,5315.025c284.108,978.808 502.775,1976.575 778.1,2957.775c263.358,938.908 578.583,1864.25 993.975,2748.492c493.992,1052.633 981.6,2109.25 1524.675,3137.542c636.05,1203.858 1310.8,2390.167 2003.508,3563.3c456.083,771.317 968.833,1510.708 1464.825,2258.083c403.817,609.308 813.617,1214.633 1234.183,1812.375c618.492,878.658 1235.383,1761.3 1961.608,2555.758c550.258,602.525 1184.308,1109.292 1936.875,1434.9c1078.167,466.858 2066.558,322.808 2959.175,-473.642c683.933,-610.108 1161.567,-1365.867 1588.925,-2155.933c729.417,-1349.108 1285.258,-2774.425 1759.308,-4230.475c445.708,-1369.858 871.075,-2745.7 1291.25,-4123.533c427.358,-1402.575 968.433,-2758.867 1592.508,-4084.033c603.725,-1283.267 1189.892,-2575.317 1792.425,-3858.583c585.767,-1246.758 1276.083,-2430.667 2095.683,-3541.55c666.375,-902.6 1385.417,-1760.1 2181.875,-2546.183c1168.75,-1153.983 2429.267,-2202.225 3821.467,-3081.675c1097.717,-693.508 2228.558,-1325.967 3454.767,-1769.283c1068.592,-385.858 2155.933,-691.908 3305.133,-655.6c604.125,19.15 1185.908,162.8 1718.608,460.075c685.525,382.667 947.283,991.183 907.783,1752.125c-24.742,485.217 -188.742,932.125 -393.842,1364.667c-333.583,704.283 -768.525,1349.508 -1242.567,1962.808c-676.75,876.658 -1400.983,1716.608 -2084.108,2588.083c-902.992,1151.992 -1793.225,2317.142 -2419.692,3650.092c-244.2,518.733 -452.1,1063.008 -600.533,1616.058c-359.925,1337.133 -665.975,2689.033 -1012.325,4029.758c-188.342,729.017 -412.592,1449.258 -624.475,2171.9c-367.5,1255.333 -752.167,2505.483 -1102.108,3764.408c-303.258,1088.942 -580.983,2184.267 -845.533,3282.383c-213.475,885.442 -297.275,1789.233 -348.35,2699.008c-94.167,1669.525 133.675,3313.908 327.2,4962.283c92.575,791.667 215.075,1581.742 258.167,2376.6c24.342,456.883 -29.125,935.317 -143.25,1379.433c-242.208,943.7 -557.842,1868.642 -823.592,2807.15c-322.808,1140.017 -629.267,2285.617 -936.517,3430.425c-531.9,1981.958 -875.858,4003.425 -1276.883,6013.317c-400.625,2009.092 -813.217,4016.192 -1205.058,6027.283c-349.15,1794.417 -694.308,3589.633 -1008.733,5389.642c-165.992,948.883 -254.183,1911.733 -234.225,2876.975c17.958,908.183 95.767,1813.975 247.4,2710.583c224.25,1321.175 439.325,2644.742 697.9,3959.933c215.875,1097.325 465.267,2189.458 740.592,3273.608c502.775,1975.175 1002.35,3952.75 1566.175,5910.767c610.108,2118.825 1287.658,4217.7 1944.05,6322.967c372.692,1195.083 759.35,2385.775 1146,3576.467c196.317,605.725 223.85,1218.225 102.15,1837.917c-61.45,314.833 -126.092,630.458 -221.858,935.317c-323.208,1031.083 -1098.917,1663.942 -1978.767,2193.842c-217.467,130.483 -454.092,231.833 -685.525,338.375c-459.675,212.283 -938.908,301.667 -1450.058,301.267c-8113.392,-6.383 -16226.783,4.392 -24339.775,-13.967c-1329.95,-2.792 -2367.025,-650.017 -3117.592,-1744.142c-385.858,-562.625 -567.017,-1187.1 -606.917,-1871.433c-37.908,-651.208 -143.65,-1298.433 -213.475,-1947.642c-82.6,-770.517 -148.833,-1543.033 -239.817,-2311.958c-168.792,-1419.333 -350.742,-2837.075 -529.508,-4283.942m14434.758,-28959.7c191.533,-87.783 390.65,-161.608 572.6,-265.35c1255.733,-714.258 2245.317,-1701.05 2884.958,-2995.092c356.725,-722.233 642.433,-1484.375 904.192,-2248.108c545.867,-1594.108 1011.133,-3213.358 1303.217,-4874.9c91.375,-519.933 179.558,-1053.825 59.458,-1584.533c-95.367,-419.775 -213.475,-834.758 -321.617,-1251.742c-30.725,-117.717 -75.017,-233.433 -88.983,-353.142c-27.933,-234.225 80.6,-305.258 297.675,-200.708c79.408,37.908 152.425,90.183 226.65,138.858c193.925,128.483 385.058,261.358 581.383,386.258c328.8,208.292 469.65,169.983 665.575,-174.775c43.492,-77.008 83.4,-156.417 119.708,-237.417c272.933,-606.517 563.425,-1205.058 811.217,-1821.55c314.033,-780.092 606.917,-1570.167 880.25,-2365.825c154.425,-449.7 234.225,-919.758 214.275,-1404.575c-27.933,-677.15 -355.133,-1099.717 -1011.533,-1261.717c-414.192,-102.95 -832.367,-119.308 -1253.342,-49.875c-393.042,64.242 -785.283,136.467 -1178.725,201.908c-137.667,23.142 -282.508,70.225 -405.808,-57.858c10.775,-183.55 160.008,-235.425 278.517,-303.658c569.808,-328 1167.55,-590.158 1812.375,-727.825c465.667,-99.758 934.917,-179.167 1401.775,-270.942c464.067,-91.775 863.492,-293.283 1110.492,-714.658c165.2,-281.317 254.975,-596.542 235.825,-922.55c-35.908,-595.742 -74.217,-1192.292 -154.025,-1782.85c-69.433,-516.342 -28.333,-1027.092 72.225,-1519.892c143.65,-702.683 340.367,-1400.583 576.592,-2078.525c761.342,-2185.467 1953.233,-4142.683 3280.392,-6022.1c446.908,-632.858 928.533,-1241.767 1391.4,-1864.25c67.833,-90.975 169.183,-177.167 111.725,-360.317c-112.525,50.275 -206.692,97.358 -304.458,136.067c-471.25,191.133 -934.917,407.008 -1417.342,564.225c-1051.033,342.767 -2137.983,469.258 -3241.683,474.442c-165.2,0.4 -330.392,31.525 -494.392,54.667c-253.783,37.508 -460.875,163.2 -610.108,368.7c-162.008,223.85 -323.608,450.5 -458.883,690.717c-523.125,932.525 -871.875,1937.267 -1219.025,2944.017c-349.942,1014.725 -701.092,2031.442 -1100.117,3028.608c-434.142,1083.75 -1050.633,2070.942 -1724.592,3023.417c-852.717,1206.65 -1802.8,2332.308 -2814.325,3403.292c-721.842,764.133 -1491.158,1485.575 -2262.475,2200.625c-673.958,624.475 -1367.458,1229.4 -2074.933,1815.567c-1437.692,1189.892 -2982.317,2222.575 -4624.708,3112.4c-1044.65,565.817 -1872.233,1370.65 -2487.925,2389.767c-1104.108,1825.542 -1534.65,3803.117 -1332.75,5922.742c134.075,1411.358 539.483,2733.325 1274.492,3950.358c456.883,757.35 1011.133,1436.492 1708.233,1976.375c777.3,602.525 1650.767,1029.483 2614.817,1262.517c605.725,146.042 1216.233,223.458 1838.708,258.567c556.642,31.125 1106.9,-11.967 1653.167,-82.6c571.8,-73.025 1124.458,-247.4 1699.85,-506.767m-2521.042,12955.175c-383.067,-860.3 -757.35,-1724.992 -1150.792,-2580.1c-1119.267,-2431.667 -2436.45,-4746.808 -3993.45,-6929.883c-1013.525,-1421.333 -2126.008,-2754.075 -3342.242,-3999.033c-764.933,-783.683 -1577.75,-1523.083 -2394.158,-2254.5c-1138.817,-1018.317 -2333.1,-1977.975 -3444.392,-3025.417c-1087.342,-1024.7 -2123.217,-2106.858 -3139.533,-3204.175c-881.05,-949.683 -1682.292,-1971.583 -2400.542,-3054.542c-69.433,-104.942 -159.208,-196.717 -239.817,-294.083c-51.875,125.292 -56.267,223.85 -32.717,314.833c111.325,428.95 205.9,863.892 350.742,1281.675c414.983,1194.283 928.133,2348.267 1506.325,3473.517c817.208,1590.517 1766.092,3098.833 2830.692,4534.533c1559.792,2102.467 3280.392,4070.067 5037.7,6006.133c781.692,861.5 1564.583,1720.6 2331.108,2595.267c1285.258,1466.025 2569.325,2934.833 3715.333,4514.175c578.192,798.05 1140.017,1608.875 1674.708,2436.05c1000.758,1548.217 1841.9,3180.633 2550.975,4884.075c1068.592,2569.325 1750.125,5227.242 1928.492,8008.45c17.558,276.125 67.033,552.65 58.258,827.975c-18.758,574.6 -68.233,1148.792 -100.95,1723.392c-8.383,144.85 -1.2,291.292 -1.2,436.933c22.342,3.192 44.692,6.383 67.033,9.975c66.633,-185.15 141.658,-367.5 198.717,-555.442c252.183,-829.175 409.4,-1676.708 503.567,-2538.6c90.183,-829.975 102.15,-1660.742 44.692,-2489.525c-50.275,-728.225 -134.867,-1456.042 -248.192,-2177.083c-123.3,-787.275 -268.142,-1573.358 -453.692,-2347.867c-455.292,-1900.558 -1108.092,-3738.475 -1856.667,-5596.733m-23127.933,-55495.717c-105.342,168.392 -232.233,327.6 -311.242,507.558c-159.208,362.317 -46.683,683.933 297.675,877.058c182.75,102.15 379.475,180.358 572.2,264.158c416.183,181.558 836.358,354.733 1250.15,540.283c1356.292,608.517 2633.567,1364.267 3912.45,2116.433c1326.758,779.3 2651.925,1562.183 3983.875,2332.708c404.217,233.433 837.558,400.225 1312.792,440.525c406.208,34.317 791.267,-56.267 1177.525,-158.417c415.783,-109.333 533.9,7.183 478.033,424.567c-36.708,273.333 -48.683,550.658 -55.867,825.983c-5.983,253.383 100.558,474.842 247,675.55c187.142,255.775 383.867,323.608 662.783,183.95c335.183,-167.592 654.8,-367.9 977.617,-560.633c154.425,-91.775 226.25,-240.617 227.042,-418.975c0.4,-132.875 14.767,-270.942 -15.958,-396.633c-105.742,-429.75 -207.092,-862.292 -349.55,-1280.875c-310.442,-909.775 -878.658,-1653.958 -1544.625,-2334.3c-730.217,-744.983 -1535.45,-1404.967 -2356.65,-2043.408c-943.7,-733.808 -1908.142,-1440.883 -2877.775,-2140.775c-837.558,-604.125 -1731.775,-1111.083 -2703,-1477.792c-1423.325,-537.492 -2745.7,-374.683 -3930.408,591.758c-347.15,283.508 -619.292,658.592 -954.067,1031.283m42542.933,-7272.05c-791.667,744.183 -1532.258,1535.85 -2218.583,2378.192c-1097.717,1347.908 -1975.975,2830.292 -2734.925,4388.283c-384.258,790.075 -703.883,1603.683 -847.133,2473.558c-40.7,245 -42.692,510.75 8.383,752.167c101.75,480.025 359.525,662.383 849.925,674.35c696.3,17.158 1246.958,-311.642 1689.875,-797.25c468.858,-513.942 905.792,-1062.208 1311.2,-1627.625c1194.683,-1667.525 2450.017,-3278.592 3918.833,-4721.875c1094.925,-1075.775 2276.442,-2034.233 3541.358,-2897.725c695.5,-474.842 1365.867,-982.8 1965.2,-1579.742c344.358,-343.158 603.325,-737.8 755.758,-1196.283c167.592,-502.775 13.567,-907.783 -459.275,-1142.408c-211.883,-104.942 -458.083,-165.592 -694.308,-191.533c-875.067,-95.767 -1691.075,171.983 -2488.725,476.433c-1103.708,420.575 -2118.025,1011.133 -3051.75,1732.567c-516.742,399.025 -1007.542,831.567 -1545.825,1278.875m-33498.617,24311.65c273.333,430.15 544.667,861.1 820.8,1288.85c161.208,249.792 390.25,424.567 658.392,542.275c255.375,111.325 417.383,1.6 409.4,-277.325c-3.592,-119.708 -32.325,-242.608 -74.617,-355.133c-332.392,-880.25 -641.233,-1772.075 -1014.725,-2635.567c-536.292,-1239.375 -1110.892,-2463.183 -1689.075,-3685c-411.792,-870.275 -863.092,-1722.592 -1284.867,-2589.675c-545.067,-1121.267 -1432.9,-1879.808 -2553.367,-2362.633c-1302.025,-561.033 -2621.6,-1082.958 -3938.783,-1606.475c-875.858,-348.35 -1761.7,-677.15 -2705.392,-785.683c-382.667,-43.892 -775.308,-51.075 -1159.167,-21.55c-505.167,38.308 -965.642,219.067 -1365.067,550.658c-626.867,520.725 -1149.992,1134.433 -1638,1780.85c-119.708,158.417 -230.633,326.8 -324.408,501.575c-197.917,371.092 -82.2,731.817 297.275,918.958c147.242,72.225 309.642,123.7 470.85,156.417c433.742,89.383 873.467,149.633 1305.217,246.2c906.983,202.308 1816.367,399.825 2714.575,637.242c1124.058,297.275 2236.542,638.042 3356.608,949.283c619.683,171.983 1243.367,324.808 1826.742,605.725c117.717,57.058 251.383,86.992 380.667,114.517c264.55,56.267 488.408,-21.55 633.25,-254.575c117.317,-186.342 223.458,-382.667 312.833,-584.575c143.25,-323.608 258.967,-660.392 405.808,-982c67.033,-147.642 161.208,-295.275 278.517,-405.008c175.967,-164.4 388.25,-99.358 477.233,126.092c27.933,70.225 44.292,151.233 42.3,227.042c-7.583,275.725 0.8,556.642 -45.092,826.383c-54.667,320.417 -24.342,618.092 105.342,908.983c134.867,303.658 272.933,605.725 415.383,906.192c849.125,1795.217 1876.617,3492.675 2881.367,5257.967m-8028.4,-355.533c135.267,187.942 256.975,387.058 407.808,561.433c536.692,618.492 1235.383,1001.95 1982.758,1295.633c264.95,103.75 553.85,157.217 836.758,197.917c248.592,35.908 501.975,-9.975 642.033,-251.383c136.867,-236.625 17.158,-457.683 -124.1,-646.025c-185.95,-246.6 -384.258,-487.208 -600.133,-708.667c-556.242,-571.008 -1110.492,-1146 -1694.667,-1688.275c-330.392,-306.05 -695.5,-588.958 -1084.55,-813.617c-536.292,-307.65 -1106.1,-559.033 -1668.725,-819.6c-866.683,-399.825 -1760.5,-726.625 -2695.817,-929.733c-1445.667,-314.033 -2903.308,-281.708 -4363.35,-146.042c-241.808,23.142 -482.425,73.417 -719.325,129.683c-326.883,77.408 -623.158,211.083 -864.208,464.067c-424.325,445.317 -599.533,1001.95 -729.575,1576.95c-73.458,324.408 -108.733,656.4 -13.292,987.192c128.683,446.508 386.375,760.142 858.225,877.458c1676.867,415.383 3358.358,792.467 5085.742,952.075c1052.233,96.167 1977.575,-153.625 2787.192,-816.008c367.5,-300.867 699.092,-644.425 1047.842,-968.033c287.7,-266.95 462.867,-233.825 633.25,124.1c90.183,189.533 169.983,384.658 276.125,620.883m-8955.617,8293.35c-171.9,172.775 -351.825,338.375 -513.067,520.725c-131.358,147.642 -250.067,309.242 -356.133,476.833c-82.8,130.483 -156.975,283.308 -56.542,436.133c102.067,155.225 270.658,120.508 424.642,111.725c11.292,-1.2 22.267,-1.2 32.917,-3.992c437.933,-109.733 729.817,99.358 939.308,450.9c141.258,237.025 258.967,488.408 379.475,737.8c183.15,378.275 349.942,765.333 541.475,1140.417c150.833,296.075 307.25,335.183 590.558,155.617c167.192,-105.742 313.233,-244.6 474.842,-360.317c269.342,-192.333 529.108,-404.608 819.2,-559.433c252.583,-134.867 481.625,28.733 456.483,315.233c-18.758,215.475 -87.783,432.942 -166.392,637.242c-99.758,257.375 -245.4,496.783 -346.75,754.158c-121.3,308.05 -230.633,621.683 -318.825,940.9c-69.833,252.583 12.367,485.617 202.308,666.375c110.933,105.742 231.033,212.683 365.908,281.317c620.483,315.233 1099.317,784.083 1475.2,1356.692c467.658,712.258 908.583,1442.475 1372.65,2157.933c530.308,816.808 1072.983,1626.433 1614.058,2436.45c34.717,52.275 98.958,84.192 149.633,125.692c9.575,-127.292 -16.758,-222.258 -55.067,-311.242c-539.483,-1250.55 -1095.325,-2493.508 -1614.458,-3751.242c-278.917,-674.35 -525.517,-1365.867 -735.008,-2064.158c-599.333,-1999.117 -906.192,-4060.883 -1273.692,-6109.083c-183.55,-1023.5 -355.133,-2050.592 -534.292,-3075.292c-15.167,-86.992 -34.317,-174.775 -67.833,-256.575c-74.617,-183.55 -183.55,-238.217 -367.5,-171.183c-113.325,41.1 -217.867,107.342 -322.017,169.583c-247.4,147.242 -485.617,311.242 -739.392,444.917c-333.183,175.175 -676.35,330.792 -1017.917,488.408c-165.2,76.217 -272.533,179.167 -266.55,377.083c6.783,224.65 -107.733,404.217 -249.392,563.825c-264.55,298.075 -535.892,589.358 -837.833,916.558m27888.992,-5751.958c38.708,-21.95 76.217,-45.892 116.117,-64.242c839.15,-387.058 1100.117,-1354.292 740.592,-2114.042c-193.925,-409.4 -401.025,-814.808 -634.45,-1203.067c-411.392,-682.733 -851.525,-1347.908 -1272.892,-2025.458c-356.333,-573.8 -703.083,-1153.183 -1054.225,-1730.175c-368.7,-605.725 -734.208,-1212.242 -1108.092,-1813.975c-68.633,-111.325 -162.008,-210.683 -256.575,-302.458c-175.575,-171.183 -389.85,-222.658 -611.708,-113.725c-217.067,106.142 -436.533,219.867 -626.075,367.5c-738.992,578.583 -734.208,1087.342 -464.467,1649.175c412.592,858.308 808.025,1724.992 1235.783,2576.108c750.967,1494.75 1566.575,2954.383 2471.967,4363.35c389.05,604.925 650.808,712.258 1327.558,473.242c31.125,-10.775 61.05,-26.333 136.467,-62.25l0,0.017Z" style="fill:#080605;fill-rule:nonzero;"/><path id="path87" d="M186676.667,28235.758c-414.283,-1116.658 -1341.475,-2083.992 -159.592,-2509.917c1273.242,-458.817 1712.808,-538.042 2910.842,-414c1246.092,129 1678.333,879.133 2070.35,1733.775c637.658,1390.242 582.717,1436.492 1023.5,3158.208c175.608,685.925 46.4,1907.375 -2302.7,2350.533c-826.775,155.933 -1895.242,855.575 -2403.833,-1060.992c-304.392,-1147.183 -964.675,-2789.025 -1138.567,-3257.608Z" style="fill:#d4b095;"/><path id="path88" d="M191099.275,43420.092c-388.783,-814.925 -591.833,-1628.125 -1016.108,-3086.45c-136.608,-469.592 -290.675,-1008.492 -470.525,-1640.625c-880.067,-3093.133 -1332.633,-4069.158 -171.375,-4374.558c641.542,-168.717 3077.042,1355.408 3702.492,1925.983c1278.125,1166 2143.683,1874.267 3189.667,5075.858c875.833,2680.717 783.325,2642.217 1605,5266.475c1489.075,4755.658 -1376.233,2108.917 -1969.867,1642.492c-661.575,-519.792 -2935.55,-1942.858 -3705.442,-2784.5c-443.808,-485.108 534.158,-2572.975 179.775,-2525.717c-409.183,54.583 -1268.067,659.425 -1343.625,501.05l0.008,-0.008Z" style="fill:#d4b095;"/><path id="path89" d="M183303.775,20868.842c-414.283,-1116.658 -823.042,-1973.167 -340.017,-3132.783c519.075,-1246.158 2007.217,-1092.6 3084.367,-466.717c1127.65,655.258 1544.95,1641.625 2201.717,2706.933c493.075,799.767 1288.608,2131.475 1514.642,2902.225c349.5,1192 -236.808,1420.767 -2056.633,1841.008c-819.808,189.258 -2063.383,211.667 -2713.467,-805.008c-648.792,-1014.742 -1516.792,-2577.075 -1690.608,-3045.658Z" style="fill:#d4b095;"/></g><defs><linearGradient id="_Linear1" x1="0" y1="0" x2="1" y2="0" gradientUnits="userSpaceOnUse" gradientTransform="matrix(0,-139479.408333,139479.408333,0,139115.916667,144759.183333)"><stop offset="0" style="stop-color:#b0c37c;stop-opacity:1"/><stop offset="1" style="stop-color:#fff;stop-opacity:1"/></linearGradient></defs></svg>