<?xml version="1.0" encoding="UTF-8" standalone="no"?><!DOCTYPE svg PUBLIC "-//W3C//DTD SVG 1.1//EN" "http://www.w3.org/Graphics/SVG/1.1/DTD/svg11.dtd"><svg width="100%" height="100%" viewBox="0 0 1244 671" version="1.1" xmlns="http://www.w3.org/2000/svg" xmlns:xlink="http://www.w3.org/1999/xlink" xml:space="preserve" xmlns:serif="http://www.serif.com/" style="fill-rule:evenodd;clip-rule:evenodd;stroke-linecap:round;stroke-linejoin:round;stroke-miterlimit:1.5;"><clipPath id="_clip1"><rect x="0" y="-0" width="1243.85" height="670.833"/></clipPath><g clip-path="url(#_clip1)"><path id="U1-muscle" d="M1129.829,23.601c49.877,-0 90.309,39.877 90.309,89.068l0,445.335c0,49.191 -40.432,89.068 -90.309,89.068l-1015.965,0c-49.877,0 -90.309,-39.877 -90.309,-89.068l0,-445.335c0,-49.191 40.432,-89.068 90.309,-89.068l1015.965,-0Z" style="fill:url(#_Linear2);stroke:#000;stroke-width:47.26px;"/><g id="g76"><path id="path1" d="M1107.347,245.362l-9.163,22.75l-17.379,18.011l-20.222,12.955l-28.122,13.903l-53.4,30.649l-102.376,1.896c0,0 -91.632,-23.066 -96.372,-25.91c-4.74,-2.844 -44.552,-31.913 -46.764,-35.389c-2.212,-3.476 -11.375,-17.379 -11.375,-17.379l-8.847,17.379l0.948,33.809l0.632,32.545l16.747,34.757l-3.476,28.122l0.632,18.642l44.552,54.663l98.9,33.177l39.497,1.896l40.445,-2.212l25.278,-2.528l26.542,-4.108l28.438,-6.951l16.431,-7.899l30.018,-16.431l12.323,-14.851l10.743,-30.965c0,0 3.792,-25.91 3.792,-27.174c0,-1.264 3.16,-49.292 3.16,-49.292l-13.587,-33.177l-6.003,-11.375l4.108,-6.635l5.056,-5.372l8.215,-15.167l3.792,-26.542l-3.16,-15.799l-0,0l0,-0Z" style="fill:#e9cc61;"/><path id="path2" d="M1057.071,342.144l-4.022,1.899l-8.602,7.373l-3.798,0.894l-3.24,2.569l-13.294,6.144l-5.251,0.112l-19.103,5.027l-26.811,4.58l-3.91,19.215c0,0 11.395,3.016 12.065,2.905c0.67,-0.112 22.79,-5.251 22.79,-5.251l23.683,-10.389l17.204,-9.049l16.198,-11.06c0,0 0.782,-10.389 0.782,-10.836c0,-0.447 -4.692,-4.133 -4.692,-4.133l0,0Z" style="fill:#fff;"/><path id="path3" d="M1059.193,428.936l-4.357,0.335l-9.161,3.687l-5.697,1.676l-7.624,2.071l-8.24,4.307l-8.094,-2.179l-16.654,2.973l-26.811,4.58l-3.515,21.427c0,0 11.395,3.016 12.065,2.905c0.67,-0.112 22.79,-5.251 22.79,-5.251l23.683,-10.389l21.226,-1.899l17.427,-8.267c0,0 -0.302,-7.85 -3.351,-12.065c-1.121,-1.549 -3.687,-3.91 -3.687,-3.91l-0,0Z" style="fill:#fff;"/><path id="path57" d="M746.392,279.356c-7.123,-8.024 -14.433,-20.957 -15.072,-24.374c0.219,0.275 0.448,0.543 0.654,0.828c1.893,2.606 3.707,5.275 5.688,7.813c3.102,3.972 6.672,7.497 10.675,10.567c5.99,4.596 12.287,8.71 19.046,12.096c0.515,0.258 1.017,0.625 1.719,0.51c-0.04,-0.647 -0.452,-0.979 -0.852,-1.296c-2.084,-1.652 -4.168,-3.303 -6.267,-4.934c-3.284,-2.551 -6.637,-5.018 -9.857,-7.645c-5.154,-4.206 -9.821,-8.912 -13.842,-14.225c-2.562,-3.385 -4.761,-7.001 -6.524,-10.871c-1.682,-3.695 -2.703,-7.562 -2.735,-11.624c-0.028,-3.508 0.604,-6.925 1.856,-10.228c1.34,-3.538 3.283,-6.727 5.431,-9.81c2.322,-3.332 5.013,-6.361 7.909,-9.185c3.269,-3.188 6.62,-6.292 10.138,-9.22c4.41,-3.671 8.902,-7.228 13.563,-10.569c5.396,-3.869 10.965,-7.462 16.862,-10.532c6.228,-3.241 12.681,-5.945 19.306,-8.259c7.509,-2.623 15.137,-4.827 22.844,-6.764c7.09,-1.781 14.216,-3.398 21.43,-4.595c5.618,-0.931 11.232,-1.922 16.87,-2.714c5.414,-0.759 10.855,-1.342 16.294,-1.911c2.68,-0.281 5.385,-0.301 8.069,-0.531c6.92,-0.595 13.853,-0.428 20.781,-0.401c2.917,0.011 5.832,0.251 8.748,0.393c1.384,0.069 2.767,0.146 4.149,0.232c3.813,0.237 7.627,0.439 11.434,0.733c2.986,0.232 5.965,0.576 8.944,0.881c3.579,0.366 7.161,0.683 10.73,1.128c9.598,1.197 19.143,2.719 28.624,4.641c11.95,2.422 23.725,5.518 35.248,9.526c6.229,2.167 12.353,4.61 18.372,7.319c5.607,2.525 11.057,5.357 16.41,8.373c4.636,2.612 9.113,5.49 13.473,8.546c3.718,2.606 7.322,5.357 10.745,8.329c5.875,5.101 11.299,10.631 15.581,17.172c4.928,7.53 8.378,15.646 9.476,24.652c0.339,2.795 0.529,5.589 0.139,8.403c-0.324,2.329 -1.108,4.522 -1.979,6.669c-1.893,4.672 -4.36,9.037 -7.456,13.037c-2.83,3.656 -5.99,6.993 -9.452,10.057c-6.226,5.513 -13.053,10.185 -20.192,14.409c-5.617,3.322 -11.494,6.136 -17.486,8.722c-6.163,2.661 -12.455,4.987 -18.792,7.188c-3.892,1.354 -7.832,2.571 -11.762,3.809c-5.86,1.843 -11.728,3.669 -17.606,5.465c-2.472,0.756 -4.96,1.462 -7.461,2.113c-5.477,1.423 -10.943,2.897 -16.454,4.163c-5.848,1.342 -11.792,2.166 -17.76,2.798c-3.462,0.366 -6.927,0.741 -10.394,1.067c-1.64,0.153 -3.289,0.199 -4.936,0.287c-2.579,0.138 -5.158,0.27 -7.737,0.405c-0.112,0.005 -0.224,0.02 -0.337,0.023c-6.104,0.079 -12.21,0.231 -18.315,0.21c-4.004,-0.013 -8.008,-0.249 -12.009,-0.44c-3.963,-0.191 -7.925,-0.404 -11.883,-0.69c-4.108,-0.295 -8.206,-0.724 -12.314,-1.034c-7.253,-0.546 -14.463,-1.468 -21.651,-2.545c-9.712,-1.459 -19.376,-3.185 -28.93,-5.495c-8.057,-1.946 -16.029,-4.172 -23.871,-6.856c-5.89,-2.016 -11.66,-4.318 -17.295,-6.979c-4.75,-2.243 -9.399,-4.665 -13.904,-7.355c-5.573,-3.329 -10.947,-6.958 -15.798,-11.294c-2.428,-2.17 -4.786,-4.423 -7.119,-6.696c-1.124,-1.094 -2.117,-2.323 -3.169,-3.493l-0,0Z" style="fill:#e9cc61;"/><path id="path58" d="M709.83,283.97c1.081,-4.671 2.75,-9.341 4.611,-13.346c1.862,-4.005 4.795,-8.598 6.242,-10.655c1.447,-2.058 0.767,-0.314 0.801,-2.394c0.034,-2.079 -0.009,-5.021 0.243,-9.772c0.252,-4.752 1.047,-13.186 2.188,-18.621c1.141,-5.435 2.654,-8.922 5.163,-13.369c2.51,-4.447 6.104,-9.436 9.258,-13.111c3.154,-3.675 4.52,-5.146 9.164,-9.094c4.644,-3.948 13.448,-9.731 19.519,-12.987c6.072,-3.256 10.58,-5.348 16.002,-7.69c5.422,-2.342 9.598,-3.883 16.478,-6.306c6.881,-2.422 15.665,-5.081 24.999,-7.401c9.334,-2.32 23.386,-4.964 30.987,-6.09c7.601,-1.126 10.066,-1.349 14.384,-1.824c4.318,-0.475 7.533,-0.708 11.53,-0.98c3.997,-0.272 9.082,-0.518 12.447,-0.674c3.365,-0.155 2.881,0.054 7.746,-0.239c4.865,-0.292 16.053,-0.152 21.465,-0.188c5.412,-0.037 7.416,0.11 11.009,0.228c3.593,0.117 6.865,0.226 10.544,0.483c3.679,0.256 6.633,0.623 11.527,1.022c4.894,0.399 9.765,1.093 17.724,2.279c7.959,1.186 21.369,4.172 29.601,6.617c8.232,2.445 14.537,4.63 20.007,6.8c5.47,2.171 8.435,3.323 13.109,5.351c4.674,2.028 9.935,4.621 14.722,7.242c4.787,2.621 9.811,5.543 13.959,8.405c4.148,2.862 7.4,5.235 11.223,8.255c3.823,3.02 8.677,8.036 10.886,10.693c2.209,2.657 2.83,3.248 3.551,4.057c0.722,0.809 0.544,0.57 0.862,0.706c0.318,0.136 0.788,0.179 1.026,0.058c0.238,-0.121 0.361,-0.474 0.306,-0.87c-0.055,-0.396 -0.192,-0.92 -0.474,-1.484c-0.282,-0.565 0.33,0.145 -1.151,-1.929c-1.481,-2.074 -5.97,-7.77 -8.302,-10.03c-2.332,-2.26 -2.359,-2.28 -4.755,-4.287c-2.396,-2.007 -5.64,-4.812 -9.572,-7.817c-3.932,-3.005 -9.35,-6.394 -14.634,-9.214c-5.284,-2.82 -10.747,-5.324 -16.857,-7.709c-6.11,-2.384 -11.961,-4.699 -19.437,-7.389c-7.477,-2.69 -17.233,-5.74 -25.739,-7.657c-8.506,-1.917 -19.046,-3.751 -25.023,-4.312c-5.977,-0.561 -7.571,-0.657 -10.52,-0.882c-2.949,-0.226 -5.887,-0.37 -7.173,-0.451c-1.286,-0.081 -0.572,0.008 -0.573,-0.245c-0.001,-0.253 0.012,-0.188 0.641,-0.164c0.629,0.024 1.605,0.101 3.138,0.171c1.533,0.07 3.5,0.095 6.059,0.267c2.558,0.172 4.038,0.19 9.294,0.739c5.256,0.549 14.874,2.01 22.082,3.534c7.208,1.524 15.5,3.585 21.166,5.244c5.665,1.66 8.333,2.359 13.017,3.939c4.684,1.58 11.178,4.016 15.101,5.502c3.923,1.486 4.947,1.877 8.398,3.509c3.452,1.633 8.245,3.919 12.351,6.199c4.106,2.28 7.782,4.57 12.297,7.459c4.514,2.889 9.999,7.012 14.265,10.567c4.266,3.555 8.333,7.825 11.105,10.807c2.773,2.982 2.353,2.428 5.547,6.925c3.193,4.497 7.663,15.165 8.504,21.881c0.841,6.716 0.982,12.653 0.918,16.367c-0.064,3.714 0.061,3.378 -0.016,5.847c-0.077,2.469 -0.223,6.06 -0.411,8.973c-0.188,2.914 -0.14,3.292 -0.724,8.507c-0.584,5.214 -3.564,15.905 -6.613,21.576c-3.05,5.671 -6.636,10.476 -8.667,12.823c-2.03,2.347 -0.811,0.811 -2.021,2.26c-1.21,1.449 -1.988,5.328 -1.518,7.188c0.47,1.86 0.174,1.143 1.328,3.203c1.155,2.06 3.597,5.315 6.2,8.684c2.603,3.37 6.466,9.223 7.886,12.523c1.421,3.301 1.347,3.105 2.174,6.257c0.827,3.151 1.603,7.489 1.968,12.754c0.365,5.265 0.428,14.189 0.388,18.644c-0.04,4.455 -0.205,5.273 -0.392,8.075c-0.187,2.802 -0.234,4.52 -0.724,8.731c-0.49,4.211 -2.354,12.588 -3.812,16.144c-1.457,3.556 -1.213,2.249 -1.155,6.003c0.058,3.754 0.059,11.724 0.015,16.191c-0.044,4.467 0.253,4.441 -1.587,10.411c-1.841,5.97 -8.051,18.796 -11.478,23.935c-3.427,5.139 -3.819,5.376 -6.48,7.889c-2.661,2.512 -5.076,4.461 -9.12,7.294c-4.043,2.833 -9.812,6.323 -15.287,9.24c-5.475,2.918 -12.523,6.742 -17.084,9.046c-4.561,2.304 -4.924,2.302 -10.38,4.58c-5.456,2.278 -15.926,5.47 -22.929,7.215c-7.003,1.745 -11.189,2.597 -18.817,3.921c-7.627,1.324 -21.003,3.223 -26.913,3.966c-5.91,0.743 -5.518,0.52 -8.503,0.785c-2.985,0.264 -7.237,0.634 -9.402,0.817c-2.165,0.183 -2.033,0.166 -3.585,0.249c-1.552,0.083 -3.555,0.159 -5.723,0.272c-2.167,0.113 -5.174,0.289 -7.287,0.401c-2.112,0.112 -0.685,0.195 -5.385,0.256c-4.7,0.062 -17.289,0.203 -22.814,0.222c-5.525,0.019 -6.834,-0.115 -10.333,-0.23c-3.498,-0.115 -7.37,-0.27 -10.659,-0.446c-3.29,-0.176 -5.622,-0.352 -9.075,-0.618c-3.452,-0.266 -7.715,-0.549 -11.642,-0.976c-3.927,-0.427 -6.672,-0.818 -11.921,-1.586c-5.249,-0.768 -12.869,-2.233 -19.403,-3.837c-6.534,-1.604 -14.21,-3.679 -19.767,-5.678c-5.557,-1.999 -8.015,-2.792 -13.875,-5.24c-5.86,-2.449 -14.523,-6.74 -20.844,-10.315c-6.321,-3.575 -12.698,-7.828 -16.867,-11.141c-4.169,-3.312 -6.792,-5.74 -8.898,-7.569c-2.106,-1.829 -0.836,-0.498 -3.679,-3.467c-2.843,-2.969 -8.923,-10.333 -11.939,-15.436c-3.015,-5.103 -5.077,-10.018 -6.31,-14.495c-1.233,-4.478 -1.904,-7.976 -2.067,-11.713c-0.163,-3.737 -0.329,-7.105 -0.441,-10.434c-0.112,-3.33 -0.115,-5.896 -0.232,-9.545c-0.117,-3.649 -0.28,-8.289 -0.468,-12.346c-0.189,-4.057 -0.513,-9.364 -0.662,-11.999c-0.149,-2.635 -0.163,-2.657 -0.234,-3.812c-0.071,-1.154 -0.163,-1.722 -1.084,-2.756c-0.921,-1.034 -1.234,-1.386 -3.196,-3.915c-1.962,-2.529 -4.699,-8.63 -5.285,-12.618c-0.586,-3.988 -0.876,-6.947 -1.212,-10.037c-0.336,-3.09 -0.575,-5.871 -0.799,-8.503c-0.224,-2.632 -0.369,-4.666 -0.539,-7.282c-0.17,-2.616 -0.368,-6.527 -0.516,-8.407c-0.148,-1.879 0.291,-0.039 -0.603,-2.849c-0.894,-2.811 -2.566,-10.77 -2.93,-14.409c-0.364,-3.639 -0.348,-5.246 -0.461,-7.17c-0.112,-1.924 -0.258,-0.659 -0.201,-4.373c0.057,-3.713 0.716,-11.886 2.053,-17.808m378.073,184.19c-0.435,0.289 1.314,-0.758 -1.307,0.866c-2.621,1.625 -9.366,5.82 -14.402,8.912c-5.036,3.092 -13.025,7.31 -16.274,8.789c-3.249,1.479 -4.321,1.813 -5.252,2.251c-0.931,0.439 -0.06,0.007 -3.181,1.423c-3.122,1.416 -12.787,5.805 -15.557,7.058c-2.77,1.253 -1.079,1.203 -1.327,0.417c-0.248,-0.785 0.311,-0.32 0.831,-2.438c0.52,-2.119 0.912,-8.327 0.775,-10.611c-0.136,-2.284 -0.314,-2.201 -0.535,-2.978c-0.222,-0.777 -0.323,-0.958 -0.934,-1.627c-0.611,-0.668 -1.826,-0.552 -2.184,0.431c-0.357,0.983 -0.455,1.564 -0.531,2.621c-0.076,1.058 0.009,1.311 -0.031,3.71c-0.04,2.398 0.193,8.42 0.38,10.661c0.186,2.241 0.195,1.173 -1.017,1.636c-1.211,0.463 -3.682,1.307 -4.558,1.605c-0.876,0.298 -0.647,0.418 -0.9,0.076c-0.253,-0.342 -0.097,0.155 0.282,-1.038c0.379,-1.193 1.065,-4.39 1.088,-6.403c0.024,-2.013 0.062,-3.885 -0.018,-5.509c-0.08,-1.623 -0.348,-3.208 -0.544,-4.224c-0.195,-1.015 -0.31,-1.111 -0.843,-1.808c-0.533,-0.697 -1.846,-0.372 -2.142,0.297c-0.296,0.669 -0.043,-0.594 -0.272,1.083c-0.23,1.677 -0.204,6.115 -0.169,8.979c0.035,2.863 0.137,6.321 0.155,8.199c0.018,1.879 -0.307,1.293 -1.25,1.583c-0.943,0.29 -0.285,0.09 -2.596,0.733c-2.31,0.643 -8.854,2.469 -11.264,3.131c-2.41,0.662 -1.242,0.58 -1.145,-1.034c0.096,-1.614 0.274,-4.317 0.285,-6.28c0.01,-1.963 -0.155,-4.137 -0.262,-5.496c-0.106,-1.36 -0.34,-2.015 -0.485,-2.65c-0.145,-0.635 -0.255,-0.756 -0.469,-1.136c-0.213,-0.38 -0.561,-0.729 -1.076,-0.68c-0.515,0.048 -0.778,0.328 -0.915,0.878c-0.137,0.55 -0.298,-0.633 -0.343,1.984c-0.045,2.617 0.067,10.755 0.352,13.697c0.285,2.942 0.833,1.476 -1.324,1.847c-2.157,0.371 -7.406,1.215 -9.098,1.483c-1.692,0.268 -0.865,0.287 -1.181,0.008c-0.316,-0.279 -0.558,1.345 0.094,-0.945c0.652,-2.289 1.299,-10.552 1.209,-13.153c-0.09,-2.601 -0.106,-1.282 -0.484,-2.289c-0.377,-1.008 -1.663,-1.262 -2.369,-0.29c-0.706,0.972 -0.943,1.322 -1.101,2.798c-0.157,1.476 -0.452,3.667 -0.492,5.815c-0.04,2.148 0.13,5.209 0.183,7.071c0.053,1.862 0.301,1.579 -1.505,1.883c-1.805,0.304 -4.826,0.787 -6.88,1.116c-2.054,0.329 -2.126,1.479 -1.646,-1.601c0.481,-3.08 0.872,-10.762 0.811,-13.217c-0.062,-2.455 -0.085,-0.949 -0.191,-1.444c-0.106,-0.495 -0.262,-1.072 -0.903,-1.151c-0.64,-0.079 -0.872,0.21 -1.126,0.915c-0.255,0.705 -0.657,1.381 -0.851,2.781c-0.194,1.4 -0.426,3.4 -0.492,5.587c-0.066,2.188 -0.003,5.766 0.005,7.534c0.009,1.768 -0.164,1.143 -1.117,1.288c-0.953,0.145 -1.358,0.158 -2.565,0.321c-1.206,0.163 -3.485,0.496 -4.676,0.644c-1.191,0.148 -0.997,-0.257 -0.851,-0.958c0.146,-0.701 -0.102,0.465 0.416,-1.749c0.518,-2.213 0.679,-9.158 0.607,-11.641c-0.072,-2.483 -0.365,-2.372 -0.58,-3.196c-0.215,-0.824 -0.458,-1.17 -0.83,-1.704c-0.371,-0.534 -1.017,-0.809 -1.685,-0.632c-0.668,0.178 -0.948,0.409 -1.038,1.339c-0.09,0.93 -0.241,2.274 -0.244,3.695c-0.003,1.421 0.127,3.719 0.169,4.823c0.043,1.103 -0.081,0.251 0.08,1.796c0.161,1.545 0.624,5.73 0.813,7.481c0.19,1.751 0.713,1.145 -1.025,1.313c-1.738,0.168 -5.892,0.551 -7.496,0.699c-1.603,0.148 -1.122,0.146 -2.125,0.169c-1.003,0.023 -1.507,0.075 -3.183,0.27c-1.676,0.195 -4.197,0.343 -5.484,0.442c-1.288,0.099 -1.328,0.075 -2.241,0.149c-0.912,0.075 -1.176,-0.568 -1.059,-1.208c0.117,-0.64 -0.205,1.072 0.114,-0.55c0.319,-1.622 0.855,-6.575 0.891,-9.27c0.035,-2.695 -0.109,-5.062 -0.262,-6.844c-0.153,-1.782 -0.597,-2.935 -0.825,-3.826c-0.228,-0.891 -0.44,-0.977 -1.079,-1.014c-0.639,-0.037 -0.981,0.361 -1.204,1.002c-0.223,0.641 -0.291,0.554 -0.626,2.264c-0.335,1.709 -0.248,4.92 0.092,7.948c0.34,3.029 1.108,7.989 1.431,10.235c0.323,2.246 0.561,1.229 -1.04,1.368c-1.601,0.139 -3.507,0.273 -6.273,0.409c-2.767,0.136 -6.859,0.332 -10.32,0.446c-3.461,0.114 -7.524,0.195 -10.444,0.239c-2.92,0.044 -0.785,0.007 -7.08,0.007c-6.295,0 -25.359,0.001 -30.693,0.003c-5.334,0.001 -2.182,-0.255 -1.313,0.023c0.869,0.279 2.591,0.35 4.047,0.438c1.456,0.088 2.485,0.151 4.708,0.3c2.223,0.148 6.161,0.436 8.628,0.582c2.466,0.146 3.308,0.153 6.17,0.263c2.862,0.11 5.737,0.387 10.997,0.393c5.26,0.006 15.752,-0.14 20.564,-0.207c4.812,-0.068 6.887,-0.197 8.309,-0.239c1.422,-0.042 -1.345,0.091 0.224,-0.015c1.569,-0.106 6.011,-0.407 9.186,-0.621c3.175,-0.214 5.386,-0.272 9.861,-0.674c4.475,-0.402 8.86,-0.741 16.995,-1.675c8.135,-0.934 24.233,-3.622 31.631,-5.04c7.398,-1.417 8.827,-1.734 12.888,-2.624c4.061,-0.891 5.604,-1.147 11.471,-2.752c5.867,-1.605 16.848,-5.896 22.78,-9.178c5.932,-3.282 9.951,-5.733 13.797,-8.023c3.846,-2.29 4.939,-3.036 9.265,-5.744c4.325,-2.709 13.079,-9.511 15.631,-11.889c2.552,-2.377 0.594,-0.831 0.716,-1c0.121,-0.169 -0.007,0.007 -0.148,0.066m-54.057,-56.957c-0.726,0.257 -0.491,0.241 -1.719,0.659c-1.227,0.418 -4.19,1.326 -5.027,1.59c-0.838,0.264 -0.298,0.663 0.046,-0.157c0.345,-0.821 1.224,-2.497 1.311,-4.622c0.087,-2.125 0.166,-6.026 0.161,-7.858c-0.005,-1.831 -0.349,-2.28 -0.82,-3.002c-0.471,-0.722 -0.774,-0.943 -1.458,-0.878c-0.685,0.065 -1.029,0.421 -1.209,1.177c-0.18,0.756 -0.454,0.236 -0.473,2.758c-0.019,2.523 0.024,9.877 0.042,12.367c0.018,2.49 0.237,0.922 -0.878,1.335c-1.115,0.413 -3.458,1.236 -4.234,1.513c-0.776,0.277 0.764,-0.341 -0.432,0.119c-1.196,0.461 -2.684,1.074 -4.977,1.822c-2.293,0.748 -5.856,1.636 -7.681,2.019c-1.825,0.383 -1.633,1.564 -0.918,-1.05c0.716,-2.615 1.328,-10.473 1.263,-13.042c-0.065,-2.569 -0.192,-1.588 -0.333,-2.213c-0.141,-0.626 -0.398,-0.99 -0.998,-1.116c-0.599,-0.126 -1.081,0.12 -1.429,0.698c-0.348,0.578 -0.601,0.752 -0.984,2.121c-0.383,1.369 -0.787,3.73 -0.737,6.114c0.049,2.384 0.138,6.266 0.183,8.088c0.045,1.822 0.561,1.16 -1.032,1.441c-1.592,0.281 -4.579,0.865 -6.983,1.175c-2.404,0.31 -2.326,0.262 -5.018,0.648c-2.692,0.386 -7.634,1.106 -9.346,1.346c-1.712,0.24 -0.622,0.034 -3.467,0.451c-2.845,0.418 -16.873,2.534 -17.656,2.677c-0.783,0.143 -0.92,-0.068 -1.04,0.24c-0.119,0.308 -1.605,0.186 0.676,0.218c2.281,0.033 8.757,-0.14 13.023,-0.385c4.266,-0.245 5.429,-0.194 12.527,-1.152c7.098,-0.958 22.429,-3.774 29.738,-5.93c7.309,-2.156 10.196,-3.111 14.597,-4.542c4.401,-1.431 7.507,-2.579 11.797,-4.066c4.29,-1.488 9.948,-4.072 13.309,-6.22c3.361,-2.148 3.802,-2.331 7.7,-4.859c3.898,-2.528 12.728,-8.876 15.158,-11.044c2.43,-2.169 0.742,-0.366 0.451,-0.542c-0.29,-0.176 0.271,-0.466 -1.064,0.35c-1.335,0.815 -3.241,2.026 -7.096,4.34c-3.855,2.314 -11.79,7.333 -16.012,9.579c-4.222,2.246 -7.26,3.676 -9.003,4.339c-1.743,0.663 -0.896,0.809 -1.328,0.393c-0.432,-0.416 0.224,-0.642 0.4,-1.168c0.176,-0.526 0.316,-0.803 0.746,-2.237c0.43,-1.433 0.535,-4.306 0.59,-6.47c0.055,-2.163 -0.676,-4.816 -1.275,-6.104c-0.599,-1.288 -0.588,-1.106 -1.011,-1.877c-0.423,-0.771 -0.196,-1.399 0.567,-1.778c0.762,-0.38 0.126,0.188 1.716,-0.831c1.59,-1.019 4.623,-2.886 7.901,-5.16c3.278,-2.274 7.554,-5.379 11.813,-8.411c4.259,-3.032 8.975,-6.409 13.389,-10.241c4.414,-3.831 9.452,-9.726 11.801,-13.622c2.349,-3.896 2.876,-5.252 3.317,-8.302c0.441,-3.05 0.994,-7.552 1.206,-9.244c0.213,-1.692 0.332,-0.961 -0.052,-0.92c-0.383,0.041 -0.072,-0.359 -0.571,1.034c-0.499,1.393 -1.852,4.965 -3.053,7.12c-1.201,2.155 -3.343,4.539 -4.32,5.429c-0.977,0.889 -0.536,0.572 -0.857,0.512c-0.32,-0.059 -0.148,-0.279 -0.102,-0.472c0.047,-0.192 -0.596,1.406 0.268,-0.854c0.865,-2.26 3.156,-9.364 4.009,-12.987c0.853,-3.622 0.865,-6.853 0.637,-8.575c-0.228,-1.721 -0.181,-1.475 -0.786,-1.506c-0.605,-0.031 -0.359,0.42 -0.569,0.924c-0.211,0.505 0.02,-0.074 -0.786,2.105c-0.806,2.179 -2.285,6.465 -4.076,10.959c-1.791,4.494 -4.566,10.302 -7.776,15.443c-3.21,5.141 -7.538,10.539 -12.121,14.377c-4.583,3.838 -11.647,7.255 -14.311,8.351c-2.664,1.096 -0.676,0.442 -0.586,0.037c0.091,-0.405 -1.393,0.775 1.14,-1.263c2.533,-2.038 11.21,-8.999 13.921,-11.207c2.71,-2.208 1.709,-1.795 2.124,-2.3c0.415,-0.506 0.338,-0.674 0.134,-0.916c-0.203,-0.242 -0.491,-0.245 -0.945,-0.05c-0.454,0.195 -0.888,0.333 -1.861,1.026c-0.973,0.693 -1.615,1.065 -4.05,3.029c-2.435,1.964 -7.642,6.219 -10.624,8.67c-2.982,2.451 -4.687,3.848 -7.673,5.476c-2.987,1.628 -5.832,3.108 -9.757,4.855c-3.925,1.747 -7.44,3.235 -13.804,5.425c-6.364,2.189 -18.852,4.411 -27.7,5.515c-8.848,1.105 -34.12,4.885 -55.613,6.383c-9.526,0.664 -38.706,1.867 -77.245,-1.51c-21.457,-2.547 -41.643,-8.172 -52.691,-11.127c-18.202,-4.868 -26.688,-9.118 -41.618,-16.945c-13.123,-6.823 -21.629,-14.643 -24.81,-17.532c-3.503,-3.18 -1.139,-2.547 -10.967,-10.655c-9.827,-8.108 -16.024,3.573 11.629,26.349c10.545,8.685 23.386,18.696 43.31,25.79c27.435,9.768 36.254,12.88 64.122,16.357c27.868,3.478 25.463,2.607 37.874,2.818c12.411,0.211 28.091,-0.154 39.784,-0.639c10.184,-0.192 23.361,-0.554 33.529,-1.194c19.748,-1.752 16.355,-2.447 40.892,-6.855c5.127,-0.921 16.664,-4.269 24.076,-6.987c7.411,-2.718 10.172,-3.688 12.736,-4.537c2.564,-0.849 2.213,-0.735 3.204,-1.046c0.992,-0.312 1.319,0.293 1.448,0.83c0.129,0.537 -0.049,-0.939 0.073,0.442c0.123,1.381 0.488,5.147 0.68,7.835c0.192,2.687 0.516,6.617 1.053,8.22c0.537,1.603 -0.014,0.881 -0.522,1.055m-294.043,-129.586c1.052,1.168 1.441,1.81 3.169,3.493c1.728,1.683 3.479,3.443 7.119,6.696c3.64,3.253 10.76,8.285 15.798,11.294c5.039,3.009 8.711,4.903 13.904,7.355c5.193,2.451 10.43,4.629 17.295,6.978c6.866,2.349 15.066,4.729 23.871,6.857c8.805,2.128 20.48,4.227 28.93,5.495c8.45,1.268 15.97,2.117 21.651,2.544c5.681,0.428 8.281,0.746 12.314,1.036c4.033,0.29 7.901,0.499 11.883,0.69c3.982,0.191 6.955,0.424 12.009,0.441c5.055,0.017 15.208,-0.169 18.316,-0.21c3.108,-0.041 -1.01,0.047 0.336,-0.023c1.346,-0.07 5.625,-0.292 7.737,-0.405c2.112,-0.113 2.38,-0.049 4.934,-0.289c2.554,-0.24 5.68,-0.567 10.395,-1.065c4.715,-0.499 12.079,-1.493 17.759,-2.798c5.68,-1.305 12.466,-3.126 16.454,-4.163c3.988,-1.037 3.287,-0.837 7.462,-2.113c4.175,-1.276 12.71,-3.925 17.606,-5.465c4.897,-1.54 6.649,-2.032 11.763,-3.809c5.113,-1.777 12.714,-4.564 18.791,-7.188c6.077,-2.624 11.107,-4.95 17.485,-8.722c6.378,-3.772 15.35,-10.121 20.194,-14.409c4.844,-4.288 6.489,-6.23 9.452,-10.058c2.963,-3.827 6.075,-9.627 7.456,-13.037c1.382,-3.41 1.62,-4.098 1.978,-6.67c0.358,-2.572 0.579,-2.502 -0.14,-8.403c-0.719,-5.9 -4.869,-17.616 -9.475,-24.652c-4.605,-7.036 -10.932,-13.136 -15.581,-17.172c-4.649,-4.037 -6.705,-5.498 -10.745,-8.329c-4.039,-2.832 -8.479,-5.732 -13.473,-8.546c-4.994,-2.814 -10.6,-5.755 -16.412,-8.373c-5.812,-2.617 -9.495,-4.232 -18.372,-7.319c-8.877,-3.088 -24.532,-7.354 -35.247,-9.526c-10.716,-2.172 -22.042,-3.82 -28.625,-4.641c-6.583,-0.821 -7.45,-0.792 -10.728,-1.128c-3.279,-0.335 -5.549,-0.618 -8.946,-0.881c-3.397,-0.263 -8.836,-0.572 -11.433,-0.733c-2.598,-0.161 -1.999,-0.126 -4.149,-0.232c-2.15,-0.106 -3.826,-0.374 -8.748,-0.393c-4.922,-0.019 -15.979,-0.012 -20.781,0.401c-4.802,0.413 -4.009,0.106 -8.069,0.531c-4.06,0.425 -10.768,1.136 -16.294,1.911c-5.526,0.775 -10.454,1.65 -16.87,2.714c-6.416,1.064 -14.031,2.736 -21.43,4.595c-7.399,1.859 -15.777,4.295 -22.844,6.764c-7.067,2.468 -13.244,5.103 -19.307,8.259c-6.063,3.156 -11.833,6.927 -16.862,10.532c-5.029,3.605 -9.599,7.269 -13.563,10.569c-3.964,3.299 -7.056,6.214 -10.138,9.22c-3.082,3.006 -5.674,5.978 -7.909,9.185c-2.235,3.207 -4.135,6.389 -5.431,9.809c-1.296,3.421 -1.886,6.443 -1.856,10.228c0.031,3.785 1.013,7.842 2.735,11.624c1.723,3.782 3.232,6.522 6.524,10.87c3.291,4.348 9.654,10.809 13.842,14.226c4.187,3.416 7.166,5.554 9.857,7.645c2.691,2.091 5.025,3.948 6.267,4.934c1.242,0.985 1.298,0.785 0.852,1.297c-0.446,0.513 1.918,1.31 -1.719,-0.511c-3.637,-1.821 -14.05,-8.261 -19.046,-12.095c-4.997,-3.834 -8.134,-7.315 -10.675,-10.569c-2.541,-3.254 -4.639,-6.366 -5.688,-7.812c-1.049,-1.446 -0.908,-2.728 -0.654,-0.83c0.254,1.898 7.948,16.351 15.072,24.375m322.874,136.117c-3.568,1.914 -6.512,3.637 -10.711,5.713c-4.199,2.077 -8.172,3.866 -14.75,6.071c-6.578,2.205 -18.388,5.856 -24.556,7.307c-6.168,1.452 -6.891,1.696 -12.11,2.481c-5.219,0.785 -15.857,2.026 -19.173,2.438c-3.316,0.413 -0.74,0.308 -0.731,0.004c0.009,-0.304 -2.452,0.293 0.8,-0.407c3.252,-0.699 12.146,-2.51 18.677,-4.034c6.531,-1.524 14.148,-3.5 20.427,-5.404c6.279,-1.904 11.168,-3.506 17.27,-5.763c6.102,-2.258 12.529,-5.107 18.905,-8.617c6.376,-3.509 13.862,-8.977 18.41,-13.189c4.548,-4.212 6.922,-6.878 9.781,-10.532c2.859,-3.654 5.879,-8.118 7.637,-10.974c1.757,-2.856 2.31,-3.928 3.307,-5.875c0.998,-1.946 1.389,-4.312 1.286,-6.09c-0.103,-1.778 -0.074,-1.084 -0.408,-4.249c-0.334,-3.165 -2.659,-11.753 -3.568,-14.249c-0.909,-2.495 -0.368,-0.872 -0.508,-1.061c-0.14,-0.19 -0.159,-0.118 -0.234,0.045c-0.076,0.162 -0.075,-0.346 -0.168,0.817c-0.093,1.164 -0.225,3.37 -0.47,6.162c-0.245,2.792 -1.107,6.748 -2.342,10.276c-1.235,3.528 -3.545,8.321 -4.885,10.728c-1.34,2.408 -0.963,1.842 -2.411,4.053c-1.448,2.211 -4.014,5.839 -6.737,8.844c-2.722,3.005 -5.459,5.867 -9.364,9.217c-3.904,3.35 -10.499,7.87 -14.471,10.048c-3.972,2.178 -4.833,2.72 -8.514,4.053c-3.681,1.333 -7.345,2.662 -13.289,4.55c-5.944,1.888 -14.656,4.602 -22.345,6.882c-7.689,2.28 -14.781,3.98 -24.007,5.921c-9.225,1.941 -24.287,4.339 -31.371,5.227c-7.084,0.888 -7.612,0.878 -10.945,1.221c-3.334,0.343 -6.395,0.603 -9.063,0.824c-2.668,0.222 -4.779,0.365 -6.947,0.492c-2.168,0.127 -3.683,0.157 -6.058,0.27c-2.375,0.112 -1.991,0.394 -8.187,0.388c-6.196,-0.006 -22.851,0.024 -28.985,-0.409c-6.134,-0.434 -3.324,-0.02 -7.844,-0.523c-4.52,-0.503 -11.561,-1.275 -19.3,-2.333c-7.739,-1.058 -18.076,-2.742 -27.051,-4.511c-8.975,-1.769 -19.252,-4.078 -26.717,-6.188c-7.464,-2.11 -12.19,-3.572 -18.261,-5.614c-6.071,-2.043 -12.582,-4.642 -18.033,-6.963c-5.451,-2.321 -9.241,-4.148 -14.642,-6.882c-5.402,-2.734 -14.441,-8.21 -17.348,-10.17c-2.906,-1.96 -0.545,-0.694 -0.967,-0.534c-0.422,0.16 -1.106,-1.293 0.235,0.558c1.341,1.852 6.53,8.011 8.62,10.209c2.09,2.199 1.419,1.349 3.511,3.317c2.092,1.967 5.913,5.101 9.708,7.633c3.795,2.531 7.949,4.813 13.074,7.216c5.125,2.404 13.733,5.849 17.578,7.18c3.845,1.331 1.371,0.567 5.095,1.777c3.723,1.21 9.738,3.375 17.233,5.517c7.495,2.142 19.083,4.705 27.988,6.136c8.905,1.431 19.115,2.428 25.236,2.73c6.121,0.302 7.32,0.476 11.324,0.619c4.003,0.144 5.838,0.283 12.693,0.236c6.855,-0.047 21.677,0.098 28.436,-0.167c6.76,-0.264 8.647,-0.19 12.121,-0.462c3.473,-0.272 5.439,-0.287 8.744,-0.519c3.305,-0.232 7.541,-0.563 11.085,-0.869c3.544,-0.306 6.679,-0.594 10.18,-0.969c3.5,-0.375 5.976,-0.663 10.827,-1.27c4.851,-0.607 12.518,-1.509 18.28,-2.36c5.762,-0.851 10.379,-1.762 16.289,-2.772c5.91,-1.01 14.241,-2.413 19.169,-3.263c4.928,-0.85 6.344,-0.963 10.394,-1.898c4.05,-0.935 9.339,-2.436 13.936,-3.585c4.596,-1.149 9.669,-3.291 12.854,-5.232c3.185,-1.941 5.785,-3.458 7.142,-4.26c1.357,-0.802 0.729,-0.955 1.223,-0.537c0.493,0.418 0.161,-0.727 0.126,1.738c-0.035,2.464 -0.174,10.823 -0.213,13.256c-0.039,2.434 -0.014,0.979 0.065,1.342c0.079,0.363 0.273,0.701 0.502,0.773c0.228,0.071 0.55,0.035 0.83,-0.366c0.279,-0.401 0.263,0.226 1.019,-1.862c0.756,-2.088 1.899,-8.07 2.086,-10.888c0.187,-2.818 -1.353,-3.605 -2.3,-4.157c-0.947,-0.552 -0.884,-0.247 -0.904,-0.678c-0.02,-0.431 0.067,-0.199 0.705,-0.618c0.638,-0.419 1.437,-0.978 3.214,-2.07c1.776,-1.092 5.512,-4.026 6.777,-5.343c1.265,-1.317 1.307,-1.173 1.685,-1.484c0.378,-0.311 0.437,-0.34 0.636,-0.309c0.198,0.031 -0.152,-1.892 0.157,0.274c0.309,2.166 1.171,10.303 1.06,12.858c-0.111,2.555 0.146,1.749 0.224,2.344c0.078,0.594 0.244,0.925 0.663,0.901c0.419,-0.024 0.712,-0.184 0.977,-0.595c0.266,-0.411 0.295,-0.026 0.759,-1.738c0.464,-1.711 0.788,-6.752 0.656,-8.588c-0.131,-1.837 -0.045,-1.208 -0.394,-2.322c-0.35,-1.114 -1.473,-3.032 -2.674,-3.564c-1.202,-0.532 -0.934,-0.479 -0.241,-1.292c0.693,-0.813 0.512,-0.427 2.276,-2.636c1.764,-2.209 6.173,-7.726 8.366,-10.575c2.193,-2.849 3.536,-4.825 4.697,-6.588c1.161,-1.762 1.688,-3.155 2.12,-4.075c0.432,-0.92 0.241,-1.067 0.272,-1.534c0.031,-0.468 -0.069,-0.842 -0.541,-1.019c-0.472,-0.177 -0.607,-0.081 -1.013,0.507c-0.405,0.588 0.075,-0.342 -1.685,2.525c-1.76,2.867 -6.812,9.709 -10.35,13.559c-3.538,3.85 -6.743,6.88 -10.388,9.773c-3.646,2.893 -7.122,5.614 -11.169,8.024m-83.999,-50.261c3.71,-0.915 5.443,-1.159 11.124,-2.765c5.681,-1.606 17.273,-5.705 22.564,-7.967c5.291,-2.262 6.197,-2.801 9.541,-4.527c3.344,-1.726 7.923,-4.443 10.333,-6.133c2.41,-1.691 3.667,-2.656 4.545,-3.303c0.878,-0.647 0.862,-0.608 0.454,-0.905c-0.408,-0.298 0.764,-0.296 -1.193,0.386c-1.957,0.682 -6.438,2.366 -10.617,3.684c-4.18,1.318 -8.499,2.722 -14.449,4.252c-5.95,1.53 -13.713,3.493 -21.217,5.026c-7.504,1.533 -17.252,3.139 -23.792,4.236c-6.54,1.097 -9.884,1.558 -15.455,2.293c-5.571,0.735 -13.594,1.656 -17.967,2.155c-4.373,0.499 -5.685,0.558 -8.279,0.766c-2.594,0.207 -4.762,0.331 -7.284,0.477c-2.522,0.146 -3.807,0.401 -7.849,0.388c-4.043,-0.014 -11.525,0.169 -16.405,-0.174c-4.88,-0.342 -8.269,-0.3 -12.892,-0.709c-4.623,-0.409 -7.131,-0.504 -14.842,-1.738c-7.711,-1.233 -22.823,-3.902 -31.477,-5.343c-8.653,-1.442 -14.291,-2.703 -20.196,-4.415c-5.905,-1.711 -10.651,-3.215 -15.474,-4.741c-4.823,-1.526 -9.222,-3.209 -13.254,-4.981c-4.032,-1.772 -7.925,-3.433 -11.189,-4.98c-3.264,-1.547 -4.467,-2.243 -8.362,-4.381c-3.895,-2.138 -9.723,-5.655 -14.512,-9.21c-4.789,-3.555 -10.347,-8.453 -13.875,-12.252c-3.529,-3.799 -4.796,-5.008 -8.187,-9.402c-3.39,-4.393 -8.869,-14.468 -10.177,-17.918c-1.308,-3.45 -0.125,-1.186 -0.666,-1.41c-0.54,-0.224 -0.148,-0.577 -0.239,0.775c-0.091,1.353 -0.437,4.353 -0.055,7.623c0.382,3.27 0.567,5.957 3.095,11.456c2.529,5.499 9.511,14.608 14.316,18.994c4.805,4.386 8.349,6.68 11.724,9.079c3.375,2.398 5.009,3.555 8.204,5.727c3.195,2.171 7.016,4.559 11.486,6.358c4.47,1.799 10.591,4.03 14.729,5.534c4.137,1.505 5.995,2.101 10.104,3.455c4.11,1.354 8.366,2.781 14.543,4.705c6.177,1.923 12.745,3.595 22.856,5.384c10.111,1.789 28.442,4.615 37.689,5.587c9.247,0.973 13.101,1.011 17.587,1.251c4.486,0.24 5.089,0.252 9.32,0.224c4.231,-0.028 11.485,0.123 16.069,-0.156c4.584,-0.279 8.499,-0.197 11.456,-0.275c2.958,-0.078 4.546,-0.174 6.284,-0.262c1.738,-0.088 2.129,-0.142 4.145,-0.285c2.016,-0.142 5.303,-0.379 7.954,-0.571c2.651,-0.192 5.21,-0.358 7.953,-0.584c2.743,-0.226 5.985,-0.552 8.504,-0.769c2.519,-0.217 4.219,-0.332 6.608,-0.516c2.389,-0.184 5.841,-0.456 7.726,-0.595c1.885,-0.139 2.805,-0.184 3.588,-0.22c0.783,-0.035 1.265,-0.23 1.21,0.312c-0.054,0.541 0.591,-0.042 -1.182,0.338c-1.773,0.38 -4.525,1.036 -9.567,2.024c-5.042,0.987 -15.786,2.192 -20.836,2.697c-5.05,0.505 -5.412,0.438 -9.407,0.735c-3.995,0.297 -10.453,0.79 -14.562,1.05c-4.109,0.26 -6.991,0.339 -10.096,0.454c-3.105,0.115 -4.754,0.248 -8.535,0.224c-3.781,-0.024 -9.986,0.136 -14.156,-0.167c-4.17,-0.303 -7.537,-0.293 -10.882,-0.491c-3.345,-0.197 -4.532,-0.197 -9.179,-0.762c-4.647,-0.565 -10.467,-1.289 -18.72,-2.474c-8.253,-1.185 -22.023,-3.563 -30.648,-5.467c-8.625,-1.904 -13.906,-3.413 -21.018,-5.785c-7.112,-2.372 -16.223,-5.438 -21.912,-7.49c-5.689,-2.052 -8.196,-3.221 -12.131,-5.06c-3.935,-1.839 -7.896,-4.38 -11.073,-6.64c-3.178,-2.261 -5.47,-3.823 -8.454,-6.147c-2.984,-2.324 -6.427,-5.026 -9.448,-7.79c-3.021,-2.764 -4.938,-4.487 -8.467,-8.987c-3.53,-4.499 -8.304,-13.432 -9.611,-19.112c-1.307,-5.68 -0.969,-9.246 -0.658,-12.623c0.31,-3.377 0.968,-6.076 1.204,-7.543c0.236,-1.467 0.915,-1.269 0.125,-1.418c-0.791,-0.149 -0.291,-0.478 -1.841,1.679c-1.549,2.157 -3.798,8.375 -3.913,12.351c-0.116,3.976 0.507,6.178 1.703,10.162c1.196,3.984 3.315,8.583 6.021,13.156c2.706,4.573 6.827,10.003 10.377,13.818c3.55,3.815 6.142,6.391 10.143,9.54c4.001,3.149 8.968,6.659 13.599,9.365c4.631,2.706 8.448,4.576 13.942,7.038c5.495,2.462 12.635,5.191 19.095,7.319c6.46,2.128 13.391,4.218 19.563,5.567c6.173,1.349 10.297,2.388 17.149,3.652c6.852,1.264 18.114,3.117 23.984,3.767c5.869,0.65 7.256,0.87 11.062,1.189c3.805,0.319 8.948,0.571 11.769,0.736c2.821,0.165 2.803,0.145 5.159,0.253c2.356,0.108 3.751,0.369 8.975,0.388c5.223,0.019 17.441,0.029 22.364,-0.198c4.923,-0.227 5.164,-0.182 7.184,-0.263c2.02,-0.081 2.973,-0.13 4.935,-0.239c1.962,-0.108 4.205,-0.234 6.838,-0.403c2.633,-0.169 6.461,-0.417 8.964,-0.599c2.502,-0.182 3.545,-0.296 6.044,-0.519c2.499,-0.224 6.194,-0.531 8.95,-0.827c2.756,-0.296 2.359,-0.291 7.582,-0.965c5.224,-0.674 15.783,-2.379 23.759,-4.175m-179.15,111.255c2.315,0.752 2.405,0.753 6.944,2.261c4.539,1.508 14.811,4.15 20.668,5.331c5.857,1.181 10.355,1.799 14.297,2.406c3.942,0.607 5.921,0.825 9.368,1.174c3.446,0.349 7.61,0.693 11.306,0.958c3.696,0.265 8.05,0.487 10.872,0.64c2.822,0.153 3.253,0.146 6.059,0.256c2.806,0.11 4.498,0.356 10.772,0.397c6.274,0.041 20.803,0.031 26.872,0.011c6.069,-0.02 7.917,-0.19 9.545,-0.232c1.628,-0.041 -1.662,0.096 0.225,-0.012c1.887,-0.108 7.977,-0.451 11.097,-0.64c3.12,-0.189 4.378,-0.211 7.62,-0.522c3.242,-0.31 6.573,-0.552 11.839,-1.3c5.266,-0.748 13.436,-1.982 19.769,-3.071c6.333,-1.089 11.754,-2.45 18.089,-4.085c6.335,-1.635 13.184,-3.643 19.83,-5.862c6.647,-2.219 14.799,-5.071 20.194,-6.952c5.395,-1.881 7.902,-2.775 12.168,-4.362c4.266,-1.587 9.427,-3.507 13.423,-5.167c3.997,-1.66 7.456,-3.694 10.022,-5.732c2.566,-2.038 5.044,-4.014 6.238,-4.976c1.194,-0.962 -0.088,0.276 0.851,-0.891c0.939,-1.166 2.536,-3.31 4.858,-6.044c2.322,-2.734 6.541,-9.14 7.832,-11.237c1.29,-2.097 0.721,-0.67 0.472,-0.95c-0.249,-0.28 -0.131,-0.26 -0.835,0.398c-0.704,0.658 -0.932,0.959 -3.603,3.382c-2.671,2.423 -8.026,6.516 -13.347,9.895c-5.321,3.379 -11.907,5.864 -18.042,8.895c-6.135,3.032 -11.002,4.118 -16.748,6.349c-5.746,2.23 -10.89,3.811 -16.656,5.76c-5.766,1.948 -14.211,3.675 -21.715,4.872c-7.504,1.198 -8.44,2.36 -18.986,3.337c-10.547,0.977 -31.212,2.439 -47.499,2.724c-16.287,0.284 -31.494,0.963 -45.266,0.781c-31.264,0.82 -50.884,-3.266 -68.957,-7.606c-15.485,-2.954 -35.989,-11.12 -43.283,-14.315c-7.294,-3.195 -15.014,-6.196 -21.553,-10.77c-3.282,-2.136 -5.951,-3.433 -9.237,-6.479c-3.286,-3.045 -8.578,-7.186 -11.762,-10.568c-3.184,-3.382 -4.757,-5.362 -5.983,-7.167c-1.226,-1.805 -3.037,-1.38 -3.397,-0.969c-0.361,0.412 -1.118,1.198 -0.863,2.388c0.255,1.19 0.682,2.96 2.171,5.77c1.489,2.81 4.629,7.315 7.604,10.257c2.975,2.941 5.35,5.135 9.004,8.295c3.653,3.16 7.781,6.539 13.139,10.373c5.358,3.835 11.949,7.948 19.36,11.828c7.411,3.879 16.444,7.995 25.222,11.17m246.917,-172.126c-2.735,1.315 -5.801,2.808 -8.21,3.936c-2.409,1.128 -4.987,2.241 -6.251,2.819c-1.264,0.578 -1.38,0.455 -1.27,1.03c0.109,0.576 -0.159,0.277 1.065,0.08c1.224,-0.197 3.992,-0.38 6.403,-1.145c2.411,-0.766 3.808,-1.306 8.115,-3.282c4.307,-1.976 12.843,-6.207 17.395,-9.153c4.552,-2.946 7.881,-5.265 10.608,-7.181c2.727,-1.917 4.109,-3.142 5.681,-4.413c1.572,-1.271 2.506,-2.104 3.723,-3.242c1.217,-1.138 2.864,-2.849 3.588,-3.566c0.724,-0.717 0.439,-1.179 1.015,-0.858c0.576,0.321 0.107,-0.083 0.112,1.556c0.005,1.639 -0.044,6.189 0.031,8.545c0.075,2.356 0.411,4.435 0.546,5.587c0.135,1.152 0.027,1.383 0.71,1.193c0.683,-0.19 0.294,-0.056 0.679,-1.865c0.385,-1.809 0.793,-6.373 0.935,-9.045c0.142,-2.672 0.049,-5.19 -0.377,-6.94c-0.426,-1.75 -0.712,-1.202 0.725,-3.108c1.437,-1.906 4.16,-5.636 6.302,-8.619c2.142,-2.983 2.648,-8.281 2.552,-10.266c-0.096,-1.986 -0.069,-0.537 -0.165,-0.882c-0.096,-0.346 -0.363,-0.874 -0.758,-0.838c-0.394,0.037 -0.577,0.117 -0.853,0.595c-0.276,0.478 -0.621,1.136 -0.988,2.136c-0.367,1 -0.697,2.342 -1.311,3.828c-0.614,1.486 -0.74,2.272 -2.345,5.097c-1.605,2.824 -5.161,7.496 -8.398,10.943c-3.238,3.447 -6.579,6.514 -10.728,9.732c-4.15,3.219 -9.225,6.765 -14.059,9.49c-4.834,2.724 -9.547,5.181 -14.474,7.839m11.511,29.05c0.731,-0.844 2.199,-2.076 1.747,-3.081c-0.452,-1.004 0.036,-0.191 -1.505,0.549c-1.54,0.74 -6.075,2.927 -7.981,3.883c-1.906,0.956 -2.297,1.189 -3.391,1.965c-1.094,0.776 -0.714,0.563 -3.185,2.672c-2.471,2.109 -8.037,6.245 -12.436,8.862c-4.399,2.617 -8.649,4.79 -13.65,7.116c-5.001,2.326 -12.808,5.437 -16.348,6.617c-3.54,1.181 -3.595,1.202 -4.477,1.505c-0.882,0.303 -1.363,0.275 -0.811,0.637c0.553,0.362 0.348,-0.009 1.984,-0.397c1.637,-0.388 4.959,-1.185 7.98,-1.923c3.021,-0.739 7.377,-1.776 10.146,-2.514c2.769,-0.738 2.905,-0.636 6.434,-2.007c3.529,-1.371 11.371,-5.376 14.232,-7.176c2.861,-1.8 1.908,-1.221 3.584,-2.322c1.675,-1.101 3.402,-2.054 6.461,-4.29c3.059,-2.236 7.637,-6.394 11.215,-10.096m-11.021,113.807c1.21,0.253 2.104,-0.2 2.623,-1.319c0.518,-1.119 0.76,-1.572 1.034,-3.183c0.274,-1.611 0.595,-4.693 0.836,-6.443c0.241,-1.75 0.033,-3.099 -0.178,-4.009c-0.21,-0.91 -0.082,-0.689 -0.575,-1.444c-0.493,-0.754 -2.008,-0.884 -2.613,-0.224c-0.605,0.661 -0.602,0.832 -0.8,1.327c-0.198,0.495 -0.054,-0.629 -0.409,1.628c-0.356,2.257 -0.756,9.652 -0.693,11.959c0.064,2.308 0.112,1.196 0.774,1.707m-35.872,-1.246c-0.095,-0.968 -0.182,-2.171 -0.304,-2.899c-0.122,-0.729 -0.183,-0.865 -0.572,-1.439c-0.389,-0.575 -1.435,-0.676 -1.926,-0.187c-0.491,0.489 -0.569,0.385 -0.806,1.311c-0.238,0.926 -0.659,2.519 -0.861,4.167c-0.202,1.648 -0.377,4.046 -0.422,5.704c-0.044,1.658 0.066,3.022 0.239,4.24c0.173,1.218 1.297,1.239 1.946,0.82c0.65,-0.419 0.736,-0.617 1.007,-1.154c0.271,-0.536 0.241,-0.3 0.708,-2.006c0.467,-1.707 0.785,-5.547 0.991,-8.556m-18.438,-66.576c0.007,0.636 -0.054,1.166 0.033,1.904c0.086,0.739 0.192,1.691 0.465,2.527c0.272,0.836 1.273,0.91 1.781,0.393c0.508,-0.517 0.63,-0.634 0.892,-1.402c0.262,-0.767 0.6,-1.625 0.83,-3.135c0.23,-1.51 0.539,-4.15 0.683,-5.902c0.144,-1.751 0.016,-3.458 -0.281,-4.572c-0.296,-1.114 -0.439,-1.536 -1.322,-1.644c-0.883,-0.108 -1.517,0.904 -1.77,1.326c-0.253,0.422 -0.108,0.14 -0.217,0.515c-0.108,0.375 -0.136,0.116 -0.466,1.732c-0.331,1.616 -0.704,5.332 -0.628,8.257m24.486,-3.87c0.264,-0.817 0.315,-0.753 0.788,-2.457c0.472,-1.704 0.873,-6.204 0.981,-7.893c0.108,-1.689 -0.036,-1.227 -0.325,-2.209c-0.289,-0.983 -2.011,-1.322 -2.663,-0.69c-0.652,0.632 -0.345,0.213 -0.862,1.293c-0.517,1.08 -0.897,3.409 -1.03,5.369c-0.134,1.96 -0.3,5.024 -0.365,6.272c-0.064,1.248 -0.124,0.417 0.083,1.22c0.207,0.803 1.482,1.35 2.185,0.746c0.703,-0.605 0.767,-0.99 1.209,-1.65m19.031,-21.377c-0.098,-0.159 -0.045,-0.16 -0.296,-0.477c-0.251,-0.317 -0.832,-0.885 -1.519,-0.751c-0.687,0.134 -1.13,0.69 -1.3,1.263c-0.17,0.573 -0.236,0.474 -0.314,1.534c-0.079,1.061 -0.231,2.813 -0.268,4.812c-0.037,1.999 -0.014,5.781 -0.011,7.184c0.003,1.403 0.014,0.821 0.072,1.231c0.058,0.41 0.287,0.899 0.685,0.888c0.397,-0.011 0.59,-0.058 0.886,-0.542c0.296,-0.485 0.507,-0.679 1.094,-2.205c0.587,-1.526 1.33,-4.958 1.476,-7.118c0.146,-2.16 0.278,-3.818 -0.504,-5.819m2.304,136.044c0.346,-0.179 0.713,-0.171 1.014,-0.557c0.301,-0.386 0.201,0.613 0.908,-1.655c0.707,-2.268 1.334,-9.698 1.16,-12.083c-0.174,-2.384 -0.385,-1.416 -0.66,-1.999c-0.275,-0.583 -0.76,-0.825 -1.388,-0.754c-0.628,0.071 -1.039,0.479 -1.22,1.023c-0.181,0.544 -0.058,-0.781 -0.352,1.637c-0.294,2.418 -0.267,10.451 -0.274,12.88c-0.007,2.428 0.102,1.129 0.812,1.507m24.198,-173.19c0.626,0.248 1.142,-0.035 1.465,-0.492c0.323,-0.457 0.466,-0.447 0.736,-1.372c0.27,-0.925 0.795,-2.617 1.04,-4.123c0.245,-1.506 0.424,-3.533 0.461,-4.904c0.037,-1.371 -0.189,-2.424 -0.352,-3.32c-0.163,-0.896 -0.661,-1.211 -1.392,-1.247c-0.731,-0.036 -1.197,0.353 -1.464,1.16c-0.267,0.807 -0.343,0.394 -0.548,2.396c-0.205,2.003 -0.704,7.576 -0.876,9.597c-0.171,2.02 0.056,1.65 0.93,2.304m-13.147,26.815c-2.105,-0.111 -2.525,1.172 -2.31,2.57c0.215,1.397 0.216,0.416 0.283,2.115c0.068,1.698 0.199,6.377 0.259,8.077c0.06,1.7 0.12,1.558 0.198,2.119c0.078,0.561 0.228,0.817 0.717,0.893c0.489,0.077 0.721,-0.017 0.981,-0.602c0.26,-0.585 0.647,-0.874 0.919,-2.392c0.272,-1.518 0.796,-4.887 0.938,-6.666c0.142,-1.779 -0.131,-2.899 -0.291,-4.012c-0.161,-1.113 -0.534,-1.727 -1.694,-2.101m44.343,67.071c0.22,-3.131 0.539,-6.859 0.629,-9.393c0.09,-2.535 -0.166,-4.575 -0.243,-5.82c-0.077,-1.246 -0.205,-1.141 -0.356,-1.64c-0.152,-0.499 -0.345,-0.974 -0.924,-0.998c-0.579,-0.024 -0.838,0.55 -1.026,0.912c-0.188,0.363 -0.262,0.469 -0.344,0.945c-0.082,0.476 -0.235,0.338 -0.211,1.885c0.024,1.547 0.087,5.008 0.201,7.397c0.113,2.388 0.364,5.465 0.481,6.935c0.117,1.469 0.218,1.404 0.333,1.876c0.115,0.472 -0.314,1.653 0.546,1.187c0.86,-0.466 0.644,-2.154 0.915,-3.286m-13.735,52.395c-0.076,-1.719 -0.11,-3.232 -0.232,-5.153c-0.121,-1.921 -0.336,-4.873 -0.502,-6.371c-0.165,-1.498 -0.457,-1.921 -0.72,-2.585c-0.263,-0.664 -0.525,-0.928 -0.976,-1.334c-0.451,-0.406 -1.168,-0.105 -1.381,0.328c-0.213,0.433 -0.201,0.249 -0.207,0.861c-0.007,0.612 -0.123,1.13 0.052,2.803c0.174,1.673 0.583,4.958 0.862,7.245c0.279,2.287 0.981,5.124 1.427,6.34c0.446,1.215 0.251,0.705 0.556,1.088c0.304,0.384 0.888,0.192 1.013,-0.203c0.125,-0.396 0.088,-0.308 0.098,-0.775c0.009,-0.467 0.008,-1.347 0.011,-2.243m-49.026,-22.918c-0.125,-0.846 -0.101,-1.629 -0.403,-2.528c-0.302,-0.899 -1.636,-0.987 -2.177,-0.474c-0.541,0.512 -0.546,0.504 -0.763,1.09c-0.218,0.586 -0.394,0.499 -0.661,2.368c-0.267,1.868 -0.527,7.217 -0.48,8.846c0.047,1.629 -0.068,0.186 0.091,0.891c0.159,0.705 1.35,1.265 1.991,0.66c0.641,-0.605 0.394,0.176 1.006,-1.576c0.611,-1.752 1.339,-5.976 1.396,-9.275m-84.502,-51.493c0.294,-0.552 0.293,0.49 0.862,-1.656c0.569,-2.146 1.412,-9.249 1.323,-11.318c-0.089,-2.069 0.001,-0.466 -0.106,-0.888c-0.107,-0.422 -0.371,-1.103 -1,-1.227c-0.63,-0.123 -1.177,0.283 -1.472,0.633c-0.295,0.35 -0.327,0.319 -0.512,0.861c-0.186,0.542 -0.522,1.084 -0.686,2.356c-0.164,1.271 -0.387,4.091 -0.476,5.244c-0.089,1.153 -0.075,0.846 0.007,1.681c0.082,0.835 0.224,2.316 0.431,3.328c0.207,1.011 0.561,1.122 1.629,0.987m24.695,-9.675c0.047,-0.446 0.037,-0.27 0.144,-1.338c0.106,-1.067 -0.108,-3.901 -0.416,-4.995c-0.308,-1.094 -0.432,-1.059 -1.114,-1.116c-0.682,-0.057 -1.109,0.323 -1.353,0.977c-0.244,0.654 -0.247,0.326 -0.618,2.261c-0.371,1.935 -0.491,7.486 -0.449,9.385c0.043,1.9 0.121,1.269 0.355,1.975c0.234,0.706 1.145,0.809 1.587,0.339c0.443,-0.47 0.281,-0.049 0.717,-1.246c0.436,-1.196 0.995,-3.98 1.147,-6.243m100.853,-0.605c0.316,1.464 0.71,3.387 0.957,4.39c0.247,1.004 0.486,1.43 1.019,1.461c0.533,0.031 0.281,-0.202 0.355,-0.664c0.075,-0.462 0.251,-0.94 0.233,-2.116c-0.018,-1.176 -0.127,-3.218 -0.202,-4.937c-0.075,-1.719 -0.112,-3.819 -0.253,-5.381c-0.142,-1.562 -0.439,-2.973 -0.69,-3.977c-0.251,-1.004 -0.6,-1.422 -0.995,-1.987c-0.395,-0.565 -1.023,-0.335 -1.274,0.126c-0.251,0.461 -0.3,0.639 -0.34,1.172c-0.04,0.533 -0.207,0.068 0.012,2.018c0.219,1.95 0.759,6.467 1.178,9.894m-20.854,16.922c0.087,-1.903 0.224,-4.353 0.244,-5.713c0.02,-1.36 -0.123,-1.537 -0.302,-2.449c-0.179,-0.912 -0.632,-1.921 -1.548,-2.516c-0.916,-0.595 -1.887,0.049 -2.056,0.82c-0.169,0.771 -0.274,-0.634 -0.073,1.45c0.201,2.084 0.668,9.127 0.648,11.094c-0.02,1.967 0.003,0.348 0.064,0.668c0.061,0.32 0.221,0.816 0.694,0.933c0.473,0.117 0.776,-0.156 1.021,-0.535c0.245,-0.38 0.485,-0.683 0.685,-1.281c0.199,-0.598 0.401,-1.515 0.625,-2.471m-63.607,53.793c-0.102,-1.079 -0.201,-2.39 -0.316,-3.234c-0.115,-0.844 -0.43,-1.16 -1.088,-1.261c-0.659,-0.1 -1.204,0.279 -1.506,0.942c-0.302,0.663 -0.245,0.085 -0.64,1.908c-0.394,1.823 -0.483,7.339 -0.415,9.057c0.068,1.718 0.14,0.87 0.234,1.209c0.094,0.34 0.081,0.401 0.359,0.816c0.279,0.415 1.13,0.584 1.532,0.207c0.402,-0.376 0.491,-0.511 0.668,-1.013c0.178,-0.502 0.326,-0.546 0.492,-1.953c0.166,-1.408 0.451,-4.313 0.679,-6.68m80.185,23.721c0.53,-1.061 0.749,-1.848 0.771,-3.37c0.022,-1.522 0.052,-4.032 -0.016,-5.62c-0.068,-1.587 -0.312,-2.954 -0.492,-3.896c-0.18,-0.942 -0.216,-0.984 -0.793,-1.698c-0.577,-0.714 -1.944,-0.514 -2.22,0.446c-0.277,0.96 -0.466,0.064 -0.226,2.325c0.239,2.261 1.076,9.242 1.322,11.267c0.245,2.024 0.056,0.49 0.222,0.866c0.167,0.376 0.685,0.453 0.988,0.247c0.303,-0.206 0.241,-0.281 0.445,-0.567m9.106,-173.014c0,1.495 0.001,3.569 0.004,4.484c0.003,0.915 -0.035,0.705 0.066,0.999c0.101,0.294 0.346,0.632 0.565,0.72c0.219,0.088 0.518,0.007 0.754,-0.314c0.236,-0.322 0.213,0.015 0.8,-1.463c0.587,-1.477 1.072,-5.652 1.155,-7.604c0.083,-1.952 -0.159,-3.045 -0.285,-4.014c-0.125,-0.968 -0.379,-1.263 -0.653,-1.757c-0.274,-0.494 -0.74,-0.61 -1.273,-0.515c-0.533,0.095 -0.876,0.472 -0.983,0.958c-0.107,0.486 -0.133,0.063 -0.142,1.444c-0.009,1.381 -0.008,4.558 -0.008,7.062m-33.365,18.806c-0.117,1.269 -0.278,2.985 -0.34,3.803c-0.062,0.819 -0.064,0.543 0.06,1.118c0.124,0.575 0.904,0.964 1.418,0.527c0.514,-0.437 0.182,0.266 1.013,-1.32c0.831,-1.586 1.845,-6.772 1.971,-8.588c0.126,-1.816 0.006,-1.397 -0.054,-2.02c-0.06,-0.622 -0.25,-1.135 -0.895,-1.299c-0.645,-0.164 -0.924,0.042 -1.427,0.682c-0.503,0.64 -0.967,1.589 -1.167,2.773c-0.2,1.184 -0.371,2.745 -0.577,4.323m19.818,62.467c-0.152,-1.227 -0.293,-2.731 -0.48,-3.673c-0.187,-0.942 -0.316,-1.261 -0.819,-1.932c-0.503,-0.671 -1.545,-0.556 -1.799,0.325c-0.254,0.881 -0.535,0.33 -0.313,2.533c0.222,2.203 1.014,8.764 1.25,10.716c0.236,1.952 0.103,0.727 0.211,0.985c0.108,0.258 0.31,0.486 0.5,0.504c0.19,0.018 0.429,0.035 0.599,-0.388c0.17,-0.423 0.367,-0.542 0.645,-2.021c0.279,-1.479 0.248,-4.557 0.205,-7.051m20.541,-16.321c-0.169,-1.106 -0.326,-2.35 -0.52,-3.313c-0.195,-0.962 -0.821,-1.621 -1.327,-2.033c-0.506,-0.412 -0.725,-0.58 -1.223,-0.323c-0.498,0.258 -0.515,0.863 -0.462,1.278c0.053,0.415 -0.033,-0.243 0.198,0.99c0.231,1.233 0.907,4.76 1.189,6.4c0.282,1.64 0.333,2.67 0.454,3.45c0.121,0.779 0.002,1.04 0.577,1.082c0.575,0.042 0.442,0.268 0.717,-0.984c0.275,-1.252 0.737,-4.197 0.397,-6.547m-89.409,-0.629c0,0 -0.001,-0.008 0,0" style="fill:#080605;fill-rule:nonzero;"/><path id="path59" d="M917.62,160.02c-2.321,-0.012 -4.641,0.157 -6.961,0.208c-4.156,0.094 -8.316,0.143 -12.472,0.244c-1.609,0.041 -3.217,0.126 -4.821,0.259c-3.059,0.256 -6.122,0.519 -9.174,0.862c-5.025,0.565 -10.052,1.112 -15.058,1.825c-5.118,0.729 -10.244,1.496 -15.309,2.522c-6.166,1.251 -12.294,2.705 -18.399,4.231c-4.141,1.036 -8.242,2.266 -12.314,3.556c-6.181,1.957 -12.261,4.189 -18.212,6.782c-5.195,2.262 -10.245,4.8 -15.144,7.644c-3.893,2.261 -7.64,4.751 -11.243,7.45c-3.692,2.765 -7.252,5.688 -10.546,8.916c-1.79,1.753 -3.474,3.626 -5.094,5.539c-4.243,5.011 -7.763,10.469 -9.986,16.696c-1.334,3.737 -2.101,7.585 -2.162,11.552c-0.075,4.899 0.949,9.598 2.701,14.153c2.066,5.37 5.091,10.179 8.707,14.62c1.346,1.655 2.768,3.255 4.246,4.792c1.658,1.727 3.408,3.366 5.151,5.007c0.34,0.32 0.822,0.543 1.279,0.668c0.311,0.084 0.828,0.037 0.999,-0.165c0.178,-0.211 0.175,-0.746 0.029,-1.02c-1.26,-3.289 -3.304,-7.318 2.17,-1.185c2.879,2.592 6.008,4.853 9.232,6.976c7.442,4.899 15.385,8.864 23.535,12.414c7.737,3.371 15.691,6.14 23.794,8.513c9.902,2.901 19.936,5.244 30.08,7.098c5.898,1.076 11.804,2.089 17.766,2.752c2.978,0.331 5.959,0.64 8.944,0.912c2.199,0.201 4.405,0.343 6.609,0.481c3.512,0.221 7.017,0.56 10.532,0.596c7.376,0.079 14.759,0.171 22.127,-0.388c3.547,-0.27 7.108,-0.368 10.647,-0.697c19.163,-1.211 11.063,5.265 11.353,5.246c2.654,-0.157 9.954,-1.652 12.589,-1.97c5.727,-0.691 9.896,-1.731 15.417,-3.124c4.599,-1.519 7.692,-1.86 13.637,-3.759c7.322,-2.358 13.528,-4.439 20.182,-6.768c1.804,-0.632 3.614,-1.248 5.388,-1.954c4.595,-1.829 9.236,-3.555 13.736,-5.596c5.526,-2.508 10.881,-5.365 15.999,-8.664c7.471,-4.815 14.378,-10.273 20.288,-16.955c4.306,-4.87 8.44,-10.834 10.209,-16.286c2.135,-5.74 2.829,-11.616 1.961,-17.68c-0.764,-5.335 -2.609,-10.286 -5.173,-15c-2.794,-5.14 -6.316,-9.744 -10.388,-13.923c-1.673,-1.715 -3.449,-3.327 -5.18,-4.986c-2.523,-2.418 -5.304,-4.521 -8.132,-6.552c-4.63,-3.325 -9.436,-6.365 -14.469,-9.059c-4.797,-2.567 -9.699,-4.904 -14.706,-7.019c-5.94,-2.509 -12.006,-4.673 -18.14,-6.667c-7.351,-2.388 -14.816,-4.353 -22.35,-6.042c-9.988,-2.241 -20.09,-3.868 -30.252,-5.122c-7.219,-0.891 -14.46,-1.395 -21.718,-1.695c-3.966,-0.165 -7.935,-0.215 -11.904,-0.237l-0,-0l-0,0Zm-5.029,6.516c3.972,-0.039 7.947,-0.041 11.918,0c2.958,0.031 5.92,0.087 8.872,0.251c5.461,0.304 10.901,0.872 16.315,1.652c4.634,0.667 9.274,1.333 13.887,2.141c7.755,1.358 15.423,3.123 23.018,5.201c2.89,0.79 5.767,1.641 8.65,2.464c6.425,2.037 12.651,4.103 18.707,6.624c4.183,1.74 8.321,3.609 12.393,5.596c7.511,3.664 14.426,8.282 20.827,13.643c3.619,3.032 6.999,6.326 10.209,9.799c2.289,2.479 4.542,4.98 6.523,7.716c2.932,4.046 5.164,8.414 6.171,13.362c0.843,4.144 0.751,8.256 -0.158,12.378c-0.961,4.361 -2.914,8.251 -5.474,11.861c-2.22,3.13 -4.817,5.897 -7.68,8.463c-5.834,5.235 -12.274,9.592 -19.088,13.42c-6.279,3.524 -12.752,6.651 -19.368,9.497c-5.925,2.547 -11.895,4.95 -18.032,6.933c-8.672,2.799 -17.46,5.191 -26.38,7.062c-5.06,1.061 -10.132,2.059 -15.216,2.996c-5.605,1.032 -11.27,1.663 -16.94,2.198c-2.983,0.282 -5.958,0.583 -8.944,0.833c-1.602,0.134 -3.219,0.234 -4.828,0.259c-6.59,0.1 -13.178,0.216 -19.771,0.216c-3.066,0 -6.135,-0.244 -9.203,-0.388c-1.532,-0.072 -3.066,-0.148 -4.598,-0.244c-2.353,-0.148 -4.707,-0.26 -7.055,-0.481c-3.99,-0.375 -7.987,-0.717 -11.954,-1.264c-5.715,-0.789 -11.43,-1.64 -17.105,-2.672c-5.194,-0.947 -10.358,-2.078 -15.496,-3.298c-8.901,-2.115 -17.659,-4.72 -26.244,-7.91c-5.311,-1.972 -10.506,-4.208 -15.604,-6.66c-4.086,-1.964 -8.056,-4.15 -11.861,-6.631c-3.457,-2.253 -6.831,-4.615 -9.986,-7.278c-2.924,-2.467 -5.641,-5.147 -8.19,-8.003c-2.075,-2.326 -4.007,-4.758 -5.683,-7.385c-2.608,-4.089 -4.828,-8.352 -6.142,-13.068c-1.202,-4.309 -1.199,-8.569 -0.036,-12.867c1.441,-5.326 4.078,-10.034 7.285,-14.476c3.221,-4.462 7.037,-8.383 11.049,-12.098c4.656,-4.31 9.786,-8.025 15.223,-11.308c5.88,-3.549 11.994,-6.645 18.32,-9.318c11.726,-4.954 23.72,-9.101 36.129,-11.969c7.34,-1.696 14.751,-3.084 22.221,-4.095c3.898,-0.529 7.795,-1.06 11.703,-1.501c2.94,-0.331 5.894,-0.546 8.844,-0.769c3.172,-0.239 6.344,-0.423 9.519,-0.632c0.149,-0.009 0.302,-0.019 0.453,-0.022c4.268,-0.08 8.532,-0.188 12.802,-0.23l0,0l-0,0Z" style="fill:#080605;fill-rule:nonzero;stroke:#000;stroke-width:2.81px;stroke-linecap:butt;stroke-miterlimit:2;"/><path id="path69" d="M839.317,244.338c3.809,1.044 7.532,2.058 11.249,3.092c0.769,0.214 1.458,0.141 2.162,-0.241c4.544,-2.463 9.095,-4.915 13.65,-7.362c1.552,-0.832 3.103,-1.666 4.674,-2.462c8.293,-4.195 16.562,-8.436 24.898,-12.541c5.209,-2.566 10.513,-4.935 15.793,-7.351c1.463,-0.668 2.989,-1.202 4.5,-1.762c0.45,-0.167 0.946,-0.287 1.422,-0.291c1.128,-0.008 1.666,0.946 1.128,1.932c-0.457,0.836 -1.05,1.517 -1.919,1.984c-2.409,1.297 -4.816,2.598 -7.174,3.98c-5.238,3.067 -10.438,6.199 -15.665,9.281c-4.874,2.875 -9.732,5.777 -14.658,8.558c-3.619,2.044 -7.324,3.939 -11.016,5.852c-1.961,1.015 -3.982,1.919 -5.965,2.893c-0.381,0.187 -0.713,0.469 -1.262,0.838c0.577,0.323 0.933,0.58 1.327,0.731c5.389,2.06 10.795,4.08 16.176,6.166c3.633,1.41 7.245,2.874 10.837,4.385c1.102,0.462 2.007,0.468 3.058,-0.168c4.588,-2.769 9.202,-5.492 13.834,-8.19c8.839,-5.147 17.69,-10.276 26.556,-15.376c1.327,-0.763 2.767,-1.332 4.159,-1.982c0.201,-0.094 0.423,-0.159 0.641,-0.198c0.705,-0.127 1.21,0.066 1.45,0.568c0.27,0.568 0.178,1.118 -0.245,1.56c-0.335,0.35 -0.718,0.667 -1.125,0.927c-2.304,1.468 -4.587,2.977 -6.944,4.359c-6.173,3.62 -12.389,7.168 -18.573,10.772c-5.212,3.038 -10.402,6.112 -15.597,9.179c-0.401,0.237 -0.762,0.546 -1.136,0.817c0.275,0.691 0.832,0.777 1.292,0.988c6.678,3.062 13.233,6.369 19.622,9.999c0.682,0.386 1.35,0.823 1.946,1.328c1.004,0.847 0.789,1.865 -0.45,2.299c-0.76,0.267 -1.513,0.309 -2.302,0c-3.765,-1.48 -7.536,-2.944 -11.317,-4.384c-4.762,-1.814 -9.547,-3.572 -14.297,-5.415c-1.189,-0.461 -2.185,-0.438 -3.284,0.252c-6.601,4.141 -13.221,8.255 -19.855,12.344c-1.178,0.724 -2.449,1.294 -3.679,1.934c-0.065,0.035 -0.137,0.058 -0.207,0.083c-0.9,0.302 -1.608,0.148 -1.911,-0.416c-0.302,-0.561 -0.14,-1.379 0.53,-1.907c1.526,-1.205 3.032,-2.46 4.67,-3.497c5.381,-3.409 10.818,-6.729 16.233,-10.083c0.095,-0.06 0.194,-0.114 0.286,-0.179c0.785,-0.561 0.763,-0.939 -0.16,-1.309c-2.19,-0.88 -4.401,-1.708 -6.602,-2.566c-6.039,-2.354 -12.077,-4.713 -18.116,-7.069c-1.397,-0.545 -2.803,-1.065 -4.188,-1.637c-0.896,-0.369 -1.728,-0.358 -2.586,0.108c-3.162,1.715 -6.337,3.405 -9.499,5.118c-0.274,0.149 -0.495,0.398 -0.903,0.735c0.499,0.247 0.804,0.435 1.132,0.557c5.266,1.964 10.544,3.898 15.798,5.895c1.22,0.464 2.365,1.128 3.542,1.702c0.1,0.049 0.191,0.118 0.282,0.184c0.736,0.526 0.992,1.087 0.778,1.694c-0.232,0.659 -0.827,0.939 -1.769,0.794c-2.09,-0.321 -4.049,-1.075 -6.016,-1.811c-5.582,-2.087 -11.176,-4.134 -16.744,-6.253c-1.042,-0.397 -1.907,-0.352 -2.874,0.182c-5.014,2.776 -10.266,5.103 -15.171,8.092c-1.238,0.755 -2.613,1.294 -3.953,1.866c-0.466,0.198 -1.021,0.274 -1.53,0.255c-0.814,-0.031 -1.408,-0.499 -1.707,-1.261c-0.293,-0.744 0.1,-1.3 0.596,-1.799c0.131,-0.133 0.277,-0.255 0.425,-0.367c2.799,-2.133 5.566,-4.305 8.639,-6.055c1.855,-1.056 3.644,-2.226 5.458,-3.353c0.302,-0.19 0.573,-0.428 1.04,-0.781c-0.493,-0.268 -0.786,-0.472 -1.11,-0.598c-5.141,-1.974 -10.296,-3.917 -15.425,-5.923c-1.073,-0.422 -2.058,-1.064 -3.077,-1.617c-0.161,-0.085 -0.307,-0.221 -0.425,-0.362c-0.674,-0.801 -0.301,-1.956 0.731,-2.018c0.879,-0.053 1.815,0.027 2.652,0.285c1.753,0.539 3.464,1.213 5.179,1.866c4.657,1.774 9.315,3.549 13.956,5.364c1.204,0.472 2.237,0.474 3.397,-0.229c2.785,-1.69 5.654,-3.244 8.481,-4.869c0.404,-0.232 0.755,-0.552 1.301,-0.956c-0.465,-0.247 -0.732,-0.423 -1.023,-0.538c-2.445,-0.952 -4.904,-1.864 -7.337,-2.844c-2.743,-1.107 -5.465,-2.269 -8.194,-3.414c-0.24,-0.1 -0.474,-0.233 -0.679,-0.392c-0.676,-0.525 -0.92,-1.282 -0.664,-1.986c0.285,-0.782 0.958,-1.246 1.876,-1.072c0.95,0.179 1.892,0.472 2.795,0.824c1.643,0.638 3.268,1.262 5.055,1.449c1.03,0.106 2.03,0.514 3.131,0.811l0,-0l0,0Z" style="fill:#080605;fill-rule:nonzero;stroke:#000;stroke-width:5.59px;stroke-linecap:butt;stroke-miterlimit:2;"/><path id="path70" d="M799.816,249.584c-1.012,1.105 -2.258,1.422 -3.608,1.471c-0.546,0.02 -1.058,-0.073 -1.365,-0.595c-0.31,-0.529 -0.158,-1.046 0.178,-1.469c0.438,-0.55 0.881,-1.145 1.449,-1.538c4.065,-2.81 8.094,-5.685 12.272,-8.324c4.083,-2.578 8.317,-4.916 12.503,-7.332c3.635,-2.096 7.256,-4.214 10.947,-6.207c3.128,-1.69 6.311,-3.288 9.533,-4.796c4.172,-1.952 8.419,-3.742 12.604,-5.664c2.926,-1.343 5.789,-2.821 8.71,-4.173c0.801,-0.37 1.7,-0.567 2.575,-0.727c0.889,-0.164 1.395,0.102 1.629,0.653c0.239,0.557 0.076,1.125 -0.58,1.673c-1.56,1.299 -3.202,2.498 -5.076,3.29c-4.115,1.738 -8,3.924 -11.946,5.994c-2.853,1.496 -5.702,2.997 -8.541,4.519c-4.556,2.443 -9.105,4.893 -13.648,7.359c-4.213,2.287 -8.441,4.549 -12.612,6.909c-4.368,2.472 -8.683,5.038 -13.011,7.581c-0.677,0.397 -1.302,0.881 -2.014,1.377l-0,0Z" style="fill:#080605;fill-rule:nonzero;stroke:#000;stroke-width:2.81px;stroke-linecap:butt;stroke-miterlimit:2;"/><path id="path74" d="M935.636,274.989c3.326,-1.885 6.575,-3.74 9.841,-5.57c0.552,-0.308 1.151,-0.544 1.75,-0.752c0.713,-0.251 1.263,-0.07 1.583,0.439c0.314,0.496 0.241,1.121 -0.24,1.646c-0.251,0.272 -0.542,0.522 -0.851,0.727c-2.566,1.682 -5.105,3.405 -7.717,5.011c-2.87,1.763 -5.781,3.461 -8.724,5.098c-1.763,0.981 -3.611,1.811 -5.438,2.673c-0.927,0.435 -1.601,0.26 -1.963,-0.403c-0.355,-0.651 -0.168,-1.376 0.655,-1.918c2.624,-1.728 5.27,-3.424 7.927,-5.105c1.011,-0.64 2.068,-1.206 3.177,-1.846l-0,-0Z" style="fill:#080605;fill-rule:nonzero;stroke:#000;stroke-width:5.59px;stroke-linecap:butt;stroke-miterlimit:2;"/><path id="path76" d="M990.447,181.468c-27.926,-8.484 -86.197,-13.364 -88.646,-3.692c-1.333,5.265 46.249,6.592 81.463,20.019c36.517,13.924 54.523,38.022 60.588,33.018c7.022,-5.79 -10.728,-36.379 -53.406,-49.344Z" style="fill:#fffcca;"/></g></g><defs><linearGradient id="_Linear2" x1="0" y1="0" x2="1" y2="0" gradientUnits="userSpaceOnUse" gradientTransform="matrix(-0.077852,-623.22251,623.22251,-0.077852,621.924223,646.823037)"><stop offset="0" style="stop-color:#b0c37c;stop-opacity:1"/><stop offset="1" style="stop-color:#fff;stop-opacity:1"/></linearGradient></defs></svg>