<?xml version="1.0" encoding="UTF-8" standalone="no"?><!DOCTYPE svg PUBLIC "-//W3C//DTD SVG 1.1//EN" "http://www.w3.org/Graphics/SVG/1.1/DTD/svg11.dtd"><svg width="100%" height="100%" viewBox="0 0 278267 150075" version="1.1" xmlns="http://www.w3.org/2000/svg" xmlns:xlink="http://www.w3.org/1999/xlink" xml:space="preserve" xmlns:serif="http://www.serif.com/" style="fill-rule:evenodd;clip-rule:evenodd;stroke-linecap:round;stroke-linejoin:round;stroke-miterlimit:1.5;"><path id="U1-muscle" d="M252758.9,5279.775c11158.175,0 20203.5,8921 20203.5,19925.825l0,99627.758c0,11004.817 -9045.325,19925.825 -20203.5,19925.825l-227285.967,0c-11158.175,0 -20203.5,-8921 -20203.5,-19925.825l0,-99627.758c0,-11004.817 9045.325,-19925.825 20203.5,-19925.825l227285.967,0Z" style="fill:url(#_Linear1);stroke:#000;stroke-width:10573.25px;"/><g id="g11"><path id="path24" d="M191417.417,28362.225l1539.35,422.783l563.708,1300.858l455.3,1539.35l1528.508,2623.4l1983.808,1723.642l2287.35,1528.508c0,0 563.708,672.108 1235.817,1983.808c672.108,1311.7 1040.692,2395.75 1040.692,2395.75c0,0 271.017,1344.225 303.533,2395.75c0,1051.525 -184.292,4151.917 -184.292,4151.917l-108.408,4683.1l-336.058,2428.275l411.942,1767l-195.125,3403.917l-1040.692,2471.633l-3371.4,3436.442l-3067.858,1420.108l-1344.225,1355.067l888.925,5951.433l3739.975,4422.925l-2742.65,867.242l-1062.367,1149.092l1441.783,6948.758l-3089.542,-292.692l-5691.267,-4672.258l-4607.217,-1235.817l2991.975,5420.25l2851.05,7642.558l2547.517,3739.975l-4119.392,336.058c0,0 -3479.8,-3555.683 -3523.167,-3815.858c0,-260.175 -628.75,-5127.558 -628.75,-5127.558l0,-4758.983c0,-140.925 -1387.583,-7404.067 -1387.583,-7404.067l-3891.742,-8054.492l-2547.517,-7187.25l-2916.092,2363.233l-4943.267,7707.6l-6547.667,6439.258l715.475,1311.7l1311.7,2428.275l964.808,2059.692l2363.233,6851.2l3143.742,3815.858l5203.442,5170.917l3664.092,2916.092l6179.083,4455.45l-672.108,7414.9l-9658.892,-4314.517l-15946.383,-9723.933c0,0 -11263.283,-9919.058 -11675.225,-10331c-411.942,-411.942 -2547.517,-5723.783 -2547.517,-5951.433c0,-227.65 336.058,-3371.4 336.058,-3371.4c0,0 1159.933,-6244.133 1235.817,-6471.783c108.408,-227.65 1951.292,-4010.983 1951.292,-4010.983l-108.408,-5008.308l1376.742,-4422.925l2395.75,-3555.683l5539.5,-5203.442c0,0 379.417,-7068.008 455.3,-7295.658c108.408,-227.65 2135.575,-4867.383 2135.575,-4867.383l4412.083,-4260.317l4899.908,-2103.058l4834.867,-780.517l2092.217,-487.825l2243.983,-1951.292l4607.217,-2612.558l4271.158,-1279.183l4260.317,-552.867l1550.192,661.267l0.025,-0Z" style="fill:#8e677b;"/><path id="path24-8" d="M214822.675,28183.275l-867.767,751.808l-927.567,1064.683l-443.967,1539.35l-1490.475,2623.4l-1934.442,1723.642l-2534.783,1753.475c0,0 -417.342,844.142 -1072.725,2155.842c-655.383,1311.7 -842.758,1998.758 -842.758,1998.758c0,0 -264.267,1344.225 -295.975,2395.75c0,1051.525 179.7,4151.908 179.7,4151.908l105.708,4683.1l327.7,2428.275l-401.692,1767l190.275,3403.917l1014.792,2471.633l3287.5,3436.442l2991.508,1420.1l1310.775,1355.067l-866.8,5951.433l-2090.875,3494.042l2629.983,581.992l-975.475,3573.05l-1301.467,4989.483c827.65,1127.483 2145.108,2007.842 2070.958,2748.842l6039.758,-6964.342l5339.475,-1235.817l-2917.517,5420.25l-3362.35,6689.775l-2695.85,5963.125l4810.858,-934.317c0,0 3393.2,-3555.683 3435.483,-3815.858c0,-260.175 613.108,-5127.558 613.108,-5127.558l0,-4758.983c0,-140.925 1353.05,-7404.067 1353.05,-7404.067l3794.883,-8054.492l2484.125,-7187.25l2843.525,2363.233l4820.25,7707.6l7549.225,6386.325l-1332.85,1788.092l-1808.375,2004.817l-702.6,2139.092l-2542.608,6771.8l-2456.792,4530.442l-5550.333,4721l-3705.233,2651.433l-6025.317,4455.442l655.383,7414.9l9418.517,-4314.517l15549.533,-9723.933c0,0 10982.975,-9919.058 11384.667,-10331c401.692,-411.942 2484.117,-5723.792 2484.117,-5951.442c0,-227.65 -327.692,-3371.4 -327.692,-3371.4c0,0 -1131.067,-6244.125 -1205.067,-6471.775c-105.708,-227.65 -685.283,-3984.517 -685.283,-3984.517l-1111.733,-5034.783l-1342.483,-4422.925l-2336.133,-3555.683l-5401.642,-5203.442c0,0 265.208,-7120.942 191.217,-7348.592c-105.708,-227.65 -2003.033,-4814.458 -2003.033,-4814.458l-4381.683,-4472.042l-4486.842,-1917.792l-5640.85,-754.05l-1815.575,-824.683l-2150.708,-1689.292l-4754.558,-2537.7l-4164.858,-1279.183l-4154.292,-552.867l-1767,568.425l-0.05,0.017Z" style="fill:#526a7b;"/><path id="path1-8" d="M202079.392,75092.092c11.733,1514.358 -6.433,3028.725 7.192,4543.083c10.6,1197.858 9.083,2398.75 86.7,3593.2c147.275,2268.517 142.35,4537.783 132.883,6807.817c-1.517,350.575 -49.975,704.175 -109.792,1050.967c-58.3,338.083 -173.775,434.242 -521.317,413.417c-376.317,-23.092 -753.775,-73.825 -1122.9,-150.675c-859.775,-178.692 -1651.792,-541.383 -2426.383,-944.583c-163.55,-85.183 -338.458,-147.65 -515.642,-223.75c-107.9,194.217 -4.167,310.442 78.75,404.333c341.867,385.783 669.35,791.25 1053.242,1131.225c413.8,365.717 888.933,661.775 1330.367,996.825c633,480.433 1266.767,960.108 1886.142,1457.575c254.417,204.058 481.192,225.642 757.183,57.925c1240.642,-752.258 2501.725,-1471.583 3724.575,-2251.858c1080.5,-689.417 1932.325,-1615.067 2523.683,-2763.708c47.7,-92.375 76.85,-194.217 126.825,-322.942c-213.525,-3.025 -262.367,130.617 -342.242,216.933c-508.067,545.925 -1026.733,1078.983 -1670.717,1470.825c-643.983,391.842 -1325.067,672.758 -2083.008,749.992c-485.733,49.592 -711.375,-114.333 -772.7,-598.55c-18.933,-149.925 -18.175,-302.492 -18.175,-453.55c-0.758,-5325.633 -2.275,-10650.883 3.025,-15976.517c0,-377.075 44.292,-754.908 78.75,-1131.225c-68.525,-1096.125 -69.492,-2067.042 -36.725,-2920.45c-132.883,-1047.183 122.283,-1978.133 746.583,-2811.792c241.542,-322.183 513.75,-622.783 785.575,-920.733c201.792,-221.1 341.867,-216.175 540.625,-6.817c780.65,823.433 1559.033,1649.517 2339.692,2473.333c893.475,942.692 1783.158,1888.792 2685.342,2822.767c223.367,231.317 488,422.508 740.525,638.3c191.192,-194.592 124.558,-373.667 81.775,-534.95c-191.192,-718.942 -384.65,-1437.508 -595.142,-2151.15c-136.675,-463.017 -88.208,-535.325 394.492,-485.35c112.442,11.358 225.258,20.825 338.083,26.5c21.583,1.133 43.917,-20.825 82.908,-40.892c10.6,-157.492 -117.742,-236.242 -216.175,-318.392c-1066.492,-891.958 -2170.842,-1728.642 -3428.892,-2341.958c-971.842,-473.617 -1835.783,-1108.133 -2627.8,-1837.3c-444.467,-408.5 -867.35,-841.983 -1278.875,-1283.8c-471.725,-506.55 -746.958,-1094.125 -714.775,-1813.825c26.883,-604.608 12.492,-1211.492 3.025,-1817.233c-21.583,-1386.775 -48.842,-2773.55 -78.75,-4160.708c-18.55,-869.242 -68.525,-1738.867 -65.117,-2608.108c4.925,-1197.858 29.908,-2396.1 77.992,-3592.825c58.683,-1473.475 152.192,-2945.433 225.642,-4418.533c40.133,-796.558 403.2,-1400.408 1018.033,-1901.283c782.55,-636.792 1675.642,-1022.95 2632.717,-1284.933c1002.883,-274.858 2027.733,-441.817 3066.2,-408.117c1506.408,48.842 2993.133,244.567 4399.6,837.817c240.408,101.458 488,198.383 650.042,434.242c-98.433,186.642 -279.4,187.025 -430.833,205.95c-550.092,69.283 -1101.7,133.267 -1654.442,175.283c-1269.792,96.158 -2545.642,133.642 -3796.508,399.033c-1204.3,255.167 -2355.208,662.533 -3434.192,1261.083c-87.833,48.458 -169.608,109.033 -249.492,169.983c-26.125,20.067 -37.858,59.442 -69.658,112.817c175.667,52.625 303.25,-43.917 434.242,-92.758c947.608,-353.225 1900.525,-695.467 2910.983,-809.425c838.575,-94.267 1681.7,-168.475 2524.817,-196.108c1008.567,-33.317 2019.4,-26.883 3028.342,-2.65c994.933,23.85 1988.733,93.508 2983.292,140.075c1225.117,57.167 2435.475,230.558 3639.392,456.2c122.667,23.092 243.433,55.275 383.892,87.075c-1897.492,269.558 -3769.625,557.667 -5647.808,795.8c-1886.892,239.267 -3780.225,428.567 -5670.525,639.817c-1.133,27.258 -1.892,54.517 -3.025,81.775c140.458,10.6 281.675,38.242 420.992,29.533c1939.9,-121.908 3882.825,-167.333 5823.858,-102.975c2257.158,74.583 4511.283,235.483 6731.342,677.675c1174.392,233.967 2334.392,538.358 3500.45,813.208c80.258,18.933 155.983,57.925 220.717,143.483c-108.275,-6.433 -216.55,-9.083 -324.45,-19.683c-1443.183,-140.458 -2884.858,-304.383 -4330.317,-416.075c-1369.358,-106.008 -2742.892,-159.767 -4114.9,-230.942c-1069.9,-55.65 -2139.792,-122.283 -3210.45,-149.542c-1575.692,-39.75 -3153.283,-93.133 -4728.217,-59.817c-1798.35,453.058 -3930.842,-251.642 -4108.05,1870.258c-79.883,2350.142 835.317,2184.067 2677.733,2201.858c1378.45,-26.5 2747.05,103.733 4113.767,249.492c1858.125,197.625 3702.233,492.925 5528.933,887.417c1122.142,242.3 2241.633,500.5 3352.042,791.633c909.75,238.508 1822.917,192.325 2744.4,166.583c906.342,-25.367 1813.825,-5.3 2720.933,-3.025c87.833,0.375 176.042,24.608 263.875,23.092c1201.65,-17.792 2390.8,142.35 3583.358,251.767c94.267,8.708 189.675,1.517 284.325,1.517c8.708,-25.742 17.792,-51.108 26.5,-76.475c-104.867,-49.592 -205.2,-113.2 -314.983,-146.133c-458.85,-138.567 -919.217,-273.725 -1381.475,-399.417c-1655.958,-450.525 -3312.667,-896.5 -4968.625,-1345.508c-154.467,-42.025 -306.283,-93.892 -458.85,-141.217c0.758,-28.017 1.517,-55.65 2.275,-83.292c203.683,-29.908 406.983,-76.1 611.8,-86.317c314.608,-15.525 631.492,-20.825 946.1,-6.058c1503,71.175 2993.517,228.667 4437.083,686.383c128.342,40.508 260.85,66.25 417.583,40.133c-66.25,-42.4 -129.1,-92.375 -199.142,-126.067c-937.392,-448.633 -1934.6,-726.892 -2918.175,-1048.317c-1234.583,-403.575 -2456.292,-847.283 -3681.792,-1278.875c-147.65,-52.242 -318.775,-88.592 -402.817,-318.392c123.042,-43.542 230.942,-100.325 345.275,-119.633c1326.583,-223.367 2661.492,-258.2 3997.533,-129.475c1339.45,128.717 2477.875,734.083 3513.317,1559.417c68.9,54.892 137.05,110.925 208.6,162.033c17.417,12.117 47.7,6.058 113.575,12.117c-32.183,-88.967 -45.05,-171.5 -88.208,-232.458c-101.842,-143.867 -207.85,-287.35 -330.133,-413.8c-877.192,-907.1 -1756.658,-1810.8 -2759.167,-2585.392c-1711.608,-1322.042 -3531.867,-2464.242 -5436.558,-3492.875c-2128.433,-1148.642 -4395.817,-1824.425 -6752.917,-2260.942c-280.917,-51.867 -561.825,-105.625 -835.55,-222.608c388.433,0 778.383,-22.333 1165.3,3.408c2159.1,143.867 4299.65,406.608 6341.008,1174.392c979.417,368.75 1942.167,782.167 2907.575,1187.258c1086.558,455.825 2090.2,1071.033 3068.1,1716.15c734.467,484.592 1414.792,1055.508 2092.85,1619.992c394.867,328.617 736.358,721.592 1103.592,1083.525c51.108,50.35 113.958,89.35 185.892,145c-19.308,-431.592 -1145.992,-2169.325 -2291.233,-3426.625c-946.1,-1039.233 -2065.592,-1886.517 -3236.192,-2662.25c-1161.133,-769.292 -2434.717,-1312.95 -3717.758,-1872.508c42.783,-4.542 86.7,-17.033 128.717,-12.117c2137.142,252.517 4181.908,823.058 6105.525,1797.925c939.658,476.267 1788.083,1086.933 2545.642,1821.017c199.142,192.7 400.925,383.508 595.525,580.758c160.525,162.792 355.117,228.667 578.108,241.917c1435.233,87.075 2823.525,413.417 4161.467,919.217c655.717,247.6 1260.708,629.975 1888.408,952.158c129.1,66.633 256.308,137.425 466.8,250.625c-15.142,-190.05 -6.433,-296.817 -33.692,-393.733c-328.617,-1164.542 -862.425,-2233.308 -1531.4,-3236.95c-125.692,-188.917 -268.042,-366.85 -396.383,-554.258c-45.808,-67.008 -71.55,-147.65 -62.467,-288.483c132.883,49.592 272.967,85.183 396.767,151.433c1927.783,1032.792 3193.408,2553.592 3509.158,4773.65c124.175,874.167 251.008,1748.333 388.808,2620.6c42.025,267.667 67.392,550.467 274.858,771.567c178.692,-48.842 163.175,-190.05 163.55,-307.033c3.025,-681.467 16.658,-1363.683 -6.817,-2044.008c-20.442,-604.233 -74.958,-1208.083 -133.267,-1810.042c-45.808,-476.642 -120.767,-950.642 -180.592,-1426.15c-15.142,-120.392 -20.825,-241.917 -33.317,-389.567c211.25,26.5 256.308,172.633 330.508,276.75c854.858,1198.242 1504.9,2505.508 2074.3,3858.592c453.933,1078.225 793.525,2186.742 869.242,3355.45c45.05,689.792 17.792,1386.017 -6.433,2078.083c-14.767,424.025 -84.808,846.15 -74.958,1289.858c39.75,-67.767 92.758,-130.992 116.983,-204.058c428.567,-1286.075 720.075,-2602.808 829.867,-3954.375c50.733,-627.7 85.183,-1259.192 76.475,-1888.408c-31.8,-2297.667 -430.458,-4516.967 -1472.342,-6591.258c-404.333,-805.258 -904.075,-1542.375 -1505.275,-2215.508c-917.325,-1026.092 -2055.367,-1781.575 -3146.083,-2593.875c-779.142,-580.533 -1594.242,-1109.117 -2478.25,-1525.225c-1319.767,-621.458 -2673.983,-1134.258 -4137.233,-1284.708c-1032.792,-106.158 -2065.967,-76.25 -3094.6,66.592c-1074.817,149.167 -2146.608,326.083 -3224.833,440.375c-964.267,102.217 -1935.358,164.875 -2904.55,192.025c-1147.508,32.183 -2296.533,15.633 -3445.175,5.867c-2282.9,-19.458 -4565.8,-84.125 -6848.325,-64.592c-2566.083,21.958 -5040.933,505.833 -7345.792,1695.217c-201.033,103.733 -416.45,180.775 -626.942,264.292c-42.4,16.7 -95.408,6.55 -145,8.858c-59.442,-156.892 52.242,-222.267 132.508,-288.9c552.742,-459.758 1107.375,-917.4 1665.417,-1370.683c704.558,-572.167 1444.325,-1104.992 2111.4,-1717.817c833.658,-766.383 1506.033,-1671.742 1870.992,-2761.025c260.467,-776.15 477.025,-1567.25 700.392,-2355.283c1773.5,-2964.35 4955.825,-1965.6 9205.425,-965.825c2048.933,587.192 4068.333,1280.242 5979.833,2248.942c1303.483,660.3 2505.508,1464.083 3565.942,2468.525c842.742,798.483 1846.008,1154.475 2988.975,1174.842c2305.233,41.075 4542.708,420.65 6674.175,1334.608c1683.592,721.933 3203.25,1687.525 4569.208,2917.758c1284.558,1156.633 2313.192,2502.258 3107.092,4019.267c858.267,1640.05 1484.833,3369.458 1738.867,5218.492c134.025,976.008 252.9,1951.258 236.242,2938.617c-7.95,466.8 6.817,933.983 -3.783,1400.783c-12.117,541.767 -29.533,1083.908 -66.633,1624.15c-25.367,374.808 40.508,675.025 359.283,933.225c694.717,563.342 1398.892,1124.792 2029.625,1756.283c1560.55,1563.2 3057.5,3180.158 4178.5,5112.108c628.458,1082.008 1045.667,2238.608 1412.142,3419.425c531.158,1712.367 1013.867,3441.008 1289.475,5214.325c148.783,956.317 206.708,1929.675 253.658,2898.108c23.092,477.783 98.433,920.733 313.475,1346.65c714.775,1414.792 1235.342,2899.625 1604.467,4440.108c232.833,972.217 403.2,1953.525 440.3,2952.625c39.75,1070.65 82.15,2143.2 67.392,3213.858c-27.258,1992.525 -420.233,3914.25 -1305.758,5709.525c-573.942,1164.542 -1154.325,2330.983 -1819.125,3444.417c-652.692,1092.233 -1394.35,2136.383 -2260.942,3076.05c-734.842,796.933 -1480.292,1587.808 -2267.375,2332.492c-594.008,561.825 -1241.4,1072.925 -1900.142,1559.417c-1889.167,1395.108 -3970.275,2439.633 -6138.083,3330.083c-2158.725,886.658 -4325.017,1759.692 -6386.442,2864.792c-1327.342,711.375 -2567.6,1551.083 -3717.383,2526.717c-1735.083,1472.342 -3253.225,3167.667 -4892.525,4738.058c-920.35,881.358 -1872.508,1729.025 -2982.917,2376.033c-955.558,556.908 -1945.2,1047.942 -3062.042,1135.775c-775.35,60.95 -1563.2,53.383 -2338.933,-6.433c-618.242,-47.7 -1226.258,-87.458 -1847.142,-41.642c-395.625,28.775 -807.158,-25.367 -1197.858,-106.767c-490.275,-102.6 -732.192,-481.942 -723.483,-1014.242c9.467,-580.383 9.083,-574.7 -573.567,-589.467c-238.133,-5.675 -483.083,-12.492 -711.75,-71.175c-531.542,-135.917 -832.517,-497.467 -908.242,-1041.5c-32.933,-237.375 -53.758,-476.642 -89.35,-713.642c-39.375,-265.392 -84.05,-338.083 -352.092,-362.308c-570.533,-51.492 -825.325,-417.967 -850.317,-1014.625c-6.817,-163.55 0.758,-328.242 12.492,-491.408c12.492,-177.183 -56.033,-291.892 -227.908,-341.867c-72.692,-20.825 -144.625,-44.292 -218.067,-62.467c-463.392,-115.092 -695.092,-432.725 -761.725,-885.142c-50.733,-344.142 -28.017,-686.383 139.7,-996.45c137.425,-253.658 295.675,-497.85 464.15,-732.192c202.925,-281.292 216.933,-343.758 42.783,-645.5c-503.15,-871.517 -491.033,-1183.475 137.425,-1985.325c591.733,-754.15 1218.3,-1481.425 1798.308,-2243.908c233.592,-307.033 392.6,-672.758 568.267,-1020.3c57.925,-114.333 62.85,-255.55 114.333,-482.7c-220.717,97.3 -361.55,137.05 -478.158,214.283c-662.158,439.542 -1314.083,894.608 -1978.517,1330.742c-431.975,283.567 -878.708,543.658 -1320.142,812.833c-53.383,32.558 -112.067,58.3 -169.983,82.908c-344.517,146.892 -450.525,77.608 -472.483,-307.792c-3.025,-50.35 -2.65,-101.083 -2.65,-151.433c0,-1299.7 -10.975,-2599.783 3.408,-3899.483c11.358,-1035.825 302.492,-2014.483 662.533,-2977.233c337.325,-903.317 791.633,-1744.542 1296.292,-2562.675c584.167,-946.1 1116.467,-1922.1 1531.4,-2954.142c239.267,-595.525 442.575,-1209.6 611.425,-1828.967c378.967,-1392.075 1021.433,-2655.433 1781.267,-3870.708c558.042,-892.717 1258.058,-1672.233 1916.8,-2485.45c254.033,-313.475 522.075,-615.592 774.217,-930.2c82.15,-102.217 134.775,-228.292 200.65,-343.383c-17.792,-24.608 -35.592,-48.842 -53.758,-73.45c-98.808,29.533 -204.442,45.808 -295.675,90.858c-966.167,478.917 -1864.933,1055.892 -2633.85,1821.4c-1167.192,1161.517 -2206.425,2426.008 -3077.558,3823.767c-678.433,1088.067 -1145.992,2273.058 -1550.708,3484.925c-357.767,1071.792 -523.592,2179.925 -650.417,3298.283c-98.058,867.733 -310.067,1709.717 -611.8,2532.392c-449.008,1224.742 -983.575,2406.7 -1680.183,3509.908c-498.983,790.5 -1018.783,1571.908 -1733.942,2187.117c-331.642,285.075 -704.933,527.375 -1080.5,754.15c-279.775,169.233 -467.942,71.55 -576.592,-246.842c-36.725,-107.142 -55.275,-220.342 -83.292,-330.133c-291.133,-1143.725 -863.567,-2127.3 -1737.35,-2915.9c-438.783,-396.008 -921.108,-748.85 -1407.6,-1086.175c-953.667,-661.017 -1924.75,-1296.292 -2887.133,-1944.442c-280.917,-189.675 -548.2,-201.033 -843.125,-11.733c-1231.558,788.983 -2480.525,1551.467 -3700.342,2358.242c-459.608,303.633 -862.425,695.467 -1282.667,1057.025c-577.35,496.708 -880.983,1159.242 -1083.15,1873.267c-92.758,327.1 -143.108,666.317 -227.908,996.075c-87.833,340.35 -255.167,397.517 -504.658,155.6c-243.808,-236.242 -487.625,-483.458 -675.408,-763.242c-484.217,-722.35 -965.783,-1449.242 -1396.617,-2204.15c-594.767,-1042.642 -850.317,-2209.075 -1108.133,-3367.558c-251.767,-1133.125 -488.758,-2268.892 -724.242,-3405.425c-56.033,-270.692 -63.225,-551.608 -119.633,-822.3c-140.833,-678.058 -277.883,-1358 -452.033,-2028.108c-232.075,-892.717 -508.825,-1776.35 -984.717,-2572.9c-348.3,-583.783 -734.467,-1146.75 -1135.017,-1696.083c-594.008,-815.858 -1203.542,-1621.125 -1828.592,-2413.133c-876.817,-1111.542 -1977,-1901.658 -3371.725,-2238.983c-92,-22.333 -188.917,-24.608 -367.608,-46.567c82.533,172.258 116.225,291.133 187.4,380.108c149.167,186.642 314.233,360.8 479.675,533.817c462.258,482.7 935.117,955.558 1390.942,1444.325c764.75,820.783 1150.533,1828.592 1383.75,2903.033c158.25,727.275 287.35,1460.983 441.817,2189.008c239.267,1127.067 604.233,2215.892 1064.6,3270.267c366.85,840.85 915.433,1568.875 1509.442,2258.292c1071.408,1244.05 1694.192,2677.017 1872.508,4304.95c30.283,274.858 43.917,553.875 38.992,830.25c-23.475,1340.592 64.742,2672.467 285.458,3995.267c22.717,136.292 29.533,275.992 36.725,414.175c1.892,33.692 -23.475,68.9 -52.242,146.133c-141.975,-43.917 -283.567,-77.992 -418.725,-130.233c-930.2,-357.767 -1858.125,-721.217 -2788.7,-1078.608c-152.575,-58.3 -310.825,-108.658 -470.592,-140.458c-226.4,-44.675 -324.075,56.408 -239.267,273.725c104.867,269.175 225.258,539.867 387.3,776.867c255.167,373.667 547.067,722.733 829.867,1077.092c322.558,403.958 664.05,792.767 975.25,1205.05c339.975,450.9 424.775,927.167 90.108,1437.883c-155.983,238.508 -136.675,298.333 108.658,512.608c420.992,367.608 547.067,829.867 490.275,1364.058c-53,500.5 -338.458,838.575 -823.058,969.192c-608.392,164.308 -625.433,164.683 -600.825,772.325c21.2,520.942 -190.808,873.783 -659.883,1078.983c-195.733,85.942 -395.25,165.067 -597.792,232.833c-358.9,119.258 -390.325,166.2 -334.292,549.333c25.742,174.533 62.092,349.817 62.85,524.725c2.275,716.292 -397.9,1130.475 -1110.408,1165.683c-25.367,1.133 -50.733,-0.758 -75.717,2.275c-184.375,24.233 -406.225,-6.058 -544.033,87.075c-183.242,123.417 -23.85,350.2 -18.55,531.158c12.117,421.75 -208.225,772.7 -632.625,874.925c-377.833,90.858 -770.05,133.267 -1158.483,166.583c-816.617,70.042 -1634.75,118.117 -2452.133,179.075c-1667.692,124.933 -3251.333,-126.825 -4652.117,-1101.7c-525.858,-365.717 -1032.042,-769.675 -1501.492,-1205.05c-905.967,-840.85 -1769.15,-1727.508 -2669.442,-2574.033c-865.083,-813.208 -1804.742,-1538.592 -2784.908,-2208.317c-1386.017,-946.858 -2803.458,-1841.842 -4284.133,-2636.883c-1255.858,-674.267 -2490.483,-1387.533 -3738.125,-2076.567c-1117.3,-617.483 -2288.842,-1119.492 -3463.8,-1614.308c-860.533,-361.933 -1728.683,-707.967 -2575.933,-1099.05c-582.917,-269.175 -1141.983,-592.492 -1701.233,-909.75c-1706.008,-968.817 -3294.725,-2102.317 -4773.992,-3392.167c-1616.275,-1409.492 -3017.933,-3011.308 -4250.925,-4758.5c-1078.942,-1528.367 -2025.725,-3137.375 -2714.717,-4885.333c-256.833,-651.558 -379.275,-1334.533 -390.475,-2033.792c-10.9,-681.467 -22.867,-1363.683 3.75,-2044.392c28.133,-717.425 91.958,-1434.1 157.192,-2149.633c84.767,-929.442 179.642,-1858.125 282.092,-2785.667c216.817,-1963.367 783.192,-3827.175 1627.483,-5608.817c313.283,-661.4 629.483,-1321.283 952.383,-1977.758c171.692,-349.058 219.467,-715.917 233.058,-1099.808c80.867,-2286.308 259.942,-4562.775 890.483,-6774.117c689.642,-2418.433 1791.3,-4628.267 3418.183,-6564.758c739.917,-880.6 1523.333,-1721.075 2368.308,-2496.8c807.117,-741.283 1656.033,-1438.642 2509.183,-2127.3c293.183,-236.617 439.617,-483.842 432.233,-862.425c-16.883,-870.383 -12.533,-1741.517 -3.6,-2611.892c17.758,-1729.783 298.292,-3425.108 846.492,-5057.967c544.075,-1619.992 1334.417,-3128.675 2357.633,-4511.283c670.558,-906.342 1395.217,-1762.6 2228.608,-2518.533c1596.592,-1448.183 3400.8,-2563.017 5434.058,-3296.692c1130.092,-407.817 2273.433,-767.1 3475.842,-884.725c564.475,-55.158 1130.85,-87.15 1696.842,-122.175c578.867,-35.817 1158.867,-53.683 1736.975,-95.558c655.717,-47.517 1203.158,-332.25 1683.217,-777.583c1284.175,-1191.083 2714.875,-2166.6 4270.125,-2977.875c1699.875,-886.808 3445.925,-1730.392 5318.058,-2073.575c5377.25,-985.708 6582.317,-1160.842 8581.317,57.783c418.142,280.758 721.792,1054.325 816.442,1394.683c67.008,242.15 26.883,428.75 -162.417,612.9c-316.125,307.075 -591.358,656.208 -906.725,963.85c-1304.242,1271.342 -2702,2426.158 -4257.625,3381.8c-85.558,52.658 -168.475,111.15 -247.975,172.825c-27.258,21.392 -41.267,60.608 -68.15,102.108c72.308,163.817 224.5,139.092 354.358,141.175c416.075,6.742 832.9,-3.183 1248.967,6.667c617.483,14.575 1235.342,27.033 1851.308,66.858c361.933,23.4 586.058,-106.842 761.342,-425.533c679.192,-1235.758 1215.65,-2522.058 1476.125,-3914.508c17.792,-94.917 59.442,-185.358 160.9,-296.508c48.083,105.7 107.142,207.883 142.725,317.675c467.942,1449.508 1280.392,2685.908 2375.658,3728.242c518.667,493.717 1101.7,921.075 1665.417,1366.408c593.633,469.225 1199.75,922.433 1797.167,1387.158c71.175,55.275 120.017,139.058 141.975,260.392c-68.9,-15.067 -141.975,-20.292 -206.333,-46.608c-1989.492,-813.858 -4073.633,-1248.55 -6193.742,-1531.55c-1150.533,-153.633 -2307.133,-243.55 -3469.783,-234.308c-782.55,6.25 -1565.092,-8.067 -2347.258,4.35c-1134.633,18.025 -2268.892,49.933 -3403.525,79.658c-718.183,18.775 -1437.508,84.008 -2153.8,59.025c-1840.325,-64.208 -3674.6,-209.017 -5499.783,-475.167c-1034.692,-150.908 -2076.567,-280.608 -3119.967,-336.45c-1654.442,-88.592 -3222.183,296.7 -4740.708,959.35c-1468.55,640.842 -2839.425,1436.942 -4084.383,2434.792c-1064.483,853.117 -2016.483,1828.217 -2862.6,2904.55c-1447.692,1842.225 -2412.267,3897.967 -2786.767,6217.967c-155.108,960.867 -196.417,1928.542 -210.267,2902.65c-25.292,1777.1 178.808,3527.708 545.658,5258.625c151.092,712.883 405.733,1404.192 620.7,2103.067c34.3,111.308 107.558,210.875 162.792,316.125c23.433,-8.325 46.833,-16.283 70.225,-24.233c-4.958,-68.9 0.192,-140.075 -16.392,-205.95c-435.642,-1729.025 -550.808,-3490.6 -452.983,-5260.517c128.642,-2327.575 802.275,-4487.05 2174.058,-6400.075c176.158,-245.708 353.375,-491.408 543.167,-726.517c83.367,-103.358 199.483,-180.208 310.858,-277.883c170.817,178.317 75.525,341.867 47.775,489.142c-121.675,644.358 -273.417,1283.8 -380.558,1930.433c-238.4,1439.025 -273.417,2885.992 -113.842,4336.375c18.817,170.742 54.292,339.975 82.042,509.958c26.008,1.517 51.983,2.65 77.992,4.167c25.025,-101.842 56.375,-202.55 74.167,-305.525c430.075,-2491.883 1317.875,-4816.05 2610.383,-6981.208c772.025,-1292.883 1757.117,-2401.017 3088.617,-3157.442c113.2,-64.358 237,-109.417 383.892,-128.342c-118.875,393.358 -424.4,648.525 -622.783,972.217c-204.442,333.158 -412.667,664.425 -602.717,1005.917c-183.992,330.508 -355.5,668.967 -517.158,1010.833c-166.958,353.6 -322.942,712.508 -470.208,1074.817c-144.625,357.008 -314.983,708.725 -343.758,1162.275c121.525,-46.192 207.092,-58.683 266.525,-104.492c1545.408,-1201.65 3309.258,-1858.125 5237.8,-2105.342c49.975,-6.058 99.95,-15.9 150.3,-17.792c528.133,-22.717 927.925,-257.817 1329.992,-612.942c630.35,-557.283 1323.55,-1053.617 2033.033,-1509.058c1752.875,-1125.925 3641.658,-1957.692 5666.742,-2463.108c1141.45,-284.7 2305.617,-432.65 3475.083,-539c34.075,-3.108 69.658,11.808 179.075,32.333c-177.183,43.992 -283.183,76.358 -391.467,96.242c-1385.258,254.833 -2716.008,690.967 -3996.025,1267.558c-1239.125,558.425 -2344.608,1322.417 -3344.467,2250.342c-916.95,851.075 -1668.45,1824.808 -2275.708,2909.092c-251.383,449.383 -439.167,935.117 -642.85,1409.875c-48.842,114.333 -45.05,251.383 -65.5,378.208c29.908,15.142 60.2,30.667 90.108,45.808c87.833,-77.233 191.567,-142.725 261.225,-233.967c677.3,-887.033 1480.292,-1658.225 2299.933,-2403.667c945.717,-860.158 2014.1,-1563.575 3174.483,-2108.367c1187.258,-557.667 2380.575,-1104.35 3639.392,-1491.267c1439.4,-442.575 2896.975,-799.583 4405.275,-883.633c905.967,-50.35 1814.583,-48.458 2722.067,-68.15c58.3,-1.517 116.608,10.6 178.317,65.117c-119.633,23.85 -238.133,56.792 -358.9,70.417c-2168.942,243.433 -4269.367,780.65 -6315.267,1523.825c-1520.8,552.742 -2857.983,1437.133 -4123.983,2432.067c-416.45,327.483 -829.492,659.125 -1240.642,993.042c-81.4,66.25 -147.65,151.433 -263.117,271.825c500.5,182.483 980.925,7.95 1500.35,172.258c-171.125,145.758 -275.233,249.117 -393.358,332.4c-1195.967,843.5 -2405.183,1668.45 -3587.9,2530.117c-835.167,608.775 -1635.508,1264.492 -2447.967,1903.933c-92.375,72.692 -162.792,173.775 -243.433,261.608c16.658,25.742 33.317,51.492 49.975,76.85c144.242,-58.3 292.275,-109.033 431.975,-176.425c1582.883,-759.833 3190.758,-1461.358 4867.533,-1986.083c1372.767,-429.325 2748.192,-857.125 4187.208,-1017.65c156.733,-17.417 315.742,-16.283 473.617,-23.85l20.442,82.908c-539.867,253.658 -1086.558,494.058 -1617.717,763.992c-539.492,274.1 -1069.517,568.642 -1594.242,870c-525.108,301.358 -1047.558,608.775 -1555.25,938.525c-507.308,329.75 -1002.125,680.325 -1488.617,1041.125c-478.158,354.358 -1011.975,639.817 -1429.175,1071.792c9.842,26.125 19.683,51.867 29.533,77.608c131.75,-16.283 265.392,-23.475 395.25,-49.975c1191.425,-241.917 2397.617,-324.45 3610.242,-343.383c453.933,-7.192 907.1,-41.642 1360.65,-45.808c276.375,-2.275 552.742,34.45 829.867,45.433c1195.208,48.458 2362.025,-138.567 3521.65,-410.392c1867.208,-438.025 3731.392,-898.392 5639.108,-1128.2c963.517,-116.225 1931.192,-201.408 2898.867,-279.4c1889.542,-152.192 2280.308,-70.642 4171.75,-75.567c990.225,-152.708 1567.075,-61.35 1755.867,-2402.275c69.733,-536.108 180.317,-1605.1 -346.017,-1948.525c-1524.583,-711.375 -1197.892,-527.875 -2873.533,-780.775c-1607.875,-242.3 -3224.833,-428.942 -4840.275,-623.542c-913.542,-110.167 -1830.483,-201.408 -2747.808,-274.858c-942.308,-75.717 -1887.275,-118.5 -2830.725,-176.425c-107.142,-6.433 -214.283,-17.792 -326.725,-81.017c89.35,-34.45 176.042,-79.5 268.417,-101.842c1141.825,-277.125 2292.367,-504.283 3467.508,-577.35c918.458,-57.542 1837.3,-105.625 2756.142,-150.675c616.725,-30.667 1235.717,-89.725 1850.925,-64.358c1649.517,67.392 3306.608,105.625 4903.125,609.15c324.833,102.6 647.008,213.15 971.467,316.883c91.242,29.15 186.267,46.567 279.775,69.283l42.025,-64.742c-78.75,-65.5 -152.192,-140.075 -237.758,-195.35c-653.45,-422.883 -1387.158,-660.642 -2117.833,-902.183c-904.45,-298.708 -1842.225,-435 -2785.667,-517.158c-1117.6,-96.917 -2238.608,-151.433 -3356.583,-241.917c-401.308,-32.558 -799.958,-106.383 -1195.967,-181.342c-165.067,-31.425 -349.442,-62.85 -458.092,-250.625c138.183,-193.842 349.817,-257.817 547.817,-315.742c569.025,-165.825 1141.45,-321.8 1717.667,-460.367c1034.692,-249.117 2093.225,-367.608 3151.383,-355.875c1249.35,14.008 2488.1,183.617 3698.45,528.508c1015.758,290 1964.125,713.642 2848.892,1292.508c298.708,195.733 427.808,435 413.417,784.817c-30.667,743.175 -45.808,1486.725 -67.392,2229.9c-2.65,88.592 -8.325,176.8 -9.083,265.017c-25.742,3506.883 -60.575,7013.767 -71.933,10521.025c-4.167,1311.058 24.983,2623.25 77.233,3933.175c45.808,1144.475 -342.242,2130.325 -1002.508,3026.833c-819.267,1112.3 -1858.125,1954.667 -3161.233,2439.258c-824.192,306.283 -1582.133,727.275 -2285.175,1246.7c-628.842,464.908 -1239.883,953.667 -1856.225,1435.617c-95.025,74.583 -174.908,169.233 -316.5,307.792c165.442,70.8 268.417,130.617 378.967,158.25c195.35,49.217 396.008,77.233 593.633,117.742c183.992,37.858 251.383,155.6 210.5,334.675c-53,233.592 -115.092,465.292 -166.583,699.633c-102.6,467.942 -201.792,937.008 -299.842,1406.083c-17.792,86.317 -32.183,174.908 -32.183,262.367c0,255.167 126.45,341.492 329.375,194.217c662.158,-481.192 1393.217,-867.35 1978.133,-1456.433c355.117,-357.392 755.292,-671.617 1099.425,-1038.475c672.758,-717.05 1322.792,-1455.3 1978.133,-2188.633c327.483,-366.475 643.983,-743.175 969.567,-1111.542c214.283,-242.3 314.983,-246.458 508.067,6.817c282.808,371.4 73.333,729.9 342.508,1111.517c240.025,339.975 273.9,858.442 376.35,1575.883c-25.642,1016.092 -7.467,2294.825 -64.867,3256.708m-48803.133,-11216.358c0,0 44.733,-88.05 -9.692,55.65c-54.425,143.708 -5.567,170.367 -300.3,690.55c-294.733,520.183 -643.942,1154.7 -1424.708,2455.158c-780.767,1300.458 -1828.708,3824.708 -2346.808,5725.425c-518.1,1900.717 -671.167,4009.275 -755.475,5501.675c-84.308,1492.4 -74.283,2449.667 -79.917,3403.15c-5.642,953.483 86.033,1416.875 332.783,2277.225c246.75,860.35 1145.233,1916.617 1726.142,2257.917c580.908,341.3 171.308,136.675 877.117,444.842c705.808,308.175 1841.292,863 3235.133,1648.758c1393.842,785.767 3564.975,2359.183 4818.242,3458.8c1577.825,1384.383 3339.258,1312.675 2510.083,-1241.9c-829.175,-2554.567 -1091.767,-2751.067 -1974.175,-4383.958c-882.408,-1632.892 -1759.758,-3809.408 -2236.242,-4426.6c-476.483,-617.192 -789.967,-1044.967 -1730.35,-1819.758c-940.383,-774.783 -1423.767,-1236.1 -2206.842,-2174.242c-783.075,-938.15 -1274.242,-2520.467 -1247.417,-3721.167c26.825,-1200.7 157.875,-1878.942 474.483,-3022.667c316.617,-1143.725 786.658,-2727.558 1140.767,-3885.475c354.117,-1157.917 807.95,-2507.217 988.95,-3060.9c181,-553.692 -1.017,-311.508 127.967,-251.008c128.983,60.5 135.142,21.008 187.442,461.883c52.3,440.867 174.908,1547.108 239.083,2180.3c64.175,633.192 96.567,1108.842 148.217,1619.233c51.658,510.392 102.642,1509.983 426.592,1791.867c323.95,281.883 107.233,-26.692 163.967,-107.142c56.733,-80.45 -248.125,451.283 273.308,-408.5c521.433,-859.775 2528.417,-3591.692 3326.483,-4395.817c798.067,-804.125 482.875,-255.925 -58.608,-614.075c-541.475,-358.15 -1354.575,-1017.65 -2011.675,-1715.017c-657.1,-697.367 -1372.425,-1773.317 -1672.308,-2547.533c-299.883,-774.217 -407.742,-1336.042 -545.358,-1808.525c-137.617,-472.483 -287.617,-304.008 -458.817,-143.867c-171.2,160.142 135.292,-200.467 -252.975,280.917c-388.267,481.375 -1315.808,1740.758 -1959.625,2691.4c-643.808,950.642 -1366.658,1970.183 -2080.2,2883.725c-713.55,913.542 -1568.8,1843.167 -2195.258,2601.675c-626.45,758.508 -1051.025,1361.408 -1365.917,2082.25c-314.892,720.833 -458.225,1666.175 -441.7,2091.708c16.525,425.533 23.033,279.875 50.733,349.817c27.7,69.942 31.475,90.792 94.992,21.958c63.508,-68.833 -3.825,111.683 245.633,-394.492c249.45,-506.175 914.125,-1656.333 1527.308,-2476.742c613.183,-820.408 1435.142,-1785.242 2074.792,-2454.025c639.65,-668.783 1314.392,-1221.525 1720.425,-1529.508c406.042,-307.983 428.417,-263.117 643.717,-392.975m29606.908,40361.525c0,0 27.208,30.342 -19.683,-52.625c-46.9,-82.967 67.958,59.25 -221.85,-351.333c-289.808,-410.583 -856.375,-1480.667 -1090.342,-2316.217c-233.967,-835.55 -316.883,-1689.458 -322.558,-2544.883c-5.675,-855.425 39.375,-1360.467 134.4,-2566.842c95.025,-1206.375 310.442,-3264.775 389.95,-4673.7c79.5,-1408.925 135.725,-2261.508 39.375,-3780.608c-96.35,-1519.092 -408.875,-3174.667 -1202.025,-5180.633c-793.15,-2005.958 -2631.392,-5071.033 -3659.458,-6564.758c-1028.058,-1493.725 -1216.6,-1671.1 -1760.825,-2823.15c-544.225,-1152.05 -911.267,-3081.533 -991.525,-4097.867c-80.258,-1016.325 -65.875,-1476.5 -84.05,-1850.55c-18.175,-374.05 -1.175,-385.525 -182.858,-383.892c-181.692,1.625 355.308,-644.742 -266.15,322.558c-621.458,967.3 -2511.567,3897.025 -3488.333,5450.942c-976.767,1553.925 -1563.008,2531.633 -2355.967,3882.067c-792.958,1350.433 -1783.392,2867.633 -2903.525,3843.825c-1120.133,976.192 -1288.125,1178.35 -1985.292,1914.425c-697.167,736.075 170.117,2687.667 569.8,3934.075c399.683,1246.408 1191.942,2228.183 1486.05,3122.608c294.108,894.417 664,1892.025 997.975,2865.942c333.975,973.925 583.817,1689.65 1102.55,2723.817c518.733,1034.167 1080.867,1929.775 1927.208,2853.158c846.342,923.383 1305.625,1766.883 2539.267,2818.608c1233.633,1051.725 3493.25,2916.658 4377.642,3670.817c884.383,754.15 363.633,380.108 1003.267,205.95c639.625,-174.15 1745.492,-453.55 2684.583,-648.525c939.092,-194.975 2374.333,-41.642 2911.358,146.517c537.033,188.158 245.708,52.625 371.017,80.258m49973.942,-1025.225c559.558,-470.967 1124.417,-935.5 1677.533,-1413.658c1029.383,-889.308 2083.383,-1747.192 2985.942,-2779.992c1359.517,-1556.383 2450.992,-3266.858 3177.508,-5201.458c430.075,-1145.233 828.733,-2302.208 1235.717,-3456.15c382,-1081.633 726.892,-2177.65 1142.967,-3245.658c329.375,-845.775 741.658,-1660.5 1306.892,-2381.333c365.717,-466.425 753.392,-915.433 1125.55,-1376.933c157.875,-196.108 314.233,-396.008 447.875,-608.775c121.908,-194.217 76.1,-296.433 -147.275,-363.825c-168.475,-51.108 -345.65,-73.45 -517.158,-113.958c-1290.992,-305.9 -2500.592,-794.658 -3550.042,-1624.533c-824.192,-651.933 -1566.608,-1388.667 -2199.233,-2229.517c-1463.633,-1945.958 -2559.275,-4105.817 -3637.875,-6275.517c-308.933,-620.892 -610.667,-1245.567 -917.325,-1867.967c-149.925,-305.142 -306.658,-606.883 -455.442,-912.783c-403.2,-829.117 -834.417,-1641.95 -1392.833,-2379.817c-71.55,-94.65 -153.708,-181.342 -230.942,-271.45c-29.533,7.95 -58.683,15.9 -87.833,24.233c-13.633,143.108 -34.833,285.833 -39.75,429.325c-26.5,806.017 -28.017,1613.55 -77.233,2418.058c-82.533,1349.675 -391.842,2653.158 -1038.092,3843.825c-546.683,1007.433 -1160.758,1979.65 -1771.8,2950.733c-1177.042,1869.858 -2299.933,3765.458 -3166.533,5806.442c-790.5,1861.15 -1375.042,3775.3 -1492.783,5797.733c-87.458,1509.817 -55.275,3025.317 76.1,4535.892c77.608,891.2 139.7,1783.917 198.758,2676.633c38.992,590.983 20.067,1188.392 96.917,1773.317c130.233,987.367 12.117,1966.4 -49.217,2945.058c-34.45,548.575 -154.083,1101.317 -308.175,1630.967c-255.167,878.708 -698.5,1672.617 -1244.05,2408.217c-99.95,134.775 -179.075,285.075 -313.092,501.25c222.608,6.433 355.117,18.55 486.492,12.117c877.192,-41.267 1738.108,59.817 2583.883,293.025c753.775,208.225 1511.708,403.575 2257.158,638.683c432.725,137.05 821.542,118.875 1181.958,-152.95c875.3,-659.883 1744.925,-1327.342 2655.433,-2029.242m19394.433,-28379.142c-44.292,841.225 -145.758,1442.617 -579.242,2416.542c-433.483,973.925 -375.708,1504.375 -866.192,2481.2c-490.483,976.825 -860.55,1758.783 -1421.433,2319.858c-560.883,561.075 -1192.975,1691.383 -1678.817,2415.308c-485.842,723.933 -1069.958,1825.092 -1532.308,2776.825c-462.342,951.733 -973.45,1858.933 -1208.033,2539.592c-234.583,680.658 -324.325,1670.042 82.158,1959.017c406.483,288.975 524.575,629.058 1401.592,111.183c877.017,-517.875 2137.708,-1254.842 3294.117,-1938.758c1156.408,-683.925 2608.867,-1549.192 3640.525,-2170.842c1031.658,-621.642 1675.45,-905.017 2507.025,-1622.258c831.575,-717.242 1628.125,-2091.9 1752.875,-2920.825c124.742,-828.925 99.383,-482.133 118.117,-1355.35c18.742,-873.217 -169.608,-2618.142 -440.3,-3825.658c-270.692,-1207.517 -534.383,-2219.867 -839.717,-3457.292c-305.333,-1237.425 -743.55,-2784.725 -1161.892,-3916.9c-418.342,-1132.175 -721.217,-1904.692 -1243.667,-2881.833c-522.458,-977.142 -1037.15,-2372.817 -1264.867,-3235.058c-227.725,-862.242 -328.617,-1078.792 -591.733,-1753.633c-263.117,-674.833 -716.483,-1689.842 -958.208,-2305.617c-241.733,-615.775 -362.875,-1106.808 -461.883,-1401.542c-99,-294.733 -75.758,-388.892 -261.225,-335.433c-185.475,53.458 19.308,-78.175 -259.333,434.242c-278.642,512.425 -909.183,1759.117 -1431.825,2622.5c-522.642,863.375 -1409.492,1867.017 -1927.4,2374.9c-517.908,507.875 -746.958,-196.3 -28.017,695.467c718.942,891.767 2482.225,3819.6 2884.858,4738.058c402.633,918.458 77.4,350.225 216.933,361.933c139.533,11.708 105.625,99.192 122.283,-269.175c16.658,-368.367 31.425,-1176.658 84.05,-1964.508c52.625,-787.85 356.067,-2230.083 514.125,-2707.3c158.058,-477.217 -6.633,-307.942 142.35,-267.667c148.983,40.283 10.6,-72.5 103.358,344.517c92.758,417.017 305.525,1354.025 487.625,2218.158c182.1,864.133 459.042,2147.175 601.958,2966.258c142.917,819.083 182.858,1206.758 212.392,1954.667c29.533,747.908 1.133,1686.617 -10.225,2599.4m-9156.342,23080.567c981.308,-892.025 3924.6,-2921.383 4910.45,-3373.8c1100.558,-505.417 2206.05,-999.858 3305.092,-1509.058c1270.175,-588.333 2541.858,-1175.142 3801.05,-1786.95c675.025,-328.242 1278.125,-765.892 1709.333,-1400.025c71.933,-106.008 121.525,-227.158 181.342,-341.108c-21.583,-17.033 -43.158,-33.692 -64.742,-50.35c-71.55,38.992 -153.708,66.25 -212.767,119.258c-548.958,491.792 -1201.65,769.675 -1899.767,980.55c-808.667,244.567 -1621.883,488.758 -2402.158,809.05c-2882.208,1182.342 -5808.717,2262.075 -8600.058,3657.183c-518.667,258.958 -1033.55,530.025 -1526.475,833.658c-851.825,525.483 -1498.083,1269.792 -2075.433,2073.542c-518.292,721.975 -1102.833,1390.183 -1785.05,1949.358c-1277.742,1047.183 -2599.4,2040.6 -3896.45,3063.933c-633.383,499.742 -1290.992,977.142 -1867.583,1537.075c-694.717,675.025 -1306.133,1435.233 -1969.425,2143.575c-741.658,791.25 -1453.783,1618.85 -2262.833,2335.15c-1361.408,1205.808 -2821.633,2289.717 -4449.575,3125.642c-114.717,58.683 -214.658,145.758 -321.425,219.583c14.383,31.425 28.392,62.85 42.783,94.267c216.175,-47.7 435,-85.942 648.15,-145c1776.35,-492.925 3352.8,-1391.7 4842.55,-2444.558c1588.183,-1122.517 3039.325,-2416.542 4484.4,-3715.483c947.233,-851.075 1895.6,-1700.625 2853.058,-2539.967m-46620.767,-35621.575c1370.117,-86.7 2635.75,-531.917 3872.6,-1097.908c1456.058,-665.942 2918.55,-1319.008 4390.133,-1950.5c1436.008,-1574.025 1228.367,-2309.425 -2656.192,-1999.333c-1524.583,108.658 -3043.867,260.85 -4533.617,601.2c-1917.942,437.65 -3824.517,925.65 -5736.025,1392.075c-272.917,67.7 -1232.5,1319.083 1432.208,2644.458c1013.867,400.167 2079.217,493.683 3230.892,410.017m1841.467,-11181.292c-439.167,42.783 -881.358,66.633 -1317.117,130.992c-1609.767,238.133 -3224.075,453.55 -4824,746.2c-1674.508,306.283 -3334.625,691.308 -5000.042,1045.667c-127.967,27.258 -249.867,83.667 -374.808,126.45l-12.492,94.267c99.567,58.3 192.325,140.458 299.842,171.125c605.367,173.017 1206.95,372.908 1823.667,491.792c1803.983,347.55 3640.525,299.467 5464.95,375.183c955.183,39.75 1914.533,-25.742 2872.367,-42.783c1865.692,-32.933 3731.392,-68.525 5597.458,-95.783c744.308,-10.975 1489,7.575 2232.925,-6.433c805.267,-67.408 1121.358,-3146.95 -2612.275,-3173.725c-580.383,-10.975 -1161.517,-18.55 -1741.142,1.892c-780.275,27.633 -1559.792,84.05 -2409.35,135.158m33409.475,1829.35c-1260.708,-257.067 -2516.492,-541.008 -3782.875,-765.508c-2656.95,-470.208 -5299.892,-1034.692 -7996.592,-1250.483c-602.717,-48.458 -1208.458,-102.975 -1811.558,-91.242c-717.05,14.008 -1437.883,57.925 -2147.367,159.008c-2422.775,104.133 -1707.142,3084.167 -271.283,3098.983c907.1,24.983 835,31.2 1742.108,57.7c1713.125,49.975 3426.242,101.458 5139.742,152.575c831.383,24.608 1662.392,63.6 2494.15,70.8c1689.267,14.383 3379.675,52.242 5063.267,-151.433c866.592,-104.867 1721.45,-260.092 2540.717,-572.05c143.483,-54.517 275.233,-138.567 412.667,-209.358c6.817,-32.183 14.008,-64.358 20.825,-96.917c-45.808,-21.583 -89.725,-50.733 -137.808,-63.983c-400.925,-110.167 -802.608,-217.692 -1266.008,-338.083m-6763.142,9453.025c704.933,-67.392 1404.192,-159.008 2070.508,-418.725c436.892,-169.983 859.4,-366.475 1220.958,-671.242c828.25,-783.883 288.667,-1581.842 -203.683,-1752.117c-770.05,-196.492 -1545.783,-371.775 -2312.433,-580.758c-1888.033,-513.75 -3784.008,-995.692 -5721.642,-1279.258c-1372.008,-201.033 -2753.492,-337.7 -4129.667,-514.125c-1192.233,-271.567 -2197.717,921.867 -1326.2,1391.7c621.267,335.05 1261.467,634.517 1888.408,958.208c1087.308,561.45 2164.4,1141.825 3257.775,1691.167c1628.7,818.133 3353.933,1237.992 5255.975,1175.142m-61914.15,24544.775c-1174.158,-425.158 -2356.575,-828.733 -3520.1,-1281.15c-1059.558,-411.525 -2083.008,-905.208 -2998.133,-1595.758c-41.567,-31.425 -102.708,-36.725 -233.25,-80.642c89.158,168.85 131.6,271.067 192.358,360.8c327.975,484.592 725.608,907.483 1189.492,1261.467c897.067,684.492 1856.758,1265.25 2920.525,1654.442c1753.25,641.333 3511.575,1268.658 5266.267,1906.2c2470.683,897.642 4623.083,2305.992 6492.975,4137.992c1936.867,1898.25 3832.85,3838.525 5761.767,5745.492c581.892,575.458 1201.267,1115.325 1825.183,1645.733c1290.992,1097.533 2678.908,2059.15 4149.35,2903.033c800.717,459.608 1619.608,876.058 2494.908,1175.142c108.275,37.1 223.367,55.275 335.433,82.15c9.467,-28.775 18.933,-57.925 28.392,-87.075c-103.733,-61.333 -207.092,-122.667 -310.825,-184.375c-119.633,-70.417 -240.408,-138.942 -358.15,-212.008c-1260.708,-782.925 -2376.033,-1745.683 -3434.192,-2778.85c-433.108,-422.508 -878.333,-832.9 -1306.133,-1260.325c-721.592,-721.217 -1418.2,-1467.792 -2153.8,-2174.242c-854.1,-820.783 -1739.625,-1609.008 -2610,-2413.517c-1018.033,-941.175 -2020.917,-1899.392 -3054.467,-2823.525c-1759.042,-1572.283 -3719.575,-2854.192 -5807.883,-3944.533c-1547.675,-808.292 -3181.183,-1411.383 -4869.733,-2036.442m61935.358,8478.908c341.492,-130.617 688.658,-248.733 1023.708,-394.492c1319.767,-573.183 2399.883,-1421.983 3112.767,-2700.867c360.417,-646.25 596.283,-1333.775 756.8,-2050.45c187.783,-838.958 289.625,-1688.892 322.942,-2548.292c33.692,-880.983 85.183,-1761.2 122.667,-2642.183c4.925,-117.742 -25.742,-237 -44.292,-390.708c-306.658,130.617 -463.017,350.2 -608.392,558.425c-801.858,1146.375 -1592.35,2301.075 -2380.575,3456.533c-639.442,937.767 -1262.6,1886.142 -1907.717,2819.742c-551.983,798.067 -1136.525,1574.175 -1685.483,2374.9c-414.933,605.367 -737.492,1263.358 -962.758,1964.508c-46.942,146.517 -143.108,301.733 7.95,482.325c350.575,-170.367 690.925,-355.117 1046.425,-502.767c372.158,-154.467 759.45,-272.967 1195.967,-426.675m-66688.1,-4557.475c241.125,221.85 474.108,453.55 724.775,664.05c1256.808,1056.267 2560.825,2045.525 3984.85,2872.742c1713.05,995.317 3570.867,1643.842 5420.958,2313.567c68.675,24.608 154.242,3.025 266.717,3.025c-140.8,-383.892 -402.667,-604.992 -647.467,-833.658c-1000.8,-935.117 -2129.992,-1699.117 -3304.908,-2389.667c-2784.308,-1635.892 -5576.225,-3258.15 -8169.342,-5194.642c-1290.767,-963.892 -2449.217,-2060.667 -3420.525,-3350.15c-614.6,-816.242 -1228.525,-1632.858 -1854.6,-2440.017c-246.767,-318.392 -521.85,-614.833 -792.808,-913.542c-67.2,-74.2 -168.55,-116.983 -254.183,-174.533c-26.308,17.033 -52.658,34.075 -78.975,50.733c21.658,155.6 20.517,318.392 68.942,464.908c201.6,610.667 402.142,1222.467 635.992,1821.017c113.467,290.375 274.325,570.917 457.675,823.817c467.75,645.5 1017.542,1215.275 1645.167,1711.983c612.975,484.975 1222.583,975.625 1812.992,1487.858c1161.742,1007.433 2309.208,2031.892 3504.725,3082.483m33102.583,-2360.892c-512.608,-970.325 -1024.467,-1941.033 -1539.35,-2910.225c-47.325,-89.35 -113.958,-168.475 -171.5,-252.517c-25.367,10.6 -50.733,21.2 -76.475,31.8c-7.192,135.917 -26.5,272.208 -19.683,406.983c50.35,1019.542 73.067,2042.117 167.717,3057.875c136.675,1458.708 507.308,2850.025 1311.433,4106.567c664.05,1036.583 1529.508,1817.992 2709.95,2185.225c745.067,232.075 1517.392,375.183 2278.358,554.258c39.75,9.467 88.208,-17.033 203.683,-42.783c-172.258,-167.333 -299.467,-298.708 -435,-421.75c-475.892,-431.975 -975.625,-840.092 -1426.908,-1295.917c-774.217,-781.792 -1276.225,-1748.333 -1744.542,-2729.633c-418.342,-876.817 -821.167,-1760.442 -1257.675,-2689.883m54034.075,-32272.167c373.733,408.417 771.225,797.617 1117.408,1227.392c1108.767,1374.208 2237.517,2736.142 3284.175,4155.725c887.875,1204.433 1671.525,2484.15 2505.933,3727.558c101.533,151.092 229.533,284.558 345.642,426.033c42.125,-12.817 83.717,-26.158 125.842,-39.508c25.383,-166.042 62.108,-331.008 74.533,-497.575c140.958,-1834.417 -359.683,-3523.617 -1240.008,-5110.308c-1186,-2138.192 -2813.775,-3911.208 -4803.942,-5331.333c-2097.092,-1497 -4252.525,-2914.45 -6385.267,-4362.342c-75.067,-50.717 -177.683,-61.4 -267.333,-90.758c86.95,270.675 217.108,480.492 381.833,659.342c870.592,945.5 1750.375,1882.467 2625.283,2823.692c729.633,784.275 1456.575,1570.675 2235.892,2412.075m1716.108,5769.2c-1177.192,-1451.158 -2606.717,-2689.65 -4199.783,-3786.183c-1281.925,-881.733 -2576.1,-1749.533 -3867.2,-2621.083c-139.033,-94.283 -291.542,-173.025 -437.925,-258.733c-31.85,211.058 18.992,376.05 108.408,522.292c318.492,518.533 629.633,1041.358 979.967,1542.758c1691.058,2426.625 3671.217,4672.2 5694.85,6887.767c1591.225,1742.567 3191.025,3476.558 4548.9,5369.117c194.767,271.592 423.833,524.433 654.125,774.058c79.625,85.708 210.083,135.525 330.742,210.525c426.9,-1244.383 -1564.892,-5743.017 -3812.083,-8640.508m-76957.808,159.7c163.75,-190.425 316.333,-391.383 493.075,-569.275c755.108,-759.208 1527.058,-1501.883 2274.942,-2268.108c1350.917,-1383.608 2890.867,-2546.725 4397.45,-3750.442c549.55,-438.983 1067.75,-916.567 1593.542,-1383.617c114.758,-102.225 200.2,-236.533 299.8,-355.8l-84.933,-88.7c-272.5,180.908 -536.408,376.35 -819.517,539.717c-1352.383,781.758 -2709.325,1555.5 -4065.192,2330.75c-1432.617,819.342 -2806.392,1732.9 -4034.25,2827.358c-2031.158,1809.575 -3739,3878.225 -4921.167,6348.792c-506.017,1057.383 -797.683,2156.85 -905.058,3312.958c-14.708,158.858 -56.625,339.767 206.625,458.533c117.242,-159.858 245.858,-324.233 362.892,-496.117c621.083,-913.058 1226.6,-1836.133 1861.333,-2739.667c1010.725,-1438.233 2115.792,-2804.308 3340.467,-4166.375m25054.092,5802.283c-22.858,59.858 -48.008,119.25 -67.817,179.567c-706.333,2152.517 -30.475,4097.375 2514.475,5713.025c956.258,606.85 2083.967,1115.625 3145.375,1660.775c115.05,59.392 308.592,63.075 581.375,114.183c-22.858,-221.467 2.275,-388.15 -65.533,-540.083c-144.008,-325.525 -307.067,-649.667 -512.033,-962.3c-947.117,-1445.292 -1706.033,-2921.9 -2016.15,-4470.325c-140.2,-698.933 -240.017,-1402.475 -303.258,-2105.55c-47.242,-533.642 -16.767,-1070.042 -6.092,-1605.067c7.617,-398.275 51.05,-796.083 51.817,-1193.9c0,-106.825 -98.292,-213.642 -156.2,-330.592c-1169.617,370.65 -2425.325,1784.633 -3165.95,3540.258m171.525,-38076.817c587.95,-658.258 1162.65,-1325.675 1622.258,-2085.392c770.05,-1272.667 1163.408,-2062.258 1161.892,-2410.258c-85.183,47.625 -161.283,81.242 -227.533,128.8c-481.192,345.392 -952.158,705.125 -1441.675,1037.792c-531.542,361.133 -1094.125,677.45 -1616.958,1049.833c-892.342,635.425 -1803.225,1248.967 -2589.183,2022.358c-529.65,521.358 -1069.517,1032.608 -1599.925,1553.092c-61.708,60.458 -93.892,151.092 -139.7,227.758c18.175,21.617 36.725,43.233 54.892,64.85c113.575,-39.15 231.317,-68.867 339.592,-118.917c709.475,-327.633 1415.925,-661.358 2125.408,-988.617c128.342,-59.208 250.625,-173.358 462.642,-81.133c-71.933,120.242 -126.45,228.592 -196.867,325.175c-207.85,285.117 -425.158,563.192 -631.867,849.025c-75.342,103.883 -198,195.425 -158.25,357.125c421.375,-66.517 1897.117,-1069.25 2835.267,-1931.492m57518.867,8437.908c1332.258,1941.792 2165.158,4095.217 2684.583,6377.358c159.383,700.017 260.092,1413.658 392.217,2119.725c26.125,138.942 13.25,301.733 218.067,434.242c25.742,-170.367 59.058,-299.083 62.467,-428.567c14.767,-541.767 30.283,-1084.283 26.5,-1626.05c-3.025,-428.183 -14.008,-858.267 -55.275,-1284.175c-112.442,-1163.783 -439.925,-2270.408 -870,-3356.958c-600.825,-1518.15 -1542,-2809.142 -2649.375,-3973.458c-788.983,-829.117 -1662.008,-1583.608 -2625.15,-2216.992c-558.042,-367.042 -1127.825,-716.517 -1697.975,-1064.858c-113.958,-69.7 -237.375,-172.792 -458.475,-92.642c1945.2,1448.525 3628.792,3079.417 4972.408,5112.375m-29955.217,-12295.933c-181.342,-114.258 -355.5,-242.675 -545.925,-338.8c-190.05,-95.933 -339.975,-299.808 -657.992,-256.533c74.583,188.8 119.633,355.267 201.033,501.25c752.258,1343.883 1557.9,2651.758 2562.3,3828.117c484.592,567.775 1007.05,1093.183 1609.767,1533.558c191.942,140.233 404.717,256.567 619.75,358.483c98.058,46.417 225.258,31.233 397.142,50.5c-138.183,-615.208 -636.792,-938.825 -883.25,-1521.025c202.167,81.058 325.208,124.633 443.708,179.033c480.808,221.058 958.208,449.992 1441.292,665.333c115.092,51.225 249.867,130.542 396.383,-4.392c-48.458,-82.192 -82.533,-162.942 -135.917,-227.308c-185.508,-222.5 -378.208,-439.242 -567.883,-658.258c-952.158,-1099.733 -2005.017,-2093.717 -3175.242,-2957.508c-536.842,-396.308 -1104.35,-750.633 -1705.175,-1152.467m-57173.708,66182.608c708.8,297.95 1417.783,595.525 2126.392,893.85c1496.908,629.975 2862.783,1490.133 4175.358,2432.825c654.208,469.833 1256.917,1010.833 1885.758,1516.258c431.975,347.167 866.592,691.308 1305.758,1029.008c92,70.417 190.05,174.533 381.617,90.108c-67.767,-113.958 -119.258,-222.992 -190.433,-316.883c-910.508,-1198.242 -1935.358,-2295.017 -3044.625,-3307.742c-462.975,-422.883 -979.15,-797.308 -1507.808,-1136.525c-1177.792,-756.042 -2487.942,-1223.983 -3822.208,-1610.9c-1089.467,-315.742 -2197.033,-569.025 -3296.158,-851.825c-390.817,-100.325 -779.558,-209.358 -1171.4,-305.525c-83.25,-20.442 -175.858,-3.025 -264.183,-3.025c-7.117,31.042 -14.275,61.708 -21.392,92.758c318.625,170.742 625.7,369.508 958.133,506.55c803.675,332.025 1619.192,635.275 2485.183,971.083m98745.208,-20453.35c279.775,689.417 552.742,1381.858 841.225,2067.858c436.133,1037.717 951.775,2033.033 1633.242,2934.458c93.508,123.8 216.55,224.883 358.15,369.508c53.758,-126.067 102.975,-190.05 105.25,-255.925c11.733,-314.983 13.633,-630.733 13.633,-945.717c0.758,-1856.225 -580.383,-3526.192 -1674.125,-5009.133c-680.325,-922.625 -1421.225,-1800.958 -2137.525,-2697.075c-26.883,-33.692 -77.233,-48.842 -123.042,-76.475c-91.617,422.125 155.225,1324.308 983.2,3612.508m-1122.517,-8943.442c751.883,1198.242 1449.242,2422.225 1879.7,3782.117c144.625,455.825 329.375,899.533 502.767,1345.892c47.325,122.667 119.258,235.858 189.292,371.017c224.125,-141.217 203.3,-328.992 209.358,-496.333c24.233,-658.75 -52.242,-1309.542 -194.592,-1951.258c-202.925,-915.808 -536.467,-1783.542 -968.058,-2617.192c-717.425,-1384.883 -1671.475,-2578.2 -2882.592,-3557.992c-626.567,-506.933 -1283.042,-977.142 -1929.675,-1459.092c-52.242,-38.992 -133.642,-38.992 -192.325,-54.517c-140.833,160.142 -93.508,313.85 -23.475,443.708c130.617,243.058 261.983,492.55 436.517,702.667c305.525,367.992 632.25,720.075 971.083,1057.025c736.358,732.192 1350.05,1562.825 2001.983,2433.958m-42497.008,8480.25c-436.258,729.042 -858.925,1462.2 -1315.567,2185.583c-267.942,424.758 -603.817,829.442 -881.567,1251.625c-114.725,175.05 -285.308,368.633 -30.95,605.992c186.433,-57.15 375.875,-96.283 534.375,-166.817c715.525,-318.7 1451.425,-620.408 2125.433,-976.175c1770.7,-934.467 3087.775,-2080.033 3234.2,-3672.492c55.85,-610.108 18.867,-1236.692 -119.25,-1840.108c-340.4,-1486.917 -1314.058,-2763.25 -2971.542,-3775.467c-189.45,-115.333 -430.975,-191.017 -648.35,-285.233c-52.833,22.142 -105.667,43.767 -158.5,65.392c17.358,176.6 11.317,355.767 55.85,528.758c113.217,439.175 267.942,873.2 372.1,1312.892c370.592,1567.75 503.433,3133.95 -196.242,4766.05m-47919.008,-2577.467c504.833,-748.592 1004.8,-1499.058 1515.508,-2245.15c181.7,-265.5 364.267,-530.608 547.275,-795.517c161.017,-233.075 322.367,-465.992 483.758,-698.875c812.308,-1172.15 1625.625,-2343.675 2401.892,-3531.225c466.2,-713.567 788.2,-1489.675 1154.175,-2243.892c95.125,-196.375 238.858,-419.633 -12.983,-669.167c-120.7,63.792 -239.167,103.817 -318.992,172.608c-1143.508,984.992 -2310.125,1954.342 -3414.225,2967.475c-1327.5,1218.883 -2550.058,2502.183 -3462.442,3965.592c-1157.5,1856.775 -1797.333,3849.892 -2404.325,5851.133c-220.467,727.325 -373.858,1467.792 -544.558,2203.875c-43.425,187.617 -160.967,405.875 161.892,569.733c501.283,-338.342 718.5,-811.758 1008.592,-1240.15c950.942,-1405.25 1886.817,-2816.75 2884.433,-4306.425m43637.75,21031.275c45.05,-136.292 90.483,-272.967 157.875,-476.642c-123.417,52.625 -174.908,62.092 -208.983,91.242c-247.6,213.9 -486.492,437.65 -737.875,647.392c-608.017,507.692 -1214.517,1017.65 -1834.267,1511.333c-423.267,336.942 -870,644.358 -1300.833,972.217c-273.725,208.225 -267.667,301.733 9.842,515.642c39.75,30.667 83.667,56.033 123.042,87.458c568.267,457.333 1147.883,901.8 1701.008,1376.933c534.95,459.608 537.975,471.725 707.967,-235.108c363.067,-1507.167 801.475,-2991.242 1382.233,-4490.458m-13890.108,-489.9c-138.183,-92 -243.433,-251.008 -491.792,-234.35c38.992,145.758 61.708,265.392 102.6,378.208c551.225,1519.658 1016.517,3063.175 1300.083,4657.417c63.6,358.9 194.217,396.383 475.892,169.608c382,-308.175 766.642,-614.833 1162.65,-904.833c325.208,-238.133 673.892,-443.333 1001.75,-677.675c196.867,-140.458 199.517,-235.858 19.683,-389.567c-219.958,-188.158 -451.658,-364.2 -683.733,-537.6c-1001.375,-747.717 -1942.167,-1565.85 -2887.133,-2461.217m17829.717,-60235.408c314.608,839.792 699.258,1644.525 1175.9,2405.792c142.725,228.292 305.142,391.8 596.283,389.725c680.325,-4.85 1360.275,1.175 2040.6,-2.992c106.383,-0.642 235.483,17.867 297.192,-171.808c-76.1,-69.625 -162.417,-153.442 -253.658,-231.775c-572.05,-491.45 -1171.358,-955.067 -1712.742,-1478.508c-841.608,-813.592 -1645.733,-1665.65 -2350.667,-2605.35c-83.667,-111.908 -158.633,-258.725 -386.542,-238.775c98.058,669.117 364.583,1265.783 593.633,1933.692m-14819.167,48240.15c-918.083,184.75 -1807.767,451.658 -2618.333,935.117c-193.458,115.467 -382.758,244.95 -551.608,392.975c-205.95,180.967 -177.942,291.892 72.692,420.617c11.358,5.675 22.717,11.358 34.45,15.9c560.317,219.2 1134.633,332.783 1736.975,224.883c1390.942,-249.867 2538.825,-996.825 3661.35,-1794.9c40.508,-28.775 76.1,-67.392 105.25,-107.517c97.675,-134.775 69.283,-243.058 -92.758,-284.325c-119.258,-30.667 -250.625,-43.542 -372.908,-31.042c-637.925,66.25 -1274.333,143.108 -1975.108,228.292m741.658,6740.8c61.708,-12.875 123.8,-23.475 184.75,-38.992c528.508,-136.675 969.567,-420.233 1327.342,-824.95c224.5,-254.033 189.675,-449.383 -106.383,-611.042c-196.867,-107.9 -409.633,-209.358 -627.325,-251.383c-1005.533,-193.083 -2003.883,-170.742 -2978.375,178.692c-421.375,151.058 -481.567,321.8 -205.2,665.183c602.717,749.233 1384.883,1057.025 2405.183,882.492m8198,-5787.133c-521.7,-190.05 -1035.825,-405.092 -1566.983,-562.583c-433.108,-127.967 -884.383,-202.55 -1331.883,-271.067c-262.742,-40.508 -347.55,84.425 -276.375,337.325c13.633,48.083 34.45,94.65 56.033,140.458c600.442,1282.667 1808.15,1902.042 3079.458,1677.533c483.083,-85.558 957.458,-223.75 1432.967,-347.925c99.567,-26.125 187.4,-95.783 293.783,-152.95c-98.808,-221.1 -263.117,-294.925 -423.267,-357.392c-399.792,-155.6 -804.508,-297.575 -1263.733,-463.392m-2019.783,4748.283c618.242,498.225 1301.975,553.117 2034.167,307.033c425.158,-142.725 801.475,-369.883 1150.917,-643.6c136.675,-106.767 308.55,-222.992 273.725,-422.883c-36.342,-206.708 -250.25,-232.075 -412.283,-285.075c-723.108,-236.242 -1467.792,-385.025 -2225.733,-417.208c-424.025,-18.175 -856.375,29.15 -1276.608,98.433c-350.95,57.925 -427.05,242.675 -230.183,542.142c184.75,281.675 427.808,525.108 686.008,821.167m11956.592,-7394.533c9.85,191.667 20.683,383.333 40.392,746.983c2677.267,-1103.375 4756.625,-2801.442 6398.633,-5113.875c2086.25,-2937.158 3343.125,-5604.95 3158.933,-6751.842c-716.1,108.783 -1255.892,571.892 -1780.9,1014.275c-2318.717,1949.817 -4339.967,4208.375 -6135.642,6689.675c-718.075,992.525 -1320.9,2062.75 -1681.417,3414.775m-843.45,4627.542c206.817,-600.233 454.992,-1197.833 602.717,-1802.283c69.925,-282.467 45.3,-594.958 -491.433,-866.883c-325.975,114.883 -676.575,205.525 -949.375,340.958c-974.983,483.767 -1720.508,1060.292 -2133.15,1737.983c-851.883,1398.083 -1671.258,2801.967 -2482.767,4207.425c-95.525,164.417 -59.083,350.442 -86.667,548.592c748.475,-84.842 740.592,-89.058 1211.342,-319.875c2110.492,-1032.883 3479.417,-2307.125 4329.325,-3845.908m-34717.508,-7697.4c383.608,500.392 721.775,1089.383 1161.258,1483.667c1082.3,970.617 2209.292,1856.533 3325.108,2761.917c108.75,87.617 265.917,73.017 426.067,111.958c174.3,-709.708 -50.65,-1264.625 -246.55,-1809.8c-470.758,-1300.642 -1129.967,-2439.675 -1867.392,-3494.992c-1068.892,-1531.375 -2133.308,-3076.375 -3449.5,-4266.033c-231.658,-209.308 -495.342,-357.283 -753.808,-540.308c-343.383,1142.925 230.908,3453.125 1404.825,5753.592m9819.2,11059.433c515.175,276.283 826.05,658.3 1831.975,808.658c0,-209.342 48.85,-366.608 -7.775,-514.842c-489.633,-1267.717 -923.758,-2542.342 -1531.083,-3797.308c-364.175,-754.467 -968.167,-1487.683 -2076.233,-2088.067c-310.883,-167.892 -646.183,-430.367 -1149.15,-295.408c-285.342,76.508 -481.858,360.233 -461.875,544.6c78.833,756.058 167.65,1517.433 419.683,2263.933c379.717,1122.667 1638.783,2072.125 2974.45,3078.442m47132.925,18109.225c0,0 -2.65,0.375 0,0m-18326.808,-26271.908c0,0 2.65,-0.375 0,0Z" style="fill-rule:nonzero;"/><path id="path2-6" d="M208916.733,106863.408c887.792,861.292 1754.767,1705.175 2625.9,2544.883c399.033,385.025 811.317,756.042 1208.083,1143.342c317.258,309.308 308.175,380.858 -72.308,620.508c-1259.567,791.633 -2525.2,1573.425 -3782.875,2367.708c-1353.842,855.233 -2701.242,1719.933 -4051.3,2580.85c-595.142,379.725 -1196.725,749.992 -1782.783,1143.725c-268.042,180.592 -495.575,174.533 -764.75,6.433c-1058.542,-661.4 -2123.892,-1311.433 -3189.25,-1962.233c-1592.35,-972.6 -3185.458,-1943.308 -4780.083,-2911.358c-571.292,-346.792 -1149.025,-682.6 -1723.342,-1024.467c-64.742,-38.242 -129.475,-79.125 -187.783,-126.45c-131.75,-107.142 -142.35,-233.967 -34.075,-361.933c89.725,-105.625 187.783,-204.058 285.833,-302.117c2496.05,-2497.558 4995.5,-4992.092 7488.142,-7493.058c613.692,-615.967 1206.95,-1252.375 1809.658,-1879.325c52.625,-54.517 106.767,-107.142 160.525,-160.525c399.792,-396.383 424.025,-397.9 812.458,-10.6c812.458,810.183 1614.692,1630.967 2437.742,2430.55c1166.058,1133.125 2346.883,2250.717 3540.2,3394.067m-5108.45,7425.142c253.808,-565.958 512.842,-1131.292 757.958,-1697.867c158.2,-364.175 382.45,-727.742 427.65,-1093.767c276.417,-2254.592 -252.075,-4500.567 -773.6,-6744.092c-126.908,-542.575 -716.233,-1073.467 -1138.675,-1604.975c-81.708,-101.5 -387.675,-180.858 -803.158,-366.025c-321.608,283.592 -657.125,471.833 -744.05,674.225c-488.5,1131.3 -973.525,2263.208 -1345.55,3400.033c-219.042,669.308 -451.992,1353.375 -288.575,2018.983c472.85,1913.175 582.375,3842.958 1755.817,5729.058c252.075,403.55 264.242,839.092 1055.225,1259.867c844.875,-497.058 651.917,-1010.108 1096.95,-1575.45m-1234.083,-9563.417c0,0 2.65,-0.375 0,0Z" style="fill-rule:nonzero;"/><path id="path5-4" d="M216082.317,37828.875c991.908,50.542 1951.633,61.858 2901.9,162.908c760.967,80.942 1512.467,262.7 2264.35,417.733c203.3,41.875 392.975,149.242 590.225,299.542c-84.808,31.875 -167.333,81.4 -254.792,92.6c-449.767,57.583 -900.292,112.975 -1351.95,154.842c-953.292,88.442 -1907.717,164.8 -2861.383,252.067c-991.15,90.75 -1982.675,179.642 -2972.317,284.967c-2173.492,231.358 -4319.342,610.742 -6406.125,1274.792c-1020.683,324.833 -2031.517,679.567 -3046.9,1019.167c-56.033,18.55 -116.225,23.092 -168.85,33.317c-20.442,-43.542 -43.158,-68.525 -38.992,-87.458c262.742,-1175.142 811.7,-2131.992 1967.533,-2651.992c1139.933,-512.875 2344.233,-769.142 3572,-937.917c1149.4,-158.058 2304.1,-242.033 3465.992,-245.292c767.783,-2.158 1535.567,-45.092 2339.308,-69.283l-0,0.008Z" style="fill-rule:nonzero;"/><path id="path6-8" d="M194617.367,39839.758c-2048.175,-248.883 -4063.033,-496.258 -6079.025,-733.367c-1089.208,-128.117 -2180.683,-237.792 -3270.642,-358.483c-119.258,-13.175 -236.242,-44.108 -354.358,-66.783c-3.408,-25.892 -6.817,-51.75 -10.225,-77.608c96.158,-43.383 188.917,-95.975 288.483,-128.642c818.892,-269.292 1660.875,-439.433 2519.9,-485.242c968.433,-51.642 1939.9,-86.625 2909.467,-78.175c843.125,7.342 1687,69.058 2527.85,135.992c1117.975,88.967 2236.708,182.067 3349.767,317.942c1202.025,146.742 2392.692,358.983 3540.958,774.558c894.233,323.767 1482.183,926.333 1807.767,1806.708c111.683,301.733 241.917,598.175 257.442,1006.675c-2452.892,-977.9 -4907.292,-1711.983 -7487.383,-2113.558l0,-0.017Z" style="fill-rule:nonzero;"/></g><defs><linearGradient id="_Linear1" x1="0" y1="0" x2="1" y2="0" gradientUnits="userSpaceOnUse" gradientTransform="matrix(0,-139729.625113,139729.625113,0,139133.333333,144703.553685)"><stop offset="0" style="stop-color:#b0c37c;stop-opacity:1"/><stop offset="1" style="stop-color:#fff;stop-opacity:1"/></linearGradient></defs></svg>