<?xml version="1.0" encoding="UTF-8" standalone="no"?><!DOCTYPE svg PUBLIC "-//W3C//DTD SVG 1.1//EN" "http://www.w3.org/Graphics/SVG/1.1/DTD/svg11.dtd"><svg width="100%" height="100%" viewBox="0 0 278267 150075" version="1.1" xmlns="http://www.w3.org/2000/svg" xmlns:xlink="http://www.w3.org/1999/xlink" xml:space="preserve" xmlns:serif="http://www.serif.com/" style="fill-rule:evenodd;clip-rule:evenodd;stroke-linecap:round;stroke-linejoin:round;stroke-miterlimit:1.5;"><path id="U1-muscle" d="M252758.9,5279.775c11158.175,0 20203.5,8921 20203.5,19925.825l0,99627.758c0,11004.817 -9045.325,19925.825 -20203.5,19925.825l-227285.967,0c-11158.175,0 -20203.5,-8921 -20203.5,-19925.825l0,-99627.758c0,-11004.817 9045.325,-19925.825 20203.5,-19925.825l227285.967,0Z" style="fill:url(#_Linear1);stroke:#000;stroke-width:10573.25px;"/><g id="g21"><path id="path51" d="M206196.55,110354.708c-1223.725,523.383 -2990.958,1084.558 -4086.558,1950.792c-1967.1,1555.275 -4505.942,2872.517 -4322,5263.758c60.992,792.992 1208.058,2050.892 1799.433,2539.383c988.275,816.342 1855.85,1367.467 5011.5,3615.683c84.7,60.342 1695.758,-896.608 2354.392,-1311.733c3685.317,-2322.8 5673.533,-4931.908 4961.05,-6995.925c-474.233,-1373.833 -1138.575,-2115.467 -2926.183,-3296.158c-637,-420.733 -1967.917,-1119.433 -2791.642,-1765.8l0.008,0Zm-773.592,-17052.567c-1176.633,462.9 -2596.358,1042.533 -3699.767,1732.158c-1466.908,916.817 -4312.733,2153.625 -2505.75,4322c680.883,817.067 2656.658,1493.183 3716.583,1917.15c615.2,246.083 1518.592,804.925 2152.592,1025.842c464.583,161.883 1118.975,777.475 1345.367,672.683c3759.867,-2275.142 9281.975,-4398.9 2808.458,-7719.067c-1112.042,-570.35 -2549.792,-1237.483 -3817.492,-1950.783l0.008,0.017Zm8189.933,-79593.367c-352.158,-2.033 -705.642,13.808 -1061.583,50.45c-848.425,87.333 -1670.758,260.292 -2419.567,704.217c-387.617,229.942 -798.608,424.283 -1204.525,622.233c-1166.242,568.808 -2160.167,1345.308 -2938.792,2390.133c-315.108,422.775 -477.875,413.017 -796.717,0c-380.167,-492.725 -818,-930.442 -1320.142,-1303.325c-949.733,-705.283 -1987.942,-1248.833 -3090.15,-1664.892c-1018.85,-384.617 -2075.208,-655.4 -3167.925,-676.892c-1093.392,-21.483 -2188.05,-50.908 -3281.442,60.958c-1185.55,121.325 -2340.508,384.458 -3466.433,765.183c-839.275,283.692 -1618.108,693.783 -2333.375,1217.142c-326.967,239.225 -690.508,367.308 -1080.5,460.367c-592.267,141.183 -1181.525,299.333 -1761.592,483.492c-809.458,256.917 -1578.392,617.958 -2310.25,1044.767c-652.583,380.517 -1292.15,789.892 -1910.842,1223.45c-432.683,303.417 -842.942,646 -1223.45,1013.233c-632.592,610.558 -1255.842,1235.317 -1837.267,1894.025c-269.025,304.775 -551.025,503.783 -939.658,607.517c-467.583,124.817 -930.058,277.767 -1379,458.267c-921.267,370.317 -1754.725,884.258 -2427.975,1627.058c-628.525,693.692 -1259.258,1387.575 -1868.8,2097.933c-739.658,861.85 -1346.583,1815.275 -1788.925,2861.017c-355.867,841.45 -671.367,1701.333 -977.492,2562.508c-177.175,498.35 -392.733,953.992 -800.917,1309.633c-280.517,244.383 -555.467,501.833 -796.708,784.1c-373.15,436.6 -753.758,873.767 -1061.583,1355.883c-597.25,935.392 -1050.292,1948.867 -1402.125,3001.858c-428.45,1282.117 -568.975,2599.55 -424.633,3943.617c35.342,329.408 -8.333,617.683 -201.808,897.608c-755.583,1093.283 -1321.683,2283.717 -1795.225,3550.517c-112.05,347.367 -227.867,665.517 -315.325,992.208c-315.85,1180.042 -519.117,2377.55 -603.317,3600.967c-68.717,998.733 -12.575,1984.875 88.292,2972.425c89.517,875.717 230.283,1740.967 523.433,2581.433c171.583,492.083 355.758,973.842 592.8,1435.758c425.567,829.625 980.667,1572.65 1610.242,2253.492c268.892,290.775 384.883,608.983 468.775,983.8c145.083,647.633 327.6,1290.258 540.25,1919.25c202.45,599.175 492.233,1164.7 840.858,1696.425c408.592,622.892 819.208,1244.55 1402.125,1723.75c409.808,336.867 820.058,674.725 1250.775,983.8c481.367,345.333 688.933,756.642 554.967,1364.292c-78.742,356.858 -56.475,743.383 -42.042,1114.133c25.142,645.258 315.408,1196.35 691.6,1700.633c188.792,253.158 306.758,514.9 334.242,832.45c29.142,336.525 75.392,675.683 157.658,1002.725c275.908,1097.35 644.283,2159.233 1158.283,3174.233c470.633,929.933 1053.442,1758.308 1854.092,2427.967c452.333,378.208 935.892,702.9 1484.108,933.35c1049.008,441.242 2137.75,542.7 3256.217,407.817c289.7,-35.242 512.325,50.342 731.542,254.358c522.467,486.317 1107.725,890.292 1763.7,1181.408c943.292,418.875 1930.642,703.708 2934.592,927.042c989.708,219.608 1986.792,265.533 2993.442,88.292c1020.883,-179.617 1997.25,-502.825 2919.875,-960.675c309.35,-54.683 968.292,-454.517 1742.675,-1181.4c186.692,660.175 442.35,1326.15 779.892,2001.233c950.1,1900.208 2212.583,3416.3 3899.467,4681.467c125.925,94.45 2092.45,1140.592 2123.158,1330.65l0,4.2c0,41.217 -1374.358,836.817 -1473.6,899.717c-5907.975,3744.767 -6117.192,10464.467 -1538.767,14237.8c1460,1203.267 3600.967,1918.967 3600.967,2121.058c0,20.908 -2974.108,1792.658 -4149.625,3123.783c-3117.525,3530.217 -3743.6,5626.9 -3016.567,9262.033c570.575,2852.883 1679.475,3878.325 3529.492,5728.333c1022.575,1022.567 4090.025,2790.117 4137.008,3024.983l0,2.1c26.633,255.508 -5497.675,5811.075 -3464.325,6827.758c1567.633,783.825 2829.733,-3550.917 4002.475,-2943c1668.517,864.917 399.833,1812.467 807.225,2219.858c276.675,276.675 858.833,638.458 1059.475,538.15c446.667,-223.333 1391.792,-1391.783 1698.533,-1698.533c512.842,-512.842 1551.475,-1354.55 2186.225,-1883.517c4459.667,-3716.383 9230.233,-4654.8 12007.425,-10241.633c2156.75,-4338.692 630,-8089.892 -1311.733,-10678.875c-691.2,-921.608 -1740.217,-1830.7 -2640.283,-2505.758c-303.575,-227.683 -950.458,-573.667 -994.317,-670.583l-2.1,-2.1l0,-12.608l4.2,-4.2c348.383,-278.292 2160.2,-1565.5 3144.8,-2303.95c2587.308,-1940.483 3395.367,-5120.85 2791.642,-8139.483c-427.117,-2135.567 -2917.233,-4726.975 -4708.792,-5801.908c-429.4,-257.642 -687.667,-471.3 -1223.45,-807.225c-159.908,-100.267 -840.192,-425.708 -889.208,-489.8l0,-2.1l-2.1,-2.1l0,-2.1c-5.458,-35.767 1139.125,-825.942 1303.325,-962.775c914.733,-762.283 1887.792,-1409.042 2625.575,-2331.275c887.225,-1109.033 1502.342,-2311.967 1910.842,-3573.642c720.758,1043.483 1636.958,1837.95 2003.342,2167.308c1168.275,733.717 2448.933,1212.367 3764.933,1589.217c978.192,279.933 1964.325,275.408 2928.283,-96.7c325.95,-125.733 645.433,-270.225 966.983,-407.817c437.425,-186.733 879.967,-348.567 1360.083,-388.892c258.525,-22.025 517.1,-48.642 773.592,-88.292c943.292,-145.725 1854.575,-384.175 2682.325,-887.1c765.408,-465.308 1385.675,-1085.442 1921.358,-1791.025c220.917,-290.775 480.75,-457.808 842.958,-496.108c245.992,-25.758 491.317,-75.3 731.55,-136.633c729.158,-186.733 1365.308,-553.058 1868.8,-1107.833c695.275,-766.25 1221.7,-1648.917 1654.383,-2585.633c203.633,-440.567 383.458,-892.533 563.375,-1343.267c107.408,-268.75 283.567,-452.008 554.967,-557.067c1155.058,-447.683 2093.575,-1187.075 2861.017,-2152.592c603.108,-759.467 1064.075,-1593.042 1343.267,-2524.675c192.117,-641.533 286.25,-1298.617 317.425,-1967.608c63.7,-1376.267 143.883,-2752.475 -75.675,-4122.3c-58.617,-365.675 24.325,-687.95 203.908,-1004.825c420.483,-743.2 718.55,-1535.092 851.367,-2379.625c55.225,-352.792 199.458,-643.3 439.35,-893.408c806.408,-840.125 1424.625,-1805.617 1910.842,-2858.917c479.442,-1039.058 633.592,-2133.925 575.992,-3270.933c-39.3,-776.758 -73.758,-1557.633 -37.842,-2333.375c30.492,-666.95 35.367,-1325.883 -6.308,-1992.833c-85.725,-1377.617 -587.025,-2608.108 -1374.8,-3697.667c-616.325,-852.667 -1172.308,-1741.925 -1759.492,-2610.858c-180.258,-267.05 -263.758,-563.533 -220.725,-899.717c29.475,-232.142 2.85,-472.208 -6.308,-708.425c-6.775,-180.292 -32.417,-360.3 -37.833,-540.25c-25.075,-882.15 -107.942,-1757.858 -283.792,-2623.475c-235.483,-1160.658 -671.142,-2222.975 -1500.925,-3096.45c-207.025,-218.083 -317.267,-491.258 -384.692,-782c-68.783,-296.842 -126.25,-597.275 -212.317,-889.208c-182.625,-620.825 -473.067,-1191.867 -805.117,-1746.875c-402.183,-672.275 -856.967,-1298.7 -1423.15,-1841.475c-588.2,-563.725 -1169.042,-1130.617 -1536.667,-1877.208c-114.183,-231.6 -263,-449.55 -414.117,-660.075c-744.067,-1036.692 -1502.167,-2056.408 -2434.283,-2943c-738.642,-702.908 -1530.7,-1334.567 -2343.883,-1942.375c-805.392,-602.425 -1616.458,-1194.875 -2293.433,-1948.683c-316.467,-352.592 -643.817,-695.792 -979.6,-1030.05c-985.308,-980.6 -2154.758,-1671.933 -3453.817,-2146.283c-561.433,-205.1 -1133.167,-383.017 -1702.733,-565.475c-253.1,-81.067 -460.233,-217.683 -662.175,-391c-376.1,-322.567 -747.833,-669.883 -1175.092,-910.225c-794.883,-447.242 -1626.592,-828.192 -2446.892,-1229.75c-283.258,-138.742 -569,-282.542 -868.183,-378.383c-1203.85,-385.733 -2410.008,-764.908 -3621.992,-1124.642c-1023.592,-303.842 -2063.1,-477.4 -3119.575,-483.492l0,-0.008l-0,0.033Zm-9186.35,50550.183c1429.008,1172.092 -138.025,1791.783 2255.6,4044.525c165.175,155.458 2007.967,1763.717 3338.2,2156.792c239.842,70.875 490.783,159.217 746.258,264.867c226.567,968.833 638.45,2091.675 676.883,2631.883c532.392,7482.275 728.375,8197.892 -6222.333,12545.575c-94.35,59.008 -4485.442,-2518.983 -5885.992,-3615.683c-2369.108,-1855.125 -1789.675,-4974.392 -369.975,-10594.792c48.3,-177.1 207.392,-698.258 393.1,-1366.392c1149.525,-827.35 2539.042,-1775.583 2882.033,-2011.75c1142.325,-786.533 1211.133,-3062.608 2186.225,-4055.033l0,0.008Z"/><path id="path31" d="M202823.892,17840.2c-525.633,-453.5 -1147.125,-1023.483 -1777.608,-1373.792c-414.333,-230.208 -1552.225,-571.033 -2029.158,-666.417c-2997,-599.4 -3419.3,-374.175 -6441.525,-64.875c-688.017,70.408 -2911.025,1137.142 -3494.492,1567.292c-874.533,644.733 -2546.633,1924.175 -1513.042,2453.817c1766.725,905.333 2066.425,1607.658 -172.042,1592.183c-642.708,-4.442 -1376.35,94.567 -2802.025,890.817c-1560.633,871.617 1345.333,-3259.925 -2253.325,-502.125c-1896.7,1453.525 -1798.317,4857.575 -3266.225,4998.225c-848.967,81.342 1952.017,-4596.567 -855.608,-1726.717c-284.058,290.35 -1777.35,497.283 -2292.108,716.867c-308.4,131.558 -986.575,491.142 -1236.717,713.492c-1250.217,1111.308 -2356.542,2581.9 -2949.092,4162.025c-452.408,1206.417 -356.417,2639.267 -927.533,3781.5c-538.15,1076.3 -2176.642,1230.275 -2877.742,2211.817c-1093.45,1530.825 -1375.725,2290.183 -1522.108,5660.358c-81.35,1872.875 2264.85,3886.75 1450.758,5921.967c-149.692,374.233 -1236.825,-701.525 -1498.325,-1022.667c-1025.6,-1259.525 -1422.217,-816.867 -1878.858,190.267c-1291.108,2847.55 -1247.125,7333.342 -190.267,8918.625c561.442,842.158 1258.433,-497.033 1855.075,1094.017c761.25,2030 563.233,4434.45 2473.433,5707.917c317.408,211.608 552.408,428.1 951.317,428.1c346.692,0 523.225,-942.6 523.225,-1189.15c0,-252.225 -177.133,-592.092 -285.4,-808.625c-495.633,-991.267 -1168.7,-2021.333 -1474.55,-3091.792c-270.517,-946.817 -167.317,-1951.883 -618.358,-2853.958c-324.925,-649.85 -1182.867,-1000.008 -1664.808,-1522.117c-171.55,-185.842 -297.633,-496.058 -428.092,-713.492c-482.867,-804.783 -990.133,-1613.067 -380.525,-2425.867c215.558,-287.408 430.692,-542.775 808.625,-618.358c979.758,-195.958 2076.408,2982.083 2663.7,1807.508c563.8,-1127.6 -303.433,-2591.55 0,-3805.283c214.317,-857.267 348.833,-1876.242 903.75,-2616.133c661.15,-881.533 1547.425,-1572.125 2140.475,-2521c539.783,-863.658 732.592,-2531.533 808.625,-3519.883c75.975,-987.633 -343.158,-3117.083 1141.583,-3282.058c2403.667,-267.075 2144.175,4087.175 2616.125,5660.358c314.367,1047.9 944.733,1879.225 1474.542,2806.4c235.558,412.225 571.692,762.258 856.192,1141.583c385.858,514.475 -11.042,1792.008 -475.658,2140.467c-1913.567,1435.175 -3916.167,-3726.742 -6040.883,-1736.158c-3019.85,2829.192 -1923.783,6735.917 -2235.6,8918.633c-350.308,2452.133 426.65,4504.35 1712.375,6754.375c242.233,423.9 533.208,1113.2 1046.45,1284.283c1058.008,352.667 2371.625,909.617 2568.567,-665.925c80.667,-645.325 11.992,-1212.742 -285.392,-1807.508c-422.317,-844.625 -1415.942,-1109.308 -1997.775,-1807.508c-576.967,-692.358 -488.133,-2108.533 -428.092,-2949.092c15.475,-216.692 -79.967,-755.308 142.7,-903.75c229.483,-152.992 794.9,-425.7 1046.458,-142.7c324.925,365.542 523.367,793.1 713.483,1236.717c113.95,265.892 248.108,579.55 428.1,808.625c500.783,637.358 4060.45,4499.2 4851.733,2521c500.767,-1251.917 -813.225,-2894.467 -1236.717,-3995.55c-413.342,-1074.692 -570.792,-2087.333 -570.792,-3234.483c0,-473.067 635.842,-2112.317 1284.283,-1950.208c757.9,189.475 2399.625,3782.325 2949.092,4661.475c1187.133,1899.417 4730.858,702.3 5707.917,2330.733c1140.483,1900.808 -1696.083,3727.758 -1522.117,4423.642c175.992,703.967 534.558,1239.742 903.758,1855.075c566.842,944.733 1303.7,1757.033 2235.6,2378.3c1950.025,1300.017 6077.675,1162.767 8324.05,713.492c1543.4,-308.675 3627.4,-2125.7 2711.267,-3805.283c-686.575,-1258.725 -2699.625,-2579.183 -2378.3,-4185.808c120.842,-604.208 1619.258,-862.225 1855.075,-1569.683c412.233,-1236.708 -1993.908,-1267.258 -761.058,-3424.758c562.967,-985.192 1977.067,-963.625 2283.167,-2188.033c427.667,-1710.65 -3077.092,-1954.067 -2425.867,-4233.375c212.525,-743.858 1407.867,-887.083 2045.342,-1046.45c349.883,-87.475 673.183,-395.85 951.317,-618.358c999.208,-799.367 1252.517,-1347.967 998.883,-2616.133c-609.175,-3045.883 -4896.817,-1557.283 -5279.825,-3472.317c-260.733,-1303.692 1418.775,-1181.183 2140.467,-1284.283c441.383,-63.05 904.392,-341.425 1236.717,-618.358c139.433,-116.2 341.258,-204.633 285.4,-428.092c-355.633,-1422.542 -2964.983,-63.5 -3567.45,-1569.675c-141.8,-354.5 -113.975,-656.967 0,-998.883c534.633,-1603.917 3802.933,-309.5 3995.542,-2235.6c204.65,-2046.483 -3690.742,-566.967 -3900.417,-2663.7c-26.517,-265.175 -16.242,-658.733 95.133,-903.75c612.575,-1347.65 4020.983,-255.892 5042,-1617.242c134.467,-179.283 142.7,-407.9 142.7,-618.358c0,-1517.942 -1621.55,-1310.117 -1807.508,-2425.867c-170.2,-1021.208 633.067,-1666.767 1094.017,-2473.433c974.617,-1705.575 891.6,-2952.808 284,-3937.283l-0.033,-0.033Z" style="fill:#cda18d;"/><path id="path32" d="M220329.575,17068.442c-2228.25,-1626.35 -7479.875,-2536.233 -10845.05,-1094.017c-571.658,245 -1259.908,1069.408 -1617.242,1569.675c-1831.75,2564.458 1581.117,1784.633 808.625,3329.625c-353.008,706.017 -1078.067,1196.85 -1379.417,1950.208c-314.833,787.075 -257.8,1694.175 -332.967,2521c-40.192,442.1 -161.55,1008.742 47.558,1426.983c665.333,1330.658 2398.408,-851.158 3329.625,-618.358c338.842,84.717 582,270.025 856.183,475.658c345.525,259.142 475.658,562.108 475.658,998.883c0,890.742 -880.508,2176.417 -1664.808,2568.567c-621.85,310.925 -2208.625,730.892 -2996.658,1260.5c-216.967,145.817 -239.292,1162.092 -142.7,1379.417c444.7,1000.583 2990.592,-226.7 3852.85,-118.917c761.967,95.25 1587.075,826.017 2092.9,1331.85c331.908,331.908 739.283,1064.133 285.4,1308.067c-1783.725,958.608 -4759.583,-1983.5 -6326.275,523.225c-295.433,472.692 -718.558,2765.433 -808.625,3305.842c-168.325,1009.925 648.192,2955.058 1807.508,3186.925c801.658,160.333 3647.008,-696.233 3900.417,570.792c365.925,1829.633 -3047.292,2562.15 -4233.375,3424.758c-722.575,525.508 -1185.592,1395.708 -1379.417,2235.6c-96.6,418.608 -190.492,950.633 -47.558,1379.417c250.992,752.958 836.458,2186.375 1617.242,2521c1016.633,435.7 2286.642,149.65 2853.958,1284.283c1251.008,2502.017 -3080.183,1790.742 -4376.075,3662.583c-459.917,664.317 -662.825,1530.267 -618.358,2330.733c93.183,1677.375 1709.8,5563.933 3329.617,6373.85c576.267,288.133 1245.383,387.883 1855.075,570.792c2510.95,753.283 2878.142,567.217 5089.558,-380.533c974.158,-417.492 1807.433,-1084.383 2378.3,-1997.767c763.233,-1221.175 82.45,-3194.325 1426.983,-4090.675c2230.483,-1486.992 4402.292,2217.158 5660.358,1902.642c348.358,-87.092 845.025,-1776.383 1046.45,-2092.908c378.192,-594.308 875.333,-1132.208 1331.85,-1664.808c1229.442,-1434.35 5386.342,-3057.833 7182.467,-3472.317c1204.458,-277.95 3088.642,-334.133 2711.258,1426.975c-112.983,527.258 -1830.817,1183.775 -3163.142,1664.817c-1595.458,576.042 -2525.158,1173.025 -3638.8,2425.867c-1444.125,1624.642 2399.8,3537.15 4043.108,3947.975c1364.542,341.133 2849.792,-211.958 4043.117,-808.625c3801.733,-1900.867 6398.975,-3741.225 7230.033,-8228.925c325.483,-1757.617 -44.733,-4266.567 -1474.55,-5517.658c-434.15,-379.883 -939.15,-463.858 -1474.542,-285.4c-2736.583,912.192 -1658.858,6257.908 -3805.283,5184.7c-816.525,-408.258 -712.4,-2847.792 -856.183,-3662.583c-707.333,-4008.225 -2383.667,-4562.5 -6088.45,-4899.3c-1489.583,-135.417 -3530.85,983.533 -2330.733,2663.7c924.092,1293.725 1752.117,1981.225 2283.167,3829.067c85.075,296.033 112.342,1498.833 -95.133,1664.817c-1133.292,906.633 -1176.117,-2124.967 -3971.758,-808.625c-1569.192,738.867 -414.325,-1789.992 -808.625,-2972.883c-236.383,-709.158 23.683,-1379.525 -166.483,-2092.908c-214.517,-804.708 -884.933,-1652.05 -2354.517,-3044.225c-1800.442,-1705.608 -4920.942,-4525.192 -4066.892,-7087.333c253.15,-759.467 1287.067,-1080.033 1902.642,-618.358c2025.658,1519.242 2780.358,5754.842 5279.825,6468.975c2237.683,639.342 4768.908,-1214.592 5803.05,-3044.225c551.358,-975.483 1167.233,-2557.608 2235.6,-3091.792c326.775,-163.383 800.667,-55.525 1046.458,190.267c428.258,428.258 383.308,1485.675 523.225,2045.342c294.325,1177.3 669.075,2142.575 1664.808,2806.392c266.55,177.7 665.55,261.892 951.317,47.558c1103.275,-827.45 1251.567,-4098.425 475.658,-5184.7c-883.808,-1237.342 -1385.592,-1086.908 -1022.667,-2901.525c306.133,-1530.65 -2467.95,-4877.358 -3638.8,-5755.492c-661.017,-495.758 -1627.983,-343.708 -2235.6,-951.325c-318.9,-318.9 -524.608,-786.567 -808.625,-1141.583c-791.717,-989.642 -1675.425,-1942.275 -2853.958,-2473.433c-4100.025,-1847.858 -2319.817,748.583 -4280.942,-428.092c-376.508,-225.9 -1820.383,-2181.067 -1902.642,-2592.342c-223.242,-1116.208 3886.917,1110.392 4613.9,1141.583c1949.4,83.642 -1424.142,-1829.4 -1569.675,-1926.425c-593.542,-395.692 -1145.775,-1000.983 -1807.508,-1331.85c-1575.975,-787.983 -3676.425,-1149.808 -4851.733,-2521l0.017,-0Z" style="fill:#cda18d;"/><path id="path33" d="M187128.508,26629.217c-31.708,63.425 -158.55,158.55 -95.133,190.267c63.425,31.708 47.433,-137.8 95.133,-190.267c35.733,-39.308 383.292,-248.892 428.092,-428.092c181.975,-727.892 515.567,-2655.717 1664.808,-2425.867c162.2,32.442 385.408,73.792 523.225,142.7c163.242,81.617 277.425,602.683 237.825,761.058c-222.142,888.567 -805.325,1687.858 -665.925,2663.7c110.042,770.283 366.258,1517.35 475.658,2283.167c35.908,251.333 -47.558,475.717 -47.558,713.492c0,579.667 -832.15,1864.892 -1474.542,1094.017c-55.767,-66.917 -162.192,-364.925 -190.267,-428.092c-304.1,-684.217 -663.767,-1410.408 -1426.983,-1664.808c-798.942,-266.317 -1826.708,79.95 -2616.125,237.833c-353.558,70.708 -586.583,269.508 -903.758,428.092c-412.192,206.092 -803.158,342.65 -1189.15,618.358c-753.933,538.525 -1508.3,1388.617 -2045.342,2140.475c-521.425,730 -1001.667,1679.992 -1807.508,2140.467c-419.733,239.85 -1208.692,528.892 -1569.683,47.575c-267.183,-356.25 123.725,-1716.117 -428.092,-2378.3c-433.25,-519.908 -2140.467,-1328.2 -2140.467,-2045.342c0,-141.3 199.192,-294.325 285.392,-380.525c280.867,-280.867 583.425,-431.25 951.317,-523.225c311.283,-77.817 2193.808,465.208 2616.133,570.792c433.892,108.475 1087.1,79.1 1522.117,0c2006.417,-364.8 3662.308,-1683.675 5374.958,-2711.267c527.708,-316.625 1146.467,-524.85 1712.375,-713.492c283.817,-94.608 929.058,-142.7 713.492,-142.7c-238.358,0 -475.133,47.558 -713.492,47.558"/><path id="path34" d="M199638.367,19589.442c-728.4,-628.75 -2018.308,-89.058 -2663.692,475.658c-667.342,583.925 -871.067,1368.958 -713.492,2235.6c90.083,495.458 759.333,1273.683 237.833,1664.808c-149.992,112.5 -396.4,140.442 -570.792,190.267c-1725.658,493.042 -2937.85,-773.167 -4471.2,-1284.283c-193.642,-64.55 -1127.4,-222.792 -1094.017,-523.225c44.567,-401.117 405.108,-846.317 618.358,-1141.583c312.15,-432.217 757.358,-1065.542 1236.717,-1331.85c869.717,-483.175 1950.058,-629.267 2853.958,-1046.45c1440.317,-664.758 2826.158,-1830.083 4518.767,-1569.675c2013.358,309.75 1369.35,2330.733 47.575,2330.733l-0.017,-0Z"/><path id="path35" d="M197069.8,29863.7c-508.325,147.158 -923.558,435.625 -1474.542,380.525c-820.45,-82.05 -1616.35,-523.225 -2425.867,-523.225c-496.333,0 -1048.067,779.2 -903.758,1284.283c349.55,1223.425 1242.367,982.542 1997.767,1522.117c445.567,318.267 1314.792,1194.833 1902.642,998.883c1021.775,-340.592 2303.267,-3262.725 903.75,-3662.583l0.008,-0Z"/><path id="path36" d="M182990.267,40090.4c239.517,-622.325 651.875,-917.475 1141.583,-1331.85c890.392,-753.408 792.792,-931.142 1950.208,-1141.583c520.925,-94.717 997.925,-48.142 1474.542,237.833c512.342,307.408 414.708,835.4 190.267,1284.283c-698.233,1396.467 -2073.875,2221.3 -2425.867,3805.283c-232.492,1046.208 498.942,2048.342 332.958,3044.225c-129.108,774.658 -262.65,1749.6 808.625,1902.642c342.767,48.958 529.125,-247.7 761.058,-428.1c581.508,-452.283 913.742,-630.717 1046.45,-1426.975c253.783,-1522.708 -187.367,-2599.6 428.092,-4138.242c305.85,-764.625 1107.433,-2629.55 1664.808,-3186.925c332.325,-332.325 694.717,-713.8 998.883,-1094.017c494.308,-617.883 1716.725,-1465.858 1236.717,-2425.867c-516.392,-1032.783 -2701.283,-2587.742 -3900.417,-2188.033c-444.925,148.308 -501.3,757.408 -903.758,998.883c-1115.842,669.508 -2401.033,1082.583 -3662.583,1379.417c-1072.833,252.433 -5261.108,666.708 -5660.358,1664.808c-997.033,2492.575 3244.2,6018.233 4518.767,3044.225l0.025,-0.008Z"/><path id="path37" d="M194263.408,40399.575c432.725,157.408 896.008,33.742 1331.85,142.7c559.792,139.95 1411.408,239.567 1522.117,903.75c19.567,117.425 155.158,308.042 95.133,428.1c-203.092,406.183 -1982.742,918.55 -2473.433,1141.583c-980.1,445.5 -2087.792,1107.108 -2711.258,1997.775c-137.492,196.417 -712.925,1268.617 -1094.017,1141.583c-93.075,-31.033 -219.392,-219.392 -285.4,-285.4c-171.383,-171.392 -367.833,-377.325 -428.092,-618.358c-251.483,-1005.95 1148.708,-2906.867 1902.642,-3472.317c490.733,-368.05 959.383,-689.792 1474.542,-998.892c219.225,-131.533 780.258,-609.192 665.925,-380.525c-184.667,369.333 -394.5,332.967 -665.925,332.967"/><path id="path38" d="M186877.742,49817.358c227.983,58.267 460.892,350.067 903.75,856.192c554.442,633.65 1348.242,1351.458 1474.55,2235.608c167,1168.983 -988.867,3036.75 -856.192,3567.45c71.4,285.625 296.767,585 475.658,808.625c207.1,258.867 335.2,408.617 713.492,332.967c761.558,-152.317 1322.783,-1055.192 1759.942,-1617.242c646.525,-831.242 1676.8,-1769.875 2758.825,-1950.208c305.317,-50.883 647.075,-76.058 951.317,0c517.842,129.458 2680.367,1298.517 3044.225,570.792c270.417,-540.842 115.425,-1291.267 -142.7,-1807.508c-884.658,-1769.325 -1971,-1911.183 -3805.283,-2140.467c-676.933,-84.617 -1713.617,216.917 -2330.733,-47.558c-1007.292,-431.692 -1395.883,-1577.908 -2330.733,-2045.342c-675.242,-337.625 -1597.108,-533.3 -2283.167,-190.267c-260.125,130.058 -332.958,736.308 -332.958,998.883c0,142.7 -53,560.592 0,428.1c71.642,-179.092 63.417,-380.525 95.133,-570.792"/><path id="path39" d="M210721.25,22490.967c-63.425,15.858 -206.117,-15.858 -190.267,47.567c15.85,63.417 125.117,-52.992 190.267,-47.567c130.292,10.858 251.558,73.633 380.525,95.133c430.492,71.75 855.475,104.5 1284.283,190.267c641.408,128.283 1612.708,928.667 2283.167,761.058c738.5,-184.625 1046.083,-903.475 1617.242,-1331.85c1070.567,-802.925 2702.342,-1228.092 4043.108,-1094.017c406.667,40.667 2517.542,98.592 2758.825,-142.7c29.158,-29.158 3.767,-347.083 0,-380.525c-45.133,-406.225 -252.175,-632.7 -523.225,-903.75c-1419.725,-1419.725 -4809.975,-192.583 -6468.975,190.267c-601.308,138.767 -1240.842,234.208 -1855.075,285.4c-1156.075,96.342 -2853.575,-761.25 -3900.417,-237.833c-1376.692,688.35 -891.983,2144.392 380.525,2568.567l0.017,-0.017Z"/><path id="path40" d="M223468.933,25297.367c-43.25,-120.3 -1181.6,-1380.925 -2140.467,-1189.15c-401.233,80.25 -769.342,142.7 -1189.15,142.7c-308.275,0 -629.833,-25.908 -903.75,-190.267c-687.533,-412.517 -1076.883,-1320.917 -1950.208,-665.925c-1158.05,868.542 596.967,2176.125 -95.133,3329.625c-85.233,142.05 -139.7,297.25 -237.825,428.092c-509.025,678.7 -3023.742,2237.95 -1902.642,3234.492c139.558,124.05 359.117,350.292 570.792,380.525c2109.267,301.325 2742.758,-1363.35 3995.542,-2616.133c533.425,-533.425 1897.8,-698.175 2616.125,-618.358c1289.1,143.233 2543.05,1229.467 3567.45,1997.775c361.833,271.375 588.417,731.117 903.75,1046.45c342.942,342.942 753.042,612.35 1141.583,903.75c466.483,349.867 959.375,-182.983 1046.45,-618.358c188.433,-942.15 -1237.858,-2902.867 -1807.508,-3567.45c-494.75,-577.208 -1166.575,-1042.417 -1807.508,-1426.983c-137.367,-82.408 -326.7,-83.108 -475.658,-142.7c-200.192,-80.075 -678.258,-475.658 -903.758,-475.658c-143.575,0 -322.258,144.583 -428.092,47.558c-144.567,-132.525 -95.133,-380.525 -142.7,-570.792"/><path id="path41" d="M217998.85,32574.967c-335.483,214.9 -493.975,559.85 -665.925,903.758c-168.192,336.383 -400.592,470.708 -618.358,761.058c-466.783,622.375 -879.1,1277.683 -1522.117,1759.942c-435.567,326.675 -1059.708,686.2 -1569.675,856.192c-736.8,245.6 -2011.383,251.283 -1807.508,1474.55c209.433,1256.625 1767.15,844.675 2045.333,2235.6c48.333,241.683 145.967,554.458 95.133,808.625c-52.2,261.008 -52.333,567.242 -190.267,808.625c-301.942,528.4 -834.75,739.625 -1236.717,1141.583c-667.342,667.35 352.45,1572.467 998.883,1664.817c195.058,27.867 634.475,56.925 808.625,-47.558c673.583,-404.15 983.233,-1062.875 1236.717,-1759.942c127.758,-351.325 355.558,-686.142 475.658,-1046.45c222.925,-668.775 364.583,-1385.517 618.358,-2045.342c161.117,-418.9 365.925,-845.35 475.658,-1284.283c136.575,-546.308 -54.817,-124.575 142.7,-618.358c402.325,-1005.808 1772.933,-4276.55 1522.117,-5279.825c-286.717,-1146.858 -1189.15,288.233 -1189.15,-665.925"/><path id="path42" d="M212433.625,47796.092c1162.25,162.275 2154.375,625.308 3186.925,1141.583c527.783,263.892 1135.533,630.125 1522.108,1094.017c338.608,406.325 595.008,803.658 808.625,1284.283c282.225,635.008 752.867,1784.508 523.225,2473.433c-372.808,1118.425 -3053.375,1790.133 -4090.675,1617.242c-695.5,-115.917 -2818.517,-234.575 -3234.483,285.4c-375.742,469.675 66.225,969.975 428.092,1331.85c192.733,192.733 380.817,404.458 618.358,523.225c316.417,158.208 827.808,242.825 1046.45,570.792c744.792,1117.183 479.175,4499.042 2521,4090.675c1106.225,-221.242 933,-1328.292 761.058,-2188.042c-127.475,-637.367 111.9,-1555.65 380.525,-2092.9c298.308,-596.617 1354.033,-1093.383 1950.208,-1331.85c345.992,-138.392 700.283,-312.708 1046.45,-428.1c700.283,-233.425 1579.033,-294.75 2140.467,-856.192c866.642,-866.642 737.8,-3005.133 570.792,-4090.675c-116.558,-757.65 -392.567,-1591.958 -856.183,-2188.042c-601.233,-773.017 -956.392,-1412.525 -1712.375,-2092.908c-915.817,-824.233 -2828.175,-1709.958 -4090.675,-1569.675c-449.142,49.908 -880.4,240.25 -1331.85,285.4c-513.533,51.35 -1093.433,154.367 -1569.675,332.958c-331.442,124.292 -835.683,169.758 -1094.017,428.092c-393.933,393.933 208.392,1150.325 475.658,1379.417l-0.008,0.017Z"/><path id="path43" d="M232744.308,31909.042c-27.275,457.875 171.858,919.042 95.133,1379.417c-69.375,416.3 -294.075,730.858 -475.658,1094.017c-774.483,1548.975 -1832.633,2045.342 -3519.883,2045.342c-508.208,0 -1139.775,-10.55 -1569.675,-332.958c-305.508,-229.133 -753.683,-655.233 -665.925,-1094.017c93.442,-467.208 1154.908,-1257.642 903.758,-1759.942c-35.3,-70.617 -117.933,-163.533 -142.7,-237.833c-76.808,-230.417 -278.2,-377.65 -523.225,-475.658c-292.65,-117.058 -505.675,-90.85 -808.625,-47.558c-254.317,36.333 -459.867,22.667 -713.492,95.133c-335.917,95.975 -629.092,299.2 -951.317,428.092c-736.608,294.642 -1641.008,547.017 -2473.433,428.092c-1042.225,-148.892 -2386.392,-809.608 -2092.908,951.325c128.717,772.292 946.9,992.25 1331.85,1569.675c119.042,178.567 110.892,419.925 190.267,618.358c200.458,501.142 1223.108,43.55 1671.575,342.525c1475.608,983.742 2749.667,1761.375 4369.308,2368.742c1045.65,392.117 2419.025,1095.725 3567.45,808.625c1404.775,-351.192 2006.267,-2546.908 3234.483,-2853.958c1390.875,-347.717 739.292,502.942 1742.133,502.942c1211.717,0 1249.75,-860.2 1163.675,-1663.325c-157.2,-1466.767 261.167,-1575.433 -908.042,-2549.767c-378.933,-315.775 -817.158,-514.45 -1141.583,-903.75c-585.958,-703.15 -720.942,-1844.192 -1522.117,-2378.3c-159.808,-106.542 -361.675,-40.383 -523.225,0c-792.2,198.05 -468.925,1125.592 -237.825,1664.808l0,-0.025Z"/><path id="path45" d="M199335.167,84052.717c-573.508,-421.858 -442.133,-359.683 -1278.1,-1093.117c-398.008,-349.192 -735.875,-991.017 -941.758,-1513.542c-707.483,-1795.558 -683.558,-2771.942 -454.067,-4607.892c107.008,-856.067 989.442,-3599.267 840.858,-4994.692c-9.933,-93.292 -1701.358,1952.2 -2152.592,2455.3c-463.633,516.925 -653.575,547.425 -1059.483,1160.383c-308.933,466.517 -809.475,1847.108 -992.208,2303.95c-860.65,2151.617 -849,3494.15 487.7,5499.2c385.633,578.458 789.817,1622.558 1379,2118.958c423.058,356.433 1514.233,-975.042 2018.058,-723.133c412.942,206.475 3312.967,1470.458 3312.967,420.433" style="fill:#2e8061;"/><path id="path46" d="M212790.758,71760.942c489.117,306.458 664.192,446.833 1269.442,749.45c2328.317,1164.158 3252.467,2673.858 3252.467,5353.617c0,498.292 -64.942,1943.783 -218.625,2404.85c-202.083,606.25 -299.292,1382.142 -672.683,2203.042c-806.8,1773.733 -1727.442,3363.417 -4120.192,5129.225c-1029.467,759.725 -2512.783,1815.333 -3144.8,2236.675c-3408.525,2272.35 -6317.408,2902.5 -9888.467,5045.142c-1395.483,837.292 -2196.208,2829.725 -1479.908,4120.2c1470.05,2648.383 4182.242,2435.525 3800.667,3363.425c-727.308,1768.667 -3739.258,-1345.225 -4221.1,-1210.833c-722.983,201.65 -1860.217,919.775 -2287.125,706.317c-867.033,-433.517 -1307.217,-1823.433 -1479.908,-2673.925c-145.725,-717.692 -242.033,-2126.225 -100.9,-2690.742c164.233,-656.933 330.825,-1352.525 958.575,-2152.592c1981.125,-2524.925 5112.917,-4006.317 7887.725,-5393.725c2209.6,-1104.808 3189.333,-1537.592 5213.6,-2950.25c1024.1,-714.683 1834.092,-1241.842 2134.992,-1477.225c743.067,-581.283 1093.925,-949.217 1551.608,-1589.967c554.408,-776.167 874.867,-1729.183 1158.833,-2671.383c352.942,-1171.075 426.6,-2210.558 404.658,-3402.358c-8.917,-484.533 -231.358,-1879.975 -293.45,-2337.392c-168.833,-1243.75 -197.333,-1680.833 -579.692,-3251.642" style="fill:#2e8061;"/><path id="path47" d="M197476.875,114979.417c-521.233,672.592 -648.758,1676.183 -630.642,2102.142c33.625,790.483 830.775,1846.483 723.133,2169.408c-438.517,1315.558 -877.667,1712.167 -50.45,2539.392c479.667,479.658 2461.908,1399.433 2001.242,2320.767c-583.717,1167.433 -1923.358,1026.492 -2875.733,353.158c-764.717,-540.658 -1480.817,-1417.283 -2018.05,-2169.408c-364.75,-510.658 -957.608,-1646.125 -1244.467,-2219.858c-756.508,-1513.017 -671.708,-4083.558 -84.083,-5650.558c361.792,-964.792 1633.667,-2760.417 2337.583,-3464.333c2107.142,-2107.15 5454.883,-3860.133 8072.217,-5314.217c1200.533,-666.958 2563.942,-1012.9 3767.033,-1614.442c1504.125,-752.067 2947.017,-1941.192 4305.183,-2959.817c307.85,-230.883 464.742,-629.85 672.683,-941.758c447.558,-671.333 1110.042,-1731.833 840.858,-2539.383c-154.025,-462.075 -906.658,-964.442 -773.592,-1496.725c207.642,-830.575 622.142,-858.142 403.608,-1950.783c-70.792,-353.933 -779.175,-2309.592 -639.05,-2589.842c365.783,-731.558 2038.642,919.367 2404.85,1194.017c627.575,470.683 1576.942,1439.608 1967.608,2085.325c1423.325,2352.542 901.183,4544.275 201.808,6592.308c-267.625,783.725 -1203.375,1658.933 -1883.517,2203.05c-383.125,306.5 -1512.825,1033.717 -1883.517,1311.733c-2879.742,2159.808 -3736.433,2400.933 -7197.725,4052.925c-1200.583,573.008 -3948.667,1794.733 -5213.308,2657.108c-407.508,277.883 -1484.467,1282.667 -2287.125,1900.333" style="fill:#2e8061;"/><path id="path48" d="M227655.2,113179.983c448.458,-179.383 448.458,-179.383 0,0Z" style="fill:#3ca880;"/><path id="path49" d="M199727.583,129310.433c511.15,-750.542 2260.883,-1956.683 3845.492,-3013.092c825.483,-550.317 1780.55,-1257.725 2619.392,-1816.95c2508.025,-1672.017 3737.05,-1932.867 5819.717,-4344.033c459.517,-532 787.042,-1511.833 974.9,-2063.933c171.8,-504.908 413.1,-1348.292 390.375,-2067.167c-9.375,-296.625 -165.608,-967.925 -312.067,-1212.033c-343.167,-571.942 -207.075,-439.9 -781.042,-1293.725c-146.35,-217.708 -305.45,-510 -403.617,-706.317c-123.592,-247.192 -29.25,-805.333 117.725,-1093.117c386.15,-756.125 395.45,-880.558 639.05,-1278.1c356.558,-581.892 295.575,-917.8 639.05,-1261.283c255.633,-255.642 1874.15,1390.675 2001.233,1581.3c1022.708,1534.067 1759.275,2630.283 2030.292,4527.392c454.508,3181.583 -681.675,5507.992 -2372.7,7864.942c-377.917,526.75 -1598.15,1763.275 -2181.15,2054.783c-285.942,142.967 -1419.192,900.708 -1683.117,1089.233c-1181.992,541.9 -1890.6,1015.042 -3333.458,1973.175c-602.358,400 -1214.383,750.383 -1974.917,1412.983c-974.942,849.4 -2020.6,-1410.725 -3203.125,-481.842c0,0 -1150.367,1652.083 -2109.1,1190.55c-356.342,-171.542 -1002.633,-563.333 -722.933,-1062.775l-0,0.008Z" style="fill:#2e8061;"/><path id="path52" d="M218729.492,69649.158c379.725,367.333 1813.883,103.192 2877.483,-48.758c1451.35,-207.333 4472.417,-2356.817 5511.1,-2097.142c3180.892,795.225 5339.508,2943.592 8973.842,1853.292c963.9,-289.167 1860.842,-769.108 2682.392,-1316.817c86.717,-57.808 915.225,-791.75 1024.192,-682.792c399.867,399.867 -769.292,2065.625 -926.65,2341c-1468.025,2569.042 -4290.283,3932.35 -7266.858,3560.275c-1112.775,-139.1 -2066.567,-1060.683 -2877.475,-1755.75c-359.2,-307.9 -705.275,-921.392 -1219.275,-1024.192c-1105.225,-221.058 -2375.108,555.367 -3365.192,926.65c-1073.483,402.575 -2459.183,728.983 -3609.042,585.25c-820.433,-102.567 -2900.908,-1418.192 -2633.633,-2487.317c162.958,-651.842 704.525,-289.717 829.108,146.317l0,-0.017l0.008,0Z" style="fill:#cda18d;"/><path id="path53" d="M172641.033,67942.175c1765.7,685.25 4922.458,79.833 6535.292,-780.333c800.783,-427.083 2072.467,-1475.458 3072.567,-975.417c656.467,328.208 947.983,930.133 1414.358,1463.125c930.875,1063.858 1991.675,2434.575 3267.65,3072.558c1849.525,924.767 4339.808,932.242 6340.208,487.708c164.583,-36.708 2451.75,-966.267 2243.458,-341.392c-143.483,430.4 -674.025,923.592 -975.417,1268.042c-1724.008,1970.292 -5968.617,5109.333 -8681.217,3413.958c-1406.217,-878.892 -3422.642,-5598.625 -4633.233,-5901.275c-719.9,-179.975 -1711.358,461.717 -2341,731.567c-1585.15,679.35 -5586.717,1759.792 -6730.375,-146.308c-523.5,-872.508 -1046.367,-2730.533 487.708,-2292.233Z" style="fill:#cda18d;"/></g><defs><linearGradient id="_Linear1" x1="0" y1="0" x2="1" y2="0" gradientUnits="userSpaceOnUse" gradientTransform="matrix(0,-138139.52381,138139.52381,0,139133.333333,143709.744161)"><stop offset="0" style="stop-color:#b0c37b;stop-opacity:1"/><stop offset="0.57" style="stop-color:#e7edd7;stop-opacity:1"/><stop offset="1" style="stop-color:#fff;stop-opacity:1"/></linearGradient></defs></svg>