<?xml version="1.0" encoding="UTF-8" standalone="no"?><!DOCTYPE svg PUBLIC "-//W3C//DTD SVG 1.1//EN" "http://www.w3.org/Graphics/SVG/1.1/DTD/svg11.dtd"><svg width="100%" height="100%" viewBox="0 0 1244 671" version="1.1" xmlns="http://www.w3.org/2000/svg" xmlns:xlink="http://www.w3.org/1999/xlink" xml:space="preserve" xmlns:serif="http://www.serif.com/" style="fill-rule:evenodd;clip-rule:evenodd;stroke-linecap:round;stroke-linejoin:round;stroke-miterlimit:1.5;"><clipPath id="_clip1"><rect x="0" y="-0" width="1243.85" height="670.833"/></clipPath><g clip-path="url(#_clip1)"><path id="U1-muscle" d="M1129.829,23.601c49.877,-0 90.309,39.877 90.309,89.068l0,445.335c0,49.191 -40.432,89.068 -90.309,89.068l-1015.965,0c-49.877,0 -90.309,-39.877 -90.309,-89.068l0,-445.335c0,-49.191 40.432,-89.068 90.309,-89.068l1015.965,-0Z" style="fill:url(#_Linear2);stroke:#000;stroke-width:47.26px;"/><g id="g11"><path id="path24" d="M855.633,126.779l6.881,1.89l2.52,5.815l2.035,6.881l6.832,11.727l8.868,7.705l10.224,6.832c0,0 2.52,3.004 5.524,8.868c3.004,5.863 4.652,10.709 4.652,10.709c0,0 1.211,6.009 1.357,10.709c0,4.7 -0.824,18.559 -0.824,18.559l-0.485,20.933l-1.502,10.854l1.841,7.898l-0.872,15.215l-4.652,11.048l-15.07,15.361l-13.713,6.348l-6.009,6.057l3.973,26.603l16.718,19.77l-12.26,3.877l-4.749,5.136l6.445,31.061l-13.81,-1.308l-25.44,-20.885l-20.594,-5.524l13.374,24.228l12.744,34.162l11.387,16.718l-18.414,1.502c0,0 -15.555,-15.894 -15.749,-17.057c0,-1.163 -2.811,-22.92 -2.811,-22.92l0,-21.273c0,-0.63 -6.202,-33.096 -6.202,-33.096l-17.396,-36.003l-11.387,-32.127l-13.035,10.564l-22.096,34.453l-29.268,28.783l3.198,5.863l5.863,10.854l4.313,9.207l10.564,30.625l14.052,17.057l23.259,23.114l16.378,13.035l27.62,19.916l-3.004,33.145l-43.175,-19.286l-71.28,-43.466c0,0 -50.347,-44.338 -52.188,-46.179c-1.841,-1.841 -11.387,-25.585 -11.387,-26.603c0,-1.018 1.502,-15.07 1.502,-15.07c0,0 5.185,-27.911 5.524,-28.929c0.485,-1.018 8.722,-17.929 8.722,-17.929l-0.485,-22.387l6.154,-19.77l10.709,-15.894l24.761,-23.259c0,0 1.696,-31.594 2.035,-32.611c0.485,-1.018 9.546,-21.757 9.546,-21.757l19.722,-19.044l21.903,-9.401l21.612,-3.489l9.352,-2.181l10.031,-8.722l20.594,-11.678l19.092,-5.718l19.044,-2.471l6.929,2.956l0,0l0,-0Z" style="fill:#8e677b;"/><path id="path24-8" d="M960.255,125.979l-3.879,3.361l-4.146,4.759l-1.985,6.881l-6.662,11.727l-8.647,7.705l-11.33,7.838c0,0 -1.866,3.773 -4.795,9.637c-2.93,5.863 -3.767,8.934 -3.767,8.934c0,0 -1.181,6.009 -1.323,10.709c0,4.7 0.803,18.559 0.803,18.559l0.473,20.933l1.465,10.854l-1.796,7.898l0.851,15.215l4.536,11.048l14.695,15.361l13.372,6.348l5.859,6.057l-3.875,26.603l-9.346,15.618l11.756,2.601l-4.36,15.971l-5.818,22.303c3.7,5.04 9.589,8.975 9.257,12.287l26.998,-31.131l23.867,-5.524l-13.041,24.228l-15.03,29.903l-12.05,26.655l21.504,-4.176c0,0 15.168,-15.894 15.357,-17.057c0,-1.163 2.741,-22.92 2.741,-22.92l0,-21.273c0,-0.63 6.048,-33.096 6.048,-33.096l16.963,-36.003l11.104,-32.127l12.711,10.564l21.546,34.453l33.745,28.547l-5.958,7.993l-8.083,8.962l-3.141,9.562l-11.365,30.27l-10.982,20.251l-24.81,21.103l-16.562,11.852l-26.933,19.916l2.93,33.145l42.101,-19.286l69.506,-43.466c0,0 49.094,-44.338 50.889,-46.179c1.796,-1.841 11.104,-25.585 11.104,-26.603c0,-1.018 -1.465,-15.07 -1.465,-15.07c0,0 -5.056,-27.911 -5.387,-28.929c-0.473,-1.018 -3.063,-17.811 -3.063,-17.811l-4.969,-22.505l-6.001,-19.77l-10.442,-15.894l-24.145,-23.259c0,0 1.185,-31.831 0.855,-32.848c-0.473,-1.018 -8.954,-21.521 -8.954,-21.521l-19.586,-19.99l-20.056,-8.573l-25.215,-3.371l-8.116,-3.686l-9.614,-7.551l-21.253,-11.343l-18.617,-5.718l-18.57,-2.471l-7.898,2.541l-0,0l0,-0Z" style="fill:#526a7b;"/><path id="path1-8" d="M903.292,335.661c0.052,6.769 -0.029,13.538 0.032,20.308c0.047,5.354 0.041,10.722 0.388,16.062c0.658,10.14 0.636,20.284 0.594,30.431c-0.007,1.567 -0.223,3.148 -0.491,4.698c-0.261,1.511 -0.777,1.941 -2.33,1.848c-1.682,-0.103 -3.369,-0.33 -5.019,-0.674c-3.843,-0.799 -7.383,-2.42 -10.846,-4.222c-0.731,-0.381 -1.513,-0.66 -2.305,-1c-0.482,0.868 -0.019,1.388 0.352,1.807c1.528,1.724 2.992,3.537 4.708,5.057c1.85,1.635 3.974,2.958 5.947,4.456c2.83,2.148 5.662,4.292 8.431,6.515c1.137,0.912 2.151,1.009 3.385,0.259c5.546,-3.363 11.183,-6.578 16.649,-10.066c4.83,-3.082 8.637,-7.219 11.281,-12.354c0.213,-0.413 0.344,-0.868 0.567,-1.444c-0.954,-0.014 -1.173,0.584 -1.53,0.97c-2.271,2.44 -4.589,4.823 -7.468,6.575c-2.879,1.752 -5.923,3.007 -9.311,3.352c-2.171,0.222 -3.18,-0.511 -3.454,-2.676c-0.085,-0.67 -0.081,-1.352 -0.081,-2.027c-0.003,-23.806 -0.01,-47.609 0.014,-71.415c0,-1.686 0.198,-3.374 0.352,-5.057c-0.306,-4.9 -0.311,-9.24 -0.164,-13.054c-0.594,-4.681 0.547,-8.842 3.337,-12.569c1.08,-1.44 2.296,-2.784 3.512,-4.116c0.902,-0.988 1.528,-0.966 2.417,-0.03c3.489,3.681 6.969,7.373 10.458,11.056c3.994,4.214 7.971,8.443 12.003,12.618c0.998,1.034 2.181,1.889 3.31,2.853c0.855,-0.87 0.557,-1.67 0.366,-2.391c-0.855,-3.214 -1.719,-6.426 -2.66,-9.616c-0.611,-2.07 -0.394,-2.393 1.763,-2.17c0.503,0.051 1.007,0.093 1.511,0.118c0.096,0.005 0.196,-0.093 0.371,-0.183c0.047,-0.704 -0.526,-1.056 -0.966,-1.423c-4.767,-3.987 -9.704,-7.727 -15.327,-10.469c-4.344,-2.117 -8.206,-4.953 -11.746,-8.213c-1.987,-1.826 -3.877,-3.764 -5.717,-5.739c-2.109,-2.264 -3.339,-4.891 -3.195,-8.108c0.12,-2.703 0.056,-5.415 0.014,-8.123c-0.096,-6.199 -0.218,-12.398 -0.352,-18.598c-0.083,-3.886 -0.306,-7.773 -0.291,-11.658c0.022,-5.354 0.134,-10.711 0.349,-16.06c0.262,-6.586 0.68,-13.166 1.009,-19.751c0.179,-3.561 1.802,-6.26 4.551,-8.499c3.498,-2.846 7.49,-4.573 11.768,-5.744c4.483,-1.229 9.064,-1.975 13.706,-1.824c6.734,0.218 13.379,1.093 19.666,3.745c1.075,0.454 2.181,0.887 2.906,1.941c-0.44,0.834 -1.249,0.836 -1.926,0.921c-2.459,0.31 -4.925,0.596 -7.395,0.784c-5.676,0.43 -11.379,0.597 -16.97,1.784c-5.383,1.141 -10.528,2.962 -15.351,5.637c-0.393,0.217 -0.758,0.487 -1.115,0.76c-0.117,0.09 -0.169,0.266 -0.311,0.504c0.785,0.235 1.356,-0.196 1.941,-0.415c4.236,-1.579 8.495,-3.109 13.012,-3.618c3.748,-0.421 7.517,-0.753 11.286,-0.877c4.508,-0.149 9.027,-0.12 13.537,-0.012c4.447,0.107 8.89,0.418 13.335,0.626c5.476,0.256 10.887,1.031 16.268,2.039c0.548,0.103 1.088,0.247 1.716,0.389c-8.482,1.205 -16.85,2.493 -25.246,3.557c-8.434,1.07 -16.898,1.916 -25.347,2.86c-0.005,0.122 -0.008,0.244 -0.014,0.366c0.628,0.047 1.259,0.171 1.882,0.132c8.671,-0.545 17.356,-0.748 26.033,-0.46c10.089,0.333 20.165,1.053 30.089,3.029c5.25,1.046 10.435,2.406 15.647,3.635c0.359,0.085 0.697,0.259 0.987,0.641c-0.484,-0.029 -0.968,-0.041 -1.45,-0.088c-6.451,-0.628 -12.895,-1.361 -19.356,-1.86c-6.121,-0.474 -12.261,-0.714 -18.394,-1.032c-4.782,-0.249 -9.565,-0.547 -14.351,-0.668c-7.043,-0.178 -14.095,-0.416 -21.135,-0.267c-8.039,2.025 -17.571,-1.125 -18.363,8.36c-0.357,10.505 3.734,9.763 11.969,9.842c6.162,-0.118 12.279,0.464 18.388,1.115c8.306,0.883 16.549,2.203 24.714,3.967c5.016,1.083 10.02,2.237 14.984,3.539c4.067,1.066 8.148,0.86 12.267,0.745c4.051,-0.113 8.108,-0.024 12.163,-0.014c0.393,0.002 0.787,0.11 1.18,0.103c5.371,-0.08 10.687,0.636 16.018,1.125c0.421,0.039 0.848,0.007 1.271,0.007c0.039,-0.115 0.08,-0.228 0.118,-0.342c-0.469,-0.222 -0.917,-0.506 -1.408,-0.653c-2.051,-0.619 -4.109,-1.224 -6.175,-1.785c-7.402,-2.014 -14.808,-4.007 -22.21,-6.014c-0.69,-0.188 -1.369,-0.42 -2.051,-0.631c0.003,-0.125 0.007,-0.249 0.01,-0.372c0.91,-0.134 1.819,-0.34 2.735,-0.386c1.406,-0.069 2.823,-0.093 4.229,-0.027c6.718,0.318 13.381,1.022 19.834,3.068c0.574,0.181 1.166,0.296 1.867,0.179c-0.296,-0.19 -0.577,-0.413 -0.89,-0.564c-4.19,-2.005 -8.648,-3.249 -13.044,-4.686c-5.519,-1.804 -10.98,-3.787 -16.458,-5.717c-0.66,-0.234 -1.425,-0.396 -1.801,-1.423c0.55,-0.195 1.032,-0.448 1.543,-0.535c5.93,-0.998 11.897,-1.154 17.869,-0.579c5.987,0.575 11.076,3.281 15.704,6.971c0.308,0.245 0.613,0.496 0.932,0.724c0.078,0.054 0.213,0.027 0.508,0.054c-0.144,-0.398 -0.201,-0.767 -0.394,-1.039c-0.455,-0.643 -0.929,-1.284 -1.476,-1.85c-3.921,-4.055 -7.852,-8.094 -12.333,-11.557c-7.651,-5.91 -15.787,-11.015 -24.301,-15.613c-9.514,-5.134 -19.649,-8.155 -30.185,-10.106c-1.256,-0.232 -2.511,-0.472 -3.735,-0.995c1.736,0 3.479,-0.1 5.209,0.015c9.651,0.643 19.219,1.818 28.344,5.25c4.378,1.648 8.681,3.496 12.997,5.307c4.857,2.038 9.343,4.788 13.714,7.671c3.283,2.166 6.324,4.718 9.355,7.241c1.765,1.469 3.292,3.226 4.933,4.843c0.228,0.225 0.509,0.399 0.831,0.648c-0.086,-1.929 -5.123,-9.697 -10.242,-15.317c-4.229,-4.645 -9.233,-8.433 -14.466,-11.9c-5.19,-3.439 -10.883,-5.869 -16.618,-8.37c0.191,-0.02 0.388,-0.076 0.575,-0.054c9.553,1.129 18.693,3.679 27.292,8.037c4.2,2.129 7.993,4.859 11.379,8.14c0.89,0.861 1.792,1.714 2.662,2.596c0.718,0.728 1.587,1.022 2.584,1.081c6.415,0.389 12.621,1.848 18.602,4.109c2.931,1.107 5.635,2.816 8.441,4.256c0.577,0.298 1.146,0.614 2.087,1.12c-0.068,-0.85 -0.029,-1.327 -0.151,-1.76c-1.469,-5.205 -3.855,-9.983 -6.845,-14.469c-0.562,-0.844 -1.198,-1.64 -1.772,-2.478c-0.205,-0.3 -0.32,-0.66 -0.279,-1.29c0.594,0.222 1.22,0.381 1.774,0.677c8.617,4.617 14.274,11.415 15.686,21.338c0.555,3.908 1.122,7.815 1.738,11.714c0.188,1.196 0.301,2.461 1.229,3.449c0.799,-0.218 0.729,-0.85 0.731,-1.372c0.014,-3.046 0.074,-6.096 -0.03,-9.137c-0.091,-2.701 -0.335,-5.4 -0.596,-8.091c-0.205,-2.131 -0.54,-4.249 -0.807,-6.375c-0.068,-0.538 -0.093,-1.081 -0.149,-1.741c0.944,0.118 1.146,0.772 1.477,1.237c3.821,5.356 6.727,11.2 9.272,17.248c2.029,4.82 3.547,9.775 3.886,14.999c0.201,3.083 0.08,6.195 -0.029,9.289c-0.066,1.895 -0.379,3.782 -0.335,5.766c0.178,-0.303 0.415,-0.586 0.523,-0.912c1.916,-5.749 3.219,-11.635 3.709,-17.676c0.227,-2.806 0.381,-5.629 0.342,-8.441c-0.142,-10.271 -1.924,-20.191 -6.581,-29.463c-1.807,-3.599 -4.041,-6.894 -6.729,-9.903c-4.1,-4.587 -9.187,-7.964 -14.063,-11.595c-3.483,-2.595 -7.126,-4.958 -11.078,-6.818c-5.899,-2.778 -11.953,-5.07 -18.493,-5.743c-4.617,-0.475 -9.235,-0.341 -13.833,0.298c-4.804,0.667 -9.595,1.458 -14.415,1.968c-4.31,0.457 -8.651,0.737 -12.983,0.858c-5.129,0.144 -10.265,0.07 -15.4,0.026c-10.205,-0.087 -20.409,-0.376 -30.612,-0.289c-11.47,0.098 -22.533,2.261 -32.836,7.578c-0.899,0.464 -1.862,0.808 -2.802,1.181c-0.19,0.075 -0.426,0.029 -0.648,0.04c-0.266,-0.701 0.234,-0.994 0.592,-1.291c2.471,-2.055 4.95,-4.101 7.444,-6.127c3.149,-2.558 6.456,-4.939 9.438,-7.679c3.726,-3.426 6.732,-7.473 8.363,-12.342c1.164,-3.469 2.132,-7.006 3.131,-10.528c7.928,-13.251 22.152,-8.786 41.148,-4.317c9.159,2.625 18.185,5.723 26.73,10.053c5.827,2.952 11.2,6.544 15.94,11.034c3.767,3.569 8.252,5.16 13.361,5.252c10.304,0.184 20.306,1.88 29.833,5.966c7.526,3.227 14.318,7.543 20.424,13.042c5.742,5.17 10.34,11.185 13.889,17.966c3.836,7.331 6.637,15.061 7.773,23.327c0.599,4.363 1.13,8.722 1.056,13.136c-0.036,2.087 0.03,4.175 -0.017,6.261c-0.054,2.422 -0.132,4.845 -0.298,7.26c-0.113,1.675 0.181,3.017 1.606,4.172c3.105,2.518 6.253,5.028 9.072,7.851c6.976,6.987 13.667,14.215 18.678,22.851c2.809,4.837 4.674,10.007 6.312,15.285c2.374,7.654 4.532,15.381 5.764,23.308c0.665,4.275 0.924,8.626 1.134,12.955c0.103,2.136 0.44,4.116 1.401,6.02c3.195,6.324 5.522,12.961 7.172,19.847c1.041,4.346 1.802,8.732 1.968,13.198c0.178,4.786 0.367,9.58 0.301,14.366c-0.122,8.907 -1.878,17.497 -5.837,25.522c-2.566,5.205 -5.16,10.419 -8.131,15.397c-2.918,4.882 -6.233,9.55 -10.106,13.75c-3.285,3.562 -6.617,7.097 -10.135,10.426c-2.655,2.511 -5.549,4.796 -8.494,6.971c-8.445,6.236 -17.747,10.905 -27.437,14.885c-9.649,3.963 -19.333,7.866 -28.547,12.806c-5.933,3.18 -11.477,6.933 -16.617,11.294c-7.756,6.581 -14.542,14.159 -21.87,21.179c-4.114,3.94 -8.37,7.729 -13.334,10.621c-4.271,2.489 -8.695,4.684 -13.687,5.077c-3.466,0.272 -6.987,0.239 -10.455,-0.029c-2.764,-0.213 -5.481,-0.391 -8.257,-0.186c-1.768,0.129 -3.608,-0.113 -5.354,-0.477c-2.192,-0.459 -3.273,-2.154 -3.234,-4.534c0.042,-2.594 0.041,-2.569 -2.564,-2.635c-1.064,-0.025 -2.159,-0.056 -3.182,-0.318c-2.376,-0.608 -3.721,-2.224 -4.06,-4.655c-0.147,-1.061 -0.24,-2.131 -0.399,-3.19c-0.176,-1.186 -0.376,-1.511 -1.574,-1.62c-2.55,-0.23 -3.689,-1.868 -3.801,-4.535c-0.03,-0.731 0.003,-1.467 0.056,-2.197c0.056,-0.792 -0.25,-1.305 -1.019,-1.528c-0.325,-0.093 -0.646,-0.198 -0.975,-0.279c-2.071,-0.514 -3.107,-1.934 -3.405,-3.957c-0.227,-1.538 -0.125,-3.068 0.624,-4.454c0.614,-1.134 1.322,-2.225 2.075,-3.273c0.907,-1.257 0.97,-1.537 0.191,-2.885c-2.249,-3.896 -2.195,-5.29 0.614,-8.874c2.645,-3.371 5.446,-6.622 8.038,-10.03c1.044,-1.372 1.755,-3.007 2.54,-4.561c0.259,-0.511 0.281,-1.142 0.511,-2.158c-0.987,0.435 -1.616,0.613 -2.137,0.958c-2.96,1.965 -5.874,3.999 -8.844,5.948c-1.931,1.268 -3.928,2.43 -5.901,3.633c-0.239,0.146 -0.501,0.261 -0.76,0.371c-1.54,0.657 -2.014,0.347 -2.112,-1.376c-0.014,-0.225 -0.012,-0.452 -0.012,-0.677c0,-5.81 -0.049,-11.621 0.015,-17.431c0.051,-4.63 1.352,-9.005 2.962,-13.308c1.508,-4.038 3.539,-7.798 5.794,-11.455c2.611,-4.229 4.991,-8.592 6.845,-13.205c1.07,-2.662 1.978,-5.407 2.733,-8.175c1.694,-6.223 4.566,-11.87 7.962,-17.302c2.494,-3.99 5.624,-7.475 8.568,-11.11c1.136,-1.401 2.334,-2.752 3.461,-4.158c0.367,-0.457 0.602,-1.02 0.897,-1.535c-0.08,-0.11 -0.159,-0.218 -0.24,-0.328c-0.442,0.132 -0.914,0.205 -1.322,0.406c-4.319,2.141 -8.336,4.72 -11.773,8.142c-5.217,5.192 -9.863,10.844 -13.757,17.092c-3.033,4.864 -5.123,10.161 -6.932,15.578c-1.599,4.791 -2.34,9.744 -2.907,14.743c-0.438,3.879 -1.386,7.642 -2.735,11.32c-2.007,5.475 -4.397,10.758 -7.51,15.689c-2.23,3.534 -4.554,7.026 -7.751,9.776c-1.482,1.274 -3.151,2.357 -4.83,3.371c-1.251,0.756 -2.092,0.32 -2.577,-1.103c-0.164,-0.479 -0.247,-0.985 -0.372,-1.476c-1.301,-5.112 -3.86,-9.509 -7.766,-13.034c-1.961,-1.77 -4.117,-3.347 -6.292,-4.855c-4.263,-2.955 -8.604,-5.794 -12.905,-8.692c-1.256,-0.848 -2.45,-0.899 -3.769,-0.052c-5.505,3.527 -11.088,6.935 -16.54,10.541c-2.054,1.357 -3.855,3.109 -5.734,4.725c-2.581,2.22 -3.938,5.182 -4.842,8.373c-0.415,1.462 -0.64,2.978 -1.019,4.452c-0.393,1.521 -1.141,1.777 -2.256,0.696c-1.09,-1.056 -2.18,-2.161 -3.019,-3.412c-2.164,-3.229 -4.317,-6.478 -6.243,-9.853c-2.659,-4.661 -3.801,-9.875 -4.953,-15.053c-1.125,-5.065 -2.185,-10.142 -3.237,-15.222c-0.25,-1.21 -0.283,-2.466 -0.535,-3.676c-0.63,-3.031 -1.242,-6.07 -2.021,-9.066c-1.037,-3.99 -2.274,-7.94 -4.402,-11.501c-1.557,-2.61 -3.283,-5.126 -5.074,-7.581c-2.655,-3.647 -5.38,-7.246 -8.174,-10.787c-3.919,-4.969 -8.837,-8.5 -15.072,-10.008c-0.411,-0.1 -0.844,-0.11 -1.643,-0.208c0.369,0.77 0.52,1.301 0.838,1.699c0.667,0.834 1.405,1.613 2.144,2.386c2.066,2.158 4.18,4.271 6.217,6.456c3.418,3.669 5.143,8.174 6.185,12.977c0.707,3.251 1.284,6.531 1.975,9.785c1.07,5.038 2.701,9.905 4.759,14.618c1.64,3.759 4.092,7.013 6.747,10.095c4.789,5.561 7.573,11.966 8.37,19.243c0.135,1.229 0.196,2.476 0.174,3.711c-0.105,5.992 0.289,11.946 1.276,17.859c0.102,0.609 0.132,1.234 0.164,1.851c0.008,0.151 -0.105,0.308 -0.234,0.653c-0.635,-0.196 -1.268,-0.349 -1.872,-0.582c-4.158,-1.599 -8.306,-3.224 -12.465,-4.821c-0.682,-0.261 -1.389,-0.486 -2.104,-0.628c-1.012,-0.2 -1.449,0.252 -1.07,1.224c0.469,1.203 1.007,2.413 1.731,3.473c1.141,1.67 2.445,3.231 3.709,4.815c1.442,1.806 2.968,3.544 4.359,5.387c1.52,2.016 1.899,4.144 0.403,6.427c-0.697,1.066 -0.611,1.334 0.486,2.291c1.882,1.643 2.445,3.709 2.192,6.097c-0.237,2.237 -1.513,3.748 -3.679,4.332c-2.72,0.734 -2.796,0.736 -2.686,3.452c0.095,2.329 -0.853,3.906 -2.95,4.823c-0.875,0.384 -1.767,0.738 -2.672,1.041c-1.604,0.533 -1.745,0.743 -1.494,2.456c0.115,0.78 0.278,1.564 0.281,2.346c0.01,3.202 -1.779,5.053 -4.964,5.211c-0.113,0.005 -0.227,-0.003 -0.338,0.01c-0.824,0.108 -1.816,-0.027 -2.432,0.389c-0.819,0.552 -0.107,1.565 -0.083,2.374c0.054,1.885 -0.931,3.454 -2.828,3.911c-1.689,0.406 -3.442,0.596 -5.178,0.745c-3.65,0.313 -7.307,0.528 -10.961,0.8c-7.455,0.558 -14.533,-0.567 -20.795,-4.925c-2.351,-1.635 -4.613,-3.44 -6.712,-5.387c-4.05,-3.759 -7.908,-7.722 -11.932,-11.506c-3.867,-3.635 -8.067,-6.877 -12.449,-9.871c-6.195,-4.232 -12.531,-8.233 -19.15,-11.787c-5.614,-3.014 -11.132,-6.202 -16.709,-9.282c-4.994,-2.76 -10.231,-5.004 -15.483,-7.216c-3.847,-1.618 -7.727,-3.165 -11.514,-4.913c-2.606,-1.203 -5.105,-2.648 -7.604,-4.067c-7.626,-4.331 -14.727,-9.397 -21.34,-15.163c-7.225,-6.3 -13.49,-13.461 -19.002,-21.27c-4.823,-6.832 -9.055,-14.024 -12.135,-21.837c-1.148,-2.912 -1.695,-5.965 -1.745,-9.091c-0.049,-3.046 -0.102,-6.096 0.017,-9.138c0.126,-3.207 0.411,-6.41 0.703,-9.609c0.379,-4.155 0.803,-8.306 1.261,-12.452c0.969,-8.776 3.501,-17.107 7.275,-25.071c1.4,-2.956 2.814,-5.906 4.257,-8.841c0.767,-1.56 0.981,-3.2 1.042,-4.916c0.361,-10.22 1.162,-20.396 3.98,-30.28c3.083,-10.81 8.007,-20.688 15.279,-29.344c3.307,-3.936 6.809,-7.693 10.586,-11.161c3.608,-3.314 7.402,-6.431 11.216,-9.509c1.311,-1.058 1.965,-2.163 1.932,-3.855c-0.075,-3.891 -0.056,-7.785 -0.016,-11.675c0.079,-7.732 1.333,-15.31 3.784,-22.609c2.432,-7.241 5.965,-13.985 10.539,-20.165c2.997,-4.051 6.237,-7.879 9.962,-11.258c7.137,-6.473 15.202,-11.457 24.29,-14.736c5.051,-1.823 10.162,-3.429 15.537,-3.955c2.523,-0.247 5.055,-0.39 7.585,-0.546c2.588,-0.16 5.18,-0.24 7.764,-0.427c2.931,-0.212 5.378,-1.485 7.524,-3.476c5.74,-5.324 12.135,-9.685 19.087,-13.311c7.598,-3.964 15.403,-7.735 23.772,-9.269c24.036,-4.406 29.423,-5.189 38.358,0.258c1.869,1.255 3.226,4.713 3.649,6.234c0.3,1.082 0.12,1.917 -0.726,2.74c-1.413,1.373 -2.643,2.933 -4.053,4.308c-5.83,5.683 -12.078,10.845 -19.032,15.117c-0.382,0.235 -0.753,0.497 -1.108,0.773c-0.122,0.096 -0.184,0.271 -0.305,0.456c0.323,0.732 1.004,0.622 1.584,0.631c1.86,0.03 3.723,-0.014 5.583,0.03c2.76,0.065 5.522,0.121 8.275,0.299c1.618,0.105 2.62,-0.478 3.403,-1.902c3.036,-5.524 5.434,-11.274 6.598,-17.498c0.08,-0.424 0.266,-0.829 0.719,-1.325c0.215,0.472 0.479,0.929 0.638,1.42c2.092,6.479 5.723,12.006 10.619,16.665c2.318,2.207 4.925,4.117 7.444,6.108c2.654,2.097 5.363,4.123 8.033,6.201c0.318,0.247 0.536,0.622 0.635,1.164c-0.308,-0.067 -0.635,-0.091 -0.922,-0.208c-8.893,-3.638 -18.209,-5.581 -27.686,-6.846c-5.143,-0.687 -10.313,-1.089 -15.51,-1.047c-3.498,0.028 -6.996,-0.036 -10.492,0.019c-5.072,0.081 -10.142,0.223 -15.214,0.356c-3.21,0.084 -6.426,0.376 -9.627,0.264c-8.226,-0.287 -16.425,-0.934 -24.584,-2.124c-4.625,-0.675 -9.282,-1.254 -13.946,-1.504c-7.395,-0.396 -14.403,1.326 -21.191,4.288c-6.564,2.865 -12.692,6.423 -18.257,10.883c-4.758,3.813 -9.014,8.172 -12.796,12.983c-6.471,8.235 -10.783,17.424 -12.457,27.794c-0.693,4.295 -0.878,8.621 -0.94,12.975c-0.113,7.944 0.799,15.769 2.439,23.506c0.675,3.187 1.814,6.277 2.775,9.401c0.153,0.498 0.481,0.943 0.728,1.413c0.105,-0.037 0.209,-0.073 0.314,-0.108c-0.022,-0.308 0.001,-0.626 -0.073,-0.921c-1.947,-7.729 -2.462,-15.603 -2.025,-23.514c0.575,-10.404 3.586,-20.057 9.718,-28.608c0.787,-1.098 1.58,-2.197 2.428,-3.248c0.373,-0.462 0.892,-0.806 1.39,-1.242c0.764,0.797 0.338,1.528 0.214,2.186c-0.544,2.88 -1.222,5.739 -1.701,8.629c-1.066,6.432 -1.222,12.9 -0.509,19.384c0.084,0.763 0.243,1.52 0.367,2.28c0.116,0.007 0.232,0.012 0.349,0.019c0.112,-0.455 0.252,-0.905 0.332,-1.366c1.922,-11.139 5.891,-21.528 11.668,-31.206c3.451,-5.779 7.854,-10.733 13.806,-14.114c0.506,-0.288 1.059,-0.489 1.716,-0.574c-0.531,1.758 -1.897,2.899 -2.784,4.346c-0.914,1.489 -1.845,2.97 -2.694,4.496c-0.822,1.477 -1.589,2.99 -2.312,4.518c-0.746,1.581 -1.444,3.185 -2.102,4.804c-0.646,1.596 -1.408,3.168 -1.537,5.195c0.543,-0.206 0.926,-0.262 1.191,-0.467c6.908,-5.371 14.792,-8.306 23.413,-9.411c0.223,-0.027 0.447,-0.071 0.672,-0.08c2.361,-0.102 4.148,-1.152 5.945,-2.74c2.818,-2.491 5.916,-4.71 9.088,-6.745c7.835,-5.033 16.278,-8.751 25.33,-11.01c5.102,-1.273 10.306,-1.934 15.534,-2.409c0.152,-0.014 0.311,0.053 0.8,0.145c-0.792,0.197 -1.266,0.341 -1.75,0.43c-6.192,1.139 -12.141,3.089 -17.862,5.666c-5.539,2.496 -10.48,5.911 -14.95,10.059c-4.099,3.804 -7.458,8.157 -10.172,13.004c-1.124,2.009 -1.963,4.18 -2.874,6.302c-0.218,0.511 -0.201,1.124 -0.293,1.691c0.134,0.068 0.269,0.137 0.403,0.205c0.393,-0.345 0.856,-0.638 1.168,-1.046c3.028,-3.965 6.617,-7.412 10.281,-10.744c4.227,-3.845 9.003,-6.989 14.19,-9.424c5.307,-2.493 10.641,-4.936 16.268,-6.666c6.434,-1.978 12.949,-3.574 19.692,-3.95c4.05,-0.225 8.111,-0.217 12.168,-0.305c0.261,-0.007 0.521,0.047 0.797,0.291c-0.535,0.107 -1.064,0.254 -1.604,0.315c-9.695,1.088 -19.084,3.489 -28.229,6.811c-6.798,2.471 -12.775,6.424 -18.434,10.871c-1.862,1.464 -3.708,2.946 -5.546,4.439c-0.364,0.296 -0.66,0.677 -1.176,1.215c2.237,0.816 4.385,0.036 6.707,0.77c-0.765,0.652 -1.23,1.114 -1.758,1.486c-5.346,3.77 -10.751,7.458 -16.038,11.31c-3.733,2.721 -7.311,5.652 -10.942,8.511c-0.413,0.325 -0.728,0.777 -1.088,1.169c0.074,0.115 0.149,0.23 0.223,0.344c0.645,-0.261 1.306,-0.487 1.931,-0.789c7.075,-3.396 14.263,-6.532 21.758,-8.878c6.136,-1.919 12.284,-3.831 18.717,-4.549c0.701,-0.078 1.411,-0.073 2.117,-0.107l0.091,0.371c-2.413,1.134 -4.857,2.208 -7.231,3.415c-2.412,1.225 -4.781,2.542 -7.126,3.889c-2.347,1.347 -4.683,2.721 -6.952,4.195c-2.268,1.474 -4.479,3.041 -6.654,4.654c-2.137,1.584 -4.524,2.86 -6.388,4.791c0.044,0.117 0.088,0.232 0.132,0.347c0.589,-0.073 1.186,-0.105 1.767,-0.223c5.326,-1.081 10.717,-1.45 16.138,-1.535c2.029,-0.032 4.055,-0.186 6.082,-0.205c1.235,-0.01 2.471,0.154 3.709,0.203c5.343,0.217 10.558,-0.619 15.742,-1.834c8.346,-1.958 16.679,-4.016 25.207,-5.043c4.307,-0.52 8.632,-0.9 12.958,-1.249c8.446,-0.68 10.193,-0.316 18.648,-0.338c4.426,-0.683 7.005,-0.274 7.849,-10.738c0.312,-2.396 0.806,-7.175 -1.547,-8.71c-6.815,-3.18 -5.355,-2.36 -12.845,-3.49c-7.187,-1.083 -14.415,-1.917 -21.636,-2.787c-4.084,-0.492 -8.182,-0.9 -12.283,-1.229c-4.212,-0.338 -8.436,-0.53 -12.653,-0.789c-0.479,-0.029 -0.958,-0.08 -1.46,-0.362c0.399,-0.154 0.787,-0.355 1.2,-0.455c5.104,-1.239 10.247,-2.254 15.5,-2.581c4.105,-0.257 8.213,-0.472 12.32,-0.674c2.757,-0.137 5.524,-0.401 8.274,-0.288c7.373,0.301 14.78,0.472 21.917,2.723c1.452,0.459 2.892,0.953 4.342,1.416c0.408,0.13 0.833,0.208 1.251,0.31l0.188,-0.289c-0.352,-0.293 -0.68,-0.626 -1.063,-0.873c-2.921,-1.89 -6.201,-2.953 -9.467,-4.033c-4.043,-1.335 -8.235,-1.944 -12.452,-2.312c-4.996,-0.433 -10.007,-0.677 -15.004,-1.081c-1.794,-0.146 -3.576,-0.476 -5.346,-0.811c-0.738,-0.14 -1.562,-0.281 -2.048,-1.12c0.618,-0.866 1.564,-1.152 2.449,-1.411c2.544,-0.741 5.102,-1.438 7.678,-2.058c4.625,-1.114 9.357,-1.643 14.087,-1.591c5.585,0.063 11.122,0.821 16.532,2.362c4.54,1.296 8.78,3.19 12.735,5.777c1.335,0.875 1.912,1.944 1.848,3.508c-0.137,3.322 -0.205,6.646 -0.301,9.968c-0.012,0.396 -0.037,0.79 -0.041,1.185c-0.115,15.676 -0.271,31.351 -0.322,47.029c-0.019,5.86 0.112,11.726 0.345,17.581c0.205,5.116 -1.53,9.523 -4.481,13.53c-3.662,4.972 -8.306,8.737 -14.131,10.903c-3.684,1.369 -7.072,3.251 -10.215,5.573c-2.811,2.078 -5.542,4.263 -8.297,6.417c-0.425,0.333 -0.782,0.756 -1.415,1.376c0.74,0.316 1.2,0.584 1.694,0.707c0.873,0.22 1.77,0.345 2.654,0.526c0.822,0.169 1.124,0.696 0.941,1.496c-0.237,1.044 -0.514,2.08 -0.745,3.127c-0.459,2.092 -0.902,4.188 -1.34,6.285c-0.08,0.386 -0.144,0.782 -0.144,1.173c0,1.141 0.565,1.526 1.472,0.868c2.96,-2.151 6.228,-3.877 8.842,-6.51c1.587,-1.598 3.376,-3.002 4.914,-4.642c3.007,-3.205 5.913,-6.505 8.842,-9.783c1.464,-1.638 2.879,-3.322 4.334,-4.969c0.958,-1.083 1.408,-1.102 2.271,0.03c1.264,1.66 0.328,3.263 1.531,4.968c1.073,1.52 1.224,3.837 1.682,7.044c-0.115,4.542 -0.033,10.258 -0.29,14.557m-218.149,-50.137c0,0 0.2,-0.394 -0.043,0.249c-0.243,0.642 -0.025,0.762 -1.342,3.087c-1.317,2.325 -2.878,5.161 -6.368,10.975c-3.49,5.813 -8.174,17.096 -10.49,25.593c-2.316,8.496 -3,17.921 -3.377,24.592c-0.377,6.671 -0.332,10.95 -0.357,15.212c-0.025,4.262 0.385,6.333 1.488,10.179c1.103,3.846 5.119,8.567 7.716,10.093c2.597,1.526 0.766,0.611 3.921,1.988c3.155,1.378 8.231,3.858 14.461,7.37c6.23,3.512 15.935,10.546 21.537,15.461c7.053,6.188 14.926,5.868 11.22,-5.551c-3.706,-11.419 -4.88,-12.297 -8.825,-19.596c-3.944,-7.299 -7.866,-17.028 -9.996,-19.787c-2.13,-2.759 -3.531,-4.671 -7.735,-8.134c-4.203,-3.463 -6.364,-5.525 -9.865,-9.719c-3.5,-4.194 -5.696,-11.266 -5.576,-16.634c0.12,-5.367 0.706,-8.399 2.121,-13.511c1.415,-5.112 3.516,-12.192 5.099,-17.368c1.583,-5.176 3.612,-11.207 4.421,-13.682c0.809,-2.475 -0.005,-1.392 0.572,-1.122c0.577,0.27 0.604,0.094 0.838,2.065c0.234,1.971 0.782,6.916 1.069,9.746c0.287,2.83 0.432,4.957 0.663,7.238c0.231,2.281 0.459,6.75 1.907,8.01c1.448,1.26 0.479,-0.119 0.733,-0.479c0.254,-0.36 -1.109,2.017 1.222,-1.826c2.331,-3.843 11.302,-16.055 14.869,-19.649c3.567,-3.594 2.158,-1.144 -0.262,-2.745c-2.42,-1.601 -6.055,-4.549 -8.992,-7.666c-2.937,-3.117 -6.135,-7.927 -7.475,-11.387c-1.34,-3.461 -1.823,-5.972 -2.438,-8.084c-0.615,-2.112 -1.286,-1.359 -2.051,-0.643c-0.765,0.716 0.605,-0.896 -1.131,1.256c-1.736,2.152 -5.882,7.781 -8.759,12.031c-2.878,4.249 -6.109,8.807 -9.298,12.89c-3.19,4.084 -7.013,8.239 -9.813,11.629c-2.8,3.391 -4.698,6.085 -6.106,9.308c-1.408,3.222 -2.048,7.448 -1.974,9.35c0.074,1.902 0.103,1.251 0.227,1.564c0.124,0.313 0.141,0.406 0.425,0.098c0.284,-0.308 -0.017,0.499 1.098,-1.763c1.115,-2.263 4.086,-7.404 6.827,-11.071c2.741,-3.667 6.415,-7.98 9.274,-10.969c2.859,-2.989 5.875,-5.46 7.69,-6.837c1.815,-1.377 1.915,-1.176 2.877,-1.757m132.343,180.416c0,0 0.122,0.136 -0.088,-0.235c-0.21,-0.371 0.304,0.265 -0.992,-1.57c-1.295,-1.835 -3.828,-6.619 -4.874,-10.353c-1.046,-3.735 -1.416,-7.552 -1.442,-11.376c-0.025,-3.824 0.176,-6.081 0.601,-11.474c0.425,-5.392 1.388,-14.594 1.743,-20.891c0.355,-6.298 0.607,-10.109 0.176,-16.899c-0.431,-6.79 -1.828,-14.191 -5.373,-23.157c-3.545,-8.967 -11.762,-22.667 -16.358,-29.344c-4.595,-6.677 -5.438,-7.47 -7.871,-12.619c-2.433,-5.15 -4.073,-13.774 -4.432,-18.317c-0.359,-4.543 -0.294,-6.6 -0.376,-8.272c-0.081,-1.672 -0.005,-1.723 -0.817,-1.716c-0.812,0.007 1.588,-2.882 -1.19,1.442c-2.778,4.324 -11.227,17.42 -15.593,24.366c-4.366,6.946 -6.987,11.316 -10.531,17.353c-3.545,6.036 -7.972,12.818 -12.979,17.182c-5.007,4.364 -5.758,5.267 -8.874,8.557c-3.116,3.29 0.76,12.014 2.547,17.585c1.787,5.571 5.328,9.96 6.643,13.958c1.315,3.998 2.968,8.457 4.461,12.811c1.493,4.353 2.61,7.553 4.928,12.175c2.319,4.623 4.831,8.626 8.615,12.754c3.783,4.128 5.836,7.898 11.35,12.599c5.514,4.701 15.615,13.037 19.568,16.409c3.953,3.371 1.625,1.699 4.485,0.921c2.859,-0.778 7.802,-2.027 12,-2.899c4.198,-0.872 10.613,-0.186 13.014,0.655c2.401,0.841 1.098,0.235 1.658,0.359m223.383,-4.583c2.501,-2.105 5.026,-4.182 7.499,-6.319c4.601,-3.975 9.313,-7.81 13.347,-12.427c6.077,-6.957 10.956,-14.603 14.203,-23.25c1.922,-5.119 3.704,-10.291 5.524,-15.449c1.708,-4.835 3.249,-9.734 5.109,-14.508c1.472,-3.781 3.315,-7.422 5.842,-10.645c1.635,-2.085 3.368,-4.092 5.031,-6.155c0.706,-0.877 1.405,-1.77 2.002,-2.721c0.545,-0.868 0.34,-1.325 -0.658,-1.626c-0.753,-0.228 -1.545,-0.328 -2.312,-0.509c-5.771,-1.367 -11.178,-3.552 -15.869,-7.262c-3.684,-2.914 -7.003,-6.207 -9.831,-9.966c-6.542,-8.698 -11.44,-18.353 -16.261,-28.051c-1.381,-2.775 -2.73,-5.568 -4.1,-8.35c-0.67,-1.364 -1.371,-2.713 -2.036,-4.08c-1.802,-3.706 -3.73,-7.339 -6.226,-10.638c-0.32,-0.423 -0.687,-0.811 -1.032,-1.213c-0.132,0.036 -0.262,0.071 -0.393,0.108c-0.061,0.64 -0.156,1.278 -0.178,1.919c-0.118,3.603 -0.125,7.213 -0.345,10.809c-0.369,6.033 -1.752,11.86 -4.64,17.182c-2.444,4.503 -5.189,8.849 -7.92,13.19c-5.261,8.358 -10.281,16.832 -14.154,25.955c-3.534,8.319 -6.146,16.876 -6.673,25.916c-0.391,6.749 -0.247,13.523 0.34,20.275c0.347,3.984 0.624,7.974 0.888,11.965c0.174,2.642 0.09,5.312 0.433,7.927c0.582,4.414 0.054,8.79 -0.22,13.164c-0.154,2.452 -0.689,4.923 -1.378,7.29c-1.141,3.928 -3.122,7.477 -5.561,10.765c-0.447,0.602 -0.8,1.274 -1.4,2.241c0.995,0.029 1.587,0.083 2.175,0.054c3.921,-0.184 7.769,0.267 11.55,1.31c3.369,0.931 6.757,1.804 10.089,2.855c1.934,0.613 3.672,0.531 5.283,-0.684c3.913,-2.95 7.8,-5.933 11.87,-9.071m86.693,-126.854c-0.198,3.76 -0.652,6.448 -2.589,10.802c-1.938,4.353 -1.679,6.725 -3.872,11.091c-2.192,4.366 -3.847,7.862 -6.354,10.37c-2.507,2.508 -5.333,7.56 -7.504,10.796c-2.172,3.236 -4.783,8.158 -6.849,12.412c-2.067,4.254 -4.351,8.309 -5.4,11.352c-1.049,3.043 -1.45,7.465 0.367,8.757c1.817,1.292 2.345,2.812 6.265,0.497c3.92,-2.315 9.556,-5.609 14.725,-8.666c5.169,-3.057 11.662,-6.925 16.273,-9.704c4.611,-2.779 7.489,-4.045 11.206,-7.251c3.717,-3.206 7.278,-9.351 7.835,-13.056c0.558,-3.705 0.444,-2.155 0.528,-6.058c0.084,-3.903 -0.758,-11.703 -1.968,-17.101c-1.21,-5.398 -2.389,-9.923 -3.754,-15.454c-1.365,-5.531 -3.324,-12.448 -5.194,-17.508c-1.87,-5.061 -3.224,-8.514 -5.559,-12.882c-2.335,-4.368 -4.636,-10.606 -5.654,-14.461c-1.018,-3.854 -1.469,-4.822 -2.645,-7.839c-1.176,-3.016 -3.203,-7.554 -4.283,-10.306c-1.081,-2.753 -1.622,-4.947 -2.065,-6.265c-0.443,-1.317 -0.339,-1.738 -1.168,-1.499c-0.829,0.239 0.086,-0.349 -1.159,1.941c-1.246,2.291 -4.064,7.863 -6.4,11.723c-2.336,3.859 -6.3,8.346 -8.615,10.616c-2.315,2.27 -3.339,-0.877 -0.125,3.109c3.214,3.986 11.096,17.074 12.895,21.179c1.8,4.105 0.346,1.566 0.97,1.618c0.624,0.052 0.472,0.443 0.547,-1.203c0.074,-1.647 0.14,-5.26 0.376,-8.781c0.235,-3.522 1.592,-9.968 2.298,-12.102c0.707,-2.133 -0.03,-1.376 0.636,-1.196c0.666,0.18 0.047,-0.324 0.462,1.54c0.415,1.864 1.366,6.052 2.18,9.915c0.814,3.863 2.052,9.598 2.691,13.259c0.639,3.661 0.817,5.394 0.949,8.737c0.132,3.343 0.005,7.539 -0.046,11.619m-40.929,103.17c4.386,-3.987 17.543,-13.059 21.95,-15.081c4.919,-2.259 9.861,-4.469 14.774,-6.745c5.678,-2.63 11.362,-5.253 16.991,-7.988c3.017,-1.467 5.713,-3.424 7.641,-6.258c0.322,-0.474 0.543,-1.015 0.811,-1.525c-0.096,-0.076 -0.193,-0.151 -0.289,-0.225c-0.32,0.174 -0.687,0.296 -0.951,0.533c-2.454,2.198 -5.371,3.44 -8.492,4.383c-3.615,1.093 -7.25,2.185 -10.738,3.616c-12.883,5.285 -25.965,10.111 -38.442,16.348c-2.318,1.158 -4.62,2.369 -6.823,3.726c-3.808,2.349 -6.696,5.676 -9.277,9.269c-2.317,3.227 -4.93,6.214 -7.979,8.714c-5.711,4.681 -11.619,9.121 -17.417,13.696c-2.831,2.234 -5.771,4.368 -8.348,6.871c-3.105,3.017 -5.838,6.415 -8.803,9.582c-3.315,3.537 -6.498,7.236 -10.115,10.438c-6.085,5.39 -12.613,10.235 -19.89,13.972c-0.513,0.262 -0.96,0.652 -1.437,0.982c0.064,0.14 0.127,0.281 0.191,0.421c0.966,-0.213 1.944,-0.384 2.897,-0.648c7.94,-2.203 14.987,-6.221 21.646,-10.927c7.099,-5.018 13.586,-10.802 20.045,-16.608c4.234,-3.804 8.473,-7.602 12.753,-11.354m-208.394,-159.228c6.124,-0.388 11.782,-2.378 17.31,-4.908c6.509,-2.977 13.046,-5.896 19.624,-8.719c6.419,-7.036 5.491,-10.323 -11.873,-8.937c-6.815,0.486 -13.606,1.166 -20.265,2.687c-8.573,1.956 -17.096,4.138 -25.64,6.223c-1.22,0.303 -5.509,5.896 6.402,11.821c4.532,1.789 9.294,2.207 14.442,1.833m8.231,-49.98c-1.963,0.191 -3.94,0.298 -5.887,0.586c-7.196,1.064 -14.412,2.027 -21.563,3.336c-7.485,1.369 -14.906,3.09 -22.35,4.674c-0.572,0.122 -1.117,0.374 -1.675,0.565l-0.056,0.421c0.445,0.261 0.86,0.628 1.34,0.765c2.706,0.773 5.395,1.667 8.152,2.198c8.064,1.554 16.273,1.339 24.428,1.677c4.27,0.178 8.558,-0.115 12.839,-0.191c8.34,-0.147 16.679,-0.306 25.021,-0.428c3.327,-0.049 6.656,0.034 9.981,-0.029c3.6,-0.301 5.012,-14.067 -11.677,-14.187c-2.594,-0.049 -5.192,-0.083 -7.783,0.008c-3.488,0.124 -6.972,0.376 -10.77,0.604m149.34,8.177c-5.635,-1.149 -11.249,-2.418 -16.909,-3.422c-11.877,-2.102 -23.69,-4.625 -35.745,-5.59c-2.694,-0.217 -5.402,-0.46 -8.098,-0.408c-3.205,0.063 -6.427,0.259 -9.599,0.711c-10.83,0.465 -7.631,13.786 -1.213,13.852c4.055,0.112 3.732,0.139 7.787,0.258c7.658,0.223 15.315,0.454 22.975,0.682c3.716,0.11 7.431,0.284 11.149,0.316c7.551,0.064 15.107,0.234 22.633,-0.677c3.874,-0.469 7.695,-1.163 11.357,-2.557c0.641,-0.244 1.23,-0.619 1.845,-0.936c0.03,-0.144 0.063,-0.288 0.093,-0.433c-0.205,-0.096 -0.401,-0.227 -0.616,-0.286c-1.792,-0.492 -3.588,-0.973 -5.659,-1.511m-30.231,42.255c3.151,-0.301 6.277,-0.711 9.255,-1.872c1.953,-0.76 3.842,-1.638 5.458,-3c3.702,-3.504 1.29,-7.071 -0.91,-7.832c-3.442,-0.878 -6.91,-1.662 -10.337,-2.596c-8.439,-2.296 -16.914,-4.451 -25.576,-5.718c-6.133,-0.899 -12.308,-1.51 -18.46,-2.298c-5.329,-1.214 -9.824,4.121 -5.928,6.221c2.777,1.498 5.639,2.836 8.441,4.283c4.86,2.51 9.675,5.104 14.562,7.559c7.28,3.657 14.992,5.534 23.494,5.253m-276.755,109.715c-5.248,-1.9 -10.534,-3.704 -15.735,-5.727c-4.736,-1.84 -9.311,-4.046 -13.402,-7.133c-0.186,-0.14 -0.459,-0.164 -1.043,-0.36c0.399,0.755 0.588,1.212 0.86,1.613c1.466,2.166 3.243,4.056 5.317,5.639c4.01,3.06 8.3,5.656 13.055,7.395c7.837,2.867 15.697,5.671 23.54,8.521c11.044,4.012 20.665,10.308 29.024,18.497c8.658,8.485 17.133,17.158 25.755,25.682c2.601,2.572 5.37,4.985 8.159,7.356c5.771,4.906 11.975,9.204 18.548,12.977c3.579,2.054 7.24,3.916 11.152,5.253c0.484,0.166 0.998,0.247 1.499,0.367c0.042,-0.129 0.085,-0.259 0.127,-0.389c-0.464,-0.274 -0.926,-0.548 -1.389,-0.824c-0.535,-0.315 -1.075,-0.621 -1.601,-0.948c-5.635,-3.5 -10.621,-7.803 -15.351,-12.421c-1.936,-1.889 -3.926,-3.723 -5.838,-5.634c-3.226,-3.224 -6.339,-6.561 -9.627,-9.719c-3.818,-3.669 -7.776,-7.192 -11.667,-10.788c-4.551,-4.207 -9.033,-8.49 -13.653,-12.621c-7.863,-7.028 -16.626,-12.758 -25.961,-17.632c-6.918,-3.613 -14.22,-6.309 -21.768,-9.103m276.85,37.901c1.526,-0.584 3.078,-1.112 4.576,-1.763c5.899,-2.562 10.727,-6.356 13.914,-12.073c1.611,-2.889 2.665,-5.962 3.383,-9.165c0.839,-3.75 1.295,-7.549 1.444,-11.391c0.151,-3.938 0.381,-7.873 0.548,-11.811c0.022,-0.526 -0.115,-1.059 -0.198,-1.746c-1.371,0.584 -2.07,1.565 -2.72,2.496c-3.584,5.124 -7.118,10.286 -10.641,15.451c-2.858,4.192 -5.644,8.431 -8.527,12.604c-2.467,3.567 -5.08,7.037 -7.534,10.616c-1.855,2.706 -3.297,5.647 -4.304,8.781c-0.21,0.655 -0.64,1.349 0.036,2.156c1.567,-0.762 3.088,-1.587 4.678,-2.247c1.664,-0.69 3.395,-1.22 5.346,-1.907m-298.095,-20.372c1.078,0.992 2.119,2.027 3.24,2.968c5.618,4.722 11.447,9.143 17.812,12.841c7.657,4.449 15.962,7.348 24.232,10.342c0.307,0.11 0.689,0.014 1.192,0.014c-0.629,-1.716 -1.8,-2.704 -2.894,-3.726c-4.474,-4.18 -9.521,-7.595 -14.773,-10.682c-12.446,-7.312 -24.926,-14.564 -36.517,-23.22c-5.77,-4.309 -10.948,-9.211 -15.29,-14.975c-2.747,-3.649 -5.491,-7.299 -8.29,-10.907c-1.103,-1.423 -2.333,-2.748 -3.544,-4.084c-0.3,-0.332 -0.753,-0.523 -1.136,-0.78c-0.118,0.076 -0.235,0.152 -0.353,0.227c0.097,0.696 0.092,1.423 0.308,2.078c0.901,2.73 1.798,5.464 2.843,8.14c0.507,1.298 1.226,2.552 2.046,3.682c2.091,2.885 4.548,5.432 7.354,7.653c2.74,2.168 5.465,4.361 8.104,6.651c5.193,4.503 10.322,9.083 15.666,13.779m147.968,-10.553c-2.291,-4.337 -4.579,-8.676 -6.881,-13.009c-0.212,-0.399 -0.509,-0.753 -0.767,-1.129c-0.113,0.047 -0.227,0.095 -0.342,0.142c-0.032,0.608 -0.118,1.217 -0.088,1.819c0.225,4.557 0.327,9.128 0.75,13.669c0.611,6.52 2.268,12.74 5.862,18.356c2.968,4.634 6.837,8.126 12.113,9.768c3.33,1.037 6.783,1.677 10.184,2.478c0.178,0.042 0.394,-0.076 0.91,-0.191c-0.77,-0.748 -1.339,-1.335 -1.944,-1.885c-2.127,-1.931 -4.361,-3.755 -6.378,-5.793c-3.461,-3.495 -5.705,-7.815 -7.798,-12.201c-1.87,-3.919 -3.671,-7.869 -5.622,-12.024m241.532,-144.256c1.671,1.826 3.447,3.565 4.995,5.486c4.956,6.143 10.002,12.231 14.68,18.576c3.969,5.384 7.472,11.104 11.201,16.662c0.454,0.675 1.026,1.272 1.545,1.904c0.188,-0.057 0.374,-0.117 0.563,-0.177c0.113,-0.742 0.278,-1.48 0.333,-2.224c0.63,-8.2 -1.608,-15.751 -5.543,-22.843c-5.301,-9.558 -12.578,-17.483 -21.474,-23.831c-9.374,-6.692 -19.009,-13.028 -28.542,-19.5c-0.336,-0.227 -0.794,-0.274 -1.195,-0.406c0.389,1.21 0.97,2.148 1.707,2.947c3.892,4.226 7.824,8.415 11.735,12.622c3.261,3.506 6.511,7.021 9.994,10.782m7.671,25.788c-5.262,-6.487 -11.652,-12.023 -18.773,-16.924c-5.73,-3.941 -11.515,-7.82 -17.286,-11.716c-0.621,-0.421 -1.303,-0.773 -1.958,-1.157c-0.142,0.943 0.085,1.681 0.485,2.335c1.424,2.318 2.814,4.655 4.38,6.896c7.559,10.847 16.41,20.885 25.456,30.788c7.113,7.789 14.264,15.54 20.334,24c0.871,1.214 1.895,2.344 2.924,3.46c0.356,0.383 0.939,0.606 1.478,0.941c1.908,-5.562 -6.995,-25.671 -17.04,-38.623m-344,0.714c0.732,-0.851 1.414,-1.749 2.204,-2.545c3.375,-3.394 6.826,-6.713 10.169,-10.138c6.039,-6.185 12.922,-11.384 19.657,-16.764c2.456,-1.962 4.773,-4.097 7.123,-6.185c0.513,-0.457 0.895,-1.057 1.34,-1.59l-0.38,-0.396c-1.218,0.809 -2.398,1.682 -3.663,2.413c-6.045,3.494 -12.111,6.953 -18.171,10.418c-6.404,3.662 -12.545,7.746 -18.033,12.638c-9.079,8.089 -16.713,17.336 -21.998,28.379c-2.262,4.726 -3.566,9.641 -4.046,14.809c-0.066,0.71 -0.253,1.519 0.924,2.05c0.524,-0.715 1.099,-1.449 1.622,-2.218c2.776,-4.081 5.483,-8.207 8.32,-12.246c4.518,-6.429 9.458,-12.535 14.932,-18.624m111.991,25.936c-0.102,0.268 -0.215,0.533 -0.303,0.803c-3.157,9.622 -0.136,18.315 11.24,25.537c4.274,2.713 9.315,4.987 14.06,7.424c0.514,0.265 1.379,0.282 2.599,0.51c-0.102,-0.99 0.01,-1.735 -0.293,-2.414c-0.644,-1.455 -1.373,-2.904 -2.289,-4.301c-4.234,-6.46 -7.626,-13.061 -9.012,-19.982c-0.627,-3.124 -1.073,-6.269 -1.356,-9.412c-0.211,-2.385 -0.075,-4.783 -0.027,-7.175c0.034,-1.78 0.228,-3.558 0.232,-5.337c0,-0.478 -0.439,-0.955 -0.698,-1.478c-5.228,1.657 -10.841,7.977 -14.152,15.825m0.767,-170.203c2.628,-2.942 5.197,-5.926 7.251,-9.322c3.442,-5.689 5.2,-9.218 5.194,-10.774c-0.381,0.213 -0.721,0.363 -1.017,0.576c-2.151,1.544 -4.256,3.152 -6.444,4.639c-2.376,1.614 -4.891,3.028 -7.228,4.693c-3.989,2.84 -8.06,5.583 -11.574,9.04c-2.368,2.33 -4.781,4.616 -7.152,6.942c-0.276,0.27 -0.42,0.675 -0.624,1.018c0.081,0.097 0.164,0.193 0.245,0.29c0.508,-0.175 1.034,-0.308 1.518,-0.532c3.171,-1.465 6.329,-2.956 9.501,-4.419c0.574,-0.265 1.12,-0.775 2.068,-0.363c-0.322,0.537 -0.565,1.022 -0.88,1.454c-0.929,1.274 -1.9,2.517 -2.824,3.795c-0.337,0.464 -0.885,0.874 -0.707,1.596c1.884,-0.297 8.48,-4.78 12.674,-8.634m257.109,37.717c5.955,8.68 9.678,18.306 12,28.507c0.712,3.129 1.163,6.319 1.753,9.475c0.117,0.621 0.059,1.349 0.975,1.941c0.115,-0.762 0.264,-1.337 0.279,-1.916c0.066,-2.422 0.135,-4.847 0.118,-7.268c-0.014,-1.914 -0.063,-3.836 -0.247,-5.74c-0.503,-5.202 -1.966,-10.149 -3.889,-15.006c-2.686,-6.786 -6.893,-12.557 -11.843,-17.761c-3.527,-3.706 -7.429,-7.079 -11.734,-9.91c-2.494,-1.641 -5.041,-3.203 -7.59,-4.76c-0.509,-0.312 -1.061,-0.772 -2.049,-0.414c8.695,6.475 16.221,13.765 22.227,22.852m-133.899,-54.963c-0.811,-0.511 -1.589,-1.085 -2.44,-1.514c-0.85,-0.429 -1.52,-1.34 -2.941,-1.147c0.333,0.844 0.535,1.588 0.899,2.241c3.363,6.007 6.964,11.853 11.453,17.112c2.166,2.538 4.502,4.887 7.196,6.855c0.858,0.627 1.809,1.147 2.77,1.602c0.438,0.207 1.007,0.14 1.775,0.226c-0.618,-2.75 -2.846,-4.197 -3.948,-6.799c0.904,0.362 1.454,0.557 1.983,0.8c2.149,0.988 4.283,2.011 6.443,2.974c0.514,0.229 1.117,0.584 1.772,-0.02c-0.217,-0.367 -0.369,-0.728 -0.608,-1.016c-0.829,-0.995 -1.691,-1.963 -2.538,-2.942c-4.256,-4.916 -8.962,-9.359 -14.193,-13.22c-2.4,-1.771 -4.936,-3.355 -7.622,-5.152m-255.566,295.835c3.168,1.332 6.337,2.662 9.505,3.995c6.691,2.816 12.797,6.661 18.664,10.875c2.924,2.1 5.618,4.518 8.429,6.778c1.931,1.552 3.874,3.09 5.837,4.6c0.411,0.315 0.85,0.78 1.706,0.403c-0.303,-0.509 -0.533,-0.997 -0.851,-1.416c-4.07,-5.356 -8.651,-10.259 -13.609,-14.786c-2.069,-1.89 -4.377,-3.564 -6.74,-5.08c-5.265,-3.379 -11.121,-5.471 -17.085,-7.201c-4.87,-1.411 -9.821,-2.544 -14.734,-3.808c-1.747,-0.448 -3.485,-0.936 -5.236,-1.366c-0.372,-0.091 -0.786,-0.014 -1.181,-0.014c-0.032,0.139 -0.064,0.276 -0.096,0.415c1.424,0.763 2.797,1.652 4.283,2.264c3.592,1.484 7.238,2.84 11.109,4.341m441.39,-91.426c1.251,3.082 2.471,6.177 3.76,9.243c1.95,4.639 4.254,9.088 7.301,13.117c0.418,0.553 0.968,1.005 1.601,1.652c0.24,-0.564 0.46,-0.85 0.47,-1.144c0.052,-1.408 0.061,-2.819 0.061,-4.227c0.003,-8.297 -2.594,-15.762 -7.483,-22.391c-3.041,-4.124 -6.353,-8.05 -9.555,-12.056c-0.12,-0.151 -0.345,-0.218 -0.55,-0.342c-0.41,1.887 0.694,5.92 4.395,16.148m-5.018,-39.977c3.361,5.356 6.478,10.827 8.402,16.906c0.646,2.038 1.472,4.021 2.247,6.016c0.212,0.548 0.533,1.054 0.846,1.658c1.002,-0.631 0.909,-1.471 0.936,-2.219c0.108,-2.945 -0.234,-5.854 -0.87,-8.722c-0.907,-4.094 -2.398,-7.972 -4.327,-11.699c-3.207,-6.19 -7.471,-11.525 -12.885,-15.904c-2.801,-2.266 -5.735,-4.368 -8.626,-6.522c-0.234,-0.174 -0.597,-0.174 -0.86,-0.244c-0.63,0.716 -0.418,1.403 -0.105,1.983c0.584,1.086 1.171,2.202 1.951,3.141c1.366,1.645 2.826,3.219 4.341,4.725c3.292,3.273 6.035,6.986 8.949,10.88m-189.961,37.907c-1.95,3.259 -3.839,6.536 -5.881,9.77c-1.198,1.899 -2.699,3.708 -3.941,5.595c-0.513,0.782 -1.275,1.648 -0.138,2.709c0.833,-0.255 1.68,-0.43 2.389,-0.746c3.198,-1.425 6.488,-2.773 9.501,-4.363c7.915,-4.177 13.802,-9.298 14.457,-16.416c0.25,-2.727 0.084,-5.528 -0.533,-8.225c-1.522,-6.647 -5.874,-12.352 -13.283,-16.876c-0.847,-0.516 -1.926,-0.854 -2.898,-1.275c-0.236,0.099 -0.472,0.196 -0.708,0.292c0.078,0.789 0.051,1.59 0.25,2.364c0.506,1.963 1.198,3.903 1.663,5.869c1.657,7.008 2.25,14.009 -0.877,21.304m-214.197,-11.521c2.257,-3.346 4.491,-6.701 6.774,-10.036c0.812,-1.187 1.628,-2.372 2.446,-3.556c0.72,-1.042 1.441,-2.083 2.162,-3.124c3.631,-5.239 7.267,-10.476 10.736,-15.785c2.084,-3.19 3.523,-6.659 5.159,-10.03c0.425,-0.878 1.068,-1.876 -0.058,-2.991c-0.54,0.285 -1.069,0.464 -1.426,0.772c-5.111,4.403 -10.326,8.736 -15.262,13.265c-5.934,5.448 -11.399,11.185 -15.477,17.726c-5.174,8.3 -8.034,17.209 -10.747,26.154c-0.985,3.251 -1.671,6.561 -2.434,9.851c-0.194,0.839 -0.72,1.814 0.724,2.547c2.241,-1.512 3.212,-3.629 4.508,-5.543c4.251,-6.281 8.434,-12.591 12.893,-19.25m195.06,94.01c0.201,-0.609 0.404,-1.22 0.706,-2.131c-0.552,0.235 -0.782,0.278 -0.934,0.408c-1.107,0.956 -2.175,1.956 -3.298,2.894c-2.718,2.269 -5.429,4.549 -8.199,6.756c-1.892,1.506 -3.889,2.88 -5.815,4.346c-1.224,0.931 -1.196,1.349 0.044,2.305c0.178,0.137 0.374,0.25 0.55,0.391c2.54,2.044 5.131,4.031 7.603,6.155c2.391,2.054 2.405,2.109 3.165,-1.051c1.623,-6.737 3.583,-13.371 6.179,-20.072m-62.089,-2.19c-0.618,-0.411 -1.088,-1.122 -2.198,-1.048c0.174,0.652 0.276,1.186 0.459,1.691c2.464,6.793 4.544,13.692 5.811,20.819c0.284,1.604 0.868,1.772 2.127,0.758c1.708,-1.378 3.427,-2.748 5.197,-4.045c1.454,-1.064 3.012,-1.982 4.478,-3.029c0.88,-0.628 0.892,-1.054 0.088,-1.741c-0.983,-0.841 -2.019,-1.628 -3.056,-2.403c-4.476,-3.342 -8.681,-6.999 -12.905,-11.002m79.699,-269.252c1.406,3.754 3.126,7.351 5.256,10.754c0.638,1.02 1.364,1.751 2.665,1.742c3.041,-0.022 6.08,0.005 9.121,-0.013c0.476,-0.003 1.053,0.08 1.328,-0.768c-0.34,-0.311 -0.726,-0.686 -1.134,-1.036c-2.557,-2.197 -5.236,-4.269 -7.656,-6.609c-3.762,-3.637 -7.356,-7.445 -10.507,-11.646c-0.374,-0.5 -0.709,-1.156 -1.728,-1.067c0.438,2.991 1.63,5.658 2.654,8.644m-66.241,215.633c-4.104,0.826 -8.081,2.019 -11.704,4.18c-0.865,0.516 -1.711,1.095 -2.466,1.757c-0.921,0.809 -0.795,1.305 0.325,1.88c0.051,0.025 0.102,0.051 0.154,0.071c2.505,0.98 5.072,1.488 7.764,1.005c6.217,-1.117 11.349,-4.456 16.366,-8.023c0.181,-0.129 0.34,-0.301 0.47,-0.481c0.437,-0.602 0.31,-1.086 -0.415,-1.271c-0.533,-0.137 -1.12,-0.195 -1.667,-0.139c-2.852,0.296 -5.696,0.64 -8.829,1.02m3.315,30.131c0.276,-0.058 0.553,-0.105 0.826,-0.174c2.362,-0.611 4.334,-1.878 5.933,-3.688c1.004,-1.136 0.848,-2.009 -0.476,-2.731c-0.88,-0.482 -1.831,-0.936 -2.804,-1.124c-4.495,-0.863 -8.957,-0.763 -13.313,0.799c-1.884,0.675 -2.153,1.438 -0.917,2.973c2.694,3.349 6.19,4.725 10.751,3.945m36.645,-25.868c-2.332,-0.85 -4.63,-1.811 -7.004,-2.515c-1.936,-0.572 -3.953,-0.905 -5.953,-1.212c-1.174,-0.181 -1.554,0.377 -1.235,1.508c0.061,0.215 0.154,0.423 0.25,0.628c2.684,5.734 8.082,8.502 13.765,7.499c2.159,-0.382 4.28,-1 6.405,-1.555c0.445,-0.117 0.838,-0.428 1.313,-0.684c-0.442,-0.988 -1.176,-1.318 -1.892,-1.598c-1.787,-0.696 -3.596,-1.33 -5.649,-2.071m-9.028,21.225c2.764,2.227 5.82,2.472 9.093,1.372c1.9,-0.638 3.583,-1.653 5.145,-2.877c0.611,-0.477 1.379,-0.997 1.224,-1.89c-0.162,-0.924 -1.119,-1.037 -1.843,-1.274c-3.232,-1.056 -6.561,-1.721 -9.949,-1.865c-1.895,-0.081 -3.828,0.13 -5.706,0.44c-1.569,0.259 -1.909,1.085 -1.029,2.423c0.826,1.259 1.912,2.347 3.066,3.671m53.446,-33.053c0.044,0.857 0.092,1.713 0.181,3.339c11.967,-4.932 21.262,-12.522 28.602,-22.859c9.326,-13.129 14.944,-25.054 14.12,-30.181c-3.201,0.486 -5.614,2.556 -7.961,4.534c-10.365,8.716 -19.4,18.811 -27.426,29.903c-3.21,4.437 -5.904,9.22 -7.516,15.264m-3.77,20.685c0.924,-2.683 2.034,-5.354 2.694,-8.056c0.313,-1.263 0.202,-2.659 -2.197,-3.875c-1.457,0.514 -3.024,0.919 -4.244,1.524c-4.358,2.162 -7.691,4.739 -9.535,7.769c-3.808,6.249 -7.471,12.525 -11.098,18.807c-0.427,0.735 -0.264,1.566 -0.387,2.452c3.346,-0.379 3.31,-0.398 5.415,-1.43c9.434,-4.617 15.553,-10.313 19.352,-17.191m-155.187,-34.407c1.715,2.237 3.226,4.87 5.191,6.632c4.838,4.339 9.876,8.299 14.863,12.346c0.486,0.392 1.189,0.326 1.905,0.5c0.779,-3.172 -0.226,-5.653 -1.102,-8.09c-2.104,-5.814 -5.051,-10.905 -8.347,-15.623c-4.778,-6.845 -9.536,-13.751 -15.419,-19.069c-1.036,-0.936 -2.214,-1.597 -3.37,-2.415c-1.535,5.109 1.032,15.435 6.28,25.718m43.892,49.436c2.303,1.235 3.692,2.943 8.189,3.615c0,-0.936 0.218,-1.639 -0.035,-2.301c-2.189,-5.667 -4.129,-11.364 -6.844,-16.974c-1.628,-3.372 -4.328,-6.65 -9.281,-9.334c-1.39,-0.75 -2.888,-1.924 -5.137,-1.32c-1.275,0.342 -2.154,1.61 -2.065,2.434c0.352,3.38 0.749,6.783 1.876,10.12c1.697,5.018 7.325,9.262 13.296,13.761m210.684,80.948c0,0 -0.012,0.002 0,0m-81.921,-117.435c0,0 0.012,-0.002 0,0Z" style="fill-rule:nonzero;"/><path id="path2-6" d="M933.855,477.678c3.968,3.85 7.844,7.622 11.738,11.376c1.784,1.721 3.627,3.379 5.4,5.111c1.418,1.383 1.378,1.702 -0.323,2.774c-5.63,3.539 -11.288,7.033 -16.909,10.584c-6.052,3.823 -12.075,7.688 -18.109,11.536c-2.66,1.697 -5.349,3.352 -7.969,5.112c-1.198,0.807 -2.215,0.78 -3.418,0.029c-4.732,-2.956 -9.494,-5.862 -14.256,-8.771c-7.118,-4.348 -14.239,-8.687 -21.367,-13.014c-2.554,-1.55 -5.136,-3.051 -7.703,-4.579c-0.289,-0.171 -0.579,-0.354 -0.839,-0.565c-0.589,-0.479 -0.636,-1.046 -0.152,-1.618c0.401,-0.472 0.839,-0.912 1.278,-1.35c11.157,-11.164 22.33,-22.315 33.472,-33.494c2.743,-2.753 5.395,-5.598 8.089,-8.401c0.235,-0.244 0.477,-0.479 0.718,-0.718c1.787,-1.772 1.895,-1.779 3.632,-0.047c3.632,3.622 7.218,7.29 10.897,10.865c5.212,5.065 10.491,10.061 15.825,15.171m-22.835,33.19c1.135,-2.53 2.292,-5.057 3.388,-7.589c0.707,-1.628 1.71,-3.253 1.912,-4.889c1.236,-10.078 -1.127,-20.117 -3.458,-30.146c-0.567,-2.425 -3.202,-4.798 -5.09,-7.174c-0.365,-0.454 -1.733,-0.808 -3.59,-1.636c-1.438,1.268 -2.937,2.109 -3.326,3.014c-2.184,5.057 -4.352,10.117 -6.015,15.198c-0.979,2.992 -2.02,6.05 -1.29,9.025c2.114,8.552 2.603,17.178 7.848,25.609c1.127,1.804 1.181,3.751 4.717,5.632c3.777,-2.222 2.914,-4.515 4.903,-7.042m-5.516,-42.748c0,0 0.012,-0.002 0,0Z" style="fill-rule:nonzero;"/><path id="path5-4" d="M965.885,169.095c4.434,0.226 8.724,0.277 12.971,0.728c3.402,0.362 6.761,1.174 10.122,1.867c0.909,0.187 1.757,0.667 2.638,1.339c-0.379,0.142 -0.748,0.364 -1.139,0.414c-2.01,0.257 -4.024,0.505 -6.043,0.692c-4.261,0.395 -8.527,0.737 -12.79,1.127c-4.43,0.406 -8.863,0.803 -13.286,1.274c-9.715,1.034 -19.307,2.73 -28.635,5.698c-4.562,1.452 -9.081,3.038 -13.62,4.556c-0.25,0.083 -0.52,0.103 -0.755,0.149c-0.091,-0.195 -0.193,-0.306 -0.174,-0.391c1.174,-5.253 3.628,-9.53 8.795,-11.854c5.095,-2.293 10.479,-3.438 15.967,-4.192c5.138,-0.707 10.299,-1.082 15.493,-1.096c3.432,-0.01 6.864,-0.202 10.457,-0.31l0,0l0,-0Z" style="fill-rule:nonzero;"/><path id="path6-8" d="M869.937,178.083c-9.155,-1.113 -18.162,-2.218 -27.173,-3.278c-4.869,-0.573 -9.748,-1.063 -14.62,-1.602c-0.533,-0.059 -1.056,-0.197 -1.584,-0.299c-0.015,-0.116 -0.03,-0.231 -0.046,-0.347c0.43,-0.194 0.844,-0.429 1.29,-0.575c3.66,-1.204 7.424,-1.964 11.264,-2.169c4.329,-0.231 8.671,-0.387 13.005,-0.349c3.769,0.033 7.541,0.309 11.299,0.608c4.997,0.398 9.998,0.814 14.973,1.421c5.373,0.656 10.695,1.605 15.828,3.462c3.997,1.447 6.625,4.141 8.081,8.076c0.499,1.349 1.081,2.674 1.151,4.5c-10.964,-4.371 -21.936,-7.653 -33.469,-9.448l0,-0l-0,0Z" style="fill-rule:nonzero;"/></g></g><defs><linearGradient id="_Linear2" x1="0" y1="0" x2="1" y2="0" gradientUnits="userSpaceOnUse" gradientTransform="matrix(0,-624.58964,624.58964,0,621.924223,646.823037)"><stop offset="0" style="stop-color:#b0c37c;stop-opacity:1"/><stop offset="1" style="stop-color:#fff;stop-opacity:1"/></linearGradient></defs></svg>