<?xml version="1.0" encoding="UTF-8" standalone="no"?><!DOCTYPE svg PUBLIC "-//W3C//DTD SVG 1.1//EN" "http://www.w3.org/Graphics/SVG/1.1/DTD/svg11.dtd"><svg width="100%" height="100%" viewBox="0 0 278267 150075" version="1.1" xmlns="http://www.w3.org/2000/svg" xmlns:xlink="http://www.w3.org/1999/xlink" xml:space="preserve" xmlns:serif="http://www.serif.com/" style="fill-rule:evenodd;clip-rule:evenodd;stroke-linecap:round;stroke-linejoin:round;stroke-miterlimit:1.5;"><path id="U1-muscle" d="M252758.9,5279.775c11158.175,0 20203.5,8921 20203.5,19925.825l0,99627.758c0,11004.817 -9045.325,19925.825 -20203.5,19925.825l-227285.967,0c-11158.175,0 -20203.5,-8921 -20203.5,-19925.825l0,-99627.758c0,-11004.817 9045.325,-19925.825 20203.5,-19925.825l227285.967,0Z" style="fill:url(#_Linear1);stroke:#000;stroke-width:10573.25px;"/><g id="g76"><path id="path1" d="M247729.267,54891.067l-2049.95,5089.525l-3887.833,4029.208l-4524.017,2898.2l-6291.217,3110.267l-11946.25,6856.725l-22902.867,424.125c0,0 -20499.475,-5160.208 -21559.792,-5796.4c-1060.317,-636.192 -9966.983,-7139.475 -10461.8,-7917.042c-494.817,-777.567 -2544.767,-3887.833 -2544.767,-3887.833l-1979.258,3887.833l212.067,7563.6l141.375,7280.85l3746.458,7775.667l-777.567,6291.217l141.375,4170.583l9966.983,12229l22125.3,7422.225l8835.983,424.125l9048.042,-494.817l5655.033,-565.5l5937.783,-918.95l6361.908,-1555.133l3675.767,-1767.183l6715.35,-3675.775l2756.825,-3322.333l2403.383,-6927.408c0,0 848.25,-5796.408 848.25,-6079.158c0,-282.75 706.883,-11027.3 706.883,-11027.3l-3039.575,-7422.225l-1343.067,-2544.767l918.95,-1484.442l1131,-1201.692l1837.883,-3393.017l848.258,-5937.783l-706.875,-3534.392l-0.025,0Z" style="fill:#e9cc61;"/><path id="path2" d="M236481.808,76542.567l-899.708,424.867l-1924.375,1649.467l-849.725,199.933l-724.767,574.817l-2974.042,1374.55l-1174.625,24.992l-4273.625,1124.633l-5998.058,1024.675l-874.717,4298.608c0,0 2549.183,674.783 2699.125,649.792c149.95,-24.992 5098.358,-1174.625 5098.358,-1174.625l5298.292,-2324.25l3848.75,-2024.342l3623.833,-2474.208c0,0 174.942,-2324.25 174.942,-2424.217c0,-99.967 -1049.658,-924.7 -1049.658,-924.7l0,0.008Z" style="fill:#fff;"/><path id="path3" d="M236956.658,95959.075c0,0 -974.683,74.983 -974.683,74.983l-2049.342,824.733l-1274.583,374.883l-1705.517,463.233l-1843.342,963.592l-1810.817,-487.492l-3725.792,665.167l-5998.058,1024.675l-786.358,4793.425c0,0 2549.183,674.783 2699.125,649.792c149.95,-24.992 5098.358,-1174.625 5098.358,-1174.625l5298.292,-2324.25l4748.467,-424.858l3898.742,-1849.408c0,0 -67.525,-1756.1 -749.758,-2699.125c-250.683,-346.508 -824.733,-874.725 -824.733,-874.725Z" style="fill:#fff;"/><path id="path57" d="M166978.575,62496.008c-1593.542,-1795.167 -3228.833,-4688.367 -3371.725,-5452.8c48.908,61.517 100.217,121.558 146.333,185.25c423.4,583.108 829.275,1180.183 1272.542,1747.842c693.85,888.492 1492.617,1677.217 2388.258,2364.025c1340.058,1028.283 2748.883,1948.6 4260.933,2706.092c115.275,57.642 227.5,139.783 384.642,114.025c-9.058,-144.642 -101.033,-218.933 -190.658,-289.892c-466.133,-369.633 -932.375,-738.992 -1402.058,-1103.767c-734.575,-570.717 -1484.7,-1122.6 -2205.192,-1710.292c-1153.058,-940.95 -2197.108,-1993.733 -3096.633,-3182.433c-573.117,-757.167 -1065.017,-1566.25 -1459.425,-2431.983c-376.292,-826.6 -604.608,-1691.733 -611.925,-2600.533c-6.333,-784.792 135.2,-1549.275 415.158,-2288.208c299.767,-791.45 734.35,-1505.008 1214.9,-2194.55c519.517,-745.383 1121.558,-1423.075 1769.35,-2054.708c731.35,-713.233 1481.042,-1407.633 2268.067,-2062.617c986.583,-821.192 1991.442,-1616.9 3034.3,-2364.35c1207.15,-865.458 2452.942,-1669.3 3772.258,-2356.167c1393.325,-725.017 2836.817,-1329.958 4319.117,-1847.617c1679.883,-586.758 3386.408,-1079.808 5110.617,-1513.142c1586.225,-398.45 3180.358,-760.225 4794.15,-1027.95c1256.925,-208.342 2512.65,-430 3774.108,-607.067c1211.133,-169.858 2428.325,-300.2 3645.183,-427.6c599.483,-62.767 1204.75,-67.3 1805.158,-118.883c1548.017,-133.075 3099.092,-95.792 4648.958,-89.733c652.533,2.4 1304.8,56.108 1957.058,87.933c309.592,15.45 618.908,32.75 928.233,51.85c852.958,53.058 1706.308,98.25 2557.9,164.075c668.092,51.85 1334.542,128.867 2001,197.1c800.725,81.875 1602,152.833 2400.542,252.283c2147.275,267.783 4282.55,608.267 6403.625,1038.267c2673.45,541.892 5307.608,1234.492 7885.542,2131.175c1393.492,484.858 2763.517,1031.283 4110.067,1637.475c1254.308,564.933 2473.683,1198.358 3671.225,1873.058c1037.067,584.358 2038.658,1228.108 3014.05,1911.917c831.842,583.108 1638.025,1198.417 2403.817,1863.392c1314.35,1141.1 2527.717,2378.275 3485.642,3841.683c1102.567,1684.475 1874.367,3500.267 2119.983,5514.967c75.867,625.3 118.442,1250.267 31.108,1879.767c-72.592,520.992 -247.808,1011.575 -442.667,1491.908c-423.558,1045.258 -975.392,2021.683 -1668.042,2916.567c-633.158,817.808 -1340,1564.392 -2114.525,2250c-1392.95,1233.242 -2920.167,2278.492 -4517.25,3223.425c-1256.492,743.2 -2571.383,1372.75 -3911.933,1951.325c-1378.758,595.225 -2786.442,1115.558 -4203.95,1608.058c-870.592,302.933 -1752.1,575.242 -2631.425,852.092c-1311.075,412.375 -2623.783,820.867 -3938.675,1222.65c-552.925,169.208 -1109.667,327.167 -1669.133,472.742c-1225.375,318.383 -2448.025,648 -3681.05,931.233c-1308.342,300.2 -2637.975,484.583 -3973.067,625.9c-774.525,81.875 -1549.6,165.875 -2325.217,238.633c-366.792,34.275 -735.775,44.592 -1104.208,64.3c-576.942,30.892 -1153.875,60.317 -1730.817,90.658c-25.108,1.2 -50.217,4.533 -75.325,5.133c-1365.55,17.575 -2731.642,51.583 -4097.4,46.992c-895.758,-3 -1791.508,-55.783 -2686.658,-98.525c-886.642,-42.792 -1773.008,-90.392 -2658.5,-154.358c-919.058,-66.1 -1835.775,-161.95 -2754.892,-231.375c-1622.633,-122.208 -3235.542,-328.425 -4843.6,-569.458c-2172.658,-326.292 -4334.725,-712.633 -6471.958,-1229.308c-1802.425,-435.458 -3585.908,-933.358 -5340.25,-1533.767c-1317.567,-450.958 -2608.442,-966.108 -3869.192,-1561.392c-1062.725,-501.833 -2102.792,-1043.725 -3110.5,-1645.333c-1246.717,-744.775 -2448.9,-1556.533 -3534.333,-2526.575c-543.258,-485.508 -1070.692,-989.475 -1592.608,-1498.017c-251.458,-244.692 -473.617,-519.733 -709.025,-781.4l-0.008,0.008Z" style="fill:#e9cc61;"/><path id="path58" d="M158799.217,63528.083c241.858,-1044.95 615.15,-2089.758 1031.642,-2985.667c416.492,-895.917 1072.742,-1923.433 1396.525,-2383.742c323.783,-460.317 171.542,-70.35 179.15,-535.517c7.608,-465.167 -1.925,-1123.192 54.367,-2186.183c56.3,-1063 234.292,-2949.883 489.517,-4165.867c255.217,-1215.975 593.633,-1996.058 1155.117,-2990.825c561.492,-994.767 1365.567,-2110.983 2071.075,-2933.208c705.508,-822.225 1011.233,-1151.242 2050.092,-2034.417c1038.858,-883.175 3008.425,-2176.933 4366.725,-2905.308c1358.3,-728.375 2366.942,-1196.417 3579.983,-1720.258c1213.042,-523.842 2147.158,-868.775 3686.45,-1410.658c1539.292,-541.883 3504.508,-1136.683 5592.683,-1655.675c2088.175,-518.992 5231.742,-1110.608 6932.292,-1362.442c1700.55,-251.842 2251.833,-301.875 3217.95,-408.158c966.108,-106.283 1685.242,-158.442 2579.333,-219.242c894.092,-60.8 2031.833,-115.992 2784.625,-150.708c752.783,-34.717 644.533,11.975 1733,-53.367c1088.467,-65.35 3591.383,-33.967 4802.058,-42.15c1210.675,-8.183 1659.158,24.717 2462.892,50.942c803.725,26.233 1535.892,50.642 2358.875,107.95c822.983,57.308 1483.892,139.333 2578.725,228.642c1094.833,89.3 2184.667,244.408 3965.125,509.742c1780.45,265.333 4780.525,933.358 6622.083,1480.4c1841.558,547.042 3252.058,1035.708 4475.775,1521.342c1223.708,485.633 1887.042,743.383 2932.6,1197.175c1045.558,453.792 2222.575,1033.733 3293.45,1620.192c1070.883,586.458 2194.825,1240.083 3122.733,1880.367c927.9,640.283 1655.517,1171.1 2510.8,1846.708c855.275,675.608 1941.167,1797.742 2435.292,2392.233c494.125,594.492 633.008,726.708 794.483,907.583c161.475,180.883 121.75,127.508 192.858,157.983c71.108,30.475 176.333,40.025 229.55,13.042c53.217,-26.992 80.817,-105.983 68.533,-194.675c-12.283,-88.7 -43.058,-205.75 -106.133,-332.042c-63.075,-126.3 73.842,32.45 -257.45,-431.508c-331.283,-463.95 -1335.608,-1738.3 -1857.325,-2243.95c-521.717,-505.65 -527.783,-510.042 -1063.75,-959.142c-535.967,-449.092 -1261.767,-1076.492 -2141.458,-1748.767c-879.692,-672.275 -2091.725,-1430.517 -3273.742,-2061.4c-1182.017,-630.883 -2404.208,-1191.117 -3771.05,-1724.508c-1366.842,-533.392 -2675.758,-1051.167 -4348.417,-1652.942c-1672.65,-601.775 -3855.2,-1284.058 -5758.158,-1712.983c-1902.958,-428.925 -4260.933,-839.208 -5598.05,-964.592c-1337.125,-125.392 -1693.725,-146.917 -2353.417,-197.408c-659.692,-50.492 -1317.108,-82.783 -1604.725,-100.975c-287.617,-18.192 -127.958,1.7 -128.267,-54.883c-0.308,-56.583 2.725,-42 143.433,-36.692c140.7,5.308 359.033,22.592 701.992,38.208c342.958,15.617 783.108,21.225 1355.467,59.742c572.358,38.508 903.342,42.45 2079.292,165.267c1175.95,122.808 3327.417,449.7 4940.025,790.542c1612.608,340.842 3467.667,801.908 4735.042,1173.225c1267.375,371.317 1864.15,527.633 2911.983,881.208c1047.833,353.575 2500.642,898.342 3378.358,1230.842c877.717,332.5 1106.658,419.833 1878.858,785.083c772.192,365.25 1844.433,876.658 2763.092,1386.7c918.658,510.042 1741.033,1022.358 2750.967,1668.708c1009.933,646.35 2236.825,1568.642 3191.258,2364.033c954.433,795.392 1864.15,1750.583 2484.417,2417.708c620.267,667.117 526.417,543.1 1240.842,1549.233c714.425,1006.142 1714.35,3392.608 1902.508,4895.15c188.158,1502.542 219.692,2830.717 205.292,3661.583c-14.4,830.867 13.642,755.667 -3.642,1308.008c-17.283,552.342 -49.883,1355.617 -91.883,2007.425c-42,651.808 -31.233,736.558 -161.925,1903.117c-130.692,1166.55 -797.208,3558.175 -1479.492,4826.925c-682.283,1268.742 -1484.65,2343.567 -1938.892,2868.617c-454.25,525.058 -181.483,181.333 -452.125,505.492c-270.642,324.158 -444.85,1191.875 -339.625,1608.067c105.225,416.192 38.817,255.625 297.175,716.55c258.358,460.917 804.792,1188.992 1387.008,1942.833c582.217,753.85 1446.442,2063.225 1764.233,2801.6c317.792,738.383 301.417,694.717 486.392,1399.742c184.975,705.025 358.725,1675.383 440.3,2853.15c81.567,1177.775 95.675,3174.283 86.725,4171.017c-8.942,996.742 -45.792,1179.592 -87.633,1806.383c-41.85,626.792 -52.308,1011.142 -161.925,1953.15c-109.617,942.008 -526.725,2816.008 -852.7,3611.55c-325.983,795.542 -271.4,503.225 -258.358,1343.033c13.042,839.817 13.192,2622.842 3.333,3622.158c-9.858,999.317 56.708,993.558 -355.092,2329.158c-411.792,1335.608 -1801.225,4204.833 -2567.808,5354.55c-766.583,1149.725 -854.367,1202.792 -1449.775,1764.833c-595.408,562.05 -1135.625,997.95 -2040.175,1631.717c-904.558,633.767 -2195.133,1414.45 -3419.9,2067.167c-1224.775,652.717 -2801.6,1508.3 -3821.992,2023.8c-1020.392,515.5 -1101.658,515.05 -2322.183,1024.633c-1220.525,509.592 -3562.875,1223.708 -5129.55,1614.125c-1566.675,390.417 -2503.217,581 -4209.533,877.267c-1706.317,296.258 -4698.65,721.1 -6020.767,887.267c-1322.108,166.175 -1234.475,116.442 -1902.2,175.575c-667.725,59.133 -1618.983,141.917 -2103.25,182.85c-484.267,40.933 -454.858,37.15 -802.058,55.792c-347.208,18.65 -795.392,35.633 -1280.267,60.95c-484.875,25.317 -1157.608,64.742 -1630.2,89.758c-472.592,25.017 -153.283,43.517 -1204.758,57.308c-1051.475,13.8 -3867.783,45.483 -5103.775,49.733c-1235.992,4.242 -1528.917,-25.775 -2311.575,-51.55c-782.65,-25.775 -1648.7,-60.492 -2384.65,-99.767c-735.958,-39.267 -1257.825,-78.692 -2030.167,-138.275c-772.342,-59.583 -1725.875,-122.808 -2604.5,-218.333c-878.625,-95.517 -1492.683,-183 -2666.967,-354.783c-1174.283,-171.783 -2879.083,-499.583 -4340.833,-858.467c-1461.75,-358.883 -3178.933,-823.133 -4422.1,-1270.258c-1243.167,-447.125 -1793.133,-624.517 -3104.142,-1172.317c-1311.017,-547.8 -3248.892,-1507.842 -4663.083,-2307.633c-1414.192,-799.783 -2840.675,-1751.342 -3773.45,-2492.3c-932.775,-740.958 -1519.533,-1284.058 -1990.6,-1693.275c-471.067,-409.217 -186.975,-111.442 -823.042,-775.683c-636.067,-664.242 -1996.3,-2311.725 -2670.817,-3453.258c-674.517,-1141.533 -1135.7,-2241.067 -1411.567,-3242.817c-275.867,-1001.742 -426,-1784.242 -462.525,-2620.267c-36.525,-836.025 -73.608,-1589.417 -98.733,-2334.317c-25.125,-744.9 -25.717,-1319.083 -51.85,-2135.392c-26.142,-816.317 -62.542,-1854.292 -104.8,-2761.883c-42.258,-907.583 -114.867,-2094.758 -148.158,-2684.25c-33.292,-589.492 -36.492,-594.492 -52.4,-852.7c-15.908,-258.208 -36.483,-385.258 -242.467,-616.483c-205.992,-231.217 -276.05,-310.058 -715.033,-875.75c-438.983,-565.692 -1051.125,-1930.558 -1182.292,-2822.833c-131.167,-892.275 -195.95,-1554.242 -271.067,-2245.467c-75.108,-691.225 -128.725,-1313.467 -178.817,-1902.2c-50.092,-588.733 -82.525,-1043.742 -120.658,-1628.983c-38.133,-585.25 -82.283,-1460.233 -115.475,-1880.675c-33.192,-420.442 65.092,-8.642 -134.883,-637.4c-199.967,-628.758 -574.092,-2409.367 -655.417,-3223.408c-81.325,-814.042 -77.958,-1173.675 -103.1,-1604.125c-25.142,-430.442 -57.658,-147.525 -45,-978.242c12.658,-830.717 160.167,-2659.083 459.283,-3983.925m84580.4,41205.917c-97.342,64.592 293.992,-169.658 -292.317,193.767c-586.308,363.425 -2095.217,1301.95 -3221.892,1993.783c-1126.675,691.833 -2913.8,1635.358 -3640.658,1966.183c-726.858,330.833 -966.717,405.575 -1175.042,503.675c-208.325,98.1 -13.342,1.517 -711.7,318.4c-698.35,316.883 -2860.583,1298.608 -3480.25,1578.95c-619.667,280.342 -241.417,269.033 -296.867,93.4c-55.45,-175.642 69.592,-71.567 185.883,-545.525c116.292,-473.958 203.925,-1862.783 173.45,-2373.733c-30.475,-510.95 -70.2,-492.308 -119.775,-666.208c-49.583,-173.908 -72.325,-214.392 -208.933,-363.883c-136.608,-149.492 -408.608,-123.417 -488.517,96.433c-79.9,219.85 -101.892,349.783 -118.867,586.458c-16.983,236.675 1.975,293.383 -6.975,829.958c-8.942,536.575 43.208,1883.708 84.908,2384.958c41.692,501.25 43.517,262.45 -227.425,366.008c-270.942,103.558 -823.742,292.317 -1019.783,359.033c-196.042,66.708 -144.708,93.55 -201.35,16.983c-56.642,-76.567 -21.683,34.567 63.075,-232.283c84.758,-266.85 238.192,-982.183 243.5,-1432.492c5.308,-450.308 13.95,-869.225 -3.942,-1232.35c-17.892,-363.125 -77.933,-717.758 -121.6,-944.883c-43.667,-227.125 -69.292,-248.5 -188.617,-404.517c-119.325,-156.017 -413.008,-83.242 -479.117,66.408c-66.108,149.65 -9.55,-132.817 -60.95,242.283c-51.4,375.1 -45.633,1368.05 -37.908,2008.642c7.733,640.583 30.625,1413.992 34.567,1834.275c3.942,420.283 -68.683,289.292 -279.583,354.183c-210.9,64.892 -63.833,20.167 -580.7,164.05c-516.867,143.883 -1980.742,552.342 -2519.9,700.475c-539.158,148.133 -277.767,129.783 -256.233,-231.367c21.533,-361.158 61.408,-965.808 63.683,-1404.892c2.275,-439.083 -34.717,-925.475 -58.525,-1229.625c-23.8,-304.15 -76.108,-450.758 -108.558,-592.825c-32.45,-142.067 -57.158,-169.208 -104.917,-254.108c-47.758,-84.908 -125.542,-162.992 -240.767,-152.225c-115.233,10.767 -174.058,73.383 -204.683,196.5c-30.625,123.117 -66.708,-141.608 -76.717,443.942c-10.008,585.55 15.008,2406.033 78.842,3064.208c63.833,658.175 186.342,330.225 -296.258,413.308c-482.6,83.083 -1656.733,271.85 -2035.325,331.742c-378.592,59.892 -193.525,64.15 -264.117,1.817c-70.592,-62.333 -124.933,300.808 20.925,-211.358c145.858,-512.167 290.65,-2360.7 270.483,-2942.608c-20.167,-581.908 -23.8,-286.708 -108.258,-512.167c-84.45,-225.458 -372.075,-282.317 -530.058,-64.892c-157.983,217.417 -211.05,295.658 -246.225,625.883c-35.175,330.225 -101.133,820.258 -110.075,1300.883c-8.942,480.633 29.108,1165.342 40.933,1581.983c11.825,416.65 67.317,353.267 -336.592,421.192c-403.908,67.925 -1079.675,176.025 -1539.233,249.567c-459.558,73.533 -475.625,330.833 -368.133,-358.125c107.5,-688.95 195.133,-2407.55 181.333,-2956.858c-13.8,-549.317 -18.95,-212.267 -42.758,-322.95c-23.8,-110.683 -58.675,-239.858 -201.958,-257.45c-143.283,-17.592 -194.983,47 -251.992,204.683c-57.008,157.683 -147.067,309 -190.433,622.242c-43.367,313.242 -95.217,760.517 -110.075,1249.942c-14.858,489.425 -0.758,1289.967 1.217,1685.392c1.975,395.417 -36.692,255.625 -249.867,288.075c-213.175,32.45 -303.842,35.325 -573.725,71.867c-269.883,36.542 -779.625,110.983 -1046.167,144.033c-266.542,33.05 -223.033,-57.467 -190.433,-214.392c32.6,-156.925 -22.892,104.008 93.092,-391.175c115.992,-495.183 151.925,-2048.817 135.85,-2604.2c-16.075,-555.375 -81.725,-530.667 -129.783,-715.033c-48.067,-184.367 -102.492,-261.692 -185.583,-381.167c-83.083,-119.475 -227.425,-181.033 -376.925,-141.308c-149.492,39.725 -212.117,91.575 -232.283,299.6c-20.167,208.017 -53.825,508.833 -54.583,826.625c-0.758,317.792 28.35,832.083 37.908,1078.917c9.55,246.833 -18.192,56.1 17.892,401.792c36.083,345.692 139.492,1281.783 181.942,1673.567c42.45,391.783 159.5,256.233 -229.25,293.833c-388.75,37.6 -1318.167,123.267 -1676.9,156.467c-358.725,33.208 -251,32.692 -475.475,37.908c-224.475,5.217 -337.108,16.725 -712,60.342c-374.892,43.617 -938.817,76.717 -1226.892,98.858c-288.075,22.133 -297.175,16.675 -501.25,33.358c-204.075,16.675 -263.058,-127.058 -236.825,-270.183c26.233,-143.125 -45.942,239.858 25.475,-123.117c71.408,-362.975 191.342,-1471 199.225,-2073.833c7.883,-602.833 -24.408,-1132.433 -58.525,-1531.042c-34.117,-398.608 -133.575,-656.658 -184.675,-856.033c-51.092,-199.375 -98.4,-218.483 -241.375,-226.825c-142.975,-8.342 -219.392,80.658 -269.275,224.092c-49.883,143.433 -65.042,124.025 -140.092,506.408c-75.05,382.383 -55.492,1100.6 20.617,1778.183c76.108,677.583 247.9,1787.275 320.217,2289.742c72.325,502.467 125.542,274.883 -232.583,305.967c-358.125,31.083 -784.475,61.1 -1403.383,91.575c-618.908,30.475 -1534.525,74.292 -2308.842,99.767c-774.317,25.475 -1683.117,43.517 -2336.442,53.367c-653.325,9.858 -175.575,1.517 -1583.808,1.517c-1408.233,0 -5673.1,0.3 -6866.492,0.608c-1193.392,0.3 -488.208,-57.158 -293.833,5.158c194.375,62.308 579.633,78.233 905.467,97.942c325.825,19.708 555.833,33.808 1053.142,67.017c497.308,33.208 1378.358,97.492 1930.1,130.092c551.742,32.6 740.05,34.117 1380.333,58.825c640.283,24.717 1283.45,86.575 2460.158,87.942c1176.708,1.367 3523.917,-31.233 4600.4,-46.392c1076.492,-15.158 1540.742,-43.967 1858.842,-53.367c318.092,-9.4 -300.958,20.317 50.033,-3.333c351,-23.65 1344.858,-90.975 2055.033,-138.883c710.183,-47.908 1204.908,-60.8 2206.05,-150.708c1001.133,-89.908 1982.108,-165.867 3801.983,-374.8c1819.875,-208.933 5421.267,-810.4 7076.333,-1127.433c1655.067,-317.033 1974.675,-387.842 2883.175,-587.067c908.5,-199.225 1253.733,-256.542 2566.292,-615.567c1312.558,-359.033 3769.233,-1318.925 5096.192,-2053.217c1326.967,-734.292 2226.208,-1282.542 3086.642,-1794.858c860.433,-512.317 1104.992,-679.1 2072.625,-1285.117c967.625,-606.017 2925.933,-2127.808 3496.925,-2659.692c570.992,-531.875 132.967,-185.883 160.108,-223.792c27.142,-37.908 -1.517,1.517 -33.05,14.858m-12093.383,-12742c-162.317,57.417 -109.908,53.875 -384.5,147.375c-274.592,93.5 -937.308,296.567 -1124.708,355.7c-187.4,59.133 -66.767,148.408 10.308,-35.175c77.075,-183.583 273.825,-558.717 293.233,-1034.033c19.408,-475.325 37.15,-1348.192 36.083,-1757.867c-1.058,-409.675 -78.083,-510.042 -183.458,-671.667c-105.375,-161.625 -173.15,-211.05 -326.283,-196.5c-153.133,14.558 -230.158,94.158 -270.483,263.208c-40.333,169.058 -101.583,52.767 -105.833,617.083c-4.242,564.325 5.308,2209.683 9.4,2766.733c4.092,557.042 52.917,206.2 -196.5,298.692c-249.408,92.483 -773.708,276.55 -947.308,338.408c-173.6,61.858 170.858,-76.383 -96.733,26.683c-267.592,103.067 -600.433,240.375 -1113.342,407.642c-512.908,167.267 -1309.975,366.067 -1718.283,451.725c-408.308,85.667 -365.4,349.933 -205.292,-235.008c160.108,-584.942 297.175,-2342.958 282.617,-2917.742c-14.558,-574.783 -43.058,-355.242 -74.6,-495.183c-31.533,-139.942 -89.15,-221.367 -223.183,-249.567c-134.033,-28.2 -241.833,26.833 -319.608,156.167c-77.783,129.333 -134.483,168.3 -220.15,474.567c-85.667,306.267 -176.025,834.508 -164.958,1367.9c11.067,533.392 30.775,1401.708 40.933,1809.417c10.158,407.7 125.392,259.417 -230.767,322.342c-356.15,62.925 -1024.433,193.5 -1562.275,262.908c-537.842,69.408 -520.342,58.508 -1122.583,144.95c-602.242,86.442 -1707.825,247.442 -2090.817,301.117c-382.992,53.675 -139.233,7.55 -775.683,100.975c-636.442,93.425 -3774.692,566.9 -3949.958,598.892c-175.267,31.992 -205.9,-15.142 -232.583,53.675c-26.683,68.808 -359.033,41.542 151.317,48.825c510.35,7.275 1959.058,-31.233 2913.5,-86.117c954.433,-54.883 1214.617,-43.367 2802.517,-257.75c1587.9,-214.392 5017.658,-844.358 6652.708,-1326.658c1635.05,-482.3 2281.1,-695.925 3265.558,-1016.15c984.458,-320.217 1679.325,-576.908 2639.067,-909.708c959.742,-332.8 2225.608,-911.075 2977.483,-1391.55c751.875,-480.475 850.575,-521.567 1722.683,-1087.1c872.108,-565.533 2847.392,-1985.592 3391.092,-2470.775c543.7,-485.175 165.892,-81.808 100.975,-121.292c-64.917,-39.483 60.65,-104.158 -238.042,78.233c-298.692,182.4 -725.042,453.342 -1587.442,970.967c-862.408,517.625 -2637.55,1640.508 -3582.133,2142.975c-944.583,502.467 -1624.133,822.375 -2014.1,970.658c-389.958,148.283 -200.517,180.967 -297.175,87.942c-96.65,-93.025 50.033,-143.733 89.458,-261.392c39.417,-117.658 70.65,-179.667 166.783,-500.342c96.125,-320.675 119.625,-963.383 131.908,-1447.35c12.283,-483.967 -151.317,-1077.4 -285.342,-1365.475c-134.033,-288.075 -131.608,-247.442 -226.217,-419.983c-94.608,-172.542 -43.817,-312.942 126.75,-397.85c170.567,-84.908 28.2,42 383.9,-185.883c355.7,-227.883 1034.192,-645.742 1767.567,-1154.425c733.375,-508.683 1689.942,-1203.392 2642.708,-1881.583c952.767,-678.192 2007.883,-1433.858 2995.375,-2290.95c987.492,-857.1 2114.467,-2175.875 2639.975,-3047.525c525.508,-871.65 643.317,-1175.042 742.017,-1857.325c98.7,-682.283 222.275,-1689.483 269.883,-2068.075c47.608,-378.592 74.208,-215.067 -11.525,-205.9c-85.733,9.175 -16.075,-80.208 -127.667,231.367c-111.592,311.575 -414.225,1110.758 -682.892,1592.9c-268.667,482.15 -747.783,1015.542 -966.417,1214.467c-218.633,198.925 -119.975,127.858 -191.642,114.625c-71.675,-13.233 -33.208,-62.467 -22.742,-105.525c10.458,-43.058 -133.425,314.608 60.042,-191.042c193.467,-505.65 706.083,-2094.908 896.975,-2905.308c190.883,-810.4 193.617,-1533.167 142.525,-1918.275c-51.092,-385.108 -40.517,-329.875 -175.875,-336.9c-135.358,-7.025 -80.208,93.85 -127.358,206.808c-47.15,112.958 4.55,-16.525 -175.875,470.925c-180.425,487.45 -511.108,1446.283 -911.833,2451.667c-400.725,1005.383 -1021.45,2304.75 -1739.667,3454.775c-718.217,1150.025 -1686.3,2357.817 -2711.542,3216.433c-1025.242,858.617 -2605.558,1623.075 -3201.575,1868.242c-596.017,245.167 -151.275,98.875 -131,8.183c20.283,-90.692 -311.725,173.3 255.025,-282.617c566.75,-455.917 2507.917,-2013.192 3114.242,-2507.158c606.325,-493.975 382.383,-401.483 475.175,-514.592c92.792,-113.108 75.542,-150.892 30.017,-204.992c-45.525,-54.1 -109.775,-54.733 -211.358,-11.217c-101.583,43.517 -198.617,74.442 -416.342,229.55c-217.725,155.108 -361.308,238.342 -906.075,677.733c-544.767,439.392 -1709.65,1391.25 -2376.767,1939.5c-667.117,548.25 -1048.442,860.892 -1716.625,1225.075c-668.183,364.183 -1304.675,695.325 -2182.7,1086.192c-878.025,390.875 -1664.467,723.825 -3088.158,1213.55c-1423.7,489.725 -4217.417,986.733 -6196.85,1233.867c-1979.433,247.142 -7633.192,1092.825 -12441.342,1427.992c-2131.042,148.55 -8659.192,417.642 -17280.792,-337.858c-4800.292,-569.867 -9316.208,-1828.192 -11787.825,-2489.175c-4072.05,-1088.983 -5970.533,-2039.892 -9310.567,-3790.858c-2935.825,-1526.475 -4838.608,-3275.883 -5550.458,-3922.175c-783.567,-711.392 -254.892,-569.692 -2453.433,-2383.683c-2198.542,-1813.983 -3584.75,799.342 2601.575,5894.675c2359.017,1942.992 5231.717,4182.608 9689.158,5769.633c6137.6,2185.233 8110.533,2881.333 14345.05,3659.383c6234.517,778.058 5696.433,583.267 8472.908,630.508c2776.475,47.242 6284.325,-34.342 8900.175,-142.975c2278.317,-42.958 5226.108,-123.942 7500.942,-267.2c4417.883,-391.967 3658.808,-547.517 9148.158,-1533.642c1146.992,-206.05 3728.05,-955.025 5386.05,-1563.067c1658,-608.042 2275.717,-824.958 2849.283,-1014.933c573.575,-189.975 495.033,-164.358 716.85,-234.1c221.817,-69.742 295.05,65.5 323.858,185.583c28.808,120.083 -11.067,-209.992 16.375,98.858c27.442,308.85 109.167,1151.542 152.225,1752.708c43.058,601.167 115.383,1480.25 235.617,1838.825c120.233,358.575 -3.033,197.1 -116.75,235.917m-65781.675,-28990.333c235.433,261.392 322.342,404.975 709.025,781.442c386.683,376.467 778.275,770.225 1592.6,1497.992c814.325,727.767 2407.125,1853.383 3534.342,2526.567c1127.225,673.183 1948.75,1096.958 3110.483,1645.358c1161.733,548.4 2333.3,1035.55 3869.242,1561.058c1535.942,525.508 3370.417,1057.992 5340.242,1534.075c1969.825,476.083 4581.6,945.642 6471.983,1229.325c1890.375,283.675 3572.733,473.5 4843.6,569.175c1270.867,95.675 1852.625,166.783 2754.908,231.675c902.283,64.892 1767.567,111.592 2658.475,154.35c890.908,42.758 1555.908,94.758 2686.675,98.55c1130.767,3.792 3402.308,-37.908 4097.633,-47c695.325,-9.1 -225.917,10.458 75.2,-5.158c301.117,-15.617 1258.283,-65.35 1730.875,-90.667c472.592,-25.317 532.483,-10.917 1103.783,-64.592c571.3,-53.675 1270.717,-126.75 2325.525,-238.342c1054.808,-111.592 2702.292,-334.017 3973.008,-625.883c1270.717,-291.867 2788.717,-699.267 3680.992,-931.242c892.275,-231.975 735.35,-187.25 1669.317,-472.75c933.967,-285.5 2843.3,-878.025 3938.742,-1222.65c1095.442,-344.625 1487.525,-454.55 2631.492,-852.092c1143.958,-397.542 2844.208,-1021 4203.767,-1608.067c1359.558,-587.067 2484.875,-1107.417 3911.75,-1951.325c1426.883,-843.908 3434,-2264.117 4517.617,-3223.408c1083.617,-959.292 1451.592,-1393.825 2114.467,-2250.017c662.875,-856.192 1358.958,-2153.742 1668.108,-2916.533c309.15,-762.792 362.367,-916.758 442.425,-1492.075c80.058,-575.317 129.633,-559.775 -31.233,-1879.767c-160.867,-1319.992 -1089.375,-3941.017 -2119.625,-5514.967c-1030.25,-1573.95 -2445.6,-2938.667 -3485.708,-3841.708c-1040.1,-903.042 -1500.108,-1229.925 -2403.758,-1863.392c-903.642,-633.458 -1896.9,-1282.392 -3014.175,-1911.908c-1117.275,-629.517 -2371.308,-1287.542 -3671.592,-1873.092c-1300.275,-585.55 -2124.175,-946.708 -4110.067,-1637.475c-1985.9,-690.775 -5488.125,-1645.208 -7885.367,-2131.15c-2397.233,-485.933 -4931.083,-854.675 -6403.75,-1038.283c-1472.667,-183.608 -1666.592,-177.242 -2400.117,-252.292c-733.533,-75.05 -1241.45,-138.275 -2001.358,-197.1c-759.908,-58.825 -1976.65,-127.967 -2557.8,-164.05c-581.15,-36.083 -447.275,-28.2 -928.208,-51.85c-480.933,-23.65 -855.883,-83.692 -1957.092,-87.942c-1101.2,-4.242 -3574.708,-2.575 -4648.925,89.758c-1074.217,92.333 -896.975,23.8 -1805.167,118.867c-908.192,95.067 -2408.908,254.108 -3645.208,427.567c-1236.292,173.45 -2338.717,369.042 -3774.083,607.083c-1435.367,238.042 -3138.942,612.083 -4794.175,1027.975c-1655.233,415.892 -3529.508,960.958 -5110.6,1513.15c-1581.092,552.192 -2962.833,1141.683 -4319.15,1847.625c-1356.317,705.933 -2647.275,1549.692 -3772.267,2356.15c-1124.992,806.458 -2147.508,1626.258 -3034.308,2364.333c-886.8,738.075 -1578.442,1390.192 -2268.025,2062.617c-689.592,672.425 -1269.333,1337.275 -1769.358,2054.733c-500.025,717.458 -925.05,1429.308 -1214.917,2194.525c-289.867,765.217 -422,1441.433 -415.158,2288.225c6.842,846.792 226.575,1754.375 611.933,2600.558c385.35,846.183 723.142,1459.025 1459.45,2431.808c736.3,972.783 2159.817,2418.158 3096.592,3182.467c936.775,764.308 1603.108,1242.508 2205.225,1710.258c602.125,467.742 1124.175,883.325 1402.042,1103.783c277.875,220.45 290.458,175.508 190.642,290.2c-99.808,114.692 429.017,293.075 -384.625,-114.317c-813.642,-407.4 -3143.075,-1848.075 -4260.933,-2705.783c-1117.85,-857.708 -1819.708,-1636.417 -2388.258,-2364.333c-568.55,-727.917 -1037.75,-1424.15 -1272.533,-1747.55c-234.783,-323.4 -203.133,-610.233 -146.342,-185.583c56.792,424.65 1778.183,3657.942 3371.717,5453.108m72231.517,30451.325c-798.117,428.167 -1456.9,813.583 -2396.175,1278.142c-939.275,464.558 -1828.217,864.833 -3299.825,1358.2c-1471.608,493.367 -4113.558,1309.983 -5493.433,1634.75c-1379.875,324.767 -1541.658,379.35 -2709.117,554.925c-1167.458,175.575 -3547.417,453.183 -4289.283,545.525c-741.867,92.333 -165.558,68.808 -163.442,0.908c2.108,-67.9 -548.558,65.5 178.908,-90.975c727.467,-156.467 2717.15,-561.592 4178.3,-902.433c1461.142,-340.842 3165.183,-783.108 4569.775,-1209.008c1404.592,-425.9 2498.367,-784.325 3863.542,-1289.358c1365.175,-505.042 2802.817,-1142.592 4229.242,-1927.675c1426.425,-785.083 3101.2,-2008.183 4118.558,-2950.492c1017.358,-942.308 1548.633,-1538.625 2188.158,-2356.15c639.525,-817.525 1315.292,-1816.083 1708.433,-2455c393.15,-638.917 516.717,-878.783 739.9,-1314.225c223.183,-435.45 310.817,-964.592 287.775,-1362.442c-23.05,-397.85 -16.525,-242.592 -91.275,-950.65c-74.75,-708.058 -594.8,-2629.367 -798.117,-3187.625c-203.317,-558.258 -82.358,-195.008 -113.717,-237.433c-31.358,-42.425 -35.508,-26.292 -52.458,10.008c-16.95,36.292 -16.833,-77.475 -37.6,182.85c-20.775,260.325 -50.333,754 -105.225,1378.517c-54.883,624.517 -247.742,1509.667 -523.992,2298.833c-276.25,789.175 -793.117,1861.417 -1092.867,2400.117c-299.75,538.7 -215.45,412.1 -539.458,906.675c-324.008,494.575 -898.033,1306.342 -1507.083,1978.617c-609.05,672.275 -1221.283,1312.558 -2094.758,2062.008c-873.475,749.45 -2348.875,1760.742 -3237.358,2247.892c-888.483,487.15 -1081.192,608.442 -1904.633,906.675c-823.442,298.233 -1643.092,595.558 -2972.933,1017.967c-1329.842,422.408 -3278.75,1029.492 -4998.858,1539.533c-1720.108,510.042 -3306.792,890.3 -5370.625,1324.542c-2063.825,434.233 -5433.242,970.658 -7018.108,1169.283c-1584.867,198.617 -1702.825,196.5 -2448.633,273.217c-745.808,76.717 -1430.667,134.792 -2027.442,184.367c-596.767,49.583 -1069.058,81.725 -1554.092,110.075c-485.025,28.35 -823.892,35.175 -1355.167,60.342c-531.267,25.167 -445.458,88.092 -1831.55,86.725c-1386.092,-1.367 -5112.117,5.458 -6484.408,-91.575c-1372.3,-97.033 -743.533,-4.55 -1754.833,-117.05c-1011.292,-112.5 -2586.458,-285.192 -4317.783,-521.867c-1731.333,-236.675 -4043.967,-613.45 -6051.692,-1009.175c-2007.733,-395.725 -4306.975,-912.283 -5976.883,-1384.275c-1669.908,-471.992 -2727.158,-799.025 -4085.267,-1256.008c-1358.108,-456.975 -2814.692,-1038.433 -4034.233,-1557.725c-1219.542,-519.292 -2067.242,-927.9 -3275.683,-1539.533c-1208.442,-611.625 -3230.7,-1836.708 -3880.917,-2275.183c-650.217,-438.483 -121.942,-155.342 -216.267,-119.475c-94.333,35.867 -247.517,-289.292 52.517,124.933c300.033,414.225 1460.917,1792.125 1928.467,2283.975c467.542,491.85 317.533,301.875 785.508,742.017c467.967,440.15 1322.717,1141.233 2171.75,1707.525c849.033,566.292 1778.317,1076.642 2924.933,1614.433c1146.617,537.792 3072.3,1308.467 3932.433,1606.242c860.133,297.775 306.758,126.75 1139.742,397.542c832.992,270.792 2178.425,755.058 3855.258,1234.175c1676.842,479.117 4269.117,1052.533 6261.233,1372.75c1992.117,320.217 4276.242,543.25 5645.658,610.717c1369.417,67.467 1637.633,106.433 2533.242,138.575c895.608,32.142 1306.042,63.375 2839.508,52.767c1533.467,-10.617 4849.358,21.833 6361.6,-37.3c1512.242,-59.133 1934.5,-42.608 2711.542,-103.4c777.042,-60.8 1216.733,-64.283 1956.183,-116.142c739.442,-51.85 1687.058,-125.992 2479.867,-194.375c792.808,-68.383 1494.2,-132.967 2277.308,-216.817c783.108,-83.842 1336.967,-148.433 2422.258,-284.133c1085.283,-135.7 2800.392,-337.5 4089.45,-527.933c1289.058,-190.433 2321.883,-394.208 3643.992,-620.117c1322.108,-225.908 3185.808,-539.758 4288.375,-729.892c1102.567,-190.133 1419.15,-215.45 2325.217,-424.533c906.075,-209.083 2089.3,-545.067 3117.575,-802.058c1028.275,-256.992 2162.983,-736.258 2875.592,-1170.492c712.608,-434.233 1294.217,-773.708 1597.75,-953.075c303.542,-179.367 163.15,-213.692 273.517,-120.083c110.367,93.608 36.083,-162.533 28.2,388.75c-7.883,551.283 -38.967,2421.192 -47.608,2965.658c-8.642,544.458 -3.033,219.092 14.558,300.208c17.592,81.117 61.1,156.925 112.2,172.842c51.092,15.917 123.117,7.883 185.583,-81.875c62.467,-89.758 58.825,50.492 228.033,-416.65c169.208,-467.133 424.833,-1805.475 466.683,-2435.9c41.85,-630.425 -302.633,-806.458 -514.592,-930.025c-211.958,-123.567 -197.725,-55.25 -202.258,-151.617c-4.533,-96.375 15.008,-44.575 157.683,-138.275c142.675,-93.7 321.583,-218.783 718.975,-463.042c397.392,-244.258 1233.108,-900.767 1516.183,-1195.358c283.075,-294.592 292.317,-262.45 376.925,-332.042c84.6,-69.592 97.867,-76.025 142.217,-69.142c44.35,6.883 -33.967,-423.317 35.175,61.25c69.142,484.575 262,2304.9 237.133,2876.5c-24.867,571.6 32.6,391.325 50.033,524.3c17.433,132.967 54.583,206.958 148.283,201.65c93.7,-5.308 159.2,-41.242 218.633,-133.125c59.433,-91.883 65.95,-5.917 169.817,-388.75c103.858,-382.833 176.183,-1510.425 146.767,-1921.308c-29.417,-410.883 -10.008,-270.333 -88.242,-519.442c-78.233,-249.108 -329.467,-678.192 -598.283,-797.208c-268.817,-119.017 -208.933,-107.192 -53.975,-288.983c154.95,-181.792 114.475,-95.517 509.133,-589.792c394.658,-494.275 1380.942,-1728.45 1871.575,-2365.85c490.633,-637.4 790.992,-1079.525 1050.717,-1473.733c259.725,-394.208 377.533,-705.783 474.258,-911.533c96.733,-205.75 53.975,-238.65 60.95,-343.267c6.975,-104.617 -15.467,-188.458 -120.992,-228.033c-105.525,-39.575 -135.85,-18.192 -226.517,113.408c-90.667,131.608 16.833,-76.417 -376.925,564.933c-393.75,641.342 -1523.917,2172.083 -2315.517,3033.275c-791.6,861.192 -1508.45,1539.233 -2324.008,2186.333c-815.558,647.108 -1593.208,1256.008 -2498.667,1795.158m-18791.875,-11244.017c829.958,-204.683 1217.65,-259.267 2488.667,-618.6c1271.017,-359.333 3864.3,-1276.325 5047.983,-1782.425c1183.683,-506.1 1386.4,-626.642 2134.483,-1012.808c748.083,-386.175 1772.417,-993.858 2311.575,-1372.142c539.158,-378.292 820.258,-594.192 1016.75,-738.992c196.5,-144.792 192.892,-135.933 101.583,-202.558c-91.308,-66.633 171.025,-66.258 -266.85,86.425c-437.875,152.683 -1440.225,529.3 -2375.25,824.2c-935.033,294.9 -1901.442,609.05 -3232.5,951.25c-1331.058,342.2 -3067.842,781.442 -4746.567,1124.4c-1678.717,342.958 -3859.6,702.3 -5322.717,947.617c-1463.117,245.317 -2211.2,348.567 -3457.508,513.075c-1246.3,164.508 -3041.158,370.558 -4019.4,482.15c-978.242,111.592 -1271.775,124.933 -1852.167,171.325c-580.392,46.392 -1065.425,74.142 -1629.592,106.742c-564.175,32.6 -851.642,89.758 -1756.042,86.725c-904.4,-3.033 -2578.267,37.75 -3670.075,-38.817c-1091.8,-76.567 -1849.892,-67.167 -2884.083,-158.592c-1034.192,-91.425 -1595.325,-112.8 -3320.442,-388.75c-1725.117,-275.942 -5105.9,-872.867 -7041.758,-1195.358c-1935.867,-322.492 -3197.042,-604.808 -4518.133,-987.642c-1321.1,-382.833 -2382.817,-719.275 -3461.842,-1060.725c-1079.025,-341.442 -2062.983,-717.917 -2965.017,-1114.392c-902.042,-396.483 -1772.917,-767.95 -2503.192,-1114.092c-730.267,-346.142 -999.258,-501.708 -1870.608,-980.058c-871.35,-478.358 -2175.175,-1265.1 -3246.483,-2060.492c-1071.308,-795.392 -2314.7,-1890.983 -3104.083,-2740.958c-789.383,-849.975 -1073,-1120.458 -1831.492,-2103.25c-758.483,-982.792 -1984.075,-3236.6 -2276.7,-4008.483c-292.625,-771.892 -28.042,-265.3 -148.95,-315.367c-120.908,-50.067 -33.1,-129.175 -53.458,173.45c-20.358,302.633 -97.858,973.842 -12.342,1705.4c85.517,731.558 126.783,1332.725 692.5,2562.958c565.717,1230.233 2127.75,3267.983 3202.783,4249.258c1075.033,981.275 1867.875,1494.5 2622.933,2031.075c755.058,536.575 1120.6,795.392 1835.433,1281.175c714.833,485.783 1569.55,1019.933 2569.6,1422.483c1000.042,402.55 2369.433,901.525 3295,1238.117c925.567,336.592 1341.083,470.017 2260.475,772.95c919.4,302.933 1871.533,622.242 3253.425,1052.533c1381.892,430.292 2851.3,804.333 5113.3,1204.458c2261.992,400.117 6362.817,1032.367 8431.492,1249.942c2068.683,217.575 2930.933,226.217 3934.492,279.883c1003.558,53.675 1138.5,56.4 2085.058,50.033c946.55,-6.367 2569.325,27.442 3594.867,-34.875c1025.55,-62.317 1901.292,-44.125 2562.958,-61.558c661.658,-17.433 1016.9,-38.817 1405.808,-58.525c388.9,-19.708 476.233,-31.842 927.3,-63.683c451.067,-31.842 1186.258,-84.758 1779.392,-127.667c593.133,-42.908 1165.492,-80.058 1779.092,-130.692c613.6,-50.642 1338.942,-123.417 1902.508,-171.933c563.567,-48.517 943.825,-74.292 1478.275,-115.533c534.458,-41.242 1306.65,-102.042 1728.45,-133.125c421.8,-31.083 627.55,-41.242 802.667,-49.125c175.117,-7.883 282.958,-51.358 270.792,69.742c-12.167,121.108 132.208,-9.4 -264.425,75.508c-396.633,84.908 -1012.358,231.825 -2140.242,452.733c-1127.892,220.908 -3531.642,490.483 -4661.35,603.442c-1129.708,112.958 -1210.825,97.942 -2104.458,164.358c-893.642,66.408 -2338.408,176.783 -3257.675,235.008c-919.258,58.225 -1563.942,75.808 -2258.508,101.583c-694.567,25.775 -1063.6,55.492 -1909.483,50.033c-845.875,-5.458 -2234.1,30.475 -3167,-37.3c-932.908,-67.775 -1686.15,-65.65 -2434.383,-109.775c-748.233,-44.125 -1013.875,-43.967 -2053.517,-170.417c-1039.65,-126.45 -2341.592,-288.375 -4188,-553.408c-1846.408,-265.025 -4926.9,-797.058 -6856.483,-1222.95c-1929.583,-425.9 -3111.025,-763.55 -4701.983,-1294.217c-1590.958,-530.667 -3629.333,-1216.583 -4902.067,-1675.683c-1272.733,-459.1 -1833.492,-720.492 -2713.85,-1131.983c-880.358,-411.492 -1766.4,-979.758 -2477.292,-1485.558c-710.892,-505.8 -1223.617,-855.275 -1891.2,-1375.175c-667.575,-519.9 -1437.825,-1124.4 -2113.592,-1742.7c-675.767,-618.3 -1104.692,-1003.867 -1894.292,-2010.458c-789.6,-1006.592 -1857.675,-3004.925 -2150.133,-4275.633c-292.458,-1270.717 -216.708,-2068.525 -147.283,-2824.042c69.425,-755.517 216.492,-1359.258 269.308,-1687.508c52.808,-328.25 204.783,-283.833 27.867,-317.183c-176.917,-33.35 -65.15,-106.892 -411.767,375.708c-346.617,482.6 -849.575,1873.7 -875.442,2763.092c-25.867,889.392 113.392,1382 381.05,2273.367c267.65,891.367 741.567,1920.25 1346.975,2943.217c605.408,1022.967 1527.225,2237.733 2321.4,3091.192c794.175,853.458 1373.967,1429.758 2269.117,2134.183c895.158,704.417 2006.217,1489.65 3042.192,2095.058c1035.975,605.408 1889.85,1023.725 3119.125,1574.408c1229.275,550.675 2826.575,1161.4 4271.725,1637.475c1445.15,476.083 2995.658,943.517 4376.55,1245.392c1380.892,301.875 2303.492,534.15 3836.367,816.917c1532.875,282.767 4052.458,697.292 5365.467,842.692c1313.017,145.4 1623.375,194.675 2474.717,265.942c851.333,71.258 2001.817,127.817 2633,164.658c631.183,36.842 627.092,32.45 1154.117,56.708c527.025,24.258 839.208,82.483 2007.733,86.725c1168.525,4.242 3901.75,6.517 5003.1,-44.275c1101.358,-50.792 1155.183,-40.633 1607.158,-58.825c451.975,-18.192 665.15,-29.108 1104.083,-53.367c438.933,-24.258 940.792,-52.308 1529.825,-90.058c589.033,-37.75 1445.525,-93.4 2005.3,-134.033c559.775,-40.633 793.117,-66.108 1352.133,-116.142c559.017,-50.033 1385.642,-118.717 2002.275,-184.975c616.633,-66.258 527.633,-65.042 1696.308,-215.908c1168.675,-150.858 3530.883,-532.183 5315.133,-933.967m-40078.333,24889.358c517.925,168.3 538.067,168.45 1553.575,505.8c1015.508,337.35 3313.525,928.358 4623.817,1192.633c1310.283,264.267 2316.575,402.55 3198.542,538.242c881.967,135.7 1324.692,184.517 2095.667,262.6c770.983,78.083 1702.367,155.108 2529.3,214.392c826.925,59.283 1800.925,109.017 2432.258,143.125c631.342,34.117 727.767,32.6 1355.467,57.308c627.7,24.717 1006.292,79.75 2409.825,88.85c1403.533,9.1 4653.925,6.975 6011.667,2.425c1357.742,-4.55 1771.208,-42.608 2135.392,-51.85c364.183,-9.25 -371.767,21.533 50.333,-2.725c422.108,-24.258 1784.55,-100.825 2482.6,-143.125c698.05,-42.3 979.458,-47.308 1704.8,-116.75c725.342,-69.442 1470.392,-123.417 2648.467,-290.8c1178.075,-167.383 3005.833,-443.483 4422.708,-687.133c1416.875,-243.65 2629.517,-548.1 4046.692,-913.958c1417.175,-365.858 2949.433,-815.1 4436.35,-1311.5c1486.925,-496.4 3310.742,-1134.408 4517.617,-1555.3c1206.883,-420.892 1767.867,-620.875 2722.158,-975.817c954.283,-354.942 2108.858,-784.475 3002.95,-1155.942c894.092,-371.467 1668.108,-826.475 2242.133,-1282.392c574.025,-455.917 1128.342,-898.033 1395.492,-1113.183c267.15,-215.15 -19.708,61.708 190.433,-199.225c210.142,-260.933 567.358,-740.5 1086.8,-1352.133c519.442,-611.625 1463.417,-2044.725 1752.1,-2513.833c288.683,-469.108 161.217,-149.875 105.525,-212.567c-55.692,-62.692 -29.258,-58.067 -186.792,89.15c-157.533,147.225 -208.475,214.542 -806,756.575c-597.525,542.033 -1795.617,1457.658 -2985.975,2213.625c-1190.358,755.967 -2663.733,1311.817 -4036.183,1990.008c-1372.45,678.192 -2461.375,921.35 -3746.792,1420.325c-1285.417,498.975 -2436.275,852.683 -3726.242,1288.592c-1289.967,435.9 -3179.167,822.042 -4857.883,1090.033c-1678.717,267.992 -1888.1,527.95 -4247.533,746.567c-2359.433,218.617 -6982.633,545.708 -10626.225,609.342c-3643.583,63.633 -7045.725,215.425 -10126.658,174.667c-6994.292,183.408 -11383.558,-730.642 -15426.775,-1701.558c-3464.325,-660.9 -8051.35,-2487.658 -9683.05,-3202.483c-1631.7,-714.825 -3358.958,-1386.225 -4821.742,-2409.508c-734.183,-477.75 -1331.392,-768.075 -2066.433,-1449.383c-735.05,-681.308 -1919.017,-1607.633 -2631.283,-2364.208c-712.275,-756.575 -1064.133,-1199.5 -1338.442,-1603.408c-274.308,-403.908 -679.317,-308.758 -760.008,-216.675c-80.683,92.083 -250.05,267.983 -192.992,534.225c57.05,266.242 152.5,662.267 485.692,1290.875c333.2,628.608 1035.642,1636.567 1701.217,2294.592c665.575,658.025 1196.983,1148.808 2014.25,1855.808c817.267,707 1740.775,1462.817 2939.425,2320.667c1198.65,857.858 2673.125,1778.183 4331.125,2646.042c1658.008,867.867 3678.808,1788.492 5642.625,2498.975m55238.95,-38507.108c-611.933,294.142 -1297.85,628.158 -1836.708,880.6c-538.85,252.442 -1115.758,501.4 -1398.525,630.733c-282.767,129.333 -308.617,101.692 -284.133,230.458c24.483,128.767 -35.475,62.008 238.342,17.892c273.825,-44.125 893.033,-84.908 1432.492,-256.233c539.458,-171.325 851.942,-292.167 1815.475,-734.133c963.533,-441.967 2873.167,-1388.675 3891.433,-2047.758c1018.267,-659.083 1763.017,-1177.775 2373.133,-1606.55c610.108,-428.775 919.258,-702.9 1270.867,-987.342c351.6,-284.433 560.683,-470.775 832.992,-725.342c272.308,-254.567 640.742,-637.4 802.667,-797.817c161.925,-160.408 98.175,-263.842 227.125,-191.95c128.95,71.892 23.958,-18.65 25.167,348.117c1.217,366.767 -9.858,1384.575 6.975,1911.6c16.833,527.025 92.033,992.192 122.208,1249.942c30.175,257.75 6.1,309.342 158.9,266.85c152.8,-42.492 65.8,-12.583 151.925,-417.25c86.117,-404.667 177.392,-1425.667 209.233,-2023.5c31.842,-597.833 10.917,-1161.092 -84.3,-1552.575c-95.217,-391.475 -159.35,-268.817 162.233,-695.325c321.583,-426.5 930.633,-1260.858 1409.75,-1928.283c479.117,-667.425 592.375,-1852.475 570.992,-2296.717c-21.375,-444.242 -15.467,-120.083 -36.992,-197.408c-21.533,-77.325 -81.267,-195.592 -169.508,-187.4c-88.242,8.183 -129.025,26.075 -190.733,133.125c-61.708,107.042 -139.033,254.108 -221.058,477.9c-82.025,223.792 -155.867,523.992 -293.233,856.342c-137.367,332.35 -165.567,508.375 -524.6,1140.167c-359.033,631.792 -1154.575,1676.9 -1878.858,2448.033c-724.283,771.133 -1471.758,1457.2 -2400.117,2177.242c-928.358,720.033 -2063.675,1513.45 -3145.167,2122.958c-1081.492,609.508 -2135.692,1158.967 -3237.958,1753.617m2575.083,6498.967c163.442,-188.917 491.95,-464.533 390.875,-689.258c-101.075,-224.717 8.033,-42.758 -336.592,122.808c-344.625,165.567 -1359.108,654.842 -1785.458,868.775c-426.35,213.933 -513.983,266.092 -758.7,439.692c-244.708,173.6 -159.808,125.842 -712.608,597.683c-552.8,471.833 -1798.042,1397.008 -2782.2,1982.558c-984.158,585.55 -1934.8,1071.642 -3053.592,1591.992c-1118.792,520.35 -2865.283,1216.283 -3657.333,1480.4c-792.05,264.117 -804.333,268.817 -1001.592,336.592c-197.258,67.775 -305,61.617 -181.333,142.525c123.667,80.9 77.783,-1.975 443.942,-88.85c366.158,-86.875 1109.392,-265.025 1785.15,-430.292c675.767,-165.267 1650.367,-397.392 2269.725,-562.5c619.358,-165.108 649.992,-142.367 1439.467,-449.092c789.475,-306.725 2543.85,-1202.633 3183.983,-1605.333c640.133,-402.7 426.958,-273.217 801.758,-519.442c374.8,-246.225 761.125,-459.558 1445.525,-959.742c684.408,-500.192 1708.433,-1430.367 2508.983,-2258.508m-2465.617,25460.358c270.792,56.708 470.775,-44.725 586.767,-295.05c115.992,-250.325 170.117,-351.6 231.367,-712c61.25,-360.4 133.125,-1049.808 187.1,-1441.283c53.975,-391.475 7.275,-693.35 -39.725,-896.975c-47,-203.625 -18.342,-154.2 -128.575,-322.95c-110.225,-168.75 -449.242,-197.858 -584.642,-50.033c-135.392,147.825 -134.633,186.183 -178.908,296.867c-44.275,110.683 -11.975,-140.7 -91.575,364.183c-79.6,504.892 -169.208,2159.2 -154.95,2675.458c14.25,516.258 25.167,267.458 173.15,381.775m-8025.158,-278.675c-21.225,-216.508 -40.633,-485.633 -67.925,-648.625c-27.292,-162.992 -40.933,-193.467 -127.967,-322.033c-87.025,-128.575 -320.975,-151.317 -430.9,-41.85c-109.925,109.467 -127.208,86.117 -180.425,293.233c-53.217,207.108 -147.375,563.567 -192.558,932.15c-45.183,368.583 -84.45,905.158 -94.308,1276.017c-9.858,370.858 14.708,676.067 53.367,948.525c38.667,272.458 290.05,277.158 435.45,183.458c145.4,-93.7 164.658,-138.125 225.308,-258.058c60.65,-119.933 53.825,-67.017 158.292,-448.792c104.467,-381.775 175.575,-1240.842 221.667,-1914.033m-4124.925,-14894.075c1.517,142.217 -11.975,260.783 7.275,426.05c19.258,165.267 43.058,378.292 104.008,565.233c60.95,186.942 284.742,203.625 398.45,87.942c113.717,-115.683 140.85,-141.917 199.533,-313.55c58.675,-171.633 134.183,-363.583 185.583,-701.383c51.4,-337.808 120.533,-928.508 152.833,-1320.292c32.292,-391.783 3.483,-773.708 -62.767,-1022.817c-66.258,-249.108 -98.1,-343.567 -295.658,-367.825c-197.558,-24.258 -339.475,202.258 -396.025,296.567c-56.55,94.308 -24.258,31.233 -48.517,115.233c-24.258,84 -30.325,25.925 -104.317,387.533c-73.992,361.608 -157.383,1192.933 -140.4,1847.317m5477.967,-865.742c59.133,-182.85 70.5,-168.45 176.183,-549.767c105.675,-381.317 195.283,-1387.917 219.542,-1765.75c24.258,-377.833 -8.033,-274.425 -72.775,-494.275c-64.742,-219.85 -450,-295.658 -595.858,-154.35c-145.858,141.308 -77.175,47.758 -192.858,289.292c-115.683,241.525 -200.592,762.642 -230.458,1201.117c-29.867,438.483 -67.167,1123.95 -81.567,1403.075c-14.4,279.133 -27.75,93.242 18.5,272.917c46.242,179.667 331.442,302.025 488.817,166.783c157.383,-135.242 171.633,-221.367 270.483,-369.042m4257.442,-4782.342c-21.833,-35.475 -10.008,-35.783 -66.108,-106.742c-56.1,-70.958 -186.183,-198.017 -339.925,-167.992c-153.742,30.017 -252.75,154.35 -290.8,282.617c-38.058,128.267 -52.767,105.983 -70.35,343.267c-17.592,237.283 -51.7,629.217 -60.042,1076.492c-8.342,447.275 -3.033,1293.308 -2.425,1607.158c0.608,313.85 3.033,183.608 16.075,275.342c13.042,91.725 64.283,201.05 153.133,198.617c88.85,-2.425 132.058,-12.892 198.317,-121.292c66.258,-108.408 113.408,-151.925 244.708,-493.367c131.3,-341.442 297.475,-1109.092 330.225,-1592.292c32.75,-483.208 62.167,-854.217 -112.8,-1301.792m515.5,30434.95c77.325,-40.025 159.5,-38.208 226.825,-124.633c67.317,-86.425 45.033,137.067 203.167,-370.25c158.142,-507.317 298.383,-2169.658 259.567,-2703.05c-38.817,-533.392 -86.117,-316.883 -147.675,-447.275c-61.558,-130.392 -170.117,-184.517 -310.517,-168.6c-140.4,15.917 -232.433,107.192 -272.917,228.942c-40.483,121.75 -13.042,-174.667 -78.842,366.308c-65.8,540.975 -59.742,2338.108 -61.25,2881.358c-1.517,543.25 22.742,252.6 181.642,337.2m5413.383,-38745.15c140.092,55.492 255.475,-7.883 327.8,-110.075c72.325,-102.192 104.158,-99.917 164.658,-306.875c60.492,-206.958 177.85,-585.55 232.583,-922.45c54.733,-336.9 94.917,-790.383 103.1,-1097.108c8.183,-306.725 -42.3,-542.183 -78.842,-742.625c-36.542,-200.442 -147.983,-270.942 -311.425,-278.975c-163.442,-8.033 -267.758,78.992 -327.492,259.567c-59.742,180.575 -76.717,88.092 -122.508,536.125c-45.792,448.033 -157.533,1694.942 -195.892,2146.917c-38.358,451.975 12.433,369.042 208.017,515.5m-2941.092,5998.933c-470.925,-24.867 -564.775,262.3 -516.717,574.933c48.067,312.633 48.217,93.092 63.375,473.05c15.158,379.958 44.425,1426.575 57.917,1806.983c13.492,380.408 26.833,348.567 44.275,473.958c17.433,125.392 51.092,182.7 160.408,199.833c109.317,17.133 161.325,-3.792 219.542,-134.633c58.225,-130.85 144.792,-195.592 205.592,-535.217c60.8,-339.625 178.15,-1093.317 209.842,-1491.317c31.692,-398 -29.258,-648.625 -65.2,-897.583c-35.933,-248.958 -119.475,-386.325 -379.042,-470.017m9920.083,15004.758c49.125,-700.475 120.533,-1534.375 140.7,-2101.433c20.167,-567.05 -37.15,-1023.425 -54.283,-1302.1c-17.133,-278.675 -45.792,-255.175 -79.75,-366.917c-33.967,-111.742 -77.175,-217.875 -206.808,-223.183c-129.633,-5.308 -187.55,122.958 -229.55,204.075c-42,81.117 -58.675,104.917 -77.025,211.358c-18.342,106.433 -52.608,75.658 -47.308,421.8c5.308,346.142 19.558,1120.458 44.875,1654.758c25.317,534.3 81.417,1222.65 107.65,1551.358c26.233,328.708 48.825,314 74.6,419.683c25.775,105.675 -70.3,369.892 122.208,265.633c192.5,-104.25 144.033,-481.842 204.683,-735.042m-3072.7,11721.608c-16.983,-384.5 -24.717,-723.067 -51.85,-1152.908c-27.142,-429.842 -75.2,-1090.133 -112.2,-1425.208c-36.992,-335.075 -102.192,-429.683 -161.017,-578.275c-58.825,-148.583 -117.35,-207.567 -218.333,-298.383c-100.975,-90.817 -261.392,-23.5 -309,73.383c-47.608,96.883 -44.875,55.642 -46.392,192.558c-1.517,136.908 -27.442,252.9 11.525,627.092c38.967,374.192 130.392,1109.092 192.858,1620.8c62.467,511.708 219.542,1146.383 319.308,1418.242c99.767,271.85 56.25,157.683 124.325,243.5c68.075,85.817 198.617,43.058 226.517,-45.483c27.9,-88.542 19.708,-68.983 21.833,-173.45c2.125,-104.467 1.817,-301.417 2.425,-501.858m-10967.767,-5127.125c-27.9,-189.217 -22.592,-364.492 -90.058,-565.533c-67.467,-201.05 -366.008,-220.758 -487,-106.133c-120.992,114.625 -122.05,112.8 -170.725,243.8c-48.667,131 -88.242,111.742 -147.983,529.758c-59.742,418.008 -117.808,1614.583 -107.342,1978.925c10.458,364.342 -15.158,41.542 20.317,199.225c35.475,157.683 302.025,282.917 445.458,147.675c143.433,-135.242 88.242,39.267 225,-352.667c136.758,-391.933 299.6,-1336.967 312.333,-2075.05m-18904.375,-11519.658c65.8,-123.417 65.65,109.617 192.858,-370.558c127.208,-480.175 315.825,-2069.133 295.958,-2532.025c-19.858,-462.892 0.3,-104.317 -23.65,-198.617c-23.958,-94.308 -82.933,-246.833 -223.792,-274.425c-140.85,-27.592 -263.358,63.375 -329.317,141.608c-65.95,78.233 -73.083,71.258 -114.625,192.558c-41.542,121.292 -116.75,242.592 -153.442,527.025c-36.692,284.433 -86.575,915.317 -106.433,1173.225c-19.858,257.9 -16.833,189.217 1.517,376.017c18.342,186.792 50.183,518.233 96.433,744.45c46.242,226.217 125.542,251.083 364.492,220.758m5524.667,-2164.5c10.617,-99.767 8.342,-60.492 32.142,-299.292c23.8,-238.8 -24.108,-872.717 -93.092,-1117.425c-68.983,-244.708 -96.583,-236.825 -249.258,-249.567c-152.683,-12.733 -248.05,72.325 -302.633,218.633c-54.583,146.308 -55.192,72.925 -138.275,505.8c-83.083,432.867 -109.925,1674.625 -100.375,2099.608c9.55,424.983 27.142,283.983 79.45,441.817c52.308,157.833 256.083,181.033 355.092,75.808c99.008,-105.225 62.925,-11.067 160.408,-278.675c97.492,-267.608 222.575,-890.3 256.542,-1396.708m22562.325,-135.242c70.65,327.492 158.9,757.633 214.083,982.183c55.192,224.55 108.683,319.867 228.033,326.892c119.35,7.017 62.767,-45.183 79.45,-148.583c16.675,-103.4 56.25,-210.292 52.158,-473.35c-4.092,-263.058 -28.508,-719.883 -45.183,-1104.392c-16.675,-384.5 -25.017,-854.367 -56.708,-1203.85c-31.692,-349.483 -98.25,-665.15 -154.35,-889.7c-56.1,-224.55 -134.183,-318.092 -222.575,-444.542c-88.392,-126.45 -228.942,-74.9 -285.042,28.2c-56.1,103.1 -67.167,142.975 -76.108,262.3c-8.942,119.325 -46.242,15.317 2.725,451.517c48.975,436.208 169.817,1446.742 263.517,2213.325m-4665.292,3785.608c19.408,-425.742 50.183,-973.842 54.583,-1278.142c4.4,-304.3 -27.592,-343.867 -67.625,-547.95c-40.025,-204.075 -141.308,-429.683 -346.3,-562.808c-204.992,-133.125 -422.108,11.067 -460.008,183.458c-37.908,172.392 -61.408,-141.767 -16.375,324.467c45.033,466.225 149.492,2041.842 144.95,2481.992c-4.55,440.15 0.608,77.933 14.25,149.492c13.642,71.567 49.425,182.55 155.258,208.625c105.833,26.075 173.6,-34.875 228.333,-119.775c54.733,-84.908 108.558,-152.833 153.133,-286.558c44.575,-133.725 89.758,-339.017 139.792,-552.8m-14229.683,12034.25c-22.742,-241.375 -44.875,-534.608 -70.65,-723.525c-25.775,-188.917 -96.125,-259.567 -243.5,-282.008c-147.375,-22.442 -269.275,62.467 -336.9,210.75c-67.625,148.283 -54.883,19.1 -143.125,426.958c-88.242,407.85 -108.1,1641.875 -92.792,2026.225c15.317,384.35 31.383,194.525 52.458,270.483c21.075,75.958 18.042,89.608 80.358,182.55c62.317,92.942 252.75,130.542 342.658,46.392c89.908,-84.15 109.775,-114.317 149.492,-226.517c39.725,-112.2 72.925,-122.05 110.075,-436.967c37.15,-314.908 100.975,-964.9 151.925,-1494.35m17938.567,5306.642c118.567,-237.433 167.542,-413.467 172.542,-753.85c5,-340.383 11.675,-902.125 -3.642,-1257.217c-15.317,-355.092 -69.742,-660.75 -110.075,-871.5c-40.333,-210.75 -48.217,-220.15 -177.392,-379.958c-129.175,-159.808 -434.842,-114.925 -496.7,99.767c-61.858,214.692 -104.158,14.25 -50.642,520.05c53.525,505.8 240.767,2067.617 295.658,2520.5c54.883,452.883 12.433,109.617 49.733,193.767c37.3,84.15 153.283,101.283 221.058,55.192c67.775,-46.092 53.975,-62.767 99.458,-126.75m2037.142,-38705.733c0,334.467 0.15,798.425 0.908,1003.108c0.758,204.683 -7.733,157.683 14.858,223.483c22.592,65.8 77.475,141.308 126.45,161.017c48.975,19.708 115.833,1.667 168.6,-70.35c52.767,-72.017 47.608,3.333 178.908,-327.192c131.3,-330.525 239.858,-1264.5 258.358,-1701.158c18.5,-436.658 -35.633,-681.225 -63.683,-897.883c-28.05,-216.667 -84.758,-282.467 -146.158,-392.992c-61.408,-110.533 -165.567,-136.458 -284.742,-115.233c-119.175,21.225 -195.892,105.675 -219.85,214.392c-23.958,108.708 -29.717,14.1 -31.842,322.95c-2.125,308.85 -1.817,1019.783 -1.817,1579.867m-7464.167,4207.108c-26.075,283.833 -62.167,667.725 -76.108,850.883c-13.95,183.158 -14.4,121.45 13.342,250.167c27.75,128.725 202.258,215.75 317.183,117.958c114.925,-97.792 40.633,59.433 226.517,-295.35c185.883,-354.783 412.708,-1514.967 440.908,-1921.308c28.2,-406.333 1.367,-312.633 -12.133,-451.825c-13.492,-139.183 -55.95,-253.808 -200.133,-290.5c-144.192,-36.692 -206.808,9.4 -319.308,152.525c-112.5,143.125 -216.358,355.542 -261.083,620.425c-44.725,264.875 -83.083,614.058 -129.175,967.025m4433.625,13974.658c-33.967,-274.425 -65.5,-611.025 -107.342,-821.775c-41.85,-210.75 -70.65,-282.008 -183.158,-432.108c-112.5,-150.1 -345.542,-124.325 -402.392,72.775c-56.858,197.1 -119.775,73.842 -70.05,566.75c49.733,492.908 226.825,1960.725 279.583,2397.392c52.767,436.658 23.05,162.683 47.308,220.45c24.258,57.767 69.442,108.708 111.892,112.8c42.45,4.092 95.975,7.883 134.033,-86.725c38.058,-94.608 82.025,-121.292 144.342,-452.125c62.317,-330.833 55.492,-1019.483 45.792,-1577.433m4595.25,-3651.275c-37.908,-247.442 -72.925,-525.808 -116.442,-741.108c-43.517,-215.3 -183.758,-362.675 -296.867,-454.858c-113.108,-92.183 -162.083,-129.783 -273.517,-72.167c-111.442,57.617 -115.233,193.158 -103.4,285.95c11.825,92.792 -7.433,-54.433 44.275,221.367c51.7,275.792 202.867,1064.967 265.942,1431.883c63.075,366.917 74.442,597.375 101.583,771.733c27.142,174.358 0.458,232.583 129.175,241.983c128.725,9.4 98.858,60.042 160.408,-220.15c61.558,-280.192 164.958,-938.817 88.85,-1464.633m-20002.092,-140.7c0,0 -0.3,-1.817 0,0" style="fill:#080605;fill-rule:nonzero;"/><path id="path59" d="M205284.633,35798.708c-519.142,-2.725 -1038.225,35.092 -1557.367,46.608c-929.725,20.925 -1860.367,31.9 -2790.083,54.642c-359.942,9.1 -719.692,28.142 -1078.425,57.858c-684.408,57.308 -1369.492,116.142 -2052.383,192.858c-1124.1,126.45 -2248.825,248.725 -3368.675,408.225c-1145.025,163.142 -2291.733,334.575 -3424.925,564.125c-1379.425,279.883 -2750.242,605.192 -4116.017,946.633c-926.392,231.675 -1843.808,506.875 -2754.725,795.558c-1382.817,437.875 -2743.025,937.1 -4074.233,1517.192c-1162.183,506.1 -2292.033,1073.858 -3387.958,1710.05c-871.017,505.8 -1709.133,1062.917 -2515.258,1666.658c-826.05,618.6 -1622.308,1272.517 -2359.358,1994.525c-400.392,392.083 -777.075,811.283 -1139.5,1239.15c-949.283,1121.067 -1736.75,2342.042 -2234,3735.117c-298.325,836.025 -470.092,1696.792 -483.767,2584.367c-16.833,1095.9 212.283,2147.292 604.308,3166.167c462.1,1201.425 1138.883,2277.233 1947.917,3270.642c301.208,370.25 619.258,728.125 949.85,1072c370.983,386.325 762.458,752.992 1152.358,1120.217c76.05,71.567 183.983,121.567 286.083,149.467c69.5,18.8 185.317,8.217 223.4,-36.967c39.758,-47.308 39.242,-166.967 6.425,-228.225c-281.842,-735.725 -739.133,-1637.133 485.375,-265.183c644.042,579.792 1343.992,1085.717 2065.242,1560.583c1664.858,1095.9 3441.925,1983.05 5265.158,2777.233c1730.933,754.15 3510.275,1373.558 5323.025,1904.525c2215.142,648.925 4459.892,1173.075 6729.308,1587.908c1319.383,240.767 2640.65,467.275 3974.583,615.558c666.208,73.992 1333.225,143.158 2000.958,204.108c491.85,44.875 985.55,76.75 1478.617,107.683c785.683,49.425 1569.85,125.208 2356.142,133.4c1650.217,17.592 3301.758,38.15 4950.15,-86.783c793.567,-60.342 1590.108,-82.217 2381.858,-155.9c4287,-270.925 2474.908,1177.9 2539.8,1173.658c593.733,-35.175 2226.833,-369.658 2816.325,-440.608c1281.175,-154.65 2213.8,-387.258 3448.992,-698.892c1028.767,-339.9 1720.825,-416.208 3050.775,-840.842c1637.983,-527.608 3026.375,-993.133 4514.967,-1514.1c403.608,-141.308 808.458,-279.167 1205.4,-437.158c1027.975,-409.067 2066.2,-795.325 3072.95,-1252c1236.292,-560.992 2434.192,-1200.192 3579.217,-1938.275c1671.442,-1077.1 3216.6,-2298.325 4538.717,-3792.975c963.383,-1089.533 1888.092,-2423.775 2283.817,-3643.5c477.6,-1284.208 632.833,-2598.617 438.767,-3955.3c-171.025,-1193.542 -583.758,-2301.158 -1157.175,-3355.817c-624.967,-1149.875 -1413.075,-2179.858 -2324,-3114.742c-374.192,-383.592 -771.55,-744.233 -1158.783,-1115.392c-564.325,-540.975 -1186.483,-1011.508 -1819.342,-1465.758c-1035.858,-743.842 -2110.967,-1423.833 -3236.883,-2026.667c-1073.158,-574.333 -2169.767,-1097.175 -3289.917,-1570.225c-1328.783,-561.292 -2686.017,-1045.417 -4058.158,-1491.475c-1644.45,-534.3 -3314.583,-973.817 -4999.975,-1351.65c-2234.55,-501.25 -4494.517,-865.433 -6767.883,-1145.925c-1615.042,-199.225 -3235.017,-311.975 -4858.542,-379.3c-887.267,-36.992 -1775.242,-48.183 -2663.117,-53.042l-0.033,-0.017Zm-1125.033,1457.725c888.483,-8.792 1777.85,-9.1 2666.333,0c661.658,6.975 1324.433,19.558 1984.883,56.25c1221.742,67.925 2438.808,194.992 3649.933,369.658c1036.767,149.192 2074.792,298.217 3106.7,478.942c1734.817,303.842 3450.408,698.742 5149.442,1163.608c646.5,176.783 1290.075,367.2 1935.058,551.267c1437.342,455.767 2830.267,917.808 4185.133,1481.833c935.792,389.358 1861.483,807.458 2772.408,1252c1680.233,819.65 3227.367,1852.758 4659.25,3052.058c809.642,678.342 1565.75,1415.317 2283.817,2192.208c512.167,554.617 1016,1114.192 1459.333,1726.125c655.9,905.158 1155.275,1882.258 1380.575,2989.375c188.617,926.992 168.108,1847.05 -35.358,2769.192c-214.992,975.508 -651.867,1845.95 -1224.675,2653.475c-496.7,700.175 -1077.658,1319.25 -1718.092,1893.275c-1305.133,1171.1 -2745.942,2145.892 -4270.308,3002.233c-1404.592,788.417 -2852.892,1487.908 -4332.992,2124.708c-1325.45,569.783 -2660.992,1107.308 -4034.05,1550.942c-1940.108,626.183 -3906.008,1161.4 -5901.608,1579.867c-1131.983,237.433 -2266.592,460.658 -3404.033,670.2c-1253.883,230.767 -2521.325,372.025 -3789.758,491.8c-667.425,63.075 -1332.925,130.333 -2000.958,186.433c-358.425,30.017 -720.092,52.4 -1080.033,57.858c-1474.333,22.442 -2948.05,48.217 -4422.992,48.217c-685.925,0 -1372.592,-54.65 -2058.817,-86.792c-342.658,-16.075 -685.942,-33.117 -1028.6,-54.65c-526.417,-33.05 -1053.058,-58.25 -1578.267,-107.683c-892.725,-84 -1786.792,-160.358 -2674.367,-282.867c-1278.442,-176.483 -2557.067,-366.808 -3826.725,-597.875c-1162,-211.958 -2317.142,-464.792 -3466.717,-737.7c-1991.358,-473.05 -3950.558,-1056 -5871.075,-1769.517c-1188.083,-441.208 -2350.292,-941.308 -3490.825,-1489.867c-914.017,-439.392 -1802.225,-928.517 -2653.475,-1483.442c-773.283,-503.983 -1528.275,-1032.533 -2234,-1628.083c-654.083,-551.892 -1262.025,-1151.492 -1832.2,-1790.408c-464.258,-520.35 -896.517,-1064.517 -1271.292,-1652.192c-583.367,-914.867 -1080.008,-1868.525 -1374.15,-2923.483c-268.817,-963.992 -268.183,-1916.917 -8.033,-2878.483c322.342,-1191.417 912.358,-2244.783 1629.692,-3238.492c720.583,-998.258 1574.25,-1875.342 2471.858,-2706.508c1041.558,-964.292 2189.208,-1795.283 3405.642,-2529.725c1315.35,-793.875 2683.133,-1486.542 4098.342,-2084.525c2623.208,-1108.333 5306.442,-2035.933 8082.567,-2677.583c1642.025,-379.35 3299.908,-689.883 4971.05,-916.1c872.108,-118.258 1743.883,-237.05 2618.117,-335.9c657.717,-73.992 1318.608,-122.242 1978.458,-171.975c709.575,-53.367 1419.35,-94.733 2129.525,-141.433c33.358,-2.125 67.592,-4.217 101.25,-4.825c954.892,-17.892 1908.817,-42.025 2864.017,-51.425l0.017,0.008Z" style="fill:#080605;fill-rule:nonzero;stroke:#000;stroke-width:628.25px;stroke-linecap:butt;stroke-miterlimit:2;"/><path id="path69" d="M187767.233,54661.933c852.092,233.492 1685.083,460.317 2516.558,691.683c171.933,47.908 326.283,31.533 483.658,-53.975c1016.45,-550.983 2034.717,-1099.533 3053.592,-1646.875c347.208,-186.183 694.108,-372.675 1045.558,-550.675c1855.2,-938.517 3705.25,-1887.342 5570.15,-2805.542c1165.342,-574.025 2351.9,-1104.083 3533.008,-1644.45c327.192,-149.492 668.633,-268.975 1006.742,-394.208c100.675,-37.3 211.658,-64.283 318.092,-65.2c252.292,-1.817 372.675,211.658 252.292,432.108c-102.192,187.1 -235.008,339.325 -429.383,443.942c-538.85,290.2 -1077.4,581.308 -1605.033,890.3c-1171.708,686.225 -2335.225,1386.7 -3504.508,2076.258c-1090.442,643.167 -2177.242,1292.392 -3279.2,1914.633c-809.642,457.283 -1638.392,881.208 -2464.408,1309.075c-438.783,227.125 -890.908,429.383 -1334.542,647.108c-85.208,41.85 -159.5,104.917 -282.317,187.4c129.175,72.167 208.625,129.783 296.867,163.442c1205.667,460.917 2414.975,912.742 3618.825,1379.425c812.675,315.367 1620.8,642.858 2424.375,980.967c246.533,103.4 449.092,104.617 684.1,-37.6c1026.458,-619.508 2058.675,-1228.717 3094.833,-1832.158c1977.408,-1151.392 3957.542,-2298.833 5941.008,-3439.917c296.867,-170.725 618.908,-298.083 930.333,-443.333c44.875,-20.925 94.608,-35.475 143.433,-44.275c157.683,-28.508 270.792,14.858 324.467,127.058c60.342,127.058 39.725,250.167 -54.883,349.025c-74.9,78.233 -160.717,149.192 -251.683,207.417c-515.5,328.408 -1026.15,665.908 -1553.483,975.208c-1380.942,809.942 -2771.583,1603.517 -4154.95,2409.825c-1165.942,679.55 -2327.042,1367.292 -3489.342,2053.517c-89.758,53.067 -170.417,122.208 -254.108,182.85c61.558,154.65 186.183,173.758 288.983,221.058c1494.05,685.008 2960.5,1424.908 4389.65,2236.975c152.525,86.425 302.025,184.067 435.45,297.175c224.7,189.525 176.483,417.25 -100.675,514.292c-170.117,59.742 -338.408,69.142 -514.892,0c-842.392,-331.133 -1685.992,-658.633 -2531.725,-980.667c-1065.267,-405.733 -2135.692,-799.025 -3198.542,-1211.433c-265.942,-103.1 -488.817,-97.942 -734.742,56.4c-1476.758,926.392 -2957.767,1846.708 -4441.808,2761.575c-263.517,161.925 -547.95,289.592 -822.983,432.717c-14.558,7.883 -30.625,13.042 -46.392,18.5c-201.35,67.625 -359.642,33.05 -427.567,-93.092c-67.625,-125.542 -31.233,-308.392 118.567,-426.65c341.442,-269.575 678.342,-550.375 1044.65,-782.35c1203.85,-762.642 2420.133,-1505.267 3631.558,-2255.775c21.225,-13.342 43.367,-25.475 63.983,-40.025c175.575,-125.542 170.725,-210.142 -35.783,-292.925c-490.033,-196.8 -984.608,-382.075 -1477.067,-574.025c-1350.917,-526.725 -2701.842,-1054.35 -4052.758,-1581.375c-312.633,-121.9 -627.092,-238.342 -937,-366.308c-200.442,-82.483 -386.625,-80.058 -578.575,24.258c-707.45,383.592 -1417.633,761.733 -2125.083,1145.025c-61.25,33.358 -110.683,89.15 -201.958,164.358c111.592,55.192 179.817,97.342 253.2,124.633c1178.075,439.392 2358.875,872.108 3534.225,1318.775c272.917,103.708 529.15,252.292 792.358,380.867c22.442,10.917 42.758,26.383 63.075,41.242c164.658,117.658 221.967,243.192 174.058,379.042c-51.85,147.375 -184.975,210.142 -395.725,177.7c-467.592,-71.867 -905.767,-240.467 -1345.767,-405.125c-1248.725,-466.983 -2500.183,-924.875 -3745.883,-1398.833c-233.192,-88.85 -426.65,-78.842 -642.858,40.633c-1121.675,621.025 -2296.717,1141.683 -3393.858,1810.325c-276.975,168.9 -584.608,289.592 -884.45,417.558c-104.158,44.275 -228.425,61.25 -342.358,57.008c-182.125,-6.975 -314.942,-111.592 -381.867,-282.008c-65.65,-166.475 22.375,-290.8 133.333,-402.392c29.417,-29.717 61.858,-57.008 95.067,-82.175c626.125,-477.292 1245.183,-963.083 1932.675,-1354.558c414.95,-236.225 815.225,-497.917 1220.95,-750.208c67.625,-42.45 128.267,-95.825 232.583,-174.667c-110.375,-60.042 -175.875,-105.525 -248.35,-133.725c-1150.083,-441.517 -2303.45,-876.35 -3450.775,-1325.142c-239.983,-94.308 -460.342,-238.042 -688.258,-361.758c-35.967,-19.1 -68.683,-49.425 -95.092,-80.967c-150.675,-179.217 -67.408,-437.567 163.533,-451.517c196.708,-11.825 406,6.067 593.4,63.683c392.142,120.692 775.008,271.4 1158.633,417.558c1041.925,396.933 2083.842,793.875 3122.125,1199.908c269.275,105.525 500.342,106.133 759.908,-51.25c623.15,-378.133 1264.8,-725.642 1897.35,-1089.225c90.367,-51.85 168.9,-123.417 291.108,-213.783c-104.008,-55.192 -163.75,-94.608 -228.942,-120.383c-547.042,-212.875 -1097.108,-416.95 -1641.417,-636.192c-613.75,-247.742 -1222.65,-507.617 -1833.067,-763.85c-53.675,-22.442 -106.133,-52.158 -151.925,-87.633c-151.317,-117.35 -205.9,-286.858 -148.583,-444.242c63.683,-174.967 214.392,-278.675 419.683,-239.858c212.567,40.025 423.317,105.525 625.275,184.367c367.525,142.825 731.1,282.317 1130.767,324.158c230.458,23.65 454.25,114.925 700.475,181.333l0.05,-0.042Z" style="fill:#080605;fill-rule:nonzero;stroke:#000;stroke-width:1250.25px;stroke-linecap:butt;stroke-miterlimit:2;"/><path id="path70" d="M178930.217,55835.433c-226.333,247.142 -505.192,318.092 -807.183,329.008c-122.05,4.55 -236.583,-16.375 -305.325,-133.125c-69.442,-118.258 -35.392,-234.1 39.875,-328.708c97.975,-123.117 197.133,-256.233 324.133,-344.175c909.5,-628.608 1810.808,-1271.775 2745.325,-1862.175c913.375,-576.758 1860.717,-1099.842 2796.992,-1640.208c813.125,-468.8 1623.375,-942.767 2449.092,-1388.517c699.867,-378.133 1411.867,-735.65 2132.667,-1072.85c933.358,-436.658 1883.4,-837.233 2819.8,-1267.225c654.692,-300.508 1295.125,-631.033 1948.6,-933.667c179.217,-82.783 380.258,-126.75 576.15,-162.533c198.925,-36.692 312.033,22.742 364.492,146.158c53.367,124.633 16.983,251.683 -129.783,374.192c-349.025,290.5 -716.242,558.867 -1135.625,735.958c-920.625,388.75 -1789.7,877.867 -2672.425,1340.908c-638.317,334.775 -1275.717,670.458 -1910.692,1010.992c-1019.175,546.433 -2036.842,1094.683 -3053.292,1646.275c-942.458,511.558 -1888.317,1017.658 -2821.558,1545.6c-977.275,553.1 -1942.475,1127.133 -2910.708,1696c-151.433,88.85 -291.292,197.1 -450.517,308.092l-0.017,0Z" style="fill:#080605;fill-rule:nonzero;stroke:#000;stroke-width:628.25px;stroke-linecap:butt;stroke-miterlimit:2;"/><path id="path74" d="M209315.225,61519.033c744.142,-421.8 1471,-836.633 2201.5,-1246c123.417,-68.833 257.45,-121.6 391.475,-168.3c159.5,-56.1 282.617,-15.767 354.183,98.25c70.35,110.983 53.975,250.775 -53.675,368.133c-56.1,60.95 -121.292,116.75 -190.433,162.533c-574.025,376.317 -1141.992,761.733 -1726.325,1121.067c-641.95,394.508 -1293.308,774.167 -1951.633,1140.475c-394.508,219.542 -807.825,405.125 -1216.583,597.983c-207.417,97.342 -358.125,58.225 -439.083,-90.058c-79.45,-145.55 -37.6,-307.783 146.467,-429.083c587.067,-386.625 1178.983,-765.975 1773.325,-1141.992c226.217,-143.125 462.742,-269.883 710.783,-413.008Z" style="fill:#080605;fill-rule:nonzero;stroke:#000;stroke-width:1250.25px;stroke-linecap:butt;stroke-miterlimit:2;"/><path id="path76" d="M221577.033,40596.892c-6247.517,-1897.942 -19283.417,-2989.817 -19831.425,-826.05c-298.292,1177.783 10346.617,1474.767 18224.517,4478.442c8169.367,3114.975 12197.567,8505.983 13554.483,7386.658c1570.883,-1295.242 -2399.992,-8138.583 -11947.575,-11039.05Z" style="fill:#fffcca;"/></g><defs><linearGradient id="_Linear1" x1="0" y1="0" x2="1" y2="0" gradientUnits="userSpaceOnUse" gradientTransform="matrix(-17.416667,-139423.778685,139423.778685,-17.416667,139133.333333,144703.553685)"><stop offset="0" style="stop-color:#b0c37c;stop-opacity:1"/><stop offset="1" style="stop-color:#fff;stop-opacity:1"/></linearGradient></defs></svg>