<?xml version="1.0" encoding="UTF-8" standalone="no"?><!DOCTYPE svg PUBLIC "-//W3C//DTD SVG 1.1//EN" "http://www.w3.org/Graphics/SVG/1.1/DTD/svg11.dtd"><svg width="100%" height="100%" viewBox="0 0 1244 671" version="1.1" xmlns="http://www.w3.org/2000/svg" xmlns:xlink="http://www.w3.org/1999/xlink" xml:space="preserve" xmlns:serif="http://www.serif.com/" style="fill-rule:evenodd;clip-rule:evenodd;stroke-linecap:round;stroke-linejoin:round;stroke-miterlimit:1.5;"><clipPath id="_clip1"><rect x="0" y="-0" width="1243.85" height="670.833"/></clipPath><g clip-path="url(#_clip1)"><path id="U1-muscle" d="M1129.829,23.601c49.877,-0 90.309,39.877 90.309,89.068l0,445.335c0,49.191 -40.432,89.068 -90.309,89.068l-1015.965,0c-49.877,0 -90.309,-39.877 -90.309,-89.068l-0,-445.335c0,-49.191 40.432,-89.068 90.309,-89.068l1015.965,-0Z" style="fill:url(#_Linear2);stroke:#000;stroke-width:47.26px;"/><g id="g89"><path id="path78" d="M933.441,464.919c3.346,8.309 6.266,16.525 8.298,25.02c0.832,3.461 1.477,6.977 2.029,10.492c0.507,3.227 0.886,6.479 1.111,9.734c0.257,3.705 0.202,7.416 -0.202,11.128c-0.421,3.853 -1.124,7.641 -2.251,11.346c-0.254,0.841 -0.591,1.657 -0.886,2.482c-0.1,-0.013 -0.202,-0.029 -0.302,-0.042c0,-0.652 -0.032,-1.307 0.006,-1.955c0.148,-2.568 0.366,-5.134 0.453,-7.702c0.039,-1.23 -0.183,-2.466 -0.263,-3.702c-0.796,-12.431 -3.843,-24.314 -8.619,-35.798c-3.169,-7.612 -6.929,-14.913 -11.403,-21.832c-2.39,-3.695 -4.902,-7.323 -7.486,-10.887c-5.122,-7.063 -10.862,-13.629 -16.608,-20.182c-3.426,-3.907 -6.926,-7.75 -10.42,-11.6c-7.855,-8.656 -15.546,-17.449 -22.519,-26.847c-4.759,-6.418 -9,-13.16 -12.653,-20.271c-2.585,-5.028 -4.878,-10.184 -6.733,-15.526c-0.648,-1.865 -1.07,-3.811 -1.568,-5.728c-0.105,-0.408 -0.085,-0.848 0.146,-1.408c0.36,0.437 0.762,0.846 1.072,1.315c3.211,4.842 6.792,9.407 10.73,13.655c4.543,4.903 9.173,9.744 14.034,14.322c4.967,4.684 10.306,8.97 15.397,13.526c3.649,3.265 7.283,6.572 10.702,10.075c5.436,5.564 10.409,11.523 14.94,17.876c6.96,9.757 12.848,20.105 17.851,30.975c1.759,3.824 3.432,7.689 5.144,11.532l0,0l0,0Z" style="fill:#d2b195;"/><path id="path79" d="M794.569,328.505c1.35,-1.464 2.563,-2.767 3.745,-4.099c0.633,-0.713 1.145,-1.516 1.115,-2.52c-0.027,-0.884 0.453,-1.345 1.191,-1.686c1.527,-0.704 3.061,-1.4 4.55,-2.183c1.134,-0.597 2.199,-1.33 3.305,-1.989c0.466,-0.278 0.933,-0.574 1.439,-0.758c0.823,-0.3 1.309,-0.056 1.643,0.765c0.15,0.366 0.235,0.758 0.303,1.147c0.801,4.582 1.568,9.172 2.388,13.748c1.643,9.156 3.014,18.37 5.694,27.305c0.936,3.124 2.039,6.212 3.285,9.227c2.321,5.625 4.805,11.179 7.217,16.769c0.171,0.398 0.289,0.822 0.246,1.39c-0.227,-0.183 -0.514,-0.327 -0.669,-0.562c-2.419,-3.618 -4.844,-7.24 -7.215,-10.89c-2.074,-3.195 -4.045,-6.46 -6.136,-9.645c-1.68,-2.562 -3.821,-4.655 -6.594,-6.065c-0.603,-0.308 -1.14,-0.783 -1.635,-1.255c-0.849,-0.809 -1.216,-1.852 -0.904,-2.983c0.394,-1.425 0.883,-2.828 1.425,-4.205c0.453,-1.148 1.104,-2.22 1.55,-3.371c0.351,-0.913 0.66,-1.883 0.744,-2.848c0.112,-1.279 -0.911,-2.012 -2.04,-1.409c-1.297,0.692 -2.458,1.641 -3.662,2.503c-0.722,0.517 -1.375,1.138 -2.122,1.61c-1.266,0.801 -1.965,0.626 -2.64,-0.697c-0.856,-1.675 -1.602,-3.405 -2.42,-5.098c-0.539,-1.113 -1.065,-2.238 -1.696,-3.298c-0.937,-1.571 -2.241,-2.504 -4.199,-2.016c-0.048,0.013 -0.097,0.014 -0.147,0.018c-0.688,0.039 -1.442,0.194 -1.898,-0.5c-0.449,-0.681 -0.117,-1.364 0.253,-1.948c0.474,-0.749 1.005,-1.472 1.592,-2.133c0.721,-0.813 1.525,-1.554 2.293,-2.326l0,-0l-0,-0Z" style="fill:#d2b195;"/><path id="path80" d="M919.233,302.792c-0.337,0.161 -0.471,0.23 -0.61,0.278c-3.025,1.068 -4.195,0.59 -5.934,-2.115c-4.047,-6.298 -7.693,-12.821 -11.05,-19.504c-1.912,-3.803 -3.68,-7.679 -5.524,-11.515c-1.206,-2.511 -1.227,-4.784 2.076,-7.37c0.847,-0.662 1.828,-1.17 2.799,-1.644c0.992,-0.485 1.949,-0.255 2.734,0.509c0.423,0.41 0.84,0.854 1.147,1.352c1.671,2.689 3.305,5.402 4.953,8.108c1.57,2.579 3.12,5.171 4.712,7.734c1.884,3.029 3.851,6.002 5.69,9.056c1.043,1.734 1.969,3.546 2.836,5.376c1.607,3.396 0.44,7.72 -3.31,9.45c-0.178,0.082 -0.346,0.189 -0.519,0.287l-0,0Z" style="fill:#d2b195;"/><path id="path81" d="M834.601,291.434c-0.474,-1.058 -0.831,-1.93 -1.234,-2.777c-0.762,-1.6 -1.545,-1.748 -2.831,-0.555c-1.559,1.447 -3.041,2.984 -4.684,4.327c-3.619,2.961 -7.755,4.079 -12.459,3.648c-7.721,-0.713 -15.238,-2.399 -22.733,-4.256c-2.109,-0.525 -3.261,-1.926 -3.836,-3.922c-0.427,-1.477 -0.269,-2.963 0.059,-4.413c0.581,-2.57 1.364,-5.059 3.261,-7.049c1.077,-1.131 2.402,-1.728 3.863,-2.074c1.059,-0.251 2.134,-0.476 3.215,-0.578c6.526,-0.606 13.042,-0.753 19.504,0.653c4.181,0.908 8.176,2.367 12.05,4.156c2.515,1.163 5.062,2.287 7.459,3.664c1.739,1.002 3.371,2.267 4.848,3.635c2.611,2.424 5.089,4.994 7.575,7.547c0.965,0.99 1.852,2.065 2.683,3.169c0.631,0.84 1.166,1.828 0.555,2.886c-0.626,1.079 -1.759,1.286 -2.87,1.124c-1.265,-0.182 -2.556,-0.421 -3.74,-0.885c-3.341,-1.313 -6.464,-3.027 -8.863,-5.792c-0.674,-0.778 -1.218,-1.668 -1.823,-2.508l-0,0l0,-0Z" style="fill:#d2b195;"/><path id="path82" d="M870.488,293.023c-4.491,-7.893 -9.084,-15.48 -12.88,-23.505c-0.637,-1.341 -1.254,-2.693 -1.857,-4.051c-0.579,-1.3 -0.715,-2.631 -0.471,-4.061c0.205,-1.207 0.168,-2.461 0.202,-3.696c0.009,-0.339 -0.064,-0.699 -0.189,-1.013c-0.398,-1.008 -1.347,-1.3 -2.133,-0.565c-0.524,0.49 -0.946,1.15 -1.245,1.81c-0.656,1.44 -1.173,2.943 -1.814,4.391c-0.399,0.902 -0.874,1.778 -1.398,2.613c-0.648,1.04 -1.648,1.388 -2.831,1.136c-0.578,-0.123 -1.175,-0.257 -1.702,-0.51c-2.608,-1.258 -5.396,-1.94 -8.165,-2.709c-5.007,-1.391 -9.98,-2.915 -15.004,-4.243c-4.015,-1.061 -8.08,-1.944 -12.134,-2.849c-1.93,-0.432 -3.896,-0.701 -5.834,-1.099c-0.721,-0.148 -1.447,-0.378 -2.105,-0.701c-1.696,-0.837 -2.213,-2.449 -1.329,-4.106c0.419,-0.783 0.915,-1.536 1.45,-2.244c2.181,-2.89 4.52,-5.633 7.322,-7.96c1.785,-1.482 3.844,-2.288 6.102,-2.462c1.716,-0.13 3.471,-0.1 5.182,0.096c4.218,0.487 8.178,1.955 12.093,3.512c5.888,2.342 11.787,4.673 17.606,7.181c5.008,2.158 8.977,5.549 11.414,10.563c1.886,3.874 3.903,7.684 5.743,11.576c2.585,5.46 5.153,10.93 7.55,16.472c1.67,3.858 3.05,7.844 4.536,11.779c0.189,0.503 0.318,1.054 0.334,1.588c0.036,1.247 -0.689,1.737 -1.83,1.24c-1.199,-0.524 -2.223,-1.307 -2.943,-2.422c-1.234,-1.914 -2.447,-3.84 -3.669,-5.761l-0,-0l-0,-0Z" style="fill:#d2b195;"/><path id="path83" d="M830.06,216.854c1.496,-1.666 2.713,-3.343 4.265,-4.609c5.296,-4.32 11.207,-5.048 17.569,-2.645c4.342,1.639 8.339,3.904 12.083,6.605c4.334,3.129 8.645,6.289 12.863,9.569c3.671,2.854 7.27,5.804 10.534,9.136c2.977,3.039 5.517,6.367 6.904,10.434c0.637,1.869 1.09,3.803 1.563,5.723c0.137,0.564 0.073,1.181 0.071,1.773c-0.004,0.799 -0.325,1.462 -1.015,1.873c-1.443,0.861 -2.872,1.757 -4.37,2.506c-1.247,0.624 -2.126,0.321 -2.963,-0.822c-0.655,-0.895 -1.131,-1.885 -1.104,-3.018c0.032,-1.233 0.086,-2.472 0.25,-3.692c0.25,-1.867 -0.278,-2.388 -2.137,-1.898c-1.726,0.455 -3.448,0.86 -5.263,0.706c-2.124,-0.18 -4.061,-0.926 -5.868,-1.969c-5.954,-3.444 -11.877,-6.942 -17.808,-10.427c-5.716,-3.362 -11.426,-6.74 -17.489,-9.461c-1.85,-0.829 -3.728,-1.601 -5.588,-2.413c-0.862,-0.375 -1.741,-0.726 -2.558,-1.183c-1.539,-0.863 -2.042,-2.301 -1.33,-3.92c0.353,-0.804 0.92,-1.516 1.391,-2.269l0,-0Z" style="fill:#d2b195;"/><path id="path84" d="M1020.228,184.349c2.405,-2 4.598,-3.933 6.909,-5.716c4.174,-3.225 8.707,-5.865 13.642,-7.745c3.564,-1.361 7.211,-2.558 11.125,-2.13c1.056,0.116 2.154,0.387 3.101,0.856c2.116,1.049 2.803,2.859 2.055,5.106c-0.681,2.05 -1.84,3.813 -3.378,5.348c-2.681,2.668 -5.676,4.939 -8.787,7.061c-5.654,3.86 -10.935,8.144 -15.828,12.953c-6.566,6.451 -12.178,13.652 -17.517,21.106c-1.814,2.527 -3.766,4.978 -5.862,7.275c-1.978,2.171 -4.44,3.64 -7.554,3.564c-2.19,-0.054 -3.342,-0.869 -3.798,-3.013c-0.228,-1.079 -0.218,-2.269 -0.039,-3.364c0.642,-3.888 2.071,-7.524 3.788,-11.055c3.394,-6.965 7.317,-13.591 12.226,-19.617c3.066,-3.765 6.376,-7.304 9.917,-10.63l0,-0l0,0Z" style="fill:#d2b195;"/><path id="path85" d="M944.709,407.01c-2.572,1.159 -5.041,1.939 -7.597,2.267c-2.442,0.315 -4.902,0.507 -7.39,0.369c-2.783,-0.157 -5.512,-0.504 -8.219,-1.156c-4.309,-1.043 -8.214,-2.95 -11.688,-5.644c-3.116,-2.411 -5.594,-5.448 -7.636,-8.832c-3.285,-5.442 -5.098,-11.353 -5.697,-17.658c-0.902,-9.478 1.022,-18.316 5.957,-26.477c2.752,-4.554 6.452,-8.151 11.121,-10.682c7.342,-3.976 14.246,-8.592 20.672,-13.913c3.162,-2.62 6.263,-5.324 9.275,-8.115c3.448,-3.196 6.887,-6.421 10.113,-9.837c4.52,-4.787 8.768,-9.819 12.579,-15.211c3.015,-4.259 5.769,-8.672 7.709,-13.516c1.785,-4.457 3.355,-9 4.919,-13.538c1.551,-4.5 3.111,-8.991 5.448,-13.158c0.607,-1.076 1.329,-2.089 2.052,-3.089c0.668,-0.919 1.592,-1.48 2.729,-1.646c0.732,-0.105 1.47,-0.244 2.209,-0.246c4.935,-0.023 9.792,-0.589 14.489,-2.121c2.157,-0.703 4.232,-1.668 6.338,-2.52c0.437,-0.175 0.857,-0.384 1.361,-0.61c0.257,0.819 -0.199,1.204 -0.501,1.61c-2.068,2.783 -4.222,5.504 -6.219,8.333c-5.933,8.401 -11.259,17.15 -14.663,26.921c-1.056,3.03 -1.936,6.148 -2.578,9.289c-0.449,2.203 -0.632,4.488 -0.324,6.794c0.356,2.64 0.53,5.306 0.69,7.97c0.083,1.457 -0.318,2.866 -1.056,4.124c-1.104,1.884 -2.89,2.786 -4.964,3.195c-2.087,0.41 -4.183,0.765 -6.264,1.211c-2.883,0.615 -5.554,1.789 -8.103,3.254c-0.53,0.305 -1.198,0.537 -1.246,1.357c0.552,0.574 1.201,0.362 1.814,0.259c1.759,-0.291 3.512,-0.615 5.272,-0.902c1.881,-0.31 3.75,-0.235 5.602,0.223c2.931,0.724 4.395,2.613 4.52,5.64c0.09,2.169 -0.266,4.268 -0.957,6.28c-1.223,3.555 -2.533,7.086 -3.936,10.575c-1.108,2.754 -2.405,5.431 -3.625,8.141c-0.164,0.362 -0.344,0.717 -0.536,1.061c-0.876,1.541 -1.506,1.712 -2.976,0.781c-0.876,-0.556 -1.73,-1.152 -2.597,-1.726c-0.334,-0.216 -0.658,-0.451 -1.015,-0.621c-0.97,-0.466 -1.454,-0.148 -1.329,0.897c0.061,0.535 0.26,1.052 0.398,1.578c0.482,1.864 1.011,3.719 1.435,5.595c0.539,2.373 0.144,4.758 -0.263,7.083c-1.307,7.429 -3.387,14.669 -5.827,21.793c-1.169,3.413 -2.446,6.819 -4.042,10.049c-2.857,5.785 -7.282,10.194 -12.894,13.388c-0.815,0.466 -1.705,0.793 -2.562,1.185l0,-0l-0,0Z" style="fill:#d2b195;"/><path id="path86" d="M880.187,536.46c-0.938,-5.041 -1.764,-9.972 -2.816,-14.856c-1.013,-4.693 -2.144,-9.368 -3.428,-13.994c-1.921,-6.929 -4.204,-13.743 -7.682,-20.082c-1.743,-3.18 -3.844,-6.139 -6.418,-8.693c-3.516,-3.483 -7.174,-6.824 -10.75,-10.247c-1.036,-0.992 -1.998,-2.062 -3.004,-3.089c-3.53,-3.612 -6.94,-7.329 -10.24,-11.16c-4.142,-4.81 -8.08,-9.773 -11.811,-14.897c-3.15,-4.322 -6.277,-8.676 -9.132,-13.194c-3.571,-5.649 -6.899,-11.453 -10.243,-17.241c-4.09,-7.079 -8.205,-14.139 -13.003,-20.769c-3.106,-4.291 -6.315,-8.51 -9.461,-12.773c-3.53,-4.784 -7.06,-9.567 -10.032,-14.728c-2.661,-4.62 -4.108,-9.63 -4.698,-14.915c-0.296,-2.654 -0.697,-5.297 -1.02,-7.946c-0.233,-1.917 -0.317,-3.853 -0.645,-5.752c-0.516,-2.97 -1.161,-5.922 -1.787,-8.874c-0.852,-4.02 -1.929,-8.005 -2.537,-12.057c-0.377,-2.515 -0.284,-5.155 -0.017,-7.702c0.648,-6.161 3.242,-11.581 6.867,-16.545c1.901,-2.601 3.86,-5.158 6.225,-7.361c0.997,-0.927 1.424,-2.003 1.269,-3.319c-0.385,-3.285 0.002,-6.523 0.606,-9.737c0.925,-4.914 2.521,-9.594 5.345,-13.752c1.694,-2.495 3.426,-5.01 5.473,-7.204c2.838,-3.048 6.174,-5.563 9.815,-7.634c3.5,-1.991 7.145,-3.655 11.035,-4.73c1.115,-0.31 1.593,-1.01 1.796,-2.092c0.401,-2.139 0.844,-4.27 1.341,-6.387c0.895,-3.805 2.904,-7.061 5.333,-10.022c4.707,-5.726 10.841,-9.156 18.074,-10.628c1.495,-0.305 3.03,-0.453 4.554,-0.562c1.807,-0.128 2.219,-0.54 1.891,-2.303c-0.58,-3.114 -1.156,-6.232 -1.807,-9.33c-1.168,-5.574 -2.329,-11.151 -3.61,-16.7c-1.026,-4.439 -2.164,-8.854 -3.353,-13.252c-1.757,-6.501 -3.464,-13.024 -5.449,-19.458c-3.255,-10.554 -6.756,-21.031 -10.078,-31.563c-1.686,-5.337 -3.259,-10.707 -4.777,-16.094c-0.931,-3.307 -1.272,-6.717 -1.074,-10.156c0.234,-4.095 1.488,-7.839 4.557,-10.664c3.667,-3.373 7.928,-4.177 12.694,-2.485c3.107,1.102 5.731,2.888 8.144,5.058c3.678,3.309 6.576,7.226 9.198,11.403c3.829,6.104 7.035,12.521 9.881,19.121c3.057,7.094 6.116,14.191 8.981,21.364c2.24,5.61 4.209,11.328 6.25,17.016c1.687,4.709 3.328,9.435 4.948,14.167c1.218,3.562 2.385,7.142 3.555,10.72c1.388,4.236 2.809,8.463 4.118,12.723c2.429,7.907 4.843,15.819 7.151,23.758c1.27,4.375 2.247,8.835 3.478,13.221c1.177,4.197 2.586,8.333 4.443,12.286c2.208,4.705 4.388,9.428 6.815,14.025c2.843,5.381 5.859,10.684 8.956,15.928c2.039,3.448 4.331,6.753 6.548,10.094c1.805,2.724 3.637,5.429 5.517,8.101c2.765,3.928 5.522,7.873 8.768,11.424c2.46,2.693 5.294,4.959 8.658,6.414c4.819,2.087 9.237,1.443 13.227,-2.117c3.057,-2.727 5.192,-6.105 7.102,-9.637c3.26,-6.03 5.745,-12.402 7.864,-18.91c1.992,-6.123 3.894,-12.273 5.772,-18.432c1.91,-6.269 4.329,-12.332 7.118,-18.256c2.699,-5.736 5.319,-11.512 8.012,-17.248c2.618,-5.573 5.704,-10.865 9.368,-15.831c2.979,-4.035 6.193,-7.868 9.753,-11.381c5.224,-5.158 10.859,-9.844 17.082,-13.775c4.907,-3.1 9.962,-5.927 15.443,-7.909c4.777,-1.725 9.637,-3.093 14.774,-2.931c2.7,0.086 5.301,0.728 7.682,2.057c3.064,1.711 4.234,4.431 4.058,7.832c-0.111,2.169 -0.844,4.167 -1.76,6.1c-1.491,3.148 -3.435,6.032 -5.554,8.774c-3.025,3.919 -6.262,7.673 -9.316,11.569c-4.036,5.149 -8.016,10.358 -10.816,16.316c-1.092,2.319 -2.021,4.752 -2.684,7.224c-1.609,5.977 -2.977,12.02 -4.525,18.013c-0.842,3.259 -1.844,6.478 -2.791,9.708c-1.643,5.611 -3.362,11.199 -4.926,16.827c-1.356,4.868 -2.597,9.764 -3.78,14.672c-0.954,3.958 -1.329,7.998 -1.557,12.065c-0.421,7.463 0.598,14.813 1.463,22.181c0.414,3.539 0.961,7.07 1.154,10.623c0.109,2.042 -0.13,4.181 -0.64,6.166c-1.083,4.218 -2.494,8.353 -3.681,12.548c-1.443,5.096 -2.813,10.217 -4.186,15.334c-2.378,8.859 -3.915,17.895 -5.708,26.879c-1.791,8.981 -3.635,17.952 -5.387,26.942c-1.561,8.021 -3.104,16.046 -4.509,24.092c-0.742,4.241 -1.136,8.545 -1.047,12.86c0.08,4.06 0.428,8.108 1.106,12.116c1.002,5.906 1.964,11.822 3.12,17.701c0.965,4.905 2.08,9.787 3.31,14.633c2.247,8.829 4.48,17.669 7.001,26.421c2.727,9.471 5.756,18.853 8.69,28.264c1.666,5.342 3.394,10.664 5.123,15.987c0.878,2.708 1.001,5.445 0.457,8.215c-0.275,1.407 -0.564,2.818 -0.992,4.181c-1.445,4.609 -4.912,7.438 -8.845,9.806c-0.972,0.583 -2.03,1.036 -3.064,1.513c-2.055,0.949 -4.197,1.348 -6.482,1.347c-36.267,-0.029 -72.534,0.02 -108.798,-0.062c-5.945,-0.012 -10.581,-2.906 -13.936,-7.796c-1.725,-2.515 -2.535,-5.306 -2.713,-8.365c-0.169,-2.911 -0.642,-5.804 -0.954,-8.706c-0.369,-3.444 -0.665,-6.897 -1.072,-10.334c-0.754,-6.344 -1.568,-12.682 -2.367,-19.149m64.523,-129.449c0.856,-0.392 1.746,-0.722 2.56,-1.186c5.613,-3.193 10.037,-7.604 12.896,-13.388c1.595,-3.228 2.872,-6.635 4.042,-10.049c2.44,-7.126 4.52,-14.364 5.825,-21.791c0.408,-2.324 0.803,-4.711 0.266,-7.083c-0.426,-1.876 -0.954,-3.731 -1.438,-5.595c-0.137,-0.526 -0.335,-1.043 -0.398,-1.579c-0.125,-1.047 0.36,-1.364 1.331,-0.897c0.355,0.169 0.681,0.403 1.013,0.621c0.867,0.574 1.721,1.168 2.599,1.727c1.47,0.931 2.099,0.76 2.975,-0.781c0.194,-0.344 0.373,-0.699 0.535,-1.061c1.22,-2.711 2.519,-5.387 3.626,-8.142c1.404,-3.487 2.713,-7.019 3.935,-10.575c0.69,-2.01 1.047,-4.111 0.958,-6.278c-0.125,-3.027 -1.587,-4.916 -4.522,-5.64c-1.851,-0.46 -3.721,-0.533 -5.602,-0.223c-1.757,0.287 -3.51,0.61 -5.269,0.903c-0.615,0.103 -1.263,0.314 -1.814,-0.259c0.048,-0.82 0.715,-1.052 1.245,-1.357c2.547,-1.466 5.219,-2.638 8.101,-3.253c2.082,-0.446 4.179,-0.801 6.266,-1.211c2.074,-0.41 3.86,-1.311 4.964,-3.195c0.738,-1.257 1.14,-2.667 1.054,-4.124c-0.161,-2.663 -0.332,-5.33 -0.688,-7.969c-0.31,-2.308 -0.127,-4.591 0.323,-6.794c0.642,-3.141 1.521,-6.261 2.577,-9.291c3.403,-9.769 8.731,-18.518 14.663,-26.919c1.998,-2.829 4.151,-5.551 6.22,-8.333c0.303,-0.407 0.756,-0.792 0.499,-1.611c-0.503,0.225 -0.924,0.435 -1.361,0.608c-2.106,0.854 -4.179,1.819 -6.336,2.522c-4.698,1.532 -9.557,2.098 -14.49,2.121c-0.738,0.002 -1.477,0.141 -2.21,0.244c-1.134,0.168 -2.06,0.73 -2.727,1.648c-0.724,1.001 -1.447,2.014 -2.051,3.087c-2.338,4.168 -3.897,8.66 -5.449,13.16c-1.564,4.536 -3.134,9.081 -4.918,13.538c-1.941,4.844 -4.696,9.257 -7.709,13.515c-3.812,5.394 -8.058,10.425 -12.58,15.213c-3.227,3.416 -6.665,6.641 -10.113,9.837c-3.013,2.791 -6.113,5.495 -9.275,8.116c-6.426,5.319 -13.331,9.935 -20.672,13.912c-4.67,2.529 -8.369,6.127 -11.121,10.682c-4.935,8.16 -6.86,17 -5.957,26.475c0.599,6.309 2.411,12.218 5.697,17.658c2.042,3.385 4.52,6.421 7.636,8.834c3.475,2.693 7.379,4.602 11.688,5.643c2.708,0.653 5.437,0.999 8.219,1.156c2.488,0.139 4.948,-0.053 7.39,-0.369c2.556,-0.326 5.026,-1.106 7.598,-2.265m-11.269,57.909c-1.712,-3.846 -3.385,-7.711 -5.144,-11.533c-5.003,-10.87 -10.891,-21.218 -17.851,-30.976c-4.53,-6.353 -9.503,-12.311 -14.94,-17.876c-3.419,-3.503 -7.053,-6.808 -10.702,-10.078c-5.09,-4.552 -10.429,-8.842 -15.396,-13.524c-4.86,-4.58 -9.491,-9.418 -14.034,-14.323c-3.938,-4.245 -7.52,-8.813 -10.73,-13.654c-0.31,-0.469 -0.712,-0.879 -1.072,-1.315c-0.232,0.56 -0.252,1.001 -0.146,1.407c0.498,1.917 0.92,3.862 1.568,5.729c1.855,5.338 4.149,10.497 6.733,15.527c3.653,7.11 7.894,13.852 12.653,20.269c6.972,9.398 14.663,18.193 22.518,26.847c3.494,3.851 6.994,7.691 10.42,11.601c5.745,6.553 11.485,13.119 16.607,20.178c2.585,3.567 5.096,7.192 7.486,10.889c4.473,6.921 8.233,14.217 11.403,21.832c4.777,11.485 7.823,23.366 8.62,35.798c0.078,1.234 0.3,2.47 0.26,3.701c-0.084,2.568 -0.305,5.135 -0.451,7.704c-0.037,0.647 -0.005,1.302 -0.005,1.953c0.1,0.014 0.2,0.029 0.3,0.045c0.298,-0.828 0.633,-1.643 0.888,-2.483c1.127,-3.706 1.83,-7.495 2.251,-11.348c0.403,-3.71 0.457,-7.423 0.2,-11.128c-0.225,-3.255 -0.603,-6.508 -1.109,-9.732c-0.551,-3.519 -1.199,-7.033 -2.028,-10.495c-2.035,-8.495 -4.953,-16.711 -8.299,-25.017m-103.382,-248.065c-0.471,0.753 -1.038,1.464 -1.391,2.269c-0.712,1.62 -0.209,3.057 1.331,3.92c0.817,0.457 1.696,0.806 2.558,1.181c1.86,0.812 3.739,1.586 5.588,2.415c6.063,2.72 11.772,6.098 17.489,9.46c5.931,3.483 11.854,6.983 17.808,10.427c1.807,1.043 3.744,1.789 5.868,1.969c1.816,0.153 3.537,-0.252 5.264,-0.708c1.859,-0.489 2.387,0.032 2.137,1.898c-0.164,1.222 -0.218,2.461 -0.25,3.692c-0.027,1.133 0.449,2.123 1.104,3.02c0.837,1.143 1.716,1.447 2.963,0.822c1.498,-0.749 2.927,-1.645 4.37,-2.506c0.69,-0.41 1.011,-1.076 1.015,-1.873c0.002,-0.594 0.066,-1.211 -0.071,-1.773c-0.473,-1.921 -0.926,-3.854 -1.562,-5.725c-1.388,-4.067 -3.928,-7.393 -6.904,-10.434c-3.264,-3.33 -6.863,-6.28 -10.534,-9.134c-4.218,-3.28 -8.529,-6.441 -12.864,-9.569c-3.744,-2.7 -7.741,-4.967 -12.082,-6.606c-6.362,-2.403 -12.273,-1.675 -17.569,2.645c-1.552,1.267 -2.768,2.944 -4.265,4.61m190.166,-32.506c-3.539,3.326 -6.849,6.865 -9.917,10.63c-4.907,6.025 -8.833,12.651 -12.225,19.616c-1.718,3.532 -3.146,7.168 -3.787,11.057c-0.182,1.095 -0.191,2.283 0.037,3.362c0.455,2.146 1.607,2.961 3.799,3.014c3.112,0.077 5.574,-1.393 7.554,-3.564c2.096,-2.297 4.049,-4.748 5.861,-7.275c5.34,-7.454 10.952,-14.655 17.517,-21.107c4.894,-4.809 10.176,-9.093 15.83,-12.953c3.109,-2.123 6.105,-4.393 8.784,-7.061c1.539,-1.534 2.697,-3.298 3.378,-5.347c0.749,-2.247 0.061,-4.058 -2.053,-5.107c-0.947,-0.469 -2.048,-0.74 -3.104,-0.856c-3.912,-0.428 -7.559,0.769 -11.125,2.13c-4.934,1.88 -9.468,4.52 -13.641,7.745c-2.31,1.784 -4.504,3.717 -6.91,5.717m-149.738,108.673c1.222,1.923 2.435,3.849 3.669,5.761c0.721,1.117 1.744,1.898 2.943,2.424c1.142,0.498 1.866,0.007 1.83,-1.24c-0.016,-0.535 -0.144,-1.084 -0.334,-1.587c-1.486,-3.935 -2.866,-7.921 -4.536,-11.781c-2.397,-5.54 -4.966,-11.01 -7.55,-16.472c-1.841,-3.89 -3.858,-7.7 -5.743,-11.576c-2.436,-5.012 -6.405,-8.403 -11.414,-10.561c-5.82,-2.508 -11.719,-4.841 -17.606,-7.181c-3.915,-1.557 -7.875,-3.027 -12.093,-3.512c-1.711,-0.196 -3.466,-0.228 -5.181,-0.096c-2.258,0.171 -4.316,0.979 -6.102,2.461c-2.802,2.328 -5.14,5.071 -7.322,7.96c-0.535,0.708 -1.031,1.461 -1.45,2.242c-0.885,1.659 -0.367,3.271 1.329,4.108c0.658,0.323 1.384,0.553 2.105,0.699c1.939,0.4 3.904,0.669 5.834,1.101c4.054,0.904 8.119,1.787 12.134,2.848c5.025,1.329 9.997,2.852 15.004,4.243c2.77,0.769 5.558,1.452 8.166,2.708c0.526,0.255 1.124,0.389 1.702,0.512c1.183,0.252 2.183,-0.096 2.831,-1.138c0.524,-0.833 0.999,-1.711 1.398,-2.613c0.64,-1.447 1.158,-2.952 1.814,-4.39c0.3,-0.66 0.721,-1.32 1.245,-1.81c0.787,-0.735 1.735,-0.444 2.133,0.564c0.125,0.314 0.198,0.676 0.189,1.015c-0.034,1.232 0.004,2.488 -0.202,3.694c-0.244,1.432 -0.109,2.763 0.471,4.063c0.603,1.357 1.22,2.708 1.857,4.051c3.796,8.025 8.388,15.612 12.88,23.503m-35.887,-1.589c0.605,0.84 1.149,1.73 1.823,2.51c2.399,2.765 5.522,4.479 8.863,5.791c1.184,0.464 2.476,0.703 3.74,0.885c1.111,0.161 2.244,-0.045 2.87,-1.124c0.612,-1.058 0.077,-2.046 -0.555,-2.888c-0.831,-1.102 -1.718,-2.178 -2.683,-3.168c-2.486,-2.552 -4.964,-5.123 -7.575,-7.547c-1.477,-1.368 -3.109,-2.633 -4.848,-3.637c-2.397,-1.375 -4.944,-2.499 -7.459,-3.664c-3.874,-1.787 -7.869,-3.248 -12.05,-4.156c-6.462,-1.404 -12.978,-1.259 -19.504,-0.653c-1.081,0.103 -2.156,0.328 -3.215,0.58c-1.461,0.346 -2.786,0.944 -3.863,2.074c-1.897,1.991 -2.68,4.479 -3.261,7.049c-0.328,1.45 -0.486,2.934 -0.059,4.413c0.575,1.996 1.727,3.398 3.836,3.922c7.496,1.857 15.012,3.542 22.733,4.256c4.703,0.43 8.84,-0.687 12.459,-3.648c1.643,-1.345 3.125,-2.881 4.684,-4.327c1.286,-1.193 2.069,-1.045 2.831,0.555c0.403,0.847 0.76,1.719 1.234,2.775m-40.031,37.071c-0.768,0.772 -1.573,1.513 -2.293,2.328c-0.587,0.66 -1.118,1.382 -1.592,2.131c-0.37,0.583 -0.702,1.266 -0.253,1.95c0.456,0.694 1.21,0.539 1.898,0.499c0.05,-0.005 0.1,-0.005 0.147,-0.018c1.958,-0.491 3.262,0.444 4.199,2.016c0.631,1.059 1.158,2.183 1.696,3.298c0.819,1.691 1.564,3.421 2.42,5.098c0.674,1.323 1.373,1.498 2.64,0.696c0.747,-0.473 1.4,-1.093 2.123,-1.611c1.204,-0.86 2.365,-1.809 3.662,-2.501c1.129,-0.603 2.153,0.128 2.04,1.409c-0.084,0.963 -0.392,1.935 -0.744,2.848c-0.446,1.15 -1.097,2.221 -1.55,3.371c-0.542,1.377 -1.031,2.779 -1.425,4.206c-0.312,1.129 0.055,2.171 0.904,2.979c0.496,0.473 1.033,0.951 1.636,1.257c2.774,1.409 4.914,3.505 6.594,6.064c2.09,3.184 4.061,6.448 6.136,9.646c2.37,3.651 4.796,7.27 7.215,10.891c0.155,0.234 0.442,0.376 0.669,0.562c0.043,-0.569 -0.075,-0.993 -0.246,-1.391c-2.411,-5.59 -4.896,-11.146 -7.217,-16.768c-1.247,-3.014 -2.349,-6.105 -3.285,-9.227c-2.679,-8.936 -4.051,-18.152 -5.693,-27.308c-0.82,-4.575 -1.587,-9.166 -2.388,-13.747c-0.068,-0.389 -0.153,-0.781 -0.303,-1.147c-0.334,-0.82 -0.82,-1.065 -1.643,-0.765c-0.507,0.184 -0.974,0.48 -1.439,0.758c-1.106,0.658 -2.171,1.391 -3.305,1.989c-1.489,0.783 -3.023,1.479 -4.55,2.183c-0.738,0.341 -1.218,0.801 -1.191,1.686c0.03,1.004 -0.482,1.807 -1.115,2.52c-1.183,1.332 -2.395,2.634 -3.745,4.097m124.663,-25.711c0.173,-0.098 0.341,-0.205 0.519,-0.287c3.751,-1.73 4.918,-6.054 3.31,-9.45c-0.867,-1.83 -1.793,-3.642 -2.836,-5.378c-1.839,-3.052 -3.806,-6.025 -5.69,-9.054c-1.593,-2.565 -3.143,-5.155 -4.712,-7.734c-1.648,-2.708 -3.282,-5.419 -4.953,-8.108c-0.307,-0.498 -0.724,-0.942 -1.147,-1.352c-0.785,-0.765 -1.743,-0.995 -2.734,-0.508c-0.97,0.474 -1.951,0.983 -2.799,1.643c-3.303,2.586 -3.282,4.86 -2.076,7.372c1.844,3.837 3.612,7.711 5.524,11.515c3.357,6.682 7.003,13.206 11.05,19.504c1.739,2.704 2.909,3.184 5.934,2.115c0.139,-0.048 0.273,-0.118 0.61,-0.278l0,0Z" style="fill:#080605;fill-rule:nonzero;"/><path id="path87" d="M834.442,126.213c-1.852,-4.991 -5.996,-9.315 -0.713,-11.219c5.691,-2.051 7.656,-2.405 13.011,-1.851c5.57,0.577 7.502,3.93 9.254,7.75c2.85,6.214 2.605,6.421 4.575,14.117c0.785,3.066 0.207,8.526 -10.293,10.507c-3.696,0.697 -8.472,3.824 -10.745,-4.743c-1.361,-5.128 -4.312,-12.467 -5.089,-14.561l0,0Z" style="fill:#d4b095;"/><path id="path88" d="M854.211,194.087c-1.738,-3.643 -2.645,-7.278 -4.542,-13.796c-0.611,-2.099 -1.299,-4.508 -2.103,-7.334c-3.934,-13.826 -5.957,-18.189 -0.766,-19.554c2.868,-0.754 13.754,6.059 16.55,8.609c5.713,5.212 9.582,8.378 14.258,22.689c3.915,11.983 3.501,11.811 7.174,23.541c6.656,21.258 -6.152,9.427 -8.805,7.342c-2.957,-2.323 -13.122,-8.685 -16.563,-12.447c-1.984,-2.168 2.388,-11.501 0.804,-11.29c-1.829,0.244 -5.668,2.948 -6.006,2.24l0,-0Z" style="fill:#d4b095;"/><path id="path89" d="M819.366,93.283c-1.852,-4.991 -3.679,-8.82 -1.52,-14.004c2.32,-5.57 8.972,-4.884 13.787,-2.086c5.041,2.929 6.906,7.338 9.842,12.1c2.204,3.575 5.76,9.528 6.77,12.973c1.562,5.328 -1.059,6.351 -9.193,8.229c-3.665,0.846 -9.223,0.946 -12.129,-3.598c-2.9,-4.536 -6.78,-11.519 -7.557,-13.614l-0,0Z" style="fill:#d4b095;"/></g></g><defs><linearGradient id="_Linear2" x1="0" y1="0" x2="1" y2="0" gradientUnits="userSpaceOnUse" gradientTransform="matrix(0,-623.471174,623.471174,0,621.846371,647.071701)"><stop offset="0" style="stop-color:#b0c37c;stop-opacity:1"/><stop offset="1" style="stop-color:#fff;stop-opacity:1"/></linearGradient></defs></svg>