<?xml version="1.0" encoding="UTF-8" standalone="no"?><!DOCTYPE svg PUBLIC "-//W3C//DTD SVG 1.1//EN" "http://www.w3.org/Graphics/SVG/1.1/DTD/svg11.dtd"><svg width="100%" height="100%" viewBox="0 0 1244 671" version="1.1" xmlns="http://www.w3.org/2000/svg" xmlns:xlink="http://www.w3.org/1999/xlink" xml:space="preserve" xmlns:serif="http://www.serif.com/" style="fill-rule:evenodd;clip-rule:evenodd;stroke-linecap:round;stroke-linejoin:round;stroke-miterlimit:1.5;"><clipPath id="_clip1"><rect x="0" y="-0" width="1243.85" height="670.833"/></clipPath><g clip-path="url(#_clip1)"><path id="U1-muscle" d="M1129.829,23.601c49.877,-0 90.309,39.877 90.309,89.068l0,445.335c0,49.191 -40.432,89.068 -90.309,89.068l-1015.965,0c-49.877,0 -90.309,-39.877 -90.309,-89.068l0,-445.335c0,-49.191 40.432,-89.068 90.309,-89.068l1015.965,-0Z" style="fill:#81d7ff;stroke:#000;stroke-width:47.26px;"/><g><g><path d="M675.319,111.123l0,447.908l-60.884,0l0,-360.343l-45.286,26.459l0,-82.526l44.28,-31.498l61.891,0Z" style="fill-rule:nonzero;stroke:#000;stroke-width:62.71px;stroke-linecap:butt;stroke-miterlimit:2;"/></g></g><g><g><path d="M675.319,111.123l0,447.908l-60.884,0l0,-360.343l-45.286,26.459l0,-82.526l44.28,-31.498l61.891,0Z" style="fill:#b3b3b3;fill-rule:nonzero;"/></g></g></g></svg>