<?xml version="1.0" encoding="UTF-8" standalone="no"?><!DOCTYPE svg PUBLIC "-//W3C//DTD SVG 1.1//EN" "http://www.w3.org/Graphics/SVG/1.1/DTD/svg11.dtd"><svg width="100%" height="100%" viewBox="0 0 1244 671" version="1.1" xmlns="http://www.w3.org/2000/svg" xmlns:xlink="http://www.w3.org/1999/xlink" xml:space="preserve" xmlns:serif="http://www.serif.com/" style="fill-rule:evenodd;clip-rule:evenodd;stroke-linecap:round;stroke-linejoin:round;stroke-miterlimit:1.5;"><clipPath id="_clip1"><rect x="0" y="0" width="1243.85" height="670.833"/></clipPath><g clip-path="url(#_clip1)"><path id="U1-muscle" d="M1129.829,23.601c49.877,-0 90.309,39.877 90.309,89.068l0,445.335c0,49.191 -40.432,89.068 -90.309,89.068l-1015.965,0c-49.877,0 -90.309,-39.877 -90.309,-89.068l0,-445.335c0,-49.191 40.432,-89.068 90.309,-89.068l1015.965,0Z" style="fill:#81d7ff;stroke:#000;stroke-width:47.26px;"/><g><g><path d="M622.562,563.441c-17.611,0 -32.706,-3.78 -45.789,-11.969c-12.579,-8.19 -22.643,-19.529 -29.184,-34.648c-6.541,-15.119 -10.064,-33.388 -10.064,-54.807l0,-27.089l61.388,0l0,25.829c0,8.82 2.013,15.749 6.038,20.159c4.025,4.41 10.064,6.93 17.108,6.93c7.044,0 12.579,-2.52 16.605,-7.56c4.025,-5.04 6.038,-12.599 6.038,-21.419l0,-63.627c0,-10.08 -2.013,-18.269 -6.038,-23.309c-4.025,-5.67 -9.56,-8.19 -17.108,-8.19l-19.624,0l0,-74.966l19.624,0c5.535,0 9.56,-2.52 12.579,-7.56c3.019,-5.04 4.529,-11.969 4.529,-20.789l0,-55.437c0,-6.93 -1.51,-12.599 -4.529,-16.379c-3.019,-3.78 -7.044,-5.67 -12.076,-5.67c-5.535,0 -10.064,1.89 -13.083,6.3c-3.019,3.78 -5.032,9.45 -5.032,17.009l0,30.239l-61.388,0l0,-30.239c0,-31.498 7.044,-55.437 21.133,-72.447c14.089,-17.009 33.713,-25.829 58.872,-25.829c24.656,0 43.273,8.82 56.859,25.829c13.586,17.009 20.127,41.578 20.127,72.447l0,59.847c0,11.339 -3.019,22.679 -9.057,32.758c-6.038,10.709 -14.592,19.529 -25.159,27.719c12.579,5.04 22.643,13.229 29.687,25.199c7.044,11.339 10.567,25.199 10.567,40.948l0,68.037c0,33.388 -7.548,59.217 -22.14,76.856c-14.592,18.269 -35.222,27.089 -61.388,27.089l0.503,-1.26l0,0Z" style="fill-rule:nonzero;stroke:#000;stroke-width:62.71px;stroke-linecap:butt;stroke-miterlimit:2;"/></g></g><g><g><path d="M622.562,563.441c-17.611,0 -32.706,-3.78 -45.789,-11.969c-12.579,-8.19 -22.643,-19.529 -29.184,-34.648c-6.541,-15.119 -10.064,-33.388 -10.064,-54.807l0,-27.089l61.388,0l0,25.829c0,8.82 2.013,15.749 6.038,20.159c4.025,4.41 10.064,6.93 17.108,6.93c7.044,0 12.579,-2.52 16.605,-7.56c4.025,-5.04 6.038,-12.599 6.038,-21.419l0,-63.627c0,-10.08 -2.013,-18.269 -6.038,-23.309c-4.025,-5.67 -9.56,-8.19 -17.108,-8.19l-19.624,0l0,-74.966l19.624,0c5.535,0 9.56,-2.52 12.579,-7.56c3.019,-5.04 4.529,-11.969 4.529,-20.789l0,-55.437c0,-6.93 -1.51,-12.599 -4.529,-16.379c-3.019,-3.78 -7.044,-5.67 -12.076,-5.67c-5.535,0 -10.064,1.89 -13.083,6.3c-3.019,3.78 -5.032,9.45 -5.032,17.009l0,30.239l-61.388,0l0,-30.239c0,-31.498 7.044,-55.437 21.133,-72.447c14.089,-17.009 33.713,-25.829 58.872,-25.829c24.656,0 43.273,8.82 56.859,25.829c13.586,17.009 20.127,41.578 20.127,72.447l0,59.847c0,11.339 -3.019,22.679 -9.057,32.758c-6.038,10.709 -14.592,19.529 -25.159,27.719c12.579,5.04 22.643,13.229 29.687,25.199c7.044,11.339 10.567,25.199 10.567,40.948l0,68.037c0,33.388 -7.548,59.217 -22.14,76.856c-14.592,18.269 -35.222,27.089 -61.388,27.089l0.503,-1.26l0,0Z" style="fill:#b3b3b3;fill-rule:nonzero;"/></g></g></g></svg>