<?xml version="1.0" encoding="UTF-8" standalone="no"?><!DOCTYPE svg PUBLIC "-//W3C//DTD SVG 1.1//EN" "http://www.w3.org/Graphics/SVG/1.1/DTD/svg11.dtd"><svg width="100%" height="100%" viewBox="0 0 1244 671" version="1.1" xmlns="http://www.w3.org/2000/svg" xmlns:xlink="http://www.w3.org/1999/xlink" xml:space="preserve" xmlns:serif="http://www.serif.com/" style="fill-rule:evenodd;clip-rule:evenodd;stroke-linecap:round;stroke-linejoin:round;stroke-miterlimit:1.5;"><clipPath id="_clip1"><rect x="-0" y="0" width="1243.848" height="670.833"/></clipPath><g clip-path="url(#_clip1)"><path id="U1-muscle" d="M1129.829,23.601c49.877,0 90.309,39.877 90.309,89.068l0,445.335c0,49.191 -40.432,89.068 -90.309,89.068l-1015.965,0c-49.877,0 -90.309,-39.877 -90.309,-89.068l0,-445.335c0,-49.191 40.432,-89.068 90.309,-89.068l1015.965,0Z" style="fill:#fff;stroke:#000;stroke-width:47.26px;"/><g><g><path d="M540.234,561.27l0,-69.927l71.954,-156.862c11.07,-23.939 19.121,-44.728 24.152,-63.627c5.032,-18.899 7.548,-34.648 7.548,-48.508l0,-5.67c0,-10.709 -1.51,-18.899 -5.032,-23.939c-3.522,-5.04 -8.554,-7.56 -15.598,-7.56c-8.051,0 -14.089,3.15 -17.611,10.08c-3.522,6.3 -5.535,17.009 -5.535,30.869l0,15.749l-61.891,0l0,-15.749c0,-39.058 7.044,-68.037 20.63,-86.936c14.089,-18.899 34.719,-28.349 62.897,-28.349c28.178,0 49.311,8.82 62.897,26.459c14.089,17.639 20.63,44.728 20.63,80.636l0,5.67c0,16.379 -3.019,35.278 -8.554,56.697c-5.535,21.419 -14.592,45.988 -26.165,73.076l-56.859,133.554l91.075,0l0,74.966l-165.042,0l0.503,-0.63Z" style="fill-rule:nonzero;stroke:#000;stroke-width:62.71px;stroke-linecap:butt;stroke-miterlimit:2;"/></g></g><g><g><path d="M540.234,561.27l0,-69.927l71.954,-156.862c11.07,-23.939 19.121,-44.728 24.152,-63.627c5.032,-18.899 7.548,-34.648 7.548,-48.508l0,-5.67c0,-10.709 -1.51,-18.899 -5.032,-23.939c-3.522,-5.04 -8.554,-7.56 -15.598,-7.56c-8.051,0 -14.089,3.15 -17.611,10.08c-3.522,6.3 -5.535,17.009 -5.535,30.869l0,15.749l-61.891,0l0,-15.749c0,-39.058 7.044,-68.037 20.63,-86.936c14.089,-18.899 34.719,-28.349 62.897,-28.349c28.178,0 49.311,8.82 62.897,26.459c14.089,17.639 20.63,44.728 20.63,80.636l0,5.67c0,16.379 -3.019,35.278 -8.554,56.697c-5.535,21.419 -14.592,45.988 -26.165,73.076l-56.859,133.554l91.075,0l0,74.966l-165.042,0l0.503,-0.63Z" style="fill:#b3b3b3;fill-rule:nonzero;"/></g></g></g></svg>