<?xml version="1.0" encoding="UTF-8" standalone="no"?><!DOCTYPE svg PUBLIC "-//W3C//DTD SVG 1.1//EN" "http://www.w3.org/Graphics/SVG/1.1/DTD/svg11.dtd"><svg width="100%" height="100%" viewBox="0 0 278267 150075" version="1.1" xmlns="http://www.w3.org/2000/svg" xmlns:xlink="http://www.w3.org/1999/xlink" xml:space="preserve" xmlns:serif="http://www.serif.com/" style="fill-rule:evenodd;clip-rule:evenodd;stroke-linecap:round;stroke-linejoin:round;stroke-miterlimit:1.5;"><path id="U1-muscle" d="M252758.9,5279.775c11158.175,0 20203.5,8921 20203.5,19925.825l0,99627.758c0,11004.817 -9045.325,19925.825 -20203.5,19925.825l-227285.967,0c-11158.175,0 -20203.5,-8921 -20203.5,-19925.825l0,-99627.758c0,-11004.817 9045.325,-19925.825 20203.5,-19925.825l227285.967,0Z" style="fill:#81d7ff;stroke:#000;stroke-width:10573.25px;"/><g><g><path d="M120857.968,125564.133l0,-15643.588l16097.186,-35092.372c2476.49,-5355.462 4277.574,-10006.259 5403.251,-14234.255c1125.677,-4227.997 1688.516,-7751.327 1688.516,-10851.858l0,-1268.399c0,-2395.865 -337.703,-4227.997 -1125.677,-5355.462c-787.974,-1127.466 -1913.651,-1691.199 -3489.6,-1691.199c-1801.084,0 -3151.897,704.666 -3939.871,2254.932c-787.974,1409.332 -1238.245,3805.197 -1238.245,6905.728l0,3523.331l-13845.831,0l0,-3523.331c0,-8737.86 1575.948,-15220.788 4615.277,-19448.785c3151.897,-4227.997 7767.174,-6341.995 14070.967,-6341.995c6303.793,0 11031.638,1973.065 14070.967,5919.195c3151.897,3946.13 4615.277,10006.259 4615.277,18039.452l0,1268.399c0,3664.264 -675.406,7892.26 -1913.651,12683.99c-1238.245,4791.73 -3264.464,10288.125 -5853.522,16348.254l-12720.154,29877.843l20374.76,0l0,16771.053l-36922.217,0l112.568,-140.933Z" style="fill-rule:nonzero;stroke:#000;stroke-width:14029.56px;stroke-linecap:butt;stroke-miterlimit:2;"/></g></g><g><g><path d="M120857.968,125564.133l0,-15643.588l16097.186,-35092.372c2476.49,-5355.462 4277.574,-10006.259 5403.251,-14234.255c1125.677,-4227.997 1688.516,-7751.327 1688.516,-10851.858l0,-1268.399c0,-2395.865 -337.703,-4227.997 -1125.677,-5355.462c-787.974,-1127.466 -1913.651,-1691.199 -3489.6,-1691.199c-1801.084,0 -3151.897,704.666 -3939.871,2254.932c-787.974,1409.332 -1238.245,3805.197 -1238.245,6905.728l0,3523.331l-13845.831,0l0,-3523.331c0,-8737.86 1575.948,-15220.788 4615.277,-19448.785c3151.897,-4227.997 7767.174,-6341.995 14070.967,-6341.995c6303.793,0 11031.638,1973.065 14070.967,5919.195c3151.897,3946.13 4615.277,10006.259 4615.277,18039.452l0,1268.399c0,3664.264 -675.406,7892.26 -1913.651,12683.99c-1238.245,4791.73 -3264.464,10288.125 -5853.522,16348.254l-12720.154,29877.843l20374.76,0l0,16771.053l-36922.217,0l112.568,-140.933Z" style="fill:#b3b3b3;fill-rule:nonzero;"/></g></g></svg>