<?xml version="1.0" encoding="UTF-8" standalone="no"?><!DOCTYPE svg PUBLIC "-//W3C//DTD SVG 1.1//EN" "http://www.w3.org/Graphics/SVG/1.1/DTD/svg11.dtd"><svg width="100%" height="100%" viewBox="0 0 278267 150075" version="1.1" xmlns="http://www.w3.org/2000/svg" xmlns:xlink="http://www.w3.org/1999/xlink" xml:space="preserve" xmlns:serif="http://www.serif.com/" style="fill-rule:evenodd;clip-rule:evenodd;stroke-linecap:round;stroke-linejoin:round;stroke-miterlimit:1.5;"><path id="U1-muscle" d="M252758.9,5279.775c11158.175,0 20203.5,8921 20203.5,19925.825l0,99627.758c0,11004.817 -9045.325,19925.825 -20203.5,19925.825l-227285.967,0c-11158.175,0 -20203.5,-8921 -20203.5,-19925.825l0,-99627.758c0,-11004.817 9045.325,-19925.825 20203.5,-19925.825l227285.967,0Z" style="fill:#81d7ff;stroke:#000;stroke-width:10573.25px;"/><g><g><path d="M139275.965,126049.796c-3939.871,0 -7316.903,-845.599 -10243.664,-2677.731c-2814.193,-1832.132 -5065.548,-4368.93 -6528.929,-7751.327c-1463.381,-3382.397 -2251.355,-7469.461 -2251.355,-12261.19l0,-6060.129l13733.263,0l0,5778.262c0,1973.065 450.271,3523.331 1350.813,4509.863c900.542,986.533 2251.355,1550.265 3827.303,1550.265c1575.948,0 2814.193,-563.733 3714.735,-1691.199c900.542,-1127.466 1350.813,-2818.664 1350.813,-4791.73l0,-14234.255c0,-2254.932 -450.271,-4087.063 -1350.813,-5214.529c-900.542,-1268.399 -2138.787,-1832.132 -3827.303,-1832.132l-4390.142,0l0,-16771.053l4390.142,0c1238.245,0 2138.787,-563.733 2814.193,-1691.199c675.406,-1127.466 1013.11,-2677.731 1013.11,-4650.796l0,-12402.124c0,-1550.265 -337.703,-2818.664 -1013.11,-3664.264c-675.406,-845.599 -1575.948,-1268.399 -2701.626,-1268.399c-1238.245,0 -2251.355,422.8 -2926.761,1409.332c-675.406,845.599 -1125.677,2113.998 -1125.677,3805.197l0,6764.795l-13733.263,0l0,-6764.795c0,-7046.661 1575.948,-12402.124 4727.845,-16207.321c3151.897,-3805.197 7542.038,-5778.262 13170.425,-5778.262c5515.819,0 9680.825,1973.065 12720.154,5778.262c3039.329,3805.197 4502.709,9301.593 4502.709,16207.321l0,13388.656c0,2536.798 -675.406,5073.596 -2026.219,7328.528c-1350.813,2395.865 -3264.464,4368.93 -5628.387,6201.062c2814.193,1127.466 5065.548,2959.598 6641.496,5637.329c1575.948,2536.798 2363.922,5637.329 2363.922,9160.659l0,15220.788c0,7469.461 -1688.516,13247.723 -4952.98,17193.853c-3264.464,4087.063 -7879.741,6060.129 -13733.263,6060.129l112.568,-281.866Z" style="fill-rule:nonzero;stroke:#000;stroke-width:14029.56px;stroke-linecap:butt;stroke-miterlimit:2;"/></g></g><g><g><path d="M139275.965,126049.796c-3939.871,0 -7316.903,-845.599 -10243.664,-2677.731c-2814.193,-1832.132 -5065.548,-4368.93 -6528.929,-7751.327c-1463.381,-3382.397 -2251.355,-7469.461 -2251.355,-12261.19l0,-6060.129l13733.263,0l0,5778.262c0,1973.065 450.271,3523.331 1350.813,4509.863c900.542,986.533 2251.355,1550.265 3827.303,1550.265c1575.948,0 2814.193,-563.733 3714.735,-1691.199c900.542,-1127.466 1350.813,-2818.664 1350.813,-4791.73l0,-14234.255c0,-2254.932 -450.271,-4087.063 -1350.813,-5214.529c-900.542,-1268.399 -2138.787,-1832.132 -3827.303,-1832.132l-4390.142,0l0,-16771.053l4390.142,0c1238.245,0 2138.787,-563.733 2814.193,-1691.199c675.406,-1127.466 1013.11,-2677.731 1013.11,-4650.796l0,-12402.124c0,-1550.265 -337.703,-2818.664 -1013.11,-3664.264c-675.406,-845.599 -1575.948,-1268.399 -2701.626,-1268.399c-1238.245,0 -2251.355,422.8 -2926.761,1409.332c-675.406,845.599 -1125.677,2113.998 -1125.677,3805.197l0,6764.795l-13733.263,0l0,-6764.795c0,-7046.661 1575.948,-12402.124 4727.845,-16207.321c3151.897,-3805.197 7542.038,-5778.262 13170.425,-5778.262c5515.819,0 9680.825,1973.065 12720.154,5778.262c3039.329,3805.197 4502.709,9301.593 4502.709,16207.321l0,13388.656c0,2536.798 -675.406,5073.596 -2026.219,7328.528c-1350.813,2395.865 -3264.464,4368.93 -5628.387,6201.062c2814.193,1127.466 5065.548,2959.598 6641.496,5637.329c1575.948,2536.798 2363.922,5637.329 2363.922,9160.659l0,15220.788c0,7469.461 -1688.516,13247.723 -4952.98,17193.853c-3264.464,4087.063 -7879.741,6060.129 -13733.263,6060.129l112.568,-281.866Z" style="fill:#b3b3b3;fill-rule:nonzero;"/></g></g></svg>