<?xml version="1.0" encoding="UTF-8" standalone="no"?><!DOCTYPE svg PUBLIC "-//W3C//DTD SVG 1.1//EN" "http://www.w3.org/Graphics/SVG/1.1/DTD/svg11.dtd"><svg width="100%" height="100%" viewBox="0 0 33392 18009" version="1.1" xmlns="http://www.w3.org/2000/svg" xmlns:xlink="http://www.w3.org/1999/xlink" xml:space="preserve" xmlns:serif="http://www.serif.com/" style="fill-rule:evenodd;clip-rule:evenodd;stroke-linecap:round;stroke-linejoin:round;stroke-miterlimit:1.5;"><path id="U1-muscle" d="M30331.068,633.573c1338.981,0 2424.42,1070.52 2424.42,2391.099l0,11955.331c0,1320.578 -1085.439,2391.099 -2424.42,2391.099l-27274.316,0c-1338.981,0 -2424.42,-1070.52 -2424.42,-2391.099l0,-11955.331c0,-1320.578 1085.439,-2391.099 2424.42,-2391.099l27274.316,0Z" style="fill:#fff;stroke:#000;stroke-width:1268.79px;"/><g transform="matrix(0.798731,0,0,1,117.211139,0)"><g transform="matrix(16911.986679,0,0,16911.986679,17564.562139,15007.591625)"><path d="M0.19,0.007c-0.035,0 -0.065,-0.006 -0.091,-0.019c-0.025,-0.013 -0.045,-0.031 -0.058,-0.055c-0.013,-0.024 -0.02,-0.053 -0.02,-0.087l0,-0.043l0.122,0l0,0.041c0,0.014 0.004,0.025 0.012,0.032c0.008,0.007 0.02,0.011 0.034,0.011c0.014,0 0.025,-0.004 0.033,-0.012c0.008,-0.008 0.012,-0.02 0.012,-0.034l0,-0.101c0,-0.016 -0.004,-0.029 -0.012,-0.037c-0.008,-0.009 -0.019,-0.013 -0.034,-0.013l-0.039,0l0,-0.119l0.039,0c0.011,0 0.019,-0.004 0.025,-0.012c0.006,-0.008 0.009,-0.019 0.009,-0.033l0,-0.088c0,-0.011 -0.003,-0.02 -0.009,-0.026c-0.006,-0.006 -0.014,-0.009 -0.024,-0.009c-0.011,0 -0.02,0.003 -0.026,0.01c-0.006,0.006 -0.01,0.015 -0.01,0.027l0,0.048l-0.122,0l0,-0.048c0,-0.05 0.014,-0.088 0.042,-0.115c0.028,-0.027 0.067,-0.041 0.117,-0.041c0.049,0 0.086,0.014 0.113,0.041c0.027,0.027 0.04,0.066 0.04,0.115l0,0.095c0,0.018 -0.006,0.036 -0.018,0.052c-0.012,0.017 -0.029,0.031 -0.05,0.044c0.025,0.008 0.045,0.021 0.059,0.04c0.014,0.018 0.021,0.04 0.021,0.065l0,0.108c0,0.053 -0.015,0.094 -0.044,0.122c-0.029,0.029 -0.07,0.043 -0.122,0.043Z" style="fill-rule:nonzero;stroke:#000;stroke-width:0.11px;stroke-linecap:butt;stroke-miterlimit:2;"/></g><g transform="matrix(16911.986679,0,0,16911.986679,24278.158413,15007.591625)"></g></g><g transform="matrix(0.798731,0,0,1,117.211139,0)"><g transform="matrix(16911.986679,0,0,16911.986679,17564.562139,15007.591625)"><path d="M0.19,0.007c-0.035,0 -0.065,-0.006 -0.091,-0.019c-0.025,-0.013 -0.045,-0.031 -0.058,-0.055c-0.013,-0.024 -0.02,-0.053 -0.02,-0.087l0,-0.043l0.122,0l0,0.041c0,0.014 0.004,0.025 0.012,0.032c0.008,0.007 0.02,0.011 0.034,0.011c0.014,0 0.025,-0.004 0.033,-0.012c0.008,-0.008 0.012,-0.02 0.012,-0.034l0,-0.101c0,-0.016 -0.004,-0.029 -0.012,-0.037c-0.008,-0.009 -0.019,-0.013 -0.034,-0.013l-0.039,0l0,-0.119l0.039,0c0.011,0 0.019,-0.004 0.025,-0.012c0.006,-0.008 0.009,-0.019 0.009,-0.033l0,-0.088c0,-0.011 -0.003,-0.02 -0.009,-0.026c-0.006,-0.006 -0.014,-0.009 -0.024,-0.009c-0.011,0 -0.02,0.003 -0.026,0.01c-0.006,0.006 -0.01,0.015 -0.01,0.027l0,0.048l-0.122,0l0,-0.048c0,-0.05 0.014,-0.088 0.042,-0.115c0.028,-0.027 0.067,-0.041 0.117,-0.041c0.049,0 0.086,0.014 0.113,0.041c0.027,0.027 0.04,0.066 0.04,0.115l0,0.095c0,0.018 -0.006,0.036 -0.018,0.052c-0.012,0.017 -0.029,0.031 -0.05,0.044c0.025,0.008 0.045,0.021 0.059,0.04c0.014,0.018 0.021,0.04 0.021,0.065l0,0.108c0,0.053 -0.015,0.094 -0.044,0.122c-0.029,0.029 -0.07,0.043 -0.122,0.043Z" style="fill:#b3b3b3;fill-rule:nonzero;"/></g><g transform="matrix(16911.986679,0,0,16911.986679,24278.158413,15007.591625)"></g></g></svg>