<?xml version="1.0" encoding="UTF-8" standalone="no"?><!DOCTYPE svg PUBLIC "-//W3C//DTD SVG 1.1//EN" "http://www.w3.org/Graphics/SVG/1.1/DTD/svg11.dtd"><svg width="100%" height="100%" viewBox="0 0 33392 18009" version="1.1" xmlns="http://www.w3.org/2000/svg" xmlns:xlink="http://www.w3.org/1999/xlink" xml:space="preserve" xmlns:serif="http://www.serif.com/" style="fill-rule:evenodd;clip-rule:evenodd;stroke-linecap:round;stroke-linejoin:round;stroke-miterlimit:1.5;"><path id="U1-muscle" d="M30331.068,633.573c1338.981,0 2424.42,1070.52 2424.42,2391.099l0,11955.331c0,1320.578 -1085.439,2391.099 -2424.42,2391.099l-27274.316,0c-1338.981,0 -2424.42,-1070.52 -2424.42,-2391.099l0,-11955.331c0,-1320.578 1085.439,-2391.099 2424.42,-2391.099l27274.316,0Z" style="fill:#fff;stroke:#000;stroke-width:1268.79px;"/><g transform="matrix(0.798731,0,0,1,85.627179,0)"><g transform="matrix(16911.986679,0,0,16911.986679,17407.638081,15067.695985)"><path d="M0.038,-0l0,-0.111l0.143,-0.249c0.022,-0.038 0.038,-0.071 0.048,-0.101c0.01,-0.03 0.015,-0.055 0.015,-0.077l0,-0.009c0,-0.017 -0.003,-0.03 -0.01,-0.038c-0.007,-0.008 -0.017,-0.012 -0.031,-0.012c-0.016,0 -0.028,0.005 -0.035,0.016c-0.007,0.01 -0.011,0.027 -0.011,0.049l0,0.025l-0.123,0l0,-0.025c0,-0.062 0.014,-0.108 0.041,-0.138c0.028,-0.03 0.069,-0.045 0.125,-0.045c0.056,0 0.098,0.014 0.125,0.042c0.028,0.028 0.041,0.071 0.041,0.128l0,0.009c0,0.026 -0.006,0.056 -0.017,0.09c-0.011,0.034 -0.029,0.073 -0.052,0.116l-0.113,0.212l0.181,0l0,0.119l-0.328,-0Z" style="fill-rule:nonzero;stroke:#000;stroke-width:0.11px;stroke-linecap:butt;stroke-miterlimit:2;"/></g><g transform="matrix(16911.986679,0,0,16911.986679,24179.038997,15067.695985)"></g></g><g transform="matrix(0.798731,0,0,1,85.627179,0)"><g transform="matrix(16911.986679,0,0,16911.986679,17407.638081,15067.695985)"><path d="M0.038,-0l0,-0.111l0.143,-0.249c0.022,-0.038 0.038,-0.071 0.048,-0.101c0.01,-0.03 0.015,-0.055 0.015,-0.077l0,-0.009c0,-0.017 -0.003,-0.03 -0.01,-0.038c-0.007,-0.008 -0.017,-0.012 -0.031,-0.012c-0.016,0 -0.028,0.005 -0.035,0.016c-0.007,0.01 -0.011,0.027 -0.011,0.049l0,0.025l-0.123,0l0,-0.025c0,-0.062 0.014,-0.108 0.041,-0.138c0.028,-0.03 0.069,-0.045 0.125,-0.045c0.056,0 0.098,0.014 0.125,0.042c0.028,0.028 0.041,0.071 0.041,0.128l0,0.009c0,0.026 -0.006,0.056 -0.017,0.09c-0.011,0.034 -0.029,0.073 -0.052,0.116l-0.113,0.212l0.181,0l0,0.119l-0.328,-0Z" style="fill:#b3b3b3;fill-rule:nonzero;"/></g><g transform="matrix(16911.986679,0,0,16911.986679,24179.038997,15067.695985)"></g></g></svg>