<?xml version="1.0" encoding="UTF-8" standalone="no"?><!DOCTYPE svg PUBLIC "-//W3C//DTD SVG 1.1//EN" "http://www.w3.org/Graphics/SVG/1.1/DTD/svg11.dtd"><svg width="100%" height="100%" viewBox="0 0 33392 18009" version="1.1" xmlns="http://www.w3.org/2000/svg" xmlns:xlink="http://www.w3.org/1999/xlink" xml:space="preserve" xmlns:serif="http://www.serif.com/" style="fill-rule:evenodd;clip-rule:evenodd;stroke-linecap:round;stroke-linejoin:round;stroke-miterlimit:1.5;"><path id="U1-muscle" d="M30331.068,633.573c1338.981,0 2424.42,1070.52 2424.42,2391.099l0,11955.331c0,1320.578 -1085.439,2391.099 -2424.42,2391.099l-27274.316,0c-1338.981,0 -2424.42,-1070.52 -2424.42,-2391.099l0,-11955.331c0,-1320.578 1085.439,-2391.099 2424.42,-2391.099l27274.316,0Z" style="fill:#fff;stroke:#000;stroke-width:1268.79px;"/><g transform="matrix(0.798731,0,0,1,304.391954,0)"><g transform="matrix(16911.986679,0,0,16911.986679,18494.56501,15007.591625)"><path d="M0.226,-0.71l0,0.71l-0.121,-0l0,-0.572l-0.09,0.042l0,-0.131l0.088,-0.05l0.123,0Z" style="fill-rule:nonzero;stroke:#000;stroke-width:0.11px;stroke-linecap:butt;stroke-miterlimit:2;"/></g><g transform="matrix(16911.986679,0,0,16911.986679,23044.616113,15007.591625)"></g></g><g transform="matrix(0.798731,0,0,1,304.391954,0)"><g transform="matrix(16911.986679,0,0,16911.986679,18494.56501,15007.591625)"><path d="M0.226,-0.71l0,0.71l-0.121,-0l0,-0.572l-0.09,0.042l0,-0.131l0.088,-0.05l0.123,0Z" style="fill:#b3b3b3;fill-rule:nonzero;"/></g><g transform="matrix(16911.986679,0,0,16911.986679,23044.616113,15007.591625)"></g></g></svg>