<?xml version="1.0" encoding="UTF-8" standalone="no"?><!DOCTYPE svg PUBLIC "-//W3C//DTD SVG 1.1//EN" "http://www.w3.org/Graphics/SVG/1.1/DTD/svg11.dtd"><svg width="100%" height="100%" viewBox="0 0 278267 150075" version="1.1" xmlns="http://www.w3.org/2000/svg" xmlns:xlink="http://www.w3.org/1999/xlink" xml:space="preserve" xmlns:serif="http://www.serif.com/" style="fill-rule:evenodd;clip-rule:evenodd;stroke-linecap:round;stroke-linejoin:round;stroke-miterlimit:1.5;"><path id="U1-muscle" d="M252758.9,5279.775c11158.175,0 20203.5,8921 20203.5,19925.825l0,99627.758c0,11004.817 -9045.325,19925.825 -20203.5,19925.825l-227285.967,0c-11158.175,0 -20203.5,-8921 -20203.5,-19925.825l0,-99627.758c0,-11004.817 9045.325,-19925.825 20203.5,-19925.825l227285.967,0Z" style="fill:#81d7ff;stroke:#000;stroke-width:10573.25px;"/><g><g><path d="M151078.427,24859.742l0,100203.521l-13620.696,0l0,-80613.803l-10131.096,5919.195l0,-18462.252l9905.961,-7046.661l13845.831,0Z" style="fill-rule:nonzero;stroke:#000;stroke-width:14029.56px;stroke-linecap:butt;stroke-miterlimit:2;"/></g></g><g><g><path d="M151078.427,24859.742l0,100203.521l-13620.696,0l0,-80613.803l-10131.096,5919.195l0,-18462.252l9905.961,-7046.661l13845.831,0Z" style="fill:#b3b3b3;fill-rule:nonzero;"/></g></g></svg>