<?xml version="1.0" encoding="UTF-8" standalone="no"?><!DOCTYPE svg PUBLIC "-//W3C//DTD SVG 1.1//EN" "http://www.w3.org/Graphics/SVG/1.1/DTD/svg11.dtd"><svg width="100%" height="100%" viewBox="0 0 3567 2680" version="1.1" xmlns="http://www.w3.org/2000/svg" xmlns:xlink="http://www.w3.org/1999/xlink" xml:space="preserve" xmlns:serif="http://www.serif.com/" style="fill-rule:evenodd;clip-rule:evenodd;stroke-linejoin:round;stroke-miterlimit:2;"><g><path d="M1315.312,0l95.833,0c7.454,3.438 6.654,4.647 14.513,6.694c35.051,9.128 114.117,43.643 84.904,76.136c-89.714,99.789 -181.886,137.321 -151.699,138.539c104.429,4.214 108.698,-1.081 114.461,-8.228c18.385,-22.801 42.016,-104.952 44.733,-114.396c9.916,-34.471 6.145,14.174 53.972,77.683c47.508,63.085 194.66,145.193 106.83,110.592c-196.584,-77.444 -409.723,-23.955 -622.181,-50.766c-98.874,-12.478 -247.645,-53.986 -434.105,122.909c-185.506,175.99 -124.002,426.56 -118.268,462.825c7.921,50.099 27.618,101.847 29.022,76.261c0.253,-4.614 -38.548,-117.451 2.621,-253.247c17.368,-57.289 82.709,-152.191 73.112,-106.205c-3.142,15.054 -23.078,110.587 -15.961,191.567c4.28,48.703 8.293,-52.084 58.123,-156.851c6.403,-13.462 51.248,-107.749 117.989,-144.227c19.357,-10.58 -1.843,18.897 -2.797,20.223c-24.8,34.482 -80.375,146.777 -49.211,125.285c114.049,-78.657 143.861,-37.816 198.594,-81.142c10.158,-8.041 109.049,-102.024 303.744,-130.837c1.825,-0.27 37.031,-5.48 22.215,6.186c-7.044,5.547 -182.309,9.033 -288.528,185.69c-5.48,9.114 -47.913,92.566 2.942,32.494c158.698,-187.457 416.811,-189.547 454.955,-191.452c18.245,-0.911 10.126,8.166 9.156,8.377c-68.506,14.959 -156.168,4.421 -295.461,103.083c-59.959,42.469 -59.737,49.282 -54.193,51.532c0.957,0.388 29.344,0.938 30.545,3.231c5.36,10.237 -8.684,6.462 -148.51,113.218c-30.498,23.285 -52.799,37.933 -35.067,36.904c9.614,-0.558 47.887,-32.668 186.501,-73.653c7.718,-2.282 117.517,-34.747 99.557,-14.429c-13.349,15.101 -28.036,-8.209 -217.12,127.811c-8.911,6.41 -1.92,11.258 2.959,10.221c145.191,-30.854 149.493,4.724 306.791,-30.738c313.794,-70.743 375.786,-17.611 400.736,-40.635c5.052,-4.662 9.832,-35.837 -7.881,-34.68c-40.714,2.661 -41.016,7.887 -96.269,-5.253c-186.772,-44.419 -237.498,-24.465 -204.725,-42.296c15.852,-8.624 269.325,29.388 329.885,7.89c2.51,-0.891 45.082,-16.003 18.265,-27.837c-104.365,-46.055 -106.192,-42.03 -277.131,-64.56c-93.593,-12.336 -197.52,-8.498 -165.046,-20.775c22.09,-8.351 273.086,-41.837 384.909,-0.888c1.451,0.531 93.403,29.486 18.747,-4.669c-139.139,-63.655 -300.89,-28.658 -281.521,-58.98c6.06,-9.488 110.054,-32.854 157.864,-30.575c101.791,4.853 205.328,38.57 203.853,83.093c-9.207,277.932 3.997,504.649 -8.802,541.038c-19.873,56.505 -69.671,94.364 -100.263,108.479c-12.161,5.611 -101.587,46.872 -141.575,89.342c-12.211,12.969 31.646,8.064 27.69,27.847c-2.407,12.039 -24.396,85.24 -1.011,70.165c122.443,-78.93 171.083,-191.395 190.311,-168.524c61.636,73.312 48.666,90.267 43.498,97.024c-40.212,52.57 -181.105,82.49 -264.656,256.18c-67.809,140.967 -94.531,172.739 54.759,526.843c4.178,9.91 12.703,4.43 9.013,-5.102c-102.111,-263.722 -148.017,-344.085 -31.841,-556.074c70.859,-129.299 200.958,-154.703 206.664,-144.55c11.179,19.892 -2.42,26.339 10.654,383.946c5.94,162.478 -2.683,167.165 -16.148,168.833c-31.702,3.926 -93.369,-25.715 -100.949,-29.358c-81.448,-39.149 100.479,117.348 125.259,111.649c2.466,-0.567 112.893,-60.485 147.464,-93.562c46.467,-44.458 51.187,-77.321 34.972,-60.603c-34.823,35.904 -31.165,41.927 -78.154,59.367c-68.736,25.513 -55.109,-25.618 -55.111,-60.417c-0.019,-467.923 -0.565,-471.928 7.668,-474.792c0.522,-0.182 101.179,17.184 156.019,97.74c59.554,87.479 144.623,192.613 88.752,377.112c-19.539,64.523 -110.464,258.869 -77.307,229.509c8.353,-7.397 2.952,-10.389 51.256,-129.707c41.568,-102.678 103.847,-249.366 24.249,-367.071c-111.092,-164.276 -107.39,-169.828 -217.563,-247.311c-3.186,-2.24 -45.488,-20.776 -28.881,-84.131c2.204,-8.408 35.715,-90.698 64.225,-60.911c98.771,103.194 179.741,200.799 166.292,151.286c-8.173,-30.088 -25.203,-74.654 -10.978,-75.108c1.303,-0.042 22.252,-0.71 13.01,-9.812c-41.135,-40.512 -177.156,-100.174 -227.549,-174.336c-18.023,-26.524 -8.992,-50.043 -15.108,-267.484c-0.749,-26.637 0.576,-260.585 15.138,-291.652c47.228,-100.759 290.379,-86.66 333.689,-48.124c33.296,29.625 -127.434,-3.221 -266.784,64.062c-0.779,0.376 -26.803,21.53 3.084,10.358c60.769,-22.717 86.42,-37.926 302.307,-29.477c11.521,0.451 34.42,1.347 143.546,12.882c42.388,4.48 -68.837,16.01 -110.121,21.851c-161.923,22.91 -274.213,24.215 -206.078,30.757c65.023,6.244 154.354,-31.194 431.746,27.19c30.39,6.396 53.468,7.821 49.608,16.197c-3.487,7.567 -35.22,-9.195 -222.479,-17.913c-70.819,-3.297 -306.333,-21.254 -420.812,14.52c-27.576,8.617 34.094,36.755 71.124,36.823c30.791,0.057 480.835,-32.85 210.724,-1.468c-128.753,14.958 -143.265,41.07 -210.532,33.015c-2.945,-0.353 -33.14,-3.969 -37.015,2.204c-3.795,6.047 -2.255,23.234 8.57,26.085c32.146,8.466 134.128,-19.803 435.588,54.259c92.524,22.731 117.222,-4.672 282.746,17.692c1.242,0.168 24.476,3.307 13.815,-7.38c-0.164,-0.164 -200.489,-52.996 -200.751,-53.326c-10.31,-12.984 52.028,-6.955 95.651,-2.654c28.697,2.829 119.8,29.469 80.643,8.959c-15.186,-7.954 -202.574,-60.026 -200.773,-73.554c0.849,-6.379 139.1,-27.344 205.208,21.615c83.335,61.716 -6.628,-35.511 -86.043,-91.689c-214.58,-151.796 -291.506,-136.03 -349.544,-154.263c-39.113,-12.287 31.609,-4.852 34.368,-4.562c118.072,12.413 247.685,34.259 410.523,163.957c9.423,7.505 53.351,58.571 39.595,26.885c-15.806,-36.41 -65.478,-88.453 -72.081,-95.372c-70.926,-74.312 -168.619,-111.481 -185.016,-117.72c-10.249,-3.899 -10.844,-12.753 -1.235,-10.808c236.16,47.821 246.279,129.653 287.292,133.919c169.232,17.603 199.603,90.434 187.571,51.516c-23.185,-74.99 -67.439,-117.835 -53.21,-119.409c0.557,-0.062 72.394,31.885 98.547,101.014c20.949,55.373 17.729,156.244 35.04,137.767c3.015,-3.218 -0.716,-107.079 -7.517,-148.295c-12.067,-73.127 62.591,83.166 69.396,101.199c52.927,140.267 8.348,173.863 21.388,190.55c12.228,15.648 29.328,-114.503 29.913,-128.705c6.426,-155.816 -18.927,-300.984 -248.052,-424.018c-99.922,-53.656 -210.538,-39.561 -228.945,-37.216c-233.53,29.756 -234.016,15.689 -469.392,15.844c-183.334,0.121 -283.859,93.66 -242.964,48.815c32.592,-35.741 126.621,-70.984 168.856,-174.414c30.749,-75.302 55.77,-145.406 318.602,-90.735c48.95,10.182 181.016,69.913 237.416,117.917c79.682,67.82 90.654,43.622 193.87,58.938c90.652,13.451 391.7,105.25 395.495,484.941c0.823,82.333 -14.335,91.64 29.169,126.582c152.928,122.83 195.482,258.408 203.88,285.165c63.021,200.788 28.48,218.194 63.691,301.204c5.182,12.217 45.344,106.899 47.789,158.848c0.15,3.19 -0.916,6.553 0.101,9.581c0.743,2.213 4.078,2.865 4.821,5.078l0,182.083c-3.026,7.355 -4.643,6.49 -6.003,14.589c-12.002,71.512 -72.591,176.779 -97.68,214.972c-147.573,224.653 -349.723,274.348 -520.873,356.595c-202.238,97.187 -289.093,280.398 -418.418,321.887c-35.934,11.528 -43.77,8.265 -47.026,9.482c-2.155,0.805 -2.737,4.062 -4.892,4.867l-43.125,-0c-2.248,-0.392 -2.613,-4.43 -4.862,-4.821c-41.259,-7.184 -116.624,18.203 -122.252,-36.048c-3.787,-36.504 -55.315,3.595 -65.246,-52.443c-3.646,-20.573 -3.105,-22.81 -22.193,-31.211c-23.951,-10.542 -5.592,-43.495 -25.932,-52.894c-59.518,-27.503 1.758,-73.878 -4.702,-93.063c-8.694,-25.818 -22.564,-31.199 12.627,-75.116c5.58,-6.964 68.58,-85.586 60.842,-93.492c-11.061,-11.303 -126.215,97.545 -127.786,57.929c-5.122,-129.162 5.34,-162.874 9.528,-176.37c37.172,-119.785 65.195,-107.767 108.956,-239.915c60.948,-184.05 139.028,-204.182 138.877,-230.452c-0.135,-23.441 -175.647,90.38 -226.998,282.581c-8.209,30.726 -20.275,194.701 -115.343,305.909c-4.22,4.937 -51.26,54.108 -64.669,38.267c-20.026,-23.659 12.654,-57.364 -117.816,-145.212c-75.295,-50.698 -78.491,-51.501 -93.158,-43.299c-110.541,61.824 -143.604,97.585 -153.832,108.647c-39.495,42.717 -17.583,113.004 -55.48,68.429c-128.777,-151.467 -72.585,-318.983 -167.333,-460.718c-79.709,-119.237 -119.049,-140.884 -133.027,-148.575c-3.194,-1.757 -53.379,-29.372 -45.033,-6.948c9.561,25.686 75.552,43.061 99.445,154.105c28.868,134.162 25.91,137.19 96.894,233.435c59.595,80.802 35.599,90.09 56.018,260.302c2.398,19.991 -11.565,6.227 -101.206,-24.156c-55.954,-18.965 53.701,88.963 57.173,115.273c2.033,15.405 -11.266,26.599 -3.002,37.152c49.915,63.736 -24.77,63.791 -26.757,87.293c-4.107,48.574 -34.112,28.915 -45.702,53.16c-3.959,8.281 12.702,50.311 -29.73,56.976c-15.131,2.377 -21.838,-0.423 -21.952,19.311c-0.015,2.644 -0.128,22.157 -20.743,25.724c-36.475,6.31 -36.719,3.454 -43.388,5.419c-2.204,0.65 -2.724,4.171 -4.929,4.821l-124.583,0c-33.31,-21.516 -45.516,-3.553 -134.23,-88.575c-135.682,-130.036 -139.475,-126.315 -370.089,-256.649c-114.286,-64.59 -389.736,-121.714 -562.038,-448.922c-23.686,-44.981 -18.312,-52.799 -33.331,-80.328l0,-110.208c0.34,-2.309 4.488,-2.763 4.828,-5.073c1.393,-9.466 -4.744,-9.79 8.904,-119.274c20.759,-166.536 78.04,-170.791 83.797,-278.191c17.248,-321.726 150.689,-400.439 269.023,-507.89c43.653,-39.639 -36.637,-181.398 108.078,-384.861c164.089,-230.702 422.314,-199.682 451.878,-211.165c42.938,-16.677 104.288,-116.155 345.594,-175.746c14.523,-3.587 14.207,-3.132 28.677,-5.466c7.972,-1.286 7.038,-2.997 14.533,-6.188Zm-150.774,1751.391c1.452,199.359 -52.808,311.333 22.9,430.433c19.505,30.684 -18.534,-5.472 -87.374,7.775c-87.95,16.923 -91.089,28.239 -113.913,10.302c-357.615,-281.054 -285.937,-353.175 -387.574,-540.686c-43.59,-80.42 -67.452,-106.42 -49.069,-111.64c85.352,-24.24 106.213,-9.067 221.986,-200.152c6.737,-11.12 149.337,-248.219 160.247,-246.938c24.146,2.835 -32.708,89.567 74.185,246.959c128.667,189.453 152.536,262.919 158.611,403.948Zm1281.681,452.926c-31.579,-0.902 -31.382,-0.783 -34.105,-0.974c-9.414,-0.659 -2.441,-11.489 -1.9,-12.328c86.118,-133.746 38.773,-216.207 37.171,-410.913c-2.227,-270.671 149.383,-386.646 203.731,-522.708c33.127,-82.933 7.984,-200.551 32.555,-160.964c125.446,202.111 154.365,400.128 361.908,451.546c47.53,11.775 -25.333,30.717 -71.084,146.354c-96.636,244.254 -53.591,284.956 -368.847,523.617c-46.993,35.575 -68.229,-7.205 -159.428,-13.631Zm-2072.51,-1198.302c-85.416,284.524 -133.432,340.016 34.293,479.032c27.772,23.018 148.952,113.955 165.541,179.939c8.012,31.871 -15.974,-10.81 -53.877,-47.562c-30.832,-29.896 -42.882,-47.145 -168.153,-118.233c-5.095,-2.891 -15.357,1.357 -2.937,11.35c4.464,3.591 111.716,75.591 204.003,184.041c74.545,87.6 82.059,205.611 58.386,200.344c-88.198,-19.624 -107.458,-102.404 -339.327,-212.578c-95.27,-45.268 -106.757,-78.576 -89.642,-309.372c17.381,-234.381 180.819,-395.251 127.095,-364.259c-9.071,5.233 -110.28,85.192 -167.058,201.827c-11.755,24.146 -21.367,-41.293 29.869,-109.483c33.676,-44.819 50.286,-50.81 163.888,-213.623c38.968,-55.848 50.388,-65.429 56.292,-47.111c33.536,104.038 37.628,104.494 121.984,174.448c23.036,19.103 -14.656,22.43 -83.381,134.135c-1.385,2.252 -28.401,46.163 -24.059,22.657c2.535,-13.723 53.874,-109.073 53.698,-109.81c-5.444,-22.795 -56.43,68.453 -59.91,68.728c-9.372,0.742 -5.265,-4.931 -12.232,-68.913c-4.77,-43.803 -4.463,-55.816 -14.474,-55.556Zm2812.948,112.688c-0.253,6.09 -0.03,76.381 -11.512,57.056c-4.048,-6.812 -12.166,-34.963 -46.343,-87.13c-40.471,-61.774 -50.274,-63.846 -38.348,-78.163c31.537,-37.861 37.495,-33.412 81.291,-115.7c11.064,-20.788 26.078,-52.403 32.158,-35.036c35.416,101.172 38.849,99.502 72.421,201.218c22.403,67.875 53.129,68.648 119.521,354.752c51.65,222.575 -45.848,251.838 -150.709,314.445c-135.234,80.742 -136.183,78.237 -267.595,164.203c-33.575,21.964 -29.687,-7.956 -30.06,-32.763c-1.56,-103.667 72.361,-162.174 217.188,-297.347c37.78,-35.261 46.322,-37.777 37.962,-41.295c-0.029,-0.012 -41.699,14.304 -130.139,107.364c-6.684,7.033 -87.517,99.938 -48.185,33.969c80.118,-134.378 122.697,-103.277 192.338,-239.242c25.879,-50.526 38.765,-85.231 27.313,-210.128c-1.074,-11.714 -31.513,-185.466 -40.067,-180.642c-7.408,4.178 -16.398,77.596 -17.236,84.44Zm-212.81,893.722c36.908,-10.587 119.072,-37.802 124.32,-39.718c123.379,-45.039 127.917,-57.027 162.989,-76.32c5.306,-2.919 12.247,3.605 2.282,10.8c-73.715,53.225 -165.028,93.351 -228.21,121.456c-253.652,112.831 -233.427,145.094 -465.761,329.6c-47.356,37.608 -149.6,82.254 -162.223,79.35c-11.207,-2.579 7.521,-12.044 8.61,-12.594c16.051,-8.112 95.14,-48.083 176.792,-138.871c93.505,-103.966 96.599,-100.645 206.388,-187.133c98.616,-77.686 83.792,-92.78 132.765,-134.897c56.951,-48.979 329.923,-152.665 367.296,-164.727c79.537,-25.67 74.273,-37.652 81.446,-38.27c8.065,-0.695 16.202,20.779 -77.623,64.904c-89.521,42.101 -374.112,167.138 -376.861,193.816c-0.965,9.364 20.979,0.845 47.79,-7.396Zm-1394.799,-1039.888c1.524,-0.122 19.047,-1.53 19.047,-1.53c23.998,-2.626 23.659,-2.371 47.939,-4.585c96.601,-8.81 123.668,-40.654 109.244,-15.617c-20.19,35.047 -50.864,55.582 -105.003,80.852c-226.897,105.904 -251.137,94.666 -296.382,90.079c-43.879,-4.448 -83.48,-31.148 -84.819,-32.863c-20.402,-26.119 20.97,17.467 166.474,2.493c14.093,-1.45 10.529,-10.203 4.219,-10.198c-9.568,0.008 -19.13,0.655 -28.698,0.607c-102.545,-0.505 -184.529,-39.31 -139.278,-50.658c237.126,-59.469 240.23,-51.648 307.257,-58.58Zm-47.135,-113.896c15.668,2.099 235.283,11.574 162.635,22.546c-26.966,4.073 -26.996,-2.194 -340.868,4.907c-132.519,2.998 -279.461,-26.309 -219.985,-38.25c18.82,-3.778 409.713,-98.326 570.11,-41.344c30.567,10.859 -34.233,38.713 -96.356,42.062c-12.613,0.68 -74.726,1.873 -75.548,3.431c-1.034,1.96 1.046,4.688 0.013,6.647Zm388.059,12.432c73.256,-12.171 198.091,-3.378 161.587,-19.228c-2.777,-1.206 -94.954,4.996 -153.488,-19.069c-2.646,-1.088 -52.306,-21.505 -18.679,-30.499c100.511,-26.882 220.721,-12.473 239.785,-10.188c35.165,4.215 336.009,55.061 335.612,68.034c-0.039,1.277 -28.489,28.866 -191.976,28.517c-150.621,-0.322 -321.972,-7.142 -349.954,-8.256c-15.237,-0.607 -22.899,6.355 -22.888,-9.311Zm239.781,211.315c0.828,2.059 -0.794,4.599 0.035,6.659c1.616,4.018 70.245,10.894 118.752,7.033c20.564,-1.637 92.75,-18.158 60.617,1.492c-129.589,79.245 -290.992,-29.831 -348.913,-58.808c-137.309,-68.693 -130.955,-99.132 -119.459,-95.016c139.688,50.01 168.173,22.879 325.693,62.171c143.855,35.883 153.145,34.068 148.963,45.814c-11.314,31.784 -170.632,30.753 -185.688,30.656Zm-1754.204,801.294c-53.53,-19.481 -87.607,-30.329 -128.589,-57.799c-60.497,-40.551 -65.293,-67.913 -48.81,-57.239c118.503,76.739 131.253,49.535 329.358,142.313c205.189,96.096 415.675,382.875 555.727,459.696c68.579,37.617 -97.309,-6.109 -266.183,-175c-224.533,-224.554 -223.718,-233.546 -441.502,-311.971Zm1995.311,-3.107c-15.67,135.154 -31.934,178.392 -179.62,230.972c-11.713,4.17 -48.898,26.731 -40.396,3.502c16.035,-43.815 19.234,-42.285 138.455,-216.712c62.074,-90.818 87.601,-135.595 85.228,-89.408c-1.846,35.93 -1.909,35.611 -3.667,71.647Zm-2352.162,-143.038c-1.061,-3.111 -13.263,-38.883 -13.263,-38.883c-3.817,-22.078 29.992,18.545 31.946,20.892c85.215,102.39 65.948,127.205 343.518,293.321c173.439,103.797 177.454,132.097 161.683,127.365c-161.932,-48.585 -272.675,-149.882 -292.595,-168.103c-165.973,-151.817 -200.271,-151.346 -231.288,-234.592Zm3014.944,390.169c-129.682,39.83 83.744,-68.719 138.171,-109.892c274.199,-207.433 272.246,-230.53 308.199,-333.469c2.282,-6.535 11.903,-5.322 8.001,9.293c-30.145,112.901 -33.14,116.303 -196.455,262.083c-163.046,145.54 -169.302,144.324 -257.916,171.985Zm-1861.136,-271.047c-3.258,-46.988 -1.413,-49.038 2.75,-48.645c6.395,0.604 89.397,178.071 107.398,210.441c27.223,48.955 106.779,98.538 74.54,91.345c-139.164,-31.049 -175.431,-84.317 -184.688,-253.14Zm1888.633,-679.966c4.209,53.892 1.687,57.218 -2.391,55.46c-11.764,-5.072 -37.878,-86.275 -247.287,-303.53c-35.468,-36.797 12.308,-4.053 13.176,-3.396c108.17,81.778 195.584,109.163 236.502,251.466Zm-2621.949,33.55c19.558,-84.739 81.267,-148.02 119.575,-185.345c13.433,-13.088 29.786,-29.021 195.226,-129.8c196.04,-119.419 -61.166,31.314 -209.156,206.477c-80.553,95.344 -122.737,194.614 -105.645,108.667Zm2530.562,43.105c0.705,15.861 4.146,19.335 -2.433,19.601c-12.921,0.522 -5.266,-10.217 -97.847,-128.668c-10.744,-13.747 -145.707,-186.422 -117.923,-183.462c0.502,0.053 102.669,79.609 117.522,97.729c44.151,53.863 72.487,92.297 100.682,194.8Zm-1533.325,100.473c11.819,78.63 17.052,77.091 38.706,153.435c8.923,31.461 -69.103,-31.859 -85.57,-81.315c-32.639,-98.023 44.506,-201.113 44.903,-168.281c0.507,41.897 -2.514,41.704 1.961,96.161Zm-1035.4,-757.121c1.084,-8.019 0.761,-16.186 1.845,-24.205c27.472,-203.312 251.663,-321.641 263.507,-314.358c1.272,0.782 5.228,4.218 -11.612,14.613c-178.451,110.155 -233.549,290.948 -241.545,366.938c-13.127,124.758 -12.215,-39.414 -12.195,-42.988Zm2741.309,-9.61c0.643,33.782 5.923,96.399 -6.82,85.536c-3.374,-2.876 -14.157,-248.183 -225.923,-396.996c-16.998,-11.945 -1.408,-13.317 -0.468,-12.893c2.891,1.306 77.072,50.618 99.633,71.935c94.697,89.479 118.217,147.881 133.578,252.418Zm-1814.574,-489.849c34.066,-21.9 85.071,-61.028 86.62,-37.315c1.135,17.371 -45.201,73.65 -49.974,79.447c-43.188,52.455 -135.009,111.666 -90.667,58.055c42.706,-51.633 -60.033,14.471 -69.26,13.443c-14.353,-1.599 62.269,-72.106 123.281,-113.63Zm818.721,-22.507c-8.93,-56.179 78.515,2.641 172.128,115.509c18.002,21.705 -37.706,-6.049 -40.668,-7.525c-39.429,-19.644 -6.162,15.848 -2.168,21.691c21.46,31.392 -66.997,-3.698 -129.293,-129.676Zm-1390.056,2107.159c-19.084,-2.882 -16.901,-7.54 -57.623,-40.021c-169.827,-135.457 -229.149,-124.344 -323.365,-170.97c-12.401,-6.137 -6.964,-13.284 -0.608,-11.504c215.289,60.29 213.756,64.577 247.997,86.089c43.153,27.111 126.892,115.072 133.599,136.406Zm2716.501,-674.755c0.028,1.127 5.603,54.588 -6.301,50.338c-24.436,-8.725 -124.832,-255.472 -106.935,-257.294c6.525,-0.664 5.485,2.477 40.692,47.13c62.612,79.409 62.014,92.248 72.544,159.826Zm-38.422,-253.844c0.162,3.441 1.99,42.36 -2.48,42.984c-24.412,3.409 2.973,-68.375 -122.429,-212.92c-8.925,-10.288 -82.022,-86.543 -49.966,-80.168c8.742,1.739 51.249,37.748 55.472,41.325c98.878,83.762 112.73,173.766 119.404,208.78Zm-2687.675,-216.23c-24.593,121.645 -78.716,172.792 -129.584,242.905c-30.616,42.2 -3.243,-20.427 -2.531,-22.054c38.612,-88.339 36.456,-89.07 93.288,-193.024c17.161,-31.39 46.593,-109.071 44.5,-75.253c-0.236,3.814 -0.42,3.513 -5.673,47.426Zm1417.928,321.463c1.597,64.825 -15.785,80.83 -75.557,122.618c-10.237,7.157 -13.422,-1.748 -11.042,-7.057c31.805,-70.948 53.843,-92.917 30.531,-206.604c-6.125,-29.87 26.5,8.807 28.047,10.641c23.935,28.375 27.487,73.611 28.02,80.401Zm-1653.716,-85.823c0.357,-1.12 11.521,-53.923 47.079,-105.168c4.377,-6.308 78.097,-99.978 84.032,-86.59c5.346,12.058 -141.762,271.584 -142.875,272.131c-14.251,7.002 8.813,-68.217 11.764,-80.373Zm1433.225,741.611c-9.719,35.562 -16.605,70.987 -26.131,66.666c-3.114,-1.412 -63.086,-49.469 -65.423,-53.02c-8.987,-13.656 70.343,-58.493 108.532,-98.917c26.418,-27.964 0.848,22.813 -16.977,85.272Zm-359.732,38.439c-27.456,-120.23 -51.983,-156.302 -25.885,-134.016c31.487,26.888 29.243,29.263 98.952,83.608c19.648,15.318 4.183,19.093 -16.372,33.671c-35.025,24.839 -46.607,48.351 -56.694,16.737Zm787.899,-2000.172c20.228,6.269 147.47,45.704 228.325,133.949c51.425,56.126 -105.543,-51.429 -161.897,-81.175c-82.864,-43.74 -160.647,-74.177 -118.586,-68.433c4.317,0.589 3.901,1.986 52.158,15.659Zm-1182.359,-4.797c26.5,-7.264 26.215,-7.265 52.343,-14.993c11.168,-3.303 13.87,5.66 5.264,8.849c-134.293,49.761 -213.879,110.817 -280.063,160.006c-39.558,29.4 -4.256,-29.976 50.794,-67.789c84.991,-58.379 107.906,-62.983 171.662,-86.072Zm948.521,172.968c-9.291,-3.617 -27.739,-10.799 -61.003,-108.673c-0.575,-1.691 -18.919,-55.667 5.817,-21.554c45.827,63.199 111.524,112.953 119.523,120.085c18.101,16.141 -60.695,10.188 -64.337,10.142Zm-546.616,1403.768c-149.08,-17.628 180.572,-98.022 123.518,-51.708c-59.515,48.312 -112.821,51.14 -123.518,51.708Zm1735.636,-640.785c3.536,4.446 48.046,55.009 27.724,53.293c-2.109,-0.178 -88.403,-50.162 -112.884,-78.195c-8.479,-9.71 -47.728,-67.749 -25.964,-56.162c60.24,32.071 103.197,73.432 111.124,81.065Zm-720.165,1436.151c-65.044,8.804 -68.748,2.334 -66.004,-2.181c5.2,-8.558 144.3,-21.319 263.312,-109.734c1.499,-1.113 28.579,-21.232 22.602,-5.821c-2.413,6.221 -85.452,73.996 -153.024,99.331c-32.825,12.307 -32.793,11.534 -66.886,18.406Zm-1296.118,-999.399c-20.251,-130.411 106.427,182.652 60.819,143.162c-53.434,-46.266 -53.136,-81.712 -60.819,-143.162Zm-1265.134,67.655c15.163,-76.291 18.733,-75.145 57.909,-142.684c65.829,-113.488 -48.378,195.312 -55.848,198.383c-11.543,4.745 -3.825,-39.109 -2.061,-55.699Zm2752.373,-315.848c-19.004,-24.107 -19.428,-23.456 -35.789,-49.701c-26.824,-43.029 -63.86,-127.968 -49.717,-127.388c3.7,0.152 99.795,165.243 125.547,204.628c86.056,131.614 -37.626,-24.491 -40.04,-27.538Zm-1134.769,538.102c11.858,0.994 85.232,3.748 37.908,40.352c-16.488,12.753 -61.443,27.504 -94.599,-4.96c-35.518,-34.776 38.562,-34.685 56.691,-35.392Zm176.93,-138.933c9.494,2.386 157.421,39.569 110.997,51.496c-16.664,4.281 -59.774,20.484 -96.008,-1.281c-11.692,-7.023 -64.508,-55.712 -14.989,-50.215Zm29.289,119.794c9.008,0.452 27.251,-1.329 71.976,11.471c41.229,11.8 -47.609,70.43 -90.372,28.564c-46.485,-45.509 8.121,-39.078 18.395,-40.035Zm-881.554,735.738l-0.772,3.699c-11.753,0.556 -156.052,-5.395 -279.051,-112.693c-0.685,-0.598 -32.833,-30.866 1.822,-11.216c54.287,30.782 55.627,59.218 277.162,116.348c5.566,1.435 0.749,3.449 0.839,3.862Zm1292.317,-849.156c6.132,-6.463 4.352,-8.124 50.279,-50.35c46.72,-42.956 6.097,57.817 -52.42,96.696c-76.421,50.776 -0.194,-43.46 2.141,-46.346Zm-82.568,29.403c-2.588,11.856 -5.948,57.43 -46.085,100.547c-1.086,1.167 -29.482,31.672 -19.93,0.135c40.136,-132.509 55.397,-132.058 63.993,-124.842c3.767,3.162 2.182,22.227 2.022,24.16Zm-955.392,-67.375c67.521,70.119 54.552,84.497 47.065,83.009c-0.315,-0.063 -43.245,-26.909 -47.238,-30.257c-45.963,-38.544 -49.782,-95.324 -25.399,-74.784c2.065,1.74 1.855,1.822 25.572,22.032Zm1579.725,612.949c43.022,-35.546 41.433,-37.797 91.361,-62.552c59.071,-29.288 -34.381,63.214 -128.892,106.43c-40.502,18.52 14.315,-24.646 37.531,-43.878Zm-1472.705,-516.788c-2.286,-24.595 -4.979,-46.733 -2.737,-52.634c6.188,-16.294 29.899,-4.683 51.38,124.766c0.889,5.358 -5.614,8.766 -11.085,3.176c-24.621,-25.157 -35.876,-68.789 -37.557,-75.308Zm539.664,-126.222c-28.591,-11.212 -42.05,-16.05 -61.134,-60.879c-12.493,-29.346 56.2,2.038 75.478,33.824c22.45,37.017 -7.873,27.678 -14.344,27.055Zm332.694,-41.643c-0.736,2.317 -7.954,42.236 -47.818,94.213c-19.557,25.5 -5.989,-38.843 3.328,-59.724c1.835,-4.113 61.03,-136.769 44.49,-34.489Zm-1044.811,-71.812c-7.155,-34.39 -7.426,-34.708 -5.909,-37.323c6.686,-11.53 26.938,30.219 31.014,38.425c22.238,44.768 50.018,97.51 29.916,90.953c-34.761,-11.337 -52.932,-83.733 -55.021,-92.055Zm496.616,92.878c-66.237,19.388 -28.938,-25.405 -26.82,-27.642c4.189,-4.423 29.583,-42.641 59.025,-15.958c15.226,13.799 -28.534,41.294 -32.206,43.601Zm514.453,274.593c-10.667,-68.78 117.693,-145.699 89.154,-108.079c-4.272,5.631 -6.102,3.985 -56.516,67.912c-16.206,20.549 -22.436,39.82 -32.638,40.167Zm-1295.242,603.346c-7.134,-3.207 -79.926,-35.923 -86.25,-46.052c-8.971,-14.367 21.127,0.469 22.763,1.275c149.519,73.697 171.812,60.691 175.559,68.632c7.913,16.768 -55.201,-4.25 -112.072,-23.855Zm1604.084,148.638c-4.117,0.388 -62.12,5.86 -51.333,-6.111c8.674,-9.625 15.925,12.511 157.039,-39.621c42.647,-15.755 -0.295,11.779 -1.181,12.2c-60.396,28.746 -93.526,31.6 -104.525,33.531Zm-126.1,-1100.204c-9.447,33.104 -10.164,42.696 -47.855,79.706c-1.145,1.124 -18.354,18.022 -18.727,7.191c-0.344,-10.005 10.035,-5.503 60.073,-109.777c16.91,-35.238 6.845,21.007 6.509,22.88Zm-1282.092,1124.511c-40.9,-10.14 -41.021,-9.384 -52.373,-13.986c-1.949,-0.79 -120.663,-60.594 -15.389,-21.305c92.565,34.546 124.67,25.696 124.339,37.006c-0.133,4.526 -2.303,6.724 -56.576,-1.714Zm-895.288,-1545.058c-1.755,2.327 -83.059,110.137 -32.13,17.19c38.105,-69.543 79.851,-86.008 63.914,-61.497c-22.444,34.52 -25.6,35.687 -31.784,44.307Zm559.012,1198.036c33.884,15.635 34.848,14.458 37.809,18.932c0.771,1.165 1.72,10.261 -17.317,2.235c-86.444,-36.443 -117.643,-56.865 -127.144,-63.083c-19.69,-12.888 1.277,-11.599 1.73,-11.388c53.489,24.904 52.019,27.083 104.922,53.304Zm1504.955,-952.72c-1.856,-0.43 -33.209,-7.684 -13.37,-19.711c3.648,-2.212 16.511,-10.01 51.775,-12.778c24.604,-1.932 14.241,32.379 -38.405,32.49Zm-1006.045,-37.801c64.702,11.414 56.665,28.353 52.875,31.496c-11.867,9.844 -91.383,-24.036 -63.225,-30.472c3.38,-0.772 6.97,-0.252 10.35,-1.025Z" style="fill-opacity:1;"/><path d="M1795.09,2648.731c-25.455,6.682 -24.322,-4.214 -272.354,-152.21c-38.229,-22.81 -52.336,-26.904 -34.335,-45.013c22.926,-23.064 285.534,-287.255 287.011,-287.875c17,-7.145 10.873,10.513 170.412,155.211c64.045,58.088 123.778,118.607 134.249,129.216c17.728,17.961 -2.157,21.411 -97.437,81.59c-34.745,21.945 -145.65,93.61 -187.546,119.082Zm1.953,-274.328c0.325,11.383 3.763,131.948 -12.832,141.766c-7.534,4.457 -24.388,-99.953 -16.18,-165.578c3.405,-27.221 9.375,-76.601 17.846,-58.698c8.124,17.169 10.98,80.192 11.167,82.509Zm88.727,16.813c-14.908,-4.014 -17.474,-3.372 -22.906,-22.085c-0.361,-1.242 -7.011,-24.152 8.22,-13.92c59.365,39.88 83.343,45.653 90.417,53.177c25.058,26.649 -25.463,-10.339 -75.731,-17.171Zm-225.977,4.877c-23.158,8.032 -65.14,32.032 -56.788,16.592c1.515,-2.8 99.393,-60.106 99.557,-60.076c3.809,0.692 -0.404,36.322 -18.529,39.38c-1.939,0.327 -1.796,0.304 -24.24,4.104Z" style="fill-opacity:1;"/><path d="M2115.456,302.073c137.903,-6.743 229.397,13.939 230.482,21.22c2.683,18.002 -13.005,-0.958 -225.855,27.418c-242.244,32.294 -280.632,88.938 -273.227,58.953c13.185,-53.384 53.25,-103.571 268.599,-107.591Z" style="fill-opacity:1;"/><path d="M1502.329,306.746c162.865,14.708 240.973,18.192 263.153,102.977c7.729,29.546 -21.586,-12.776 -195.813,-45.527c-98.283,-18.475 -307.779,-33.204 -307.854,-40.694c-0.083,-8.261 61.356,-17.34 82.295,-18.535c85.021,-4.85 132.323,0.148 158.22,1.779Z" style="fill-opacity:1;"/><path d="M2608.721,366.335c-1.586,3.886 -3.172,7.772 -4.757,11.659c-67.9,-33.665 -83.127,-50.855 -118.42,-70.473c-46.834,-26.033 97.091,-8.116 150.34,46.363c18.982,19.42 -15.248,6.319 -27.163,12.451Z" style="fill-opacity:1;"/><path d="M1075.277,311.985c4.175,-1.058 131.476,-33.319 53.802,-1.924c-21.43,8.662 -225.636,117.453 -162.85,62.006c40.913,-36.131 39.657,-39.734 109.048,-60.082Z" style="fill-opacity:1;"/><path d="M3036.473,1806.489c-0.887,-10.633 2.525,-9.43 11.675,-14.224c36.932,-19.35 200.562,-114.29 203.449,-113.89c28.977,4.009 -134.005,107.85 -215.124,128.114Z" style="fill-opacity:0.99;"/><path d="M923.222,2367.167c-7.134,-3.207 -79.926,-35.923 -86.25,-46.052c-8.971,-14.367 21.127,0.469 22.763,1.275c149.519,73.697 171.812,60.691 175.559,68.632c7.913,16.768 -55.201,-4.25 -112.072,-23.855Z" style="fill-opacity:0.04;"/><path d="M782.838,2193.089c33.884,15.635 34.848,14.458 37.809,18.932c0.771,1.165 1.72,10.261 -17.317,2.235c-86.444,-36.443 -117.643,-56.865 -127.144,-63.083c-19.69,-12.888 1.277,-11.599 1.73,-11.388c53.489,24.904 52.019,27.083 104.922,53.304Z" style="fill-opacity:0.04;"/><path d="M305,1638.524c118.66,50.816 119.921,69.416 109.54,70.141c-10.748,0.75 -106.561,-54.612 -109.813,-62.94c-0.874,-2.238 1.147,-4.964 0.273,-7.201Z" style="fill-opacity:0.98;"/><path d="M2608.721,366.335c0.372,0.779 4.651,9.734 4.651,9.734c1.721,6.636 -2.776,2.642 -9.409,1.925c1.586,-3.886 3.172,-7.772 4.757,-11.659Z" style="fill-opacity:0.81;"/></g></svg>