<?xml version="1.0" encoding="UTF-8" standalone="no"?><!DOCTYPE svg PUBLIC "-//W3C//DTD SVG 1.1//EN" "http://www.w3.org/Graphics/SVG/1.1/DTD/svg11.dtd"><svg width="100%" height="100%" viewBox="0 0 3567 2680" version="1.1" xmlns="http://www.w3.org/2000/svg" xmlns:xlink="http://www.w3.org/1999/xlink" xml:space="preserve" xmlns:serif="http://www.serif.com/" style="fill-rule:evenodd;clip-rule:evenodd;stroke-linejoin:round;stroke-miterlimit:2;"><g><path d="M1489.144,1654.522c2.698,-26.398 8.788,-51.06 17.464,-74.939c17.655,-48.575 40.268,-94.732 70.305,-136.993c18.472,-26.006 39.418,-49.863 66.14,-67.674c12.953,-8.643 26.588,-16.882 40.985,-22.614c20.744,-8.273 42.452,-14.128 63.778,-20.912c2.821,-0.896 5.81,-1.388 8.766,-1.746c3.907,-0.481 6.437,1.399 7.333,5.262c0.336,1.444 0.515,2.944 0.571,4.422c0.806,20.856 2.105,41.713 2.261,62.58c0.347,44.78 -0.19,89.56 0.213,134.34c0.313,35.421 0.269,70.932 2.564,106.252c4.355,67.081 4.209,134.184 3.929,201.309c-0.045,10.367 -1.478,20.823 -3.247,31.077c-1.724,9.997 -5.139,12.841 -15.416,12.225c-11.128,-0.683 -22.289,-2.183 -33.204,-4.456c-25.424,-5.284 -48.844,-16.009 -71.749,-27.932c-4.836,-2.519 -10.008,-4.366 -15.248,-6.616c-3.191,5.743 -0.123,9.18 2.329,11.956c10.109,11.408 19.793,23.398 31.145,33.451c12.236,10.814 26.286,19.569 39.339,29.476c18.718,14.206 37.459,28.391 55.774,43.101c7.523,6.034 14.229,6.672 22.39,1.713c36.686,-22.244 73.977,-43.515 110.137,-66.588c31.951,-20.386 57.139,-47.758 74.626,-81.724c1.411,-2.732 2.273,-5.743 3.75,-9.549c-6.314,-0.09 -7.758,3.862 -10.12,6.415c-15.024,16.143 -30.361,31.906 -49.404,43.493c-19.043,11.587 -39.183,19.894 -61.595,22.177c-14.363,1.467 -21.035,-3.381 -22.849,-17.699c-0.56,-4.433 -0.537,-8.945 -0.537,-13.412c-0.022,-157.48 -0.067,-314.949 0.09,-472.43c0,-11.15 1.31,-22.323 2.329,-33.451c0.716,-7.725 2.866,-9.124 10.154,-7.445c2.172,0.504 4.299,1.276 6.404,2.004c28.95,10.087 57.184,21.853 83.604,37.47c23.062,13.636 43.37,30.831 58.091,53.322c26.14,39.921 54.609,78.354 76.854,120.805c16.703,31.883 26.319,65.692 30.809,101.125c5.844,46.079 1.187,91.665 -8.284,136.747c-3.817,18.17 -9.583,36.093 -16.188,53.479c-24.125,63.476 -48.978,126.672 -73.506,189.991c-1.825,4.691 -4.478,9.359 -2.631,15.427c6.784,-1.332 7.12,-6.706 8.587,-10.96c4.646,-13.389 8.486,-27.092 13.747,-40.224c11.8,-29.409 23.879,-58.718 36.541,-87.769c21.797,-49.997 43.19,-100.095 53.333,-154.088c7.243,-38.623 11.564,-77.436 7.075,-116.798c-3.504,-30.674 -14.095,-58.673 -31.268,-84.164c-9.784,-14.531 -20.532,-28.424 -30.305,-42.978c-13.725,-20.431 -27.081,-41.108 -40.347,-61.841c-19.77,-30.898 -42.373,-59.311 -68.67,-85.093c-28.458,-27.887 -60.24,-51.195 -93.646,-72.387c-12.774,-8.105 -19.524,-17.923 -21.438,-32.981c-3.929,-30.965 3.616,-58.494 22.077,-83.145c7.142,-9.527 15.192,-18.416 23.23,-27.226c5.967,-6.538 10.109,-6.392 15.986,-0.202c23.084,24.349 46.101,48.777 69.185,73.137c26.42,27.876 52.729,55.852 79.406,83.47c6.605,6.84 14.43,12.494 21.897,18.875c5.653,-5.754 3.683,-11.049 2.418,-15.819c-5.653,-21.259 -11.374,-42.507 -17.599,-63.61c-4.041,-13.692 -2.608,-15.83 11.665,-14.352c3.325,0.336 6.661,0.616 9.997,0.784c0.638,0.034 1.299,-0.616 2.452,-1.209c0.313,-4.657 -3.482,-6.986 -6.392,-9.415c-31.536,-26.375 -64.192,-51.116 -101.393,-69.252c-28.738,-14.005 -54.285,-32.768 -77.705,-54.329c-13.143,-12.079 -25.648,-24.898 -37.817,-37.962c-13.949,-14.979 -22.088,-32.354 -21.136,-53.635c0.795,-17.878 0.369,-35.824 0.09,-53.736c-0.638,-41.007 -1.444,-82.015 -2.329,-123.033c-0.549,-25.704 -2.026,-51.419 -1.926,-77.122c0.146,-35.421 0.884,-70.853 2.306,-106.241c1.735,-43.571 4.5,-87.097 6.672,-130.657c1.187,-23.554 11.923,-41.41 30.103,-56.221c23.14,-18.83 49.549,-30.249 77.85,-37.996c29.656,-8.128 59.961,-13.065 90.668,-12.068c44.545,1.444 88.508,7.232 130.097,24.775c7.109,3 14.43,5.866 19.222,12.841c-2.911,5.519 -8.262,5.53 -12.74,6.09c-16.266,2.049 -32.577,3.941 -48.922,5.183c-37.548,2.844 -75.275,3.952 -112.264,11.8c-35.611,7.545 -69.644,19.591 -101.55,37.291c-2.597,1.433 -5.015,3.224 -7.378,5.027c-0.772,0.593 -1.119,1.758 -2.06,3.336c5.194,1.556 8.967,-1.299 12.841,-2.743c28.021,-10.445 56.199,-20.565 86.079,-23.935c24.797,-2.788 49.728,-4.982 74.66,-5.799c29.824,-0.985 59.714,-0.795 89.549,-0.078c29.421,0.705 58.807,2.765 88.217,4.142c36.227,1.69 72.018,6.818 107.618,13.49c3.627,0.683 7.198,1.634 11.352,2.575c-56.109,7.971 -111.469,16.49 -167.007,23.532c-55.796,7.075 -111.782,12.673 -167.679,18.92c-0.034,0.806 -0.056,1.612 -0.09,2.418c4.153,0.313 8.329,1.131 12.449,0.873c57.363,-3.605 114.816,-4.948 172.213,-3.045c66.745,2.205 133.4,6.963 199.047,20.039c34.727,6.919 69.028,15.919 103.509,24.047c2.373,0.56 4.612,1.713 6.527,4.243c-3.202,-0.19 -6.404,-0.269 -9.594,-0.582c-42.675,-4.153 -85.306,-9.001 -128.049,-12.303c-40.492,-3.135 -81.108,-4.724 -121.679,-6.829c-31.637,-1.646 -63.274,-3.616 -94.934,-4.422c-46.594,-1.175 -93.243,-2.754 -139.815,-1.769c-51.206,1.086 -101.807,8.553 -151.368,22.021c-4.131,1.131 -10.523,1.064 -10.546,6.325c0,3.347 4.086,7.758 7.478,9.874c7.221,4.5 14.901,8.631 22.916,11.464c28.626,10.12 58.169,12.169 88.306,9.225c38.209,-3.75 76.428,-7.96 114.749,-10.02c37.582,-2.015 75.287,-1.578 112.947,-2.183c1.422,-0.022 2.855,0.325 4.344,1.69c-17.252,2.261 -34.548,4.243 -51.743,6.829c-51.296,7.736 -102.535,15.684 -152.308,31.055c-23.118,7.142 -46.717,9.337 -70.741,4.187c-7.993,-1.724 -16.222,-2.698 -24.394,-3.123c-8.542,-0.437 -11.497,2.944 -11.464,11.352c0.011,1.119 0.157,2.239 0.269,3.347c1.646,16.546 3.504,18.337 19.938,18.405c19.77,0.09 39.563,0.347 59.322,-0.034c40.761,-0.784 81.231,3.067 121.645,7.378c54.945,5.844 109.476,14.576 163.492,26.241c33.182,7.165 66.286,14.8 99.121,23.409c26.902,7.053 53.904,5.687 81.153,4.926c26.801,-0.75 53.635,-0.157 80.459,-0.09c2.597,0.011 5.206,0.728 7.803,0.683c35.533,-0.526 70.697,4.209 105.961,7.445c2.788,0.257 5.609,0.045 8.407,0.045c0.257,-0.761 0.526,-1.511 0.784,-2.261c-3.101,-1.467 -6.068,-3.347 -9.314,-4.321c-13.568,-4.097 -27.182,-8.094 -40.851,-11.811c-48.967,-13.322 -97.956,-26.51 -146.923,-39.787c-4.568,-1.243 -9.057,-2.776 -13.568,-4.176c0.022,-0.828 0.045,-1.646 0.067,-2.463c6.023,-0.884 12.035,-2.25 18.091,-2.552c9.303,-0.459 18.673,-0.616 27.976,-0.179c44.444,2.105 88.519,6.762 131.206,20.297c3.795,1.198 7.713,1.959 12.348,1.187c-1.959,-1.254 -3.817,-2.732 -5.889,-3.728c-27.719,-13.266 -57.207,-21.494 -86.291,-30.999c-36.507,-11.934 -72.633,-25.054 -108.872,-37.817c-4.366,-1.545 -9.426,-2.62 -11.911,-9.415c3.638,-1.287 6.829,-2.967 10.21,-3.538c39.227,-6.605 78.701,-7.635 118.208,-3.829c39.608,3.806 73.271,21.707 103.89,46.112c2.038,1.623 4.053,3.28 6.168,4.791c0.515,0.358 1.411,0.179 3.359,0.358c-0.952,-2.631 -1.332,-5.071 -2.608,-6.874c-3.011,-4.254 -6.146,-8.497 -9.762,-12.236c-25.939,-26.823 -51.945,-53.546 -81.589,-76.451c-50.613,-39.093 -104.438,-72.868 -160.76,-103.285c-62.938,-33.966 -129.985,-53.949 -199.686,-66.857c-8.307,-1.534 -16.613,-3.123 -24.707,-6.583c11.486,0 23.017,-0.661 34.458,0.101c63.845,4.254 127.142,12.023 187.505,34.727c28.962,10.904 57.43,23.129 85.978,35.108c32.13,13.479 61.808,31.671 90.724,50.747c21.718,14.33 41.836,31.212 61.886,47.903c11.676,9.717 21.774,21.338 32.633,32.04c1.511,1.489 3.37,2.642 5.497,4.288c-0.571,-12.762 -33.887,-64.147 -67.752,-101.326c-27.976,-30.73 -61.08,-55.785 -95.695,-78.723c-34.335,-22.748 -71.995,-38.824 -109.935,-55.371c1.265,-0.134 2.564,-0.504 3.806,-0.358c63.196,7.467 123.66,24.338 180.542,53.165c27.786,14.083 52.874,32.141 75.275,53.848c5.889,5.698 11.856,11.341 17.61,17.173c4.747,4.814 10.501,6.762 17.095,7.154c42.44,2.575 83.492,12.225 123.056,27.182c19.39,7.322 37.279,18.629 55.841,28.155c3.817,1.97 7.579,4.064 13.803,7.411c-0.448,-5.62 -0.19,-8.777 -0.996,-11.643c-9.717,-34.436 -25.502,-66.039 -45.284,-95.717c-3.717,-5.586 -7.926,-10.848 -11.721,-16.39c-1.355,-1.982 -2.116,-4.366 -1.847,-8.531c3.929,1.467 8.072,2.519 11.732,4.478c57.005,30.54 94.43,75.51 103.767,141.158c3.672,25.849 7.422,51.699 11.497,77.492c1.243,7.915 1.993,16.278 8.128,22.815c5.284,-1.444 4.825,-5.62 4.836,-9.079c0.09,-20.151 0.493,-40.324 -0.202,-60.442c-0.605,-17.867 -2.217,-35.723 -3.941,-53.523c-1.355,-14.095 -3.571,-28.111 -5.34,-42.172c-0.448,-3.56 -0.616,-7.154 -0.985,-11.52c6.247,0.784 7.579,5.105 9.773,8.184c25.278,35.432 44.5,74.089 61.338,114.1c13.423,31.883 23.465,64.662 25.704,99.221c1.332,20.397 0.526,40.985 -0.19,61.449c-0.437,12.538 -2.508,25.021 -2.217,38.141c1.175,-2.004 2.743,-3.873 3.459,-6.034c12.673,-38.029 21.293,-76.966 24.539,-116.932c1.5,-18.561 2.519,-37.235 2.261,-55.841c-0.94,-67.943 -12.729,-133.568 -43.537,-194.905c-11.956,-23.812 -26.734,-45.609 -44.511,-65.513c-27.126,-30.342 -60.778,-52.682 -93.031,-76.702c-23.039,-17.166 -47.142,-32.797 -73.283,-45.101c-39.026,-18.377 -79.07,-33.54 -122.339,-37.989c-30.54,-3.139 -61.091,-2.255 -91.508,1.969c-31.783,4.411 -63.476,9.642 -95.359,13.022c-28.514,3.023 -57.229,4.875 -85.888,5.678c-33.932,0.952 -67.909,0.462 -101.875,0.174c-67.506,-0.575 -135.012,-2.488 -202.507,-1.91c-75.88,0.649 -149.062,14.958 -217.217,50.128c-5.945,3.067 -12.315,5.346 -18.539,7.815c-1.254,0.494 -2.821,0.194 -4.288,0.262c-1.758,-4.639 1.545,-6.573 3.918,-8.543c16.345,-13.595 32.745,-27.128 49.247,-40.532c20.834,-16.919 42.709,-32.675 62.435,-50.796c24.651,-22.662 44.534,-49.434 55.326,-81.644c7.702,-22.951 12.482,-34.909 25.961,-55.036c12.247,-18.293 24.304,-27.074 37.974,-35.442c15.214,-9.316 32.186,-15.945 40.895,-17.835c28.312,-6.138 45.116,-4.673 58.774,-4.465c25.178,0.385 50.501,2.267 81.466,6.476c34.682,4.716 59.513,10.487 79.317,14.364c27.237,5.336 88.832,31.588 145.356,60.233c38.544,19.525 74.089,43.293 105.446,72.995c24.92,23.611 54.587,34.138 88.385,34.74c68.166,1.215 134.329,12.439 197.357,39.465c49.784,21.348 94.721,49.901 135.113,86.279c37.985,34.202 68.402,73.992 91.878,118.851c25.379,48.497 43.907,99.636 51.419,154.312c3.963,28.861 7.478,57.699 6.986,86.896c-0.235,13.803 0.202,27.618 -0.112,41.422c-0.358,16.02 -0.873,32.051 -1.97,48.027c-0.75,11.083 1.198,19.961 10.624,27.596c20.543,16.658 41.366,33.26 60.016,51.934c46.146,46.224 90.411,94.038 123.559,151.166c18.584,31.995 30.921,66.196 41.757,101.113c15.707,50.635 29.98,101.752 38.13,154.189c4.4,28.279 6.112,57.061 7.501,85.698c0.683,14.128 2.911,27.226 9.269,39.821c21.136,41.836 36.529,85.743 47.444,131.295c6.885,28.749 11.923,57.766 13.02,87.31c1.175,31.66 2.429,63.375 1.993,95.035c-0.806,58.919 -12.426,115.745 -38.612,168.832c-16.972,34.436 -34.134,68.928 -53.792,101.852c-19.3,32.298 -41.231,63.173 -66.857,90.96c-21.73,23.566 -43.773,46.952 -67.047,68.973c-17.565,16.613 -36.708,31.727 -56.188,46.112c-55.863,41.254 -117.402,72.141 -181.505,98.471c-63.834,26.219 -127.892,52.034 -188.849,84.713c-39.25,21.035 -75.925,45.866 -109.924,74.716c-51.307,43.537 -96.199,93.669 -144.673,140.106c-27.215,26.062 -55.371,51.128 -88.206,70.26c-28.256,16.468 -57.52,30.988 -90.545,33.585c-22.927,1.802 -46.224,1.578 -69.163,-0.19c-18.281,-1.411 -36.261,-2.586 -54.621,-1.231c-11.699,0.851 -23.868,-0.75 -35.421,-3.157c-14.498,-3.034 -21.651,-14.251 -21.394,-29.991c0.28,-17.162 0.269,-16.994 -16.96,-17.431c-7.042,-0.168 -14.285,-0.369 -21.047,-2.105c-15.718,-4.019 -24.618,-14.71 -26.857,-30.798c-0.974,-7.019 -1.59,-14.095 -2.642,-21.103c-1.164,-7.848 -2.485,-9.997 -10.411,-10.714c-16.871,-1.523 -24.405,-12.359 -25.144,-30.003c-0.202,-4.836 0.022,-9.706 0.369,-14.531c0.369,-5.239 -1.657,-8.631 -6.739,-10.109c-2.149,-0.616 -4.276,-1.31 -6.448,-1.847c-13.703,-3.403 -20.554,-12.796 -22.524,-26.174c-1.5,-10.176 -0.828,-20.297 4.131,-29.465c4.064,-7.501 8.743,-14.721 13.725,-21.651c6.001,-8.318 6.415,-10.165 1.265,-19.087c-14.878,-25.771 -14.52,-34.996 4.064,-58.707c17.498,-22.3 36.026,-43.806 53.176,-66.353c6.907,-9.079 11.609,-19.894 16.804,-30.171c1.713,-3.381 1.858,-7.557 3.381,-14.274c-6.527,2.877 -10.691,4.053 -14.139,6.336c-19.58,12.997 -38.858,26.454 -58.505,39.35c-12.774,8.385 -25.984,16.076 -39.037,24.036c-1.578,0.963 -3.314,1.724 -5.027,2.452c-10.187,4.344 -13.322,2.295 -13.971,-9.102c-0.09,-1.489 -0.078,-2.989 -0.078,-4.478c0,-38.432 -0.325,-76.876 0.101,-115.309c0.336,-30.63 8.945,-59.569 19.591,-88.038c9.975,-26.711 23.409,-51.587 38.332,-75.779c17.274,-27.976 33.014,-56.837 45.284,-87.355c7.075,-17.61 13.087,-35.768 18.08,-54.083c11.206,-41.164 30.204,-78.522 52.673,-114.458c16.501,-26.398 37.201,-49.448 56.68,-73.495c7.512,-9.269 15.438,-18.203 22.894,-27.506c2.429,-3.023 3.985,-6.751 5.933,-10.154c-0.526,-0.728 -1.052,-1.444 -1.59,-2.172c-2.922,0.873 -6.045,1.355 -8.743,2.687c-28.57,14.162 -55.147,31.223 -77.884,53.859c-34.514,34.346 -65.245,71.738 -91.004,113.07c-20.061,32.174 -33.887,67.215 -45.855,103.05c-10.579,31.693 -15.483,64.461 -19.233,97.531c-2.9,25.659 -9.169,50.557 -18.091,74.883c-13.277,36.216 -29.085,71.167 -49.683,103.789c-14.755,23.375 -30.126,46.482 -51.273,64.674c-9.807,8.43 -20.845,15.595 -31.951,22.3c-8.273,5.004 -13.837,2.116 -17.05,-7.299c-1.086,-3.168 -1.634,-6.516 -2.463,-9.762c-8.609,-33.82 -25.536,-62.905 -51.374,-86.224c-12.975,-11.71 -27.237,-22.144 -41.623,-32.119c-28.2,-19.547 -56.915,-38.332 -85.373,-57.498c-8.307,-5.609 -16.21,-5.945 -24.931,-0.347c-36.417,23.33 -73.35,45.877 -109.42,69.734c-13.591,8.978 -25.502,20.565 -37.929,31.256c-17.072,14.688 -26.051,34.279 -32.029,55.393c-2.743,9.673 -4.232,19.703 -6.739,29.454c-2.597,10.064 -7.545,11.755 -14.923,4.601c-7.21,-6.986 -14.419,-14.296 -19.972,-22.569c-14.318,-21.36 -28.558,-42.855 -41.298,-65.177c-17.587,-30.831 -25.144,-65.323 -32.768,-99.58c-7.445,-33.507 -14.453,-67.092 -21.416,-100.699c-1.657,-8.004 -1.87,-16.311 -3.538,-24.316c-4.165,-20.05 -8.217,-40.157 -13.367,-59.972c-6.863,-26.398 -15.046,-52.527 -29.118,-76.081c-10.299,-17.263 -21.718,-33.91 -33.563,-50.154c-17.565,-24.125 -35.589,-47.937 -54.072,-71.357c-25.928,-32.869 -58.46,-56.233 -99.703,-66.207c-2.72,-0.661 -5.586,-0.728 -10.87,-1.377c2.441,5.094 3.437,8.609 5.542,11.24c4.411,5.519 9.292,10.669 14.184,15.785c13.669,14.274 27.652,28.256 41.131,42.709c22.614,24.271 34.022,54.072 40.918,85.843c4.68,21.506 8.497,43.202 13.065,64.73c7.075,33.328 17.867,65.524 31.48,96.703c10.848,24.864 27.07,46.392 44.635,66.778c31.682,36.787 50.098,79.16 55.371,127.299c0.896,8.128 1.299,16.378 1.153,24.551c-0.694,39.642 1.914,79.026 8.441,118.141c0.672,4.03 0.873,8.161 1.086,12.247c0.056,0.996 -0.694,2.038 -1.545,4.321c-4.198,-1.299 -8.385,-2.306 -12.382,-3.851c-27.506,-10.579 -54.945,-21.327 -82.463,-31.895c-4.512,-1.724 -9.191,-3.213 -13.915,-4.153c-6.695,-1.321 -9.583,1.668 -7.075,8.094c3.101,7.96 6.661,15.964 11.452,22.972c7.545,11.049 16.177,21.371 24.539,31.85c9.538,11.945 19.636,23.442 28.838,35.634c10.053,13.333 12.561,27.417 2.664,42.519c-4.612,7.053 -4.041,8.822 3.213,15.158c12.449,10.87 16.177,24.539 14.498,40.336c-1.567,14.8 -10.008,24.797 -24.338,28.659c-17.99,4.859 -18.494,4.87 -17.766,22.838c0.627,15.404 -5.642,25.838 -19.513,31.906c-5.788,2.541 -11.688,4.881 -17.677,6.885c-10.613,3.526 -11.542,4.915 -9.885,16.244c0.761,5.161 1.836,10.344 1.858,15.516c0.067,21.181 -11.766,33.428 -32.835,34.469c-0.75,0.034 -1.5,-0.022 -2.239,0.067c-5.452,0.716 -12.012,-0.179 -16.087,2.575c-5.418,3.65 -0.705,10.355 -0.549,15.707c0.358,12.471 -6.157,22.849 -18.707,25.872c-11.173,2.687 -22.771,3.941 -34.257,4.926c-24.148,2.071 -48.34,3.493 -72.51,5.295c-49.314,3.694 -96.143,-3.75 -137.564,-32.577c-15.55,-10.814 -30.518,-22.759 -44.399,-35.634c-26.79,-24.864 -52.314,-51.083 -78.936,-76.115c-25.581,-24.047 -53.367,-45.497 -82.351,-65.301c-40.985,-27.999 -82.899,-54.464 -126.683,-77.973c-37.136,-19.938 -73.644,-41.03 -110.537,-61.405c-33.039,-18.259 -67.682,-33.104 -102.425,-47.736c-25.446,-10.702 -51.118,-20.935 -76.171,-32.499c-17.237,-7.96 -33.769,-17.52 -50.306,-26.902c-50.447,-28.648 -97.426,-62.166 -141.168,-100.307c-47.794,-41.679 -89.241,-89.045 -125.701,-140.71c-31.905,-45.194 -59.901,-92.773 -80.275,-144.461c-7.595,-19.267 -11.215,-39.462 -11.547,-60.14c-0.322,-20.151 -0.676,-40.324 0.111,-60.453c0.832,-21.215 2.719,-42.407 4.648,-63.565c2.507,-27.484 5.312,-54.945 8.341,-82.373c6.411,-58.057 23.159,-113.17 48.125,-165.854c9.264,-19.558 18.614,-39.071 28.162,-58.483c5.077,-10.322 6.49,-21.17 6.892,-32.522c2.391,-67.607 7.686,-134.922 26.332,-200.312c20.393,-71.514 52.969,-136.859 101.076,-194.122c21.88,-26.04 45.045,-50.893 70.032,-73.831c23.867,-21.92 48.969,-42.541 74.197,-62.905c8.669,-6.997 13,-14.307 12.781,-25.502c-0.499,-25.737 -0.371,-51.497 -0.106,-77.234c0.525,-51.15 8.821,-101.281 25.031,-149.565c16.088,-47.903 39.459,-92.516 69.716,-133.4c19.829,-26.801 41.257,-52.121 65.901,-74.474c47.212,-42.823 100.563,-75.789 160.687,-97.484c33.417,-12.059 67.226,-22.683 102.781,-26.162c16.692,-1.631 33.44,-2.577 50.176,-3.613c17.117,-1.059 34.268,-1.587 51.363,-2.826c19.39,-1.405 35.578,-9.825 49.773,-22.993c37.974,-35.221 80.279,-64.067 126.269,-88.057c50.266,-26.223 103.028,-46.243 157.256,-61.316c29.264,-8.133 57.531,-14.807 94.117,-18.035c23.767,-2.098 27.92,-1.76 51.766,-0.817c26.073,1.03 41.937,6.474 50.176,8.862c29.241,8.469 18.886,6.435 51.318,23.613c9.236,4.888 27.719,19.263 30.518,29.328c1.982,7.16 0.795,12.678 -4.803,18.124c-9.348,9.08 -17.487,19.404 -26.812,28.501c-38.567,37.594 -79.899,71.742 -125.899,100.001c-2.53,1.557 -4.982,3.287 -7.333,5.111c-0.806,0.633 -1.22,1.792 -2.015,3.019c2.138,4.844 6.639,4.113 10.479,4.175c12.303,0.199 24.629,-0.094 36.932,0.197c18.259,0.431 36.529,0.799 54.744,1.977c10.702,0.692 17.33,-3.159 22.513,-12.583c20.084,-36.542 35.947,-74.578 43.649,-115.753c0.526,-2.807 1.758,-5.481 4.758,-8.768c1.422,3.126 3.168,6.147 4.221,9.394c13.837,42.862 37.862,79.423 70.249,110.245c15.337,14.599 32.577,27.236 49.247,40.405c17.554,13.875 35.477,27.277 53.143,41.019c2.105,1.634 3.549,4.112 4.198,7.7c-2.038,-0.446 -4.198,-0.6 -6.101,-1.378c-58.83,-24.066 -120.458,-36.92 -183.151,-45.288c-34.022,-4.543 -68.222,-7.202 -102.602,-6.929c-23.14,0.185 -46.28,-0.238 -69.409,0.129c-33.551,0.533 -67.092,1.477 -100.643,2.355c-21.237,0.555 -42.507,2.484 -63.688,1.745c-54.419,-1.899 -108.659,-6.181 -162.63,-14.051c-30.596,-4.462 -61.405,-8.298 -92.258,-9.949c-48.922,-2.62 -95.281,8.774 -140.184,28.368c-43.425,18.95 -83.963,42.491 -120.776,71.997c-31.477,25.227 -59.628,54.061 -84.648,85.888c-42.809,54.475 -71.331,115.264 -82.405,183.867c-4.587,28.413 -5.808,57.027 -6.218,85.832c-0.748,52.549 5.287,104.315 16.135,155.499c4.468,21.08 11.998,41.522 18.354,62.188c1.014,3.291 3.181,6.236 4.814,9.348c0.693,-0.246 1.385,-0.481 2.077,-0.716c-0.147,-2.038 0.006,-4.142 -0.485,-6.09c-12.882,-51.128 -16.288,-103.218 -13.395,-155.555c3.804,-68.827 23.723,-132.683 64.287,-189.252c5.209,-7.266 10.449,-14.531 16.061,-21.483c2.465,-3.056 5.899,-5.329 9.192,-8.217c5.051,5.273 2.233,10.109 1.413,14.464c-3.598,19.054 -8.085,37.962 -11.253,57.083c-7.05,42.552 -8.085,85.34 -3.366,128.228c0.556,5.049 1.605,10.053 2.426,15.08c0.769,0.045 1.537,0.078 2.306,0.123c0.74,-3.011 1.667,-5.989 2.193,-9.034c12.718,-73.686 38.97,-142.412 77.19,-206.436c22.829,-38.231 51.958,-70.999 91.331,-93.366c3.347,-1.903 7.008,-3.235 11.352,-3.795c-3.515,11.632 -12.55,19.177 -18.416,28.749c-6.045,9.852 -12.203,19.647 -17.822,29.745c-5.441,9.773 -10.512,19.782 -15.292,29.891c-4.937,10.456 -9.549,21.069 -13.904,31.783c-4.276,10.557 -9.314,20.957 -10.165,34.369c3.594,-1.366 6.124,-1.735 7.881,-3.09c45.698,-35.533 97.856,-54.945 154.883,-62.256c1.478,-0.179 2.955,-0.47 4.444,-0.526c15.617,-0.672 27.439,-7.624 39.328,-18.125c18.64,-16.479 39.138,-31.156 60.117,-44.623c51.833,-33.294 107.685,-57.889 167.567,-72.835c33.753,-8.419 68.178,-12.794 102.759,-15.938c1.008,-0.092 2.06,0.349 5.295,0.956c-5.239,1.301 -8.374,2.258 -11.576,2.846c-40.963,7.535 -80.313,20.432 -118.163,37.482c-36.641,16.513 -69.331,39.104 -98.897,66.543c-27.114,25.166 -49.336,53.96 -67.293,86.023c-7.433,13.288 -12.986,27.652 -19.009,41.69c-1.444,3.381 -1.332,7.433 -1.937,11.184c0.884,0.448 1.78,0.907 2.664,1.355c2.597,-2.284 5.665,-4.221 7.725,-6.919c20.028,-26.23 43.773,-49.034 68.01,-71.077c27.965,-25.435 59.557,-46.235 93.87,-62.345c35.108,-16.49 70.394,-32.656 107.618,-44.097c42.563,-13.087 85.664,-23.644 130.265,-26.129c26.79,-1.489 53.658,-1.433 80.492,-2.015c1.724,-0.045 3.448,0.313 5.273,1.926c-3.538,0.705 -7.042,1.679 -10.613,2.082c-64.136,7.198 -126.246,23.084 -186.744,45.06c-44.97,16.345 -84.511,42.496 -121.947,71.917c-12.315,9.684 -24.528,19.491 -36.686,29.365c-2.407,1.959 -4.366,4.478 -7.781,8.038c14.8,5.396 29.006,0.235 44.366,5.094c-5.06,4.31 -8.139,7.366 -11.632,9.829c-35.365,24.942 -71.122,49.336 -106.095,74.816c-24.696,18.002 -48.362,37.391 -72.387,56.3c-2.732,2.149 -4.814,5.139 -7.198,7.736c0.493,0.761 0.985,1.523 1.478,2.273c4.265,-1.724 8.643,-3.224 12.774,-5.217c46.806,-22.468 94.352,-43.213 143.934,-58.729c40.593,-12.695 81.265,-25.346 123.817,-30.092c4.635,-0.515 9.337,-0.481 14.005,-0.705c0.202,0.817 0.403,1.634 0.605,2.452c-15.964,7.501 -32.13,14.609 -47.836,22.592c-15.953,8.105 -31.626,16.815 -47.142,25.726c-15.528,8.911 -30.977,18.002 -45.989,27.752c-15.001,9.751 -29.633,20.117 -44.019,30.786c-14.139,10.479 -29.924,18.92 -42.261,31.693c0.291,0.772 0.582,1.534 0.873,2.295c3.896,-0.481 7.848,-0.694 11.688,-1.478c35.231,-7.154 70.898,-9.594 106.756,-10.154c13.423,-0.213 26.823,-1.231 40.235,-1.355c8.172,-0.067 16.345,1.019 24.539,1.343c35.343,1.433 69.846,-4.097 104.136,-12.135c55.214,-12.953 110.338,-26.566 166.75,-33.361c28.491,-3.437 57.106,-5.956 85.72,-8.262c55.874,-4.5 111.861,-1.59 167.791,-1.735c10.311,-0.022 12.852,-1.556 13.647,-11.564c0.537,-6.672 0.56,-13.456 -0.045,-20.106c-0.593,-6.404 -3.459,-8.307 -9.863,-7.747c-2.586,0.235 -5.15,0.884 -7.68,1.511c-23.7,5.844 -47.411,5.676 -70.831,-1.03c-43.504,-12.449 -87.87,-20.722 -132.538,-27.405c-30.26,-4.534 -60.587,-8.542 -90.87,-12.841c-2.799,-0.403 -5.53,-1.287 -8.128,-3.448c3.202,-0.202 6.415,-0.571 9.617,-0.582c29.107,-0.034 58.236,-0.716 87.321,0.202c25.681,0.806 51.329,3.213 76.966,5.262c33.451,2.664 66.823,6.493 100.319,8.296c28.67,1.534 56.546,-3.347 82.239,-17.296c0.985,-0.526 2.161,-0.851 2.944,-1.59c2.631,-2.441 6.672,-4.702 7.31,-7.657c1.064,-4.87 -4.153,-6.527 -7.736,-8.195c-45.082,-21.035 -90.836,-40.571 -140.386,-48.049c-47.545,-7.165 -95.359,-12.684 -143.128,-18.438c-27.014,-3.258 -54.128,-5.956 -81.253,-8.128c-27.864,-2.239 -55.807,-3.504 -83.705,-5.217c-3.168,-0.19 -6.336,-0.526 -9.661,-2.396c2.642,-1.019 5.206,-2.351 7.937,-3.011c33.764,-8.195 67.786,-14.912 102.535,-17.072c27.159,-1.702 54.329,-3.123 81.5,-4.456c18.237,-0.907 36.541,-2.653 54.732,-1.903c48.777,1.993 97.777,3.123 144.987,18.013c9.605,3.034 19.132,6.303 28.726,9.37c2.698,0.862 5.508,1.377 8.273,2.049c0.414,-0.638 0.828,-1.276 1.243,-1.914c-2.329,-1.937 -4.5,-4.142 -7.03,-5.777c-19.323,-12.505 -41.019,-19.535 -62.625,-26.678c-26.745,-8.833 -54.475,-12.863 -82.373,-15.292c-33.048,-2.866 -66.196,-4.478 -99.255,-7.154c-11.867,-0.963 -23.655,-3.146 -35.365,-5.362c-4.881,-0.929 -10.333,-1.858 -13.546,-7.411c4.086,-5.732 10.344,-7.624 16.199,-9.337c16.826,-4.903 33.753,-9.516 50.792,-13.613c30.596,-7.366 61.897,-10.87 93.187,-10.523c36.944,0.414 73.574,5.43 109.364,15.628c30.036,8.575 58.08,21.103 84.243,38.22c8.833,5.788 12.65,12.863 12.225,23.207c-0.907,21.976 -1.355,43.963 -1.993,65.939c-0.078,2.62 -0.246,5.228 -0.269,7.837c-0.761,103.699 -1.791,207.399 -2.127,311.11c-0.123,38.768 0.739,77.57 2.284,116.305c1.355,33.843 -10.12,62.994 -29.644,89.504c-24.226,32.891 -54.945,57.8 -93.478,72.13c-24.372,9.057 -46.784,21.506 -67.573,36.865c-18.595,13.747 -36.664,28.2 -54.889,42.452c-2.81,2.205 -5.172,5.004 -9.359,9.102c4.892,2.093 7.937,3.862 11.206,4.68c5.777,1.455 11.71,2.284 17.554,3.482c5.441,1.119 7.433,4.601 6.224,9.896c-1.567,6.907 -3.403,13.759 -4.926,20.688c-3.034,13.837 -5.967,27.708 -8.866,41.578c-0.526,2.552 -0.952,5.172 -0.952,7.758c0,7.545 3.739,10.098 9.74,5.743c19.58,-14.229 41.198,-25.648 58.494,-43.067c10.501,-10.568 22.334,-19.86 32.51,-30.708c19.894,-21.203 39.115,-43.034 58.494,-64.718c9.684,-10.837 19.043,-21.976 28.67,-32.869c6.336,-7.165 9.314,-7.288 15.024,0.202c8.363,10.982 16.289,22.289 24.248,33.574c7.098,10.053 13.747,20.442 21.013,30.361c7.008,9.572 7.545,19.143 1.612,29.23c-6.941,11.822 -16.524,21.091 -28.066,28.323c-21.494,13.445 -43.269,26.476 -64.595,40.19c-49.336,31.738 -92.616,70.137 -128.732,116.607c-17.99,23.151 -32.566,48.139 -45.049,74.525c-9.728,20.565 -20.073,40.862 -29.454,61.584c-16.815,37.111 -26.689,76.137 -27.405,116.898c-0.302,17.386 1.892,35.052 5.015,52.225c6.336,34.94 16.557,68.894 29.633,101.942c13.042,32.958 26.062,65.927 39.093,98.897c11.788,29.824 23.51,59.692 35.432,89.459c1.959,4.892 4.825,9.415 7.266,14.117c1.019,-0.336 2.026,-0.661 3.045,-0.985c-0.761,-3.728 -0.75,-7.837 -2.373,-11.128c-24.282,-49.034 -39.227,-101.572 -57.576,-152.823c-14.979,-41.836 -28.044,-84.276 -34.66,-128.396c-4.881,-32.522 -8.363,-65.11 -3.56,-98.998m-1168.67,-651.505c-0,0 -0.006,0 -0.287,1.646c-2.924,6.818 -5.24,13.994 -8.88,20.42c-13.791,24.338 -27.728,48.609 -42.129,72.6c-31.774,52.919 -53.25,110.081 -69.396,169.302c-14.495,53.188 -19.245,107.909 -22.34,162.686c-1.892,33.484 -2.165,67.081 -2.363,100.632c-0.135,22.838 3.533,45.351 9.84,67.338c8.285,28.894 25.033,51.486 51.043,66.767c8.346,4.903 17.063,9.281 25.937,13.154c32.869,14.352 64.461,31.167 95.664,48.754c51.23,28.883 98.335,63.554 142.477,102.278c29.977,26.308 62.513,48.385 99.828,62.961c4.508,1.758 9.066,3.47 13.727,4.747c4.922,1.343 7.929,-0.907 8.671,-5.956c0.27,-1.847 0.401,-3.717 0.41,-5.575c0.15,-30.383 -2.483,-60.464 -12.405,-89.37c-16.028,-46.706 -43.111,-87.086 -76.402,-122.675c-45.355,-48.497 -92.829,-94.979 -147.176,-133.78c-12.134,-8.665 -23.649,-18.203 -35.224,-27.618c-4.964,-4.041 -10.236,-8.094 -12.034,-15.136c3.551,0.493 6.503,1.702 9.29,3.213c18.354,9.975 36.561,20.229 55.028,29.98c33.853,17.89 65.17,39.574 92.985,65.704c25.781,24.204 51.996,48.307 71.121,78.69c1.123,1.78 3.515,2.765 6.307,4.87c1.309,-11.083 -3.107,-19.02 -6.739,-27.002c-16.973,-37.335 -41.919,-68.625 -73.186,-94.889c-31.703,-26.622 -63.696,-52.908 -95.646,-79.227c-23.665,-19.502 -45.585,-40.727 -65.257,-64.293c-26.64,-31.917 -37.797,-69.275 -36.886,-110.036c0.676,-30.249 5.952,-60.207 14.031,-89.381c10.646,-38.466 22.061,-76.731 33.733,-114.894c9.271,-30.316 19.393,-60.375 29.244,-90.512c0.854,-2.608 2.504,-4.959 3.784,-7.422c3.279,4.601 4.996,9.057 5.543,13.658c2.547,21.472 4.89,42.966 7.07,64.472c1.615,15.942 2.77,31.928 4.383,47.881c0.262,2.586 1.839,5.049 3.157,8.475c6.967,-5.094 9.112,-11.609 12.16,-17.397c10.673,-20.297 23.877,-38.712 40.117,-54.9c2.941,-2.933 5.77,-6.829 12.709,-5.463c-5.107,9.65 -9.378,18.662 -14.486,27.182c-15.617,26.028 -27.848,53.602 -37.961,82.149c-1.256,3.549 -1.776,7.355 -3.081,12.941c3.111,-1.993 4.283,-2.373 4.849,-3.168c2.79,-3.963 5.572,-7.937 8.082,-12.079c28.328,-46.706 59.735,-91.071 98.365,-129.985c8.569,-8.643 8.378,-11.475 -1.733,-18.158c-21.912,-14.498 -41.525,-31.66 -59.486,-50.713c-20.9,-22.189 -38.42,-46.851 -49.451,-75.331c-6.705,-17.308 -10.916,-35.589 -16.126,-53.479c-2.929,-10.053 -6.154,-11.195 -13.567,-4.254c-2.711,2.53 -5.143,5.407 -7.481,8.307c-20.625,25.569 -39.52,52.37 -57.947,79.585c-19.648,29.006 -39.951,57.666 -61.512,85.272c-20.638,26.42 -43.549,51.06 -64.914,76.932c-15.683,18.987 -30.407,38.712 -40.391,61.573c-8.639,19.77 -13.904,40.145 -13.061,61.852c0.134,3.459 0.982,6.896 1.5,10.344c0.936,0.224 1.872,0.437 2.809,0.649c2.441,-3.873 5.248,-7.579 7.263,-11.665c12.738,-25.849 27.907,-50.154 45.163,-73.238c19.008,-25.435 39.359,-49.572 61.352,-72.566c15.836,-16.557 32.753,-31.492 50.874,-45.228c5.893,-4.478 12.668,-7.781 19.035,-11.62m875.484,1193.501c0,0 0,-0.134 -0.582,-1.556c-2.183,-3.47 -4.198,-7.053 -6.56,-10.389c-14.777,-20.946 -25.323,-43.761 -32.242,-68.491c-6.919,-24.685 -9.37,-49.963 -9.538,-75.253c-0.168,-25.301 1.982,-50.646 3.974,-75.902c3.627,-46.09 8.934,-92.068 11.531,-138.203c2.105,-37.19 3.515,-74.682 1.164,-111.793c-3.347,-52.729 -16.098,-103.991 -35.544,-153.193c-27.461,-69.432 -66.017,-132.818 -108.211,-194.122c-18.606,-27.036 -37.985,-53.658 -52.068,-83.481c-18.102,-38.309 -26.006,-79.261 -29.32,-121.175c-1.433,-18.192 -1.601,-36.485 -2.485,-54.721c-0.19,-3.885 0.795,-8.441 -5.407,-11.352c-2.496,2.989 -5.598,6.001 -7.87,9.538c-34.481,53.669 -69.196,107.181 -103.151,161.186c-23.812,37.895 -46.997,76.193 -69.667,114.794c-24.226,41.265 -49.113,81.645 -85.858,113.663c-29.5,25.715 -61.822,44.03 -101.066,48.844c-4.811,0.593 -9.647,1.22 -14.361,2.306c-6.571,1.511 -8.28,3.907 -6.101,10.456c2.457,7.378 5.267,14.878 9.324,21.461c20.156,32.712 40.392,65.334 57.64,99.759c13.376,26.7 26.825,53.311 36.177,81.746c8.043,24.461 15.513,49.101 23.862,73.451c11.402,33.249 24.778,65.827 43.899,95.37c18.617,28.794 39.339,56.121 62.636,81.545c26.756,29.185 54.162,57.677 84.265,83.347c42.855,36.529 86.593,72.018 129.448,108.547c9.449,8.072 18.102,9.236 29.667,6.09c26.264,-7.154 52.74,-13.647 79.384,-19.177c28.894,-6.001 57.8,-5.575 86.09,4.332c3.47,1.22 7.266,1.556 10.971,2.373m1477.743,-30.316c16.546,-13.927 33.249,-27.663 49.605,-41.802c30.439,-26.297 61.606,-51.665 88.295,-82.205c40.201,-46.023 72.477,-96.602 93.96,-153.808c12.718,-33.865 24.506,-68.077 36.541,-102.199c11.296,-31.984 21.494,-64.394 33.798,-95.975c9.74,-25.01 21.931,-49.101 38.645,-70.417c10.814,-13.792 22.278,-27.07 33.283,-40.716c4.668,-5.799 9.292,-11.71 13.244,-18.002c3.605,-5.743 2.25,-8.766 -4.355,-10.758c-4.982,-1.511 -10.221,-2.172 -15.292,-3.37c-38.175,-9.046 -73.943,-23.498 -104.976,-48.038c-24.372,-19.278 -46.325,-41.063 -65.032,-65.927c-43.28,-57.542 -75.678,-121.41 -107.573,-185.569c-9.135,-18.36 -18.058,-36.832 -27.126,-55.236c-4.433,-9.023 -9.068,-17.946 -13.468,-26.991c-11.923,-24.517 -24.674,-48.553 -41.186,-70.372c-2.116,-2.799 -4.545,-5.362 -6.829,-8.027c-0.873,0.235 -1.735,0.47 -2.597,0.716c-0.403,4.232 -1.03,8.452 -1.175,12.695c-0.784,23.834 -0.828,47.713 -2.284,71.503c-2.441,39.91 -11.587,78.455 -30.697,113.663c-16.166,29.79 -34.324,58.539 -52.393,87.254c-34.805,55.292 -68.01,111.346 -93.635,171.698c-23.375,55.035 -40.66,111.637 -44.142,171.441c-2.586,44.646 -1.634,89.459 2.25,134.128c2.295,26.353 4.131,52.751 5.877,79.149c1.153,17.475 0.593,35.141 2.866,52.437c3.851,29.197 0.358,58.147 -1.455,87.086c-1.019,16.222 -4.556,32.566 -9.113,48.228c-7.545,25.984 -20.655,49.46 -36.787,71.212c-2.955,3.985 -5.295,8.43 -9.258,14.822c6.583,0.19 10.501,0.549 14.386,0.358c25.939,-1.22 51.396,1.769 76.406,8.665c22.289,6.157 44.702,11.934 66.745,18.886c12.796,4.053 24.293,3.515 34.951,-4.523c25.883,-19.513 51.598,-39.25 78.522,-60.005m573.498,-839.179c-1.31,24.875 -7.019,48.743 -17.128,71.458c-15.528,34.884 -33.63,68.357 -58.796,97.374c-15.136,17.453 -30.652,34.626 -46.974,50.949c-16.849,16.86 -35.578,31.861 -52.225,48.9c-23.946,24.517 -41.298,53.747 -56.053,84.511c-1.299,2.687 -1.511,5.9 -2.228,8.866c0.705,0.358 1.422,0.716 2.127,1.075c2.093,-1.847 4.377,-3.526 6.269,-5.564c24.372,-26.208 48.307,-52.84 73.193,-78.544c12.147,-12.561 26.219,-23.241 39.093,-35.13c19.58,-18.091 41.679,-32.611 64.45,-46.191c1.87,-1.108 4.321,-1.265 6.504,-1.858c0.381,0.683 0.772,1.355 1.164,2.038c-5.374,4.926 -10.77,9.807 -16.098,14.777c-14.442,13.49 -28.771,27.092 -43.28,40.504c-26.006,24.047 -52.818,47.254 -77.962,72.152c-25.413,25.166 -49.336,51.867 -73.663,78.108c-6.314,6.829 -12.415,14.039 -17.453,21.819c-28.805,44.455 -34.895,93.579 -28.525,144.987c1.064,8.643 5.598,10.691 13.49,6.28c8.777,-4.915 17.106,-10.624 25.513,-16.154c28.995,-19.043 57.531,-38.824 87.008,-57.083c32.029,-19.826 64.976,-38.153 97.408,-57.33c35.958,-21.271 71.861,-42.631 107.651,-64.192c25.222,-15.203 51.665,-28.592 74.133,-47.971c26.711,-23.039 46.448,-50.579 51.833,-86.37c1.993,-13.233 3.202,-26.689 3.493,-40.078c0.817,-38.253 -4.68,-75.925 -13.02,-113.126c-7.669,-34.212 -16.434,-68.189 -24.831,-102.233c-9.661,-39.138 -20.364,-77.951 -34.358,-115.824c-10.747,-29.085 -22.144,-57.856 -36.776,-85.216c-16.266,-30.428 -28.581,-62.278 -37.403,-95.661c-4.646,-17.61 -10.882,-34.872 -17.498,-51.855c-8.945,-22.927 -19.345,-45.284 -28.335,-68.178c-5.306,-13.524 -9.023,-27.652 -13.658,-41.444c-1.22,-3.638 -1.366,-8.307 -7.725,-9.919c-2.496,4.165 -5.262,8.407 -7.669,12.841c-14.072,25.872 -27.103,52.381 -42.34,77.548c-15.673,25.894 -35.309,48.967 -56.994,70.226c-8.945,8.777 -8.732,10.758 -0.828,20.565c34.615,42.933 63.151,89.571 85.306,140.106c1.657,3.784 4.254,7.142 6.415,10.702c2.642,-3.157 3.504,-5.542 3.616,-7.96c0.873,-19.367 1.198,-38.757 2.485,-58.091c1.825,-27.26 6.594,-54.05 15.203,-80.056c0.739,-2.217 2.194,-4.176 4.209,-7.915c1.422,4.668 2.441,7.378 3.056,10.187c4.87,21.853 9.807,43.683 14.419,65.592c6.157,29.197 12.673,58.337 17.8,87.713c3.325,19.065 5.508,38.466 6.28,57.8c0.974,24.898 0.034,49.874 -0.302,76.865m-239.473,714.265c14.576,-6.695 29.017,-13.703 43.739,-20.039c40.101,-17.263 79.742,-35.432 118.298,-55.986c31.693,-16.893 62.065,-35.712 90.445,-57.71c4.288,-3.325 9.012,-6.359 11.878,-14.374c-4.859,2.441 -7.725,3.728 -10.434,5.273c-12.964,7.378 -25.625,15.337 -38.869,22.166c-42.877,22.088 -87.623,39.832 -133.243,55.281c-36.395,12.326 -73.126,23.644 -109.812,35.085c-14.957,4.668 -30.148,8.575 -45.284,12.628c-3.291,0.873 -6.885,2.877 -12.997,-1.679c2.9,-1.534 5.206,-2.217 6.818,-3.661c31.66,-28.469 67.763,-50.019 106.073,-68.055c29.017,-13.669 58.158,-27.081 87.31,-40.459c32.544,-14.945 65.233,-29.566 97.733,-44.623c37.559,-17.397 75.163,-34.749 112.398,-52.84c19.961,-9.706 37.794,-22.648 50.546,-41.399c2.127,-3.135 3.594,-6.717 5.362,-10.087c-0.638,-0.504 -1.276,-0.996 -1.914,-1.489c-2.116,1.153 -4.545,1.959 -6.292,3.526c-16.233,14.542 -35.533,22.759 -56.177,28.995c-23.913,7.232 -47.959,14.453 -71.032,23.924c-85.228,34.962 -171.765,66.89 -254.306,108.144c-15.337,7.657 -30.562,15.673 -45.138,24.651c-25.189,15.539 -44.299,37.548 -61.371,61.315c-15.326,21.349 -32.611,41.108 -52.785,57.643c-37.783,30.965 -76.865,60.341 -115.219,90.601c-18.729,14.777 -38.175,28.894 -55.225,45.452c-20.543,19.961 -38.623,42.44 -58.236,63.386c-21.931,23.398 -42.989,47.87 -66.913,69.051c-40.257,35.656 -83.436,67.707 -131.575,92.426c-3.392,1.735 -6.348,4.31 -9.505,6.493c0.425,0.929 0.84,1.858 1.265,2.788c6.392,-1.411 12.863,-2.541 19.166,-4.288c52.527,-14.576 99.143,-41.153 143.196,-72.286c46.963,-33.193 89.874,-71.458 132.605,-109.868c28.01,-25.166 56.053,-50.288 84.366,-75.107c30.092,-26.375 62.782,-49.37 96.714,-70.394c40.347,-24.998 82.933,-45.799 128.418,-64.483m-1603.72,-918.462c40.515,-2.564 77.94,-15.729 114.514,-32.466c43.056,-19.692 86.302,-39.003 129.817,-57.677c28.29,-12.135 55.068,-26.331 78.858,-46.146c12.964,-10.803 21.73,-24.416 29.734,-38.78c1.052,-1.881 0.605,-4.601 0.84,-6.818c-1.78,-0.381 -2.552,-0.795 -3.202,-0.649c-1.444,0.325 -2.9,0.75 -4.209,1.422c-22.871,11.71 -47.333,18.494 -72.633,21.45c-35.891,4.198 -71.883,7.825 -107.931,10.4c-45.082,3.213 -90.008,7.713 -134.06,17.778c-56.714,12.941 -113.092,27.372 -169.616,41.164c-1.444,0.358 -2.911,0.739 -4.276,1.31c-6.314,2.62 -7.68,6.336 -2.463,10.792c6.986,5.978 14.721,11.464 22.939,15.539c16.166,8.016 33.854,11.542 51.575,14.33c34.279,5.407 68.693,9.549 103.498,9.247c3.773,-0.034 7.937,-0.84 12.908,3.37c-13.591,3.515 -25.771,4.523 -37.906,5.542c-12.247,1.03 -24.528,1.836 -36.809,2.093c-12.673,0.28 -25.413,0.47 -38.018,-0.582c-12.225,-1.019 -24.338,-3.56 -36.473,-5.62c-11.889,-2.038 -22.737,-8.643 -35.567,-9.493c-0.47,7.176 3.806,10.187 7.713,12.494c11.52,6.795 22.883,14.307 35.231,19.177c29.98,11.833 61.483,14.598 95.538,12.124m54.453,-330.634c-12.986,1.265 -26.062,1.97 -38.947,3.873c-47.601,7.042 -95.337,13.412 -142.647,22.065c-49.516,9.057 -98.606,20.442 -147.853,30.921c-3.784,0.806 -7.389,2.474 -11.083,3.739c-0.123,0.929 -0.246,1.858 -0.369,2.788c2.944,1.724 5.687,4.153 8.866,5.06c17.901,5.116 35.69,11.027 53.926,14.542c53.344,10.277 107.651,8.855 161.6,11.094c28.245,1.175 56.613,-0.761 84.937,-1.265c55.169,-0.974 110.338,-2.026 165.518,-2.832c22.009,-0.325 44.03,0.224 66.028,-0.19c13.781,-0.257 27.54,-1.5 41.298,-2.441c1.646,-0.112 3.224,-1.119 4.836,-1.702c0.112,-0.761 0.235,-1.511 0.347,-2.273c-4.288,-1.523 -8.452,-3.851 -12.863,-4.433c-16.244,-2.172 -32.544,-4.131 -48.877,-5.497c-27.103,-2.261 -54.262,-3.985 -81.388,-5.989c-6.325,-0.459 -12.617,-1.187 -18.931,-1.679c-5.9,-0.459 -11.811,-0.784 -17.711,-1.175c4.131,-2.351 8.139,-3.224 12.191,-3.482c25.659,-1.679 51.352,-2.955 76.988,-4.892c29.991,-2.25 59.099,-8.296 85.933,-22.67c3.929,-2.105 7.859,-4.4 11.296,-7.21c4.825,-3.941 4.232,-7.232 -1.623,-9.964c-3.359,-1.567 -6.986,-2.631 -10.557,-3.661c-38.612,-11.117 -78.13,-16.02 -118.186,-16.781c-17.162,-0.325 -34.346,-0.549 -51.486,0.056c-23.073,0.817 -46.123,2.485 -71.245,3.997m987.927,54.094c-37.279,-7.601 -74.413,-15.998 -111.861,-22.636c-78.567,-13.904 -156.719,-30.596 -236.461,-36.977c-17.822,-1.433 -35.734,-3.045 -53.568,-2.698c-21.203,0.414 -42.519,1.713 -63.498,4.702c-25.805,3.683 -51.329,9.359 -76.899,14.565c-3.213,0.649 -5.945,3.661 -8.9,5.575c2.004,2.955 3.403,6.773 6.135,8.71c7.266,5.139 14.789,10.109 22.771,13.983c15.908,7.713 33.137,11.273 50.434,14.341c34.234,6.057 68.905,7.355 103.498,9.449c3.168,0.19 6.325,0.493 9.482,0.739c0.011,0.784 0.034,1.578 0.045,2.362c-19.468,1.175 -38.959,2.261 -58.416,3.56c-19.703,1.321 -39.406,2.754 -59.087,4.366c-19.323,1.59 -38.891,1.713 -57.61,8.766c10.49,2.81 20.923,4.433 31.57,4.724c26.823,0.739 53.647,1.422 80.47,2.205c50.657,1.478 101.315,3 151.984,4.512c24.584,0.728 49.157,1.881 73.753,2.093c49.952,0.425 99.938,1.545 149.722,-4.478c25.625,-3.101 50.904,-7.691 75.13,-16.916c4.243,-1.612 8.139,-4.097 12.203,-6.191c0.202,-0.952 0.414,-1.903 0.616,-2.866c-1.355,-0.638 -2.653,-1.5 -4.075,-1.892c-11.856,-3.258 -23.733,-6.437 -37.436,-9.997m-199.988,279.528c20.845,-1.993 41.522,-4.702 61.226,-12.382c12.919,-5.027 25.413,-10.837 36.104,-19.849c2.026,-1.713 3.381,-4.232 5.967,-7.579c-10.311,-1.578 -17.822,2.496 -25.715,3.75c-8.105,1.287 -16.132,3.09 -24.26,4.176c-8.128,1.086 -16.311,1.746 -24.495,2.25c-8.184,0.504 -16.39,0.716 -24.595,0.828c-8.575,0.112 -17.173,0.224 -25.737,-0.168c-8.184,-0.369 -16.356,-1.231 -24.506,-2.161c-8.139,-0.929 -16.278,-2.06 -24.36,-3.392c-7.59,-1.231 -15.404,-1.892 -22.144,-6.415c19.591,-1.243 38.947,-1.019 58.292,-1.287c30.294,-0.425 60.263,-3.829 89.818,-10.669c13.557,-3.135 26.431,-8.105 38.074,-15.74c3.448,-2.261 8.083,-6.168 8.15,-9.415c0.112,-5.463 -6.437,-4.948 -10.512,-5.989c-22.771,-5.81 -45.709,-10.994 -68.379,-17.173c-55.83,-15.192 -111.894,-29.443 -169.19,-37.828c-40.571,-5.945 -81.421,-9.986 -122.115,-15.203c-37.481,-4.803 -74.436,-11.811 -109.006,-28.077c-2.071,-0.974 -4.724,-0.728 -7.781,-1.153c0.101,8.116 4.948,12.516 8.99,17.14c19.401,22.166 42.81,39.35 68.581,53.244c18.371,9.908 37.302,18.763 55.841,28.335c32.152,16.602 64.002,33.764 96.333,50.008c48.161,24.192 99.177,36.608 155.42,34.749m-1830.818,725.796c-34.72,-12.572 -69.685,-24.506 -104.09,-37.884c-31.332,-12.169 -61.595,-26.767 -88.656,-47.187c-1.229,-0.929 -3.037,-1.086 -6.897,-2.385c2.636,4.993 3.891,8.016 5.688,10.669c9.698,14.33 21.456,26.834 35.174,37.302c26.527,20.241 54.905,37.414 86.361,48.922c51.844,18.964 103.838,37.515 155.725,56.367c73.059,26.543 136.706,68.189 191.999,122.362c57.274,56.132 113.338,113.506 170.377,169.896c17.207,17.016 35.522,32.981 53.971,48.665c38.175,32.454 79.216,60.89 122.697,85.843c23.677,13.591 47.892,25.905 73.775,34.749c3.202,1.097 6.605,1.634 9.919,2.429c0.28,-0.851 0.56,-1.713 0.84,-2.575c-3.067,-1.814 -6.124,-3.627 -9.191,-5.452c-3.538,-2.082 -7.109,-4.109 -10.59,-6.269c-37.279,-23.151 -70.26,-51.62 -101.55,-82.171c-12.807,-12.494 -25.972,-24.629 -38.623,-37.268c-21.338,-21.327 -41.937,-43.403 -63.688,-64.293c-25.256,-24.271 -51.441,-47.579 -77.178,-71.368c-30.103,-27.831 -59.759,-56.165 -90.321,-83.492c-52.015,-46.493 -109.989,-84.399 -171.741,-116.641c-45.765,-23.901 -94.068,-41.735 -143.999,-60.218m1831.445,250.724c10.098,-3.862 20.364,-7.355 30.271,-11.665c39.026,-16.949 70.965,-42.048 92.045,-79.865c10.658,-19.11 17.632,-39.44 22.379,-60.632c5.553,-24.808 8.564,-49.941 9.549,-75.354c0.996,-26.051 2.519,-52.079 3.627,-78.13c0.146,-3.482 -0.761,-7.008 -1.31,-11.553c-9.068,3.862 -13.692,10.355 -17.99,16.513c-23.711,33.899 -47.086,68.043 -70.394,102.211c-18.908,27.73 -37.335,55.774 -56.412,83.381c-16.322,23.599 -33.607,46.549 -49.84,70.226c-12.27,17.901 -21.808,37.358 -28.469,58.091c-1.388,4.332 -4.232,8.922 0.235,14.262c10.367,-5.038 20.431,-10.501 30.943,-14.867c11.005,-4.568 22.457,-8.072 35.365,-12.617m-1971.985,-134.766c7.13,6.56 14.02,13.412 21.432,19.636c37.164,31.234 75.724,60.487 117.833,84.948c50.655,29.432 105.591,48.609 160.299,68.413c2.031,0.728 4.561,0.09 7.887,0.09c-4.163,-11.352 -11.907,-17.89 -19.146,-24.651c-29.594,-27.652 -62.984,-50.243 -97.727,-70.663c-82.333,-48.374 -164.89,-96.344 -241.569,-153.607c-38.168,-28.503 -72.424,-60.934 -101.146,-99.065c-18.174,-24.136 -36.328,-48.284 -54.841,-72.152c-7.297,-9.415 -15.431,-18.181 -23.443,-27.014c-1.987,-2.194 -4.984,-3.459 -7.516,-5.161c-0.778,0.504 -1.557,1.008 -2.335,1.5c0.64,4.601 0.607,9.415 2.039,13.747c5.961,18.058 11.891,36.149 18.807,53.848c3.355,8.587 8.112,16.882 13.534,24.36c13.831,19.087 30.089,35.936 48.648,50.624c18.126,14.341 36.152,28.85 53.611,43.996c34.353,29.79 68.284,60.084 103.636,91.15m978.852,-69.812c-15.158,-28.693 -30.294,-57.397 -45.519,-86.056c-1.399,-2.642 -3.37,-4.982 -5.071,-7.467c-0.75,0.313 -1.5,0.627 -2.261,0.94c-0.213,4.019 -0.784,8.049 -0.582,12.035c1.489,30.148 2.161,60.386 4.959,90.422c4.041,43.134 15.001,84.276 38.78,121.432c19.636,30.652 45.228,53.758 80.134,64.618c22.032,6.863 44.87,11.094 67.372,16.39c1.175,0.28 2.608,-0.504 6.023,-1.265c-5.094,-4.948 -8.855,-8.833 -12.863,-12.471c-14.072,-12.774 -28.85,-24.842 -42.194,-38.321c-22.894,-23.118 -37.738,-51.699 -51.587,-80.716c-12.371,-25.928 -24.282,-52.057 -37.19,-79.541m2099.424,30.059c12.538,-11.128 25.513,-21.808 37.548,-33.473c22.457,-21.786 44.265,-44.22 66.521,-66.219c23.7,-23.42 39.552,-51.284 47.31,-83.604c4.87,-20.297 8.967,-40.783 13.288,-61.214c0.56,-2.676 0.414,-5.486 0.605,-8.24c-3.067,2.026 -4.433,4.456 -5.396,7.042c-6.919,18.517 -12.941,37.403 -20.868,55.471c-6.404,14.609 -13.848,29.085 -22.939,42.149c-28.301,40.66 -63.397,75.13 -101.259,106.845c-23.431,19.625 -46.571,39.642 -70.629,58.483c-35.22,27.562 -70.585,55.012 -106.946,81.041c-31.85,22.782 -66.454,41.276 -100.822,60.128c-20.498,11.24 -39.283,25.659 -58.651,38.925c-3.448,2.351 -7.422,5.127 -7.042,11.979c4.31,-0.392 8.329,-0.134 11.979,-1.198c20.744,-6.045 41.556,-11.9 62.054,-18.74c54.083,-18.035 99.994,-49.169 140.889,-88.474c17.184,-16.513 35.421,-31.939 53.322,-47.691c19.871,-17.475 39.91,-34.761 61.035,-53.21m-413.13,-892.445c7.747,8.564 15.986,16.725 23.163,25.737c22.983,28.816 46.381,57.374 68.077,87.142c18.405,25.256 34.649,52.09 51.945,78.164c2.105,3.168 4.758,5.967 7.165,8.934c0.873,-0.269 1.735,-0.549 2.608,-0.828c0.526,-3.482 1.287,-6.941 1.545,-10.434c2.922,-38.466 -7.456,-73.887 -25.704,-107.159c-24.584,-44.836 -58.326,-82.015 -99.58,-111.793c-43.47,-31.391 -88.15,-61.114 -132.359,-91.474c-1.556,-1.064 -3.683,-1.287 -5.542,-1.903c1.802,5.676 4.5,10.076 7.915,13.826c18.046,19.826 36.283,39.474 54.419,59.21c15.124,16.445 30.193,32.936 46.347,50.579m-9.527,61.125c-21.517,-30.327 -47.646,-56.21 -76.764,-79.126c-23.431,-18.427 -47.086,-36.563 -70.685,-54.777c-2.541,-1.97 -5.329,-3.616 -8.004,-5.407c-0.582,4.411 0.347,7.859 1.982,10.915c5.821,10.837 11.508,21.763 17.912,32.242c30.909,50.713 67.103,97.643 104.091,143.946c29.085,36.417 58.326,72.656 83.145,112.208c3.56,5.676 7.747,10.96 11.956,16.177c1.455,1.791 3.84,2.832 6.045,4.4c7.803,-26.006 -28.603,-120.022 -69.678,-180.576m-2338.272,-15.27c3.626,-4.254 7.005,-8.743 10.919,-12.718c16.721,-16.96 33.815,-33.551 50.375,-50.669c29.914,-30.909 64.014,-56.893 97.375,-83.784c12.169,-9.807 23.644,-20.476 35.287,-30.909c2.541,-2.284 4.433,-5.284 6.639,-7.948c-0.627,-0.661 -1.254,-1.321 -1.881,-1.982c-6.034,4.041 -11.878,8.407 -18.147,12.057c-29.947,17.464 -59.994,34.749 -90.018,52.068c-31.723,18.304 -62.144,38.712 -89.333,63.162c-44.977,40.425 -82.795,86.638 -108.972,141.83c-11.205,23.621 -17.664,48.183 -20.041,74.01c-0.326,3.549 -1.254,7.59 4.575,10.243c2.596,-3.571 5.444,-7.243 8.036,-11.083c13.753,-20.397 27.161,-41.019 41.217,-61.203c22.381,-32.13 46.851,-62.647 73.97,-93.075m823.161,252.425c-0.336,1.455 -0.705,2.9 -0.996,4.366c-10.378,52.337 -0.448,99.624 36.944,138.908c14.05,14.755 30.618,27.126 46.213,40.38c1.69,1.444 4.534,1.534 8.542,2.776c-0.336,-5.385 0.034,-9.437 -0.963,-13.132c-2.116,-7.915 -4.512,-15.796 -7.523,-23.398c-13.915,-35.141 -25.066,-71.044 -29.622,-108.692c-2.06,-16.994 -3.526,-34.1 -4.456,-51.195c-0.694,-12.975 -0.246,-26.017 -0.09,-39.026c0.112,-9.684 0.75,-19.356 0.761,-29.029c0,-2.597 -1.444,-5.194 -2.295,-8.038c-17.184,9.012 -35.634,43.392 -46.515,86.079m-42.843,-1169.238c17.386,-19.465 34.38,-39.2 47.971,-61.666c22.771,-37.633 15.091,-19.929 20.196,-28.863c12.057,-21.093 0.235,-28.735 -15.908,-19.113c-15.046,8.967 -4.814,1.364 -19.289,11.201c-15.718,10.679 -32.354,20.032 -47.814,31.044c-26.387,18.79 -53.322,36.932 -76.563,59.802c-15.662,15.417 -31.626,30.534 -47.31,45.925c-1.825,1.788 -2.776,4.468 -4.131,6.735c0.537,0.639 1.086,1.278 1.623,1.918c3.359,-1.158 6.84,-2.036 10.042,-3.516c20.979,-9.688 41.869,-19.557 62.849,-29.234c3.795,-1.751 7.411,-5.126 13.68,-2.399c-2.127,3.556 -3.739,6.76 -5.821,9.615c-6.146,8.431 -12.572,16.654 -18.684,25.106c-2.228,3.072 -5.855,5.779 -4.68,10.56c12.46,-1.967 56.098,-31.618 83.839,-57.115m-940.85,479.927c1.476,8.351 -0.984,17.565 5.67,25.054c1.996,-5.385 3.002,-10.747 3.685,-16.143c0.747,-5.911 1.018,-11.878 1.8,-17.789c4.983,-37.582 16.396,-73.395 29.937,-108.636c25.337,-65.95 61.885,-124.713 112.18,-174.555c33.444,-33.138 69.564,-63.031 109.753,-87.796c2.62,-1.617 4.937,-3.736 7.4,-5.622c-4.489,-0.95 -8.172,-0.449 -11.385,1.036c-16.581,7.635 -33.832,14.208 -49.388,23.576c-42.993,25.893 -81.813,56.982 -114.774,95.274c-32.659,37.94 -59.221,79.272 -77.044,126.257c-16.865,44.455 -22.382,90.176 -17.834,139.344m2641.698,-230.416c39.395,57.419 64.024,121.097 79.384,188.58c4.713,20.7 7.691,41.802 11.598,62.681c0.772,4.109 0.392,8.922 6.448,12.841c0.761,-5.038 1.746,-8.844 1.847,-12.673c0.437,-16.02 0.896,-32.063 0.784,-48.083c-0.09,-12.662 -0.414,-25.379 -1.634,-37.974c-3.325,-34.413 -13.009,-67.137 -25.726,-99.266c-17.766,-44.892 -45.597,-83.067 -78.343,-117.496c-23.33,-24.517 -49.146,-46.828 -77.626,-65.557c-16.501,-10.854 -33.35,-21.188 -50.21,-31.488c-3.37,-2.061 -7.019,-5.109 -13.557,-2.739c57.52,42.833 107.304,91.059 147.035,151.174m-863.763,-352.779c-5.362,-3.379 -4.355,-2.523 -9.941,-5.471c-19.558,-10.343 -31.447,1.842 -24.136,18.683c6.84,15.757 11.564,22.784 13.971,27.101c9.046,16.233 23.644,35.217 44.198,59.288c14.33,16.786 29.779,32.326 47.601,45.348c5.676,4.147 11.967,7.587 18.326,10.601c2.9,1.373 6.661,0.924 11.744,1.493c-4.086,-18.192 -18.83,-27.761 -26.118,-44.977c5.978,2.397 9.617,3.685 13.121,5.294c14.218,6.537 28.335,13.306 42.619,19.674c3.403,1.515 7.389,3.86 11.721,-0.13c-1.433,-2.43 -2.441,-4.818 -4.019,-6.721c-5.486,-6.579 -11.184,-12.988 -16.793,-19.465c-28.155,-32.519 -46.594,-57.127 -81.197,-82.67c-15.875,-11.719 -17.811,-13.536 -35.578,-25.418m-1718.181,1943.592c20.959,8.81 41.924,17.61 62.878,26.431c44.264,18.629 84.653,44.064 123.467,71.939c19.345,13.893 37.167,29.891 55.762,44.836c12.774,10.266 25.625,20.442 38.612,30.428c2.72,2.082 5.62,5.161 11.285,2.664c-2.004,-3.37 -3.526,-6.594 -5.631,-9.37c-26.924,-35.432 -57.229,-67.864 -90.03,-97.811c-13.69,-12.505 -28.954,-23.577 -44.586,-33.607c-34.828,-22.356 -73.569,-36.193 -113.024,-47.635c-32.216,-9.337 -64.967,-16.826 -97.468,-25.189c-11.557,-2.967 -23.052,-6.191 -34.639,-9.034c-2.462,-0.605 -5.2,-0.09 -7.812,-0.09c-0.21,0.918 -0.422,1.825 -0.633,2.743c9.422,5.049 18.502,10.926 28.332,14.979c23.765,9.818 47.88,18.785 73.487,28.715m2919.922,-604.811c8.273,20.386 16.345,40.862 24.875,61.147c12.897,30.686 28.144,60.117 48.295,86.773c2.765,3.661 6.404,6.65 10.59,10.926c1.59,-3.728 3.045,-5.62 3.112,-7.568c0.347,-9.314 0.403,-18.651 0.403,-27.965c0.022,-54.889 -17.162,-104.27 -49.504,-148.121c-20.117,-27.282 -42.026,-53.255 -63.207,-79.753c-0.795,-0.996 -2.284,-1.444 -3.638,-2.261c-2.709,12.482 4.59,39.16 29.073,106.823m-33.193,-264.46c22.233,35.432 42.855,71.626 55.583,111.838c4.276,13.479 9.74,26.599 14.867,39.798c1.399,3.627 3.526,6.974 5.598,10.971c6.627,-4.176 6.012,-9.728 6.191,-14.677c0.716,-19.479 -1.545,-38.724 -5.754,-57.699c-6.001,-27.081 -15.863,-52.74 -28.626,-77.391c-21.215,-40.951 -49.426,-76.238 -85.239,-105.211c-18.528,-14.99 -37.94,-28.894 -57.061,-43.146c-1.545,-1.153 -3.952,-1.153 -5.687,-1.612c-4.165,4.735 -2.765,9.281 -0.694,13.121c3.862,7.187 7.747,14.565 12.908,20.778c9.034,10.882 18.696,21.293 28.715,31.256c21.774,21.651 39.921,46.213 59.199,71.973m-2638.353,-87.355c-12.382,22.547 -25.222,44.858 -37.044,67.696c-27.115,52.348 -51.517,105.938 -72.566,161.029c-1.079,2.832 -1.445,5.922 -2.143,8.9c0.799,0.448 1.598,0.896 2.397,1.355c2.86,-2.664 6.029,-5.049 8.536,-8.004c31.889,-37.559 62.276,-76.193 86.177,-119.552c18.629,-33.798 34.257,-68.76 42.631,-106.61c4.758,-21.494 8.419,-43.19 8.139,-65.334c-0.045,-3.37 1.03,-7.378 -3.571,-10.411c-10.792,23.554 -21.304,46.504 -32.555,70.932m1395.795,347.796c-6.471,15.852 -12.74,31.794 -19.513,47.523c-3.974,9.236 -8.956,18.035 -13.076,27.215c-1.702,3.806 -4.232,8.016 -0.459,13.177c2.765,-1.243 5.575,-2.093 7.926,-3.627c10.613,-6.93 21.528,-13.49 31.525,-21.226c26.264,-20.319 45.799,-45.228 47.971,-79.854c0.828,-13.266 0.28,-26.89 -1.769,-40.011c-5.049,-32.331 -19.491,-60.084 -44.075,-82.093c-2.81,-2.508 -6.392,-4.153 -9.617,-6.202c-0.784,0.481 -1.567,0.952 -2.351,1.422c0.257,3.84 0.168,7.736 0.828,11.497c1.679,9.549 3.974,18.987 5.519,28.547c5.497,34.089 7.467,68.144 -2.911,103.632m-1558.593,-141.192c7.314,-13.4 14.557,-26.834 21.956,-40.19c16.604,-29.98 33.714,-59.681 49.734,-89.963c6.754,-12.774 11.419,-26.667 16.721,-40.168c1.378,-3.515 3.46,-7.512 -0.188,-11.979c-1.749,1.142 -3.465,1.858 -4.621,3.09c-16.566,17.632 -33.468,34.984 -49.463,53.12c-19.232,21.819 -36.944,44.791 -50.162,70.988c-16.769,33.238 -26.039,68.917 -34.832,104.741c-3.194,13.02 -5.416,26.275 -7.889,39.451c-0.629,3.359 -2.332,7.266 2.345,10.199c7.262,-6.057 10.409,-14.531 14.612,-22.2c13.777,-25.155 27.335,-50.422 41.788,-77.089m1417.905,677.198c1.332,-4.03 2.676,-8.072 4.668,-14.095c-3.65,1.556 -5.172,1.836 -6.18,2.698c-7.322,6.325 -14.386,12.941 -21.819,19.143c-17.979,15.013 -35.914,30.092 -54.24,44.691c-12.516,9.964 -25.726,19.054 -38.466,28.749c-8.094,6.157 -7.915,8.922 0.291,15.248c1.175,0.907 2.474,1.657 3.638,2.586c16.804,13.524 33.943,26.667 50.299,40.716c15.819,13.591 15.908,13.949 20.935,-6.952c10.736,-44.567 23.7,-88.452 40.873,-132.784m-410.734,-14.486c-4.086,-2.72 -7.198,-7.422 -14.542,-6.93c1.153,4.31 1.825,7.848 3.034,11.184c16.3,44.937 30.059,90.579 38.444,137.721c1.881,10.613 5.743,11.721 14.072,5.015c11.296,-9.113 22.67,-18.181 34.38,-26.756c9.617,-7.042 19.927,-13.109 29.622,-20.039c5.821,-4.153 5.9,-6.974 0.582,-11.52c-6.504,-5.564 -13.356,-10.77 -20.218,-15.897c-29.611,-22.11 -57.43,-46.303 -85.373,-72.779m1047.675,-1716.12c0.672,-1.786 2.407,-4.15 1.814,-5.252c-2.105,-3.891 -4.556,-7.821 -7.691,-10.887c-11.441,-11.161 -22.815,-22.455 -34.951,-32.836c-32.734,-28.01 -69.185,-50.777 -107.595,-69.74c-43.537,-21.499 -90.086,-35.333 -137.374,-46.37c-3.806,-0.888 -7.736,-1.248 -11.609,-1.854c-0.257,0.756 -0.515,1.511 -0.772,2.268c2.25,1.559 4.355,3.427 6.784,4.631c32.354,16.048 64.842,31.835 97.117,48.049c16.636,8.358 33.328,16.728 49.258,26.325c37.324,22.486 74.1,45.873 111.301,68.546c10.434,6.355 21.606,11.496 33.719,17.119m-1600.697,-61.915c-18.237,15.399 -36.305,30.992 -50.266,50.617c-3.549,4.991 -7.803,9.88 -7.467,17.378c7.601,0.385 12.281,-4.294 17.184,-7.839c17.531,-12.665 34.805,-25.698 52.258,-38.476c48.889,-35.801 101.069,-66.139 155.656,-92.272c22.177,-10.618 45.161,-19.567 67.707,-29.417c4.825,-2.11 9.393,-4.838 14.072,-7.282c-0.403,-0.753 -0.806,-1.506 -1.22,-2.259c-90.814,16.481 -173.624,51.333 -247.925,109.55m1080.252,-3.141c9.303,24.833 20.677,48.629 34.772,71.14c4.221,6.751 9.023,11.586 17.632,11.524c20.117,-0.143 40.224,0.035 60.341,-0.088c3.146,-0.019 6.963,0.528 8.788,-5.08c-2.25,-2.059 -4.803,-4.537 -7.501,-6.854c-16.916,-14.532 -34.637,-28.242 -50.646,-43.72c-24.887,-24.058 -48.665,-49.254 -69.51,-77.041c-2.474,-3.309 -4.691,-7.651 -11.43,-7.061c2.9,19.786 10.781,37.429 17.554,57.18m-438.207,1426.474c-27.148,5.463 -53.456,13.356 -77.425,27.652c-5.721,3.414 -11.318,7.243 -16.311,11.62c-6.09,5.351 -5.262,8.631 2.149,12.438c0.336,0.168 0.672,0.336 1.019,0.47c16.569,6.482 33.551,9.84 51.363,6.65c41.131,-7.389 75.074,-29.476 108.267,-53.076c1.198,-0.851 2.25,-1.993 3.112,-3.179c2.888,-3.985 2.049,-7.187 -2.743,-8.407c-3.526,-0.907 -7.411,-1.287 -11.027,-0.918c-18.864,1.959 -37.682,4.232 -58.404,6.751m1649.407,-562.046c17.554,10.546 35.085,21.125 52.695,31.57c3.336,1.982 6.661,4.948 12.315,2.407c-1.064,-3.235 -1.534,-6.56 -3.135,-9.214c-4.422,-7.31 -9.236,-14.397 -14.05,-21.472c-11.397,-16.703 -24.875,-31.424 -40.638,-44.243c-28.738,-23.375 -60.789,-41.612 -92.292,-60.744c-1.265,-0.772 -3.146,-0.56 -5.833,-0.963c1.075,3.336 1.388,5.598 2.463,7.422c8.284,14.117 16.322,28.402 25.278,42.082c4.422,6.773 9.908,13.288 16.188,18.315c14.789,11.856 30.361,22.737 47.008,34.839m-1956.52,530.163c11.699,11.475 23.375,22.961 35.141,34.358c0.638,0.616 2.06,0.403 3.414,0.627c3.873,-4.332 2.06,-9.169 1.276,-13.759c-6.627,-39.216 -18.595,-76.831 -35.679,-112.644c-7.68,-16.076 -17.576,-31.1 -26.778,-46.415c-2.116,-3.515 -5.519,-6.258 -8.329,-9.359c-0.851,0.381 -1.702,0.761 -2.552,1.153c0,2.754 -0.28,5.553 0.045,8.273c2.698,22.569 5.116,45.183 8.374,67.674c3.56,24.439 8.329,48.609 25.088,70.092m-1271.392,-129.191c-12.986,27.92 -21.159,57.285 -25.059,87.735c-1.886,14.733 -2.419,29.644 -3.158,44.5c-0.202,4.075 -0.686,8.978 4.379,11.441c18.399,-26.723 82.471,-213.523 79.574,-233.259c-2.382,2.631 -4.506,4.534 -6.092,6.818c-4.678,6.717 -9.46,13.412 -13.63,20.442c-11.943,20.162 -23.605,40.492 -36.014,62.323m1600.436,360.401c1.825,-0.381 3.661,-0.694 5.463,-1.153c15.628,-4.041 28.67,-12.426 39.25,-24.394c6.639,-7.512 5.609,-13.288 -3.146,-18.069c-5.821,-3.191 -12.113,-6.191 -18.55,-7.433c-29.734,-5.709 -59.255,-5.049 -88.071,5.284c-12.46,4.467 -14.24,9.516 -6.068,19.67c17.822,22.155 40.951,31.256 71.122,26.096m242.417,-171.127c-15.427,-5.62 -30.63,-11.979 -46.336,-16.636c-12.807,-3.784 -26.152,-5.989 -39.384,-8.016c-7.769,-1.198 -10.277,2.496 -8.172,9.975c0.403,1.422 1.019,2.799 1.657,4.153c17.755,37.929 53.467,56.244 91.06,49.605c14.285,-2.53 28.312,-6.616 42.373,-10.288c2.944,-0.772 5.542,-2.832 8.687,-4.523c-2.922,-6.538 -7.781,-8.721 -12.516,-10.568c-11.822,-4.601 -23.789,-8.799 -37.369,-13.703m749.742,789.014c-6.661,2.385 -13.21,5.217 -20.017,7.086c-31.268,8.575 -62.625,16.86 -93.937,25.312c-3.717,1.008 -7.333,2.407 -11.475,3.784c1.478,1.791 1.825,2.631 2.385,2.832c1.399,0.47 2.888,0.649 4.344,0.94c15.583,3.09 31.145,1.69 46.75,0.022c31.38,-3.325 61.886,-10.143 90.523,-23.588c25.648,-12.035 51.172,-24.472 74.592,-40.627c23.33,-16.098 46.325,-32.667 66.263,-53.02c2.62,-2.687 6.404,-4.892 6.359,-11.161c-4.489,2.9 -7.881,5.049 -11.217,7.243c-15.259,10.042 -30.159,20.677 -45.821,30.047c-34.022,20.353 -70.271,36.104 -108.748,51.128m-809.467,-648.606c18.281,14.733 38.5,16.356 60.151,9.079c12.572,-4.221 23.7,-10.938 34.033,-19.032c4.041,-3.157 9.124,-6.594 8.094,-12.505c-1.075,-6.112 -7.4,-6.863 -12.191,-8.43c-21.382,-6.986 -43.403,-11.385 -65.816,-12.337c-12.538,-0.537 -25.323,0.862 -37.75,2.911c-10.378,1.713 -12.628,7.176 -6.807,16.031c5.463,8.329 12.65,15.528 20.285,24.282m1009.488,-493.297c-43.661,-72.029 -87.321,-144.058 -130.993,-216.075c-5.217,-8.609 -10.467,-17.196 -15.897,-25.67c-1.612,-2.519 -2.821,-6.057 -8.172,-5.844c0.862,4.243 1.411,7.837 2.34,11.318c14.363,54.453 40.392,103.162 72.812,148.815c23.151,32.611 51.564,60.767 76.731,91.676c1.131,1.388 3.09,2.116 6.46,4.344c-1.411,-3.941 -2.015,-5.642 -3.28,-8.564m-1912.132,1174.134c-9.65,-2.844 -19.311,-5.709 -28.973,-8.531c-47.713,-13.971 -93.881,-31.973 -138.796,-53.199c-26.711,-12.628 -51.318,-28.872 -75.69,-45.452c-3.213,-2.183 -6.56,-4.153 -11.553,-7.299c5.989,13.983 58.449,55.203 87.377,70.864c32.869,17.8 66.409,33.809 102.67,43.683c35.511,9.661 99.569,18.181 110.394,13.389c-15.259,-4.523 -29.476,-8.732 -45.429,-13.456m1294.144,-780.64c0.112,2.071 0.235,4.142 0.459,8.072c30.428,-11.923 54.061,-30.271 72.723,-55.259c23.711,-31.738 37.996,-60.565 35.902,-72.958c-8.139,1.175 -14.274,6.18 -20.241,10.96c-26.353,21.069 -49.325,45.474 -69.734,72.286c-8.161,10.725 -15.013,22.289 -19.11,36.899m-51.911,0.75c2.351,-12.751 5.172,-25.446 6.851,-38.287c0.795,-6.001 0.515,-12.639 -5.586,-18.416c-3.706,2.441 -7.691,4.366 -10.792,7.243c-11.083,10.277 -19.558,22.524 -24.248,36.921c-9.684,29.7 -18.998,59.524 -28.223,89.381c-1.086,3.493 -0.672,7.445 -0.985,11.654c8.508,-1.802 8.419,-1.892 13.77,-6.795c23.991,-21.942 39.552,-49.012 49.213,-81.701m-969.142,-59.748c5.765,5.754 10.848,12.527 17.453,17.061c16.266,11.161 33.204,21.349 49.975,31.76c1.634,1.008 3.997,0.84 6.404,1.287c2.62,-8.161 -0.761,-14.542 -3.706,-20.812c-7.075,-14.957 -16.983,-28.055 -28.066,-40.19c-16.065,-17.61 -32.063,-35.376 -51.844,-49.057c-3.482,-2.407 -7.445,-4.109 -11.329,-6.213c-5.161,13.143 3.47,39.709 21.114,66.163m155.779,126.358c5.194,5.821 8.329,13.871 18.472,17.039c0,-4.411 0.493,-7.725 -0.078,-10.848c-4.937,-26.711 -9.314,-53.568 -15.438,-80.011c-3.672,-15.897 -9.762,-31.346 -20.935,-43.996c-3.135,-3.538 -6.516,-9.068 -11.587,-6.224c-2.877,1.612 -4.859,7.59 -4.657,11.475c0.795,15.931 1.69,31.973 4.232,47.702c3.829,23.655 16.524,43.661 29.991,64.864m1443.094,475.911c22.077,-11.945 42.093,-26.801 61.461,-42.698c33.07,-27.137 51.296,-44.467 53.479,-52.102c-1.108,-0.123 -2.239,-0.504 -3.235,-0.28c-2.53,0.571 -5.049,1.299 -7.501,2.172c-26.319,9.247 -50.277,23.017 -71.794,40.492c-28.055,22.793 -55.203,46.706 -82.686,70.193c-0.907,0.772 -1.187,2.261 -2.877,5.687c19.625,-6.034 36.126,-13.266 53.154,-23.465m-910.905,-664.503c4.097,-4.041 1.523,-8.374 0.414,-12.538c-9.057,-34.111 -53.389,-61.685 -81.824,-65.2c-1.299,-0.157 -2.743,0.716 -5.206,1.411c0.605,3.482 0.627,6.84 1.78,9.751c3.157,7.96 6.012,16.21 10.367,23.521c16.445,27.596 40.481,43.045 74.469,43.056m275.442,31.256c20.117,-27.674 32.589,-58.55 38.332,-92.18c0.996,-5.844 1.175,-11.856 1.231,-17.8c0.022,-2.205 -1.411,-4.422 -2.183,-6.639c-0.929,-0.481 -1.858,-0.974 -2.788,-1.455c-1.59,2.485 -3.045,5.071 -4.803,7.433c-16.065,21.662 -30.786,44.288 -40.022,69.633c-6.348,17.408 -9.796,35.902 -14.072,54.016c-1.008,4.265 -2.34,9.471 2.687,13.479c9.158,-6.963 14.408,-16.501 21.618,-26.487m-990.11,-157.156c-7.433,-12.135 -13.098,-25.491 -24.36,-35.611c-1.534,4.568 -2.474,8.9 -1.769,12.941c2.765,15.774 4.881,31.805 9.46,47.075c4.467,14.878 10.926,29.286 17.811,43.258c7.064,14.341 18.606,25.043 32.566,32.913c3.336,1.881 6.829,4.758 12.415,1.22c-11.486,-35.141 -28.57,-67.685 -46.123,-101.796m495.816,90.601c5.004,-5.015 10.266,-9.796 14.934,-15.113c7.019,-8.016 6.392,-12.695 -2.418,-17.968c-5.743,-3.437 -11.878,-6.236 -17.957,-9.068c-6.919,-3.235 -12.874,-1.735 -18.248,3.728c-9.158,9.303 -18.629,18.281 -27.82,27.54c-2.608,2.631 -5.172,5.486 -6.974,8.676c-4.254,7.568 -2.34,14.554 5.833,17.162c6.112,1.948 13.255,2.508 19.591,1.489c11.923,-1.914 22.592,-7.456 33.059,-16.445m527.397,209.392c-23.207,23.386 -37.682,59.009 -32.208,82.295c3.325,-4.254 6.135,-7.445 8.486,-10.938c16.647,-24.719 33.708,-49.079 54.128,-70.965c9.617,-10.311 18.158,-21.64 26.879,-32.745c2.317,-2.967 3.482,-6.84 5.575,-11.117c-13.468,1.388 -37.974,18.629 -62.86,43.47m-1247.26,703.126c6.168,1.489 12.281,3.213 18.505,4.377c6.09,1.142 12.203,3.638 18.584,1.31c-3.75,-2.217 -7.646,-3.303 -11.52,-4.444c-10.008,-2.955 -20.241,-5.318 -29.969,-8.99c-49.885,-18.808 -99.68,-37.862 -147.08,-62.502c-3.638,-1.892 -7.344,-3.717 -11.184,-5.083c-1.657,-0.593 -3.739,0.078 -6.739,0.224c1.668,2.385 2.295,3.806 3.359,4.713c2.844,2.396 5.788,4.691 8.844,6.807c47.097,32.611 99.904,51.161 157.2,63.588m-811.475,-1353.556c16.64,-21.416 33.554,-42.631 49.785,-64.36c6.421,-8.587 11.447,-18.248 16.829,-27.585c1.264,-2.183 1.397,-5.027 2.051,-7.568c-0.716,-0.493 -1.432,-0.985 -2.147,-1.467c-3.264,2.138 -6.967,3.829 -9.721,6.493c-17.335,16.804 -35.824,32.712 -48.354,53.703c-7.965,13.344 -14.747,27.417 -21.571,41.41c-1.717,3.515 -3.973,8.027 0.458,13.053c4.158,-4.512 7.867,-8.519 12.668,-13.68m2154.005,463.418c2.34,-1.847 4.803,-3.56 6.986,-5.575c14.24,-13.098 29.23,-25.614 37.403,-43.862c8.934,-19.916 13.703,-40.907 15.382,-62.614c0.134,-1.791 -0.884,-3.672 -1.746,-6.941c-2.373,3.023 -4.008,4.556 -4.993,6.426c-10.602,20.084 -21.103,40.224 -31.626,60.352c-9.807,18.74 -16.826,39.115 -32.163,54.632c-0.728,0.739 -0.605,2.329 -1.422,5.889c4.993,-3.325 8.004,-5.329 12.18,-8.307m147.45,1007.373c-7.086,1.287 -14.609,0.952 -23.207,5.956c4.624,1.511 7.187,2.597 9.852,3.168c12.55,2.676 25.066,1.545 37.761,0.515c44.858,-3.65 85.272,-19.994 123.862,-41.881c2.205,-1.243 3.851,-3.482 5.754,-5.25c-0.448,-0.75 -0.907,-1.5 -1.355,-2.25c-48.62,19.569 -99.076,31.906 -152.666,39.742m-1346.47,25.995c-22.278,-5.922 -44.691,-11.341 -66.767,-17.934c-15.292,-4.579 -30.07,-10.859 -45.138,-16.222c-3.549,-1.254 -7.165,-4.109 -12.594,-0.448c2.597,3.146 4.456,6.325 7.154,8.43c4.366,3.426 9.023,6.683 14.005,9.068c40.649,19.513 83.425,29.141 128.631,26.991c1.937,-0.09 3.829,-1.03 5.743,-1.567c0.011,-0.761 0.011,-1.523 0.022,-2.284c-9.728,-1.881 -19.468,-3.762 -31.055,-6.034m1183.224,-1326.162c-11.441,1.567 -22.95,2.732 -34.29,4.836c-9.952,1.847 -19.412,5.497 -27.249,12.27c-6.146,5.318 -5.665,9.404 1.791,12.27c13.591,5.239 27.54,6.695 41.567,1.758c11.094,-3.907 20.789,-10.131 28.122,-19.491c4.556,-5.821 3.392,-9.18 -3.65,-11.385c-1.377,-0.425 -2.955,-0.246 -6.292,-0.257m-1507.521,1007.216c-23.857,-12.214 -47.668,-24.517 -71.581,-36.63c-24.931,-12.628 -49.941,-25.11 -74.969,-37.548c-3.094,-1.545 -6.407,-4.019 -11.456,-0.112c3.23,3.101 5.653,6.37 8.866,8.363c15.191,9.415 29.968,19.838 46.078,27.372c29.667,13.893 60.14,26.073 90.355,38.802c3.717,1.567 7.814,2.284 11.8,3.123c0.358,0.078 1.142,-1.758 0.907,-3.37m447.543,-999.738c16.222,15.113 36.261,19.838 57.554,20.856c4.68,0.224 9.818,0.302 12.964,-4.444c-7.669,-20.308 -54.273,-36.07 -77.302,-25.267c1.982,2.72 3.829,5.25 6.784,8.855m1599.645,1072.36c0,0 -0.078,0.011 0,0m-541.929,-776.867c0,0 0.078,-0.011 0,0Z" style="fill-rule:nonzero;"/><path d="M1968.929,2341.392c26.252,25.469 51.889,50.422 77.649,75.253c11.8,11.385 23.991,22.356 35.723,33.809c9.381,9.146 9.113,11.262 -2.138,18.349c-37.246,23.409 -74.671,46.526 -111.861,70.014c-40.033,25.29 -79.876,50.859 -119.798,76.316c-17.599,11.229 -35.387,22.177 -52.717,33.82c-7.926,5.34 -14.654,5.161 -22.614,0.19c-31.301,-19.558 -62.804,-38.78 -94.307,-58.024c-47.086,-28.76 -94.195,-57.464 -141.348,-86.09c-16.893,-10.255 -33.977,-20.185 -50.96,-30.294c-1.914,-1.131 -3.829,-2.34 -5.553,-3.739c-3.896,-3.168 -4.209,-6.919 -1.008,-10.702c2.653,-3.123 5.553,-6.034 8.452,-8.934c73.809,-73.854 147.718,-147.618 221.426,-221.572c18.147,-18.214 35.69,-37.033 53.512,-55.572c1.556,-1.612 3.157,-3.168 4.747,-4.747c11.822,-11.721 12.538,-11.766 24.025,-0.313c24.025,23.957 47.747,48.228 72.085,71.872c34.481,33.507 69.398,66.554 104.685,100.363m-263.945,7.814c-8.822,6.146 -17.375,12.751 -26.521,18.349c-13.636,8.351 -27.909,15.651 -41.511,24.047c-11.676,7.221 -22.838,15.281 -34.1,23.151c-1.399,0.974 -1.993,3.079 -2.967,4.668c9.381,-2.149 17.464,-5.721 25.29,-9.807c19.334,-10.064 39.25,-17.946 61.55,-17.352c5.81,0.157 8.9,-2.687 10.299,-8.094c3.079,-11.844 6.28,-23.655 9.493,-35.544c0,0 -0.134,0 -1.534,0.582m85.396,144.796c1.634,-10.299 3.303,-20.588 4.881,-30.898c1.019,-6.627 2.463,-13.244 2.754,-19.905c1.78,-41.03 -1.623,-81.903 -4.982,-122.731c-0.817,-9.874 -4.612,-19.535 -7.333,-29.208c-0.526,-1.847 -2.496,-3.291 -5.172,-6.661c-2.071,5.161 -4.232,8.587 -4.791,12.27c-3.146,20.588 -6.269,41.186 -8.665,61.875c-1.411,12.18 -2.911,24.629 -1.858,36.742c3.045,34.817 3.75,69.935 11.307,104.259c1.623,7.344 1.702,15.27 6.795,22.927c5.441,-9.046 4.198,-18.382 7.064,-28.67m171.508,-83.112c-12.628,-7.837 -25.312,-15.583 -37.873,-23.521c-20.386,-12.885 -43.146,-21.875 -61.864,-37.537c-0.582,-0.493 -1.948,-0.067 -3.426,-0.067c0.112,1.881 -0.022,3.359 0.313,4.724c2.273,8.967 4.612,17.923 6.974,26.868c1.791,6.751 4.433,8.06 12.124,8.9c11.397,1.254 23.107,2.004 33.921,5.407c14.095,4.444 27.439,11.285 41.131,17.05c3.56,1.489 7.187,2.81 10.781,4.198c0.358,-0.605 0.716,-1.209 1.075,-1.825c-0.728,-1.131 -1.455,-2.261 -3.157,-4.198m-180.508,-132.728c0,0 0.078,-0.011 0,0Z" style="fill-rule:nonzero;"/><path d="M2180.817,300.023c29.331,1.495 57.71,1.829 85.81,4.817c22.502,2.393 44.724,7.768 66.957,12.353c6.012,1.238 11.62,4.413 17.453,8.857c-2.508,0.943 -4.948,2.407 -7.534,2.738c-13.3,1.703 -26.622,3.341 -39.977,4.579c-28.189,2.615 -56.412,4.873 -84.612,7.454c-29.309,2.683 -58.628,5.312 -87.892,8.426c-64.271,6.841 -127.724,18.06 -189.431,37.696c-30.182,9.605 -60.072,20.095 -90.098,30.137c-1.657,0.549 -3.437,0.683 -4.993,0.985c-0.605,-1.287 -1.276,-2.026 -1.153,-2.586c7.769,-34.749 24.002,-63.044 58.181,-78.42c33.708,-15.166 69.32,-22.744 105.625,-27.735c33.988,-4.674 68.133,-7.157 102.49,-7.253c22.704,-0.064 45.407,-1.333 69.174,-2.049Z" style="fill-rule:nonzero;"/><path d="M1546.093,359.485c-60.565,-7.36 -120.145,-14.674 -179.758,-21.686c-32.208,-3.788 -64.483,-7.032 -96.714,-10.601c-3.526,-0.39 -6.986,-1.304 -10.479,-1.975c-0.101,-0.766 -0.202,-1.53 -0.302,-2.295c2.844,-1.283 5.586,-2.838 8.531,-3.804c24.215,-7.963 49.113,-12.994 74.514,-14.349c28.637,-1.527 57.363,-2.561 86.034,-2.312c24.931,0.217 49.885,2.042 74.749,4.021c33.059,2.631 66.14,5.384 99.054,9.402c35.544,4.339 70.753,10.615 104.707,22.904c26.443,9.574 43.829,27.392 53.456,53.425c3.303,8.922 7.154,17.688 7.613,29.768c-72.533,-28.917 -145.11,-50.624 -221.404,-62.498l-0,0Z" style="fill-rule:nonzero;"/><path d="M2534.669,302.209c50.949,12.834 100.195,41.501 109.398,63.98c-12.93,3.604 -25.312,-5.122 -38.6,-1.78c0.582,7.701 9.146,8.697 11.587,14.967c-3.963,2.586 -7.221,0.157 -10.411,-1.03c-21.08,-7.837 -40.291,-19.302 -59.154,-31.309c-22.939,-14.602 -45.597,-29.65 -68.346,-44.554c-1.746,-1.143 -3.247,-2.667 -7.109,-5.898c22.793,-2.887 42.205,2.024 62.636,5.624l0,0Z" style="fill-rule:nonzero;"/><path d="M1138.214,304.06c-36.72,18.795 -72.756,37.397 -108.972,55.647c-14.957,7.533 -30.204,14.508 -45.474,21.37c-12.997,5.833 -18.214,6.549 -26.958,4.814c1.276,-6.717 6.157,-10.859 10.758,-15.001c5.799,-5.221 12.012,-9.989 17.957,-15.06c2.261,-1.921 5.116,-3.756 6.224,-6.278c3.997,-9.147 12.001,-12.552 20.375,-16.092c38.612,-16.325 78.746,-27.227 119.977,-34.33c3.135,-0.538 6.37,-0.43 12.124,-0.777c-3.045,3.028 -4.221,4.2 -6.012,5.706l0,0Z" style="fill-rule:nonzero;"/><path d="M388.331,1680.718c13.272,8.083 25.086,16.647 36.35,28.245c-10.899,1.153 -42.956,-11.9 -69.411,-28.603c-19.411,-12.259 -39.794,-23.61 -56.05,-43.067c12.453,1.444 50.665,20.409 89.111,43.425Z" style="fill-rule:nonzero;"/><path d="M3063.253,1784.44c63.61,-35.97 126.504,-71.559 189.42,-107.08c0.493,-0.28 1.411,0.19 2.664,0.403c1.623,4.803 -2.105,7.489 -4.915,9.908c-11.005,9.482 -22.177,18.763 -33.484,27.876c-35.443,28.626 -76.26,47.903 -117.29,66.655c-16.244,7.433 -33.216,13.266 -49.941,19.614c-5.799,2.205 -11.844,3.795 -18.293,4.702c2.989,-6.594 9.572,-8.519 14.777,-12.001c5.262,-3.515 10.882,-6.482 17.061,-10.076l0,0Z" style="fill-rule:nonzero;"/></g></svg>