<?xml version="1.0" encoding="UTF-8" standalone="no"?><!DOCTYPE svg PUBLIC "-//W3C//DTD SVG 1.1//EN" "http://www.w3.org/Graphics/SVG/1.1/DTD/svg11.dtd"><svg width="100%" height="100%" viewBox="0 0 400 301" version="1.1" xmlns="http://www.w3.org/2000/svg" xmlns:xlink="http://www.w3.org/1999/xlink" xml:space="preserve" xmlns:serif="http://www.serif.com/" style="fill-rule:evenodd;clip-rule:evenodd;stroke-linejoin:round;stroke-miterlimit:2;"><g><path d="M143.5,0l18,-0c2.296,2.08 2.161,2.096 4.744,3.877c6.33,4.364 2.604,6.153 -3.005,11.332c-4.47,4.126 -4.898,3.497 -9.543,7.466c-2.59,2.212 6.242,2.045 6.81,2.034c6.612,-0.125 6.888,-5.793 8.226,-9.112c3.021,-7.494 4.724,-1.028 5.124,-0.3c5.068,9.214 5.564,8.961 14.553,14.339c0.187,0.112 6.565,5.515 -0.821,2.597c-15.241,-6.022 -32.393,-4.647 -51.086,-4.897c-29.513,-0.395 -45.028,-9.01 -69.746,16.416c-16.744,17.224 -11.226,54.021 -8.217,56.705c5.473,4.88 -5.999,-14.97 4.266,-33.782c10.016,-18.357 2.326,9.064 3.034,13.763c0.821,5.45 2.551,-1.698 2.612,-1.952c4.981,-20.581 15.745,-29.519 16.162,-29.783c7.263,-4.596 -11.748,20.362 -1.145,13.741c0.567,-0.354 3.712,-1.886 6.134,-2.57c24.716,-6.986 21.559,-15.611 46.864,-19.744c2.362,-0.386 2.901,2.018 0.084,2.57c-1.032,0.202 -2.08,0.323 -3.104,0.56c-21.384,4.946 -29.019,22.821 -28.276,23.577c2.587,2.628 0.731,-3.672 18.582,-13.887c11.258,-6.443 37.682,-11.547 34.851,-7.386c-3.204,4.709 -9.668,-4.526 -33.442,12.462c-2.947,2.106 -4.138,1.908 -3.336,5.364c0.769,3.315 -17.733,12.723 -18.899,15.262c-1.333,2.903 4.453,-0.549 4.786,-0.748c6.672,-3.981 24.398,-9.123 25.936,-8.65c4.485,1.382 -2.12,0.785 -19.483,12.816c-8,5.544 5.552,2.225 11.354,1.931c18.727,-0.948 18.539,-1.871 37.055,-5.032c13.97,-2.385 28.469,1.027 27.808,-3.44c-0.472,-3.193 -33.264,-4.536 -34.728,-6.178c-3.902,-4.377 25.297,2.11 35.776,-0.156c0.342,-0.074 7.273,-1.573 0.888,-4.283c-14.184,-6.02 -44.971,-7.032 -45.878,-7.294c-4.333,-1.253 2.001,-3.178 14.058,-3.254c29.153,-0.182 28.76,4.059 31.217,3.531c4.796,-1.032 -5.47,-5.937 -26.239,-6.902c-18.723,-0.87 6.311,-6.171 16.043,-4.65c15.659,2.447 17.582,5.272 17.602,13.162c0.119,47.82 0.451,47.816 0.032,51.951c-1.902,18.738 -29.62,20.436 -26.413,27.941c2.643,6.184 -1.432,11.48 2.616,8.81c10.494,-6.921 16.974,-21.718 22.009,-15.595c7.875,9.576 -2.37,12.412 -11.902,18.841c-14.887,10.04 -20.458,30.034 -20.771,36.059c-0.783,15.072 11.809,40.957 11.822,40.965c3.824,2.301 -3.599,-14.28 -6.067,-21.957c-12.394,-38.565 22.307,-60.463 26.739,-55.721c1.666,1.782 1.483,55.045 1.428,55.714c-0.708,8.595 -4.835,4.105 -13.115,1.656c-5.794,-1.714 6.478,8.442 11.089,11.182c6.496,3.862 24.832,-13.226 24.603,-14.793c-0.687,-4.708 -14.341,15.462 -16.039,0.981c-0.128,-1.088 -0.329,-45.055 -0.165,-50.011c0.329,-9.948 12.298,-0.685 15.478,3.01c25.336,29.439 10.73,46.855 3.745,67.91c-0.772,2.327 1.552,2.635 2.515,0.171c11.583,-29.614 16.987,-40.395 0.326,-63.773c-12.465,-17.491 -24.708,-16.825 -20.806,-27.439c5.109,-13.899 12.598,1.955 22.193,10.176c5.205,4.459 1.162,-3.239 1.904,-6.122c2.043,-7.941 -14.79,-8.887 -23.611,-22.105c-3.38,-5.064 -2.093,-52.472 -0.76,-60.769c1.885,-11.735 27.412,-11.736 35.348,-8.665c9.721,3.762 -18.254,2.915 -26.853,7.544c-6.747,3.632 4.602,0.977 4.997,0.885c16.163,-3.781 44.705,-1.495 45.105,-0.882c2.053,3.142 -34.006,2.848 -34.668,5.237c-0.226,0.818 0.281,1.511 10.587,0.607c12.639,-1.109 40.32,2.765 41.151,4.126c1.484,2.427 -6.581,1.249 -7.155,1.165c-28.902,-4.224 -61.083,-2.572 -63.274,-0.321c-6.624,6.805 37.521,1.096 38.137,1.474c5.575,3.411 -32.429,5.712 -34.005,6.598c-0.41,0.231 -1.51,2.535 5.174,2.788c36.508,1.384 35.889,6.5 50.97,6.779c23.195,0.429 23.065,1.906 25.073,1.802c11.031,-0.567 -20.006,-6.1 -20.818,-7.348c-2.507,-3.851 17.758,2.112 18.587,1.762c5.49,-2.318 -21.274,-6.435 -20.878,-9.654c0.098,-0.796 7.387,-0.665 8.031,-0.653c11.371,0.205 13.24,4.266 15.022,4.557c0.306,0.05 2.326,-0.622 -1.198,-3.682c-27.683,-24.033 -47.465,-23.771 -48.483,-24.638c-3.478,-2.962 6.089,-1.261 6.619,-1.166c32.14,5.716 43.329,19.695 44.784,21.058c2.369,2.218 2.791,-0.181 1.993,-1.3c-9.966,-13.976 -24.333,-19.882 -26.852,-20.918c-1.968,-0.809 -1.692,-3.098 1.142,-2.27c24.227,7.079 21.732,12.867 31.93,15.281c8.185,1.937 8.082,1.964 16.014,4.966c7.063,2.673 -8.11,-16.115 -1.075,-11.964c10.477,6.182 10.514,24.222 11.125,24.75c3.34,2.885 1.238,-10.137 1.097,-11.011c-0.057,-0.354 -1.824,-11.3 1.96,-4.028c6.15,11.82 8.182,17.676 7.672,24.02c-2.041,25.443 14.036,-20.315 -8.945,-42.767c-19.293,-18.849 -39.032,-15.557 -44.765,-14.982c-23.061,2.311 -40.512,1.46 -48.027,1.429c-16.47,-0.069 -26.826,7.143 -27.954,6.277c-1.726,-1.325 4.118,-4.496 6.645,-6.348c16.697,-12.235 8.922,-21.839 24.3,-25.634c1.658,-0.409 1.432,-0.691 3.013,-1.454l7,0c0.47,0.137 0.599,0.869 1.068,1.006c0.952,0.277 1.981,0.093 2.969,0.168c19.542,1.491 38.32,16.611 42.175,18.917c4.645,2.779 44.459,0.012 56.808,37.402c6.716,20.334 -2.179,24.725 8.437,35.543c35.347,36.022 16.923,45.626 34.042,79.464l0,2c-0.193,0.751 -0.826,0.209 -1.023,0.97c-0.06,0.235 -0.006,0.226 -0.008,3.03c-0.001,1.36 -0.015,16.899 0,17.006c0.069,0.472 0.961,0.522 1.03,0.994l0,3c-0.195,0.292 -0.819,-0.012 -1.014,0.279c-3.035,4.55 -7.485,37.467 -53.43,55.856c-38.269,15.316 -32.541,24.359 -61.298,42.482c-1.107,0.698 -0.81,0.867 -1.757,1.882l-22,0c-0.277,-0.468 -2.883,-4.862 -4.001,-5.498c-3.933,-2.239 -4.268,-1.878 -6.492,-5.71c-0.378,-0.652 -3.737,-6.438 -4.864,-8.063c-3.325,-4.793 -0.71,-5.282 -0.965,-11.201c-0.34,-7.895 2.279,-7.204 7.25,-15.063c6.083,-9.618 -12.508,9.067 -12.691,1.015c-0.274,-12.071 0.364,-17.583 5.251,-27.742c13.001,-27.03 10.768,-28.562 22.365,-40.358c1.677,-1.706 -0.556,-3.075 -3.668,-0.626c-26.725,21.034 -19.804,52.709 -35.569,66.319c-6.83,5.896 -4.69,-3.849 -17.685,-13.478c-11.447,-8.482 -15.438,-2.783 -15.662,-2.646c-15.174,9.279 -14.798,13.332 -16,16.687c-0.909,2.535 -7.639,3.4 -14.835,-30.221c-0.749,-3.499 -6.386,-29.836 -23.33,-38.167c-6.511,-3.201 -0.737,3.405 -0.543,3.626c7.834,8.963 7.132,11.286 10.193,22.696c2.857,10.648 7.489,14.29 11.083,21.025c3.971,7.441 4.009,23.693 3.043,24.813c-1.368,1.587 -1.69,0.443 -6.807,-1.14c-0.371,-0.115 -8.35,-2.584 -2.766,3.991c5.103,6.01 3.947,6.568 6.048,14.133c1.49,5.365 -6.201,7.373 -9.451,17.074c-1.263,3.771 -3.979,1.606 -7.905,8.535l-23,0c-1.222,-1.423 -1.009,-1.54 -4.353,-4.033c-16.917,-12.608 -15.089,-16.91 -46.42,-32.912c-21.201,-10.828 -50.853,-20.33 -66.546,-55.415c-0.883,-1.975 -1.256,-1.602 -2.181,-2.139l0,-18c0.087,-0.481 0.92,-0.586 1.007,-1.067c1.107,-6.122 -2.098,-10.184 5.855,-28.78c9.617,-22.484 0.762,-40.914 25.268,-61.593c9.729,-8.21 10.044,-8.738 10.863,-20.529c0.354,-5.103 2.795,-40.281 38.497,-51.06c16.088,-4.857 18.07,0.128 31.824,-10.226c12.482,-9.396 26.851,-12.039 29.098,-13.086c0.48,-0.224 0.607,-0.935 1.087,-1.159Zm-14.461,222.485c-0.783,19.427 5.551,19.505 3.095,22.702c-1.747,2.274 -2.663,-0.868 -13.572,1.566c-8.517,1.901 -8.27,-0.673 -19.674,-9.715c-19.934,-15.807 -24.904,-37.878 -35.447,-57.508c-5.206,-9.694 6.28,-4.815 13.587,-14.417c10.307,-13.545 27.725,-47.355 28.39,-38.598c1.814,23.876 8.231,21.685 18.675,43.192c8.398,17.292 6.367,31.05 4.945,52.779Zm145.919,-14.01c-0.165,-12.311 -0.65,-22.171 4.363,-35.048c8.972,-23.046 18.389,-19.817 20.257,-48.905c0.63,-9.803 13.059,26.651 25.993,39.909c9.717,9.96 20.855,6.164 14.565,14.802c-14.121,19.39 -10.679,34.069 -23.909,48.025c-27.345,28.844 -31.481,22.069 -35.695,21.107c-5.231,-1.194 -11.449,0.152 -8.727,-5.723c4.63,-9.994 4.788,-10.273 3.153,-34.166Zm-254.994,-36.976c0.033,-2.071 0.059,-1.977 0.063,-3.997c0.001,-0.482 0.01,-5.335 0.021,-6.02c0.584,-36.047 26.23,-59.005 13.3,-47.445c-13.011,11.633 -16.458,20.935 -16.948,21.32c-0.25,0.196 -2.345,0.661 -0.919,-3.861c2.759,-8.746 22.327,-31.963 24.512,-34.554c4.577,-5.431 5.262,1.053 5.801,2.45c4.794,12.421 15.122,12.82 10.414,18.892c-8.981,11.582 -7.793,12.338 -8.751,13.164c-5.487,4.732 3.88,-11.164 3.642,-11.748c-0.812,-1.991 -3.854,3.065 -4.074,3.43c-4.792,7.964 -2.273,-11.319 -5.635,-8.756c-1.057,0.806 -6.585,22.134 -7.089,24.078c-6.449,24.885 25.167,33.117 30.129,48.056c1.848,5.563 -4.549,-2.996 -6.198,-4.75c-6.897,-7.335 -17.189,-13.292 -17.712,-13.395c-8.563,-1.689 13.197,9.356 23.607,25.367c3.858,5.933 13.247,26.777 -3.889,14.129c-31.6,-23.324 -39.291,-18.878 -40.275,-36.358Zm362.061,-1.968c-0.653,16.46 -4.048,16.199 -34.283,34.371c-11.807,7.097 -17.023,11.774 -17.037,4.591c-0.038,-18.165 37.456,-38.695 26.778,-37.314c-3.118,0.403 -20.306,21.354 -17.939,14.336c2.025,-6.003 23.781,-18.786 24.568,-38.033c0.347,-8.493 -4.004,-45.244 -6.371,-22.953c-0.117,1.1 -0.356,7.373 -2.286,6.037c-0.836,-0.579 -7.055,-12.158 -7.633,-13.235c-2.214,-4.122 0.359,-4.068 6.998,-15.645c0.248,-0.432 3.91,-6.819 5.415,-3.06c1.109,2.771 0.944,2.789 13.078,34.946c7.492,19.855 7.88,29.645 8.712,35.958Zm-87.33,83.174c14.178,-13.557 15.219,-12.37 25.258,-22.756c12.185,-12.606 12.562,-13.078 37.554,-23.431c12.488,-5.173 20.467,-8.514 21.186,-8.367c7.719,1.583 -48.937,23.974 -49.394,27.314c-0.699,5.115 35.714,-12.657 36.048,-12.542c4.885,1.679 -16.129,10.362 -31.719,17.837c-31.049,14.889 -44.542,38.394 -61.179,42.448c-0.253,0.062 -3.448,-0.777 0.752,-3.167c8.388,-4.773 9.119,-5.531 21.493,-17.336Zm-131.363,-131.9c-1.687,0.006 -23.177,0.083 -20.66,-4.225c2.027,-3.468 34.91,-7.095 52.847,-10.795c1.942,-0.4 1.807,1.762 -3.276,5.351c-13.643,9.635 -33.241,15.926 -40.775,14.596c-9.313,-1.644 -9.147,-4.257 -8.142,-4.48c1.869,-0.416 16.381,5.054 20.004,-0.447Zm78.122,-31.852c23.903,4.197 45.738,7.08 31.016,9.38c-4.266,0.666 -13.788,2.154 -53.962,1.057c-0.198,-0.005 -6.912,-2.467 0.011,-2.476c0.925,-0.001 15.626,0.963 14.504,-1.243c-0.575,-1.13 -25.936,-1.571 -18.304,-5.823c3.377,-1.881 24.597,-0.986 26.735,-0.895Zm-49.449,9.482l-0.61,0.809c-4.449,0.244 -4.376,0.263 -8.894,0.194c-32.164,-0.489 -58.297,0.159 -55.087,-4.008c1.821,-2.364 56.678,-10.413 62.895,-4.709c4.575,4.198 -18.107,3.565 -18.15,4.688c-0.132,3.454 17.92,-0.459 19.846,3.026Zm-91.305,146.86c17.627,16.889 18.543,16.063 23.636,19.411c0.15,0.099 2.894,3.651 -1.824,1.765c-17.672,-7.064 -42.907,-38.676 -57.251,-46.529c-8.809,-4.823 -45.829,-17.731 -39.525,-21.02c1.437,-0.75 1.073,1.208 18.585,8.053c31.181,12.189 33.042,15.701 56.379,38.32Zm127.735,-135.338c0.565,0.089 62.778,8.877 18.091,10.801c-12.411,0.534 1.732,2.415 1.982,2.411c10.006,-0.15 14.826,-1.948 13.621,0.154c-0.642,1.12 -11.936,5.503 -25.477,-0.192c-8.692,-3.656 -31.086,-15.665 -26.204,-16.751c1.432,-0.319 1.314,0.75 17.987,3.578Zm40.607,102.497c-2.06,11.859 -1.369,17.318 -21.506,25.166c-6.088,2.373 3.254,-10.866 5.499,-14.411c2.173,-3.432 14.154,-20.969 15.486,-20.96c2.552,0.017 1.054,1.485 0.521,10.205Zm-211.391,20.841c19.955,15.209 -9.099,0.764 -15.806,-4.252c-30.229,-22.607 -34.293,-30.156 -36.165,-33.635c-0.15,-0.279 -4.079,-7.578 0.799,-3.875c6.034,4.58 1.528,9.669 32.28,29.569c9.495,6.145 9.463,6.042 18.892,12.193Zm290.704,3.76c-22.423,7.879 3.247,-5.322 14.798,-14.021c31.94,-24.052 26.141,-29.201 29.746,-33.192c2.191,-2.426 4.423,6.461 -10.418,20.637c-21.078,20.133 -31.023,25.044 -34.126,26.576Zm-295.361,-102.465c0.527,-1.396 3.654,-9.689 9.616,-15.987c7.857,-8.298 30.027,-21.986 30.871,-22.317c8.621,-3.379 -12.125,11.194 -13.759,12.493c-20.712,16.47 -27.299,37.106 -26.728,25.81Zm81.983,75.874c-1.703,-16.297 5.721,2.965 10.373,12.115c5.502,10.822 15.713,16.869 8.159,13.891c-16.535,-6.517 -16.846,-12.194 -18.531,-26.006Zm211.125,-79.86c3.152,16.813 -5.018,-2.901 -23.682,-22.027c-0.375,-0.384 -10.186,-10.439 -2.934,-6.04c4.46,2.705 13.639,10.304 14.784,11.252c9.151,7.576 10.893,14.289 11.831,16.815Zm-18.793,-8.944c0.954,1.374 9,12.96 9.085,18.833c0.056,3.873 -2.366,-0.01 -17.315,-20.682c-2.647,-3.661 -8.331,-9.98 -6.469,-11.101c0.899,-0.541 8.401,5.196 14.699,12.95Zm-278.436,-59.084c0.57,-2.015 3.957,-13.993 12.919,-22.765c6.322,-6.188 12.274,-9.806 13.723,-10.251c7.264,-2.235 -6.925,7.519 -7.72,8.269c-20.419,19.271 -16.427,38.7 -18.538,40.421c-3.218,2.622 -0.576,-14.434 -0.384,-15.673Zm307.134,3.977c0.243,7.149 1.218,8.011 -0.402,8.188c-5.325,0.582 2.951,-21.008 -23.437,-40.824c-0.262,-0.197 -5.189,-3.897 -1.723,-3.71c1.623,0.088 13.203,7.987 18.819,17.434c5.796,9.75 6.362,17.116 6.743,18.912Zm-190.972,87.001c0.692,5.751 6.893,22.741 -2.285,11.748c-10.215,-12.236 1.491,-28.975 1.525,-21.778c0.03,6.286 0.471,6.211 0.76,10.03Zm-79.652,89.854c-12.805,-9.763 -11.989,-11.391 -35.787,-20.157c-0.349,-0.129 -5.082,-1.872 -3.405,-3.163c0.01,-0.008 18.913,3.1 29.966,11.848c4.551,3.602 4.246,3.838 8.685,8.255c1.99,1.98 0.767,2.307 0.541,3.217Zm71.884,-229.11c-9.274,10.362 -10.87,9.029 -11.347,8.025c-0.285,-0.599 -0.03,-2.026 -2.442,-0.9c-3.826,1.786 -3.909,2.332 -4.682,1.693c-2.204,-1.821 27.441,-22.964 22.639,-14.643c-1.153,1.998 -1.236,1.9 -4.167,5.826Zm101.318,6.679c-0.454,1.254 -0.469,1.241 -0.49,1.354c-0.964,5.026 -13.225,-10.999 -13.517,-13.84c-0.774,-7.519 16.507,10.008 17.683,11.2c3.653,3.705 -3.379,1.383 -3.675,1.285Zm129.209,125.048c-5.387,-9.434 -1.874,-11.586 -17.029,-28.756c-3.474,-3.936 -1.658,-4.562 -1.322,-4.411c8.241,3.684 23.551,25.959 18.35,33.167Zm-301.791,-25.663c-0.728,1.961 -5.615,15.117 -12.815,22.793c-5.658,6.033 0.708,-6.344 0.96,-6.835c9.066,-17.627 13.203,-29.752 13.808,-23.938c0.138,1.323 -0.111,1.241 -1.953,7.98Zm306.134,45.211c0.107,0.599 1.7,9.505 -1.297,7.49c-1.845,-1.24 -18.371,-39.842 -4.759,-20.265c6.073,8.734 5.556,10.338 6.055,12.775Zm-146.111,-13.064c-0.105,1.215 -0.93,10.728 -7.451,13.293c-4.722,1.858 3.04,-9.476 2.178,-16.324c-0.801,-6.363 -1.434,-6.853 -0.386,-7.136c4.247,-1.149 5.543,9.244 5.659,10.167Zm-184.862,-11.121c2.78,-6.661 2.371,-6.852 6.725,-12.596c4.842,-6.388 4.891,-6.397 5.566,-6.519c2.494,-0.451 -0.532,4.963 -0.742,5.34c-12.369,22.131 -11.737,23.114 -13.261,23.045c-0.753,-0.034 -0.867,-0.506 1.712,-9.269Zm219.473,-127.126c-15.661,-8.738 -16.943,-7.185 -17.243,-8.701c-1.095,-5.528 29.149,11.072 33.72,16.196c5.092,5.708 -14.935,-6.621 -16.477,-7.495Zm-163.026,4.384c-0.458,0.32 -9.392,6.565 -6.677,2.054c6.39,-10.618 61.261,-28.452 23.716,-11.897c-9.059,3.995 -8.78,4.356 -17.039,9.843Zm103.439,208.722c-0.375,1.194 -0.875,7.683 -5.29,3.824c-6.832,-5.973 -1.316,-7.526 4.109,-12.256c7.103,-6.191 2.37,4.628 1.18,8.432Zm-37.713,-7.665c4.904,3.896 7.634,5.823 4.095,8.709c-7.753,6.323 -7.654,-3.455 -8.409,-5.776c-0.17,-0.523 -2.066,-6.354 -1.304,-6.746c1.067,-0.55 0.999,0.091 5.619,3.813Zm109.165,52.373c-2.387,-0.492 -3.906,0.09 -2.917,-1.535c1.678,-2.756 8.456,0.923 27.184,-11.606c10.457,-6.996 -2.721,10.437 -24.266,13.141Zm-184.928,0.069c-1.046,-0.263 -8.613,-2.166 -12.839,-4.13c-7.087,-3.292 -13.661,-8.672 -13.735,-8.789c-2.52,-3.969 6.295,1.531 6.771,1.828c19.314,12.051 27.722,7.99 25.678,11.419c-1.197,2.009 -1.756,0.487 -5.876,-0.329Zm206.032,-145.713c-0.57,-1.005 -6.574,-11.597 -6.276,-13.008c0.721,-3.406 3.019,1.961 12.695,17.366c18.173,28.931 -6.063,-3.85 -6.42,-4.358Zm-66.967,-106.075c0.246,0.251 4.681,4.772 -0.148,4.394c-6.002,-0.47 -6.802,-3.966 -9.983,-11.253c-3.552,-8.136 3.961,0.58 4.184,0.839c0.442,0.513 0.44,0.446 5.946,6.02Zm-236.703,141.26c0.621,-1.663 4.332,-12.405 6.607,-12.198c1.682,0.153 -6.053,23.362 -8.036,22.074c-1.151,-0.747 1.198,-8.896 1.429,-9.876Zm275.507,120.559c-0.611,0.066 -10.189,1.103 -7.58,-1.26c1.456,-1.319 2.181,0.682 23.609,-6.785c3.689,-1.285 2.146,1.221 1.976,1.303c-7.102,3.424 -16.533,6.294 -18.004,6.742Zm-96.84,-106.242c20.143,-3.684 -7.955,10.322 -9.822,4.449c-0.756,-2.379 9.722,-4.422 9.822,-4.449Zm-37.626,-12.521c-0.11,-1.666 -0.562,-3.297 -0.672,-4.962c-0.53,-8.006 9.508,14.371 7.233,16.092c-0.824,0.624 -2.767,1.241 -6.561,-11.13Zm221.73,-56.143c0.617,0.589 7.654,7.3 6.788,8.223c-1.579,1.682 -19.213,-12.802 -14.125,-13.422c1.25,-0.152 6.797,4.724 7.337,5.199Zm-264.329,157.566c0.644,0.225 15.789,5.519 7.125,4.677c-4.195,-0.408 -26.133,-8.929 -21.074,-10.156c0.031,-0.007 0.007,-0.009 13.948,5.478Zm107.087,-81.966c-3.18,-0.808 -3.359,-0.444 -5.649,-2.686c-6.757,-6.616 8.71,-1.969 11.316,-0.261c0.427,0.28 1.569,2.791 -5.667,2.948Zm-26.942,9.112c0.558,0.043 6.452,0.497 6.523,2.532c0.079,2.25 -5.027,3.049 -5.529,3.127c-2.684,0.42 -11.411,-4.333 -0.994,-5.659Zm26.938,-2.061c0.516,0.084 9.048,1.466 4.877,4.35c-5.644,3.904 -16.06,-4.118 -7.808,-4.392c0.976,-0.032 1.954,0.074 2.931,0.042Zm105.995,53.515c-0.397,0.251 -9.284,5.869 -5.752,1.174c2.897,-3.852 30.111,-18.65 10.517,-4.468c-0.375,0.272 -0.398,0.169 -4.765,3.295Zm-77.288,-57.053c2.768,-6.676 2.525,-6.805 3.51,-7.652c3.907,-3.358 0.674,9.187 -2.322,12.637c-4.224,4.865 -1.309,-4.594 -1.188,-4.986Zm14.559,-8.702c4.054,-4.276 4.03,-4.248 4.379,-4.618c8.16,-8.671 0.724,6.537 -4.616,9.417c-5.092,2.747 0.016,-4.485 0.238,-4.799Zm-132.319,105.192c3.882,1.444 6.453,1.077 4.396,2.926c-1.977,1.776 -21.018,-5.285 -16.407,-6.484c0.97,-0.252 0.881,0.176 12.011,3.558Zm15.334,-105.603c-0.289,-0.345 -2.443,-2.913 -2.897,-4.821c-1.483,-6.241 8.315,4.856 8.935,6.96c1.375,4.667 -5.661,-1.793 -6.038,-2.14Zm110.276,-10.89c-0.301,0.684 -5.716,12.978 -5.939,7.204c-0.096,-2.473 8.836,-22.072 5.939,-7.204Zm-97.029,17.04c-1.061,-15.678 5.655,4.775 4.762,7.253c-1.227,3.403 -4.543,-6.594 -4.762,-7.253Zm-17.746,-21.789c-1.996,-5.055 -2.122,-4.956 -2.234,-6.116c-0.757,-7.856 7.478,7.821 6.791,10.174c-0.645,2.209 -4.298,-3.644 -4.557,-4.058Zm130.832,0.694c-0.36,0.598 -5.677,9.432 -6.217,6.119c-0.164,-1.007 12.8,-24.939 6.217,-6.119Zm-9.831,23.298c-2.544,5.417 -2.911,5.1 -7.044,9.514c-5.346,5.71 0.197,-9.498 7.044,-9.514Zm-44.624,-22.287c5.48,4.749 2.38,5.822 1.897,5.768c-4.833,-0.548 -10.187,-10.552 -1.897,-5.768Zm-189.865,-53.646c11.344,-12.844 -0.601,6.402 -2.248,6.837c-2.516,0.664 1.939,-6.351 2.248,-6.837Zm61.045,134.591c9.815,6.359 -7.517,-0.36 -9.09,-2.893c-1.054,-1.698 1.04,-1.458 9.09,2.893Zm103.947,-80.601c0.318,-0.283 3.679,-3.267 5.128,-1.419c2.265,2.888 -9.664,9.032 -5.128,1.419Zm-42.226,-28.225c0.224,0.113 7.488,3.782 0.984,2.983c-4.15,-0.51 -6.142,-3.869 -3.013,-3.625c0,0 1.867,0.591 2.029,0.642Zm112.032,0.46c10.575,0.69 -0.814,3.008 -1.069,3.014c-8.506,0.204 0.827,-2.933 1.069,-3.014Z" style="fill-opacity:1;"/><path d="M200.531,296.951c-2.849,-0.486 -4.443,-0.758 -31.324,-17.991c-5.555,-3.562 -1.384,-4.885 3.231,-9.521c25.874,-25.989 26.527,-27.675 28.892,-25.731c0.892,0.733 28.045,27.115 30.478,29.479c4.133,4.016 -0.996,5.084 -13.015,12.774c-12.771,8.171 -15.068,10.018 -18.262,10.991Zm-2.435,-28.462c2.322,-32.769 4.972,9.722 2.713,12.418c-2.23,2.661 -2.68,-11.401 -2.713,-12.418Zm14.345,-2.891c0.411,0.236 11.491,5.491 7.016,5.632c-0.218,0.007 -8.852,-3.401 -9.088,-3.537c-1.241,-0.712 -1.473,-1.999 -1.51,-2.209c-0.462,-2.569 1.126,-0.889 3.582,0.114Zm-24.799,0.137c0.204,-0.125 2.294,-1.407 2.783,-1.102c0.469,0.291 1.934,1.947 -4.944,4.808c-16.863,7.013 1.857,-3.546 2.16,-3.705Z" style="fill-opacity:1;"/><path d="M234.48,34.041c2.169,-0.097 19.996,-0.898 27.11,1.299c8.041,2.484 -10.933,1.772 -30.122,4.974c-18.223,3.041 -25.532,8.894 -23.895,4.206c3.617,-10.353 23.208,-10.337 26.906,-10.479Z" style="fill-opacity:1;"/><path d="M161.502,34.061c2.719,0.184 36.088,0.21 36.377,11.459c0.105,4.08 -2.341,-4.204 -50.361,-8.161c-0.321,-0.026 -12.618,-1.04 -3.295,-2.318c6.775,-0.929 6.69,-0.879 17.279,-0.98Z" style="fill-opacity:1;"/><path d="M292.499,272.075c-2.387,-0.492 -3.906,0.09 -2.917,-1.535c1.678,-2.756 8.456,0.923 27.184,-11.606c10.457,-6.996 -2.721,10.437 -24.266,13.141Z" style="fill-opacity:0.07;"/><path d="M107.571,272.145c-1.046,-0.263 -8.613,-2.166 -12.839,-4.13c-7.087,-3.292 -13.661,-8.672 -13.735,-8.789c-2.52,-3.969 6.295,1.531 6.771,1.828c19.314,12.051 27.722,7.99 25.678,11.419c-1.197,2.009 -1.756,0.487 -5.876,-0.329Z" style="fill-opacity:0.07;"/><path d="M313.603,126.432c-0.57,-1.005 -6.574,-11.597 -6.276,-13.008c0.721,-3.406 3.019,1.961 12.695,17.366c18.173,28.931 -6.063,-3.85 -6.42,-4.358Z" style="fill-opacity:0.05;"/><path d="M285.44,282.176c-0.611,0.066 -10.189,1.103 -7.58,-1.26c1.456,-1.319 2.181,0.682 23.609,-6.785c3.689,-1.285 2.146,1.221 1.976,1.303c-7.102,3.424 -16.533,6.294 -18.004,6.742Z" style="fill-opacity:0.14;"/><path d="M287.603,35.185c0.667,0.274 10.752,4.423 6.777,5.946c-4.427,1.696 -8.697,-2.528 -13.298,-5.135c-9.313,-5.276 6.015,-0.954 6.521,-0.811Z" style="fill-opacity:1;"/><path d="M355.354,193.241c29.71,-16.907 -5.118,7.553 -12.867,9.178c-8.438,1.769 11.304,-8.275 12.867,-9.178Z" style="fill-opacity:0.91;"/><path d="M108.376,264.836c0.644,0.225 15.789,5.519 7.125,4.677c-4.195,-0.408 -26.133,-8.929 -21.074,-10.156c0.031,-0.007 0.007,-0.009 13.948,5.478Z" style="fill-opacity:0.23;"/><path d="M115.608,36.791c34.13,-12.07 -6.004,6.685 -7.09,6.568c-5.019,-0.544 6.397,-6.223 7.09,-6.568Z" style="fill-opacity:0.96;"/><path d="M126.407,282.872c3.882,1.444 6.453,1.077 4.396,2.926c-1.977,1.776 -21.018,-5.285 -16.407,-6.484c0.97,-0.252 0.881,0.176 12.011,3.558Z" style="fill-opacity:0.19;"/><path d="M268.073,162.324c-0.36,0.598 -5.677,9.432 -6.217,6.119c-0.164,-1.007 12.8,-24.939 6.217,-6.119Z" style="fill-opacity:0.07;"/><path d="M40.283,188.882c-0.465,-0.26 -5.438,-3.036 -5.709,-3.436c-3.278,-4.829 10.903,3.544 11.608,4.299c3.666,3.931 -5.472,-0.65 -5.898,-0.863Z" style="fill-opacity:0.9;"/><path d="M212.441,265.598c0.411,0.236 11.491,5.491 7.016,5.632c-0.218,0.007 -8.852,-3.401 -9.088,-3.537c-1.241,-0.712 -1.473,-1.999 -1.51,-2.209c-0.462,-2.569 1.126,-0.889 3.582,0.114Z" style="fill-opacity:0.06;"/><path d="M187.642,265.735c0.204,-0.125 2.294,-1.407 2.783,-1.102c0.469,0.291 1.934,1.947 -4.944,4.808c-16.863,7.013 1.857,-3.546 2.16,-3.705Z" style="fill-opacity:0.11;"/><path d="M23.753,109.69c11.344,-12.844 -0.601,6.402 -2.248,6.837c-2.516,0.664 1.939,-6.351 2.248,-6.837Z" style="fill-opacity:0.05;"/><path d="M84.797,244.281c9.815,6.359 -7.517,-0.36 -9.09,-2.893c-1.054,-1.698 1.04,-1.458 9.09,2.893Z" style="fill-opacity:0.17;"/><path d="M399.999,174.5l0,22c-0.069,-0.472 -0.961,-0.522 -1.03,-0.994c-0.016,-0.108 -0.002,-15.646 -0,-17.006c0.003,-2.804 -0.052,-2.795 0.008,-3.03c0.196,-0.761 0.829,-0.22 1.023,-0.97Z" style="fill-opacity:0.89;"/><path d="M146.519,135.455c0.224,0.113 7.488,3.782 0.984,2.983c-4.15,-0.51 -6.142,-3.869 -3.013,-3.625c0,0 1.867,0.591 2.029,0.642Z" style="fill-opacity:0.08;"/></g></svg>