<?xml version="1.0" encoding="UTF-8" standalone="no"?><!DOCTYPE svg PUBLIC "-//W3C//DTD SVG 1.1//EN" "http://www.w3.org/Graphics/SVG/1.1/DTD/svg11.dtd"><svg width="100%" height="100%" viewBox="0 0 165945 124650" version="1.1" xmlns="http://www.w3.org/2000/svg" xmlns:xlink="http://www.w3.org/1999/xlink" xml:space="preserve" xmlns:serif="http://www.serif.com/" style="fill-rule:evenodd;clip-rule:evenodd;stroke-linejoin:round;stroke-miterlimit:2;"><g><path d="M69280.411,76974.392c125.521,-1228.125 408.854,-2375.52 812.5,-3486.457c821.354,-2259.895 1873.437,-4407.29 3270.832,-6373.435c859.375,-1209.895 1833.853,-2319.791 3077.082,-3148.436c602.604,-402.083 1236.979,-785.416 1906.77,-1052.083c965.104,-384.896 1974.999,-657.291 2967.186,-972.916c131.25,-41.667 270.312,-64.583 407.812,-81.25c181.771,-22.396 299.479,65.104 341.146,244.792c15.625,67.187 23.958,136.979 26.562,205.729c37.5,970.312 97.917,1940.624 105.208,2911.457c16.146,2083.333 -8.854,4166.665 9.896,6249.998c14.583,1647.916 12.5,3299.999 119.271,4943.227c202.604,3120.832 195.833,6242.706 182.812,9365.621c-2.083,482.291 -68.75,968.75 -151.042,1445.833c-80.208,465.104 -239.062,597.396 -717.187,568.75c-517.708,-31.771 -1036.979,-101.562 -1544.791,-207.292c-1182.812,-245.833 -2272.395,-744.791 -3338.019,-1299.479c-225,-117.187 -465.625,-203.125 -709.375,-307.812c-148.437,267.187 -5.729,427.083 108.333,556.25c470.312,530.729 920.833,1088.541 1448.958,1556.249c569.271,503.125 1222.916,910.416 1830.208,1371.354c870.833,660.937 1742.708,1320.833 2594.791,2005.208c350,280.729 661.979,310.417 1041.666,79.687c1706.77,-1034.895 3441.665,-2024.478 5123.956,-3097.915c1486.458,-948.437 2658.332,-2221.874 3471.874,-3802.082c65.625,-127.083 105.729,-267.187 174.479,-444.271c-293.75,-4.167 -360.937,179.687 -470.833,298.437c-698.958,751.041 -1412.499,1484.374 -2298.437,2023.437c-885.937,539.062 -1822.916,925.52 -2865.624,1031.77c-668.229,68.229 -978.645,-157.292 -1063.02,-823.437c-26.042,-206.25 -25,-416.146 -25,-623.958c-1.042,-7326.56 -3.125,-14652.598 4.167,-21979.158c0,-518.75 60.937,-1038.541 108.333,-1556.249c33.333,-359.375 133.333,-424.479 472.396,-346.354c101.042,23.437 200,59.375 297.917,93.229c1346.874,469.271 2660.416,1016.666 3889.582,1743.228c1072.916,634.375 2017.708,1434.374 2702.603,2480.728c1216.145,1857.291 2540.624,3645.311 3575.519,5620.31c777.083,1483.333 1224.479,3056.249 1433.333,4704.686c271.875,2143.749 55.208,4264.582 -385.417,6361.977c-177.604,845.312 -445.833,1679.166 -753.125,2488.02c-1122.395,2953.124 -2278.645,5893.227 -3419.79,8839.059c-84.896,218.229 -208.333,435.416 -122.396,717.708c315.625,-61.979 331.25,-311.979 399.479,-509.896c216.146,-622.916 394.792,-1260.416 639.583,-1871.353c548.958,-1368.229 1110.937,-2731.77 1699.999,-4083.332c1014.062,-2326.041 2009.374,-4656.769 2481.249,-7168.747c336.979,-1796.874 538.021,-3602.603 329.167,-5433.852c-163.021,-1427.083 -655.729,-2729.686 -1454.687,-3915.623c-455.208,-676.041 -955.208,-1322.395 -1409.895,-1999.478c-638.541,-950.52 -1259.895,-1912.499 -1877.083,-2877.082c-919.791,-1437.499 -1971.353,-2759.374 -3194.79,-3958.853c-1323.958,-1297.395 -2802.603,-2381.77 -4356.769,-3367.707c-594.271,-377.083 -908.333,-833.854 -997.395,-1534.374c-182.812,-1440.624 168.229,-2721.353 1027.083,-3868.228c332.292,-443.229 706.771,-856.77 1080.729,-1266.666c277.604,-304.167 470.312,-297.396 743.75,-9.375c1073.958,1132.812 2144.791,2269.27 3218.749,3402.603c1229.166,1296.874 2453.124,2598.436 3694.269,3883.332c307.292,318.229 671.354,581.25 1018.75,878.125c263.021,-267.708 171.354,-514.062 112.5,-735.937c-263.021,-989.062 -529.166,-1977.603 -818.75,-2959.374c-188.021,-636.979 -121.354,-736.458 542.708,-667.708c154.687,15.625 309.896,28.646 465.104,36.458c29.687,1.562 60.417,-28.646 114.062,-56.25c14.583,-216.667 -161.979,-325 -297.396,-438.021c-1467.187,-1227.083 -2986.457,-2378.124 -4717.186,-3221.874c-1336.979,-651.562 -2525.52,-1524.479 -3615.103,-2527.603c-611.458,-561.979 -1193.229,-1158.333 -1759.374,-1766.145c-648.958,-696.875 -1027.604,-1505.208 -983.333,-2495.312c36.979,-831.771 17.187,-1666.666 4.167,-2499.999c-29.687,-1907.812 -67.187,-3815.623 -108.333,-5723.956c-25.521,-1195.833 -94.271,-2392.187 -89.583,-3588.019c6.771,-1647.916 41.146,-3296.353 107.292,-4942.706c80.729,-2027.083 209.375,-4052.082 310.417,-6078.643c55.208,-1095.833 554.687,-1926.562 1400.52,-2615.624c1076.562,-876.041 2305.207,-1407.291 3621.874,-1767.708c1379.687,-378.125 2789.582,-607.812 4218.227,-561.458c2072.395,67.187 4117.707,336.458 6052.602,1152.604c330.729,139.583 671.354,272.917 894.27,597.396c-135.417,256.771 -384.375,257.292 -592.708,283.333c-756.771,95.312 -1515.624,183.333 -2276.041,241.146c-1746.874,132.292 -3502.082,183.854 -5222.915,548.958c-1656.77,351.042 -3240.103,911.458 -4724.477,1734.895c-120.833,66.667 -233.333,150 -343.229,233.854c-35.937,27.604 -52.083,81.771 -95.833,155.208c241.667,72.396 417.187,-60.417 597.396,-127.604c1303.645,-485.937 2614.582,-956.77 4004.686,-1113.541c1153.645,-129.687 2313.541,-231.771 3473.436,-269.792c1387.499,-45.833 2778.124,-36.979 4166.144,-3.646c1368.749,32.812 2735.936,128.646 4104.165,192.708c1685.416,78.646 3350.519,317.187 5006.769,627.604c168.75,31.771 334.896,76.042 528.125,119.792c-2610.416,370.833 -5185.935,767.187 -7769.789,1094.791c-2595.832,329.167 -5200.519,589.583 -7801.039,880.208c-1.562,37.5 -2.604,75 -4.167,112.5c193.229,14.583 387.5,52.604 579.166,40.625c2668.749,-167.708 5341.665,-230.208 8011.976,-141.667c3105.207,102.604 6206.248,323.958 9260.413,932.291c1615.624,321.875 3211.457,740.625 4815.623,1118.75c110.417,26.042 214.583,79.687 303.646,197.396c-148.958,-8.854 -297.917,-12.5 -446.354,-27.083c-1985.416,-193.229 -3968.748,-418.75 -5957.289,-572.396c-1883.853,-145.833 -3773.436,-219.792 -5660.935,-317.708c-1471.874,-76.562 -2943.749,-168.229 -4416.665,-205.729c-2167.707,-54.687 -4338.019,-128.125 -6504.685,-82.292c-2382.291,50.521 -4736.456,397.917 -7042.185,1024.479c-192.187,52.604 -489.583,49.479 -490.625,294.271c0,155.729 190.104,360.937 347.917,459.375c335.937,209.375 693.229,401.562 1066.145,533.333c1331.77,470.833 2706.249,566.146 4108.332,429.166c1777.603,-174.479 3555.728,-370.312 5338.54,-466.146c1748.437,-93.75 3502.603,-73.437 5254.685,-101.562c66.146,-1.042 132.812,15.104 202.083,78.646c-802.604,105.208 -1607.291,197.396 -2407.291,317.708c-2386.457,359.896 -4770.311,729.687 -7085.935,1444.791c-1075.52,332.292 -2173.437,434.375 -3291.145,194.792c-371.875,-80.208 -754.687,-125.521 -1134.895,-145.312c-397.396,-20.312 -534.896,136.979 -533.333,528.125c0.521,52.083 7.292,104.167 12.5,155.729c76.562,769.791 163.021,853.125 927.604,856.25c919.791,4.167 1840.624,16.146 2759.895,-1.562c1896.353,-36.458 3779.165,142.708 5659.373,343.229c2556.249,271.875 5093.227,678.125 7606.247,1220.833c1543.749,333.333 3083.853,688.541 4611.456,1089.062c1251.562,328.125 2507.811,264.583 3775.519,229.167c1246.875,-34.896 2495.312,-7.292 3743.228,-4.167c120.833,0.521 242.187,33.854 363.021,31.771c1653.124,-24.479 3289.061,195.833 4929.686,346.354c129.687,11.979 260.937,2.083 391.146,2.083c11.979,-35.417 24.479,-70.312 36.458,-105.208c-144.271,-68.229 -282.292,-155.729 -433.333,-201.042c-631.25,-190.625 -1264.583,-376.562 -1900.52,-549.479c-2278.124,-619.791 -4557.29,-1233.333 -6835.414,-1851.041c-212.5,-57.812 -421.354,-129.167 -631.25,-194.271c1.042,-38.542 2.083,-76.562 3.125,-114.583c280.208,-41.146 559.896,-104.687 841.666,-118.75c432.812,-21.354 868.75,-28.646 1301.562,-8.333c2067.708,97.917 4118.228,314.583 6104.164,944.27c176.562,55.729 358.854,91.146 574.479,55.208c-91.146,-58.333 -177.604,-127.083 -273.958,-173.437c-1289.583,-617.187 -2661.457,-1000 -4014.582,-1442.187c-1698.437,-555.208 -3379.165,-1165.625 -5065.102,-1759.374c-203.125,-71.875 -438.541,-121.875 -554.166,-438.021c169.271,-59.896 317.708,-138.021 475,-164.583c1824.999,-307.292 3661.457,-355.208 5499.477,-178.125c1842.708,177.083 3408.853,1009.895 4833.331,2145.312c94.792,75.521 188.542,152.604 286.979,222.917c23.958,16.667 65.625,8.333 156.25,16.667c-44.271,-122.396 -61.979,-235.937 -121.354,-319.792c-140.104,-197.917 -285.937,-395.312 -454.166,-569.271c-1206.77,-1247.916 -2416.666,-2491.145 -3795.832,-3556.769c-2354.687,-1818.749 -4858.852,-3390.103 -7479.164,-4805.206c-2928.124,-1580.208 -6047.393,-2509.895 -9290.1,-3110.415c-386.458,-71.354 -772.916,-145.312 -1149.479,-306.25c534.375,0 1070.833,-30.729 1603.124,4.687c2970.311,197.917 5915.102,559.375 8723.434,1615.624c1347.395,507.291 2671.874,1076.041 3999.998,1633.333c1494.791,627.083 2875.52,1473.437 4220.832,2360.937c1010.416,666.666 1946.353,1452.083 2879.166,2228.645c543.229,452.083 1013.02,992.708 1518.229,1490.624c70.312,69.271 156.771,122.917 255.729,199.479c-26.562,-593.75 -1576.562,-2984.374 -3152.082,-4714.061c-1301.562,-1429.687 -2841.666,-2595.311 -4452.082,-3662.499c-1597.395,-1058.333 -3349.478,-1806.249 -5114.581,-2576.041c58.854,-6.25 119.271,-23.437 177.083,-16.667c2940.103,347.396 5753.123,1132.291 8399.476,2473.437c1292.708,655.208 2459.895,1495.312 3502.082,2505.207c273.958,265.104 551.562,527.604 819.271,798.958c220.833,223.958 488.541,314.583 795.312,332.812c1974.478,119.792 3884.373,568.75 5724.998,1264.583c902.083,340.625 1734.374,866.666 2597.916,1309.895c177.604,91.667 352.604,189.062 642.187,344.792c-20.833,-261.458 -8.854,-408.333 -46.354,-541.666c-452.083,-1602.083 -1186.458,-3072.395 -2106.77,-4453.123c-172.917,-259.896 -368.75,-504.687 -545.312,-762.5c-63.021,-92.187 -98.437,-203.125 -85.937,-396.875c182.812,68.229 375.521,117.187 545.833,208.333c2652.082,1420.833 4393.227,3513.019 4827.602,6567.185c170.833,1202.604 345.312,2405.207 534.896,3605.207c57.812,368.229 92.708,757.291 378.125,1061.458c245.833,-67.187 224.479,-261.458 225,-422.396c4.167,-937.5 22.917,-1876.041 -9.375,-2811.978c-28.125,-831.25 -103.125,-1661.979 -183.333,-2490.103c-63.021,-655.729 -166.146,-1307.812 -248.437,-1961.978c-20.833,-165.625 -28.646,-332.812 -45.833,-535.937c290.625,36.458 352.604,237.5 454.687,380.729c1176.041,1648.437 2070.312,3446.874 2853.645,5308.331c624.479,1483.333 1091.666,3008.332 1195.833,4616.144c61.979,948.958 24.479,1906.77 -8.854,2858.853c-20.312,583.333 -116.667,1164.062 -103.125,1774.478c54.687,-93.229 127.604,-180.208 160.937,-280.729c589.583,-1769.27 990.625,-3580.728 1141.666,-5440.102c69.792,-863.541 117.187,-1732.291 105.208,-2597.916c-43.75,-3160.936 -592.187,-6214.06 -2025.52,-9067.705c-556.25,-1107.812 -1243.75,-2121.874 -2070.833,-3047.915c-1261.979,-1411.614 -2827.603,-2450.937 -4328.123,-3568.436c-1071.875,-798.646 -2193.228,-1525.833 -3409.374,-2098.28c-1815.624,-854.948 -3678.644,-1560.416 -5691.664,-1767.395c-1420.833,-146.042 -2842.186,-104.896 -4257.29,91.615c-1478.645,205.208 -2953.124,448.594 -4436.457,605.833c-1326.562,140.625 -2662.499,226.823 -3995.832,264.167c-1578.645,44.271 -3159.374,21.51 -4739.581,8.073c-3140.624,-26.771 -6281.247,-115.729 -9421.35,-88.854c-3530.207,30.208 -6934.893,695.885 -10105.725,2332.134c-276.562,142.708 -572.916,248.698 -862.5,363.594c-58.333,22.969 -131.25,9.01 -199.479,12.187c-81.771,-215.833 71.875,-305.781 182.292,-397.448c760.416,-632.5 1523.437,-1262.083 2291.145,-1885.676c969.27,-787.135 1986.978,-1520.156 2904.686,-2363.228c1146.875,-1054.322 2071.874,-2299.843 2573.957,-3798.384c358.333,-1067.76 580.729,-1624.114 1207.812,-2560.468c569.791,-851.041 1130.729,-1259.583 1766.666,-1648.906c707.812,-433.437 1497.395,-741.823 1902.603,-829.739c1317.187,-285.573 2098.957,-217.396 2734.374,-207.708c1171.354,17.917 2349.478,105.469 3790.103,301.302c1613.541,219.427 2768.749,487.916 3690.103,668.281c1267.187,248.229 4132.811,1469.583 6762.497,2802.238c1793.228,908.385 3446.874,2014.166 4905.727,3395.988c1159.375,1098.489 2539.582,1588.229 4111.978,1616.249c3171.353,56.51 6249.477,578.698 9181.767,1836.041c2316.145,993.177 4406.769,2321.562 6285.935,4014.009c1767.187,1591.197 3182.29,3442.394 4274.477,5529.373c1180.729,2256.249 2042.708,4635.415 2392.187,7179.164c184.375,1342.708 347.917,2684.374 325,4042.707c-10.937,642.187 9.375,1284.895 -5.208,1927.083c-16.667,745.312 -40.625,1491.145 -91.667,2234.374c-34.896,515.625 55.729,928.645 494.271,1283.854c955.729,775 1924.478,1547.395 2792.186,2416.145c2146.874,2150.52 4206.248,4374.998 5748.435,7032.81c864.583,1488.541 1438.541,3079.686 1942.708,4704.165c730.729,2355.728 1394.791,4733.852 1773.958,7173.435c204.687,1315.624 284.375,2654.686 348.958,3986.978c31.771,657.291 135.417,1266.666 431.25,1852.603c983.333,1946.353 1699.478,3989.061 2207.291,6108.331c320.312,1337.499 554.687,2687.499 605.729,4061.978c54.687,1472.916 113.021,2948.436 92.708,4421.352c-37.5,2741.145 -578.125,5384.894 -1796.353,7854.684c-789.583,1602.083 -1588.02,3206.77 -2502.603,4738.54c-897.916,1502.604 -1918.228,2939.061 -3110.415,4231.769c-1010.937,1096.354 -2036.458,2184.374 -3119.27,3208.853c-817.187,772.916 -1707.812,1476.041 -2614.061,2145.312c-2598.957,1919.27 -5461.977,3356.249 -8444.267,4581.248c-2969.79,1219.791 -5949.998,2420.832 -8785.934,3941.144c-1826.041,978.645 -3532.29,2133.853 -5114.06,3476.04c-2386.978,2025.52 -4475.519,4357.811 -6730.726,6518.227c-1266.145,1212.5 -2576.041,2378.645 -4103.644,3268.749c-1314.583,766.146 -2676.041,1441.666 -4212.498,1562.499c-1066.666,83.854 -2150.52,73.437 -3217.707,-8.854c-850.52,-65.625 -1686.978,-120.312 -2541.145,-57.292c-544.271,39.583 -1110.416,-34.896 -1647.916,-146.875c-674.479,-141.146 -1007.291,-663.021 -995.312,-1395.312c13.021,-798.437 12.5,-790.625 -789.062,-810.937c-327.604,-7.812 -664.583,-17.187 -979.166,-97.917c-731.25,-186.979 -1145.312,-684.375 -1249.479,-1432.812c-45.312,-326.562 -73.958,-655.729 -122.917,-981.77c-54.167,-365.104 -115.625,-465.104 -484.375,-498.437c-784.896,-70.833 -1135.416,-575 -1169.791,-1395.833c-9.375,-225 1.042,-451.562 17.187,-676.041c17.187,-243.75 -77.083,-401.562 -313.542,-470.312c-100,-28.646 -198.958,-60.937 -300,-85.937c-637.5,-158.333 -956.25,-595.312 -1047.916,-1217.708c-69.792,-473.437 -38.542,-944.27 192.187,-1370.833c189.062,-348.958 406.771,-684.896 638.541,-1007.291c279.167,-386.979 298.437,-472.916 58.854,-888.02c-692.187,-1198.958 -675.521,-1628.124 189.062,-2731.249c814.062,-1037.5 1676.041,-2038.02 2473.957,-3086.978c321.354,-422.396 540.104,-925.52 781.771,-1403.645c79.687,-157.292 86.458,-351.562 157.292,-664.062c-303.646,133.854 -497.396,188.542 -657.812,294.792c-910.937,604.687 -1807.812,1230.729 -2721.874,1830.728c-594.271,390.104 -1208.854,747.916 -1816.145,1118.229c-73.437,44.792 -154.167,80.208 -233.854,114.062c-473.958,202.083 -619.791,106.771 -650,-423.437c-4.167,-69.271 -3.646,-139.062 -3.646,-208.333c0,-1788.02 -15.104,-3576.561 4.687,-5364.581c15.625,-1424.999 416.146,-2771.353 911.458,-4095.832c464.062,-1242.708 1089.062,-2399.999 1783.333,-3525.519c803.646,-1301.562 1535.937,-2644.27 2106.77,-4064.061c329.167,-819.271 608.854,-1664.062 841.145,-2516.145c521.354,-1915.103 1405.208,-3653.124 2450.52,-5324.998c767.708,-1228.125 1730.728,-2300.52 2636.978,-3419.269c349.479,-431.25 718.229,-846.875 1065.104,-1279.687c113.021,-140.625 185.417,-314.062 276.042,-472.396c-24.479,-33.854 -48.958,-67.187 -73.958,-101.042c-135.937,40.625 -281.25,63.021 -406.771,125c-1329.166,658.854 -2565.624,1452.604 -3623.436,2505.728c-1605.729,1597.916 -3035.415,3337.499 -4233.852,5260.415c-933.333,1496.874 -1576.562,3127.082 -2133.332,4794.269c-492.187,1474.479 -720.312,2998.957 -894.791,4537.498c-134.896,1193.75 -426.562,2352.082 -841.666,3483.853c-617.708,1684.895 -1353.124,3310.936 -2311.457,4828.644c-686.458,1087.5 -1401.562,2162.499 -2385.416,3008.853c-456.25,392.187 -969.791,725.521 -1486.458,1037.5c-384.896,232.812 -643.75,98.437 -793.229,-339.583c-50.521,-147.396 -76.042,-303.125 -114.583,-454.166c-400.521,-1573.437 -1188.02,-2926.561 -2390.103,-4011.457c-603.646,-544.791 -1267.187,-1030.208 -1936.458,-1494.27c-1311.979,-909.375 -2647.916,-1783.333 -3971.873,-2674.999c-386.458,-260.937 -754.166,-276.562 -1159.895,-16.146c-1694.27,1085.416 -3412.499,2134.374 -5090.623,3244.27c-632.291,417.708 -1186.458,956.77 -1764.583,1454.166c-794.271,683.333 -1211.979,1594.791 -1490.104,2577.082c-127.604,450 -196.875,916.666 -313.542,1370.312c-120.833,468.229 -351.042,546.875 -694.271,214.062c-335.417,-325 -670.833,-665.104 -929.166,-1050c-666.146,-993.75 -1328.645,-1993.749 -1921.353,-3032.29c-818.229,-1434.374 -1169.791,-3039.061 -1524.479,-4632.811c-346.354,-1558.854 -672.396,-3121.353 -996.354,-4684.894c-77.083,-372.396 -86.979,-758.854 -164.583,-1131.25c-193.75,-932.812 -382.292,-1868.228 -621.875,-2790.103c-319.271,-1228.125 -700,-2443.749 -1354.687,-3539.582c-479.166,-803.125 -1010.416,-1577.604 -1561.458,-2333.332c-817.187,-1122.395 -1655.729,-2230.207 -2515.624,-3319.79c-1206.25,-1529.166 -2719.791,-2616.145 -4638.54,-3080.207c-126.562,-30.729 -259.896,-33.854 -505.729,-64.062c113.542,236.979 159.896,400.521 257.812,522.916c205.208,256.771 432.291,496.354 659.896,734.375c635.937,664.062 1286.458,1314.583 1913.541,1986.978c1052.083,1129.166 1582.812,2515.624 1903.645,3993.748c217.708,1000.52 395.312,2009.895 607.812,3011.457c329.167,1550.52 831.25,3048.436 1464.583,4498.957c504.687,1156.77 1259.374,2158.332 2076.562,3106.77c1473.958,1711.458 2330.728,3682.811 2576.041,5922.393c41.667,378.125 60.417,761.979 53.646,1142.187c-32.292,1844.27 89.062,3676.561 392.708,5496.352c31.25,187.5 40.625,379.687 50.521,569.791c2.604,46.354 -32.292,94.792 -71.875,201.042c-195.312,-60.417 -390.104,-107.292 -576.041,-179.167c-1279.687,-492.187 -2556.249,-992.187 -3836.457,-1483.854c-209.896,-80.208 -427.604,-149.479 -647.396,-193.229c-311.458,-61.458 -445.833,77.604 -329.167,376.562c144.271,370.312 309.896,742.708 532.812,1068.75c351.042,514.062 752.604,994.27 1141.666,1481.77c443.75,555.729 913.541,1090.625 1341.666,1657.812c467.708,620.312 584.375,1275.52 123.958,1978.124c-214.583,328.125 -188.021,410.417 149.479,705.208c579.166,505.729 752.604,1141.666 674.479,1876.562c-72.917,688.541 -465.625,1153.645 -1132.291,1333.333c-836.979,226.042 -860.416,226.562 -826.562,1062.5c29.167,716.666 -262.5,1202.083 -907.812,1484.374c-269.271,118.229 -543.75,227.083 -822.396,320.312c-493.75,164.062 -536.979,228.646 -459.896,755.729c35.417,240.104 85.417,481.25 86.458,721.875c3.125,985.416 -547.396,1555.208 -1527.604,1603.645c-34.896,1.562 -69.792,-1.042 -104.167,3.125c-253.646,33.333 -558.854,-8.333 -748.437,119.792c-252.083,169.792 -32.812,481.771 -25.521,730.729c16.667,580.208 -286.458,1063.02 -870.312,1203.645c-519.791,125 -1059.375,183.333 -1593.749,229.167c-1123.437,96.354 -2248.957,162.5 -3373.436,246.354c-2294.27,171.875 -4472.915,-174.479 -6399.997,-1515.624c-723.437,-503.125 -1419.791,-1058.854 -2065.624,-1657.812c-1246.354,-1156.77 -2433.853,-2376.562 -3672.394,-3541.144c-1190.104,-1118.75 -2482.812,-2116.666 -3831.248,-3038.02c-1906.77,-1302.604 -3856.769,-2533.853 -5893.748,-3627.603c-1727.708,-927.604 -3426.197,-1908.853 -5142.602,-2856.77c-1537.083,-849.479 -3148.801,-1540.104 -4765.206,-2220.832c-1183.854,-497.916 -2378.176,-973.958 -3543.749,-1511.979c-801.927,-370.312 -1571.041,-815.104 -2340.416,-1251.562c-2346.978,-1332.812 -4532.602,-2892.186 -6567.654,-4666.665c-2223.541,-1939.062 -4151.821,-4142.707 -5848.071,-6546.352c-1484.322,-2102.603 -2786.822,-4316.144 -3734.686,-6720.831c-353.333,-896.354 -521.771,-1835.937 -537.187,-2797.916c-15,-937.5 -31.458,-1876.041 5.156,-2812.499c38.698,-986.979 126.51,-1972.916 216.25,-2957.29c116.615,-1278.645 247.135,-2556.249 388.073,-3832.29c298.281,-2701.041 1077.447,-5265.102 2238.957,-7716.143c430.989,-909.895 865.989,-1817.708 1310.208,-2720.832c236.198,-480.208 301.927,-984.895 320.625,-1513.02c111.25,-3145.311 357.604,-6277.081 1225.052,-9319.267c948.75,-3327.082 2464.322,-6367.185 4702.446,-9031.246c1017.916,-1211.458 2095.676,-2367.707 3258.124,-3434.894c1110.364,-1019.791 2278.228,-1979.166 3451.926,-2926.561c403.333,-325.521 604.791,-665.625 594.635,-1186.458c-23.229,-1197.395 -17.24,-2395.832 -4.948,-3593.228c24.427,-2379.687 410.364,-4711.977 1164.531,-6958.331c748.489,-2228.645 1835.781,-4304.165 3243.436,-6206.248c922.5,-1246.875 1919.426,-2424.843 3065.936,-3464.79c2196.457,-1992.291 4678.54,-3525.988 7475.726,-4535.311c1554.687,-561.041 3127.603,-1055.312 4781.769,-1217.135c776.562,-75.885 1555.729,-119.896 2334.374,-168.073c796.354,-49.271 1594.27,-73.854 2389.582,-131.458c902.083,-65.365 1655.208,-457.083 2315.624,-1069.739c1766.666,-1638.593 3734.894,-2980.624 5874.477,-4096.717c2338.541,-1220 4793.227,-2151.405 7316.143,-2852.655c1361.458,-378.385 2676.561,-688.854 4378.644,-839.062c1105.729,-97.604 1298.958,-81.875 2408.332,-38.021c1213.02,47.917 1951.041,301.198 2334.374,412.292c1360.416,394.01 878.645,299.375 2387.499,1098.541c429.687,227.396 1289.583,896.198 1419.791,1364.427c92.187,333.125 36.979,589.844 -223.437,843.177c-434.896,422.448 -813.541,902.76 -1247.395,1325.989c-1794.27,1749.01 -3717.186,3337.707 -5857.289,4652.394c-117.708,72.448 -231.771,152.917 -341.146,237.76c-37.5,29.427 -56.771,83.385 -93.75,140.469c99.479,225.364 308.854,191.354 487.5,194.219c572.396,9.271 1145.833,-4.375 1718.228,9.167c849.479,20.052 1699.478,37.187 2546.874,91.979c497.916,32.187 806.25,-146.979 1047.395,-585.416c934.375,-1700.051 1672.395,-3469.634 2030.728,-5385.258c24.479,-130.573 81.771,-255 221.354,-407.917c66.146,145.417 147.396,285.989 196.354,437.031c643.75,1994.114 1761.458,3695.051 3268.228,5129.008c713.541,679.218 1515.624,1267.135 2291.145,1879.791c816.666,645.521 1650.52,1269.01 2472.395,1908.333c97.917,76.042 165.104,191.302 195.312,358.229c-94.792,-20.729 -195.312,-27.917 -283.854,-64.115c-2736.978,-1119.635 -5604.164,-1717.656 -8520.83,-2106.978c-1582.812,-211.354 -3173.957,-335.052 -4773.436,-322.344c-1076.562,8.594 -2153.124,-11.094 -3229.165,5.99c-1560.937,24.792 -3121.353,68.698 -4682.29,109.583c-988.02,25.833 -1977.603,115.573 -2963.02,81.198c-2531.77,-88.333 -5055.206,-287.552 -7566.143,-653.698c-1423.437,-207.604 -2856.77,-386.042 -4292.186,-462.864c-2276.041,-121.875 -4432.811,408.177 -6521.872,1319.791c-2020.312,881.614 -3906.248,1976.822 -5618.956,3349.582c-1464.426,1173.645 -2774.113,2515.103 -3938.123,3995.832c-1991.614,2534.374 -3318.592,5362.498 -3833.801,8554.163c-213.385,1321.874 -270.208,2653.124 -289.271,3993.228c-34.792,2444.791 245.989,4853.123 750.677,7234.372c207.865,980.729 558.177,1931.77 853.906,2893.228c47.187,153.125 147.969,290.104 223.958,434.896c32.24,-11.458 64.427,-22.396 96.615,-33.333c-6.823,-94.792 0.26,-192.708 -22.552,-283.333c-599.323,-2378.645 -757.76,-4802.081 -623.177,-7236.976c176.979,-3202.082 1103.697,-6172.914 2990.884,-8804.684c242.344,-338.021 486.146,-676.041 747.239,-999.479c114.687,-142.187 274.427,-247.917 427.656,-382.292c235,245.312 103.906,470.312 65.729,672.916c-167.396,886.458 -376.146,1766.145 -523.541,2655.728c-327.969,1979.687 -376.146,3970.311 -156.615,5965.623c25.885,234.896 74.687,467.708 112.865,701.562c35.781,2.083 71.51,3.646 107.292,5.729c34.427,-140.104 77.552,-278.646 102.031,-420.312c591.666,-3428.124 1813.02,-6625.518 3591.144,-9604.163c1062.083,-1778.645 2417.291,-3303.124 4249.061,-4343.748c155.729,-88.542 326.042,-150.521 528.125,-176.562c-163.542,541.146 -583.854,892.187 -856.77,1337.499c-281.25,458.333 -567.708,914.062 -829.166,1383.854c-253.125,454.687 -489.062,920.312 -711.458,1390.624c-229.687,486.458 -444.271,980.208 -646.875,1478.645c-198.958,491.146 -433.333,975 -472.916,1598.958c167.187,-63.542 284.896,-80.729 366.667,-143.75c2126.041,-1653.124 4552.602,-2556.249 7205.726,-2896.353c68.75,-8.333 137.5,-21.875 206.771,-24.479c726.562,-31.25 1276.562,-354.687 1829.687,-843.229c867.187,-766.666 1820.833,-1449.479 2796.874,-2076.041c2411.457,-1548.958 5009.894,-2693.228 7795.83,-3388.54c1570.312,-391.667 3171.874,-595.208 4780.727,-741.51c46.875,-4.271 95.833,16.25 246.354,44.479c-243.75,60.521 -389.583,105.052 -538.541,132.396c-1905.728,350.573 -3736.457,950.573 -5497.394,1743.801c-1704.687,768.229 -3225.52,1819.27 -4601.04,3095.832c-1261.458,1170.833 -2295.312,2510.416 -3130.728,4002.082c-345.833,618.229 -604.166,1286.458 -884.375,1939.583c-67.187,157.292 -61.979,345.833 -90.104,520.312c41.146,20.833 82.812,42.187 123.958,63.021c120.833,-106.25 263.542,-196.354 359.375,-321.875c931.77,-1220.312 2036.458,-2281.249 3164.061,-3306.77c1301.041,-1183.333 2770.832,-2151.041 4367.186,-2900.52c1633.333,-767.187 3274.999,-1519.27 5006.769,-2051.562c1980.208,-608.854 3985.415,-1100 6060.414,-1215.625c1246.354,-69.271 2496.353,-66.667 3744.79,-93.75c80.208,-2.083 160.417,14.583 245.312,89.583c-164.583,32.812 -327.604,78.125 -493.75,96.875c-2983.853,334.896 -5873.435,1073.958 -8688.017,2096.353c-2092.187,760.416 -3931.769,1977.083 -5673.435,3345.832c-572.916,450.521 -1141.145,906.77 -1706.77,1366.145c-111.979,91.146 -203.125,208.333 -361.979,373.958c688.541,251.042 1349.479,10.937 2064.062,236.979c-235.417,200.521 -378.646,342.708 -541.146,457.291c-1645.312,1160.416 -3308.853,2295.312 -4935.936,3480.728c-1148.958,837.5 -2249.999,1739.583 -3367.707,2619.27c-127.083,100 -223.958,239.062 -334.896,359.896c22.917,35.417 45.833,70.833 68.75,105.729c198.437,-80.208 402.083,-150 594.271,-242.708c2177.603,-1045.312 4389.582,-2010.416 6696.351,-2732.291c1888.541,-590.625 3780.728,-1179.166 5760.414,-1399.999c215.625,-23.958 434.375,-22.396 651.562,-32.812c9.375,38.021 18.75,76.042 28.125,114.062c-742.708,348.958 -1494.791,679.687 -2225.52,1051.041c-742.187,377.083 -1471.354,782.291 -2193.228,1196.875c-722.396,414.583 -1441.145,837.5 -2139.582,1291.145c-697.916,453.646 -1378.645,935.937 -2047.916,1432.291c-657.812,487.5 -1392.187,880.208 -1966.145,1474.479c13.542,35.937 27.083,71.354 40.625,106.771c181.25,-22.396 365.104,-32.292 543.75,-68.75c1639.062,-332.812 3298.436,-446.354 4966.665,-472.396c624.479,-9.896 1247.916,-57.292 1871.874,-63.021c380.208,-3.125 760.416,47.396 1141.666,62.5c1644.27,66.667 3249.478,-190.625 4844.79,-564.583c2568.749,-602.604 5133.331,-1235.937 7757.809,-1552.083c1325.52,-159.896 2656.77,-277.083 3988.019,-384.375c2599.478,-209.375 5204.165,-73.958 7806.247,-80.729c479.687,-1.042 597.916,-72.396 634.896,-538.021c25,-310.417 26.042,-626.041 -2.083,-935.416c-27.604,-297.917 -160.937,-386.458 -458.854,-360.417c-120.312,10.937 -239.583,41.146 -357.292,70.312c-1102.604,271.875 -2205.728,264.062 -3295.311,-47.917c-2023.958,-579.166 -4088.019,-964.062 -6166.143,-1274.999c-1407.812,-210.937 -2818.749,-397.396 -4227.602,-597.396c-130.208,-18.75 -257.292,-59.896 -378.125,-160.417c148.958,-9.375 298.437,-26.562 447.396,-27.083c1354.166,-1.562 2709.374,-33.333 4062.498,9.375c1194.791,37.5 2388.02,149.479 3580.728,244.792c1556.249,123.958 3108.853,302.083 4667.186,385.937c1333.854,71.354 2630.728,-155.729 3826.04,-804.687c45.833,-24.479 100.521,-39.583 136.979,-73.958c122.396,-113.542 310.417,-218.75 340.104,-356.25c49.479,-226.562 -193.229,-303.646 -359.896,-381.25c-2097.395,-978.645 -4226.04,-1887.499 -6531.247,-2235.416c-2211.978,-333.333 -4436.457,-590.104 -6658.852,-857.812c-1256.77,-151.562 -2518.228,-277.083 -3780.207,-378.125c-1296.354,-104.167 -2596.353,-163.021 -3894.269,-242.708c-147.396,-8.854 -294.792,-24.479 -449.479,-111.458c122.917,-47.396 242.187,-109.375 369.271,-140.104c1570.833,-381.25 3153.645,-693.75 4770.311,-794.271c1263.541,-79.167 2527.603,-145.312 3791.665,-207.292c848.437,-42.187 1699.999,-123.437 2546.353,-88.542c2269.27,92.708 4548.957,145.312 6745.31,838.02c446.875,141.146 890.104,293.229 1336.458,435.937c125.521,40.104 256.25,64.062 384.896,95.312c19.271,-29.687 38.542,-59.375 57.812,-89.062c-108.333,-90.104 -209.375,-192.708 -327.083,-268.75c-898.958,-581.771 -1908.333,-908.854 -2913.541,-1241.145c-1244.27,-410.937 -2534.374,-598.437 -3832.29,-711.458c-1537.499,-133.333 -3079.686,-208.333 -4617.706,-332.812c-552.083,-44.792 -1100.52,-146.354 -1645.312,-249.479c-227.083,-43.229 -480.729,-86.458 -630.208,-344.792c190.104,-266.667 481.25,-354.687 753.646,-434.375c782.812,-228.125 1570.312,-442.708 2363.02,-633.333c1423.437,-342.708 2879.686,-505.729 4335.415,-489.583c1718.749,19.271 3422.915,252.604 5088.019,727.083c1397.395,398.958 2702.082,981.77 3919.269,1778.124c410.937,269.271 588.541,598.437 568.75,1079.687c-42.187,1022.395 -63.021,2045.312 -92.708,3067.707c-3.646,121.875 -11.458,243.229 -12.5,364.583c-35.417,4824.477 -83.333,9648.954 -98.958,14473.953c-5.729,1803.645 34.375,3608.853 106.25,5410.935c63.021,1574.479 -470.833,2930.728 -1379.166,4164.061c-1127.083,1530.208 -2556.249,2689.061 -4348.957,3355.728c-1133.854,421.354 -2176.562,1000.52 -3143.749,1715.103c-865.104,639.583 -1705.728,1311.979 -2553.645,1974.999c-130.729,102.604 -240.625,232.812 -435.416,423.437c227.604,97.396 369.271,179.687 521.354,217.708c268.75,67.708 544.791,106.25 816.666,161.979c253.125,52.083 345.833,214.062 289.583,460.416c-72.917,321.354 -158.333,640.104 -229.167,962.5c-141.146,643.75 -277.604,1289.062 -412.5,1934.374c-24.479,118.75 -44.271,240.625 -44.271,360.937c0,351.042 173.958,469.791 453.125,267.187c910.937,-661.979 1916.666,-1193.229 2721.353,-2003.645c488.541,-491.666 1039.062,-923.958 1512.499,-1428.645c925.52,-986.458 1819.791,-2002.083 2721.353,-3010.936c450.521,-504.166 885.937,-1022.395 1333.854,-1529.166c294.792,-333.333 433.333,-339.062 698.958,9.375c389.062,510.937 757.812,1036.979 1128.125,1561.979c330.208,467.708 639.583,951.041 977.604,1412.499c326.042,445.312 351.042,890.625 75,1359.895c-322.917,550 -768.75,981.25 -1305.729,1317.708c-1000,625.521 -2013.02,1231.77 -3005.207,1869.791c-2295.312,1476.562 -4308.852,3263.02 -5989.06,5424.998c-836.979,1077.083 -1515.104,2239.582 -2095.832,3467.186c-452.604,956.77 -933.854,1901.041 -1370.312,2865.103c-782.291,1726.562 -1241.666,3542.186 -1274.999,5438.539c-14.062,808.854 88.021,1630.729 233.333,2429.687c294.792,1625.52 770.312,3205.207 1378.645,4742.706c606.771,1533.333 1212.5,3067.186 1818.749,4601.04c548.437,1387.499 1093.75,2777.082 1648.437,4161.978c91.146,227.604 224.479,438.021 338.021,656.771c47.396,-15.625 94.271,-30.729 141.667,-45.833c-35.417,-173.437 -34.896,-364.583 -110.417,-517.708c-1129.687,-2281.249 -1824.999,-4725.519 -2678.645,-7109.893c-696.875,-1946.353 -1304.687,-3920.832 -1612.499,-5973.435c-227.083,-1513.02 -389.062,-3029.165 -165.625,-4605.727m-54370.812,-30310.405c0,0 -0.26,0 -13.333,76.562c-136.042,317.187 -243.802,651.041 -413.125,950c-641.614,1132.291 -1289.999,2261.457 -1959.999,3377.603c-1478.229,2461.978 -2477.395,5121.352 -3228.54,7876.559c-674.375,2474.478 -895.364,5020.31 -1039.323,7568.747c-88.021,1557.812 -100.729,3120.832 -109.948,4681.769c-6.302,1062.5 164.375,2109.895 457.812,3132.811c385.469,1344.27 1164.635,2395.312 2374.687,3106.249c388.281,228.125 793.854,431.771 1206.666,611.979c1529.166,667.708 2998.957,1449.999 4450.623,2268.228c2383.384,1343.749 4574.894,2956.77 6628.539,4758.331c1394.635,1223.958 2908.332,2251.041 4644.373,2929.165c209.739,81.771 421.771,161.458 638.646,220.833c229.01,62.5 368.906,-42.187 403.385,-277.083c12.552,-85.937 18.646,-172.917 19.062,-259.375c6.979,-1413.541 -115.521,-2813.02 -577.135,-4157.811c-745.677,-2172.916 -2005.676,-4051.561 -3554.478,-5707.289c-2110.103,-2256.249 -4318.748,-4418.748 -6847.185,-6223.956c-564.531,-403.125 -1100.26,-846.875 -1638.749,-1284.895c-230.937,-188.021 -476.198,-376.562 -559.844,-704.166c165.208,22.917 302.552,79.167 432.187,149.479c853.906,464.062 1700.937,941.145 2560.103,1394.791c1574.947,832.291 3031.926,1841.145 4325.988,3056.77c1199.427,1126.041 2419.062,2247.395 3308.801,3660.936c52.24,82.812 163.542,128.646 293.437,226.562c60.885,-515.625 -144.531,-884.895 -313.542,-1256.249c-789.635,-1736.978 -1950.208,-3192.707 -3404.894,-4414.582c-1474.947,-1238.541 -2963.384,-2461.457 -4449.79,-3685.936c-1100.989,-907.291 -2120.78,-1894.791 -3035.988,-2991.145c-1239.375,-1484.895 -1758.437,-3222.915 -1716.093,-5119.269c31.458,-1407.291 276.927,-2801.041 652.76,-4158.332c495.312,-1789.583 1026.354,-3569.79 1569.374,-5345.31c431.302,-1410.416 902.239,-2808.853 1360.52,-4210.936c39.74,-121.354 116.51,-230.729 176.042,-345.312c152.552,214.062 232.448,421.354 257.864,635.416c118.49,998.958 227.5,1998.958 328.906,2999.478c75.156,741.666 128.854,1485.416 203.906,2227.603c12.187,120.312 85.573,234.896 146.875,394.271c324.114,-236.979 423.906,-540.104 565.729,-809.375c496.562,-944.27 1110.833,-1801.041 1866.406,-2554.166c136.823,-136.458 268.437,-317.708 591.25,-254.167c-237.604,448.958 -436.302,868.229 -673.958,1264.583c-726.562,1210.937 -1295.572,2493.749 -1766.093,3821.873c-58.437,165.104 -82.604,342.187 -143.333,602.083c144.74,-92.708 199.271,-110.417 225.573,-147.396c129.792,-184.375 259.219,-369.271 375.989,-561.979c1317.916,-2172.916 2779.113,-4236.977 4576.3,-6047.393c398.646,-402.083 389.792,-533.854 -80.625,-844.791c-1019.427,-674.479 -1931.874,-1472.916 -2767.499,-2359.374c-972.343,-1032.291 -1787.447,-2179.687 -2300.624,-3504.686c-311.927,-805.208 -507.864,-1655.729 -750.26,-2488.02c-136.25,-467.708 -286.302,-520.833 -631.198,-197.917c-126.146,117.708 -239.271,251.562 -348.021,386.458c-959.531,1189.583 -1838.593,2436.457 -2695.884,3702.603c-914.114,1349.479 -1858.645,2682.811 -2861.77,3967.186c-960.156,1229.166 -2026.041,2375.52 -3020.051,3579.165c-729.635,883.333 -1414.635,1801.041 -1879.114,2864.582c-401.927,919.791 -646.875,1867.708 -607.656,2877.603c6.25,160.937 45.677,320.833 69.792,481.25c43.542,10.417 87.083,20.312 130.677,30.208c113.542,-180.208 244.167,-352.604 337.917,-542.708c592.604,-1202.604 1298.333,-2333.332 2101.145,-3407.29c884.323,-1183.333 1831.145,-2306.249 2854.322,-3376.04c736.771,-770.312 1523.801,-1465.104 2366.822,-2104.166c274.167,-208.333 589.375,-361.979 885.573,-540.625m40730.713,55526.019c0,0 0,-6.25 -27.083,-72.396c-101.562,-161.458 -195.312,-328.125 -305.208,-483.333c-687.5,-974.479 -1178.125,-2035.937 -1499.999,-3186.457c-321.875,-1148.437 -435.937,-2324.478 -443.75,-3501.04c-7.812,-1177.083 92.187,-2356.249 184.896,-3531.249c168.75,-2144.27 415.625,-4283.332 536.458,-6429.685c97.917,-1730.208 163.542,-3474.478 54.167,-5201.04c-155.729,-2453.124 -748.958,-4838.019 -1653.645,-7127.08c-1277.604,-3230.207 -3071.353,-6179.164 -5034.373,-9031.246c-865.625,-1257.812 -1767.187,-2496.353 -2422.395,-3883.853c-842.187,-1782.291 -1209.895,-3687.499 -1364.062,-5637.498c-66.667,-846.354 -74.479,-1697.395 -115.625,-2545.832c-8.854,-180.729 36.979,-392.708 -251.562,-528.125c-116.146,139.062 -260.417,279.167 -366.146,443.75c-1604.166,2496.874 -3219.27,4986.456 -4798.956,7498.955c-1107.812,1763.02 -2186.457,3544.79 -3241.145,5340.623c-1127.083,1919.791 -2284.895,3798.436 -3994.425,5288.019c-1372.447,1196.354 -2876.197,2048.437 -4701.977,2272.395c-223.802,27.604 -448.802,56.771 -668.125,107.292c-305.729,70.312 -385.208,181.771 -283.854,486.458c114.323,343.229 245.052,692.187 433.802,998.437c937.708,1521.874 1879.166,3039.582 2681.614,4641.144c622.291,1242.187 1248.02,2480.207 1683.072,3803.123c374.167,1138.02 721.718,2284.374 1110.156,3417.186c530.469,1546.874 1152.76,3062.499 2042.343,4436.977c866.145,1339.583 1830.208,2610.936 2914.061,3793.748c1244.791,1357.812 2519.791,2683.332 3920.311,3877.603c1993.749,1699.478 4028.644,3350.519 6022.393,5049.998c439.583,375.521 842.187,429.687 1380.208,283.333c1221.875,-332.812 2453.645,-634.896 3693.228,-892.187c1344.27,-279.167 2689.061,-259.375 4005.207,201.562c161.458,56.771 338.021,72.396 510.416,110.417m68749.973,-1410.416c769.791,-647.916 1546.874,-1286.979 2307.812,-1944.791c1416.145,-1223.437 2866.145,-2403.645 4107.811,-3824.478c1870.312,-2141.145 3371.874,-4494.269 4371.352,-7155.726c591.666,-1575.52 1140.104,-3167.186 1699.999,-4754.686c525.521,-1488.02 1000,-2995.832 1572.395,-4465.102c453.125,-1163.541 1020.312,-2284.374 1797.916,-3276.04c503.125,-641.666 1036.458,-1259.374 1548.437,-1894.27c217.187,-269.792 432.291,-544.791 616.146,-837.5c167.708,-267.187 104.687,-407.812 -202.604,-500.521c-231.771,-70.312 -475.521,-101.042 -711.458,-156.771c-1776.041,-420.833 -3440.103,-1093.229 -4883.852,-2234.895c-1133.854,-896.875 -2155.207,-1910.416 -3025.52,-3067.186c-2013.541,-2677.082 -3520.832,-5648.435 -5004.685,-8633.33c-425,-854.166 -840.104,-1713.541 -1261.979,-2569.791c-206.25,-419.791 -421.875,-834.895 -626.562,-1255.729c-554.687,-1140.625 -1147.916,-2258.853 -1916.145,-3273.957c-98.437,-130.208 -211.458,-249.479 -317.708,-373.437c-40.625,10.937 -80.729,21.875 -120.833,33.333c-18.75,196.875 -47.917,393.229 -54.687,590.625c-36.458,1108.854 -38.542,2219.791 -106.25,3326.561c-113.542,1856.77 -539.062,3649.999 -1428.124,5288.019c-752.083,1385.937 -1596.874,2723.436 -2437.499,4059.373c-1619.27,2572.395 -3164.061,5180.206 -4356.248,7988.018c-1087.5,2560.416 -1891.666,5193.748 -2053.645,7976.038c-120.312,2077.083 -76.042,4161.978 104.687,6240.102c106.771,1226.041 192.187,2454.166 273.437,3682.29c53.646,813.021 27.604,1634.895 133.333,2439.582c179.167,1358.333 16.667,2705.207 -67.708,4051.561c-47.396,754.687 -211.979,1515.104 -423.958,2243.749c-351.042,1208.854 -960.937,2301.041 -1711.458,3313.02c-137.5,185.417 -246.354,392.187 -430.729,689.583c306.25,8.854 488.541,25.521 669.271,16.667c1206.77,-56.771 2391.145,82.292 3554.686,403.125c1036.979,286.458 2079.687,555.208 3105.207,878.645c595.312,188.542 1130.208,163.542 1626.041,-210.417c1204.166,-907.812 2400.52,-1826.041 3653.124,-2791.666m26681.239,-39041.651c-60.937,1157.291 -326.562,2267.707 -796.875,3324.478c-722.396,1622.916 -1564.583,3180.207 -2735.416,4530.207c-704.166,811.979 -1426.041,1610.937 -2185.416,2370.312c-783.854,784.375 -1655.208,1482.291 -2429.687,2274.999c-1114.062,1140.625 -1921.353,2500.52 -2607.811,3931.769c-60.417,125 -70.312,274.479 -103.646,412.5c32.812,16.667 66.146,33.333 98.958,50c97.396,-85.937 203.646,-164.062 291.667,-258.854c1133.854,-1219.27 2247.395,-2458.332 3405.207,-3654.165c565.104,-584.375 1219.791,-1081.25 1818.749,-1634.374c910.937,-841.666 1939.062,-1517.187 2998.436,-2148.957c86.979,-51.562 201.042,-58.854 302.604,-86.458c17.708,31.771 35.937,63.021 54.167,94.792c-250,229.167 -501.041,456.25 -748.958,687.5c-671.875,627.604 -1338.541,1260.416 -2013.541,1884.374c-1209.895,1118.75 -2457.291,2198.437 -3627.082,3356.769c-1182.291,1170.833 -2295.312,2413.02 -3427.082,3633.853c-293.75,317.708 -577.604,653.125 -811.979,1015.104c-1340.104,2068.228 -1623.437,4353.644 -1327.083,6745.31c49.479,402.083 260.417,497.396 627.604,292.187c408.333,-228.646 795.833,-494.271 1186.979,-751.562c1348.958,-885.937 2676.561,-1806.249 4047.915,-2655.728c1490.104,-922.395 3022.915,-1774.999 4531.769,-2667.186c1672.916,-989.583 3343.228,-1983.333 5008.331,-2986.457c1173.437,-707.291 2403.645,-1330.208 3448.957,-2231.77c1242.708,-1071.875 2160.937,-2353.124 2411.457,-4018.228c92.708,-615.625 148.958,-1241.666 162.5,-1864.583c38.021,-1779.687 -217.708,-3532.29 -605.729,-5263.019c-356.771,-1591.666 -764.583,-3172.395 -1155.208,-4756.248c-449.479,-1820.833 -947.395,-3626.561 -1598.437,-5388.54c-500,-1353.124 -1030.208,-2691.666 -1710.937,-3964.582c-756.771,-1415.624 -1329.687,-2897.395 -1740.103,-4450.519c-216.146,-819.271 -506.25,-1622.395 -814.062,-2412.499c-416.146,-1066.666 -900,-2106.77 -1318.229,-3171.874c-246.875,-629.166 -419.791,-1286.458 -635.416,-1928.124c-56.771,-169.271 -63.542,-386.458 -359.375,-461.458c-116.146,193.75 -244.792,391.146 -356.771,597.396c-654.687,1203.645 -1260.937,2436.978 -1969.791,3607.811c-729.166,1204.687 -1642.708,2278.124 -2651.561,3267.186c-416.146,408.333 -406.25,500.521 -38.542,956.77c1610.416,1997.395 2938.02,4167.186 3968.748,6518.227c77.083,176.042 197.917,332.292 298.437,497.916c122.917,-146.875 163.021,-257.812 168.229,-370.312c40.625,-901.041 55.729,-1803.124 115.625,-2702.603c84.896,-1268.229 306.771,-2514.582 707.291,-3724.478c34.375,-103.125 102.083,-194.271 195.833,-368.229c66.146,217.187 113.542,343.229 142.187,473.958c226.562,1016.666 456.25,2032.291 670.833,3051.561c286.458,1358.333 589.583,2714.061 828.125,4080.728c154.687,886.979 256.25,1789.583 292.187,2689.061c45.312,1158.333 1.562,2320.312 -14.062,3576.04m-11141.141,33230.195c678.125,-311.458 1349.999,-637.5 2034.895,-932.291c1865.624,-803.125 3709.894,-1648.437 5503.644,-2604.686c1474.479,-785.937 2887.499,-1661.458 4207.811,-2684.895c199.479,-154.687 419.271,-295.833 552.604,-668.75c-226.042,113.542 -359.375,173.437 -485.416,245.312c-603.125,343.229 -1192.187,713.541 -1808.333,1031.25c-1994.791,1027.604 -4076.561,1853.124 -6198.956,2571.874c-1693.228,573.437 -3402.082,1100 -5108.852,1632.291c-695.833,217.187 -1402.604,398.958 -2106.77,587.5c-153.125,40.625 -320.312,133.854 -604.687,-78.125c134.896,-71.354 242.187,-103.125 317.187,-170.312c1472.916,-1324.479 3152.603,-2327.082 4934.894,-3166.145c1349.999,-635.937 2705.728,-1259.895 4061.978,-1882.291c1514.062,-695.312 3034.895,-1375.52 4546.873,-2076.041c1747.395,-809.375 3496.874,-1616.666 5229.165,-2458.332c928.645,-451.562 1758.333,-1053.645 2351.562,-1926.041c98.958,-145.833 167.187,-312.5 249.479,-469.271c-29.687,-23.437 -59.375,-46.354 -89.062,-69.271c-98.437,53.646 -211.458,91.146 -292.708,164.062c-755.208,676.562 -1653.124,1058.854 -2613.541,1348.958c-1112.5,336.458 -2231.249,672.396 -3304.686,1113.02c-3965.103,1626.562 -7991.143,3111.978 -11831.245,5031.248c-713.541,356.25 -1421.874,729.166 -2099.999,1146.875c-1171.875,722.916 -2060.937,1746.874 -2855.207,2852.603c-713.021,993.229 -1517.187,1912.499 -2455.728,2681.77c-1757.812,1440.624 -3576.04,2807.291 -5360.415,4215.102c-871.354,687.5 -1776.041,1344.27 -2569.27,2114.582c-955.729,928.645 -1796.874,1974.478 -2709.374,2948.957c-1020.312,1088.541 -1999.999,2227.082 -3113.02,3212.499c-1872.916,1658.854 -3881.769,3149.999 -6121.352,4299.998c-157.812,80.729 -295.312,200.521 -442.187,302.083c19.792,43.229 39.062,86.458 58.854,129.687c297.396,-65.625 598.437,-118.229 891.666,-199.479c2443.749,-678.125 4612.498,-1914.583 6661.977,-3363.019c2184.895,-1544.27 4181.248,-3324.478 6169.268,-5111.456c1303.124,-1170.833 2607.811,-2339.582 3924.998,-3494.269c1399.999,-1227.083 2920.832,-2296.874 4499.477,-3274.999c1877.083,-1163.02 3858.332,-2130.728 5974.477,-2999.999m-74610.908,-42730.191c1884.895,-119.271 3626.04,-731.771 5327.602,-1510.416c2003.124,-916.145 4015.103,-1814.583 6039.581,-2683.332c1316.145,-564.583 2561.978,-1225 3668.749,-2146.874c603.125,-502.604 1010.937,-1135.937 1383.333,-1804.166c48.958,-87.5 28.125,-214.062 39.062,-317.187c-82.812,-17.708 -118.75,-36.979 -148.958,-30.208c-67.187,15.104 -134.896,34.896 -195.833,66.146c-1064.062,544.791 -2202.082,860.416 -3379.165,997.916c-1669.791,195.312 -3344.269,364.062 -5021.352,483.854c-2097.395,149.479 -4187.498,358.854 -6236.977,827.083c-2638.541,602.083 -5261.456,1273.437 -7891.143,1915.103c-67.187,16.667 -135.417,34.375 -198.958,60.937c-293.75,121.875 -357.292,294.792 -114.583,502.083c325,278.125 684.896,533.333 1067.187,722.916c752.083,372.917 1574.999,536.979 2399.478,666.666c1594.791,251.562 3195.832,444.271 4815.102,430.208c175.521,-1.562 369.271,-39.062 600.521,156.771c-632.291,163.542 -1198.958,210.417 -1763.541,257.812c-569.791,47.917 -1141.145,85.417 -1712.499,97.396c-589.583,13.021 -1182.291,21.875 -1768.749,-27.083c-568.75,-47.396 -1132.291,-165.625 -1696.874,-261.458c-553.125,-94.792 -1057.812,-402.083 -1654.687,-441.666c-21.875,333.854 177.083,473.958 358.854,581.25c535.937,316.146 1064.583,665.625 1639.062,892.187c1394.791,550.521 2860.416,679.166 4444.79,564.062m2533.332,-15382.286c-604.166,58.854 -1212.5,91.667 -1811.978,180.208c-2214.582,327.604 -4435.415,623.958 -6636.456,1026.562c-2303.645,421.354 -4587.498,951.041 -6878.643,1438.541c-176.042,37.5 -343.75,115.104 -515.625,173.958c-5.729,43.229 -11.458,86.458 -17.187,129.687c136.979,80.208 264.583,193.229 412.5,235.417c832.812,238.021 1660.416,513.021 2508.853,676.562c2481.77,478.125 5008.331,411.979 7518.226,516.146c1314.062,54.687 2633.853,-35.417 3951.561,-58.854c2566.666,-45.312 5133.331,-94.271 7700.518,-131.771c1023.958,-15.104 2048.437,10.417 3071.874,-8.854c641.146,-11.979 1281.249,-69.792 1921.353,-113.542c76.562,-5.208 150,-52.083 225,-79.167c5.208,-35.417 10.937,-70.312 16.146,-105.729c-199.479,-70.833 -393.229,-179.167 -598.437,-206.25c-755.729,-101.042 -1514.062,-192.187 -2273.957,-255.729c-1260.937,-105.208 -2524.478,-185.417 -3786.457,-278.646c-294.271,-21.354 -586.979,-55.208 -880.729,-78.125c-274.479,-21.354 -549.479,-36.458 -823.958,-54.687c192.187,-109.375 378.646,-150 567.187,-161.979c1193.75,-78.125 2389.062,-137.5 3581.769,-227.604c1395.312,-104.687 2749.478,-385.937 3997.915,-1054.687c182.812,-97.917 365.625,-204.687 525.521,-335.417c224.479,-183.333 196.875,-336.458 -75.521,-463.541c-156.25,-72.917 -325,-122.396 -491.146,-170.312c-1796.353,-517.187 -3634.894,-745.312 -5498.435,-780.729c-798.437,-15.104 -1597.916,-25.521 -2395.312,2.604c-1073.437,38.021 -2145.832,115.625 -3314.582,185.937m45961.961,2516.666c-1734.374,-353.646 -3461.978,-744.271 -5204.165,-1053.125c-3655.207,-646.875 -7291.143,-1423.437 -11001.037,-1720.312c-829.166,-66.667 -1662.499,-141.667 -2492.187,-125.521c-986.458,19.271 -1978.124,79.687 -2954.165,218.75c-1200.52,171.354 -2388.02,435.416 -3577.603,677.604c-149.479,30.208 -276.562,170.312 -414.062,259.375c93.229,137.5 158.333,315.104 285.417,405.208c338.021,239.062 688.021,470.312 1059.375,650.521c740.104,358.854 1541.666,524.479 2346.353,667.187c1592.708,281.771 3205.728,342.187 4815.102,439.583c147.396,8.854 294.271,22.917 441.146,34.375c0.521,36.458 1.562,73.437 2.083,109.896c-905.729,54.687 -1812.499,105.208 -2717.707,165.625c-916.666,61.458 -1833.333,128.125 -2748.957,203.125c-898.958,73.958 -1809.374,79.687 -2680.207,407.812c488.021,130.729 973.437,206.25 1468.749,219.792c1247.916,34.375 2495.832,66.146 3743.749,102.604c2356.77,68.75 4713.54,139.583 7070.831,209.896c1143.75,33.854 2286.978,87.5 3431.249,97.396c2323.957,19.792 4649.477,71.875 6965.622,-208.333c1192.187,-144.271 2368.228,-357.812 3495.311,-786.979c197.396,-75 378.646,-190.625 567.708,-288.021c9.375,-44.271 19.271,-88.542 28.646,-133.333c-63.021,-29.687 -123.437,-69.792 -189.583,-88.021c-551.562,-151.562 -1104.166,-299.479 -1741.666,-465.104m-9304.163,13004.682c969.791,-92.708 1931.77,-218.75 2848.436,-576.041c601.041,-233.854 1182.291,-504.166 1679.687,-923.437c94.271,-79.687 157.292,-196.875 277.604,-352.604c-479.687,-73.437 -829.166,116.146 -1196.354,174.479c-377.083,59.896 -750.521,143.75 -1128.645,194.271c-378.125,50.521 -758.854,81.25 -1139.583,104.687c-380.729,23.437 -762.5,33.333 -1144.27,38.542c-398.958,5.208 -798.958,10.417 -1197.395,-7.812c-380.729,-17.187 -760.937,-57.292 -1140.104,-100.521c-378.646,-43.229 -757.291,-95.833 -1133.333,-157.812c-353.125,-57.292 -716.666,-88.021 -1030.208,-298.437c911.458,-57.812 1811.978,-47.396 2711.978,-59.896c1409.374,-19.792 2803.645,-178.125 4178.644,-496.354c630.729,-145.833 1229.687,-377.083 1771.353,-732.291c160.417,-105.208 376.042,-286.979 379.167,-438.021c5.208,-254.167 -299.479,-230.208 -489.062,-278.646c-1059.375,-270.312 -2126.562,-511.458 -3181.249,-798.958c-2597.395,-706.771 -5205.727,-1369.791 -7871.351,-1759.895c-1887.499,-276.562 -3788.019,-464.583 -5681.248,-707.291c-1743.749,-223.437 -3463.019,-549.479 -5071.352,-1306.249c-96.354,-45.312 -219.792,-33.854 -361.979,-53.646c4.687,377.604 230.208,582.291 418.229,797.396c902.604,1031.25 1991.666,1830.728 3190.624,2477.082c854.687,460.937 1735.416,872.916 2597.916,1318.229c1495.833,772.396 2977.603,1570.833 4481.769,2326.562c2240.624,1125.52 4614.061,1703.124 7230.726,1616.666m-85176.32,33766.653c-1615.312,-584.896 -3241.978,-1140.104 -4842.654,-1762.499c-1457.656,-566.146 -2865.624,-1245.312 -4124.582,-2195.312c-57.187,-43.229 -141.302,-50.521 -320.885,-110.937c122.656,232.292 181.042,372.917 264.635,496.354c451.198,666.666 998.229,1248.437 1636.406,1735.416c1234.114,941.666 2554.374,1740.624 4017.811,2276.041c2411.978,882.291 4830.936,1745.312 7244.893,2622.395c3398.957,1234.895 6360.05,3172.395 8932.496,5692.706c2664.582,2611.457 5272.915,5280.727 7926.559,7904.164c800.521,791.666 1652.604,1534.374 2510.936,2264.062c1776.041,1509.895 3685.415,2832.811 5708.331,3993.748c1101.562,632.291 2228.124,1205.208 3432.29,1616.666c148.958,51.042 307.292,76.042 461.458,113.021c13.021,-39.583 26.042,-79.687 39.062,-119.792c-142.708,-84.375 -284.896,-168.75 -427.604,-253.646c-164.583,-96.875 -330.729,-191.146 -492.708,-291.667c-1734.374,-1077.083 -3268.749,-2401.562 -4724.477,-3822.915c-595.833,-581.25 -1208.333,-1145.833 -1796.874,-1733.853c-992.708,-992.187 -1951.041,-2019.27 -2963.02,-2991.145c-1175,-1129.166 -2393.228,-2213.541 -3590.624,-3320.311c-1400.52,-1294.791 -2780.207,-2613.02 -4202.082,-3884.373c-2419.947,-2163.02 -5117.081,-3926.561 -7989.997,-5426.56c-2129.166,-1111.979 -4376.404,-1941.666 -6699.372,-2801.561m85205.487,11664.579c469.791,-179.687 947.395,-342.187 1408.333,-542.708c1815.624,-788.541 3301.561,-1956.249 4282.29,-3715.624c495.833,-889.062 820.312,-1834.895 1041.145,-2820.832c258.333,-1154.166 398.437,-2323.437 444.271,-3505.728c46.354,-1211.979 117.187,-2422.916 168.75,-3634.894c6.771,-161.979 -35.417,-326.042 -60.937,-537.5c-421.875,179.687 -636.979,481.771 -836.979,768.229c-1103.125,1577.083 -2190.624,3165.624 -3274.999,4755.206c-879.687,1290.104 -1736.978,2594.791 -2624.478,3879.165c-759.375,1097.916 -1563.541,2165.624 -2318.749,3267.186c-570.833,832.812 -1014.583,1738.02 -1324.479,2702.603c-64.583,201.562 -196.875,415.104 10.937,663.541c482.291,-234.375 950.52,-488.541 1439.583,-691.666c511.979,-212.5 1044.791,-375.521 1645.312,-586.979m-91743.922,-6269.789c331.719,305.208 652.239,623.958 997.083,913.541c1729.01,1453.124 3522.967,2814.061 5482.029,3952.082c2356.666,1369.27 4912.498,2261.457 7457.705,3182.811c94.479,33.854 212.187,4.167 366.927,4.167c-193.698,-528.125 -553.958,-832.291 -890.729,-1146.875c-1376.822,-1286.458 -2930.259,-2337.499 -4546.613,-3287.499c-3830.415,-2250.52 -7671.299,-4482.29 -11238.693,-7146.351c-1775.728,-1326.041 -3369.426,-2834.895 -4705.675,-4608.852c-845.52,-1122.916 -1690.103,-2246.353 -2551.405,-3356.769c-339.479,-438.021 -717.916,-845.833 -1090.677,-1256.77c-92.448,-102.083 -231.875,-160.937 -349.687,-240.104c-36.198,23.437 -72.448,46.875 -108.646,69.792c29.792,214.062 28.229,438.021 94.844,639.583c277.344,840.104 553.229,1681.77 874.948,2505.207c156.094,399.479 377.396,785.416 629.635,1133.333c643.489,888.02 1399.843,1671.874 2263.28,2355.207c843.281,667.187 1681.926,1342.187 2494.166,2046.874c1598.229,1385.937 3176.822,2795.311 4821.508,4240.623m45539.773,-3247.915c-705.208,-1334.895 -1409.374,-2670.311 -2117.707,-4003.644c-65.104,-122.917 -156.771,-231.771 -235.937,-347.396c-34.896,14.583 -69.792,29.167 -105.208,43.75c-9.896,186.979 -36.458,374.479 -27.083,559.896c69.271,1402.604 100.521,2809.374 230.729,4206.769c188.021,2006.77 697.916,3920.832 1804.166,5649.477c913.541,1426.041 2104.166,2501.041 3728.124,3006.249c1025,319.271 2087.499,516.146 3134.374,762.5c54.687,13.021 121.354,-23.437 280.208,-58.854c-236.979,-230.208 -411.979,-410.937 -598.437,-580.208c-654.687,-594.271 -1342.187,-1155.729 -1963.02,-1782.812c-1065.104,-1075.52 -1755.728,-2405.207 -2399.999,-3755.207c-575.521,-1206.25 -1129.687,-2421.874 -1730.208,-3700.519m97672.878,1398.437c583.333,-517.708 1186.979,-1014.583 1746.874,-1557.291c1044.791,-1013.541 2059.374,-2057.291 3094.79,-3080.728c1102.604,-1089.583 1840.103,-2385.937 2201.041,-3889.582c226.562,-944.27 417.187,-1897.395 618.229,-2847.916c26.042,-124.479 19.271,-255.208 28.125,-383.333c-142.708,94.271 -206.25,207.292 -251.042,327.604c-321.875,861.458 -602.083,1740.103 -970.833,2580.728c-297.917,679.687 -644.271,1353.124 -1067.187,1960.937c-1316.666,1891.666 -2949.478,3495.311 -4710.936,4970.831c-1090.104,913.02 -2166.666,1844.27 -3285.936,2720.832c-1638.541,1282.291 -3283.853,2559.374 -4975.519,3770.311c-1481.77,1059.895 -3091.665,1920.312 -4690.623,2797.395c-953.645,522.916 -1827.603,1193.75 -2728.645,1810.937c-160.417,109.375 -345.312,238.542 -327.604,557.291c200.521,-18.229 387.5,-6.25 557.291,-55.729c965.104,-281.25 1933.333,-553.646 2886.978,-871.875c2516.145,-839.062 4652.081,-2287.499 6554.685,-4116.144c799.479,-768.229 1647.916,-1485.937 2480.728,-2218.749c924.479,-813.021 1856.77,-1617.187 2839.582,-2475.52m-19220.305,-41519.775c360.417,398.437 743.75,778.125 1077.604,1197.395c1069.27,1340.624 2157.812,2669.27 3167.186,4054.165c856.25,1175 1611.979,2423.437 2416.666,3636.457c97.917,147.396 221.354,277.604 333.333,415.625c40.625,-12.5 80.729,-25.521 121.354,-38.542c24.479,-161.979 59.896,-322.917 71.875,-485.416c135.937,-1789.583 -346.875,-3437.499 -1195.833,-4985.415c-1143.75,-2085.937 -2713.541,-3815.623 -4632.811,-5201.04c-2022.395,-1460.416 -4101.04,-2843.228 -6157.81,-4255.727c-72.396,-49.479 -171.354,-59.896 -257.812,-88.542c83.854,264.062 209.375,468.75 368.229,643.229c839.583,922.395 1688.02,1836.458 2531.77,2754.686c703.646,765.104 1404.687,1532.291 2156.249,2353.124m-443.229,2843.749c-1001.041,-1410.937 -2216.666,-2615.103 -3571.353,-3681.249c-1090.104,-857.291 -2190.624,-1701.041 -3288.54,-2548.436c-118.229,-91.667 -247.917,-168.229 -372.396,-251.562c-27.083,205.208 16.146,365.625 92.187,507.812c270.833,504.166 535.416,1012.5 833.333,1499.999c1438.02,2359.374 3121.874,4542.707 4842.706,6696.872c1353.124,1694.27 2713.541,3380.207 3868.228,5220.31c165.625,264.062 360.417,509.896 556.25,752.604c67.708,83.333 178.646,131.771 281.25,204.687c363.021,-1209.895 -1330.729,-5583.852 -3241.665,-8401.038m-108784.956,-710.416c168.698,-197.917 325.885,-406.771 507.969,-591.666c777.916,-789.062 1573.176,-1560.937 2343.645,-2357.291c1391.718,-1438.02 2978.176,-2646.874 4530.259,-3897.915c566.146,-456.25 1100,-952.604 1641.666,-1438.02c118.229,-106.25 206.25,-245.833 308.854,-369.792c-29.167,-30.729 -58.333,-61.458 -87.5,-92.187c-280.729,188.021 -552.604,391.146 -844.27,560.937c-1393.229,812.5 -2791.145,1616.666 -4187.967,2422.395c-1475.885,851.562 -2891.145,1801.041 -4156.092,2938.54c-2092.499,1880.728 -3851.926,4030.728 -5069.79,6598.435c-521.302,1098.958 -821.771,2241.666 -932.395,3443.228c-15.156,165.104 -58.333,353.125 212.864,476.562c120.781,-166.146 253.281,-336.979 373.854,-515.625c639.843,-948.958 1263.645,-1908.333 1917.551,-2847.395c1041.25,-1494.791 2179.687,-2914.582 3441.353,-4330.207m38296.443,11743.745c-15.625,67.708 -32.812,134.896 -46.354,203.125c-482.812,2434.895 -20.833,4634.894 1718.749,6462.497c653.646,686.458 1424.479,1261.979 2149.999,1878.645c78.646,67.187 210.937,71.354 397.396,129.167c-15.625,-250.521 1.562,-439.062 -44.792,-610.937c-98.437,-368.229 -209.896,-734.896 -350,-1088.541c-647.396,-1634.895 -1166.145,-3305.207 -1378.124,-5056.769c-95.833,-790.625 -164.062,-1586.458 -207.292,-2381.77c-32.292,-603.646 -11.458,-1210.416 -4.167,-1815.624c5.208,-450.521 34.896,-900.52 35.417,-1350.52c0,-120.833 -67.187,-241.667 -106.771,-373.958c-799.479,419.271 -1657.812,2018.749 -2164.062,4004.686m-1993.228,-54397.218c808.854,-905.573 1599.479,-1823.749 2231.77,-2868.905c1059.375,-1750.833 702.083,-927.187 939.583,-1342.812c560.937,-981.302 10.937,-1336.874 -740.104,-889.218c-700,417.187 -223.958,63.437 -897.395,521.094c-731.25,496.823 -1505.208,931.979 -2224.478,1444.27c-1227.604,874.166 -2480.728,1718.228 -3561.978,2782.186c-728.646,717.239 -1471.354,1420.572 -2201.041,2136.614c-84.896,83.177 -129.167,207.865 -192.187,313.333c25,29.74 50.521,59.479 75.521,89.219c156.25,-53.854 318.229,-94.74 467.187,-163.594c976.041,-450.729 1947.916,-909.843 2923.957,-1360.052c176.562,-81.458 344.792,-238.489 636.458,-111.615c-98.958,165.417 -173.958,314.479 -270.833,447.344c-285.937,392.239 -584.896,774.791 -869.27,1168.02c-103.646,142.917 -272.396,268.854 -217.708,491.302c579.687,-91.51 2609.895,-1470.989 3900.519,-2657.186m-43771.753,22327.96c68.646,388.542 -45.781,817.187 263.802,1165.625c92.865,-250.521 139.687,-500 171.458,-751.041c34.74,-275 47.344,-552.604 83.75,-827.604c231.823,-1748.437 762.812,-3414.582 1392.76,-5054.165c1178.75,-3068.228 2879.113,-5802.081 5219.008,-8120.934c1555.937,-1541.718 3236.353,-2932.447 5106.092,-4084.582c121.875,-75.208 229.687,-173.802 344.271,-261.562c-208.854,-44.219 -380.208,-20.885 -529.687,48.177c-771.406,355.208 -1574.01,660.989 -2297.707,1096.822c-2000.208,1204.635 -3806.248,2650.989 -5339.685,4432.498c-1519.426,1765.103 -2755.155,3688.019 -3584.374,5873.956c-784.635,2068.228 -1041.302,4195.311 -829.687,6482.81m122901.409,-10719.787c1832.812,2671.353 2978.645,5633.852 3693.228,8773.434c219.271,963.02 357.812,1944.791 539.583,2916.145c35.937,191.146 18.229,415.104 300,597.396c35.417,-234.375 81.25,-411.458 85.937,-589.583c20.312,-745.312 41.667,-1491.666 36.458,-2236.978c-4.167,-589.062 -19.271,-1180.729 -76.042,-1766.666c-154.687,-1601.041 -605.208,-3123.436 -1196.875,-4618.227c-826.562,-2088.541 -2121.353,-3864.582 -3644.79,-5466.352c-1085.416,-1140.625 -2286.457,-2178.593 -3611.457,-3049.947c-767.708,-504.948 -1551.562,-985.729 -2335.937,-1464.947c-156.771,-95.885 -326.562,-237.708 -630.729,-127.448c2676.041,1992.76 4992.186,4236.405 6840.622,7033.174m-40185.401,-16412.546c-249.479,-157.187 -202.604,-117.396 -462.5,-254.531c-909.895,-481.198 -1463.02,85.677 -1122.916,869.218c318.229,733.073 538.021,1060 650,1260.833c420.833,755.208 1100,1638.437 2056.249,2758.28c666.666,780.937 1385.416,1503.906 2214.582,2109.739c264.062,192.917 556.771,352.969 852.604,493.177c134.896,63.854 309.896,42.969 546.354,69.479c-190.104,-846.354 -876.041,-1291.562 -1215.104,-2092.499c278.125,111.51 447.396,171.458 610.416,246.302c661.458,304.114 1318.229,619.062 1982.812,915.312c158.333,70.469 343.75,179.583 545.312,-6.042c-66.667,-113.073 -113.542,-224.167 -186.979,-312.708c-255.208,-306.094 -520.312,-604.271 -781.25,-905.573c-1309.895,-1512.916 -2167.707,-2657.759 -3777.603,-3846.092c-738.541,-545.208 -828.646,-629.739 -1655.208,-1182.552m-79936.062,90422.985c975.104,409.896 1950.468,819.271 2925.311,1229.687c2059.322,866.666 3938.384,2049.999 5744.112,3346.874c900,646.354 1729.166,1390.624 2594.27,2085.937c594.271,477.604 1192.187,951.041 1796.353,1415.624c126.562,96.875 261.458,240.104 525,123.958c-93.229,-156.771 -164.062,-306.771 -261.979,-435.937c-1252.604,-1648.437 -2662.499,-3157.29 -4188.54,-4550.519c-636.927,-581.771 -1347.031,-1096.875 -2074.322,-1563.541c-1620.312,-1040.104 -3422.707,-1683.853 -5258.279,-2216.145c-1498.801,-434.375 -3022.499,-782.812 -4534.582,-1171.875c-537.656,-138.021 -1072.447,-288.021 -1611.51,-420.312c-114.531,-28.125 -241.927,-4.167 -363.437,-4.167c-9.792,42.708 -19.635,84.896 -29.427,127.604c438.333,234.896 860.781,508.333 1318.124,696.875c1105.625,456.771 2227.551,873.958 3418.905,1335.937m135845.414,-28138.01c384.896,948.437 760.416,1901.041 1157.291,2844.791c600,1427.604 1309.374,2796.874 2246.874,4036.978c128.646,170.312 297.917,309.375 492.708,508.333c73.958,-173.437 141.667,-261.458 144.792,-352.083c16.146,-433.333 18.75,-867.708 18.75,-1301.041c1.042,-2553.645 -798.437,-4851.04 -2303.124,-6891.143c-935.937,-1269.27 -1955.208,-2477.603 -2940.624,-3710.415c-36.979,-46.354 -106.25,-67.187 -169.271,-105.208c-126.042,580.729 213.542,1821.874 1352.604,4969.79m-1544.27,-12303.641c1034.375,1648.437 1993.749,3332.29 2585.936,5203.123c198.958,627.083 453.125,1237.5 691.666,1851.562c65.104,168.75 164.062,324.479 260.417,510.416c308.333,-194.271 279.687,-452.604 288.021,-682.812c33.333,-906.25 -71.875,-1801.562 -267.708,-2684.374c-279.167,-1259.895 -738.021,-2453.645 -1331.77,-3600.519c-986.979,-1905.208 -2299.478,-3546.874 -3965.623,-4894.79c-861.979,-697.396 -1765.103,-1344.27 -2654.686,-2007.291c-71.875,-53.646 -183.854,-53.646 -264.583,-75c-193.75,220.312 -128.646,431.771 -32.292,610.416c179.687,334.375 360.417,677.604 600.521,966.666c420.312,506.25 869.791,990.625 1335.937,1454.166c1013.02,1007.291 1857.291,2149.999 2754.166,3348.436m-122745.784,-4064.061c-576.041,1048.958 -1173.437,2086.978 -1723.437,3149.478c-1261.51,2435.416 -2396.77,4928.644 -3376.04,7491.664c-50.208,131.771 -67.24,275.521 -99.687,414.062c37.187,20.833 74.323,41.667 111.51,63.021c133.073,-123.958 280.469,-234.896 397.135,-372.396c1483.593,-1747.395 2897.291,-3544.79 4009.269,-5561.977c866.666,-1572.395 1593.749,-3198.957 1983.333,-4959.894c221.354,-1000 391.667,-2009.374 378.646,-3039.582c-2.083,-156.771 47.917,-343.229 -166.146,-484.375c-502.083,1095.833 -991.145,2163.541 -1514.583,3299.999m64937.474,16180.723c-301.042,737.5 -592.708,1479.166 -907.812,2210.937c-184.896,429.687 -416.667,839.062 -608.333,1266.145c-79.167,177.083 -196.875,372.917 -21.354,613.021c128.646,-57.812 259.375,-97.396 368.75,-168.75c493.75,-322.396 1001.562,-627.604 1466.666,-987.5c1221.875,-945.312 2130.728,-2104.166 2231.77,-3715.103c38.542,-617.187 13.021,-1251.041 -82.292,-1861.458c-234.896,-1504.166 -906.77,-2795.311 -2050.52,-3819.269c-130.729,-116.667 -297.396,-193.229 -447.396,-288.542c-36.458,22.396 -72.917,44.271 -109.375,66.146c11.979,178.646 7.812,359.896 38.542,534.896c78.125,444.271 184.896,883.333 256.771,1328.124c255.729,1585.937 347.396,3170.311 -135.417,4821.352m-72511.429,-6568.747c340.26,-623.437 677.239,-1248.437 1021.458,-1869.791c772.5,-1394.791 1568.489,-2776.561 2313.801,-4185.415c314.219,-594.271 531.25,-1240.625 777.916,-1868.749c64.115,-163.542 160.99,-349.479 -8.75,-557.291c-81.354,53.125 -161.198,86.458 -215,143.75c-770.729,820.312 -1557.031,1627.604 -2301.197,2471.353c-894.739,1015.104 -1718.749,2083.853 -2333.697,3302.603c-780.156,1546.354 -1211.406,3206.249 -1620.52,4872.915c-148.594,605.729 -251.979,1222.395 -367.031,1835.416c-29.271,156.25 -108.49,338.021 109.115,474.479c337.864,-281.771 484.271,-676.041 679.791,-1032.812c640.937,-1170.312 1271.718,-2345.832 1944.114,-3586.457m65966.119,31505.717c61.979,-187.5 124.479,-375.521 217.187,-655.729c-169.792,72.396 -240.625,85.417 -287.5,125.521c-340.625,294.271 -669.271,602.083 -1015.104,890.625c-836.458,698.437 -1670.833,1399.999 -2523.436,2079.166c-582.291,463.541 -1196.875,886.458 -1789.583,1337.499c-376.562,286.458 -368.229,415.104 13.542,709.375c54.687,42.187 115.104,77.083 169.271,120.312c781.771,629.166 1579.166,1240.625 2340.103,1894.27c735.937,632.291 740.104,648.958 973.958,-323.437c499.479,-2073.437 1102.604,-4115.103 1901.562,-6177.602m-19108.847,-673.958c-190.104,-126.562 -334.896,-345.312 -676.562,-322.396c53.646,200.521 84.896,365.104 141.146,520.312c758.333,2090.624 1398.437,4214.061 1788.541,6407.289c87.5,493.75 267.187,545.312 654.687,233.333c525.521,-423.958 1054.687,-845.833 1599.479,-1244.791c447.396,-327.604 927.083,-609.896 1378.124,-932.291c270.833,-193.229 274.479,-324.479 27.083,-535.937c-302.604,-258.854 -621.354,-501.041 -940.625,-739.583c-1377.604,-1028.645 -2671.874,-2154.166 -3971.873,-3385.936m48741.647,-79840.176c31.25,-83.073 111.979,-193.073 84.375,-244.323c-97.917,-181.042 -211.979,-363.854 -357.812,-506.51c-532.291,-519.271 -1061.458,-1044.687 -1626.041,-1527.656c-1522.916,-1303.124 -3218.749,-2362.343 -5005.727,-3244.582c-2025.52,-1000.208 -4191.144,-1643.801 -6391.143,-2157.291c-177.083,-41.302 -359.896,-58.073 -540.104,-86.25c-11.979,35.156 -23.958,70.312 -35.937,105.521c104.687,72.552 202.604,159.427 315.625,215.469c1505.208,746.614 3016.665,1481.093 4518.227,2235.416c773.958,388.854 1550.52,778.229 2291.666,1224.739c1736.458,1046.145 3447.394,2134.166 5178.123,3189.009c485.416,295.677 1005.208,534.844 1568.749,796.458m-74470.283,-2880.52c-848.437,716.406 -1689.062,1441.874 -2338.541,2354.895c-165.104,232.187 -363.021,459.635 -347.396,808.489c353.646,17.917 571.354,-199.792 799.479,-364.687c815.625,-589.219 1619.27,-1195.572 2431.249,-1790.051c2274.478,-1665.572 4702.081,-3077.03 7241.664,-4292.811c1031.77,-494.01 2101.041,-910.312 3149.999,-1368.593c224.479,-98.177 436.979,-225.104 654.687,-338.802c-18.75,-35.052 -37.5,-70.052 -56.771,-105.104c-4224.998,766.771 -8077.601,2388.176 -11534.37,5096.665m50257.272,-146.146c432.812,1155.312 961.979,2262.395 1617.708,3309.686c196.354,314.062 419.791,539.01 820.312,536.146c935.937,-6.667 1871.353,1.615 2807.291,-4.115c146.354,-0.885 323.958,24.583 408.854,-236.354c-104.687,-95.781 -223.437,-211.094 -348.958,-318.854c-786.979,-676.093 -1611.458,-1313.906 -2356.249,-2034.01c-1157.812,-1119.27 -2264.062,-2291.457 -3233.853,-3584.217c-115.104,-153.958 -218.229,-355.937 -531.771,-328.489c134.896,920.52 501.562,1741.353 816.666,2660.207m-20386.971,66364.765c-1263.02,254.167 -2486.978,621.354 -3602.082,1286.458c-266.146,158.854 -526.562,336.979 -758.854,540.625c-283.333,248.958 -244.792,401.562 100,578.646c15.625,7.812 31.25,15.625 47.396,21.875c770.833,301.562 1560.937,457.812 2389.582,309.375c1913.541,-343.75 3492.707,-1371.354 5036.977,-2469.27c55.729,-39.583 104.687,-92.708 144.792,-147.917c134.375,-185.417 95.312,-334.375 -127.604,-391.146c-164.062,-42.187 -344.792,-59.896 -513.021,-42.708c-877.604,91.146 -1753.124,196.875 -2717.186,314.062m76736.428,-26148.427c816.666,490.625 1632.291,982.812 2451.562,1468.749c155.208,92.187 309.896,230.208 572.916,111.979c-49.479,-150.521 -71.354,-305.208 -145.833,-428.646c-205.729,-340.104 -429.687,-669.791 -653.646,-998.958c-530.208,-777.083 -1157.291,-1461.979 -1890.624,-2058.333c-1336.979,-1087.5 -2828.124,-1935.937 -4293.748,-2826.041c-58.854,-35.937 -146.354,-26.042 -271.354,-44.792c50,155.208 64.583,260.417 114.583,345.312c385.417,656.771 759.375,1321.354 1176.041,1957.812c205.729,315.104 460.937,618.229 753.125,852.083c688.021,551.562 1412.499,1057.812 2186.978,1620.833m-91024.443,24665.094c544.271,533.854 1087.5,1068.229 1634.895,1598.437c29.687,28.646 95.833,18.75 158.854,29.167c180.208,-201.562 95.833,-426.562 59.375,-640.104c-308.333,-1824.478 -865.104,-3574.478 -1659.895,-5240.623c-357.292,-747.916 -817.708,-1446.874 -1245.833,-2159.374c-98.437,-163.542 -256.771,-291.146 -387.5,-435.416c-39.583,17.708 -79.167,35.417 -118.75,53.646c0,128.125 -13.021,258.333 2.083,384.896c125.521,1050 238.021,2102.082 389.583,3148.436c165.625,1136.979 387.5,2261.457 1167.187,3260.936m-59149.768,-6010.414c-604.166,1298.958 -984.375,2665.103 -1165.833,4081.769c-87.76,685.416 -112.552,1379.166 -146.927,2070.312c-9.375,189.583 -31.927,417.708 203.75,532.291c855.989,-1243.229 3836.873,-9933.85 3702.082,-10852.079c-110.833,122.396 -209.635,210.937 -283.437,317.187c-217.656,312.5 -440.104,623.958 -634.114,951.041c-555.625,938.02 -1098.177,1883.853 -1675.52,2899.478m74458.095,16767.181c84.896,-17.708 170.312,-32.292 254.167,-53.646c727.083,-188.021 1333.854,-578.125 1826.041,-1134.895c308.854,-349.479 260.937,-618.229 -146.354,-840.625c-270.833,-148.437 -563.541,-288.021 -863.02,-345.833c-1383.333,-265.625 -2756.77,-234.896 -4097.394,245.833c-579.687,207.812 -662.5,442.708 -282.292,915.104c829.166,1030.729 1905.208,1454.166 3308.853,1214.062m11278.12,-7961.455c-717.708,-261.458 -1424.999,-557.291 -2155.728,-773.958c-595.833,-176.042 -1216.666,-278.646 -1832.291,-372.917c-361.458,-55.729 -478.125,116.146 -380.208,464.062c18.75,66.146 47.396,130.208 77.083,193.229c826.041,1764.583 2487.499,2616.666 4236.457,2307.812c664.583,-117.708 1317.187,-307.812 1971.353,-478.646c136.979,-35.937 257.812,-131.771 404.167,-210.417c-135.937,-304.167 -361.979,-405.729 -582.291,-491.666c-550,-214.062 -1106.77,-409.375 -1738.541,-637.5m34880.715,36707.798c-309.896,110.937 -614.583,242.708 -931.25,329.687c-1454.687,398.958 -2913.541,784.375 -4370.311,1177.604c-172.917,46.875 -341.146,111.979 -533.854,176.042c68.75,83.333 84.896,122.396 110.937,131.771c65.104,21.875 134.375,30.208 202.083,43.75c725,143.75 1448.958,78.646 2174.999,1.042c1459.895,-154.687 2879.166,-471.875 4211.457,-1097.395c1193.229,-559.896 2380.728,-1138.541 3470.311,-1890.103c1085.416,-748.958 2155.207,-1519.791 3082.811,-2466.666c121.875,-125 297.917,-227.604 295.833,-519.271c-208.854,134.896 -366.667,234.896 -521.875,336.979c-709.896,467.187 -1403.124,961.979 -2131.77,1397.916c-1582.812,946.875 -3269.27,1679.687 -5059.373,2378.645m-37659.36,-30175.509c850.52,685.416 1791.145,760.937 2798.436,422.396c584.896,-196.354 1102.604,-508.854 1583.333,-885.416c188.021,-146.875 424.479,-306.771 376.562,-581.771c-50,-284.375 -344.271,-319.271 -567.187,-392.187c-994.791,-325 -2019.27,-529.687 -3061.978,-573.958c-583.333,-25 -1178.125,40.104 -1756.249,135.417c-482.812,79.687 -587.5,333.854 -316.667,745.833c254.167,387.5 588.541,722.396 943.75,1129.687m46965.085,-22949.991c-2031.249,-3351.04 -4062.498,-6702.081 -6094.268,-10052.6c-242.708,-400.521 -486.979,-800 -739.583,-1194.27c-75,-117.187 -131.25,-281.771 -380.208,-271.875c40.104,197.396 65.625,364.583 108.854,526.562c668.229,2533.332 1879.166,4799.477 3387.499,6923.435c1077.083,1517.187 2398.957,2827.082 3569.79,4265.102c52.604,64.583 143.75,98.437 300.521,202.083c-65.625,-183.333 -93.75,-262.5 -152.604,-398.437m-88959.339,54624.978c-448.958,-132.292 -898.437,-265.625 -1347.916,-396.875c-2219.791,-650 -4367.707,-1487.499 -6457.289,-2474.999c-1242.708,-587.5 -2387.499,-1343.229 -3521.353,-2114.582c-149.479,-101.562 -305.208,-193.229 -537.5,-339.583c278.646,650.521 2719.27,2568.228 4065.103,3296.874c1529.166,828.125 3089.582,1572.916 4776.561,2032.291c1652.083,449.479 4632.29,845.833 5135.935,622.916c-709.896,-210.417 -1371.354,-406.25 -2113.541,-626.041m60208.309,-36318.215c5.208,96.354 10.937,192.708 21.354,375.521c1415.624,-554.687 2515.103,-1408.333 3383.332,-2570.832c1103.125,-1476.562 1767.708,-2817.707 1670.312,-3394.269c-378.646,54.687 -664.062,287.5 -941.666,509.896c-1226.041,980.208 -2294.791,2115.624 -3244.27,3363.019c-379.687,498.958 -698.437,1036.979 -889.062,1716.666m-2415.103,34.896c109.375,-593.229 240.625,-1183.854 318.75,-1781.249c36.979,-279.167 23.958,-588.021 -259.896,-856.77c-172.396,113.542 -357.812,203.125 -502.083,336.979c-515.625,478.125 -909.895,1047.916 -1128.125,1717.708c-450.521,1381.77 -883.854,2769.27 -1313.02,4158.332c-50.521,162.5 -31.25,346.354 -45.833,542.187c395.833,-83.854 391.667,-88.021 640.625,-316.146c1116.145,-1020.833 1840.103,-2280.207 2289.582,-3801.04m-45088.003,-2779.686c268.229,267.708 504.687,582.812 811.979,793.75c756.771,519.271 1544.791,993.229 2324.999,1477.604c76.042,46.875 185.937,39.062 297.917,59.896c121.875,-379.687 -35.417,-676.562 -172.396,-968.229c-329.167,-695.833 -790.104,-1305.208 -1305.729,-1869.791c-747.396,-819.271 -1491.666,-1645.833 -2411.978,-2282.291c-161.979,-111.979 -346.354,-191.146 -527.083,-289.062c-240.104,611.458 161.458,1847.395 982.291,3078.124m7247.393,5878.643c241.667,270.833 387.5,645.312 859.375,792.708c0,-205.208 22.917,-359.375 -3.646,-504.687c-229.687,-1242.708 -433.333,-2492.187 -718.229,-3722.394c-170.833,-739.583 -454.166,-1458.333 -973.958,-2046.874c-145.833,-164.583 -303.125,-421.875 -539.062,-289.583c-133.854,75 -226.042,353.125 -216.667,533.854c36.979,741.146 78.646,1487.499 196.875,2219.27c178.125,1100.52 768.75,2031.249 1395.312,3017.707m67137.994,22141.137c1027.083,-555.729 1958.333,-1246.875 2859.374,-1986.458c1538.541,-1262.499 2386.457,-2068.749 2488.02,-2423.957c-51.562,-5.729 -104.167,-23.437 -150.521,-13.021c-117.708,26.562 -234.896,60.417 -348.958,101.042c-1224.479,430.208 -2339.062,1070.833 -3340.103,1883.853c-1305.208,1060.416 -2568.228,2172.916 -3846.873,3265.624c-42.187,35.937 -55.208,105.208 -133.854,264.583c913.02,-280.729 1680.728,-617.187 2472.916,-1091.666m-42378.629,-30915.092c190.625,-188.021 70.833,-389.583 19.271,-583.333c-421.354,-1586.979 -2483.853,-2869.791 -3806.769,-3033.332c-60.417,-7.292 -127.604,33.333 -242.187,65.625c28.125,161.979 29.167,318.229 82.812,453.646c146.875,370.312 279.687,754.166 482.291,1094.27c765.104,1283.854 1883.333,2002.603 3464.582,2003.124m12814.578,1454.166c935.937,-1287.499 1516.145,-2723.957 1783.333,-4288.54c46.354,-271.875 54.687,-551.562 57.292,-828.125c1.042,-102.604 -65.625,-205.729 -101.562,-308.854c-43.229,-22.396 -86.458,-45.312 -129.687,-67.708c-73.958,115.625 -141.667,235.937 -223.437,345.833c-747.396,1007.812 -1432.291,2060.416 -1861.978,3239.582c-295.312,809.896 -455.729,1670.312 -654.687,2513.02c-46.875,198.437 -108.854,440.625 125,627.083c426.041,-323.958 670.312,-767.708 1005.729,-1232.291m-46063.523,-7311.455c-345.833,-564.583 -609.375,-1185.937 -1133.333,-1656.77c-71.354,212.5 -115.104,414.062 -82.292,602.083c128.646,733.854 227.083,1479.687 440.104,2190.103c207.812,692.187 508.333,1362.499 828.646,2012.499c328.646,667.187 865.625,1165.104 1515.104,1531.249c155.208,87.5 317.708,221.354 577.604,56.771c-534.375,-1634.895 -1329.166,-3148.957 -2145.832,-4735.936m23067.178,4215.102c232.812,-233.333 477.604,-455.729 694.791,-703.125c326.562,-372.917 297.396,-590.625 -112.5,-835.937c-267.187,-159.896 -552.604,-290.104 -835.416,-421.875c-321.875,-150.521 -598.958,-80.729 -848.958,173.437c-426.041,432.812 -866.666,850.52 -1294.27,1281.249c-121.354,122.396 -240.625,255.208 -324.479,403.646c-197.917,352.083 -108.854,677.083 271.354,798.437c284.375,90.625 616.666,116.667 911.458,69.271c554.687,-89.062 1051.041,-346.875 1538.02,-765.104m24536.449,9741.663c-1079.687,1088.02 -1753.124,2745.311 -1498.437,3828.644c154.687,-197.917 285.417,-346.354 394.792,-508.854c774.479,-1150 1568.229,-2283.332 2518.228,-3301.561c447.396,-479.687 844.791,-1006.77 1250.52,-1523.437c107.812,-138.021 161.979,-318.229 259.375,-517.187c-626.562,64.583 -1766.666,866.666 -2924.478,2022.395m-58027.06,32711.966c286.979,69.271 571.354,149.479 860.937,203.646c283.333,53.125 567.708,169.271 864.583,60.937c-174.479,-103.125 -355.729,-153.646 -535.937,-206.771c-465.625,-137.5 -941.666,-247.396 -1394.27,-418.229c-2320.832,-875 -4637.498,-1761.458 -6842.706,-2907.811c-169.271,-88.021 -341.667,-172.917 -520.312,-236.458c-77.083,-27.604 -173.958,3.646 -313.542,10.417c77.604,110.937 106.771,177.083 156.25,219.271c132.292,111.458 269.271,218.229 411.458,316.667c2191.145,1517.187 4647.915,2380.207 7313.539,2958.332m-37752.797,-62972.371c774.166,-996.354 1561.041,-1983.333 2316.197,-2994.27c298.75,-399.479 532.552,-848.958 782.968,-1283.333c58.802,-101.562 65,-233.854 95.417,-352.083c-33.333,-22.917 -66.615,-45.833 -99.896,-68.229c-151.875,99.479 -324.114,178.125 -452.239,302.083c-806.51,781.771 -1666.666,1521.874 -2249.582,2498.437c-370.573,620.833 -686.093,1275.52 -1003.541,1926.562c-79.896,163.542 -184.844,373.437 21.302,607.291c193.437,-209.896 365.989,-396.354 589.375,-636.458m100212.147,21559.887c108.854,-85.937 223.437,-165.625 325,-259.375c662.5,-609.375 1359.895,-1191.666 1740.103,-2040.624c415.625,-926.562 637.5,-1903.124 715.625,-2913.02c6.25,-83.333 -41.146,-170.833 -81.25,-322.917c-110.417,140.625 -186.458,211.979 -232.292,298.958c-493.229,934.375 -981.77,1871.353 -1471.354,2807.811c-456.25,871.875 -782.812,1819.791 -1496.354,2541.666c-33.854,34.375 -28.125,108.333 -66.146,273.958c232.292,-154.687 372.396,-247.917 566.666,-386.458m6859.893,46866.648c-329.687,59.896 -679.687,44.271 -1079.687,277.083c215.104,70.312 334.375,120.833 458.333,147.396c583.854,124.479 1166.145,71.875 1756.77,23.958c2086.978,-169.792 3967.186,-930.208 5762.498,-1948.437c102.604,-57.812 179.167,-161.979 267.708,-244.271c-20.833,-34.896 -42.187,-69.792 -63.021,-104.687c-2261.978,910.416 -4609.373,1484.374 -7102.601,1848.958m-62642.683,1209.375c-1036.458,-275.521 -2079.166,-527.604 -3106.249,-834.375c-711.458,-213.021 -1398.958,-505.208 -2099.999,-754.687c-165.104,-58.333 -333.333,-191.146 -585.937,-20.833c120.833,146.354 207.292,294.271 332.812,392.187c203.125,159.375 419.791,310.937 651.562,421.875c1891.145,907.812 3881.248,1355.729 5984.373,1255.729c90.104,-4.167 178.125,-47.917 267.187,-72.917c0.521,-35.417 0.521,-70.833 1.042,-106.25c-452.604,-87.5 -905.729,-175 -1444.791,-280.729m55047.895,-61697.892c-532.291,72.917 -1067.708,127.083 -1595.312,225c-463.021,85.937 -903.125,255.729 -1267.708,570.833c-285.937,247.396 -263.542,437.5 83.333,570.833c632.291,243.75 1281.249,311.458 1933.853,81.771c516.146,-181.771 967.187,-471.354 1308.333,-906.77c211.979,-270.833 157.812,-427.083 -169.792,-529.687c-64.062,-19.792 -137.5,-11.458 -292.708,-11.979m-70135.389,46859.356c-1109.895,-568.229 -2217.707,-1140.625 -3330.207,-1704.166c-1159.895,-587.5 -2323.437,-1168.229 -3487.811,-1746.874c-143.958,-71.875 -298.073,-186.979 -532.969,-5.208c150.26,144.271 263.021,296.354 412.5,389.062c706.718,438.021 1394.218,922.916 2143.697,1273.437c1380.208,646.354 2797.916,1213.02 4203.644,1805.208c172.917,72.917 363.542,106.25 548.958,145.312c16.667,3.646 53.125,-81.771 42.187,-156.771m20821.346,-46511.44c754.687,703.125 1686.978,922.916 2677.603,970.312c217.708,10.417 456.771,14.062 603.125,-206.771c-356.771,-944.791 -2524.999,-1678.124 -3596.353,-1175.52c92.187,126.562 178.125,244.271 315.625,411.979m74421.324,49890.084c0,0 -3.646,0.521 0,0m-25212.49,-36142.694c0,0 3.646,-0.521 0,0Z" style="fill-rule:nonzero;"/><path d="M91601.756,108930.109c1221.354,1184.895 2414.062,2345.832 3612.499,3501.04c548.958,529.687 1116.145,1040.104 1661.979,1572.916c436.458,425.521 423.958,523.958 -99.479,853.645c-1732.812,1089.062 -3473.957,2164.582 -5204.165,3257.29c-1862.499,1176.562 -3716.144,2366.145 -5573.435,3550.519c-818.75,522.396 -1646.354,1031.77 -2452.603,1573.437c-368.75,248.437 -681.771,240.104 -1052.083,8.854c-1456.249,-909.895 -2921.874,-1804.166 -4387.498,-2699.478c-2190.624,-1338.02 -4382.29,-2673.436 -6576.039,-4005.207c-785.937,-477.083 -1580.729,-939.062 -2370.832,-1409.374c-89.062,-52.604 -178.125,-108.854 -258.333,-173.958c-181.25,-147.396 -195.833,-321.875 -46.875,-497.916c123.437,-145.312 258.333,-280.729 393.229,-415.625c3433.853,-3435.936 6872.393,-6867.706 10301.558,-10308.329c844.27,-847.395 1660.416,-1722.916 2489.582,-2585.416c72.396,-75 146.875,-147.396 220.833,-220.833c550,-545.312 583.333,-547.396 1117.708,-14.583c1117.708,1114.583 2221.353,2243.749 3353.644,3343.749c1604.166,1558.854 3228.645,3096.353 4870.311,4669.269m-12279.683,363.542c-410.417,285.937 -808.333,593.229 -1233.854,853.645c-634.375,388.542 -1298.437,728.125 -1931.249,1118.75c-543.229,335.937 -1062.5,710.937 -1586.458,1077.083c-65.104,45.312 -92.708,143.229 -138.021,217.187c436.458,-100 812.5,-266.146 1176.562,-456.25c899.479,-468.229 1826.041,-834.895 2863.541,-807.291c270.312,7.292 414.062,-125 479.166,-376.562c143.229,-551.041 292.187,-1100.52 441.666,-1653.645c0,0 -6.25,0 -71.354,27.083m3972.915,6736.456c76.042,-479.166 153.646,-957.812 227.083,-1437.499c47.396,-308.333 114.583,-616.146 128.125,-926.041c82.812,-1908.853 -75.521,-3810.415 -231.771,-5709.894c-38.021,-459.375 -214.583,-908.854 -341.146,-1358.854c-24.479,-85.937 -116.146,-153.125 -240.625,-309.896c-96.354,240.104 -196.875,399.479 -222.917,570.833c-146.354,957.812 -291.667,1916.145 -403.125,2878.645c-65.625,566.666 -135.417,1145.833 -86.458,1709.374c141.667,1619.791 174.479,3253.645 526.041,4850.519c75.521,341.667 79.167,710.416 316.146,1066.666c253.125,-420.833 195.312,-855.208 328.646,-1333.854m7979.163,-3866.665c-587.5,-364.583 -1177.604,-725 -1761.978,-1094.27c-948.437,-599.479 -2007.291,-1017.708 -2878.124,-1746.353c-27.083,-22.917 -90.625,-3.125 -159.375,-3.125c5.208,87.5 -1.042,156.25 14.583,219.792c105.729,417.187 214.583,833.854 324.479,1249.999c83.333,314.062 206.25,375 564.062,414.062c530.208,58.333 1075,93.229 1578.124,251.562c655.729,206.771 1276.562,525 1913.541,793.229c165.625,69.271 334.375,130.729 501.562,195.312c16.667,-28.125 33.333,-56.25 50,-84.896c-33.854,-52.604 -67.708,-105.208 -146.875,-195.312m-8397.913,-6174.998c0,0 3.646,-0.521 0,0Z" style="fill-rule:nonzero;"/><path d="M101459.565,13958.168c1364.583,69.531 2684.895,85.104 3992.186,224.114c1046.875,111.354 2080.728,361.406 3115.103,574.687c279.687,57.604 540.625,205.312 811.979,412.083c-116.667,43.854 -230.208,111.979 -350.521,127.396c-618.75,79.219 -1238.541,155.417 -1859.895,213.021c-1311.458,121.667 -2624.478,226.719 -3936.457,346.771c-1363.541,124.844 -2727.603,247.135 -4089.061,392.031c-2990.103,318.281 -5942.185,840.208 -8813.017,1753.749c-1404.166,446.875 -2794.791,934.895 -4191.665,1402.083c-77.083,25.521 -159.896,31.771 -232.292,45.833c-28.125,-59.896 -59.375,-94.271 -53.646,-120.312c361.458,-1616.666 1116.666,-2933.02 2706.77,-3648.384c1568.229,-705.573 3224.999,-1058.125 4914.061,-1290.312c1581.249,-217.448 3169.79,-332.969 4768.227,-337.448c1056.25,-2.969 2112.499,-62.031 3218.228,-95.312Z" style="fill-rule:nonzero;"/><path d="M71929.889,16724.573c-2817.707,-342.396 -5589.581,-682.708 -8363.017,-1008.906c-1498.437,-176.25 -2999.999,-327.135 -4499.477,-493.177c-164.062,-18.125 -325,-60.677 -487.5,-91.875c-4.687,-35.625 -9.375,-71.198 -14.062,-106.771c132.292,-59.687 259.896,-132.031 396.875,-176.979c1126.562,-370.469 2284.895,-604.531 3466.665,-667.552c1332.291,-71.042 2668.749,-119.167 4002.603,-107.552c1159.895,10.104 2320.832,95 3477.603,187.083c1538.02,122.396 3077.082,250.469 4608.331,437.396c1653.645,201.875 3291.665,493.854 4871.352,1065.572c1230.208,445.416 2039.062,1274.374 2486.978,2485.52c153.646,415.104 332.812,822.916 354.167,1384.895c-3374.478,-1345.312 -6751.039,-2355.207 -10300.517,-2907.655Z" style="fill-rule:nonzero;"/><path d="M117922.058,14059.886c2370.312,597.083 4661.456,1930.78 5089.581,2976.561c-601.562,167.656 -1177.604,-238.281 -1795.833,-82.812c27.083,358.281 425.521,404.635 539.062,696.302c-184.375,120.312 -335.937,7.292 -484.375,-47.917c-980.729,-364.583 -1874.478,-898.02 -2752.082,-1456.614c-1067.187,-679.323 -2121.353,-1379.427 -3179.686,-2072.812c-81.25,-53.177 -151.042,-124.062 -330.729,-274.375c1060.416,-134.323 1963.541,94.167 2914.061,261.667Z" style="fill-rule:nonzero;"/><path d="M52953.855,14145.98c-1708.333,874.427 -3384.894,1739.843 -5069.79,2588.905c-695.833,350.469 -1405.208,674.948 -2115.624,994.218c-604.687,271.354 -847.395,304.687 -1254.166,223.958c59.375,-312.5 286.458,-505.208 500.521,-697.916c269.792,-242.917 558.854,-464.739 835.416,-700.625c105.208,-89.375 238.021,-174.74 289.583,-292.083c185.937,-425.573 558.333,-583.958 947.916,-748.646c1796.353,-759.479 3663.54,-1266.718 5581.769,-1597.135c145.833,-25.052 296.354,-20 564.062,-36.146c-141.667,140.885 -196.354,195.417 -279.687,265.469Z" style="fill-rule:nonzero;"/><path d="M18066.577,78193.142c617.448,376.042 1167.083,774.479 1691.145,1314.062c-507.083,53.646 -1998.489,-553.646 -3229.27,-1330.729c-903.073,-570.312 -1851.353,-1098.437 -2607.655,-2003.645c579.375,67.187 2357.134,949.479 4145.78,2020.312Z" style="fill-rule:nonzero;"/><path d="M142513.715,83018.661c2959.374,-1673.437 5885.414,-3329.165 8812.496,-4981.769c22.917,-13.021 65.625,8.854 123.958,18.75c75.521,223.437 -97.917,348.437 -228.646,460.937c-511.979,441.146 -1031.77,872.916 -1557.812,1296.874c-1648.958,1331.77 -3547.915,2228.645 -5456.769,3101.04c-755.729,345.833 -1545.312,617.187 -2323.437,912.5c-269.792,102.604 -551.041,176.562 -851.041,218.75c139.062,-306.771 445.312,-396.354 687.5,-558.333c244.792,-163.542 506.25,-301.562 793.75,-468.75Z" style="fill-rule:nonzero;"/></g></svg>