<?xml version="1.0" encoding="UTF-8" standalone="no"?><!DOCTYPE svg PUBLIC "-//W3C//DTD SVG 1.1//EN" "http://www.w3.org/Graphics/SVG/1.1/DTD/svg11.dtd"><svg width="100%" height="100%" viewBox="0 0 2556 1921" version="1.1" xmlns="http://www.w3.org/2000/svg" xmlns:xlink="http://www.w3.org/1999/xlink" xml:space="preserve" xmlns:serif="http://www.serif.com/" style="fill-rule:evenodd;clip-rule:evenodd;stroke-linejoin:round;stroke-miterlimit:2;"><g><g><path d="M929.583,0l95.833,-0c55.848,38.173 71.158,40.407 55.177,59.232c-43.941,51.759 -103.508,88.645 -105.206,91.453c-6.928,11.451 52.578,7.596 62.948,7.349c34.559,-0.821 29.18,-56.642 56.392,-89.213c67.814,130.575 106.657,106.038 122.032,132.632c20.109,34.781 -21.514,-22.082 -184.943,-26.198c-159.854,-4.026 -168.165,7.095 -319.613,-11.33c-25.117,-3.056 -169.233,-20.588 -291.842,121.885c-118.763,138.003 -49.563,404.347 -35.525,355.804c3.923,-13.564 -51.345,-125.87 37.777,-251.596c7.357,-10.379 16.25,-9.583 13.961,2.86c-23.653,128.615 -14.775,139.237 -6.026,133.143c0.96,-0.669 27.635,-149.591 110.73,-213.722c47.745,-36.848 -51.401,93.4 -26.851,98.352c9.139,1.844 2.553,-19.219 108.918,-41.442c26.894,-5.619 130.312,-99.425 255.382,-112.515c13.352,-1.398 11.79,10.56 5.208,12.654c-15.157,4.821 -136.185,6.865 -213.353,150.156c-6.327,11.749 4.584,14.429 8.941,10.347c20.432,-19.139 88.98,-129.455 326.618,-149.413c13.576,-1.14 16.111,12.657 -0.284,14.671c-106.663,13.098 -138.54,22.054 -225.31,89.071c-17.203,13.286 -7.124,16.426 -5.764,16.85c25.086,7.816 -6.877,21.404 -41.088,45.993c-73.018,52.482 -90.951,61.974 -72.398,64.191c14.194,1.696 6.025,-21.83 166.628,-64.529c2.464,-0.655 41.652,-11.074 31.63,3.882c-6.102,9.106 -14.082,-3.57 -119.926,66.28c-2.395,1.58 -51.557,34.024 -20.88,29.163c104.923,-16.628 106.308,-2.28 210.352,-21.765c131.649,-24.655 131.182,-27.991 256.19,-25.437c54.574,1.115 27.579,-26.345 24.714,-26.934c-10.022,-2.06 -10.69,3.402 -126.869,-16.128c-32.705,-5.498 -112.772,-8.58 -88.407,-22.08c11.902,-6.594 266.987,35.298 251.787,-7.706c-4.199,-11.88 -101.194,-48.773 -285.373,-55.89c-2.642,-0.102 -49.574,-1.916 -30.336,-13.106c19.701,-11.458 151.67,-9.953 164.883,-9.803c119.032,1.358 133.377,36.276 134.887,20.818c3.334,-34.133 -182.872,-42.558 -199.16,-43.295c-79.088,-3.579 109.389,-64.077 218.242,-3.124c32.3,18.087 22.11,27.618 22.436,250.252c0.232,158.633 29.341,191.384 -111.415,264.04c-71.679,36.999 -62.485,50.14 -57.708,54.307c26.034,22.71 -15.766,81.78 19.929,55.227c106.849,-79.482 106.005,-144.427 141.743,-94.577c67.673,94.395 -88.275,61.527 -168.022,219.903c-1.018,2.022 -0.922,1.883 -12.443,25.415c-42.94,98.664 -55.532,121.284 39.481,356.296c10.271,25.404 14.391,2.202 14.033,1.134c-34.483,-102.652 -131.297,-248.776 -1.451,-420.233c41.137,-54.32 129.002,-102.667 129.564,-58.88c4.614,359.833 13.169,380.728 -16.79,376.999c-35.693,-4.443 -86.277,-36.324 -73.573,-14.489c0.251,0.432 77.246,72.75 99.15,72.457c25.629,-0.343 172.887,-106.824 133.954,-108.577c-4.72,-0.212 -97.476,98.895 -97.649,12.048c-0.629,-317.307 -4.735,-318.071 3.812,-344.253c3.89,-11.917 64.375,-4.56 117.276,71.058c139.432,199.307 45.963,249.169 -0.189,413.905c-3.971,14.175 9.06,11.901 14.228,-0.66c93.391,-226.985 106.963,-288.402 -26.257,-451.78c-44.819,-54.965 -144.943,-75.281 -91.022,-158.999c26.973,-41.878 54.997,12.172 114.069,72.633c2.182,2.233 45.217,46.281 36.105,14.812c-4.108,-14.188 -16.075,-31.079 -3.036,-47.523c20.311,-25.617 -161.174,-80.94 -165.422,-163.126c-0.244,-4.731 -8.887,-306.247 7.185,-364.808c23.147,-84.34 260.399,-62.893 237.314,-32.118c-2.652,3.536 -197.722,11.612 -192.761,46.747c0.811,5.746 55.504,-38.199 315.875,-16.247c99.384,8.379 -188.19,28.271 -212.543,32.337c-1.05,0.366 -13.269,4.628 -11.27,8.128c4.807,8.416 11.03,14.709 12.153,15.845c1.444,1.461 4.706,-1.063 6.15,0.398c-126.305,1.861 -130.464,12.016 -127.637,21.984c9.667,34.087 240.316,0.75 248.718,1.346c15.27,1.084 1.211,14.501 -19.222,16.253c-96.03,8.233 -94.373,21.808 -191.033,22.58c-15.613,0.125 -20.786,20.417 6.339,20.978c261.754,5.416 257.792,46.701 357.635,44.292c89.159,-2.151 130.281,8.307 140.517,8.821c91.406,4.588 -124.48,-39.997 -127.326,-44.193c-17.356,-25.587 120.736,13.894 125.232,10.119c21.51,-18.055 -259.878,-67.79 -87.388,-65.98c80.982,0.85 88.766,32.311 102.482,31.287c15.22,-1.137 -31.231,-39.805 -34.606,-42.615c-174.498,-145.261 -292.46,-133.858 -293.404,-142.61c-1.625,-15.063 49.177,-3.163 53.327,-2.441c220.47,38.338 264.727,127.683 286.811,137.771c27.65,12.631 -6.942,-29.862 -8.611,-31.913c-80.011,-98.285 -152.512,-113.029 -162.483,-118.425c-11.497,-6.221 -6.938,-15.125 5.543,-12.513c94.063,19.682 151.046,65.818 162.149,74.808c50.755,41.094 63.421,12.318 144.825,53.28c67.146,33.787 -47.206,-95.902 -6.491,-77.144c75.727,34.888 74.528,161.805 78.625,165.357c21.922,19.01 -0.158,-109.833 0.724,-111.511c6.295,-11.979 22.613,21.088 23.797,23.487c47.317,95.883 49.724,107.792 39.422,179.491c-1.896,13.196 11.704,13.302 14.745,-0.553c43.775,-199.45 -50.833,-293.665 -68.927,-311.685c-111.546,-111.084 -233.19,-100.054 -254.955,-98.081c-121.057,10.976 -120.376,16.105 -338.463,12.191c-99.093,-1.779 -173.23,42.955 -179.717,41.826c-16.151,-2.811 27.566,-30.215 28.366,-30.735c118.709,-77.242 85.321,-145.204 145.171,-168.303c31.552,-12.177 42.309,-9.148 44.308,-9.897c2.893,-1.084 3.708,-5.421 6.601,-6.505l31.944,0c2.991,0.719 3.572,5.77 6.563,6.49c8.318,2 17.132,0.299 25.634,1.253c158.051,17.722 242.29,112.068 274.324,123.6c29.07,10.465 212.925,6.255 310.879,141.878c75.869,105.045 67.404,207.865 67.774,272.919c0.282,49.584 168.642,100.338 198.128,383.223c9.19,88.17 26.046,83.732 44.17,159.694c2.503,10.492 4.092,9.355 8.493,19.416l0,159.722c-2.564,4.397 -4.864,2.79 -7.783,13.346c-31.446,113.727 -117.194,212.385 -157.357,245.856c-180.106,150.095 -234.592,71.159 -452.64,282.546c-63.61,61.666 -63.632,61.545 -139.297,106.718l-134.167,0c-11.394,-16.986 -16.583,-27.082 -17.845,-29.538c-6.216,-12.093 -34.023,-8.406 -40.698,-24.208c-8.332,-19.725 -7.109,-20.24 -22.235,-34.721c-7.153,-6.848 -7.309,-25.474 -16.546,-34.566c-23.445,-23.078 -12.65,-27.415 -5.602,-59.223c3.108,-14.026 -9.496,-30.703 3.053,-49.463c14.825,-22.163 66.609,-80.468 42.422,-77.748c-7.464,0.839 -80.282,68.192 -81.554,31.387c-5.541,-160.303 31.639,-152.725 93.432,-313.219c50.07,-130.046 113.249,-136.794 85.02,-142.307c-25.587,-4.997 -95.362,83.651 -102.175,92.308c-94.213,135.877 -49.08,230.475 -137.532,329.499c-45.534,50.977 -52.443,12.022 -55.963,2.183c-17.15,-47.939 -120.789,-120.773 -145.374,-107.115c-151.883,84.382 -116.008,120.164 -130.651,129.946c-14.443,9.648 -56.393,-64.52 -65.422,-94.255c-38.989,-128.404 -14.654,-190.574 -127.172,-315.938c-43.874,-48.883 -83.293,-47.371 -65.569,-29.378c74.002,75.126 55.66,86.234 86.759,186.785c16.282,52.643 72.529,97.392 79.366,152.733c14.438,116.881 7.883,122.319 -1.802,121.492c-5.021,-0.429 -75.597,-33.171 -69.401,-12.774c12.498,41.141 42.77,28.997 46.955,95.615c1.434,22.824 25.266,30.306 -7.183,54.664c-20.259,15.207 -8.157,25.501 -29.188,39.424c-28.681,18.987 -4.925,38.706 -29.532,49.229c-26.226,11.215 -19.163,19.199 -39.45,39.187l-140.556,0c-32.138,-27.422 -36.36,-21.347 -74.476,-56.778c-64.154,-59.635 -113.987,-119.116 -385.218,-240.949c-176.374,-79.224 -266.587,-224.347 -286.191,-268.491c-5.431,-12.229 -9.434,-25.139 -15.846,-36.883c-1.717,-3.145 -6.413,-3.886 -8.13,-7.031l0,-102.222c0.523,-3.054 6.021,-3.549 6.545,-6.603c2.172,-12.676 -5.568,-18.233 8.061,-102.269c14.532,-89.603 45.537,-81.523 57.297,-191.589c28.663,-268.271 141.256,-275.451 192.204,-345.542c27.99,-38.508 -37.759,-252.901 205.855,-381.87c90.836,-48.089 166.831,-21.45 221.461,-60.697c55.805,-40.091 77.565,-68.403 212.693,-105.829c4.125,-1.143 5.533,-1.375 6.022,-1.456c10.67,-1.765 9.425,-4.096 19.447,-8.451Zm-98.841,1344.728c-9.536,102.11 -14.775,151.429 12.078,203.245c19.989,38.571 -17.06,15.737 -59.718,22.977c-51.91,8.81 -55.275,22.329 -81.699,1.61c-241.377,-189.262 -188.204,-236.98 -303.155,-437.974c-25.092,-43.873 41.126,-12.408 94.294,-79.402c60.17,-75.818 180.852,-307.173 180.605,-253.213c-0.78,170.598 87.76,172.256 145.539,345.546c22.431,67.274 12.569,181.862 12.055,197.21Zm925.895,-25.573c-7.395,-202.459 42.947,-237.229 123.682,-377.492c56.068,-97.408 19.391,-164.645 44.021,-156.444c2.991,0.996 100.758,194.02 113.355,212.717c64.001,94.99 113.113,98.007 148.736,113.216c16.303,6.96 -22.599,40.897 -40.823,75.141c-79.662,149.688 -16.673,196.447 -247.011,379.517c-53.607,42.607 -59.522,33.623 -106.353,21.18c-29.661,-7.881 -72.751,-1.771 -61.062,-23.429c45.123,-83.608 33.582,-88.949 25.455,-244.405Zm-1629.011,-280.845c2.295,-43.609 -0.004,-153.415 89.584,-292.541c32.827,-50.98 -20.475,-5.524 -46.93,24.94c-69.818,80.398 -58.368,88.433 -65.396,94.345c-22.723,19.115 -2.768,-35.601 -1.711,-38.498c7.607,-20.858 161.64,-229.816 173.523,-226.141c6.38,1.973 4.364,4.283 18.62,42.368c24.888,66.489 92.89,77.187 69.434,105.968c-63.981,78.504 -56.302,83.795 -62.504,89.989c-35.455,35.418 26.971,-72.889 26.07,-74.885c-6.415,-14.217 -27.779,23.825 -29.329,26.587c-32.118,57.191 -10.576,-78.732 -32.996,-64.172c-0.585,0.38 -36.637,116.673 -46.819,158.267c-37.971,155.099 117.926,182.952 183.846,289.25c0.685,1.104 30.3,62.464 -6.937,14.689c-62.565,-80.27 -144.527,-113.933 -144.561,-113.928c-14.025,1.931 15.222,22.712 17.15,24.082c174.946,124.307 186.169,235.102 174.929,252.36c-20.732,31.835 -59.545,-46.418 -229.093,-134.825c-85.517,-44.591 -90.009,-55.543 -86.879,-177.855Zm2039.501,152.569c86.009,-117.969 132.273,-118.535 156.354,-216.277c16.803,-68.203 -20.053,-225.675 -23.171,-227.154c-21.582,-10.237 -8.298,136.638 -31.417,81.488c-10.711,-25.551 -35.82,-62.37 -39.343,-67.536c-21.609,-31.685 -14.679,-36.064 8.336,-62.966c21.149,-24.721 51.319,-103.591 62.236,-74.137c97.609,263.333 100.263,262.198 106.871,285.688c64.326,228.679 36.37,261.688 -47.754,311.008c-228.211,133.796 -238.64,152.657 -244.297,131.206c-16.591,-62.919 53.189,-131.733 61.927,-140.35c9.863,-8.912 121.659,-109.919 119.09,-115.878c-9.257,-21.478 -106.697,86.047 -114.693,94.87c-9.549,10.537 -12.339,0.032 -14.14,0.037Zm2.663,239.492c115.819,-37.774 118.966,-48.163 160.056,-69.81c5.353,-2.82 20.975,1.031 3.652,14.054c-14.58,10.961 -26.414,19.857 -204.137,101.56c-190.203,87.44 -231.724,209.856 -388.658,269.859c-13.793,5.274 -15.862,-6.055 -10.846,-9.716c34.993,-25.543 44.26,-13.194 130.679,-99.372c82.077,-81.848 83.777,-79.474 171.928,-154.307c56.719,-48.15 39.353,-74.157 201.512,-141.703c15.049,-6.269 185.98,-77.468 189.056,-76.068c40.958,18.635 -329.049,155.474 -321.915,181.582c2.492,9.119 37.64,-5.382 68.673,-16.079Zm-911.122,-746.31c-46.583,54.316 -218.862,130.515 -291.105,119.624c-47.308,-7.132 -72.556,-31.795 -51.174,-28.772c80.818,11.424 80.951,17.198 109.83,9.27c78.485,-21.546 -27.592,3.234 -103.915,-25.124c-50.98,-18.942 42.309,-31.734 103.41,-45.456c113.568,-25.505 115.298,-12.751 228.78,-36.844c5.037,-1.069 4.84,-7.237 7.307,-2.92c3.021,5.287 -6.214,4.833 -3.134,10.222Zm283.91,-115.836c115.041,19.184 273.164,43.229 224.755,56.095c-78.052,20.745 -153.548,7.835 -377.656,10.073c-13.458,0.134 -15.474,-12.058 -0.811,-13.918c17.258,-2.19 114.005,6.291 103.378,-10.677c-0.736,-1.175 -146.401,-4.255 -127.497,-31.176c15.895,-22.636 163.621,-11.472 177.831,-10.398Zm-491.43,0.134c92.046,-4.693 110.018,-2.815 146.439,4.907c2.136,0.453 39.212,8.314 20.114,18.45c-38.741,20.562 -108.387,12.872 -114.238,15.149c-38.388,14.941 90.201,13.102 107.539,15.226c51.369,6.291 -5.59,12.841 -6.748,12.811c-173.894,-4.451 -313.619,7.087 -388.676,-14.731c-58.521,-17.012 216.408,-49.544 235.57,-51.811Zm530.334,236.976c-35.303,-6.439 -56.047,-6.275 -146.361,-56.157c-73.381,-40.53 -72.222,-42.286 -82.821,-50.825c-46.579,-37.526 21.139,-8.286 75.882,-0.479c20.208,2.882 246.111,35.096 249.692,52.492c5.901,28.664 -123.35,16.947 -127.876,26.137c-5.146,10.448 34.548,10.54 37.678,10.547c81.632,0.189 81.248,-10.741 87.781,-8.085c7.233,2.941 6.695,26.393 -93.974,26.37Zm-1317.295,510.324c285.259,102.007 262.882,161.33 486.237,348.958c26.425,22.198 67.593,35.66 51.089,43.545c-8.824,4.215 -109.699,-51.408 -195.73,-135.415c-141.137,-137.817 -133.25,-153.628 -314.77,-222.31c-11.376,-4.304 -131.499,-49.756 -131.572,-76.188c-0.005,-1.746 0.809,-11.526 21.736,2.018c38.695,25.043 39.761,22.092 83.01,39.393Zm1454.582,47.926c-11.216,67.86 -8.332,109.119 -144.279,157.787c-48.968,17.53 139.228,-231.916 141.219,-232.609c14.839,-5.168 3.644,68 3.06,74.823Zm-1350.483,126.934c3.303,2.452 79.566,59.068 30.758,41.208c-90.385,-33.075 -134.743,-60.514 -310.921,-214.615c-62.754,-54.89 -78.736,-131.512 -41.041,-86.507c55.967,66.821 49.071,86.073 178.184,167.779c60.681,38.4 131.622,84.697 143.02,92.136Zm1865.289,22.101c-3.648,1.29 -108.936,38.531 -48.325,2.123c346.416,-208.086 317.544,-299.356 328.258,-304.809c20.084,-10.221 5.257,58.922 -46.815,113.336c-35.491,37.088 -87.477,80.252 -96.968,88.468c-60.967,52.78 -76.001,72.375 -136.149,100.882Zm-1371.263,-174.341c-2.473,-31.744 -4.71,-32.64 -0.913,-36.245c8.309,-7.89 9.478,2.14 69.727,125.116c31.299,63.885 93.3,94.13 56.004,84.898c-128.921,-31.913 -119.334,-131.434 -124.819,-173.769Zm-406.691,-595.171c-75.424,80.237 -67.915,86.05 -109.889,138.738c-12.77,16.03 -22.158,-39.444 54.183,-124.212c60.924,-67.648 329.738,-224.463 152.932,-96.152c-51.824,37.61 -50.187,38.617 -97.226,81.626Zm1760.783,109.668c1.188,72.48 -18.74,-22.352 -162.161,-166.16c-1.872,-1.877 -55.509,-55.659 -13.476,-30.268c33.397,20.175 94.107,69.672 101.997,76.105c8.747,7.131 62.344,50.83 73.64,120.322Zm-76.033,13.874c1.119,3.27 13.44,39.265 8.546,42.348c-5.417,3.412 -5.395,-1.406 -150.003,-198.015c-16.269,-22.119 2.723,-18.498 3.916,-17.6c65.925,49.592 93.411,88.191 99.881,97.277c16.964,23.822 35.158,69.684 37.66,75.991Zm-1801.241,-487.494c-14.558,43.983 -12.588,44.164 -19.19,89.75c-13.241,91.435 -12.954,-16.282 -12.847,-18.051c1.047,-17.243 -6.072,-125.422 124.902,-229.485c45.226,-35.934 74.427,-43.068 63.032,-26.577c-12.102,17.515 -93.915,37.306 -155.897,184.363Zm1935.743,100.824c-2.297,-1.085 -8.263,4.65 -10.521,-10.223c-35.37,-232.963 -160.981,-247.191 -161.163,-274.873c-0.038,-5.802 7.327,-10.627 63.61,34.839c107.393,86.753 116.371,214.714 108.074,250.258Zm-1204.878,603.779c-5.029,-4.009 -50.194,-32.05 -56.519,-84.029c-6.101,-50.14 21.594,-98.8 31.7,-98.248c7.722,0.422 3.783,27.681 4.397,40.943c4.516,97.689 39.425,123.84 20.422,141.334Zm-133.419,-953.623c-36.657,7.083 -70.946,39.231 -48.572,9.072c10.326,-13.919 209.275,-171.141 128.558,-61.168c-44.908,61.185 -98.75,90.528 -84.805,65.946c3.749,-6.609 2.361,-6.786 4.82,-13.85Zm-381.592,1418.212c-3.514,-0.178 -4.859,6.607 -8.373,6.429c-24.529,-1.243 -25.405,-55.45 -205.126,-119.691c-33.117,-11.838 -53.69,-19.067 -53.31,-27.178c0.524,-11.205 147.313,38.4 173.431,54.526c14.753,9.109 60.667,47.495 93.378,85.914Zm1089.553,-1417.862c40.591,77.532 -101.849,-63.716 -81.011,-87.667c17.889,-20.562 104.151,75.602 109.096,80.291c1.112,1.054 21.545,20.426 4.356,18.651c-17.627,-1.82 -15.075,-9.352 -32.441,-11.275Zm768.559,670.297c-1.811,-2.323 -18.946,-24.3 -22.931,-28.815c-8.811,-9.98 -18.032,-19.604 -26.564,-29.823c-61.911,-74.162 117.839,41.692 120.734,168.552c1.898,83.166 -9.535,-26.016 -71.239,-109.914Zm98.06,282.356c1.976,107.84 -81.656,-133.768 -81.527,-141.445c0.369,-21.972 35.642,32.14 37.299,34.374c41.703,56.237 35.689,62.391 44.228,107.071Zm-1967.461,-294.864c-24.417,66.517 -80.625,135.151 -86.831,134.789c-17.795,-1.037 2.569,-10.373 90.756,-203.493c4.69,-10.271 5.086,-17.084 13.367,-9.685c6.187,5.528 -14.166,67.868 -17.292,78.389Zm-153.113,115.057c20.738,-53.549 20.763,-53.422 56.839,-97.761c2.037,-2.503 24.735,-30.401 28.406,-28.638c10.768,5.173 -19.146,52.154 -29.114,71.001c-63.025,119.168 -65.273,118.348 -66.478,118.373c-5.105,0.107 -7.317,-3.11 10.347,-62.976Zm1148.748,58.213c-1.71,-23.132 -2.966,-22.296 -5.727,-44.844c-4.217,-34.432 38.672,9.709 38.907,57.7c0.039,7.975 0.336,68.586 -50.129,86.169c-34.824,12.134 11.581,-16.49 16.949,-99.025Zm-368.152,442.247c39.825,31.75 50.367,39.22 30.968,53.164c-15.442,11.1 -37.96,35.71 -45.376,10.325c-24.684,-84.501 -28.698,-85.946 -22.86,-90.616c1.18,-0.944 3.959,-4.271 37.267,27.127Zm241.567,49.02c-8.749,26.451 -5.99,47.644 -27.606,30.069c-2.962,-2.409 -34.967,-28.431 -32.207,-35.219c2.825,-6.946 2.807,-6.903 69.714,-62.656c19.924,-16.603 4.115,24.072 -9.901,67.806Zm405.326,-1348.117c-128.884,-77.213 -148.309,-69.864 -137.605,-76.503c8.678,-5.382 112.364,27.438 185.903,86.133c109.346,87.275 -44.942,-7.568 -48.298,-9.631Zm-1036.123,-6.708c-5.354,3.691 -11.073,6.831 -16.427,10.522c-1.812,1.249 -71.363,57.901 -58.727,29.129c32.552,-74.119 389.607,-181.138 147.634,-80.323c-28.969,12.07 -66.924,37.02 -72.48,40.672Zm1063.988,1639.813c9.675,-22.906 17.109,-12.769 41.214,-18.388c87.438,-20.38 148.097,-72.979 154.076,-73.117c40.197,-0.933 -119.057,107.059 -195.29,91.505Zm-1184.217,-5.284c-20.228,-6.393 -70.12,-18.156 -130.493,-66.25c-44.873,-35.746 12.997,-7.471 14.02,-6.761c120.873,83.932 184.602,56.494 181.841,82.756c-0.553,5.258 -3.433,4.59 -65.368,-9.745Zm914.179,-1602.746c53.649,44.257 -22.542,26.76 -25.447,24.951c-23.471,-14.613 -68.86,-134.64 -24.356,-77.226c22.166,28.596 23.304,26.652 49.803,52.275Zm425.049,673.164c-3.033,-5.637 -32.449,-60.316 -35.953,-71.486c-6.103,-19.456 8.497,-12.051 9.636,-10.197c8.021,13.057 99.615,162.149 99.623,163.605c0.161,30.924 -62.023,-65.589 -73.306,-81.921Zm-828.983,360.012c-2.804,-0.259 -41.488,-3.828 -31.363,-15.993c13.025,-15.649 178.228,-54.956 82.348,-1.048c-23.768,13.363 -24.299,11.436 -50.985,17.041Zm-1108.474,-130.435c0.757,-2.123 9.46,-26.538 9.46,-26.538c84.397,-173.15 -4.806,100.59 -18.757,96.469c-7.423,-2.192 7.944,-64.453 9.296,-69.932Zm2304.366,-359.543c69.219,56.514 63.44,69.262 56.355,68.692c-5.113,-0.411 -68.71,-42.211 -80.009,-57.04c-23.06,-30.263 -14.757,-37.952 -9.517,-34.853c2.788,1.648 2.071,1.794 33.171,23.201Zm-1403.294,371.209c-20.866,-129.816 63.165,74.973 41.576,75.047c-24.41,0.084 -40.047,-68.356 -41.576,-75.047Zm418.651,125.484c-9.112,-1.39 -23.196,1.245 -42.993,-18.236c-23.713,-23.335 -3.816,-24.863 -1.834,-24.748c8.665,0.504 147.075,32.4 44.826,42.984Zm-166.209,56.776c71.294,13.735 6.81,39.479 -12.957,37.908c-28.679,-2.279 -53.268,-32.849 -12.73,-36.19c8.552,-0.705 17.135,-1.013 25.687,-1.718Zm950.123,-35.558c1.801,-0.005 4.591,10.501 14.14,-0.037c7.996,-8.824 105.435,-116.348 114.693,-94.87c2.569,5.959 -109.227,106.967 -119.09,115.878c-11.093,-7.266 -12.507,-7.958 -9.742,-20.972Zm-790.612,22.499c3.182,0.621 41.989,3.59 41.082,16.756c-1.787,25.934 -77.407,26.934 -79.433,-6.639c-0.891,-14.759 36.875,-10.131 38.351,-10.117Zm-722.621,465.901c62.941,28.343 146.469,46.96 77.509,41.102c-37.891,-3.218 -180.621,-70.51 -121.376,-61.381c3.821,0.589 3.611,1.024 43.867,20.279Zm943.363,-526.372c-24.349,87.864 -42.033,81.406 -46.457,75.835c-4.216,-5.31 38.679,-136.121 46.457,-75.835Zm61.821,-24.222c34.231,-35.617 33.812,-36.099 37.721,-37.828c31.539,-13.954 -28.335,78.762 -57.954,81.024c-19.225,1.469 17.381,-39.404 20.234,-43.197Zm421.037,408.531c-10.357,6.987 -63.3,47.722 -67.833,36.356c-7.261,-18.207 208.425,-142.093 67.833,-36.356Zm-1151.745,-414.922c1.206,1.614 50.889,68.076 -10.44,22.917c-36.314,-26.739 -40.158,-69.992 -20.774,-55.043c2.838,2.188 10.541,8.129 31.214,32.126Zm87.718,63.417c0.745,3.098 9.399,39.074 3.738,39.651c-22.104,2.252 -47.757,-106.299 -21.666,-89.206c3.731,2.445 16.712,45.518 17.929,49.555Zm807.681,617.583c-3.519,0.432 -81.013,9.954 -43.407,-8.952c7.411,-3.726 10.001,6.418 100.753,-24.49c164.411,-55.994 -27.342,24.129 -30.312,25.188c-13.902,4.956 -13.271,4.61 -27.034,8.254Zm-215.275,-732.509c-1.954,4.188 -30.753,65.91 -35.813,45.332c-2.9,-11.794 29.281,-85.143 35.76,-87.548c14.582,-5.412 1.038,38.986 0.052,42.216Zm-731.931,-38.138c-3.712,-10.203 -22.607,-50.179 -10.503,-55.833c7.809,-3.647 45.835,78.483 41.799,85.457c-1.727,2.984 -9.821,9.86 -31.295,-29.624Zm-100.885,767.756c27.791,7.557 88.187,20.024 59.786,26.446c-30.92,6.992 -154.024,-47.821 -97.585,-40.19c1.967,0.266 34.787,12.611 37.799,13.744Zm600.076,-748.368c1.518,1.798 28.629,33.905 1.309,29.38c-35.454,-5.871 -67.501,-72.266 -14.846,-40.3c1.189,0.722 1.003,0.809 13.537,10.92Zm215.056,207.836c-3.125,-40.36 47.87,-71.505 54.209,-75.376c32.504,-19.851 -40.545,68.294 -54.209,75.376Zm106.486,-227.499c13.616,-28.155 13.382,-28.051 14.705,-30.407c20.741,-36.917 16.074,32.244 -24.267,71.958c-38.595,37.996 7.795,-38.633 9.561,-41.551Zm-468.627,29.667c-59.134,26.898 -18.949,-21.466 -17.199,-22.95c1.804,-1.531 17.107,-14.515 29.177,-4.872c9.702,7.751 -10.2,26.176 -11.978,27.822Zm-1076.445,-360.982c1.911,-2.312 29.944,-36.238 30.986,-21.113c0.519,7.544 -45.641,64.662 -45.689,64.694c-24.322,16.496 12.699,-40.495 14.703,-43.581Zm400.916,879.055c-75.254,-36.069 -75.931,-45.069 -69.575,-47.282c4.734,-1.649 72.803,34.381 73.045,40.559c0.099,2.52 -3.568,4.204 -3.469,6.724Zm1098.81,-711.921c1.713,-0.068 39.369,-1.555 16.471,13.715c-3.96,2.641 -21.253,8.045 -30.758,5.876c-29.332,-6.694 12.427,-19.041 14.287,-19.591Zm-715.535,15.078c-2.337,-0.877 -28.334,-10.631 -25.823,-17.51c6.748,-18.487 84.212,28.117 25.823,17.51Z" style="fill-opacity:1;"/><path d="M1465.534,384.862c3.611,1.827 2.374,8.735 5.985,10.562c22.584,11.43 39.47,-29.883 320.13,18.437c18.208,3.135 11.396,13.818 5.826,14.199c-54.252,3.71 -53.185,-21.15 -324.908,-18.827c-1.444,-1.461 -4.706,1.063 -6.15,-0.398c-1.123,-1.136 -7.346,-7.43 -12.153,-15.845c-1.999,-3.5 10.22,-7.762 11.27,-8.128Z" style="fill-opacity:0.96;"/><path d="M1845.937,1737.802c9.675,-22.906 17.109,-12.769 41.214,-18.388c87.438,-20.38 148.097,-72.979 154.076,-73.117c40.197,-0.933 -119.057,107.059 -195.29,91.505Z" style="fill-opacity:0.07;"/><path d="M661.721,1732.517c-20.228,-6.393 -70.12,-18.156 -130.493,-66.25c-44.873,-35.746 12.997,-7.471 14.02,-6.761c120.873,83.932 184.602,56.494 181.841,82.756c-0.553,5.258 -3.433,4.59 -65.368,-9.745Z" style="fill-opacity:0.06;"/><path d="M2000.948,802.935c-3.033,-5.637 -32.449,-60.316 -35.953,-71.486c-6.103,-19.456 8.497,-12.051 9.636,-10.197c8.021,13.057 99.615,162.149 99.623,163.605c0.161,30.924 -62.023,-65.589 -73.306,-81.921Z" style="fill-opacity:0.05;"/><path d="M2167.128,1190.88c1.801,-0.005 4.591,10.501 14.14,-0.037c7.996,-8.824 105.435,-116.348 114.693,-94.87c2.569,5.959 -109.227,106.967 -119.09,115.878c-11.093,-7.266 -12.507,-7.958 -9.742,-20.972Z" style="fill-opacity:0.93;"/><path d="M653.894,1679.279c62.941,28.343 146.469,46.96 77.509,41.102c-37.891,-3.218 -180.621,-70.51 -121.376,-61.381c3.821,0.589 3.611,1.024 43.867,20.279Z" style="fill-opacity:0.18;"/><path d="M1823.769,1803.295c-3.519,0.432 -81.013,9.954 -43.407,-8.952c7.411,-3.726 10.001,6.418 100.753,-24.49c164.411,-55.994 -27.342,24.129 -30.312,25.188c-13.902,4.956 -13.271,4.61 -27.034,8.254Z" style="fill-opacity:0.08;"/><path d="M775.678,1800.405c27.791,7.557 88.187,20.024 59.786,26.446c-30.92,6.992 -154.024,-47.821 -97.585,-40.19c1.967,0.266 34.787,12.611 37.799,13.744Z" style="fill-opacity:0.16;"/><path d="M1697.296,1032.374c13.616,-28.155 13.382,-28.051 14.705,-30.407c20.741,-36.917 16.074,32.244 -24.267,71.958c-38.595,37.996 7.795,-38.633 9.561,-41.551Z" style="fill-opacity:0.04;"/><path d="M152.225,701.058c1.911,-2.312 29.944,-36.238 30.986,-21.113c0.519,7.544 -45.641,64.662 -45.689,64.694c-24.322,16.496 12.699,-40.495 14.703,-43.581Z" style="fill-opacity:0.04;"/><path d="M553.141,1580.113c-75.254,-36.069 -75.931,-45.069 -69.575,-47.282c4.734,-1.649 72.803,34.381 73.045,40.559c0.099,2.52 -3.568,4.204 -3.469,6.724Z" style="fill-opacity:0.12;"/><path d="M936.416,883.27c-2.337,-0.877 -28.334,-10.631 -25.823,-17.51c6.748,-18.487 84.212,28.117 25.823,17.51Z" style="fill-opacity:0.05;"/></g><path d="M1286.807,1898.732c-18.247,4.79 -17.435,-3.021 -195.236,-109.111c-27.404,-16.351 -37.517,-19.286 -24.613,-32.267c16.434,-16.533 204.684,-205.918 205.743,-206.362c12.186,-5.122 7.794,7.536 122.159,111.262c45.91,41.64 88.73,85.023 96.236,92.628c12.708,12.875 -1.546,15.348 -69.847,58.487c-24.907,15.731 -104.409,67.104 -134.442,85.363l0,-0.001Zm1.4,-196.651c0.233,8.16 2.697,94.586 -9.199,101.624c-5.401,3.195 -17.482,-71.651 -11.599,-118.694c2.441,-19.513 6.72,-54.911 12.793,-42.077c5.824,12.308 7.871,57.485 8.005,59.146l-0.001,0.001Zm63.604,12.052c-10.687,-2.877 -12.526,-2.417 -16.42,-15.832c-0.259,-0.89 -5.026,-17.313 5.892,-9.978c42.556,28.588 59.744,32.726 64.815,38.12c17.963,19.103 -18.253,-7.411 -54.287,-12.309l0,-0.001Zm-161.991,3.496c-16.601,5.758 -46.695,22.962 -40.708,11.894c1.086,-2.007 71.249,-43.087 71.367,-43.065c2.73,0.496 -0.29,26.037 -13.282,28.229c-1.39,0.234 -1.287,0.218 -17.376,2.942Z"/><path d="M1516.46,216.54c98.855,-4.834 164.442,9.992 165.22,15.211c1.923,12.905 -9.323,-0.687 -161.903,19.654c-173.652,23.15 -201.17,63.755 -195.862,42.26c9.452,-38.268 38.172,-74.244 192.544,-77.126l0.001,0Z"/><path d="M1076.942,219.89c116.749,10.543 172.741,13.041 188.64,73.819c5.541,21.18 -15.474,-9.158 -140.368,-32.636c-70.454,-13.244 -220.63,-23.802 -220.684,-29.171c-0.059,-5.922 43.983,-12.43 58.993,-13.287c60.947,-3.477 94.855,0.106 113.419,1.275l-0.001,0Z"/><path d="M1870.055,262.606c-1.137,2.786 -2.274,5.571 -3.41,8.358c-48.674,-24.133 -59.589,-36.455 -84.889,-50.518c-33.573,-18.662 69.599,-5.818 107.771,33.235c13.607,13.921 -10.93,4.53 -19.472,8.925Z"/><path d="M770.812,223.645c2.993,-0.758 94.248,-23.885 38.568,-1.379c-15.362,6.209 -161.746,84.196 -116.738,44.449c29.328,-25.9 28.428,-28.483 78.171,-43.07Z"/><path d="M2176.687,1294.975c-0.636,-7.622 1.81,-6.76 8.369,-10.196c26.475,-13.871 143.772,-81.928 145.842,-81.642c20.772,2.874 -96.061,77.312 -154.211,91.838Z" style="fill-opacity:0.99;"/><path d="M661.812,1696.894c-5.114,-2.299 -57.295,-25.751 -61.828,-33.012c-6.431,-10.299 15.145,0.336 16.318,0.914c107.182,52.829 123.163,43.506 125.849,49.199c5.672,12.02 -39.571,-3.047 -80.338,-17.1Z" style="fill-opacity:0.04;"/><path d="M561.178,1572.107c24.29,11.208 24.981,10.364 27.103,13.571c0.553,0.835 1.233,7.356 -12.414,1.602c-61.967,-26.124 -84.332,-40.763 -91.143,-45.221c-14.115,-9.239 0.915,-8.315 1.24,-8.163c38.343,17.852 37.29,19.414 75.213,38.211Z" style="fill-opacity:0.04;"/><path d="M218.642,1174.57c85.061,36.427 85.965,49.761 78.523,50.28c-7.705,0.538 -76.388,-39.148 -78.719,-45.118c-0.627,-1.604 0.822,-3.558 0.196,-5.162Z" style="fill-opacity:0.98;"/><path d="M1870.055,262.606c0.267,0.558 3.334,6.978 3.334,6.978c1.234,4.757 -1.99,1.894 -6.745,1.38c1.137,-2.786 2.274,-5.571 3.41,-8.358l0.001,0Z" style="fill-opacity:0.81;"/></g></svg>