<?xml version="1.0" encoding="UTF-8" standalone="no"?><!DOCTYPE svg PUBLIC "-//W3C//DTD SVG 1.1//EN" "http://www.w3.org/Graphics/SVG/1.1/DTD/svg11.dtd"><svg width="100%" height="100%" viewBox="0 0 2556 1921" version="1.1" xmlns="http://www.w3.org/2000/svg" xmlns:xlink="http://www.w3.org/1999/xlink" xml:space="preserve" xmlns:serif="http://www.serif.com/" style="fill-rule:evenodd;clip-rule:evenodd;stroke-linejoin:round;stroke-miterlimit:2;"><g><g><path d="M929.421,0l95.816,0c55.838,38.166 71.146,40.4 55.167,59.222c-43.933,51.75 -103.49,88.63 -105.188,91.437c-6.927,11.449 52.569,7.595 62.937,7.348c34.553,-0.821 29.175,-56.632 56.382,-89.197c67.802,130.552 106.638,106.02 122.011,132.609c20.106,34.775 -21.51,-22.078 -184.911,-26.193c-159.826,-4.025 -168.136,7.094 -319.557,-11.328c-25.113,-3.055 -169.204,-20.584 -291.791,121.864c-118.742,137.979 -49.554,404.277 -35.519,355.742c3.922,-13.562 -51.336,-125.848 37.77,-251.552c7.356,-10.377 16.247,-9.581 13.959,2.86c-23.649,128.593 -14.772,139.213 -6.025,133.12c0.96,-0.669 27.63,-149.565 110.711,-213.685c47.737,-36.842 -51.392,93.384 -26.846,98.335c9.137,1.844 2.553,-19.216 108.899,-41.435c26.889,-5.618 130.289,-99.408 255.338,-112.495c13.35,-1.398 11.788,10.558 5.207,12.652c-15.154,4.82 -136.161,6.864 -213.316,150.13c-6.326,11.747 4.583,14.426 8.939,10.345c20.428,-19.136 88.965,-129.432 326.561,-149.387c13.574,-1.14 16.108,12.655 -0.284,14.668c-106.644,13.096 -138.516,22.05 -225.271,89.056c-17.2,13.284 -7.123,16.423 -5.763,16.847c25.082,7.815 -6.876,21.4 -41.081,45.985c-73.005,52.473 -90.935,61.963 -72.385,64.18c14.192,1.696 6.024,-21.826 166.599,-64.518c2.464,-0.655 41.645,-11.072 31.625,3.881c-6.101,9.104 -14.08,-3.569 -119.905,66.268c-2.395,1.58 -51.548,34.018 -20.876,29.158c104.905,-16.625 106.29,-2.28 210.315,-21.761c131.626,-24.651 131.159,-27.986 256.145,-25.433c54.565,1.115 27.574,-26.34 24.71,-26.929c-10.02,-2.06 -10.688,3.401 -126.847,-16.125c-32.699,-5.497 -112.752,-8.579 -88.392,-22.076c11.9,-6.593 266.941,35.292 251.743,-7.705c-4.198,-11.878 -101.176,-48.765 -285.323,-55.88c-2.642,-0.102 -49.565,-1.916 -30.331,-13.104c19.698,-11.456 151.644,-9.951 164.854,-9.801c119.011,1.358 133.354,36.27 134.864,20.814c3.333,-34.127 -182.84,-42.551 -199.125,-43.287c-79.074,-3.578 109.37,-64.066 218.204,-3.123c32.294,18.084 22.106,27.613 22.432,250.208c0.232,158.605 29.336,191.351 -111.396,263.994c-71.667,36.993 -62.474,50.131 -57.698,54.298c26.029,22.706 -15.763,81.766 19.926,55.217c106.83,-79.468 105.987,-144.402 141.718,-94.561c67.661,94.379 -88.26,61.516 -167.993,219.865c-1.018,2.022 -0.922,1.883 -12.441,25.411c-42.933,98.647 -55.522,121.263 39.474,356.234c10.269,25.4 14.388,2.202 14.031,1.134c-34.477,-102.634 -131.274,-248.733 -1.451,-420.16c41.13,-54.311 128.98,-102.649 129.541,-58.87c4.613,359.77 13.167,380.662 -16.787,376.933c-35.687,-4.442 -86.262,-36.318 -73.56,-14.486c0.251,0.432 77.233,72.737 99.133,72.444c25.625,-0.343 172.857,-106.805 133.931,-108.558c-4.719,-0.212 -97.459,98.878 -97.632,12.046c-0.629,-317.252 -4.734,-318.016 3.811,-344.193c3.889,-11.915 64.364,-4.559 117.256,71.046c139.408,199.272 45.955,249.126 -0.189,413.833c-3.97,14.173 9.058,11.899 14.226,-0.66c93.375,-226.946 106.944,-288.352 -26.252,-451.701c-44.811,-54.955 -144.918,-75.268 -91.006,-158.971c26.968,-41.871 54.987,12.17 114.049,72.62c2.182,2.233 45.209,46.273 36.099,14.809c-4.107,-14.186 -16.072,-31.074 -3.035,-47.515c20.307,-25.613 -161.146,-80.926 -165.393,-163.098c-0.244,-4.73 -8.885,-306.194 7.184,-364.745c23.143,-84.325 260.354,-62.882 237.273,-32.112c-2.652,3.535 -197.688,11.61 -192.727,46.739c0.811,5.745 55.494,-38.192 315.82,-16.244c99.367,8.378 -188.157,28.266 -212.506,32.331c-1.05,0.366 -13.267,4.627 -11.268,8.127c4.806,8.415 11.028,14.706 12.151,15.842c1.444,1.461 4.705,-1.063 6.149,0.398c-126.283,1.861 -130.441,12.014 -127.615,21.98c9.665,34.081 240.274,0.75 248.675,1.346c15.267,1.084 1.211,14.498 -19.219,16.25c-96.013,8.232 -94.357,21.804 -191,22.576c-15.61,0.125 -20.782,20.413 6.338,20.974c261.708,5.415 257.747,46.693 357.573,44.284c89.143,-2.151 130.258,8.306 140.493,8.819c91.39,4.587 -124.458,-39.99 -127.304,-44.185c-17.353,-25.583 120.715,13.892 125.21,10.117c21.506,-18.052 -259.833,-67.778 -87.373,-65.969c80.968,0.85 88.751,32.305 102.464,31.282c15.217,-1.137 -31.226,-39.798 -34.6,-42.608c-174.468,-145.236 -292.409,-133.835 -293.353,-142.585c-1.625,-15.06 49.168,-3.162 53.318,-2.441c220.432,38.331 264.681,127.661 286.761,137.747c27.645,12.629 -6.941,-29.857 -8.61,-31.907c-79.997,-98.268 -152.485,-113.009 -162.455,-118.404c-11.495,-6.22 -6.937,-15.122 5.542,-12.511c94.047,19.679 151.02,65.807 162.121,74.795c50.746,41.087 63.41,12.316 144.8,53.271c67.134,33.781 -47.198,-95.885 -6.49,-77.131c75.714,34.882 74.515,161.777 78.611,165.328c21.918,19.007 -0.158,-109.814 0.724,-111.492c6.294,-11.977 22.609,21.084 23.793,23.483c47.309,95.866 49.715,107.773 39.415,179.46c-1.896,13.194 11.702,13.3 14.742,-0.553c43.767,-199.415 -50.824,-293.614 -68.915,-311.631c-111.527,-111.065 -233.149,-100.037 -254.911,-98.064c-121.036,10.974 -120.355,16.102 -338.404,12.189c-99.076,-1.779 -173.2,42.948 -179.686,41.819c-16.148,-2.811 27.561,-30.21 28.361,-30.73c118.688,-77.229 85.306,-145.179 145.146,-168.274c31.547,-12.175 42.302,-9.146 44.3,-9.895c2.892,-1.084 3.707,-5.42 6.6,-6.504l31.938,0c2.99,0.719 3.571,5.769 6.562,6.489c8.317,2 17.129,0.299 25.63,1.253c158.024,17.719 242.248,112.049 274.276,123.579c29.065,10.463 212.888,6.254 310.825,141.853c75.856,105.027 67.392,207.829 67.762,272.872c0.282,49.575 168.613,100.321 198.094,383.156c9.188,88.155 26.041,83.717 44.162,159.666c2.503,10.49 4.091,9.353 8.492,19.413l0,159.694c-2.564,4.396 -4.863,2.79 -7.782,13.344c-31.441,113.707 -117.174,212.348 -157.33,245.813c-180.075,150.069 -234.551,71.147 -452.561,282.497c-63.599,61.655 -63.621,61.534 -139.273,106.699l-134.144,0c-11.392,-16.983 -16.58,-27.077 -17.842,-29.533c-6.215,-12.091 -34.017,-8.405 -40.691,-24.204c-8.331,-19.722 -7.108,-20.236 -22.231,-34.715c-7.152,-6.847 -7.308,-25.47 -16.543,-34.56c-23.441,-23.074 -12.648,-27.41 -5.601,-59.213c3.107,-14.024 -9.494,-30.698 3.052,-49.454c14.822,-22.159 66.597,-80.454 42.415,-77.734c-7.463,0.839 -80.268,68.18 -81.54,31.382c-5.54,-160.275 31.633,-152.698 93.416,-313.165c50.061,-130.023 113.229,-136.77 85.005,-142.282c-25.583,-4.996 -95.345,83.636 -102.157,92.292c-94.197,135.853 -49.071,230.435 -137.508,329.442c-45.526,50.968 -52.434,12.02 -55.953,2.183c-17.147,-47.931 -120.768,-120.752 -145.349,-107.096c-151.857,84.367 -115.988,120.143 -130.628,129.923c-14.44,9.646 -56.383,-64.509 -65.411,-94.239c-38.982,-128.382 -14.651,-190.541 -127.15,-315.883c-43.866,-48.875 -83.279,-47.363 -65.558,-29.373c73.989,75.113 55.65,86.219 86.744,186.753c16.279,52.634 72.516,97.375 79.352,152.706c14.435,116.861 7.882,122.298 -1.802,121.471c-5.02,-0.429 -75.584,-33.165 -69.389,-12.772c12.496,41.134 42.763,28.992 46.947,95.598c1.434,22.82 25.262,30.301 -7.182,54.654c-20.255,15.204 -8.156,25.497 -29.183,39.417c-28.676,18.984 -4.924,38.699 -29.527,49.22c-26.221,11.213 -19.16,19.196 -39.443,39.18l-140.532,0c-32.132,-27.417 -36.354,-21.343 -74.463,-56.768c-64.143,-59.625 -113.967,-119.095 -385.151,-240.907c-176.343,-79.21 -266.541,-224.308 -286.141,-268.444c-5.43,-12.227 -9.432,-25.135 -15.843,-36.877c-1.717,-3.144 -6.412,-3.885 -8.129,-7.03l0,-102.204c0.523,-3.053 6.02,-3.548 6.544,-6.602c2.172,-12.674 -5.567,-18.23 8.06,-102.251c14.529,-89.587 45.529,-81.509 57.287,-191.556c28.658,-268.224 141.231,-275.403 192.171,-345.482c27.985,-38.501 -37.752,-252.857 205.819,-381.804c90.82,-48.081 166.802,-21.446 221.422,-60.686c55.795,-40.084 77.552,-68.391 212.656,-105.811c4.124,-1.143 5.532,-1.375 6.021,-1.456c10.668,-1.765 9.423,-4.095 19.444,-8.45l-0.002,0.002Zm-98.824,1344.494c-9.534,102.092 -14.772,151.403 12.076,203.21c19.986,38.564 -17.057,15.734 -59.708,22.973c-51.901,8.808 -55.265,22.325 -81.685,1.61c-241.335,-189.229 -188.171,-236.939 -303.102,-437.898c-25.088,-43.865 41.119,-12.406 94.278,-79.388c60.16,-75.805 180.821,-307.12 180.574,-253.169c-0.78,170.568 87.745,172.226 145.514,345.486c22.427,67.262 12.567,181.83 12.053,197.176l0.001,0.001Zm925.734,-25.569c-7.394,-202.424 42.94,-237.188 123.66,-377.426c56.058,-97.391 19.388,-164.616 44.013,-156.417c2.99,0.996 100.74,193.986 113.335,212.68c63.99,94.973 113.093,97.99 148.71,113.196c16.3,6.959 -22.595,40.89 -40.816,75.128c-79.648,149.662 -16.67,196.413 -246.968,379.451c-53.598,42.6 -59.512,33.617 -106.335,21.176c-29.656,-7.88 -72.738,-1.771 -61.051,-23.425c45.115,-83.593 33.576,-88.934 25.451,-244.363l-0,-0.001Zm-1628.728,-280.796c2.295,-43.601 -0.004,-153.388 89.568,-292.49c32.821,-50.971 -20.471,-5.523 -46.922,24.936c-69.806,80.384 -58.358,88.418 -65.385,94.329c-22.719,19.112 -2.768,-35.595 -1.711,-38.491c7.606,-20.854 161.612,-229.776 173.493,-226.102c6.379,1.973 4.363,4.282 18.617,42.361c24.884,66.477 92.874,77.174 69.422,105.95c-63.97,78.49 -56.292,83.78 -62.493,89.973c-35.449,35.412 26.966,-72.876 26.065,-74.872c-6.414,-14.215 -27.774,23.821 -29.324,26.582c-32.112,57.181 -10.574,-78.718 -32.99,-64.161c-0.585,0.38 -36.631,116.653 -46.811,158.239c-37.964,155.072 117.905,182.92 183.814,289.2c0.685,1.104 30.295,62.453 -6.936,14.686c-62.554,-80.256 -144.502,-113.913 -144.536,-113.908c-14.023,1.931 15.219,22.708 17.147,24.078c174.916,124.285 186.137,235.061 174.899,252.316c-20.728,31.829 -59.535,-46.41 -229.053,-134.802c-85.502,-44.583 -89.993,-55.533 -86.864,-177.824l-0.001,-0Zm2039.146,152.542c85.994,-117.948 132.25,-118.514 156.327,-216.239c16.8,-68.191 -20.05,-225.636 -23.167,-227.115c-21.578,-10.235 -8.297,136.614 -31.412,81.474c-10.709,-25.547 -35.814,-62.359 -39.336,-67.524c-21.605,-31.679 -14.676,-36.058 8.335,-62.955c21.145,-24.717 51.31,-103.573 62.225,-74.124c97.592,263.287 100.246,262.152 106.852,285.638c64.315,228.639 36.364,261.642 -47.746,310.954c-228.171,133.773 -238.599,152.63 -244.255,131.183c-16.588,-62.908 53.18,-131.71 61.916,-140.326c9.861,-8.91 121.638,-109.9 119.069,-115.858c-9.255,-21.474 -106.678,86.032 -114.673,94.854c-9.547,10.535 -12.337,0.032 -14.138,0.037l0.001,0.001Zm2.663,239.45c115.799,-37.767 118.945,-48.155 160.028,-69.798c5.352,-2.82 20.971,1.031 3.651,14.052c-14.577,10.959 -26.409,19.854 -204.102,101.542c-190.17,87.425 -231.684,209.82 -388.59,269.812c-13.791,5.273 -15.859,-6.054 -10.844,-9.714c34.987,-25.539 44.252,-13.192 130.656,-99.355c82.063,-81.834 83.762,-79.46 171.898,-154.28c56.709,-48.142 39.346,-74.144 201.477,-141.678c15.046,-6.268 185.948,-77.455 189.023,-76.055c40.951,18.632 -328.992,155.447 -321.859,181.55c2.492,9.117 37.633,-5.381 68.661,-16.076Zm-910.964,-746.18c-46.575,54.307 -218.824,130.492 -291.054,119.603c-47.3,-7.131 -72.543,-31.789 -51.165,-28.767c80.804,11.422 80.937,17.195 109.811,9.268c78.471,-21.542 -27.587,3.233 -103.897,-25.12c-50.971,-18.939 42.302,-31.728 103.392,-45.448c113.548,-25.501 115.278,-12.749 228.74,-36.838c5.036,-1.069 4.839,-7.236 7.306,-2.919c3.02,5.286 -6.213,4.832 -3.133,10.22l0.001,0Zm283.861,-115.816c115.021,19.181 273.117,43.221 224.716,56.085c-78.038,20.741 -153.521,7.834 -377.59,10.071c-13.456,0.134 -15.471,-12.056 -0.811,-13.916c17.255,-2.19 113.985,6.29 103.36,-10.675c-0.736,-1.175 -146.376,-4.254 -127.475,-31.171c15.892,-22.632 163.593,-11.47 177.8,-10.396l0,0.001Zm-491.345,0.134c92.03,-4.692 109.999,-2.815 146.414,4.906c2.136,0.453 39.205,8.313 20.111,18.447c-38.734,20.558 -108.368,12.87 -114.218,15.146c-38.381,14.938 90.185,13.1 107.52,15.223c51.36,6.29 -5.589,12.839 -6.747,12.809c-173.864,-4.45 -313.564,7.086 -388.608,-14.728c-58.511,-17.009 216.37,-49.535 235.529,-51.802l0,-0.001Zm530.242,236.935c-35.297,-6.438 -56.037,-6.274 -146.336,-56.147c-73.368,-40.523 -72.209,-42.279 -82.807,-50.816c-46.571,-37.519 21.135,-8.285 75.869,-0.479c20.204,2.881 246.068,35.09 249.649,52.483c5.9,28.659 -123.329,16.944 -127.854,26.132c-5.145,10.446 34.542,10.538 37.671,10.545c81.618,0.189 81.234,-10.739 87.766,-8.084c7.232,2.94 6.694,26.388 -93.958,26.365l-0.001,0Zm-1317.066,510.235c285.209,101.989 262.836,161.302 486.152,348.897c26.42,22.194 67.581,35.654 51.08,43.537c-8.822,4.214 -109.68,-51.399 -195.696,-135.391c-141.112,-137.793 -133.227,-153.601 -314.715,-222.271c-11.374,-4.303 -131.476,-49.747 -131.549,-76.175c-0.005,-1.746 0.809,-11.524 21.732,2.018c38.688,25.039 39.754,22.088 82.996,39.386l0,-0.001Zm1454.329,47.918c-11.214,67.848 -8.331,109.1 -144.254,157.76c-48.959,17.527 139.204,-231.876 141.194,-232.569c14.836,-5.167 3.643,67.988 3.059,74.81l0,-0.001Zm-1350.248,126.912c3.302,2.452 79.552,59.058 30.753,41.201c-90.369,-33.069 -134.72,-60.503 -310.867,-214.578c-62.743,-54.88 -78.722,-131.489 -41.034,-86.492c55.957,66.809 49.062,86.058 178.153,167.75c60.67,38.393 131.599,84.682 142.995,92.12l0,-0.001Zm1864.965,22.097c-3.647,1.29 -108.917,38.524 -48.317,2.123c346.356,-208.05 317.489,-299.304 328.201,-304.756c20.081,-10.219 5.256,58.912 -46.807,113.316c-35.485,37.082 -87.462,80.238 -96.951,88.453c-60.956,52.771 -75.988,72.362 -136.125,100.864l-0.001,-0Zm-1371.025,-174.311c-2.473,-31.738 -4.709,-32.634 -0.913,-36.239c8.308,-7.889 9.476,2.14 69.715,125.094c31.294,63.874 93.284,94.114 55.994,84.883c-128.899,-31.907 -119.313,-131.411 -124.797,-173.739l0.001,0Zm-406.62,-595.068c-75.411,80.223 -67.903,86.035 -109.87,138.714c-12.768,16.027 -22.154,-39.437 54.174,-124.19c60.913,-67.636 329.681,-224.424 152.905,-96.135c-51.815,37.603 -50.178,38.61 -97.209,81.612Zm1760.477,109.649c1.188,72.467 -18.737,-22.348 -162.133,-166.131c-1.872,-1.877 -55.499,-55.649 -13.474,-30.263c33.391,20.171 94.091,69.66 101.979,76.092c8.745,7.13 62.333,50.821 73.627,120.301l0,0.001Zm-76.02,13.872c1.119,3.269 13.438,39.258 8.545,42.341c-5.416,3.411 -5.394,-1.406 -149.977,-197.981c-16.266,-22.115 2.723,-18.495 3.915,-17.597c65.914,49.583 93.395,88.176 99.864,97.26c16.961,23.818 35.152,69.672 37.653,75.978l0,-0.001Zm-1800.928,-487.409c-14.555,43.975 -12.586,44.156 -19.187,89.734c-13.239,91.419 -12.952,-16.279 -12.845,-18.048c1.047,-17.24 -6.071,-125.4 124.88,-229.445c45.218,-35.928 74.414,-43.061 63.021,-26.572c-12.1,17.512 -93.899,37.3 -155.87,184.331Zm1935.406,100.806c-2.297,-1.085 -8.262,4.649 -10.519,-10.221c-35.364,-232.922 -160.953,-247.148 -161.135,-274.825c-0.038,-5.801 7.326,-10.625 63.599,34.833c107.374,86.738 116.351,214.677 108.055,250.214l0,-0.001Zm-1204.668,603.674c-5.028,-4.008 -50.185,-32.044 -56.509,-84.014c-6.1,-50.131 21.59,-98.783 31.694,-98.231c7.721,0.422 3.782,27.676 4.396,40.936c4.515,97.672 39.418,123.818 20.418,141.309Zm-133.396,-953.457c-36.651,7.082 -70.934,39.224 -48.564,9.07c10.324,-13.917 209.239,-171.111 128.536,-61.157c-44.9,61.174 -98.733,90.512 -84.79,65.935c3.748,-6.608 2.361,-6.785 4.819,-13.848l-0.001,0Zm-381.526,1417.965c-3.513,-0.178 -4.858,6.606 -8.372,6.428c-24.525,-1.243 -25.401,-55.44 -205.09,-119.67c-33.111,-11.836 -53.681,-19.064 -53.301,-27.173c0.524,-11.203 147.287,38.393 173.401,54.517c14.75,9.107 60.656,47.487 93.362,85.899Zm1089.364,-1417.615c40.584,77.519 -101.831,-63.705 -80.997,-87.652c17.886,-20.558 104.133,75.589 109.077,80.277c1.112,1.054 21.541,20.422 4.355,18.648c-17.624,-1.82 -15.072,-9.35 -32.435,-11.273Zm768.425,670.18c-1.811,-2.323 -18.943,-24.296 -22.927,-28.81c-8.809,-9.978 -18.029,-19.601 -26.559,-29.818c-61.9,-74.149 117.819,41.685 120.713,168.523c1.898,83.152 -9.533,-26.011 -71.227,-109.895Zm98.043,282.307c1.976,107.821 -81.642,-133.745 -81.513,-141.42c0.369,-21.968 35.636,32.134 37.293,34.368c41.696,56.227 35.683,62.38 44.22,107.052Zm-1967.119,-294.813c-24.413,66.505 -80.611,135.127 -86.816,134.766c-17.792,-1.037 2.569,-10.371 90.74,-203.458c4.689,-10.269 5.085,-17.081 13.365,-9.683c6.186,5.527 -14.164,67.856 -17.289,78.375Zm-153.086,115.037c20.734,-53.54 20.759,-53.413 56.829,-97.744c2.037,-2.503 24.731,-30.396 28.401,-28.633c10.766,5.172 -19.143,52.145 -29.109,70.989c-63.014,119.147 -65.262,118.327 -66.466,118.352c-5.104,0.107 -7.316,-3.109 10.345,-62.965l0,0.001Zm1148.548,58.203c-1.71,-23.128 -2.965,-22.292 -5.726,-44.836c-4.216,-34.426 38.665,9.707 38.9,57.69c0.039,7.974 0.336,68.574 -50.12,86.154c-34.818,12.132 11.579,-16.487 16.946,-99.008Zm-368.088,442.17c39.818,31.744 50.358,39.213 30.963,53.155c-15.439,11.098 -37.953,35.704 -45.368,10.323c-24.68,-84.486 -28.693,-85.931 -22.856,-90.6c1.18,-0.944 3.958,-4.27 37.261,27.122l0.001,0Zm241.525,49.011c-8.747,26.446 -5.989,47.636 -27.601,30.064c-2.961,-2.409 -34.961,-28.426 -32.201,-35.213c2.825,-6.945 2.807,-6.902 69.702,-62.645c19.921,-16.6 4.114,24.068 -9.899,67.794Zm405.256,-1347.883c-128.862,-77.2 -148.283,-69.852 -137.581,-76.49c8.676,-5.381 112.344,27.433 185.871,86.118c109.327,87.26 -44.934,-7.567 -48.29,-9.629l0,0.001Zm-1035.943,-6.707c-5.353,3.69 -11.071,6.83 -16.424,10.52c-1.812,1.249 -71.351,57.891 -58.717,29.124c32.546,-74.106 389.539,-181.107 147.608,-80.309c-28.964,12.068 -66.912,37.014 -72.467,40.665Zm1063.803,1639.528c9.673,-22.902 17.106,-12.767 41.207,-18.385c87.423,-20.376 148.071,-72.966 154.049,-73.104c40.19,-0.933 -119.036,107.04 -195.256,91.489Zm-1184.011,-5.283c-20.224,-6.392 -70.108,-18.153 -130.47,-66.238c-44.865,-35.74 12.995,-7.47 14.018,-6.76c120.852,83.917 184.57,56.484 181.809,82.742c-0.553,5.257 -3.432,4.589 -65.357,-9.743Zm914.02,-1602.467c53.64,44.249 -22.538,26.755 -25.443,24.947c-23.467,-14.61 -68.848,-134.617 -24.352,-77.213c22.162,28.591 23.3,26.647 49.794,52.266Zm424.975,673.047c-3.032,-5.636 -32.443,-60.306 -35.947,-71.474c-6.102,-19.453 8.496,-12.049 9.634,-10.195c8.02,13.055 99.598,162.121 99.606,163.577c0.161,30.919 -62.012,-65.578 -73.293,-81.907l0,-0.001Zm-828.839,359.949c-2.804,-0.259 -41.481,-3.827 -31.358,-15.99c13.023,-15.646 178.197,-54.946 82.334,-1.048c-23.764,13.361 -24.295,11.434 -50.976,17.038Zm-1108.281,-130.412c0.757,-2.123 9.458,-26.533 9.458,-26.533c84.382,-173.12 -4.805,100.573 -18.754,96.452c-7.422,-2.192 7.943,-64.442 9.294,-69.92l0.001,0.001Zm2303.965,-359.48c69.207,56.504 63.429,69.25 56.345,68.68c-5.112,-0.411 -68.698,-42.204 -79.995,-57.03c-23.056,-30.258 -14.754,-37.945 -9.515,-34.847c2.788,1.648 2.071,1.794 33.165,23.197Zm-1403.05,371.144c-20.862,-129.793 63.154,74.96 41.569,75.034c-24.406,0.084 -40.04,-68.344 -41.569,-75.034Zm418.578,125.462c-9.11,-1.39 -23.192,1.245 -42.986,-18.233c-23.709,-23.331 -3.815,-24.859 -1.834,-24.744c8.663,0.504 147.049,32.394 44.818,42.977l0.001,0Zm-166.18,56.766c71.282,13.733 6.809,39.472 -12.955,37.901c-28.674,-2.279 -53.259,-32.843 -12.728,-36.184c8.551,-0.705 17.132,-1.013 25.683,-1.718Zm949.958,-35.552c1.801,-0.005 4.59,10.499 14.138,-0.037c7.995,-8.822 105.417,-116.328 114.673,-94.854c2.569,5.958 -109.208,106.948 -119.069,115.858c-11.091,-7.265 -12.505,-7.957 -9.74,-20.968l-0.001,0.001Zm-790.475,22.495c3.181,0.621 41.982,3.589 41.075,16.753c-1.787,25.929 -77.394,26.929 -79.419,-6.638c-0.891,-14.756 36.869,-10.129 38.344,-10.115Zm-722.495,465.82c62.93,28.338 146.444,46.952 77.496,41.095c-37.884,-3.217 -180.59,-70.498 -121.355,-61.37c3.82,0.589 3.61,1.024 43.859,20.275Zm943.199,-526.28c-24.345,87.849 -42.026,81.392 -46.449,75.822c-4.215,-5.309 38.672,-136.097 46.449,-75.822Zm61.81,-24.218c34.225,-35.611 33.806,-36.093 37.714,-37.821c31.534,-13.952 -28.33,78.748 -57.944,81.01c-19.222,1.469 17.378,-39.397 20.23,-43.189l-0.001,0.001Zm420.964,408.46c-10.355,6.986 -63.289,47.714 -67.821,36.35c-7.26,-18.204 208.389,-142.068 67.821,-36.35Zm-1151.545,-414.85c1.206,1.614 50.88,68.064 -10.438,22.913c-36.308,-26.734 -40.151,-69.98 -20.77,-55.033c2.838,2.188 10.539,8.128 31.209,32.12Zm87.703,63.406c0.745,3.097 9.397,39.067 3.737,39.644c-22.1,2.252 -47.749,-106.281 -21.662,-89.19c3.73,2.445 16.709,45.51 17.926,49.546l-0.001,-0Zm807.541,617.476c-3.518,0.432 -80.999,9.952 -43.399,-8.95c7.41,-3.725 9.999,6.417 100.735,-24.486c164.382,-55.984 -27.337,24.125 -30.307,25.184c-13.9,4.955 -13.269,4.609 -27.029,8.253Zm-215.238,-732.382c-1.954,4.187 -30.748,65.899 -35.807,45.324c-2.899,-11.792 29.276,-85.128 35.754,-87.533c14.579,-5.411 1.038,38.979 0.052,42.209l0.001,0Zm-731.804,-38.131c-3.711,-10.201 -22.603,-50.17 -10.501,-55.823c7.808,-3.646 45.827,78.469 41.792,85.442c-1.727,2.983 -9.819,9.858 -31.29,-29.619l-0.001,0Zm-100.867,767.623c27.786,7.556 88.172,20.021 59.776,26.441c-30.915,6.991 -153.997,-47.813 -97.568,-40.183c1.967,0.266 34.781,12.609 37.792,13.742Zm599.972,-748.238c1.518,1.798 28.624,33.899 1.309,29.375c-35.448,-5.87 -67.489,-72.253 -14.843,-40.293c1.189,0.722 1.003,0.809 13.535,10.918Zm215.019,207.8c-3.124,-40.353 47.862,-71.493 54.2,-75.363c32.498,-19.848 -40.538,68.282 -54.2,75.363Zm106.467,-227.459c13.614,-28.15 13.38,-28.046 14.702,-30.402c20.737,-36.911 16.071,32.238 -24.263,71.945c-38.588,37.989 7.794,-38.626 9.559,-41.544l0.001,0Zm-468.546,29.662c-59.124,26.893 -18.946,-21.462 -17.196,-22.946c1.804,-1.531 17.104,-14.512 29.172,-4.871c9.7,7.75 -10.198,26.171 -11.976,27.817Zm-1076.258,-360.919c1.911,-2.312 29.939,-36.232 30.981,-21.109c0.519,7.543 -45.633,64.651 -45.681,64.683c-24.318,16.493 12.697,-40.488 14.7,-43.573Zm400.846,878.902c-75.241,-36.063 -75.918,-45.061 -69.563,-47.274c4.733,-1.649 72.79,34.375 73.032,40.552c0.099,2.52 -3.567,4.203 -3.468,6.723l-0.001,-0.001Zm1098.619,-711.797c1.713,-0.068 39.362,-1.555 16.468,13.713c-3.959,2.641 -21.249,8.044 -30.753,5.875c-29.327,-6.693 12.425,-19.038 14.285,-19.588Zm-715.411,15.075c-2.337,-0.877 -28.329,-10.629 -25.819,-17.507c6.747,-18.484 84.197,28.112 25.819,17.507Z"/><path d="M1465.279,384.795c3.61,1.827 2.374,8.733 5.984,10.56c22.58,11.428 39.463,-29.878 320.074,18.434c18.205,3.134 11.394,13.816 5.825,14.197c-54.243,3.709 -53.176,-21.146 -324.852,-18.824c-1.444,-1.461 -4.705,1.063 -6.149,-0.398c-1.123,-1.136 -7.345,-7.429 -12.151,-15.842c-1.999,-3.499 10.218,-7.761 11.268,-8.127Z" style="fill-opacity:0.96;"/><path d="M1845.616,1737.5c9.673,-22.902 17.106,-12.767 41.207,-18.385c87.423,-20.376 148.071,-72.966 154.049,-73.104c40.19,-0.933 -119.036,107.04 -195.256,91.489Z" style="fill-opacity:0.07;"/><path d="M661.606,1732.216c-20.224,-6.392 -70.108,-18.153 -130.47,-66.238c-44.865,-35.74 12.995,-7.47 14.018,-6.76c120.852,83.917 184.57,56.484 181.809,82.742c-0.553,5.257 -3.432,4.589 -65.357,-9.743Z" style="fill-opacity:0.06;"/><path d="M2000.6,802.795c-3.032,-5.636 -32.443,-60.306 -35.947,-71.474c-6.102,-19.453 8.496,-12.049 9.634,-10.195c8.02,13.055 99.598,162.121 99.606,163.577c0.161,30.919 -62.012,-65.578 -73.293,-81.907l0,-0.001Z" style="fill-opacity:0.05;"/><path d="M2166.751,1190.673c1.801,-0.005 4.59,10.499 14.138,-0.037c7.995,-8.822 105.417,-116.328 114.673,-94.854c2.569,5.958 -109.208,106.948 -119.069,115.858c-11.091,-7.265 -12.505,-7.957 -9.74,-20.968l-0.001,0.001Z" style="fill-opacity:0.93;"/><path d="M653.78,1678.987c62.93,28.338 146.444,46.952 77.496,41.095c-37.884,-3.217 -180.59,-70.498 -121.355,-61.37c3.82,0.589 3.61,1.024 43.859,20.275Z" style="fill-opacity:0.18;"/><path d="M1823.452,1802.981c-3.518,0.432 -80.999,9.952 -43.399,-8.95c7.41,-3.725 9.999,6.417 100.735,-24.486c164.382,-55.984 -27.337,24.125 -30.307,25.184c-13.9,4.955 -13.269,4.609 -27.029,8.253Z" style="fill-opacity:0.08;"/><path d="M775.543,1800.092c27.786,7.556 88.172,20.021 59.776,26.441c-30.915,6.991 -153.997,-47.813 -97.568,-40.183c1.967,0.266 34.781,12.609 37.792,13.742Z" style="fill-opacity:0.16;"/><path d="M1697.001,1032.194c13.614,-28.15 13.38,-28.046 14.702,-30.402c20.737,-36.911 16.071,32.238 -24.263,71.945c-38.588,37.989 7.794,-38.626 9.559,-41.544l0.001,0Z" style="fill-opacity:0.04;"/><path d="M152.199,700.936c1.911,-2.312 29.939,-36.232 30.981,-21.109c0.519,7.543 -45.633,64.651 -45.681,64.683c-24.318,16.493 12.697,-40.488 14.7,-43.573Z" style="fill-opacity:0.04;"/><path d="M553.045,1579.838c-75.241,-36.063 -75.918,-45.061 -69.563,-47.274c4.733,-1.649 72.79,34.375 73.032,40.552c0.099,2.52 -3.567,4.203 -3.468,6.723l-0.001,-0.001Z" style="fill-opacity:0.12;"/><path d="M936.253,883.116c-2.337,-0.877 -28.329,-10.629 -25.819,-17.507c6.747,-18.484 84.197,28.112 25.819,17.507Z" style="fill-opacity:0.05;"/></g><path d="M1286.583,1898.402c-18.244,4.789 -17.432,-3.02 -195.202,-109.092c-27.399,-16.348 -37.51,-19.283 -24.609,-32.261c16.431,-16.53 204.648,-205.882 205.707,-206.326c12.184,-5.121 7.793,7.535 122.138,111.243c45.902,41.633 88.715,85.008 96.219,92.612c12.706,12.873 -1.546,15.345 -69.835,58.477c-24.903,15.728 -104.391,67.092 -134.419,85.348l0,-0.001l0,0.001Zm1.4,-196.617c0.233,8.159 2.697,94.57 -9.197,101.606c-5.4,3.194 -17.479,-71.639 -11.597,-118.673c2.441,-19.51 6.719,-54.901 12.791,-42.07c5.823,12.306 7.87,57.475 8.004,59.136l-0.001,0.001l0.001,0Zm63.593,12.05c-10.685,-2.876 -12.524,-2.417 -16.417,-15.829c-0.259,-0.89 -5.025,-17.31 5.891,-9.976c42.549,28.583 59.734,32.72 64.804,38.113c17.96,19.1 -18.25,-7.41 -54.278,-12.307l0,-0.001Zm-161.963,3.495c-16.598,5.757 -46.687,22.958 -40.701,11.892c1.086,-2.007 71.237,-43.08 71.355,-43.058c2.73,0.496 -0.29,26.032 -13.28,28.224c-1.39,0.234 -1.287,0.218 -17.373,2.941l-0.001,0Z"/><path d="M1516.196,216.502c98.838,-4.833 164.413,9.99 165.191,15.208c1.923,12.903 -9.321,-0.687 -161.875,19.651c-173.622,23.146 -201.135,63.744 -195.828,42.253c9.45,-38.261 38.165,-74.231 192.511,-77.113l0.001,0l0,0.001Z"/><path d="M1076.755,219.852c116.729,10.541 172.711,13.039 188.607,73.806c5.54,21.176 -15.471,-9.156 -140.344,-32.63c-70.442,-13.242 -220.592,-23.798 -220.646,-29.166c-0.059,-5.921 43.975,-12.428 58.983,-13.285c60.936,-3.476 94.839,0.106 113.399,1.275l-0.001,0l0.001,0Z"/><path d="M1869.73,262.56c-1.137,2.786 -2.274,5.57 -3.409,8.357c-48.666,-24.129 -59.579,-36.449 -84.874,-50.509c-33.567,-18.659 69.587,-5.817 107.752,33.229c13.605,13.919 -10.928,4.529 -19.469,8.923Z"/><path d="M770.678,223.606c2.992,-0.758 94.232,-23.881 38.561,-1.379c-15.359,6.208 -161.718,84.181 -116.718,44.441c29.323,-25.895 28.423,-28.478 78.157,-43.063l-0.001,-0Z"/><path d="M2176.309,1294.75c-0.636,-7.621 1.81,-6.759 8.368,-10.194c26.47,-13.869 143.747,-81.914 145.817,-81.628c20.768,2.874 -96.044,77.299 -154.184,91.822Z" style="fill-opacity:0.99;"/><path d="M661.697,1696.599c-5.113,-2.299 -57.285,-25.747 -61.817,-33.006c-6.43,-10.297 15.142,0.336 16.315,0.914c107.163,52.82 123.142,43.498 125.827,49.19c5.671,12.018 -39.564,-3.046 -80.324,-17.097l-0.001,-0.001Z" style="fill-opacity:0.04;"/><path d="M561.08,1571.834c24.286,11.206 24.977,10.362 27.098,13.569c0.553,0.835 1.233,7.355 -12.412,1.602c-61.956,-26.119 -84.317,-40.756 -91.127,-45.213c-14.113,-9.237 0.915,-8.314 1.24,-8.162c38.336,17.849 37.284,19.411 75.2,38.204l0.001,0Z" style="fill-opacity:0.04;"/><path d="M218.604,1174.366c85.046,36.421 85.95,49.752 78.509,50.271c-7.704,0.538 -76.375,-39.141 -78.705,-45.11c-0.627,-1.604 0.822,-3.557 0.196,-5.161Z" style="fill-opacity:0.98;"/><path d="M1869.73,262.56c0.267,0.558 3.333,6.977 3.333,6.977c1.234,4.756 -1.99,1.894 -6.744,1.38c1.137,-2.786 2.274,-5.57 3.409,-8.357l0.001,0Z" style="fill-opacity:0.81;"/></g></svg>