<?xml version="1.0" encoding="UTF-8" standalone="no"?><!DOCTYPE svg PUBLIC "-//W3C//DTD SVG 1.1//EN" "http://www.w3.org/Graphics/SVG/1.1/DTD/svg11.dtd"><svg width="100%" height="100%" viewBox="0 0 33392 18009" version="1.1" xmlns="http://www.w3.org/2000/svg" xmlns:xlink="http://www.w3.org/1999/xlink" xml:space="preserve" xmlns:serif="http://www.serif.com/" style="fill-rule:evenodd;clip-rule:evenodd;stroke-linecap:round;stroke-linejoin:round;stroke-miterlimit:1.5;"><path id="U1-muscle" d="M30331.068,633.573c1338.981,0 2424.42,1070.52 2424.42,2391.099l0,11955.331c0,1320.578 -1085.439,2391.099 -2424.42,2391.099l-27274.316,0c-1338.981,0 -2424.42,-1070.52 -2424.42,-2391.099l0,-11955.331c0,-1320.578 1085.439,-2391.099 2424.42,-2391.099l27274.316,0Z" style="fill:#fff;stroke:#000;stroke-width:1268.79px;"/><path d="M23983.25,10561.5c0,207.167 -82.333,405.917 -228.833,552.417c-146.5,146.5 -345.25,228.833 -552.417,228.833l-13019.417,0c-207.167,0 -405.917,-82.333 -552.417,-228.833c-146.5,-146.5 -228.833,-345.25 -228.833,-552.417l0,-3117.333c0,-207.167 82.333,-405.917 228.833,-552.417c146.5,-146.5 345.25,-228.833 552.417,-228.833l13019.417,0c207.167,0 405.917,82.333 552.417,228.833c146.5,146.5 228.833,345.25 228.833,552.417l0,3117.333Z" style="fill:#b3b3b3;stroke:#000;stroke-width:1250px;"/></svg>