<?xml version="1.0" encoding="UTF-8" standalone="no"?><!DOCTYPE svg PUBLIC "-//W3C//DTD SVG 1.1//EN" "http://www.w3.org/Graphics/SVG/1.1/DTD/svg11.dtd"><svg width="100%" height="100%" viewBox="0 0 1244 671" version="1.1" xmlns="http://www.w3.org/2000/svg" xmlns:xlink="http://www.w3.org/1999/xlink" xml:space="preserve" xmlns:serif="http://www.serif.com/" style="fill-rule:evenodd;clip-rule:evenodd;stroke-linecap:round;stroke-linejoin:round;stroke-miterlimit:1.5;"><clipPath id="_clip1"><rect x="0" y="0" width="1243.848" height="670.833"/></clipPath><g clip-path="url(#_clip1)"><path id="U1-muscle" d="M1129.829,23.601c49.877,0 90.309,39.877 90.309,89.068l0,445.335c0,49.191 -40.432,89.068 -90.309,89.068l-1015.965,0c-49.877,0 -90.309,-39.877 -90.309,-89.068l0,-445.335c0,-49.191 40.432,-89.068 90.309,-89.068l1015.965,0Z" style="fill:#fff;stroke:#000;stroke-width:47.26px;"/><path d="M893.374,393.415c0,7.717 -3.067,15.12 -8.524,20.577c-5.457,5.457 -12.861,8.524 -20.577,8.524l-484.972,0c-7.717,0 -15.12,-3.067 -20.577,-8.524c-5.457,-5.457 -8.524,-12.861 -8.524,-20.577l0,-116.12c0,-7.717 3.067,-15.12 8.524,-20.577c5.457,-5.457 12.861,-8.524 20.577,-8.524l484.972,0c7.717,0 15.12,3.067 20.577,8.524c5.457,5.457 8.524,12.861 8.524,20.577l0,116.12Z" style="fill:#b3b3b3;stroke:#000;stroke-width:46.56px;"/></g></svg>