<?xml version="1.0" encoding="UTF-8" standalone="no"?><!DOCTYPE svg PUBLIC "-//W3C//DTD SVG 1.1//EN" "http://www.w3.org/Graphics/SVG/1.1/DTD/svg11.dtd"><svg width="100%" height="100%" viewBox="0 0 1244 671" version="1.1" xmlns="http://www.w3.org/2000/svg" xmlns:xlink="http://www.w3.org/1999/xlink" xml:space="preserve" xmlns:serif="http://www.serif.com/" style="fill-rule:evenodd;clip-rule:evenodd;stroke-linecap:round;stroke-linejoin:round;stroke-miterlimit:1.5;"><clipPath id="_clip1"><rect x="0" y="0" width="1243.848" height="670.833"/></clipPath><g clip-path="url(#_clip1)"><path id="U1-muscle" d="M1129.829,23.601c49.877,0 90.309,39.877 90.309,89.068l0,445.335c0,49.191 -40.432,89.068 -90.309,89.068l-1015.965,0c-49.877,0 -90.309,-39.877 -90.309,-89.068l0,-445.335c0,-49.191 40.432,-89.068 90.309,-89.068l1015.965,0Z" style="fill:#fff;stroke:#000;stroke-width:47.26px;"/><path d="M541.974,415.348l-142.464,0c-7.078,0 -13.868,-2.813 -18.874,-7.818c-5.005,-5.005 -7.818,-11.796 -7.818,-18.874l0,-106.505c0,-7.078 2.813,-13.868 7.818,-18.874c5.005,-5.005 11.796,-7.818 18.874,-7.818l142.464,0l0,-142.464c0,-7.078 2.813,-13.868 7.818,-18.874c5.005,-5.005 11.796,-7.818 18.874,-7.818l106.505,0c7.078,0 13.868,2.813 18.874,7.818c5.005,5.005 7.818,11.796 7.818,18.874l0,142.464l142.464,0c7.078,0 13.868,2.813 18.874,7.818c5.005,5.005 7.818,11.796 7.818,18.874l0,106.505c0,7.078 -2.813,13.868 -7.818,18.874c-5.005,5.005 -11.796,7.818 -18.874,7.818l-142.464,0l0,142.464c0,7.078 -2.813,13.868 -7.818,18.874c-5.005,5.005 -11.796,7.818 -18.874,7.818l-106.505,0c-7.078,0 -13.868,-2.813 -18.874,-7.818c-5.005,-5.005 -7.818,-11.796 -7.818,-18.874l0,-142.464Z" style="fill:#b3b3b3;stroke:#000;stroke-width:46.56px;"/></g></svg>