<?xml version="1.0" encoding="UTF-8" standalone="no"?><!DOCTYPE svg PUBLIC "-//W3C//DTD SVG 1.1//EN" "http://www.w3.org/Graphics/SVG/1.1/DTD/svg11.dtd"><svg width="100%" height="100%" viewBox="0 0 33392 18009" version="1.1" xmlns="http://www.w3.org/2000/svg" xmlns:xlink="http://www.w3.org/1999/xlink" xml:space="preserve" xmlns:serif="http://www.serif.com/" style="fill-rule:evenodd;clip-rule:evenodd;stroke-linecap:round;stroke-linejoin:round;stroke-miterlimit:1.5;"><path id="U1-muscle" d="M30331.068,633.573c1338.981,0 2424.42,1070.52 2424.42,2391.099l0,11955.331c0,1320.578 -1085.439,2391.099 -2424.42,2391.099l-27274.316,0c-1338.981,0 -2424.42,-1070.52 -2424.42,-2391.099l0,-11955.331c0,-1320.578 1085.439,-2391.099 2424.42,-2391.099l27274.316,0Z" style="fill:#fff;stroke:#000;stroke-width:1268.79px;"/><path d="M14549.674,11150.326l-3824.549,0c-190.012,0 -372.305,-75.516 -506.674,-209.885c-134.369,-134.369 -209.885,-316.661 -209.885,-506.674l0,-2859.201c0,-190.012 75.516,-372.305 209.885,-506.674c134.369,-134.369 316.661,-209.885 506.674,-209.885l3824.549,0l0,-3824.549c0,-190.012 75.516,-372.305 209.885,-506.674c134.369,-134.369 316.661,-209.885 506.674,-209.885l2859.201,0c190.012,0 372.305,75.516 506.674,209.885c134.369,134.369 209.885,316.661 209.885,506.674l0,3824.549l3824.549,0c190.012,0 372.305,75.516 506.674,209.885c134.369,134.369 209.885,316.661 209.885,506.674l0,2859.201c0,190.012 -75.516,372.305 -209.885,506.674c-134.369,134.369 -316.661,209.885 -506.674,209.885l-3824.549,0l0,3824.549c0,190.012 -75.516,372.305 -209.885,506.674c-134.369,134.369 -316.661,209.885 -506.674,209.885l-2859.201,0c-190.012,0 -372.305,-75.516 -506.674,-209.885c-134.369,-134.369 -209.885,-316.661 -209.885,-506.674l0,-3824.549Z" style="stroke:#000;stroke-width:719.77px;"/></svg>